# This file uses centimeters as units for non-parametric coordinates.

v -0.000000 4.208395 0.000000
v 5.000002 4.208395 0.000000
v 5.000002 0.206069 0.000000
v -0.000000 0.206069 0.000000
v 5.000002 4.208395 0.054874
v 0.000002 4.208395 0.054875
v 5.000002 4.414464 0.054874
v 0.000000 4.414464 0.054875
v 5.000002 4.208395 0.000000
v 0.000002 4.208395 0.000000
v 5.000002 -0.270663 0.054874
v 0.000002 -0.270663 0.054875
v 5.000002 0.206069 0.054874
v 0.000000 0.206069 0.054875
vt 0.204736 0.062243
vt 0.204736 0.062243
vt 0.204736 0.062243
vt 0.204736 0.062243
vt 0.145680 0.062242
vt 0.145680 0.062242
vt 0.145680 0.062242
vt 0.145680 0.062242
vt 0.109079 0.062247
vt 0.109079 0.062247
vt 0.109079 0.062247
vt 0.109079 0.062247
vt 0.145680 0.062242
vt 0.145680 0.062242
vt 0.145680 0.062242
vt 0.145680 0.062242
vt 0.109079 0.062245
vt 0.109079 0.062245
vt 0.109079 0.062245
vt 0.109079 0.062245
vn -0.000000 0.000000 1.000000
vn -0.000000 0.000000 1.000000
vn -0.000000 0.000000 1.000000
vn -0.000000 0.000000 1.000000
vn 0.000000 0.000000 1.000000
vn 0.000000 0.000000 1.000000
vn 0.000000 0.000000 1.000000
vn 0.000000 0.000000 1.000000
vn 0.000000 -1.000000 0.000000
vn 0.000000 -1.000000 0.000000
vn 0.000000 -1.000000 0.000000
vn 0.000000 -1.000000 0.000000
vn 0.000000 0.000000 1.000000
vn 0.000000 0.000000 1.000000
vn 0.000000 0.000000 1.000000
vn 0.000000 0.000000 1.000000
vn 0.000000 1.000000 -0.000000
vn 0.000000 1.000000 -0.000000
vn 0.000000 1.000000 -0.000000
vn 0.000000 1.000000 -0.000000
s off
f 3/3/1 2/2/2 1/1/3 4/4/4
f 6/5/5 5/6/6 7/7/7 8/8/8
f 5/9/9 6/10/10 10/11/11 9/12/12
f 12/13/13 11/14/14 13/15/15 14/16/16
f 14/17/17 13/18/18 3/19/19 4/20/20
