# This file uses centimeters as units for non-parametric coordinates.

v 1.996513 3.751945 0.153379
v 1.996513 0.000000 0.153379
v -0.000004 3.748055 0.153379
v -0.000004 0.000000 0.153379
v 1.747040 3.513921 0.153379
v 1.747040 1.678422 0.153379
v 0.249470 3.511215 0.153379
v 0.249470 1.678422 0.153379
v 1.190926 1.678422 0.153379
v 1.190926 3.513019 0.153379
v 0.805592 1.678422 0.153379
v 0.805592 3.512117 0.153379
v 1.925331 2.506040 0.153379
v 1.925331 2.278529 0.153379
v 1.818214 2.506040 0.153379
v 1.818214 2.278536 0.153379
v 1.925034 1.678422 0.153379
v 1.818520 1.678422 0.153379
v 1.925034 2.070643 0.153379
v 1.818520 2.070645 0.153379
v 1.996513 3.751945 0.000000
v 1.996513 0.000000 0.000000
v -0.000004 3.748055 0.000000
v -0.000004 0.000000 0.000000
v 1.747040 3.513921 0.000000
v 1.747040 1.678422 0.000000
v 0.249470 3.511215 0.000000
v 0.249470 1.678422 0.000000
v 1.190926 1.678422 0.000000
v 1.190926 3.513019 0.000000
v 0.805592 1.678422 0.000000
v 0.805592 3.512117 0.000000
v 1.925331 2.506040 0.000000
v 1.925331 2.278529 0.000000
v 1.818214 2.506040 0.000000
v 1.818214 2.278536 0.000000
v 1.925034 1.678422 0.000000
v 1.818520 1.678422 0.000000
v 1.925034 2.070643 0.000000
v 1.818520 2.070645 0.000000
vt 0.020765 0.519740
vt 0.020765 0.519740
vt 0.020765 0.519740
vt 0.020765 0.519740
vt 0.426675 0.476289
vt 0.426675 0.476289
vt 0.426675 0.476289
vt 0.426675 0.476289
vt 0.330148 0.476096
vt 0.330148 0.476096
vt 0.330148 0.476096
vt 0.330148 0.476096
vt 0.330148 0.476096
vt 0.330148 0.476096
vt 0.330148 0.476096
vt 0.330148 0.476096
vt 0.330148 0.476096
vt 0.330148 0.476096
vt 0.330148 0.476096
vt 0.330148 0.476096
vt 0.330148 0.476096
vt 0.020765 0.519740
vt 0.020765 0.519740
vt 0.020765 0.519740
vt 0.020765 0.519740
vt 0.330148 0.476096
vt 0.330148 0.476096
vt 0.330148 0.476096
vt 0.330148 0.476096
vt 0.330148 0.476096
vt 0.330148 0.476096
vt 0.330148 0.476096
vt 0.330148 0.476096
vt 0.330148 0.476096
vt 0.330148 0.476096
vt 0.330148 0.476096
vt 0.330148 0.476096
vt 0.330148 0.476096
vt 0.330148 0.476096
vt 0.330148 0.476096
vt 0.330148 0.476096
vt 0.330148 0.476096
vt 0.330148 0.476096
vt 0.330148 0.476096
vt 0.330148 0.476096
vt 0.330148 0.476096
vt 0.330148 0.476096
vt 0.330148 0.476096
vt 0.426675 0.476289
vt 0.426675 0.476289
vt 0.426675 0.476289
vt 0.426675 0.476289
vt 0.330148 0.476096
vt 0.330148 0.476096
vt 0.330148 0.476096
vt 0.330148 0.476096
vt 0.330148 0.476096
vt 0.330148 0.476096
vt 0.330148 0.476096
vt 0.330148 0.476096
vt 0.330148 0.476096
vt 0.330148 0.476096
vt 0.330148 0.476096
vt 0.330148 0.476096
vt 0.330148 0.476096
vt 0.330148 0.476096
vt 0.330148 0.476096
vt 0.330148 0.476096
vt 0.330148 0.476096
vt 0.330148 0.476096
vt 0.330148 0.476096
vt 0.330148 0.476096
vt 0.330148 0.476096
vt 0.330148 0.476096
vt 0.020765 0.519740
vt 0.020765 0.519740
vt 0.020765 0.519740
vt 0.020765 0.519740
vt 0.419837 0.478304
vt 0.419837 0.478304
vt 0.419837 0.478304
vt 0.419837 0.478304
vt 0.330148 0.476096
vt 0.330148 0.476096
vt 0.330148 0.476096
vt 0.330148 0.476096
vt 0.330148 0.476096
vt 0.330148 0.476096
vt 0.330148 0.476096
vt 0.330148 0.476096
vt 0.330148 0.476096
vt 0.330148 0.476096
vt 0.330148 0.476096
vt 0.330148 0.476096
vt 0.330148 0.476096
vt 0.020765 0.519740
vt 0.020765 0.519740
vt 0.020765 0.519740
vt 0.020765 0.519740
vt 0.330148 0.476096
vt 0.330148 0.476096
vt 0.330148 0.476096
vt 0.330148 0.476096
vt 0.330148 0.476096
vt 0.330148 0.476096
vt 0.330148 0.476096
vt 0.330148 0.476096
vt 0.330148 0.476096
vt 0.330148 0.476096
vt 0.330148 0.476096
vt 0.330148 0.476096
vt 0.330148 0.476096
vt 0.330148 0.476096
vt 0.330148 0.476096
vt 0.330148 0.476096
vt 0.330148 0.476096
vt 0.330148 0.476096
vt 0.330148 0.476096
vt 0.330148 0.476096
vt 0.330148 0.476096
vt 0.330148 0.476096
vt 0.330148 0.476096
vt 0.419837 0.478304
vt 0.419837 0.478304
vt 0.419837 0.478304
vt 0.419837 0.478304
vt 0.330148 0.476096
vt 0.330148 0.476096
vt 0.330148 0.476096
vt 0.330148 0.476096
vt 0.330148 0.476096
vt 0.330148 0.476096
vt 0.330148 0.476096
vt 0.330148 0.476096
vt 0.330148 0.476096
vt 0.330148 0.476096
vt 0.330148 0.476096
vt 0.330148 0.476096
vt 0.330148 0.476096
vt 0.330148 0.476096
vt 0.330148 0.476096
vt 0.330148 0.476096
vt 0.330148 0.476096
vt 0.330148 0.476096
vt 0.330148 0.476096
vt 0.330148 0.476096
vt 0.330148 0.476096
vt 0.330148 0.476096
vt 0.386979 0.475483
vt 0.386979 0.475483
vt 0.386979 0.475483
vt 0.386979 0.475483
vt 0.362200 0.474992
vt 0.362200 0.474992
vt 0.362200 0.474992
vt 0.362200 0.474992
vt 0.357251 0.477446
vt 0.357251 0.477447
vt 0.357251 0.477447
vt 0.357251 0.477446
vt 0.142942 0.476307
vt 0.142942 0.476307
vt 0.142942 0.476307
vt 0.142942 0.476307
vn 0.000000 0.000000 1.000000
vn -0.000000 0.000000 1.000000
vn 0.000000 0.000000 1.000000
vn 0.000000 0.000000 1.000000
vn -0.000006 0.000000 1.000000
vn 0.000001 0.000000 1.000000
vn -0.000000 0.000000 1.000000
vn -0.000001 0.000000 1.000000
vn 0.000000 0.000000 1.000000
vn 0.000000 0.000000 1.000000
vn -0.000000 0.000000 1.000000
vn 0.000000 0.000000 1.000000
vn 0.000000 0.000000 1.000000
vn 0.000000 0.000000 1.000000
vn 0.000000 0.000000 1.000000
vn 0.000000 0.000000 1.000000
vn 0.000000 0.000000 1.000000
vn 0.000000 0.000000 1.000000
vn 0.000000 0.000000 1.000000
vn -0.000000 0.000000 1.000000
vn 0.000000 0.000000 1.000000
vn 0.000001 0.000000 1.000000
vn 0.000001 0.000000 1.000000
vn 0.000000 0.000000 1.000000
vn 0.000000 0.000000 1.000000
vn 0.000000 0.000000 1.000000
vn 0.000000 0.000000 1.000000
vn 0.000001 0.000000 1.000000
vn 0.000000 0.000000 1.000000
vn 0.000000 0.000000 1.000000
vn 0.000000 0.000000 1.000000
vn 0.000000 0.000000 1.000000
vn 0.000000 0.000000 1.000000
vn 0.000000 0.000000 1.000000
vn -0.000000 0.000000 1.000000
vn 0.000000 0.000000 1.000000
vn 0.000000 0.000000 1.000000
vn -0.000000 0.000000 1.000000
vn -0.000000 0.000000 1.000000
vn 0.000000 0.000000 1.000000
vn 0.000000 0.000000 1.000000
vn 0.000001 0.000000 1.000000
vn -0.000000 0.000000 1.000000
vn 0.000001 0.000000 1.000000
vn 0.000001 0.000000 1.000000
vn 0.000001 0.000000 1.000000
vn -0.000001 0.000000 1.000000
vn -0.000000 0.000000 1.000000
vn 0.000000 0.000000 1.000000
vn 0.000000 0.000000 1.000000
vn -0.000006 0.000000 1.000000
vn -0.000003 0.000000 1.000000
vn -0.000006 0.000000 1.000000
vn 0.000000 0.000000 1.000000
vn 0.000001 0.000000 1.000000
vn -0.000006 0.000000 1.000000
vn -0.000001 0.000000 1.000000
vn -0.000003 0.000000 1.000000
vn -0.000006 0.000000 1.000000
vn -0.000001 0.000000 1.000000
vn 0.000001 0.000000 1.000000
vn 0.000000 0.000000 1.000000
vn -0.000003 0.000000 1.000000
vn 0.000001 0.000000 1.000000
vn 0.000000 0.000000 1.000000
vn 0.000000 0.000000 1.000000
vn 0.000000 0.000000 1.000000
vn -0.000000 0.000000 1.000000
vn -0.000006 0.000000 1.000000
vn 0.000000 0.000000 1.000000
vn -0.000006 0.000000 1.000000
vn -0.000006 0.000000 1.000000
vn -0.000000 0.000000 1.000000
vn 0.000000 0.000000 1.000000
vn 0.000000 0.000000 -1.000000
vn 0.000000 0.000000 -1.000000
vn 0.000000 0.000000 -1.000000
vn -0.000000 0.000000 -1.000000
vn -0.000006 0.000000 -1.000000
vn -0.000001 0.000000 -1.000000
vn -0.000000 0.000000 -1.000000
vn 0.000001 0.000000 -1.000000
vn 0.000000 0.000000 -1.000000
vn -0.000000 0.000000 -1.000000
vn 0.000000 0.000000 -1.000000
vn 0.000000 0.000000 -1.000000
vn 0.000000 0.000000 -1.000000
vn 0.000000 0.000000 -1.000000
vn 0.000000 0.000000 -1.000000
vn 0.000000 0.000000 -1.000000
vn 0.000000 0.000000 -1.000000
vn 0.000000 0.000000 -1.000000
vn 0.000000 0.000000 -1.000000
vn 0.000000 0.000000 -1.000000
vn -0.000000 0.000000 -1.000000
vn 0.000001 0.000000 -1.000000
vn 0.000000 0.000000 -1.000000
vn 0.000000 0.000000 -1.000000
vn 0.000001 0.000000 -1.000000
vn 0.000000 0.000000 -1.000000
vn 0.000001 0.000000 -1.000000
vn 0.000000 0.000000 -1.000000
vn 0.000000 0.000000 -1.000000
vn 0.000000 0.000000 -1.000000
vn 0.000000 0.000000 -1.000000
vn 0.000000 0.000000 -1.000000
vn 0.000000 0.000000 -1.000000
vn 0.000000 0.000000 -1.000000
vn -0.000000 0.000000 -1.000000
vn 0.000000 0.000000 -1.000000
vn 0.000000 0.000000 -1.000000
vn 0.000000 0.000000 -1.000000
vn -0.000000 0.000000 -1.000000
vn -0.000000 0.000000 -1.000000
vn 0.000000 0.000000 -1.000000
vn 0.000001 0.000000 -1.000000
vn -0.000000 0.000000 -1.000000
vn 0.000001 0.000000 -1.000000
vn 0.000001 0.000000 -1.000000
vn -0.000000 0.000000 -1.000000
vn -0.000001 0.000000 -1.000000
vn 0.000001 0.000000 -1.000000
vn 0.000000 0.000000 -1.000000
vn -0.000003 0.000000 -1.000000
vn -0.000006 0.000000 -1.000000
vn 0.000000 0.000000 -1.000000
vn -0.000006 0.000000 -1.000000
vn 0.000001 0.000000 -1.000000
vn 0.000000 0.000000 -1.000000
vn -0.000006 0.000000 -1.000000
vn -0.000006 0.000000 -1.000000
vn -0.000003 0.000000 -1.000000
vn -0.000001 0.000000 -1.000000
vn -0.000001 0.000000 -1.000000
vn -0.000003 0.000000 -1.000000
vn 0.000000 0.000000 -1.000000
vn 0.000001 0.000000 -1.000000
vn 0.000001 0.000000 -1.000000
vn 0.000000 0.000000 -1.000000
vn 0.000000 0.000000 -1.000000
vn 0.000000 0.000000 -1.000000
vn -0.000000 0.000000 -1.000000
vn 0.000000 0.000000 -1.000000
vn -0.000006 0.000000 -1.000000
vn -0.000006 0.000000 -1.000000
vn 0.000000 0.000000 -1.000000
vn -0.000000 0.000000 -1.000000
vn -0.000006 0.000000 -1.000000
vn -0.001948 0.999998 -0.000000
vn -0.001948 0.999998 -0.000000
vn -0.001948 0.999998 -0.000000
vn -0.001948 0.999998 -0.000000
vn 1.000000 0.000000 -0.000002
vn 1.000000 0.000000 -0.000002
vn 1.000000 0.000000 -0.000002
vn 1.000000 0.000000 -0.000002
vn -1.000000 0.000000 0.000000
vn -1.000000 0.000000 0.000000
vn -1.000000 0.000000 0.000000
vn -1.000000 0.000000 0.000000
vn 0.000000 -1.000000 0.000000
vn 0.000000 -1.000000 0.000000
vn 0.000000 -1.000000 0.000000
vn 0.000000 -1.000000 0.000000
s off
f 11/1/1 12/2/2 7/3/3 8/4/4
f 14/5/5 13/6/6 15/7/7 16/8/8
f 3/9/9 7/10/10 12/11/11
f 3/12/12 4/13/13 8/14/14 7/15/15
f 4/16/16 11/17/17 8/18/18
f 18/19/19 2/20/20 17/21/21
f 6/22/22 5/23/23 10/24/24 9/25/25
f 1/26/26 10/27/27 5/28/28
f 4/29/29 2/30/30 9/31/31 11/32/32
f 9/33/33 10/34/34 12/35/35 11/36/36
f 1/37/37 3/38/38 12/39/39 10/40/40
f 1/41/41 5/42/42 15/43/43 13/44/44
f 5/45/45 6/46/46 16/47/47 15/48/48
f 18/49/49 17/50/50 19/51/51 20/52/52
f 14/53/53 1/54/54 13/55/55
f 14/56/56 16/57/57 20/58/58 19/59/59
f 16/60/60 6/61/61 18/62/62 20/63/63
f 6/64/64 9/65/65 2/66/66 18/67/67
f 2/68/68 19/69/69 17/70/70
f 14/71/71 19/72/72 2/73/73 1/74/74
f 31/75/75 28/76/76 27/77/77 32/78/78
f 34/79/79 36/80/80 35/81/81 33/82/82
f 23/83/83 32/85/84 27/84/85
f 23/86/86 27/89/87 28/88/88 24/87/89
f 24/90/90 28/92/91 31/91/92
f 38/93/93 37/95/94 22/94/95
f 26/96/96 29/97/97 30/98/98 25/99/99
f 21/100/100 25/102/101 30/101/102
f 24/103/103 31/106/104 29/105/105 22/104/106
f 29/107/107 31/110/108 32/109/109 30/108/110
f 21/111/111 30/114/112 32/113/113 23/112/114
f 21/115/115 33/118/116 35/117/117 25/116/118
f 25/119/119 35/122/120 36/121/121 26/120/122
f 38/123/123 40/124/124 39/125/125 37/126/126
f 34/127/127 33/129/128 21/128/129
f 34/130/130 39/133/131 40/132/132 36/131/133
f 36/134/134 40/137/135 38/136/136 26/135/137
f 26/138/138 38/141/139 22/140/140 29/139/141
f 22/142/142 37/144/143 39/143/144
f 34/145/145 21/148/146 22/147/147 39/146/148
f 21/149/149 23/150/150 3/151/151 1/152/152
f 22/153/153 21/154/154 1/155/155 2/156/156
f 3/158/157 23/159/158 24/160/159 4/157/160
f 24/163/161 22/164/162 2/161/163 4/162/164
