# This file uses centimeters as units for non-parametric coordinates.

v 1.298645 3.956069 0.054875
v 1.504715 3.750000 0.054875
v 1.298645 3.956069 0.000000
v 5.000000 0.206069 0.000000
v 1.504715 3.750000 -0.033619
v 3.710785 3.956069 0.054875
v 3.504715 3.750000 0.054875
v 3.710785 3.956069 0.000000
v 3.504715 3.750000 -0.033619
v 0.000000 4.208395 0.000000
v 5.000000 4.208395 0.000000
v 5.000000 4.208395 0.054875
v 0.000000 4.208395 0.054875
v 5.000000 4.414464 0.054875
v 0.000000 4.414464 0.054875
v 0.000000 4.208395 0.000000
v 0.000000 0.206069 0.000000
v 3.710777 0.644202 0.054875
v 3.504707 0.850271 0.054875
v 3.710785 0.644202 0.000000
v 3.504707 0.850271 -0.033619
v 1.298645 0.644202 0.054875
v 1.504715 0.850271 0.054875
v 1.298645 0.644202 0.000000
v 1.504715 0.850271 -0.033619
v 5.000000 -0.270663 0.054875
v 0.000000 -0.270663 0.054875
v 5.000000 0.206069 0.054875
v 0.000000 0.206069 0.054875
vt 0.273236 0.264431
vt 0.273236 0.264431
vt 0.149117 0.264368
vt 0.149117 0.264368
vt 0.085977 0.264431
vt 0.085977 0.264431
vt 0.273236 0.264483
vt 0.273236 0.264483
vt 0.149117 0.264368
vt 0.149117 0.264368
vt 0.149117 0.264405
vt 0.149117 0.264405
vt 0.149117 0.264405
vt 0.149117 0.264405
vt 0.273236 0.264483
vt 0.273236 0.264483
vt 0.273236 0.264483
vt 0.273236 0.264483
vt 0.085977 0.264431
vt 0.085977 0.264431
vt 0.085977 0.264431
vt 0.085977 0.264431
vt 0.085977 0.264431
vt 0.085977 0.264431
vt 0.273236 0.264483
vt 0.273236 0.264483
vt 0.273236 0.264483
vt 0.273236 0.264483
vt 0.149117 0.264368
vt 0.149117 0.264368
vt 0.149117 0.264368
vt 0.149117 0.264368
vt 0.427820 0.261765
vt 0.427820 0.261765
vt 0.427820 0.261765
vt 0.427820 0.261765
vt 0.427820 0.261765
vt 0.427820 0.261765
vt 0.427820 0.261765
vt 0.273236 0.264431
vt 0.273236 0.264431
vt 0.149117 0.264368
vt 0.149117 0.264368
vt 0.085977 0.264431
vt 0.085977 0.264431
vt 0.149117 0.264368
vt 0.149117 0.264368
vt 0.149117 0.264405
vt 0.149117 0.264405
vt 0.149117 0.264405
vt 0.149117 0.264405
vt 0.273236 0.264483
vt 0.273236 0.264483
vt 0.273236 0.264483
vt 0.273236 0.264483
vt 0.085977 0.264431
vt 0.085977 0.264431
vt 0.085977 0.264431
vt 0.085977 0.264431
vt 0.273236 0.264483
vt 0.273236 0.264483
vt 0.085977 0.264431
vt 0.085977 0.264431
vt 0.427820 0.261765
vt 0.427820 0.261765
vt 0.427820 0.261765
vt 0.273236 0.264483
vt 0.273236 0.264483
vt 0.273236 0.264483
vt 0.273236 0.264483
vt 0.149117 0.264405
vt 0.149117 0.264405
vt 0.149117 0.264405
vt 0.149117 0.264405
vt 0.427820 0.261765
vt 0.427820 0.261765
vt 0.427820 0.261765
vt 0.427820 0.261765
vt 0.427820 0.261765
vt 0.427820 0.261765
vt 0.014847 0.522699
vt 0.014847 0.522699
vt 0.014847 0.522699
vt 0.014847 0.522699
vn 0.000000 0.000000 1.000000
vn 0.000000 0.000000 1.000000
vn 0.000000 0.000000 1.000000
vn 0.000000 0.000000 1.000000
vn -1.000000 0.000000 0.000000
vn -1.000000 0.000000 0.000000
vn -1.000000 0.000000 0.000000
vn -1.000000 0.000000 0.000000
vn 1.000000 0.000000 0.000000
vn 1.000000 0.000000 0.000000
vn 1.000000 0.000000 0.000000
vn 1.000000 0.000000 0.000000
vn 1.000000 -0.000002 0.000070
vn 1.000000 -0.000002 0.000070
vn 1.000000 -0.000002 0.000070
vn 1.000000 -0.000002 0.000070
vn 0.000000 1.000000 0.000000
vn 0.000000 1.000000 0.000000
vn 0.000000 1.000000 0.000000
vn 0.000000 1.000000 0.000000
vn 0.000000 0.000000 1.000000
vn 0.000000 0.000000 1.000000
vn 0.000000 0.000000 1.000000
vn 0.000000 0.000000 1.000000
vn 0.000000 -1.000000 0.000000
vn 0.000000 -1.000000 0.000000
vn 0.000000 -1.000000 0.000000
vn 0.000000 -1.000000 0.000000
vn 0.000000 0.000000 1.000000
vn 0.000000 0.000000 1.000000
vn 0.000000 0.000000 1.000000
vn 0.000000 0.000000 1.000000
vn 0.000000 -1.000000 0.000000
vn 0.000000 -1.000000 0.000000
vn 0.000000 -1.000000 0.000000
vn 0.000000 -1.000000 0.000000
vn 0.000000 -0.000000 1.000000
vn 0.000000 -0.000000 1.000000
vn 0.000000 -0.000000 1.000000
vn 0.000000 -0.000000 1.000000
vn 0.000000 0.000000 1.000000
vn 0.000000 0.000000 1.000000
vn 0.000000 0.000000 1.000000
vn 0.000000 0.000000 1.000000
vn 0.000000 0.000000 1.000000
vn 0.000000 0.000000 1.000000
vn 0.000000 0.000000 1.000000
vn 0.000000 0.000000 1.000000
vn 0.000000 0.000000 1.000000
vn 0.000000 0.000000 1.000000
vn 0.000000 0.000000 1.000000
vn 0.000000 0.000000 1.000000
vn -1.000000 0.000004 0.000000
vn -1.000000 0.000004 0.000000
vn -1.000000 0.000004 0.000000
vn -1.000000 0.000004 0.000000
vn 0.000000 -1.000000 -0.000000
vn 0.000000 -1.000000 -0.000000
vn 0.000000 -1.000000 -0.000000
vn 0.000000 -1.000000 -0.000000
vn 0.000000 0.000000 1.000000
vn 0.000000 0.000000 1.000000
vn 0.000000 0.000000 1.000000
vn 0.000000 0.000000 1.000000
vn 0.000000 1.000000 0.000000
vn 0.000000 1.000000 0.000000
vn 0.000000 1.000000 0.000000
vn 0.000000 1.000000 0.000000
vn -0.000000 0.000000 1.000000
vn -0.000000 0.000000 1.000000
vn -0.000000 0.000000 1.000000
vn -0.000000 0.000000 1.000000
vn 0.000000 0.000000 1.000000
vn 0.000000 0.000000 1.000000
vn 0.000000 0.000000 1.000000
vn 0.000000 0.000000 1.000000
vn -0.000000 1.000000 -0.000002
vn -0.000000 1.000000 -0.000002
vn -0.000000 1.000000 -0.000002
vn -0.000000 1.000000 -0.000002
vn 0.000000 0.000000 1.000000
vn 0.000000 0.000000 1.000000
vn 0.000000 0.000000 1.000000
vn 0.000000 0.000000 1.000000
s off
f 2/2/1 1/1/2 22/60/3 23/61/4
f 1/3/5 3/4/6 24/47/7 22/46/8
f 25/63/9 5/6/10 2/5/11 23/62/12
f 20/43/13 8/10/14 6/9/15 18/42/16
f 8/13/17 3/14/18 1/11/19 6/12/20
f 1/18/21 2/15/22 7/16/23 6/17/24
f 2/22/25 5/23/26 9/24/27 7/21/28
f 13/25/29 12/26/30 14/27/31 15/28/32
f 12/29/33 13/30/34 16/31/35 11/32/36
f 17/75/37 4/39/38 20/66/39 24/64/40
f 10/33/41 3/80/42 8/35/43 11/78/44
f 11/34/45 8/79/46 20/65/47 4/36/48
f 6/7/49 7/8/50 19/40/51 18/41/52
f 7/19/53 9/20/54 21/44/55 19/45/56
f 18/48/57 22/49/58 24/50/59 20/51/60
f 19/52/61 23/53/62 22/54/63 18/55/64
f 23/56/65 19/57/66 21/58/67 25/59/68
f 3/37/69 10/76/70 17/38/71 24/77/72
f 27/67/73 26/68/74 28/69/75 29/70/76
f 29/71/77 28/72/78 4/73/79 17/74/80
f 5/81/81 25/82/82 21/83/83 9/84/84
