# This file uses centimeters as units for non-parametric coordinates.

v -0.678723 -0.031060 0.678723
v 0.678723 -0.031060 0.678723
v -0.678723 8.828928 0.678723
v 0.678723 8.828928 0.678723
v -0.678723 8.828928 -0.678723
v 0.678723 8.828928 -0.678723
v -0.678723 -0.031060 -0.678723
v 0.678723 -0.031060 -0.678723
v -0.678723 8.267006 0.678723
v 0.678723 8.267006 0.678723
v 0.678723 8.267007 -0.678723
v -0.678723 8.267007 -0.678723
v -0.493979 8.267006 0.493979
v 0.493979 8.267006 0.493979
v 0.493979 8.267006 -0.493979
v -0.493979 8.267006 -0.493979
v -0.678723 0.581712 0.678723
v 0.678726 0.581712 0.678723
v 0.678723 0.581710 -0.678723
v -0.678723 0.581710 -0.678723
v 0.493979 0.581712 -0.493979
v 0.493982 0.581712 0.493979
v -0.493977 0.581712 0.493979
v -0.493979 0.581712 -0.493979
vt 0.205151 0.061662
vt 0.229877 0.061662
vt 0.265201 0.061662
vt 0.205151 0.061662
vt 0.229878 0.061662
vt 0.265201 0.061662
vt 0.171004 0.061662
vt 0.229877 0.061662
vt 0.171004 0.061662
vt 0.171004 0.061662
vt 0.205151 0.061662
vt 0.205151 0.061662
vt 0.205151 0.061662
vt 0.205151 0.061662
vt 0.265201 0.061662
vt 0.229877 0.061662
vt 0.229878 0.061662
vt 0.265201 0.061662
vt 0.171004 0.061662
vt 0.229878 0.061662
vt 0.205151 0.061662
vt 0.229877 0.061662
vt 0.229878 0.061662
vt 0.205151 0.061662
vt 0.165203 0.062649
vt 0.229878 0.061662
vt 0.165203 0.062649
vt 0.205151 0.061662
vt 0.165203 0.062649
vt 0.165203 0.062649
vt 0.165203 0.062649
vt 0.165203 0.062649
vt 0.392639 0.063041
vt 0.165203 0.062649
vt 0.417365 0.063041
vt 0.165203 0.062649
vt 0.417365 0.063041
vt 0.392639 0.063041
vt 0.392639 0.063041
vt 0.417366 0.063041
vt 0.260833 0.061731
vt 0.260833 0.061731
vt 0.229877 0.061662
vt 0.205151 0.061662
vt 0.260833 0.061731
vt 0.205151 0.061662
vt 0.260833 0.061731
vt 0.229877 0.061662
vt 0.260833 0.061731
vt 0.260833 0.061731
vt 0.417365 0.063041
vt 0.392639 0.063041
vt 0.392639 0.063041
vt 0.417365 0.063041
vt 0.392639 0.063041
vt 0.417365 0.063041
vt 0.165203 0.062649
vt 0.165203 0.062649
vt 0.165203 0.062649
vt 0.417366 0.063041
vt 0.165203 0.062649
vt 0.165203 0.062649
vt 0.165203 0.062649
vt 0.392639 0.063041
vt 0.229877 0.061662
vt 0.165203 0.062649
vt 0.205151 0.061662
vt 0.165203 0.062649
vt 0.229878 0.061662
vt 0.205151 0.061662
vt 0.205151 0.061662
vt 0.229877 0.061662
vt 0.260833 0.061731
vt 0.260833 0.061731
vt 0.392639 0.063041
vt 0.417365 0.063041
vt 0.260833 0.061731
vt 0.260833 0.061731
vt 0.260833 0.061731
vt 0.260833 0.061731
vt 0.205151 0.061662
vt 0.260833 0.061731
vt 0.229877 0.061662
vt 0.260833 0.061731
vt 0.229878 0.061662
vt 0.205151 0.061662
vt 0.260833 0.061731
vt 0.260833 0.061731
vn 0.000000 0.000000 1.000000
vn 0.000000 0.000000 1.000000
vn 0.000000 0.000000 1.000000
vn 0.000000 0.000000 1.000000
vn 0.000000 1.000000 0.000000
vn 0.000000 1.000000 0.000000
vn 0.000000 1.000000 0.000000
vn 0.000000 1.000000 0.000000
vn 0.000000 0.000000 -1.000000
vn 0.000000 0.000000 -1.000000
vn 0.000000 0.000000 -1.000000
vn 0.000000 0.000000 -1.000000
vn 0.000000 -1.000000 0.000000
vn 0.000000 -1.000000 0.000000
vn 0.000000 -1.000000 0.000000
vn 0.000000 -1.000000 0.000000
vn 1.000000 0.000000 0.000000
vn 1.000000 0.000000 0.000000
vn 1.000000 0.000000 0.000000
vn 1.000000 0.000000 0.000000
vn -1.000000 0.000000 0.000000
vn -1.000000 0.000000 0.000000
vn -1.000000 0.000000 0.000000
vn -1.000000 0.000000 0.000000
vn 0.000000 -1.000000 -0.000004
vn 0.000000 -1.000000 -0.000004
vn 0.000000 -1.000000 -0.000004
vn 0.000000 -1.000000 -0.000004
vn 0.000003 -1.000000 0.000000
vn 0.000003 -1.000000 0.000000
vn 0.000003 -1.000000 0.000000
vn 0.000003 -1.000000 0.000000
vn 0.000000 -1.000000 -0.000005
vn 0.000000 -1.000000 -0.000005
vn 0.000000 -1.000000 -0.000005
vn 0.000000 -1.000000 -0.000005
vn -0.000003 -1.000000 0.000000
vn -0.000003 -1.000000 0.000000
vn -0.000003 -1.000000 0.000000
vn -0.000003 -1.000000 0.000000
vn 0.000000 1.000000 0.000000
vn 0.000000 1.000000 0.000000
vn 0.000000 1.000000 0.000000
vn 0.000000 1.000000 0.000000
vn 0.000005 1.000000 -0.000001
vn 0.000005 1.000000 -0.000001
vn 0.000005 1.000000 -0.000001
vn 0.000005 1.000000 -0.000001
vn 0.000000 1.000000 -0.000009
vn 0.000000 1.000000 -0.000009
vn 0.000000 1.000000 -0.000009
vn 0.000000 1.000000 -0.000009
vn -0.000005 1.000000 -0.000001
vn -0.000005 1.000000 -0.000001
vn -0.000005 1.000000 -0.000001
vn -0.000005 1.000000 -0.000001
vn 0.000000 0.000000 1.000000
vn 0.000000 0.000000 1.000000
vn 0.000000 0.000000 1.000000
vn 0.000000 0.000000 1.000000
vn 1.000000 -0.000002 -0.000001
vn 1.000000 -0.000002 -0.000001
vn 1.000000 -0.000002 -0.000001
vn 1.000000 -0.000002 -0.000001
vn 0.000000 0.000000 -1.000000
vn 0.000000 0.000000 -1.000000
vn 0.000000 0.000000 -1.000000
vn 0.000000 0.000000 -1.000000
vn -1.000000 0.000000 0.000000
vn -1.000000 0.000000 0.000000
vn -1.000000 0.000000 0.000000
vn -1.000000 0.000000 0.000000
vn 1.000000 0.000000 -0.000001
vn 1.000000 0.000000 -0.000001
vn 1.000000 0.000000 -0.000001
vn 1.000000 0.000000 -0.000001
vn 0.000000 0.000000 1.000000
vn 0.000000 0.000000 1.000000
vn 0.000000 0.000000 1.000000
vn 0.000000 0.000000 1.000000
vn -1.000000 -0.000000 0.000001
vn -1.000000 -0.000000 0.000001
vn -1.000000 -0.000000 0.000001
vn -1.000000 -0.000000 0.000001
vn 0.000000 0.000000 -1.000000
vn 0.000000 0.000000 -1.000000
vn 0.000000 0.000000 -1.000000
vn 0.000000 0.000000 -1.000000
s off
f 9/26/1 10/65/2 4/22/3 3/17/4
f 3/3/5 4/15/6 6/6/7 5/18/8
f 5/5/9 6/16/10 11/72/11 12/69/12
f 7/7/13 8/19/14 2/10/15 1/9/16
f 10/28/17 11/71/18 6/12/19 4/4/20
f 12/70/21 9/67/22 3/24/23 5/14/24
f 13/34/25 14/63/26 10/27/27 9/68/28
f 14/36/29 15/61/30 11/30/31 10/66/32
f 12/32/33 11/29/34 15/62/35 16/57/36
f 16/58/37 13/59/38 9/25/39 12/31/40
f 17/42/41 18/87/42 22/80/43 23/77/44
f 18/88/45 19/84/46 21/50/47 22/79/48
f 24/74/49 21/49/50 19/45/51 20/82/52
f 20/47/53 17/41/54 23/78/55 24/73/56
f 1/23/57 2/2/58 18/43/59 17/85/60
f 2/21/61 8/11/62 19/46/63 18/44/64
f 20/48/65 19/83/66 8/8/67 7/20/68
f 7/13/69 1/1/70 17/86/71 20/81/72
f 22/52/73 21/75/74 15/38/75 14/64/76
f 23/54/77 22/51/78 14/35/79 13/60/80
f 24/55/81 23/53/82 13/33/83 16/39/84
f 16/40/85 15/37/86 21/76/87 24/56/88
