# This file uses centimeters as units for non-parametric coordinates.

v -0.000002 8.416789 0.000000
v 5.000000 8.416789 0.000000
v 5.000000 0.206069 0.000000
v -0.000002 0.206069 0.000000
v 5.000000 8.416789 0.054874
v 0.000000 8.416789 0.054875
v 5.000000 8.828928 0.054874
v -0.000002 8.828928 0.054875
v 5.000000 8.416789 0.000000
v 0.000000 8.416789 0.000000
v 5.000000 -0.270663 0.054874
v 0.000000 -0.270663 0.054875
v 5.000000 0.206069 0.054874
v -0.000002 0.206069 0.054875
v 4.871665 0.307735 0.000000
v 4.871665 3.926708 0.000000
v 0.128334 3.926708 0.000000
v 0.128334 0.307735 0.000000
v -0.000002 4.054598 0.000000
v 5.000000 4.054598 0.000000
v 4.874173 4.994480 0.000000
v 4.874173 7.476908 0.000000
v 0.125825 7.476908 0.000000
v 0.125825 4.994480 0.000000
v -0.000002 4.824791 0.000000
v 5.000000 4.824791 0.000000
v -0.000002 7.616562 0.000000
v 5.000000 7.616562 0.000000
vt 0.195742 0.062876
vt 0.195742 0.062876
vt 0.132197 0.062876
vt 0.132197 0.062876
vt 0.144286 0.062458
vt 0.144286 0.062458
vt 0.144286 0.062458
vt 0.144286 0.062458
vt 0.101538 0.063670
vt 0.101538 0.063670
vt 0.101538 0.063670
vt 0.101538 0.063670
vt 0.144286 0.062458
vt 0.144286 0.062458
vt 0.144286 0.062458
vt 0.144286 0.062458
vt 0.101538 0.063284
vt 0.101538 0.063284
vt 0.101538 0.063284
vt 0.101538 0.063284
vt 0.132197 0.062876
vt 0.132197 0.062876
vt 0.132197 0.062876
vt 0.132197 0.062876
vt 0.195742 0.062876
vt 0.132197 0.062876
vt 0.132197 0.062876
vt 0.132197 0.062876
vt 0.132197 0.062876
vt 0.195742 0.062876
vt 0.132197 0.062876
vt 0.132197 0.062876
vt 0.132197 0.062876
vt 0.132197 0.062876
vt 0.132197 0.062876
vt 0.132197 0.062876
vt 0.131082 0.062876
vt 0.131082 0.062876
vt 0.131082 0.062876
vt 0.131082 0.062876
vt 0.131082 0.062876
vt 0.195742 0.062876
vt 0.195742 0.062876
vt 0.131082 0.062876
vt 0.131082 0.062876
vt 0.131082 0.062876
vt 0.131082 0.062876
vt 0.195742 0.062876
vt 0.131082 0.062876
vt 0.131082 0.062876
vt 0.131082 0.062876
vt 0.195742 0.062876
vt 0.131082 0.062876
vt 0.131082 0.062876
vt 0.131082 0.062876
vt 0.131082 0.062876
vn 0.000000 0.000000 1.000000
vn 0.000000 0.000000 1.000000
vn 0.000000 0.000000 1.000000
vn 0.000000 0.000000 1.000000
vn 0.000000 -1.000000 0.000000
vn 0.000000 -1.000000 0.000000
vn 0.000000 -1.000000 0.000000
vn 0.000000 -1.000000 0.000000
vn 0.000000 0.000000 1.000000
vn 0.000000 0.000000 1.000000
vn 0.000000 0.000000 1.000000
vn 0.000000 0.000000 1.000000
vn 0.000000 1.000000 -0.000000
vn 0.000000 1.000000 -0.000000
vn 0.000000 1.000000 -0.000000
vn 0.000000 1.000000 -0.000000
vn 0.000000 0.000000 1.000000
vn 0.000000 0.000000 1.000000
vn -0.000000 0.000000 1.000000
vn -0.000000 0.000000 1.000000
vn 0.000000 0.000000 1.000000
vn 0.000000 0.000000 1.000000
vn -0.000000 0.000000 1.000000
vn -0.000000 0.000000 1.000000
vn 0.000000 -0.000000 1.000000
vn 0.000000 -0.000000 1.000000
vn -0.000000 0.000000 1.000000
vn -0.000000 0.000000 1.000000
vn 0.000000 0.000000 1.000000
vn 0.000000 0.000000 1.000000
vn -0.000000 0.000000 1.000000
vn -0.000000 0.000000 1.000000
vn 0.000000 -0.000000 1.000000
vn 0.000000 -0.000000 1.000000
vn 0.000000 0.000000 1.000000
vn 0.000000 0.000000 1.000000
vn 0.000000 0.000000 1.000000
vn 0.000000 0.000000 1.000000
vn 0.000000 0.000000 1.000000
vn 0.000000 0.000000 1.000000
vn 0.000000 0.000000 1.000000
vn 0.000000 0.000000 1.000000
vn 0.000000 0.000000 1.000000
vn 0.000000 0.000000 1.000000
vn 0.000000 0.000000 1.000000
vn 0.000000 0.000000 1.000000
vn 0.000000 0.000000 1.000000
vn 0.000000 0.000000 1.000000
vn 0.000000 -0.000000 1.000000
vn 0.000000 -0.000000 1.000000
vn 0.000000 -0.000000 1.000000
vn 0.000000 -0.000000 1.000000
vn 0.000000 0.000000 1.000000
vn 0.000000 0.000000 1.000000
vn 0.000000 0.000000 1.000000
vn 0.000000 0.000000 1.000000
s off
f 6/5/1 5/6/2 7/7/3 8/8/4
f 5/9/5 6/10/6 10/11/7 9/12/8
f 12/13/9 11/14/10 13/15/11 14/16/12
f 14/17/13 13/18/14 3/19/15 4/20/16
f 4/33/17 3/3/18 15/35/19 18/24/20
f 19/28/21 4/4/22 18/34/23 17/23/24
f 20/29/25 19/27/26 17/32/27 16/22/28
f 3/36/29 20/26/30 16/31/31 15/21/32
f 27/43/33 28/48/34 2/2/35 1/1/36
f 25/51/37 26/53/38 21/55/39 24/40/40
f 26/42/41 25/52/42 19/25/43 20/30/44
f 27/46/45 25/41/46 24/56/47 23/39/48
f 28/47/49 27/45/50 23/50/51 22/38/52
f 26/54/53 28/44/54 22/49/55 21/37/56
