# This file uses centimeters as units for non-parametric coordinates.

v 1.298639 3.956069 0.054875
v 1.298639 0.206069 0.054875
v 1.504709 3.750000 0.054875
v 1.504709 -0.270663 0.054875
v 1.298639 3.956069 0.000000
v 1.298639 0.206069 0.000000
v 1.504709 3.750000 -0.033619
v 3.710777 3.956069 0.054875
v 3.710775 0.206069 0.054875
v 3.504707 3.750000 0.054875
v 3.504709 -0.270663 0.054875
v 3.710777 3.956069 0.000000
v 3.710775 0.206069 0.000000
v 3.504707 3.750000 -0.033619
v 3.504707 -0.162690 -0.033619
v 3.504707 3.750000 -0.033619
v 1.504709 3.750000 -0.033619
v -0.000002 4.208395 0.000000
v 4.999998 4.208395 0.000000
v 4.999998 0.206069 0.000000
v 4.999998 4.208395 0.054875
v 0.000000 4.208395 0.054875
v 4.999998 4.414464 0.054875
v -0.000002 4.414464 0.054875
v 0.000000 4.208395 0.000000
v 4.999998 -0.270663 0.054875
v 4.999998 0.206069 0.054875
v -0.000002 0.206069 0.000000
v -0.000002 0.206069 0.054875
v -0.000002 -0.270663 0.054875
v 1.504709 -0.162690 0.054875
v 1.504709 -0.162690 -0.033619
v 3.504707 -0.162690 0.054875
vt 0.235905 0.473032
vt 0.235905 0.473032
vt 0.235905 0.473032
vt 0.235905 0.473032
vt 0.112169 0.473312
vt 0.112169 0.473312
vt 0.112169 0.473312
vt 0.112169 0.473312
vt 0.112169 0.473032
vt 0.112169 0.473032
vt 0.235905 0.472799
vt 0.235905 0.472799
vt 0.235905 0.472799
vt 0.235905 0.472799
vt 0.112169 0.473312
vt 0.112169 0.473312
vt 0.112169 0.473312
vt 0.112169 0.473312
vt 0.112169 0.473148
vt 0.112169 0.473148
vt 0.112169 0.473148
vt 0.112169 0.473148
vt 0.235905 0.472799
vt 0.235905 0.472799
vt 0.235905 0.472799
vt 0.235905 0.472799
vt 0.112169 0.473032
vt 0.112169 0.473032
vt 0.112169 0.473032
vt 0.112169 0.473032
vt 0.112169 0.473032
vt 0.112169 0.473032
vt 0.112169 0.473032
vt 0.235905 0.472799
vt 0.235905 0.472799
vt 0.235905 0.472799
vt 0.235905 0.472799
vt 0.112169 0.473312
vt 0.112169 0.473312
vt 0.112169 0.473312
vt 0.112169 0.473312
vt 0.235905 0.472799
vt 0.235905 0.472799
vt 0.235905 0.472799
vt 0.112169 0.473148
vt 0.112169 0.473148
vt 0.390872 0.473052
vt 0.390872 0.473052
vt 0.390872 0.473052
vt 0.390872 0.473052
vt 0.390872 0.473052
vt 0.390872 0.473052
vt 0.390872 0.473052
vt 0.390872 0.473052
vt 0.102528 0.472204
vt 0.102528 0.472204
vt 0.235905 0.473032
vt 0.235905 0.473032
vt 0.102528 0.472204
vt 0.102528 0.472204
vt 0.235905 0.472799
vt 0.112169 0.473148
vt 0.112169 0.473148
vt 0.235905 0.472851
vt 0.235905 0.473238
vt 0.235905 0.472851
vt 0.112169 0.473032
vt 0.235905 0.473032
vt 0.112169 0.473032
vt 0.235905 0.473238
vt 0.112169 0.473032
vt 0.235905 0.472799
vt 0.235905 0.472851
vt 0.235905 0.472851
vt 0.235905 0.473238
vt 0.235905 0.473238
vt 0.235905 0.472799
vt 0.235905 0.473032
vt 0.235905 0.473032
vt 0.235905 0.473032
vt 0.235905 0.473032
vt 0.390872 0.473052
vt 0.390872 0.473052
vt 0.390872 0.473052
vt 0.390872 0.473052
vt 0.235905 0.472799
vn 0.000000 0.000000 1.000000
vn 0.000000 0.000000 1.000000
vn 0.000000 0.000000 1.000000
vn 0.000000 0.000000 1.000000
vn -1.000000 0.000000 0.000000
vn -1.000000 0.000000 0.000000
vn -1.000000 0.000000 0.000000
vn -1.000000 0.000000 0.000000
vn 1.000000 0.000000 0.000000
vn 1.000000 0.000000 0.000000
vn 1.000000 0.000000 0.000000
vn 1.000000 0.000000 0.000000
vn 0.000000 0.000000 1.000000
vn 0.000000 0.000000 1.000000
vn 0.000000 0.000000 1.000000
vn 1.000000 -0.000001 0.000000
vn 1.000000 -0.000001 0.000000
vn 1.000000 -0.000001 0.000000
vn 1.000000 -0.000001 0.000000
vn 0.000000 1.000000 0.000000
vn 0.000000 1.000000 0.000000
vn 0.000000 1.000000 0.000000
vn 0.000000 1.000000 0.000000
vn 0.000000 0.000000 1.000000
vn 0.000000 0.000000 1.000000
vn 0.000000 0.000000 1.000000
vn 0.000000 0.000000 1.000000
vn 0.000000 -1.000000 0.000000
vn 0.000000 -1.000000 0.000000
vn 0.000000 -1.000000 0.000000
vn 0.000000 -1.000000 0.000000
vn 0.000000 0.000000 1.000000
vn 0.000000 0.000000 1.000000
vn 0.000000 0.000000 1.000000
vn 0.000000 0.000000 1.000000
vn 0.000000 -1.000000 0.000000
vn 0.000000 -1.000000 0.000000
vn 0.000000 -1.000000 0.000000
vn 0.000000 -1.000000 0.000000
vn 0.000000 0.000000 1.000000
vn 0.000000 0.000000 1.000000
vn 0.000000 0.000000 1.000000
vn 0.000000 0.000000 1.000000
vn 0.000000 0.000000 1.000000
vn 0.000000 0.000000 1.000000
vn 0.000000 0.000000 1.000000
vn 0.000000 0.000000 1.000000
vn 0.000000 0.000000 1.000000
vn 0.000000 0.000000 1.000000
vn 0.000000 0.000000 1.000000
vn 0.000000 0.000000 1.000000
vn 0.000000 -0.000000 1.000000
vn 0.000000 -0.000000 1.000000
vn 0.000000 -0.000000 1.000000
vn 0.000000 -0.000000 1.000000
vn 0.000000 0.000000 1.000000
vn 0.000000 0.000000 1.000000
vn 0.000000 0.000000 1.000000
vn 0.000000 0.000000 1.000000
vn 0.000000 1.000000 0.000000
vn 0.000000 1.000000 0.000000
vn 0.000000 1.000000 0.000000
vn 0.000000 1.000000 0.000000
vn -0.000000 1.000000 -0.000002
vn -0.000000 1.000000 -0.000002
vn -0.000000 1.000000 -0.000002
vn -0.000000 1.000000 -0.000002
vn 0.000000 0.000000 1.000000
vn 0.000000 0.000000 1.000000
vn 0.000000 0.000000 1.000000
vn 0.000000 1.000000 0.000000
vn 0.000000 1.000000 0.000000
vn 0.000000 1.000000 0.000000
vn 0.000000 1.000000 0.000000
vn 0.000000 0.000000 1.000000
vn 0.000000 0.000000 1.000000
vn 0.000000 0.000000 1.000000
vn 0.000000 0.000000 1.000000
vn 0.000000 0.000000 1.000000
vn 0.000000 0.000000 1.000000
vn 0.000000 0.000000 1.000000
vn 0.000000 0.000000 1.000000
vn -1.000000 0.000000 0.000000
vn -1.000000 0.000000 0.000000
vn -1.000000 0.000000 0.000000
vn -1.000000 0.000000 0.000000
s off
f 2/1/1 31/79/2 3/3/3 1/2/4
f 1/5/5 5/8/6 6/7/7 2/6/8
f 31/67/9 32/69/10 7/10/11 3/9/12
f 9/11/13 33/77/14 11/14/15
f 8/15/16 9/16/17 13/17/18 12/18/19
f 1/19/20 8/20/21 12/21/22 5/22/23
f 3/23/24 10/24/25 8/25/26 1/26/27
f 10/30/28 3/31/29 17/32/30 16/33/31
f 22/34/32 21/35/33 23/36/34 24/37/35
f 21/38/36 22/39/37 25/40/38 19/41/39
f 11/42/40 26/43/41 27/44/42 9/61/43
f 5/85/44 18/83/45 28/53/46 6/54/47
f 18/47/48 5/52/49 12/84/50 19/82/51
f 19/48/52 12/49/53 13/51/54 20/50/55
f 4/4/56 2/81/57 29/57/58 30/58/59
f 29/55/60 2/56/61 6/59/62 28/60/63
f 13/63/64 9/62/65 27/45/66 20/46/67
f 2/80/68 4/78/69 31/68/70
f 15/65/71 32/70/72 31/75/73 33/76/74
f 33/64/75 31/66/76 4/73/77 11/74/78
f 9/86/79 8/12/80 10/13/81 33/72/82
f 15/29/83 33/71/84 10/27/85 14/28/86
