# This file uses centimeters as units for non-parametric coordinates.

v 1.298645 3.956069 0.054875
v 1.504715 3.750000 0.054875
v 1.298645 3.956069 0.000000
v 5.000000 0.206069 0.000000
v 1.504715 3.750000 -0.033619
v 3.710785 3.956069 0.054875
v 3.504715 3.750000 0.054875
v 3.710785 3.956069 0.000000
v 3.504715 3.750000 -0.033619
v 0.000000 4.208395 0.000000
v 5.000000 4.208395 0.000000
v 5.000000 4.208395 0.054875
v 0.000000 4.208395 0.054875
v 5.000000 4.414464 0.054875
v 0.000000 4.414464 0.054875
v 0.000000 4.208395 0.000000
v 0.000000 0.206069 0.000000
v 3.710777 0.644202 0.054875
v 3.504707 0.850271 0.054875
v 3.710785 0.644202 0.000000
v 3.504707 0.850271 -0.033619
v 1.298645 0.644202 0.054875
v 1.504715 0.850271 0.054875
v 1.298645 0.644202 0.000000
v 1.504715 0.850271 -0.033619
v 5.000000 -0.270663 0.054875
v 0.000000 -0.270663 0.054875
v 5.000000 0.206069 0.054875
v 0.000000 0.206069 0.054875
v 0.000000 2.303980 0.000000
v 1.298645 2.303980 0.000000
v 0.000000 1.568543 0.000000
v 1.298645 1.568543 0.000000
v 5.000000 2.303980 0.000000
v 3.710785 2.303980 0.000000
v 3.710785 1.568543 0.000000
v 5.000000 1.568543 0.000000
vt 0.233756 0.172310
vt 0.233756 0.172310
vt 0.109637 0.172247
vt 0.109637 0.172247
vt 0.046497 0.172310
vt 0.046497 0.172310
vt 0.233756 0.172362
vt 0.233756 0.172362
vt 0.109637 0.172247
vt 0.109637 0.172247
vt 0.109637 0.172284
vt 0.109637 0.172284
vt 0.109637 0.172284
vt 0.109637 0.172284
vt 0.233756 0.172362
vt 0.233756 0.172362
vt 0.233756 0.172362
vt 0.233756 0.172362
vt 0.046497 0.172310
vt 0.046497 0.172310
vt 0.046497 0.172310
vt 0.046497 0.172310
vt 0.046497 0.172310
vt 0.046497 0.172310
vt 0.233756 0.172362
vt 0.233756 0.172362
vt 0.233756 0.172362
vt 0.233756 0.172362
vt 0.109637 0.172247
vt 0.109637 0.172247
vt 0.109637 0.172247
vt 0.109637 0.172247
vt 0.388340 0.169644
vt 0.388340 0.169644
vt 0.388340 0.169644
vt 0.388340 0.169644
vt 0.388340 0.169644
vt 0.388340 0.169644
vt 0.388340 0.169644
vt 0.233756 0.172310
vt 0.233756 0.172310
vt 0.109637 0.172247
vt 0.109637 0.172247
vt 0.046497 0.172310
vt 0.046497 0.172310
vt 0.109637 0.172247
vt 0.109637 0.172247
vt 0.109637 0.172284
vt 0.109637 0.172284
vt 0.109637 0.172284
vt 0.109637 0.172284
vt 0.233756 0.172362
vt 0.233756 0.172362
vt 0.233756 0.172362
vt 0.233756 0.172362
vt 0.046497 0.172310
vt 0.046497 0.172310
vt 0.046497 0.172310
vt 0.046497 0.172310
vt 0.233756 0.172362
vt 0.233756 0.172362
vt 0.046497 0.172310
vt 0.046497 0.172310
vt 0.388340 0.169644
vt 0.388340 0.169644
vt 0.388340 0.169644
vt 0.233756 0.172362
vt 0.233756 0.172362
vt 0.233756 0.172362
vt 0.233756 0.172362
vt 0.109637 0.172284
vt 0.109637 0.172284
vt 0.109637 0.172284
vt 0.109637 0.172284
vt 0.388340 0.169644
vt 0.388340 0.169644
vt 0.388340 0.169644
vt 0.388340 0.169644
vt 0.388340 0.169644
vt 0.388340 0.169644
vt 0.014847 0.522699
vt 0.014847 0.522699
vt 0.014847 0.522699
vt 0.014847 0.522699
vt 0.388340 0.169644
vt 0.109637 0.172247
vt 0.388340 0.169644
vt 0.388340 0.472328
vt 0.109637 0.172247
vt 0.388340 0.472328
vt 0.388340 0.472328
vt 0.109637 0.172247
vt 0.388340 0.169644
vt 0.109637 0.172247
vt 0.388340 0.169644
vt 0.388340 0.169644
vt 0.388340 0.472328
vt 0.388340 0.472328
vt 0.388340 0.169644
vt 0.388340 0.472328
vt 0.388340 0.169644
vt 0.388340 0.169644
vt 0.388340 0.472328
vt 0.388340 0.472328
vn 0.000000 0.000000 1.000000
vn 0.000000 0.000000 1.000000
vn 0.000000 0.000000 1.000000
vn 0.000000 0.000000 1.000000
vn -1.000000 0.000000 0.000000
vn -1.000000 0.000000 0.000000
vn -1.000000 0.000000 0.000000
vn -1.000000 0.000000 0.000000
vn -1.000000 0.000000 0.000000
vn -1.000000 0.000000 0.000000
vn 1.000000 0.000000 0.000000
vn 1.000000 0.000000 0.000000
vn 1.000000 0.000000 0.000000
vn 1.000000 0.000000 0.000000
vn 1.000000 -0.000002 0.000070
vn 1.000000 -0.000001 0.000070
vn 1.000000 -0.000001 0.000070
vn 1.000000 -0.000002 0.000070
vn 1.000000 -0.000002 0.000070
vn 1.000000 -0.000002 0.000070
vn 0.000000 1.000000 0.000000
vn 0.000000 1.000000 0.000000
vn 0.000000 1.000000 0.000000
vn 0.000000 1.000000 0.000000
vn 0.000000 0.000000 1.000000
vn 0.000000 0.000000 1.000000
vn 0.000000 0.000000 1.000000
vn 0.000000 0.000000 1.000000
vn 0.000000 -1.000000 0.000000
vn 0.000000 -1.000000 0.000000
vn 0.000000 -1.000000 0.000000
vn 0.000000 -1.000000 0.000000
vn 0.000000 0.000000 1.000000
vn 0.000000 0.000000 1.000000
vn 0.000000 0.000000 1.000000
vn 0.000000 0.000000 1.000000
vn 0.000000 -1.000000 0.000000
vn 0.000000 -1.000000 0.000000
vn 0.000000 -1.000000 0.000000
vn 0.000000 -1.000000 0.000000
vn 0.000000 -0.000000 1.000000
vn 0.000000 -0.000000 1.000000
vn 0.000000 -0.000000 1.000000
vn 0.000000 -0.000000 1.000000
vn 0.000000 0.000000 1.000000
vn 0.000000 0.000000 1.000000
vn 0.000000 0.000000 1.000000
vn 0.000000 0.000000 1.000000
vn 0.000000 0.000000 1.000000
vn 0.000000 0.000000 1.000000
vn 0.000000 0.000000 1.000000
vn 0.000000 0.000000 1.000000
vn 0.000000 0.000000 1.000000
vn 0.000000 0.000000 1.000000
vn 0.000000 0.000000 1.000000
vn 0.000000 0.000000 1.000000
vn -1.000000 0.000004 0.000000
vn -1.000000 0.000004 0.000000
vn -1.000000 0.000004 0.000000
vn -1.000000 0.000004 0.000000
vn 0.000000 -1.000000 -0.000000
vn 0.000000 -1.000000 -0.000000
vn 0.000000 -1.000000 -0.000000
vn 0.000000 -1.000000 -0.000000
vn 0.000000 0.000000 1.000000
vn 0.000000 0.000000 1.000000
vn 0.000000 0.000000 1.000000
vn 0.000000 0.000000 1.000000
vn 0.000000 1.000000 0.000000
vn 0.000000 1.000000 0.000000
vn 0.000000 1.000000 0.000000
vn 0.000000 1.000000 0.000000
vn -0.000000 0.000000 1.000000
vn -0.000000 0.000000 1.000000
vn 0.000000 0.000000 1.000000
vn 0.000000 0.000000 1.000000
vn 0.000000 0.000000 1.000000
vn 0.000000 0.000000 1.000000
vn 0.000000 0.000000 1.000000
vn 0.000000 0.000000 1.000000
vn -0.000000 1.000000 -0.000002
vn -0.000000 1.000000 -0.000002
vn -0.000000 1.000000 -0.000002
vn -0.000000 1.000000 -0.000002
vn 0.000000 0.000000 1.000000
vn 0.000000 0.000000 1.000000
vn 0.000000 0.000000 1.000000
vn 0.000000 0.000000 1.000000
vn 0.000000 0.000000 1.000000
vn 0.000000 0.000000 1.000000
vn 0.000000 0.000000 1.000000
vn 0.000000 0.000000 1.000000
vn 0.000000 0.000000 1.000000
vn 0.000000 0.000000 1.000000
vn -0.000000 0.000000 1.000000
vn -0.000000 0.000000 1.000000
vn 0.000000 0.000000 1.000000
vn 0.000000 0.000000 1.000000
vn 0.000000 0.000000 1.000000
vn 0.000000 0.000000 1.000000
vn 0.000000 0.000000 1.000000
vn 0.000000 0.000000 1.000000
vn 0.000000 0.000000 1.000000
vn 0.000000 0.000000 1.000000
s off
f 2/2/1 1/1/2 22/60/3 23/61/4
f 1/3/5 3/4/6 31/86/7 33/89/8 24/47/9 22/46/10
f 25/63/11 5/6/12 2/5/13 23/62/14
f 20/43/15 36/94/16 35/92/17 8/10/18 6/9/19 18/42/20
f 8/13/21 3/14/22 1/11/23 6/12/24
f 1/18/25 2/15/26 7/16/27 6/17/28
f 2/22/29 5/23/30 9/24/31 7/21/32
f 13/25/33 12/26/34 14/27/35 15/28/36
f 12/29/37 13/30/38 16/31/39 11/32/40
f 17/75/41 4/39/42 20/66/43 24/64/44
f 10/33/45 3/80/46 8/35/47 11/78/48
f 34/91/49 35/100/50 36/97/51 37/98/52
f 6/7/53 7/8/54 19/40/55 18/41/56
f 7/19/57 9/20/58 21/44/59 19/45/60
f 18/48/61 22/49/62 24/50/63 20/51/64
f 19/52/65 23/53/66 22/54/67 18/55/68
f 23/56/69 19/57/70 21/58/71 25/59/72
f 3/37/73 10/76/74 30/85/75 31/87/76
f 27/67/77 26/68/78 28/69/79 29/70/80
f 29/71/81 28/72/82 4/73/83 17/74/84
f 5/81/85 25/82/86 21/83/87 9/84/88
f 31/104/89 30/103/90 32/88/91 33/90/92
f 33/102/93 32/101/94 17/38/95 24/77/96
f 11/34/97 8/79/98 35/93/99 34/99/100
f 37/96/101 36/95/102 20/65/103 4/36/104
