# This file uses centimeters as units for non-parametric coordinates.

v 1.298639 3.956069 0.054875
v 1.298639 0.206069 0.054875
v 1.504709 3.750000 0.054875
v 1.504709 -0.270663 0.054875
v 1.298639 3.956069 0.000000
v 1.298639 0.206069 0.000000
v 1.504709 3.750000 -0.033619
v 3.710777 3.956069 0.054875
v 3.710775 0.206069 0.054875
v 3.504707 3.750000 0.054875
v 3.504709 -0.270663 0.054875
v 3.710777 3.956069 0.000000
v 3.710775 0.206069 0.000000
v 3.504707 3.750000 -0.033619
v 3.504707 -0.162690 -0.033619
v 3.504707 3.750000 -0.033619
v 1.504709 3.750000 -0.033619
v -0.000002 4.208395 0.000000
v 4.999998 4.208395 0.000000
v 4.999998 0.206069 0.000000
v 4.999998 4.208395 0.054875
v 0.000000 4.208395 0.054875
v 4.999998 4.414464 0.054875
v -0.000002 4.414464 0.054875
v 0.000000 4.208395 0.000000
v 4.999998 -0.270663 0.054875
v 4.999998 0.206069 0.054875
v -0.000002 0.206069 0.000000
v -0.000002 0.206069 0.054875
v -0.000002 -0.270663 0.054875
v 1.504709 -0.162690 0.054875
v 1.504709 -0.162690 -0.033619
v 3.504707 -0.162690 0.054875
v -0.000002 2.303980 0.000000
v 1.298639 2.303980 0.000000
v -0.000002 1.568543 0.000000
v 1.298639 1.568543 0.000000
v 3.710776 2.303980 0.000000
v 4.999998 2.303980 0.000000
v 3.710776 1.568543 0.000000
v 4.999998 1.568543 0.000000
vt 0.237073 0.169331
vt 0.237073 0.169331
vt 0.237073 0.169331
vt 0.237073 0.169331
vt 0.113336 0.169478
vt 0.113336 0.169478
vt 0.113336 0.169478
vt 0.113336 0.169478
vt 0.113336 0.169331
vt 0.113336 0.169331
vt 0.237073 0.169208
vt 0.237073 0.169208
vt 0.237073 0.169208
vt 0.237073 0.169208
vt 0.113336 0.169478
vt 0.113336 0.169478
vt 0.113336 0.169478
vt 0.113336 0.169478
vt 0.113336 0.169392
vt 0.113336 0.169392
vt 0.113336 0.169392
vt 0.113336 0.169392
vt 0.237073 0.169208
vt 0.237073 0.169208
vt 0.237073 0.169208
vt 0.237073 0.169208
vt 0.113336 0.169331
vt 0.113336 0.169331
vt 0.113336 0.169331
vt 0.113336 0.169331
vt 0.113336 0.169331
vt 0.113336 0.169331
vt 0.113336 0.169331
vt 0.237073 0.169208
vt 0.237073 0.169208
vt 0.237073 0.169208
vt 0.237073 0.169208
vt 0.113336 0.169478
vt 0.113336 0.169478
vt 0.113336 0.169478
vt 0.113336 0.169478
vt 0.237073 0.169208
vt 0.237073 0.169208
vt 0.237073 0.169208
vt 0.113336 0.169392
vt 0.113336 0.169392
vt 0.392039 0.169341
vt 0.392039 0.169341
vt 0.392039 0.169341
vt 0.392039 0.169341
vt 0.392039 0.169341
vt 0.392039 0.169341
vt 0.392039 0.169341
vt 0.392039 0.169341
vt 0.103695 0.168893
vt 0.103695 0.168893
vt 0.237073 0.169331
vt 0.237073 0.169331
vt 0.103695 0.168893
vt 0.103695 0.168893
vt 0.237073 0.169208
vt 0.113336 0.169392
vt 0.113336 0.169392
vt 0.237073 0.169235
vt 0.237073 0.169440
vt 0.237073 0.169235
vt 0.113336 0.169331
vt 0.237073 0.169331
vt 0.113336 0.169331
vt 0.237073 0.169440
vt 0.113336 0.169331
vt 0.237073 0.169208
vt 0.237073 0.169235
vt 0.237073 0.169235
vt 0.237073 0.169440
vt 0.237073 0.169440
vt 0.392039 0.169341
vt 0.113336 0.169478
vt 0.392039 0.169341
vt 0.392039 0.478067
vt 0.113336 0.169478
vt 0.392039 0.478067
vt 0.113336 0.169478
vt 0.392039 0.169341
vt 0.392039 0.478067
vt 0.113336 0.169478
vt 0.392039 0.169341
vt 0.392039 0.169341
vt 0.392039 0.478067
vt 0.392039 0.478067
vt 0.392039 0.169341
vt 0.392039 0.478067
vt 0.392039 0.169341
vt 0.392039 0.169341
vt 0.392039 0.169341
vt 0.392039 0.169341
vt 0.392039 0.478067
vt 0.392039 0.478067
vt 0.237073 0.169208
vt 0.237073 0.169331
vt 0.237073 0.169331
vt 0.237073 0.169331
vt 0.237073 0.169331
vt 0.392039 0.169341
vt 0.392039 0.169341
vt 0.237073 0.169208
vn 0.000000 0.000000 1.000000
vn 0.000000 0.000000 1.000000
vn 0.000000 0.000000 1.000000
vn 0.000000 0.000000 1.000000
vn -1.000000 0.000000 0.000000
vn -1.000000 0.000000 0.000000
vn -1.000000 0.000000 0.000000
vn -1.000000 0.000000 0.000000
vn -1.000000 0.000000 0.000000
vn -1.000000 0.000000 0.000000
vn 1.000000 0.000000 0.000000
vn 1.000000 0.000000 0.000000
vn 1.000000 0.000000 0.000000
vn 1.000000 0.000000 0.000000
vn 0.000000 0.000000 1.000000
vn 0.000000 0.000000 1.000000
vn 0.000000 0.000000 1.000000
vn 1.000000 -0.000001 0.000000
vn 1.000000 -0.000001 0.000000
vn 1.000000 -0.000001 0.000000
vn 1.000000 -0.000001 -0.000002
vn 1.000000 -0.000001 -0.000002
vn 1.000000 -0.000001 0.000000
vn 0.000000 1.000000 0.000000
vn 0.000000 1.000000 0.000000
vn 0.000000 1.000000 0.000000
vn 0.000000 1.000000 0.000000
vn 0.000000 0.000000 1.000000
vn 0.000000 0.000000 1.000000
vn 0.000000 0.000000 1.000000
vn 0.000000 0.000000 1.000000
vn 0.000000 -1.000000 0.000000
vn 0.000000 -1.000000 0.000000
vn 0.000000 -1.000000 0.000000
vn 0.000000 -1.000000 0.000000
vn 0.000000 0.000000 1.000000
vn 0.000000 0.000000 1.000000
vn 0.000000 0.000000 1.000000
vn 0.000000 0.000000 1.000000
vn 0.000000 -1.000000 0.000000
vn 0.000000 -1.000000 0.000000
vn 0.000000 -1.000000 0.000000
vn 0.000000 -1.000000 0.000000
vn 0.000000 0.000000 1.000000
vn 0.000000 0.000000 1.000000
vn 0.000000 0.000000 1.000000
vn 0.000000 0.000000 1.000000
vn 0.000000 0.000000 1.000000
vn 0.000000 0.000000 1.000000
vn 0.000000 0.000000 1.000000
vn 0.000000 0.000000 1.000000
vn 0.000000 0.000000 1.000000
vn 0.000000 0.000000 1.000000
vn 0.000000 0.000000 1.000000
vn 0.000000 0.000000 1.000000
vn 0.000000 -0.000000 1.000000
vn 0.000000 -0.000000 1.000000
vn 0.000000 -0.000000 1.000000
vn 0.000000 -0.000000 1.000000
vn 0.000000 0.000000 1.000000
vn 0.000000 0.000000 1.000000
vn 0.000000 0.000000 1.000000
vn 0.000000 0.000000 1.000000
vn 0.000000 1.000000 0.000000
vn 0.000000 1.000000 0.000000
vn 0.000000 1.000000 0.000000
vn 0.000000 1.000000 0.000000
vn -0.000000 1.000000 -0.000002
vn -0.000000 1.000000 -0.000002
vn -0.000000 1.000000 -0.000002
vn -0.000000 1.000000 -0.000002
vn 0.000000 0.000000 1.000000
vn 0.000000 0.000000 1.000000
vn 0.000000 0.000000 1.000000
vn 0.000000 1.000000 0.000000
vn 0.000000 1.000000 0.000000
vn 0.000000 1.000000 0.000000
vn 0.000000 1.000000 0.000000
vn 0.000000 0.000000 1.000000
vn 0.000000 0.000000 1.000000
vn 0.000000 0.000000 1.000000
vn 0.000000 0.000000 1.000000
vn 0.000000 0.000000 1.000000
vn 0.000000 0.000000 1.000000
vn 0.000000 0.000000 1.000000
vn 0.000000 0.000000 1.000000
vn -1.000000 0.000000 0.000000
vn -1.000000 0.000000 0.000000
vn -1.000000 0.000000 0.000000
vn -1.000000 0.000000 0.000000
vn 0.000000 0.000000 1.000000
vn 0.000000 0.000000 1.000000
vn 0.000000 0.000000 1.000000
vn 0.000000 0.000000 1.000000
vn 0.000000 0.000000 1.000000
vn 0.000000 0.000000 1.000000
vn 0.000000 0.000000 1.000000
vn 0.000000 0.000000 1.000000
vn 0.000000 -0.000000 1.000000
vn 0.000000 -0.000000 1.000000
vn 0.000000 -0.000000 1.000000
vn 0.000000 -0.000000 1.000000
vn 0.000000 -0.000000 1.000000
vn 0.000000 -0.000000 1.000000
vn 0.000000 -0.000000 1.000000
vn 0.000000 -0.000000 1.000000
s off
f 2/1/1 31/101/2 3/3/3 1/2/4
f 1/5/5 5/8/6 35/78/7 37/81/8 6/7/9 2/6/10
f 31/67/11 32/69/12 7/10/13 3/9/14
f 9/11/15 33/99/16 11/14/17
f 8/15/18 9/16/19 13/17/20 40/86/21 38/83/22 12/18/23
f 1/19/24 8/20/25 12/21/26 5/22/27
f 3/23/28 10/24/29 8/25/30 1/26/31
f 10/30/32 3/31/33 17/32/34 16/33/35
f 22/34/36 21/35/37 23/36/38 24/37/39
f 21/38/40 22/39/41 25/40/42 19/41/43
f 11/42/44 26/43/45 27/44/46 9/61/47
f 5/105/48 18/104/49 34/77/50 35/79/51
f 18/47/52 5/52/53 12/49/54 19/93/55
f 19/48/56 12/94/57 38/84/58 39/91/59
f 4/4/60 2/103/61 29/57/62 30/58/63
f 29/55/64 2/56/65 6/59/66 28/60/67
f 13/63/68 9/62/69 27/45/70 20/46/71
f 2/102/72 4/100/73 31/68/74
f 15/65/75 32/70/76 31/75/77 33/76/78
f 33/64/79 31/66/80 4/73/81 11/74/82
f 9/106/83 8/12/84 10/13/85 33/72/86
f 15/29/87 33/71/88 10/27/89 14/28/90
f 35/98/91 34/97/92 36/80/93 37/82/94
f 37/96/95 36/95/96 28/53/97 6/54/98
f 39/85/99 38/92/100 40/89/101 41/90/102
f 41/88/103 40/87/104 13/51/105 20/50/106
