# This file uses centimeters as units for non-parametric coordinates.

v 0.000000 4.208395 0.000000
v 5.000004 4.208395 0.000000
v 5.000004 0.206069 0.000000
v 0.000000 0.206069 0.000000
v 5.000004 4.208395 0.054874
v 0.000004 4.208395 0.054874
v 5.000004 4.414464 0.054874
v 0.000000 4.414464 0.054874
v 5.000004 4.208395 0.000000
v 0.000004 4.208395 0.000000
v 5.000004 -0.270663 0.054874
v 0.000004 -0.270663 0.054874
v 5.000004 0.206069 0.054874
v 0.000000 0.206069 0.054874
v 5.000004 2.303980 0.000000
v 0.000000 2.303980 0.000000
v 5.000004 1.568543 0.000000
v 0.000000 1.568543 0.000000
vt 0.386651 0.169880
vt 0.386651 0.169880
vt 0.386651 0.169880
vt 0.386651 0.169880
vt 0.237343 0.169462
vt 0.237343 0.169462
vt 0.237343 0.169462
vt 0.237343 0.169462
vt 0.113303 0.170674
vt 0.113303 0.170674
vt 0.113303 0.170674
vt 0.113303 0.170674
vt 0.237343 0.169462
vt 0.237343 0.169462
vt 0.237343 0.169462
vt 0.237343 0.169462
vt 0.113303 0.170288
vt 0.113303 0.170288
vt 0.113303 0.170288
vt 0.113303 0.170288
vt 0.386651 0.169880
vt 0.386651 0.169880
vt 0.386651 0.169880
vt 0.386651 0.169880
vt 0.391834 0.476938
vt 0.391834 0.476938
vt 0.391834 0.476938
vt 0.391834 0.476938
vn -0.000000 0.000000 1.000000
vn 0.000000 0.000000 1.000000
vn 0.000000 0.000000 1.000000
vn -0.000000 0.000000 1.000000
vn 0.000000 0.000000 1.000000
vn 0.000000 0.000000 1.000000
vn 0.000000 0.000000 1.000000
vn 0.000000 0.000000 1.000000
vn 0.000000 -1.000000 0.000000
vn 0.000000 -1.000000 0.000000
vn 0.000000 -1.000000 0.000000
vn 0.000000 -1.000000 0.000000
vn 0.000000 0.000000 1.000000
vn 0.000000 0.000000 1.000000
vn 0.000000 0.000000 1.000000
vn 0.000000 0.000000 1.000000
vn 0.000000 1.000000 -0.000000
vn 0.000000 1.000000 -0.000000
vn 0.000000 1.000000 -0.000000
vn 0.000000 1.000000 -0.000000
vn 0.000000 0.000000 1.000000
vn 0.000000 0.000000 1.000000
vn -0.000000 0.000000 1.000000
vn -0.000000 0.000000 1.000000
vn 0.000000 0.000000 1.000000
vn 0.000000 0.000000 1.000000
vn 0.000000 0.000000 1.000000
vn 0.000000 0.000000 1.000000
s off
f 3/3/1 17/23/2 18/24/3 4/4/4
f 6/5/5 5/6/6 7/7/7 8/8/8
f 5/9/9 6/10/10 10/11/11 9/12/12
f 12/13/13 11/14/14 13/15/15 14/16/16
f 14/17/17 13/18/18 3/19/19 4/20/20
f 16/22/21 15/21/22 2/2/23 1/1/24
f 18/25/25 17/26/26 15/27/27 16/28/28
