# This file uses centimeters as units for non-parametric coordinates.

v 0.252072 4.069127 0.054875
v 0.252072 0.206069 0.054875
v 0.636959 3.656988 0.054875
v 0.636959 -0.270663 0.054875
v 0.252072 4.069128 0.000000
v 0.252072 0.206069 0.000000
v 0.636959 3.656988 -0.033619
v 4.757344 4.069127 0.054875
v 4.757341 0.206069 0.054875
v 4.372458 3.656988 0.054875
v 4.372461 -0.270663 0.054875
v 4.757344 4.069128 0.000000
v 4.757341 0.206069 0.000000
v 4.372458 3.656988 -0.033619
v 4.372458 -0.100661 -0.033619
v -0.000001 8.416789 0.000000
v 4.999998 8.416789 0.000000
v 4.999998 0.206070 0.000000
v 4.999998 8.416789 0.054875
v 0.000000 8.416789 0.054875
v 4.999998 8.828928 0.054875
v -0.000002 8.828928 0.054875
v 4.999998 -0.270663 0.054875
v 4.999998 0.206070 0.054875
v -0.000002 0.206069 0.000000
v -0.000002 0.206069 0.054875
v -0.000002 -0.270663 0.054875
v 0.636959 -0.100661 0.054875
v 0.636959 -0.100661 -0.033619
v 4.372458 -0.100661 0.054875
vt 0.267057 0.266110
vt 0.267057 0.266110
vt 0.267057 0.266110
vt 0.267057 0.266110
vt 0.143320 0.266382
vt 0.143320 0.266382
vt 0.143320 0.266382
vt 0.143320 0.266382
vt 0.143320 0.266110
vt 0.143320 0.266110
vt 0.267057 0.265884
vt 0.267057 0.265884
vt 0.267057 0.265884
vt 0.267057 0.265884
vt 0.143320 0.266382
vt 0.143320 0.266382
vt 0.143320 0.266382
vt 0.143320 0.266382
vt 0.143320 0.266223
vt 0.143320 0.266223
vt 0.143320 0.266223
vt 0.143320 0.266223
vt 0.267057 0.265884
vt 0.267057 0.265884
vt 0.267057 0.265884
vt 0.267057 0.265884
vt 0.143320 0.266110
vt 0.143320 0.266110
vt 0.143320 0.266110
vt 0.143320 0.266110
vt 0.143320 0.266110
vt 0.143320 0.266110
vt 0.143320 0.266110
vt 0.267057 0.265884
vt 0.267057 0.265884
vt 0.267057 0.265884
vt 0.267057 0.265884
vt 0.143320 0.266382
vt 0.143320 0.266382
vt 0.143320 0.266382
vt 0.143320 0.266382
vt 0.267057 0.265884
vt 0.267057 0.265884
vt 0.267057 0.265884
vt 0.143320 0.266223
vt 0.143320 0.266223
vt 0.422023 0.266130
vt 0.422023 0.266130
vt 0.422023 0.266130
vt 0.422023 0.266130
vt 0.422023 0.266130
vt 0.422023 0.266130
vt 0.422023 0.266130
vt 0.422023 0.266130
vt 0.133679 0.265306
vt 0.133679 0.265306
vt 0.267057 0.266110
vt 0.267057 0.266110
vt 0.133679 0.265306
vt 0.133679 0.265306
vt 0.267057 0.265884
vt 0.143320 0.266223
vt 0.143320 0.266223
vt 0.267057 0.265935
vt 0.267057 0.266311
vt 0.267057 0.265935
vt 0.143320 0.266110
vt 0.267057 0.266110
vt 0.143320 0.266110
vt 0.267057 0.266311
vt 0.143320 0.266110
vt 0.267057 0.265884
vt 0.267057 0.265935
vt 0.267057 0.265935
vt 0.267057 0.266311
vt 0.267057 0.266311
vt 0.267057 0.265884
vt 0.267057 0.266110
vt 0.267057 0.266110
vt 0.267057 0.266110
vt 0.267057 0.266110
vt 0.422023 0.266130
vt 0.422023 0.266130
vt 0.422023 0.266130
vt 0.422023 0.266130
vt 0.267057 0.265884
vn 0.000000 0.000000 1.000000
vn 0.000000 0.000000 1.000000
vn 0.000000 0.000000 1.000000
vn 0.000000 0.000000 1.000000
vn -1.000000 0.000000 0.000000
vn -1.000000 0.000000 0.000000
vn -1.000000 0.000000 0.000000
vn -1.000000 0.000000 0.000000
vn 1.000000 0.000000 0.000000
vn 1.000000 0.000000 0.000000
vn 1.000000 0.000000 0.000000
vn 1.000000 0.000000 0.000000
vn 0.000000 0.000000 1.000000
vn 0.000000 0.000000 1.000000
vn 0.000000 0.000000 1.000000
vn 1.000000 -0.000000 0.000000
vn 1.000000 -0.000000 0.000000
vn 1.000000 -0.000000 0.000000
vn 1.000000 -0.000000 0.000000
vn 0.000000 1.000000 0.000000
vn 0.000000 1.000000 0.000000
vn 0.000000 1.000000 0.000000
vn 0.000000 1.000000 0.000000
vn 0.000000 0.000000 1.000000
vn 0.000000 0.000000 1.000000
vn 0.000000 0.000000 1.000000
vn 0.000000 0.000000 1.000000
vn 0.000000 -1.000000 0.000000
vn 0.000000 -1.000000 0.000000
vn 0.000000 -1.000000 0.000000
vn 0.000000 -1.000000 0.000000
vn 0.000000 0.000000 1.000000
vn 0.000000 0.000000 1.000000
vn 0.000000 0.000000 1.000000
vn 0.000000 0.000000 1.000000
vn 0.000000 -1.000000 0.000000
vn 0.000000 -1.000000 0.000000
vn 0.000000 -1.000000 0.000000
vn 0.000000 -1.000000 0.000000
vn 0.000000 0.000000 1.000000
vn 0.000000 0.000000 1.000000
vn 0.000000 0.000000 1.000000
vn 0.000000 0.000000 1.000000
vn 0.000000 0.000000 1.000000
vn 0.000000 0.000000 1.000000
vn 0.000000 0.000000 1.000000
vn 0.000000 0.000000 1.000000
vn 0.000000 0.000000 1.000000
vn 0.000000 0.000000 1.000000
vn 0.000000 0.000000 1.000000
vn 0.000000 0.000000 1.000000
vn 0.000000 -0.000000 1.000000
vn 0.000000 -0.000000 1.000000
vn 0.000000 -0.000000 1.000000
vn 0.000000 -0.000000 1.000000
vn 0.000000 0.000000 1.000000
vn 0.000000 0.000000 1.000000
vn 0.000000 0.000000 1.000000
vn 0.000000 0.000000 1.000000
vn 0.000000 1.000000 0.000000
vn 0.000000 1.000000 0.000000
vn 0.000000 1.000000 0.000000
vn 0.000000 1.000000 0.000000
vn -0.000001 1.000000 -0.000004
vn -0.000001 1.000000 -0.000004
vn -0.000001 1.000000 -0.000004
vn -0.000001 1.000000 -0.000004
vn 0.000000 0.000000 1.000000
vn 0.000000 0.000000 1.000000
vn 0.000000 0.000000 1.000000
vn 0.000000 1.000000 0.000000
vn 0.000000 1.000000 0.000000
vn 0.000000 1.000000 0.000000
vn 0.000000 1.000000 0.000000
vn 0.000000 0.000000 1.000000
vn 0.000000 0.000000 1.000000
vn 0.000000 0.000000 1.000000
vn 0.000000 0.000000 1.000000
vn 0.000000 0.000000 1.000000
vn 0.000000 0.000000 1.000000
vn 0.000000 0.000000 1.000000
vn 0.000000 0.000000 1.000000
vn -1.000000 0.000000 0.000000
vn -1.000000 0.000000 0.000000
vn -1.000000 0.000000 0.000000
vn -1.000000 0.000000 0.000000
s off
f 2/1/1 28/79/2 3/3/3 1/2/4
f 1/5/5 5/8/6 6/7/7 2/6/8
f 28/67/9 29/69/10 7/10/11 3/9/12
f 9/11/13 30/77/14 11/14/15
f 8/15/16 9/16/17 13/17/18 12/18/19
f 1/19/20 8/20/21 12/21/22 5/22/23
f 3/23/24 10/24/25 8/25/26 1/26/27
f 10/30/28 3/31/29 7/32/30 14/33/31
f 20/34/32 19/35/33 21/36/34 22/37/35
f 19/38/36 20/39/37 16/40/38 17/41/39
f 11/42/40 23/43/41 24/44/42 9/61/43
f 5/85/44 16/83/45 25/53/46 6/54/47
f 16/47/48 5/52/49 12/84/50 17/82/51
f 17/48/52 12/49/53 13/51/54 18/50/55
f 4/4/56 2/81/57 26/57/58 27/58/59
f 26/55/60 2/56/61 6/59/62 25/60/63
f 13/63/64 9/62/65 24/45/66 18/46/67
f 2/80/68 4/78/69 28/68/70
f 15/65/71 29/70/72 28/75/73 30/76/74
f 30/64/75 28/66/76 4/73/77 11/74/78
f 9/86/79 8/12/80 10/13/81 30/72/82
f 15/29/83 30/71/84 10/27/85 14/28/86
