# This file uses centimeters as units for non-parametric coordinates.

v 0.236836 0.439679 0.219843
v 0.236835 0.439679 -0.219843
v -0.222645 0.439679 0.219843
v -0.222645 0.439679 -0.219843
v -0.222645 0.000000 0.219843
v -0.222645 0.000000 -0.219843
v 0.236836 0.000000 0.219843
v 0.236835 0.000000 -0.219843
v -0.336841 0.258677 0.038838
v -0.336842 0.258677 -0.038838
v -0.336842 0.181002 -0.038838
v -0.336841 0.181002 0.038838
v 0.336839 0.172742 0.047098
v 0.336838 0.172742 -0.047099
v 0.336838 0.266937 -0.047099
v 0.336839 0.266937 0.047098
v -0.336842 0.181002 0.000000
v -0.336842 0.258677 0.000000
v -0.222645 0.439679 0.000000
v 0.236835 0.439679 0.000000
v 0.336842 0.266937 0.000000
v 0.336842 0.172742 0.000000
v 0.236835 0.000000 0.000000
v -0.222645 0.000000 0.000000
v 0.336838 0.219840 -0.047099
v 0.336839 0.219840 0.047098
v 0.236836 0.219840 0.219843
v -0.222645 0.219840 0.219843
v -0.336841 0.219840 0.038838
v -0.336842 0.219840 -0.038838
v -0.222645 0.219840 -0.219843
v 0.236835 0.219840 -0.219843
v -0.336842 0.181002 0.019419
v -0.336842 0.258677 0.019419
v -0.222649 0.439679 0.109921
v 0.236839 0.439679 0.109921
v 0.336840 0.266937 0.023549
v 0.336840 0.172742 0.023549
v 0.236839 0.000000 0.109921
v -0.222649 0.000000 0.109921
v 0.336843 0.172742 -0.023549
v 0.336843 0.266937 -0.023549
v 0.236839 0.439679 -0.109921
v -0.222649 0.439679 -0.109921
v -0.336842 0.258677 -0.019419
v -0.336842 0.181002 -0.019419
v -0.222649 0.000000 -0.109921
v 0.236839 0.000000 -0.109921
v 0.336838 0.243388 -0.047099
v 0.336839 0.243388 0.047098
v 0.236836 0.329759 0.219843
v -0.222645 0.329759 0.219843
v -0.336841 0.239258 0.038838
v -0.336842 0.239258 -0.038838
v -0.222645 0.329759 -0.219843
v 0.236835 0.329759 -0.219843
v -0.336842 0.200421 -0.038838
v -0.336841 0.200421 0.038838
v -0.222645 0.109920 0.219843
v 0.236836 0.109920 0.219843
v 0.336839 0.196291 0.047098
v 0.336838 0.196291 -0.047099
v 0.236835 0.109920 -0.219843
v -0.222645 0.109920 -0.219843
v -0.065685 0.439679 0.000104
v 0.079876 0.439679 0.000104
v 0.079876 0.439679 -0.060015
v -0.065685 0.439679 -0.060015
v -0.065685 0.439679 0.060015
v 0.079876 0.439679 0.060015
v -0.065688 0.439679 -0.029860
v 0.079881 0.439679 -0.029860
v -0.065688 0.439679 0.031097
v 0.079881 0.439679 0.031097
vt 0.270837 0.290017
vt 0.295564 0.290017
vt 0.268472 0.290017
vt 0.208421 0.290017
vt 0.266548 0.290390
vt 0.204132 0.290390
vt 0.204132 0.290390
vt 0.266548 0.290390
vt 0.298913 0.290016
vt 0.329531 0.290016
vt 0.270837 0.290017
vt 0.270837 0.290017
vt 0.208421 0.290017
vt 0.208421 0.290017
vt 0.238842 0.290017
vt 0.266548 0.290390
vt 0.233148 0.290017
vt 0.238842 0.290017
vt 0.298913 0.290017
vt 0.204132 0.290390
vt 0.208421 0.290017
vt 0.295564 0.290017
vt 0.233148 0.290017
vt 0.270837 0.290017
vt 0.170999 0.287780
vt 0.238842 0.290017
vt 0.204132 0.290390
vt 0.238842 0.290017
vt 0.268472 0.290017
vt 0.301258 0.290017
vt 0.266548 0.290390
vt 0.170999 0.287780
vt 0.301258 0.290017
vt 0.170999 0.287780
vt 0.236497 0.290017
vt 0.330888 0.290017
vt 0.170999 0.287780
vt 0.301258 0.290017
vt 0.330888 0.290017
vt 0.301258 0.290017
vt 0.174275 0.290017
vt 0.298913 0.290017
vt 0.329531 0.290016
vt 0.298913 0.290016
vt 0.236497 0.290016
vt 0.174275 0.290016
vt 0.174275 0.290016
vt 0.174275 0.290017
vt 0.236497 0.290017
vt 0.267115 0.290016
vt 0.236497 0.290016
vt 0.267115 0.290016
vt 0.204132 0.290390
vt 0.266548 0.290390
vt 0.266548 0.290390
vt 0.204132 0.290390
vt 0.204132 0.290390
vt 0.170999 0.287780
vt 0.170999 0.287780
vt 0.268472 0.290017
vt 0.330888 0.290017
vt 0.233148 0.290017
vt 0.295564 0.290017
vt 0.267115 0.290016
vt 0.329531 0.290016
vt 0.174275 0.290016
vt 0.174275 0.290017
vt 0.266548 0.290390
vt 0.204132 0.290390
vt 0.266548 0.290390
vt 0.204132 0.290390
vt 0.266548 0.290390
vt 0.174275 0.290017
vt 0.298913 0.290017
vt 0.298913 0.290017
vt 0.174275 0.290017
vt 0.270837 0.290017
vt 0.236497 0.290017
vt 0.208421 0.290017
vt 0.301258 0.290017
vt 0.238842 0.290017
vt 0.170999 0.287780
vt 0.170999 0.287780
vt 0.238842 0.290017
vt 0.301258 0.290017
vt 0.208421 0.290017
vt 0.236497 0.290017
vt 0.270837 0.290017
vt 0.204132 0.290390
vt 0.170999 0.287780
vt 0.170999 0.287780
vt 0.268472 0.290017
vt 0.268472 0.290017
vt 0.233148 0.290017
vt 0.233148 0.290017
vt 0.267115 0.290016
vt 0.329531 0.290016
vt 0.174275 0.290016
vt 0.174275 0.290017
vt 0.266548 0.290390
vt 0.266548 0.290390
vt 0.266548 0.290390
vt 0.266548 0.290390
vt 0.266548 0.290390
vt 0.174275 0.290017
vt 0.266548 0.290390
vt 0.329531 0.290016
vt 0.174275 0.290016
vt 0.295564 0.290017
vt 0.329531 0.290016
vt 0.330888 0.290017
vt 0.295564 0.290017
vt 0.170999 0.287780
vt 0.268472 0.290017
vt 0.204132 0.290390
vt 0.170999 0.287780
vt 0.204132 0.290390
vt 0.204132 0.290390
vt 0.204132 0.290390
vt 0.204132 0.290390
vt 0.174275 0.290016
vt 0.298913 0.290016
vt 0.298913 0.290016
vt 0.174275 0.290016
vt 0.270837 0.290017
vt 0.298913 0.290016
vt 0.270837 0.290017
vt 0.301258 0.290017
vt 0.238842 0.290017
vt 0.170999 0.287780
vt 0.170999 0.287780
vt 0.238842 0.290017
vt 0.238842 0.290017
vt 0.208421 0.290017
vt 0.236497 0.290016
vt 0.208421 0.290017
vt 0.170999 0.287780
vt 0.238842 0.290017
vt 0.238842 0.290017
vt 0.170999 0.287780
vt 0.208421 0.290017
vt 0.238842 0.290017
vt 0.208421 0.290017
vt 0.236497 0.290017
vt 0.298913 0.290017
vt 0.174275 0.290017
vt 0.174275 0.290017
vt 0.298913 0.290017
vt 0.298913 0.290017
vt 0.270837 0.290017
vt 0.301258 0.290017
vt 0.270837 0.290017
vt 0.208421 0.290017
vt 0.238842 0.290017
vt 0.301258 0.290017
vt 0.236497 0.290017
vt 0.208421 0.290017
vt 0.236497 0.290017
vt 0.270837 0.290017
vt 0.298913 0.290017
vt 0.236497 0.290017
vt 0.301258 0.290017
vt 0.270837 0.290017
vt 0.301258 0.290017
vt 0.236497 0.290017
vt 0.208421 0.290017
vt 0.298913 0.290017
vt 0.270837 0.290017
vt 0.298913 0.290016
vt 0.236497 0.290016
vt 0.301258 0.290017
vt 0.270837 0.290017
vt 0.301258 0.290017
vt 0.208421 0.290017
vt 0.238842 0.290017
vt 0.301258 0.290017
vt 0.236497 0.290016
vt 0.208421 0.290017
vt 0.236497 0.290016
vt 0.238842 0.290017
vt 0.270837 0.290017
vt 0.301258 0.290017
vt 0.266548 0.290390
vt 0.266548 0.290390
vt 0.204132 0.290390
vt 0.266548 0.290390
vt 0.266548 0.290390
vt 0.266548 0.290390
vt 0.233148 0.290017
vt 0.268472 0.290017
vt 0.330888 0.290017
vt 0.267115 0.290016
vt 0.233148 0.290017
vt 0.267115 0.290016
vt 0.204132 0.290390
vt 0.204132 0.290390
vt 0.266548 0.290390
vt 0.204132 0.290390
vt 0.204132 0.290390
vt 0.204132 0.290390
vt 0.295564 0.290017
vt 0.329531 0.290016
vt 0.267115 0.290016
vt 0.330888 0.290017
vt 0.295564 0.290017
vt 0.330888 0.290017
vt 0.267115 0.290016
vt 0.233148 0.290017
vt 0.329531 0.290016
vt 0.268472 0.290017
vt 0.295564 0.290017
vt 0.330888 0.290017
vt 0.298913 0.290017
vt 0.208421 0.290017
vt 0.236497 0.290017
vt 0.270837 0.290017
vt 0.238842 0.290017
vt 0.301258 0.290017
vt 0.266548 0.290390
vt 0.204132 0.290390
vt 0.266548 0.290390
vt 0.266548 0.290390
vt 0.204132 0.290390
vt 0.204132 0.290390
vt 0.233148 0.290017
vt 0.233148 0.290017
vt 0.233148 0.290017
vt 0.233148 0.290017
vt 0.295564 0.290017
vt 0.295564 0.290017
vt 0.295564 0.290017
vt 0.295564 0.290017
vt 0.233148 0.290017
vt 0.363052 0.479760
vt 0.233148 0.290017
vt 0.295564 0.290017
vt 0.363052 0.479760
vt 0.295564 0.290017
vt 0.296738 0.171582
vt 0.296738 0.171582
vt 0.296738 0.171582
vt 0.296738 0.171582
vt 0.294137 0.215794
vt 0.294137 0.215794
vt 0.294137 0.215794
vt 0.294137 0.215794
vt 0.363052 0.479760
vt 0.363052 0.479760
vt 0.363052 0.479760
vt 0.363052 0.479760
vn 0.000000 1.000000 0.000000
vn 0.000000 1.000000 0.000000
vn 0.000000 1.000000 -0.000000
vn 0.000000 1.000000 -0.000000
vn -1.000000 -0.000000 0.000012
vn -1.000000 -0.000000 0.000012
vn -1.000000 -0.000000 0.000012
vn -1.000000 -0.000000 0.000012
vn -1.000000 -0.000000 0.000012
vn -1.000000 -0.000000 0.000012
vn -1.000000 -0.000000 0.000012
vn -1.000000 -0.000000 0.000012
vn -1.000000 -0.000000 0.000012
vn -1.000000 -0.000000 0.000012
vn -1.000000 -0.000000 0.000012
vn -1.000000 -0.000000 0.000012
vn -1.000000 -0.000000 0.000012
vn -1.000000 -0.000000 0.000012
vn -1.000000 -0.000000 0.000012
vn -1.000000 -0.000000 0.000012
vn 0.000000 -1.000000 0.000000
vn 0.000000 -1.000000 0.000000
vn 0.000000 -1.000000 0.000000
vn 0.000000 -1.000000 0.000000
vn 1.000000 -0.000000 -0.000010
vn 1.000000 -0.000000 -0.000010
vn 1.000000 -0.000000 -0.000010
vn 1.000000 -0.000000 -0.000010
vn 1.000000 -0.000000 -0.000010
vn 1.000000 -0.000000 -0.000010
vn 1.000000 -0.000000 -0.000010
vn 1.000000 -0.000000 -0.000010
vn 1.000000 -0.000000 -0.000010
vn 1.000000 -0.000000 -0.000010
vn 1.000000 -0.000000 -0.000010
vn 1.000000 -0.000000 -0.000010
vn 1.000000 -0.000000 -0.000010
vn 1.000000 -0.000000 -0.000010
vn 1.000000 -0.000000 -0.000010
vn 1.000000 -0.000000 -0.000010
vn 0.000000 -0.000000 -1.000000
vn 0.000000 -0.000000 -1.000000
vn 0.000000 -0.000000 -1.000000
vn 0.000000 -0.000000 -1.000000
vn 0.000000 0.000000 1.000000
vn 0.000000 0.000000 1.000000
vn 0.000000 0.000000 1.000000
vn 0.000000 0.000000 1.000000
vn -0.845744 0.533589 -0.000000
vn -0.845744 0.533589 -0.000000
vn -0.845751 0.533578 -0.000006
vn -0.845748 0.533582 0.000006
vn -0.845746 0.000000 -0.533586
vn -0.845746 0.000000 -0.533586
vn -0.845746 0.000000 -0.533586
vn -0.845746 0.000000 -0.533586
vn -0.845748 -0.533582 0.000006
vn -0.845751 -0.533578 -0.000006
vn -0.845744 -0.533589 -0.000000
vn -0.845744 -0.533589 0.000000
vn -0.845749 0.000000 0.533582
vn -0.845749 0.000000 0.533582
vn -0.845749 0.000000 0.533582
vn -0.845749 0.000000 0.533582
vn 0.865433 -0.501025 0.000012
vn 0.865433 -0.501025 0.000012
vn 0.865447 -0.501000 -0.000025
vn 0.865440 -0.501013 0.000000
vn 0.865443 -0.000000 -0.501008
vn 0.865443 -0.000000 -0.501008
vn 0.865443 -0.000000 -0.501008
vn 0.865443 -0.000000 -0.501008
vn 0.865440 0.501013 0.000000
vn 0.865447 0.501000 -0.000025
vn 0.865433 0.501025 0.000012
vn 0.865433 0.501025 0.000012
vn 0.865443 0.000000 0.501007
vn 0.865443 0.000000 0.501007
vn 0.865443 0.000000 0.501007
vn 0.865443 0.000000 0.501007
vn -0.845749 0.533580 -0.000004
vn -0.845753 0.533575 0.000010
vn -0.845744 0.533589 -0.000000
vn -0.845744 0.533589 -0.000000
vn 0.865433 0.501025 0.000012
vn 0.865433 0.501025 0.000012
vn 0.865445 0.501004 0.000011
vn 0.865441 0.501010 0.000001
vn 0.865441 -0.501010 0.000001
vn 0.865445 -0.501004 0.000011
vn 0.865433 -0.501025 0.000012
vn 0.865433 -0.501025 0.000012
vn 0.000000 -1.000000 0.000000
vn 0.000000 -1.000000 0.000000
vn 0.000000 -1.000000 0.000000
vn 0.000000 -1.000000 0.000000
vn -0.845744 -0.533589 0.000000
vn -0.845744 -0.533589 -0.000000
vn -0.845753 -0.533575 0.000010
vn -0.845749 -0.533581 -0.000004
vn 0.865443 0.000000 0.501007
vn 0.865443 0.000000 0.501007
vn 0.865443 0.000000 0.501007
vn 0.865443 0.000000 0.501007
vn 0.000000 0.000000 1.000000
vn 0.000000 0.000000 1.000000
vn 0.000000 -0.000000 1.000000
vn 0.000000 -0.000000 1.000000
vn -0.845749 0.000000 0.533582
vn -0.845749 0.000000 0.533582
vn -0.845748 -0.000000 0.533582
vn -0.845749 -0.000000 0.533582
vn -0.845746 0.000000 -0.533586
vn -0.845746 0.000000 -0.533586
vn -0.845746 0.000000 -0.533586
vn -0.845746 0.000000 -0.533586
vn 0.000000 0.000000 -1.000000
vn 0.000000 0.000000 -1.000000
vn 0.000000 -0.000000 -1.000000
vn 0.000000 -0.000000 -1.000000
vn 0.865443 -0.000000 -0.501008
vn 0.865443 -0.000000 -0.501008
vn 0.865443 0.000000 -0.501008
vn 0.865443 0.000000 -0.501008
vn -0.845758 0.533566 0.000031
vn -0.845753 0.533575 0.000010
vn -0.845749 0.533580 -0.000004
vn -0.845758 0.533566 0.000031
vn -0.000000 1.000000 0.000000
vn -0.000000 1.000000 0.000000
vn -0.000000 1.000000 0.000000
vn -0.000000 1.000000 0.000000
vn 0.865441 0.501010 0.000001
vn 0.865445 0.501004 0.000011
vn 0.865450 0.500996 0.000025
vn 0.865450 0.500996 0.000025
vn 0.865450 -0.500996 0.000025
vn 0.865445 -0.501004 0.000011
vn 0.865441 -0.501010 0.000001
vn 0.865450 -0.500996 0.000025
vn 0.000000 -1.000000 0.000000
vn 0.000000 -1.000000 0.000000
vn 0.000000 -1.000000 0.000000
vn 0.000000 -1.000000 0.000000
vn -0.845749 -0.533581 -0.000004
vn -0.845753 -0.533575 0.000010
vn -0.845758 -0.533566 0.000031
vn -0.845758 -0.533566 0.000031
vn 0.865458 0.500982 -0.000062
vn 0.865447 0.501000 -0.000025
vn 0.865440 0.501013 0.000000
vn 0.865458 0.500982 -0.000062
vn -0.000000 1.000000 0.000000
vn -0.000000 1.000000 0.000000
vn -0.000000 1.000000 0.000000
vn -0.000000 1.000000 0.000000
vn -0.845748 0.533582 0.000006
vn -0.845751 0.533578 -0.000006
vn -0.845755 0.533571 -0.000025
vn -0.845755 0.533571 -0.000025
vn -0.845755 -0.533571 -0.000025
vn -0.845751 -0.533578 -0.000006
vn -0.845748 -0.533582 0.000006
vn -0.845755 -0.533571 -0.000025
vn 0.000000 -1.000000 0.000000
vn 0.000000 -1.000000 0.000000
vn 0.000000 -1.000000 0.000000
vn 0.000000 -1.000000 0.000000
vn 0.865440 -0.501013 0.000000
vn 0.865447 -0.501000 -0.000025
vn 0.865458 -0.500982 -0.000062
vn 0.865458 -0.500982 -0.000062
vn 0.865443 0.000000 0.501007
vn 0.865443 0.000000 0.501007
vn 0.865443 0.000000 0.501007
vn 0.865443 0.000000 0.501007
vn 0.000000 -0.000000 1.000000
vn 0.000000 -0.000000 1.000000
vn 0.000000 -0.000001 1.000000
vn 0.000000 -0.000001 1.000000
vn -0.845749 -0.000000 0.533582
vn -0.845748 -0.000000 0.533582
vn -0.845748 -0.000000 0.533582
vn -0.845748 -0.000000 0.533582
vn -0.845746 0.000000 -0.533586
vn -0.845746 0.000000 -0.533586
vn -0.845746 0.000000 -0.533586
vn -0.845746 0.000000 -0.533586
vn 0.000000 0.000000 -1.000000
vn 0.000000 0.000000 -1.000000
vn 0.000000 0.000000 -1.000000
vn 0.000000 0.000000 -1.000000
vn 0.865443 0.000000 -0.501008
vn 0.865443 0.000000 -0.501008
vn 0.865443 0.000000 -0.501008
vn 0.865443 0.000000 -0.501008
vn -0.845749 0.000000 0.533581
vn -0.845749 0.000000 0.533582
vn -0.845749 0.000000 0.533582
vn -0.845749 0.000000 0.533581
vn 0.000000 -0.000000 1.000000
vn 0.000000 0.000000 1.000000
vn 0.000000 0.000000 1.000000
vn 0.000000 -0.000000 1.000000
vn 0.865443 0.000000 0.501007
vn 0.865443 0.000000 0.501007
vn 0.865443 0.000000 0.501007
vn 0.865443 0.000000 0.501007
vn 0.865443 0.000000 -0.501008
vn 0.865443 -0.000000 -0.501008
vn 0.865443 -0.000000 -0.501008
vn 0.865442 0.000000 -0.501008
vn 0.000000 -0.000000 -1.000000
vn 0.000000 -0.000000 -1.000000
vn 0.000000 0.000000 -1.000000
vn 0.000000 0.000000 -1.000000
vn -0.845746 0.000000 -0.533586
vn -0.845746 0.000000 -0.533586
vn -0.845746 0.000000 -0.533586
vn -0.845746 0.000000 -0.533586
vn 0.000000 1.000000 0.000000
vn 0.000000 1.000000 0.000000
vn 0.000000 1.000000 0.000000
vn 0.000000 1.000000 0.000000
vn 0.000000 1.000000 0.000000
vn -0.000000 1.000000 0.000000
vn -0.000000 1.000000 0.000000
vn -0.000000 1.000000 0.000000
vn -0.000000 1.000000 0.000000
vn -0.000000 1.000000 0.000000
vn -0.000000 1.000000 0.000000
vn -0.000000 1.000000 0.000000
vn -0.000000 1.000000 0.000000
vn -0.000000 1.000000 0.000000
vn -0.000000 1.000000 0.000000
vn -0.000000 1.000000 0.000000
vn -0.000000 1.000000 0.000000
vn -0.000000 1.000000 0.000000
vn 0.000000 1.000000 0.000000
vn 0.000000 1.000000 0.000000
vn 0.000000 1.000000 0.000000
vn 0.000000 1.000000 0.000000
vn 0.000000 1.000000 0.000000
vn -0.000000 1.000000 0.000000
vn -0.000000 1.000000 0.000000
vn -0.000000 1.000000 0.000000
vn -0.000000 1.000000 0.000000
vn -0.000000 1.000000 0.000000
vn 0.000000 1.000000 0.000000
vn 0.000000 1.000000 0.000000
vn 0.000000 1.000000 0.000000
vn 0.000000 1.000000 0.000000
vn 0.000000 1.000000 0.000000
vn 0.000000 1.000000 0.000000
vn 0.000000 1.000000 0.000000
vn 0.000000 1.000000 0.000000
vn 0.000000 1.000000 -0.000001
vn 0.000000 1.000000 -0.000001
s off
f 71/239/1 72/240/2 67/241/3 68/242/4
f 34/91/5 18/59/6 45/113/7 10/37/8 54/131/9 30/83/10 57/137/11 11/34/12 46/116/13 17/58/14 33/90/15 12/32/16 58/140/17 29/82/18 53/130/19 9/25/20
f 23/70/21 24/219/22 47/187/23 48/183/24
f 42/108/25 21/66/26 37/98/27 16/46/28 50/124/29 26/76/30 61/146/31 13/41/32 38/99/33 22/67/34 41/105/35 14/48/36 62/147/37 25/73/38 49/121/39 15/47/40
f 31/86/41 32/214/42 63/157/43 64/153/44
f 59/163/45 60/159/46 27/77/47 28/216/48
f 18/60/49 19/210/50 44/190/51 45/114/52
f 30/84/53 31/180/54 64/154/55 57/138/56
f 46/188/57 47/186/58 24/72/59 17/221/60
f 58/164/61 59/162/62 28/80/63 29/218/64
f 22/68/65 23/222/66 48/184/67 41/106/68
f 62/158/69 63/156/70 32/87/71 25/215/72
f 42/194/73 43/192/74 20/64/75 21/207/76
f 26/75/77 27/167/78 60/160/79 61/145/80
f 34/206/81 35/204/82 19/61/83 18/212/84
f 21/65/85 20/209/86 36/202/87 37/97/88
f 38/200/89 39/198/90 23/69/91 22/224/92
f 39/199/93 40/195/94 24/71/95 23/223/96
f 17/57/97 24/220/98 40/196/99 33/89/100
f 50/179/101 51/177/102 27/78/103 26/165/104
f 28/79/105 27/166/106 51/178/107 52/174/108
f 29/81/109 28/217/110 52/175/111 53/129/112
f 54/173/113 55/171/114 31/85/115 30/182/116
f 55/172/117 56/168/118 32/88/119 31/181/120
f 25/74/121 32/213/122 56/169/123 49/122/124
f 3/3/125 35/93/126 34/92/127 9/29/128
f 1/23/129 36/95/130 35/94/131 3/17/132
f 37/203/133 36/96/134 1/52/135 16/50/136
f 7/8/137 39/101/138 38/100/139 13/31/140
f 5/5/141 40/103/142 39/102/143 7/54/144
f 33/197/145 40/104/146 5/55/147 12/16/148
f 2/10/149 43/110/150 42/107/151 15/43/152
f 44/112/153 43/109/154 2/2/155 4/22/156
f 45/191/157 44/111/158 4/39/159 10/36/160
f 6/6/161 47/118/162 46/115/163 11/20/164
f 48/120/165 47/117/166 6/56/167 8/7/168
f 41/185/169 48/119/170 8/53/171 14/27/172
f 1/9/173 51/126/174 50/123/175 16/44/176
f 52/127/177 51/125/178 1/1/179 3/24/180
f 53/176/181 52/128/182 3/40/183 9/30/184
f 4/15/185 55/133/186 54/132/187 10/26/188
f 2/21/189 56/136/190 55/134/191 4/4/192
f 49/170/193 56/135/194 2/45/195 15/51/196
f 5/18/197 59/142/198 58/139/199 12/28/200
f 7/13/201 60/143/202 59/141/203 5/14/204
f 61/161/205 60/144/206 7/35/207 13/49/208
f 8/19/209 63/149/210 62/148/211 14/42/212
f 64/152/213 63/150/214 8/11/215 6/12/216
f 57/155/217 64/151/218 6/38/219 11/33/220
f 20/208/221 43/193/222 67/226/223 72/235/224 66/225/225
f 43/193/226 44/189/227 68/227/228 67/226/229
f 44/189/230 19/62/231 65/228/232 71/233/233 68/227/234
f 35/205/235 36/201/236 70/230/237 69/229/238
f 36/201/239 20/63/240 66/231/241 74/238/242 70/230/243
f 19/211/244 35/205/245 69/229/246 73/236/247 65/232/248
f 66/234/249 72/237/250 71/247/251 65/248/252 73/249/253 74/250/254
f 74/243/255 73/244/256 69/245/257 70/246/258
