# This file uses centimeters as units for non-parametric coordinates.

v -0.062954 0.000000 0.162427
v 0.062954 0.000000 0.162427
v -0.062954 0.125908 0.162427
v 0.062954 0.125908 0.162427
v -0.062954 0.125908 -0.162427
v 0.062954 0.125908 -0.162427
v -0.062954 0.000000 -0.162427
v 0.062954 0.000000 -0.162427
v -0.038482 0.024473 0.162427
v 0.038478 0.024473 0.162427
v 0.038478 0.101435 0.162427
v -0.038482 0.101435 0.162427
v -0.037145 0.100098 -0.162427
v 0.037144 0.100098 -0.162427
v 0.037144 0.025810 -0.162427
v -0.037145 0.025810 -0.162427
vt 0.390369 0.048010
vt 0.448769 0.048010
vt 0.484093 0.048010
vt 0.390369 0.048010
vt 0.448769 0.048010
vt 0.484093 0.048010
vt 0.356222 0.048010
vt 0.448769 0.048010
vt 0.356222 0.048010
vt 0.356222 0.048010
vt 0.390368 0.048010
vt 0.390368 0.048010
vt 0.390369 0.048010
vt 0.390369 0.048010
vt 0.484093 0.048010
vt 0.448769 0.048010
vt 0.448769 0.048010
vt 0.484093 0.048010
vt 0.356222 0.048010
vt 0.448769 0.048010
vt 0.390369 0.048010
vt 0.448769 0.048010
vt 0.448769 0.048010
vt 0.390369 0.048010
vt 0.268532 0.445162
vt 0.448769 0.048010
vt 0.448769 0.048010
vt 0.448769 0.048010
vt 0.448769 0.048010
vt 0.448769 0.048010
vt 0.448769 0.048010
vt 0.268532 0.445162
vt 0.448769 0.048010
vt 0.268532 0.445162
vt 0.448769 0.048010
vt 0.448769 0.048010
vt 0.268532 0.445162
vt 0.448769 0.048010
vt 0.448769 0.048010
vt 0.448769 0.048010
vt 0.448769 0.048010
vt 0.448769 0.048010
vt 0.448769 0.048010
vt 0.448769 0.048010
vt 0.265299 0.441929
vt 0.265299 0.441929
vt 0.265299 0.441929
vt 0.265299 0.441929
vt 0.448769 0.048010
vt 0.448769 0.048010
vt 0.448769 0.048010
vt 0.448769 0.048010
vt 0.448769 0.048010
vt 0.448769 0.048010
vt 0.448769 0.048010
vt 0.448769 0.048010
vn 0.000000 0.000000 1.000000
vn 0.000000 0.000000 1.000000
vn 0.000000 0.000000 1.000000
vn 0.000000 0.000000 1.000000
vn 0.000000 1.000000 0.000000
vn 0.000000 1.000000 0.000000
vn 0.000000 1.000000 0.000000
vn 0.000000 1.000000 0.000000
vn 0.000000 0.000000 -1.000000
vn 0.000000 0.000000 -1.000000
vn 0.000000 0.000000 -1.000000
vn 0.000000 0.000000 -1.000000
vn 0.000000 -1.000000 0.000000
vn 0.000000 -1.000000 0.000000
vn 0.000000 -1.000000 0.000000
vn 0.000000 -1.000000 0.000000
vn 1.000000 0.000000 0.000000
vn 1.000000 0.000000 0.000000
vn 1.000000 0.000000 0.000000
vn 1.000000 0.000000 0.000000
vn -1.000000 0.000000 0.000000
vn -1.000000 0.000000 0.000000
vn -1.000000 0.000000 0.000000
vn -1.000000 0.000000 0.000000
vn 0.000000 0.000000 1.000000
vn 0.000000 0.000000 1.000000
vn 0.000000 0.000000 1.000000
vn 0.000000 0.000000 1.000000
vn 0.000000 0.000000 1.000000
vn 0.000000 0.000000 1.000000
vn 0.000000 0.000000 1.000000
vn 0.000000 0.000000 1.000000
vn 0.000000 0.000000 1.000000
vn 0.000000 0.000000 1.000000
vn 0.000000 0.000000 1.000000
vn 0.000000 0.000000 1.000000
vn -0.000000 0.000000 1.000000
vn -0.000000 0.000000 1.000000
vn -0.000000 0.000000 1.000000
vn -0.000000 0.000000 1.000000
vn 0.000000 0.000000 -1.000000
vn 0.000000 0.000000 -1.000000
vn 0.000000 0.000000 -1.000000
vn 0.000000 0.000000 -1.000000
vn 0.000001 0.000000 -1.000000
vn 0.000001 0.000000 -1.000000
vn 0.000001 0.000000 -1.000000
vn 0.000001 0.000000 -1.000000
vn 0.000000 0.000000 -1.000000
vn 0.000000 0.000000 -1.000000
vn 0.000000 0.000000 -1.000000
vn 0.000000 0.000000 -1.000000
vn -0.000000 0.000000 -1.000000
vn -0.000000 0.000000 -1.000000
vn -0.000000 0.000000 -1.000000
vn -0.000000 0.000000 -1.000000
s off
f 9/25/1 10/32/2 11/34/3 12/37/4
f 3/3/5 4/15/6 6/6/7 5/18/8
f 13/45/9 14/46/10 15/47/11 16/48/12
f 7/7/13 8/19/14 2/10/15 1/9/16
f 2/21/17 8/11/18 6/12/19 4/4/20
f 7/13/21 1/1/22 3/24/23 5/14/24
f 1/23/25 2/39/26 10/36/27 9/29/28
f 2/2/29 4/38/30 11/33/31 10/26/32
f 4/22/33 3/35/34 12/31/35 11/27/36
f 3/17/37 1/40/38 9/30/39 12/28/40
f 5/5/41 6/55/42 14/53/43 13/41/44
f 6/16/45 8/54/46 15/51/47 14/42/48
f 8/8/49 7/52/50 16/50/51 15/43/52
f 7/20/53 5/56/54 13/49/55 16/44/56
