# This file uses centimeters as units for non-parametric coordinates.

v 0.128935 0.050401 -0.208551
v -0.128933 0.050401 -0.208551
v 0.128935 0.079746 -0.212017
v -0.128933 0.079746 -0.212017
v 0.114727 0.179866 0.203019
v -0.114727 0.179866 0.203019
v 0.114727 0.049719 0.218389
v -0.114727 0.049719 0.218389
v 0.092909 0.054470 -0.004802
v 0.092909 0.123254 -0.012926
v -0.092907 0.123254 -0.012926
v -0.092907 0.054470 -0.004802
v 0.042664 0.064011 -0.093309
v 0.042664 0.093357 -0.096774
v -0.042661 0.093357 -0.096774
v -0.042661 0.064011 -0.093309
v 0.000003 0.083200 -0.182775
v 0.000003 0.053854 -0.179309
v -0.130869 0.173253 0.116426
v 0.130869 0.173253 0.116426
v 0.130869 0.043106 0.131797
v -0.130869 0.043106 0.131797
v 0.034904 0.134590 0.208366
v -0.034903 0.134590 0.208366
v -0.034903 0.094995 0.213043
v 0.034904 0.094995 0.213043
v 0.103192 0.173323 0.203791
v -0.103192 0.173323 0.203791
v -0.103192 0.056262 0.217615
v 0.103192 0.056262 0.217615
vt 0.298765 0.086812
vt 0.323492 0.086812
vt 0.358816 0.086812
vt 0.298765 0.086812
vt 0.412353 0.067210
vt 0.391485 0.086812
vt 0.297288 0.086812
vt 0.412353 0.067210
vt 0.264619 0.086812
vt 0.264619 0.086812
vt 0.331435 0.086812
vt 0.331435 0.086812
vt 0.331435 0.086812
vt 0.331435 0.086812
vt 0.358816 0.086812
vt 0.412353 0.067210
vt 0.323492 0.086812
vt 0.391485 0.086812
vt 0.297288 0.086812
vt 0.412353 0.067210
vt 0.298765 0.086812
vt 0.323492 0.086812
vt 0.323492 0.086812
vt 0.298765 0.086812
vt 0.331435 0.086812
vt 0.297288 0.086812
vt 0.331435 0.086812
vt 0.391485 0.086812
vt 0.391485 0.086812
vt 0.331435 0.086812
vt 0.297288 0.086812
vt 0.331435 0.086812
vt 0.331435 0.086812
vt 0.297288 0.086812
vt 0.298765 0.086812
vt 0.358816 0.086812
vt 0.358816 0.086812
vt 0.298765 0.086812
vt 0.264619 0.086812
vt 0.298765 0.086812
vt 0.358816 0.086812
vt 0.323492 0.086812
vt 0.323492 0.086812
vt 0.264619 0.086812
vt 0.391485 0.086812
vt 0.331435 0.086812
vt 0.331435 0.086812
vt 0.391485 0.086812
vt 0.331435 0.086812
vt 0.297288 0.086812
vt 0.297288 0.086812
vt 0.331435 0.086812
vt 0.297288 0.086812
vt 0.331435 0.086812
vt 0.391485 0.086812
vt 0.331435 0.086812
vt 0.331435 0.086812
vt 0.297288 0.086812
vt 0.391485 0.086812
vt 0.331435 0.086812
vt 0.297288 0.086812
vt 0.331435 0.086812
vt 0.331435 0.086812
vt 0.297288 0.086812
vt 0.323492 0.086812
vt 0.323492 0.086812
vt 0.331435 0.086812
vt 0.297288 0.086812
vt 0.298765 0.086812
vt 0.264619 0.086812
vt 0.391485 0.086812
vt 0.331435 0.086812
vt 0.331435 0.086812
vt 0.391485 0.086812
vt 0.391485 0.086812
vt 0.331435 0.086812
vt 0.331435 0.086812
vt 0.391485 0.086812
vt 0.518201 0.570318
vt 0.518201 0.570318
vt 0.518201 0.570318
vt 0.518201 0.570318
vt 0.483578 0.065269
vt 0.483580 0.065269
vt 0.483580 0.065270
vt 0.483578 0.065270
vt 0.518201 0.570318
vt 0.518201 0.570318
vt 0.518201 0.570318
vt 0.412353 0.067210
vt 0.518201 0.570318
vt 0.412353 0.067210
vt 0.412353 0.067210
vt 0.412353 0.067210
vt 0.518201 0.570318
vt 0.412353 0.067210
vt 0.412353 0.067210
vt 0.412353 0.067210
vt 0.412353 0.067210
vt 0.412353 0.067210
vt 0.412353 0.067210
vt 0.518201 0.570318
vt 0.412353 0.067210
vt 0.412353 0.067210
vt 0.518201 0.570318
vt 0.518201 0.570318
vt 0.518201 0.570318
vt 0.518201 0.570318
vt 0.518201 0.570318
vt 0.518201 0.570318
vn 0.000000 -0.117292 -0.993097
vn 0.000000 -0.117292 -0.993097
vn 0.222637 -0.114348 -0.968172
vn 0.222637 -0.114348 -0.968172
vn 0.000000 0.934469 -0.356045
vn 0.000000 0.934469 -0.356045
vn 0.000000 0.970039 -0.242949
vn 0.000000 0.970039 -0.242950
vn 0.000000 0.117323 0.993094
vn 0.000000 0.117323 0.993094
vn 0.000000 0.117323 0.993094
vn 0.000000 0.117323 0.993094
vn 0.000000 -0.999884 -0.015227
vn 0.000000 -0.999884 -0.015226
vn 0.000000 -0.996175 -0.087378
vn 0.000000 -0.996175 -0.087378
vn -0.946680 -0.037789 -0.319952
vn -0.946309 -0.037916 -0.321033
vn -0.998771 -0.005814 -0.049219
vn -0.998679 -0.006027 -0.051022
vn 0.998680 -0.006026 -0.051015
vn 0.998771 -0.005813 -0.049212
vn 0.946313 -0.037915 -0.321022
vn 0.946684 -0.037787 -0.319941
vn 0.946684 -0.037787 -0.319941
vn 0.946313 -0.037915 -0.321022
vn 0.999570 -0.003439 -0.029125
vn 0.999570 -0.003439 -0.029126
vn 0.000000 0.977907 -0.209041
vn 0.000000 0.977907 -0.209041
vn 0.000000 0.934469 -0.356045
vn 0.000000 0.934469 -0.356045
vn -0.999570 -0.003439 -0.029129
vn -0.999570 -0.003439 -0.029128
vn -0.946309 -0.037916 -0.321033
vn -0.946680 -0.037789 -0.319952
vn 0.000000 -0.996175 -0.087378
vn 0.000000 -0.996175 -0.087378
vn 0.000000 -0.999699 0.024519
vn 0.000000 -0.999699 0.024519
vn 0.999570 -0.003439 -0.029126
vn 0.999570 -0.003439 -0.029125
vn 0.802520 0.069980 0.592507
vn 0.802520 0.069980 0.592507
vn 0.000000 0.993098 -0.117286
vn 0.000000 0.993098 -0.117286
vn 0.000000 0.993098 -0.117286
vn 0.000000 0.977907 -0.209041
vn 0.000000 0.977907 -0.209041
vn -0.802517 0.069980 0.592511
vn -0.999570 -0.003439 -0.029128
vn -0.999570 -0.003439 -0.029129
vn -0.802517 0.069980 0.592511
vn 0.000000 -0.999699 0.024519
vn 0.000000 -0.999699 0.024519
vn 0.000000 -0.993098 0.117287
vn 0.000000 -0.993098 0.117287
vn 0.000000 -0.993098 0.117287
vn -0.222643 -0.114348 -0.968171
vn 0.000000 -0.117292 -0.993097
vn 0.000000 -0.117292 -0.993097
vn -0.222643 -0.114348 -0.968171
vn 0.000000 0.970039 -0.242950
vn 0.000000 0.970039 -0.242949
vn 0.000000 0.997096 -0.076151
vn 0.000000 0.997096 -0.076151
vn 0.983133 0.021451 0.181630
vn 0.998771 -0.005813 -0.049212
vn 0.998680 -0.006026 -0.051015
vn 0.983133 0.021451 0.181630
vn 0.000000 -0.997097 0.076146
vn 0.000000 -0.997097 0.076146
vn 0.000000 -0.999884 -0.015226
vn 0.000000 -0.999884 -0.015227
vn -0.998679 -0.006027 -0.051022
vn -0.998771 -0.005814 -0.049219
vn -0.983133 0.021451 0.181630
vn -0.983133 0.021451 0.181630
vn 0.000000 0.117277 0.993099
vn 0.000000 0.117277 0.993099
vn 0.000000 0.117277 0.993099
vn 0.000000 0.117277 0.993099
vn -0.000013 0.117288 0.993098
vn -0.000013 0.117288 0.993098
vn -0.000013 0.117288 0.993098
vn -0.000013 0.117288 0.993098
vn 0.000000 0.117230 0.993105
vn 0.000000 0.117230 0.993105
vn 0.000000 0.117230 0.993105
vn 0.000000 0.117230 0.993105
vn 0.000013 0.117288 0.993098
vn 0.000013 0.117288 0.993098
vn 0.000013 0.117288 0.993098
vn 0.000013 0.117288 0.993098
vn 0.000000 0.117284 0.993098
vn 0.000000 0.117284 0.993098
vn 0.000000 0.117284 0.993098
vn 0.000000 0.117284 0.993098
vn 0.000033 0.117280 0.993099
vn 0.000033 0.117280 0.993099
vn 0.000033 0.117280 0.993099
vn 0.000033 0.117280 0.993099
vn 0.000000 0.117399 0.993085
vn 0.000000 0.117399 0.993085
vn 0.000000 0.117399 0.993085
vn 0.000000 0.117399 0.993085
vn -0.000032 0.117280 0.993099
vn -0.000032 0.117280 0.993099
vn -0.000032 0.117280 0.993099
vn -0.000032 0.117280 0.993099
s off
f 17/65/1 18/43/2 2/2/3 4/22/4
f 10/28/5 11/75/6 19/45/7 20/59/8
f 23/83/9 24/84/10 25/85/11 26/86/12
f 21/58/13 22/53/14 12/31/15 9/64/16
f 11/30/17 12/62/18 22/54/19 19/46/20
f 20/60/21 21/57/22 9/25/23 10/77/24
f 10/27/25 9/63/26 13/33/27 14/73/28
f 14/74/29 15/71/30 11/29/31 10/78/32
f 15/72/33 16/67/34 12/32/35 11/76/36
f 9/26/37 12/61/38 16/68/39 13/34/40
f 14/35/41 13/69/42 1/1/43 3/24/44
f 3/3/45 17/41/46 4/15/47 15/37/48 14/36/49
f 2/21/50 16/40/51 15/38/52 4/4/53
f 13/70/54 16/39/55 2/10/56 18/44/57 1/9/58
f 1/23/59 18/66/60 17/42/61 3/17/62
f 20/48/63 19/55/64 6/6/65 5/18/66
f 7/13/67 21/49/68 20/47/69 5/14/70
f 7/7/71 8/19/72 22/51/73 21/50/74
f 19/56/75 22/52/76 8/11/77 6/12/78
f 27/95/79 28/109/80 24/91/81 23/79/82
f 28/110/83 29/107/84 25/89/85 24/80/86
f 29/108/87 30/105/88 26/88/89 25/81/90
f 30/106/91 27/102/92 23/87/93 26/82/94
f 5/5/95 6/93/96 28/96/97 27/103/98
f 6/16/99 8/92/100 29/98/101 28/97/102
f 8/8/103 7/90/104 30/100/105 29/99/106
f 7/20/107 5/94/108 27/104/109 30/101/110
