# This file uses centimeters as units for non-parametric coordinates.

v 0.128934 0.050400 -0.208307
v -0.128932 0.050400 -0.208307
v 0.128934 0.079746 -0.211773
v -0.128932 0.079746 -0.211773
v 0.114726 0.179866 0.203262
v -0.114728 0.179866 0.203262
v 0.114726 0.049719 0.218633
v -0.114728 0.049719 0.218633
v 0.092910 0.054470 -0.004558
v 0.092910 0.123254 -0.012682
v -0.092908 0.123254 -0.012682
v -0.092908 0.054470 -0.004558
v 0.042663 0.064011 -0.093065
v 0.042663 0.093357 -0.096531
v -0.042663 0.093357 -0.096531
v -0.042663 0.064011 -0.093065
v 0.000004 0.083200 -0.182532
v 0.000004 0.053854 -0.179066
v -0.130868 0.173253 0.116669
v 0.130868 0.173253 0.116669
v 0.130868 0.043106 0.132041
v -0.130868 0.043106 0.132041
v 0.034904 0.134590 0.208609
v -0.034904 0.134590 0.208609
v -0.034904 0.094995 0.213287
v 0.034904 0.094995 0.213287
v 0.103191 0.173323 0.204035
v -0.103191 0.173323 0.204035
v -0.103191 0.056262 0.217859
v 0.103191 0.056262 0.217859
v 0.062518 0.123254 -0.012682
v -0.062517 0.123254 -0.012682
v -0.088060 0.173253 0.116669
v 0.088060 0.173253 0.116669
v -0.092148 0.179866 0.137172
v 0.092148 0.179866 0.137172
v -0.074266 0.146253 0.046820
v -0.078865 0.155253 0.070103
v 0.074268 0.146253 0.046820
v 0.078865 0.155253 0.070103
v -0.065990 0.130053 0.004910
v 0.065992 0.130053 0.004910
vt 0.203371 0.063290
vt 0.228097 0.063290
vt 0.263421 0.063290
vt 0.203371 0.063290
vt 0.351302 0.063755
vt 0.296091 0.063290
vt 0.201894 0.063290
vt 0.351302 0.063755
vt 0.169224 0.063290
vt 0.169224 0.063290
vt 0.236040 0.063290
vt 0.236040 0.063290
vt 0.236040 0.063290
vt 0.236040 0.063290
vt 0.263421 0.063290
vt 0.351302 0.063755
vt 0.228097 0.063290
vt 0.296091 0.063290
vt 0.201894 0.063290
vt 0.351302 0.063755
vt 0.203371 0.063290
vt 0.228097 0.063290
vt 0.228097 0.063290
vt 0.203371 0.063290
vt 0.236040 0.063290
vt 0.201894 0.063290
vt 0.236040 0.063290
vt 0.296091 0.063290
vt 0.296091 0.063290
vt 0.236040 0.063290
vt 0.201894 0.063290
vt 0.236040 0.063290
vt 0.236040 0.063290
vt 0.201894 0.063290
vt 0.203371 0.063290
vt 0.263421 0.063290
vt 0.263421 0.063290
vt 0.203371 0.063290
vt 0.169224 0.063290
vt 0.203371 0.063290
vt 0.263421 0.063290
vt 0.228097 0.063290
vt 0.228097 0.063290
vt 0.169224 0.063290
vt 0.296091 0.063290
vt 0.236040 0.063290
vt 0.236040 0.063290
vt 0.296091 0.063290
vt 0.236040 0.063290
vt 0.201894 0.063290
vt 0.201894 0.063290
vt 0.236040 0.063290
vt 0.201894 0.063290
vt 0.236040 0.063290
vt 0.296091 0.063290
vt 0.236040 0.063290
vt 0.236040 0.063290
vt 0.201894 0.063290
vt 0.296091 0.063290
vt 0.236040 0.063290
vt 0.201894 0.063290
vt 0.236040 0.063290
vt 0.236040 0.063290
vt 0.201894 0.063290
vt 0.228097 0.063290
vt 0.228097 0.063290
vt 0.236040 0.063290
vt 0.201894 0.063290
vt 0.203371 0.063290
vt 0.169224 0.063290
vt 0.296091 0.063290
vt 0.236040 0.063290
vt 0.236040 0.063290
vt 0.296091 0.063290
vt 0.296091 0.063290
vt 0.236040 0.063290
vt 0.236040 0.063290
vt 0.296091 0.063290
vt 0.392906 0.109802
vt 0.392906 0.109802
vt 0.392906 0.109802
vt 0.392906 0.109802
vt 0.422527 0.061814
vt 0.422529 0.061814
vt 0.422529 0.061814
vt 0.422527 0.061814
vt 0.392906 0.109802
vt 0.392906 0.109802
vt 0.392906 0.109802
vt 0.351302 0.063755
vt 0.392906 0.109802
vt 0.351302 0.063755
vt 0.351302 0.063755
vt 0.351302 0.063755
vt 0.392906 0.109802
vt 0.351302 0.063755
vt 0.351302 0.063755
vt 0.351302 0.063755
vt 0.351302 0.063755
vt 0.351302 0.063755
vt 0.351302 0.063755
vt 0.392906 0.109802
vt 0.351302 0.063755
vt 0.351302 0.063755
vt 0.392906 0.109802
vt 0.392906 0.109802
vt 0.392906 0.109802
vt 0.392906 0.109802
vt 0.392906 0.109802
vt 0.392906 0.109802
vt 0.296091 0.063290
vt 0.296091 0.063290
vt 0.296091 0.063290
vt 0.268445 0.063290
vt 0.296091 0.063290
vt 0.296091 0.063290
vt 0.268445 0.063290
vt 0.296091 0.063290
vt 0.296091 0.063290
vt 0.296091 0.063290
vt 0.296091 0.063290
vt 0.296091 0.063290
vt 0.296091 0.063290
vt 0.268445 0.063290
vt 0.296091 0.063290
vt 0.268445 0.063290
vt 0.268445 0.063290
vt 0.296091 0.063290
vt 0.268445 0.063290
vt 0.268445 0.063290
vt 0.268445 0.063290
vt 0.296091 0.063290
vt 0.296091 0.063290
vt 0.268445 0.063290
vt 0.268445 0.063290
vt 0.268445 0.063290
vt 0.268445 0.063290
vt 0.296091 0.063290
vn 0.000000 -0.117298 -0.993097
vn 0.000000 -0.117298 -0.993097
vn 0.222633 -0.114355 -0.968172
vn 0.222633 -0.114355 -0.968172
vn 0.000000 0.941022 -0.338345
vn 0.000000 0.941022 -0.338345
vn 0.000000 0.932743 -0.360541
vn 0.000000 0.932743 -0.360541
vn 0.000000 0.117334 0.993093
vn 0.000000 0.117334 0.993093
vn 0.000000 0.117334 0.993093
vn 0.000000 0.117334 0.993093
vn 0.000000 -0.999884 -0.015227
vn 0.000000 -0.999884 -0.015226
vn 0.000000 -0.996175 -0.087378
vn 0.000000 -0.996175 -0.087378
vn -0.946684 -0.037788 -0.319941
vn -0.946312 -0.037916 -0.321022
vn -0.998771 -0.005814 -0.049222
vn -0.998679 -0.006027 -0.051026
vn 0.998680 -0.006025 -0.051008
vn 0.998772 -0.005812 -0.049205
vn 0.946315 -0.037915 -0.321016
vn 0.946686 -0.037787 -0.319935
vn 0.946686 -0.037787 -0.319935
vn 0.946315 -0.037915 -0.321016
vn 0.999569 -0.003441 -0.029137
vn 0.999570 -0.003441 -0.029138
vn -0.999570 -0.003440 -0.029133
vn -0.999570 -0.003440 -0.029132
vn -0.946312 -0.037916 -0.321022
vn -0.946684 -0.037788 -0.319941
vn 0.000000 -0.996175 -0.087378
vn 0.000000 -0.996175 -0.087378
vn 0.000000 -0.999699 0.024518
vn 0.000000 -0.999699 0.024518
vn 0.999570 -0.003441 -0.029138
vn 0.999569 -0.003441 -0.029137
vn 0.802519 0.069979 0.592508
vn 0.802519 0.069979 0.592508
vn 0.000000 0.993098 -0.117287
vn 0.000000 0.993098 -0.117287
vn 0.000000 0.993098 -0.117287
vn 0.000000 0.993098 -0.117287
vn 0.000000 0.993098 -0.117287
vn -0.802525 0.069978 0.592500
vn -0.999570 -0.003440 -0.029132
vn -0.999570 -0.003440 -0.029133
vn -0.802525 0.069978 0.592500
vn 0.000000 -0.999699 0.024518
vn 0.000000 -0.999699 0.024518
vn 0.000000 -0.993098 0.117286
vn 0.000000 -0.993098 0.117286
vn 0.000000 -0.993098 0.117286
vn -0.222642 -0.114354 -0.968170
vn 0.000000 -0.117298 -0.993097
vn 0.000000 -0.117298 -0.993097
vn -0.222642 -0.114354 -0.968170
vn 0.000000 0.940135 -0.340802
vn 0.000000 0.940135 -0.340802
vn 0.000000 0.951712 -0.306991
vn 0.000000 0.951712 -0.306991
vn 0.983133 0.021452 0.181630
vn 0.998772 -0.005812 -0.049205
vn 0.998680 -0.006025 -0.051008
vn 0.983133 0.021452 0.181630
vn 0.000000 -0.997097 0.076146
vn 0.000000 -0.997097 0.076146
vn 0.000000 -0.999884 -0.015226
vn 0.000000 -0.999884 -0.015227
vn -0.998679 -0.006027 -0.051026
vn -0.998771 -0.005814 -0.049222
vn -0.983137 0.021449 0.181610
vn -0.983137 0.021449 0.181610
vn 0.000000 0.117277 0.993099
vn 0.000000 0.117277 0.993099
vn 0.000000 0.117277 0.993099
vn 0.000000 0.117277 0.993099
vn -0.000017 0.117291 0.993098
vn -0.000017 0.117291 0.993098
vn -0.000017 0.117291 0.993098
vn -0.000017 0.117291 0.993098
vn 0.000000 0.117218 0.993106
vn 0.000000 0.117218 0.993106
vn 0.000000 0.117218 0.993106
vn 0.000000 0.117218 0.993106
vn 0.000016 0.117291 0.993098
vn 0.000016 0.117291 0.993098
vn 0.000016 0.117291 0.993098
vn 0.000016 0.117291 0.993098
vn 0.000000 0.117283 0.993098
vn 0.000000 0.117283 0.993099
vn 0.000000 0.117283 0.993099
vn 0.000000 0.117283 0.993099
vn 0.000033 0.117280 0.993099
vn 0.000033 0.117280 0.993099
vn 0.000033 0.117280 0.993099
vn 0.000033 0.117280 0.993099
vn 0.000000 0.117398 0.993085
vn 0.000000 0.117398 0.993085
vn 0.000000 0.117398 0.993085
vn 0.000000 0.117398 0.993085
vn -0.000032 0.117280 0.993099
vn -0.000032 0.117280 0.993099
vn -0.000032 0.117280 0.993099
vn -0.000032 0.117280 0.993099
vn 0.000000 0.932743 -0.360541
vn 0.000000 0.932743 -0.360541
vn 0.000000 0.932743 -0.360541
vn 0.000000 0.932743 -0.360541
vn 0.000000 0.932743 -0.360541
vn 0.000000 0.932743 -0.360541
vn 0.000000 0.932743 -0.360541
vn -0.000000 0.932743 -0.360541
vn -0.000000 0.932743 -0.360541
vn -0.000000 0.932744 -0.360541
vn -0.000000 0.932743 -0.360541
vn -0.000000 0.932743 -0.360541
vn -0.000000 0.932743 -0.360541
vn -0.000000 0.932743 -0.360541
vn 0.000000 0.941022 -0.338345
vn 0.000000 0.941022 -0.338345
vn 0.000000 0.941917 -0.335846
vn 0.000000 0.941917 -0.335846
vn 0.000000 0.941917 -0.335846
vn 0.000000 0.941917 -0.335846
vn -0.110715 0.987797 -0.109538
vn -0.110715 0.987797 -0.109538
vn -0.110715 0.987797 -0.109538
vn -0.110715 0.987797 -0.109538
vn 0.000000 1.000000 -0.000001
vn 0.000000 1.000000 -0.000001
vn 0.000000 1.000000 -0.000001
vn 0.000000 1.000000 -0.000001
vn 0.110716 0.987797 -0.109536
vn 0.110716 0.987797 -0.109536
vn 0.110716 0.987797 -0.109536
vn 0.110716 0.987797 -0.109536
vn 0.000000 0.932743 -0.360541
vn 0.000000 0.932743 -0.360541
vn 0.000000 0.932743 -0.360541
vn 0.000000 0.932743 -0.360541
vn 0.000000 0.932743 -0.360541
vn 0.000000 0.932743 -0.360541
vn 0.000000 0.940135 -0.340802
vn 0.000000 0.940135 -0.340802
vn 0.000000 0.932743 -0.360541
vn 0.000000 0.932743 -0.360541
vn 0.000000 0.932743 -0.360541
vn 0.000000 0.932743 -0.360541
s off
f 17/65/1 18/43/2 2/2/3 4/22/4
f 31/114/5 32/134/6 41/127/7 42/126/8
f 23/83/9 24/84/10 25/85/11 26/86/12
f 21/58/13 22/53/14 12/31/15 9/64/16
f 11/30/17 12/62/18 22/54/19 19/46/20
f 20/60/21 21/57/22 9/25/23 10/77/24
f 10/27/25 9/63/26 13/33/27 14/73/28
f 15/72/29 16/67/30 12/32/31 11/76/32
f 9/26/33 12/61/34 16/68/35 13/34/36
f 14/35/37 13/69/38 1/1/39 3/24/40
f 3/3/41 17/41/42 4/15/43 15/37/44 14/36/45
f 2/21/46 16/40/47 15/38/48 4/4/49
f 13/70/50 16/39/51 2/10/52 18/44/53 1/9/54
f 1/23/55 18/66/56 17/42/57 3/17/58
f 34/135/59 33/117/60 35/137/61 36/136/62
f 7/13/63 21/49/64 20/47/65 5/14/66
f 7/7/67 8/19/68 22/51/69 21/50/70
f 19/56/71 22/52/72 8/11/73 6/12/74
f 27/95/75 28/109/76 24/91/77 23/79/78
f 28/110/79 29/107/80 25/89/81 24/80/82
f 29/108/83 30/105/84 26/88/85 25/81/86
f 30/106/87 27/102/88 23/87/89 26/82/90
f 5/5/91 6/93/92 28/96/93 27/103/94
f 6/16/95 8/92/96 29/98/97 28/97/98
f 8/8/99 7/90/100 30/100/101 29/99/102
f 7/20/103 5/94/104 27/104/105 30/101/106
f 11/75/107 19/45/108 33/112/109 38/122/110 37/121/111 41/125/112 32/111/113
f 20/59/114 10/28/115 31/133/116 42/128/117 39/123/118 40/132/119 34/113/120
f 32/115/121 31/116/122 10/78/123 14/74/124 15/71/125 11/29/126
f 19/55/127 6/6/128 35/118/129 33/138/130
f 6/6/131 5/18/132 36/119/133 35/118/134
f 5/18/135 20/48/136 34/120/137 36/119/138
f 39/129/139 37/130/140 38/131/141 40/124/142
f 40/132/143 38/122/144 33/112/145 34/113/146
f 42/128/147 41/125/148 37/121/149 39/123/150
