# This file uses centimeters as units for non-parametric coordinates.

v -0.187822 0.000000 0.187822
v 0.187822 0.000000 0.187822
v -0.187822 0.259520 0.187822
v 0.187822 0.259520 0.187822
v -0.187822 0.259520 -0.187822
v 0.187822 0.259520 -0.187822
v -0.187822 0.000000 -0.187822
v 0.187822 0.000000 -0.187822
v -0.187822 0.238546 0.187822
v 0.187822 0.238546 0.187822
v 0.187822 0.238546 -0.187822
v -0.187822 0.238546 -0.187822
v -0.187822 0.187620 0.187822
v 0.187822 0.187620 0.187822
v 0.187822 0.187620 -0.187822
v -0.187822 0.187620 -0.187822
v -0.187822 0.161946 0.187822
v 0.187822 0.161946 0.187822
v 0.187822 0.161946 -0.187822
v -0.187822 0.161946 -0.187822
v -0.187822 0.110334 0.187822
v 0.187822 0.110334 0.187822
v 0.187822 0.110334 -0.187822
v -0.187822 0.110334 -0.187822
v -0.187822 0.082489 0.187822
v 0.187822 0.082489 0.187822
v 0.187822 0.082489 -0.187822
v -0.187822 0.082489 -0.187822
v -0.187822 0.025297 0.187822
v 0.187822 0.025297 0.187822
v 0.187822 0.025297 -0.187822
v -0.187822 0.025297 -0.187822
vt 0.111357 0.047350
vt 0.136084 0.047350
vt 0.171408 0.047350
vt 0.111357 0.047350
vt 0.136084 0.047350
vt 0.171408 0.047350
vt 0.077211 0.047350
vt 0.136084 0.047350
vt 0.077211 0.047350
vt 0.077211 0.047350
vt 0.111357 0.047350
vt 0.111357 0.047350
vt 0.111357 0.047350
vt 0.111357 0.047350
vt 0.171408 0.047350
vt 0.136084 0.047350
vt 0.136084 0.047350
vt 0.171408 0.047350
vt 0.077211 0.047350
vt 0.136084 0.047350
vt 0.111357 0.047350
vt 0.136084 0.047350
vt 0.136084 0.047350
vt 0.111357 0.047350
vt 0.239885 0.441254
vt 0.136084 0.047350
vt 0.264611 0.441254
vt 0.111357 0.047350
vt 0.264611 0.441254
vt 0.239885 0.441254
vt 0.239885 0.441254
vt 0.264611 0.441254
vt 0.111357 0.047350
vt 0.264611 0.441254
vt 0.136084 0.047350
vt 0.239885 0.441254
vt 0.136084 0.047350
vt 0.111357 0.047350
vt 0.111357 0.047350
vt 0.136084 0.047350
vt 0.239885 0.441254
vt 0.136084 0.047350
vt 0.264611 0.441254
vt 0.111357 0.047350
vt 0.264611 0.441254
vt 0.239885 0.441254
vt 0.239885 0.441254
vt 0.264611 0.441254
vt 0.111357 0.047350
vt 0.264611 0.441254
vt 0.136084 0.047350
vt 0.239885 0.441254
vt 0.136084 0.047350
vt 0.111357 0.047350
vt 0.111357 0.047350
vt 0.136084 0.047350
vt 0.239885 0.441254
vt 0.136084 0.047350
vt 0.264611 0.441254
vt 0.111357 0.047350
vt 0.264611 0.441254
vt 0.239885 0.441254
vt 0.239885 0.441254
vt 0.264611 0.441254
vt 0.239885 0.441254
vt 0.264611 0.441254
vt 0.136084 0.047350
vt 0.111357 0.047350
vt 0.136084 0.047350
vt 0.111357 0.047350
vt 0.111357 0.047350
vt 0.136084 0.047350
vt 0.264611 0.441254
vt 0.239885 0.441254
vt 0.136084 0.047350
vt 0.111357 0.047350
vt 0.239885 0.441254
vt 0.264611 0.441254
vt 0.264611 0.441254
vt 0.239885 0.441254
vt 0.136084 0.047350
vt 0.239885 0.441254
vt 0.111357 0.047350
vt 0.264611 0.441254
vt 0.136084 0.047350
vt 0.111357 0.047350
vt 0.111357 0.047350
vt 0.136084 0.047350
vt 0.264611 0.441254
vt 0.111357 0.047350
vt 0.239885 0.441254
vt 0.136084 0.047350
vt 0.264611 0.441254
vt 0.239885 0.441254
vt 0.239885 0.441254
vt 0.264611 0.441254
vt 0.136084 0.047350
vt 0.239885 0.441254
vt 0.111357 0.047350
vt 0.264611 0.441254
vt 0.136084 0.047350
vt 0.111357 0.047350
vt 0.111357 0.047350
vt 0.136084 0.047350
vt 0.264611 0.441254
vt 0.111357 0.047350
vt 0.239885 0.441254
vt 0.136084 0.047350
vt 0.264611 0.441254
vt 0.239885 0.441254
vt 0.239885 0.441254
vt 0.264611 0.441254
vt 0.136084 0.047350
vt 0.239885 0.441254
vt 0.111357 0.047350
vt 0.264611 0.441254
vt 0.136084 0.047350
vt 0.111357 0.047350
vt 0.111357 0.047350
vt 0.136084 0.047350
vn 0.000000 0.000000 1.000000
vn 0.000000 0.000000 1.000000
vn 0.000000 0.000000 1.000000
vn 0.000000 0.000000 1.000000
vn 0.000000 1.000000 0.000000
vn 0.000000 1.000000 0.000000
vn 0.000000 1.000000 0.000000
vn 0.000000 1.000000 0.000000
vn 0.000000 0.000000 -1.000000
vn 0.000000 0.000000 -1.000000
vn 0.000000 0.000000 -1.000000
vn 0.000000 0.000000 -1.000000
vn 0.000000 -1.000000 0.000000
vn 0.000000 -1.000000 0.000000
vn 0.000000 -1.000000 0.000000
vn 0.000000 -1.000000 0.000000
vn 1.000000 0.000000 0.000000
vn 1.000000 0.000000 0.000000
vn 1.000000 0.000000 0.000000
vn 1.000000 0.000000 0.000000
vn -1.000000 0.000000 0.000000
vn -1.000000 0.000000 0.000000
vn -1.000000 0.000000 0.000000
vn -1.000000 0.000000 0.000000
vn 0.000000 0.000000 1.000000
vn 0.000000 0.000000 1.000000
vn 0.000000 0.000000 1.000000
vn 0.000000 0.000000 1.000000
vn 1.000000 0.000000 0.000000
vn 1.000000 0.000000 0.000000
vn 1.000000 0.000000 0.000000
vn 1.000000 0.000000 0.000000
vn 0.000000 0.000000 -1.000000
vn 0.000000 0.000000 -1.000000
vn 0.000000 0.000000 -1.000000
vn 0.000000 0.000000 -1.000000
vn -1.000000 0.000000 0.000000
vn -1.000000 0.000000 0.000000
vn -1.000000 0.000000 0.000000
vn -1.000000 0.000000 0.000000
vn 0.000000 0.000000 1.000000
vn 0.000000 0.000000 1.000000
vn 0.000000 0.000000 1.000000
vn 0.000000 0.000000 1.000000
vn 1.000000 0.000000 0.000000
vn 1.000000 0.000000 0.000000
vn 1.000000 0.000000 0.000000
vn 1.000000 0.000000 0.000000
vn 0.000000 0.000000 -1.000000
vn 0.000000 0.000000 -1.000000
vn 0.000000 0.000000 -1.000000
vn 0.000000 0.000000 -1.000000
vn -1.000000 0.000000 0.000000
vn -1.000000 0.000000 0.000000
vn -1.000000 0.000000 0.000000
vn -1.000000 0.000000 0.000000
vn 0.000000 0.000000 1.000000
vn 0.000000 0.000000 1.000000
vn 0.000000 0.000000 1.000000
vn 0.000000 0.000000 1.000000
vn 1.000000 0.000000 0.000000
vn 1.000000 0.000000 0.000000
vn 1.000000 0.000000 0.000000
vn 1.000000 0.000000 0.000000
vn 0.000000 0.000000 -1.000000
vn 0.000000 0.000000 -1.000000
vn 0.000000 0.000000 -1.000000
vn 0.000000 0.000000 -1.000000
vn -1.000000 0.000000 0.000000
vn -1.000000 0.000000 0.000000
vn -1.000000 0.000000 0.000000
vn -1.000000 0.000000 0.000000
vn 0.000000 0.000000 1.000000
vn 0.000000 0.000000 1.000000
vn 0.000000 0.000000 1.000000
vn 0.000000 0.000000 1.000000
vn 1.000000 0.000000 0.000000
vn 1.000000 0.000000 0.000000
vn 1.000000 0.000000 0.000000
vn 1.000000 0.000000 0.000000
vn 0.000000 0.000000 -1.000000
vn 0.000000 0.000000 -1.000000
vn 0.000000 0.000000 -1.000000
vn 0.000000 0.000000 -1.000000
vn -1.000000 0.000000 0.000000
vn -1.000000 0.000000 0.000000
vn -1.000000 0.000000 0.000000
vn -1.000000 0.000000 0.000000
vn 0.000000 0.000000 1.000000
vn 0.000000 0.000000 1.000000
vn 0.000000 0.000000 1.000000
vn 0.000000 0.000000 1.000000
vn 1.000000 0.000000 0.000000
vn 1.000000 0.000000 0.000000
vn 1.000000 0.000000 0.000000
vn 1.000000 0.000000 0.000000
vn 0.000000 0.000000 -1.000000
vn 0.000000 0.000000 -1.000000
vn 0.000000 0.000000 -1.000000
vn 0.000000 0.000000 -1.000000
vn -1.000000 0.000000 0.000000
vn -1.000000 0.000000 0.000000
vn -1.000000 0.000000 0.000000
vn -1.000000 0.000000 0.000000
vn 0.000000 0.000000 1.000000
vn 0.000000 0.000000 1.000000
vn 0.000000 0.000000 1.000000
vn 0.000000 0.000000 1.000000
vn 1.000000 0.000000 0.000000
vn 1.000000 0.000000 0.000000
vn 1.000000 0.000000 0.000000
vn 1.000000 0.000000 0.000000
vn 0.000000 0.000000 -1.000000
vn 0.000000 0.000000 -1.000000
vn 0.000000 0.000000 -1.000000
vn 0.000000 0.000000 -1.000000
vn -1.000000 0.000000 0.000000
vn -1.000000 0.000000 0.000000
vn -1.000000 0.000000 0.000000
vn -1.000000 0.000000 0.000000
s off
f 9/26/1 10/113/2 4/22/3 3/17/4
f 3/3/5 4/15/6 6/6/7 5/18/8
f 5/5/9 6/16/10 11/120/11 12/117/12
f 7/7/13 8/19/14 2/10/15 1/9/16
f 10/28/17 11/119/18 6/12/19 4/4/20
f 12/118/21 9/115/22 3/24/23 5/14/24
f 13/34/25 14/105/26 10/27/27 9/116/28
f 14/36/29 15/111/30 11/30/31 10/114/32
f 12/32/33 11/29/34 15/112/35 16/109/36
f 16/110/37 13/107/38 9/25/39 12/31/40
f 17/42/41 18/97/42 14/35/43 13/108/44
f 18/44/45 19/103/46 15/38/47 14/106/48
f 16/40/49 15/37/50 19/104/51 20/101/52
f 20/102/53 17/99/54 13/33/55 16/39/56
f 21/50/57 22/89/58 18/43/59 17/100/60
f 22/52/61 23/95/62 19/46/63 18/98/64
f 20/48/65 19/45/66 23/96/67 24/93/68
f 24/94/69 21/91/70 17/41/71 20/47/72
f 25/58/73 26/81/74 22/51/75 21/92/76
f 26/60/77 27/87/78 23/54/79 22/90/80
f 24/56/81 23/53/82 27/88/83 28/85/84
f 28/86/85 25/83/86 21/49/87 24/55/88
f 29/66/89 30/79/90 26/59/91 25/84/92
f 30/80/93 31/77/94 27/62/95 26/82/96
f 28/64/97 27/61/98 31/78/99 32/73/100
f 32/74/101 29/65/102 25/57/103 28/63/104
f 1/23/105 2/2/106 30/67/107 29/75/108
f 2/21/109 8/11/110 31/70/111 30/68/112
f 32/72/113 31/69/114 8/8/115 7/20/116
f 7/13/117 1/1/118 29/76/119 32/71/120
