# This file uses centimeters as units for non-parametric coordinates.

v -0.203476 0.030168 0.199325
v -0.141249 0.014754 0.199325
v -0.194786 0.065251 0.199325
v -0.132559 0.049837 0.199325
v -0.194786 0.065251 -0.199325
v -0.132559 0.049837 -0.199325
v -0.203476 0.030168 -0.199325
v -0.141249 0.014754 -0.199325
v -0.079212 0.007180 0.199325
v -0.015104 0.007180 0.199325
v -0.079212 0.043323 0.199325
v -0.015104 0.043323 0.199325
v -0.079212 0.043323 -0.199325
v -0.015104 0.043323 -0.199325
v -0.079212 0.007180 -0.199325
v -0.015104 0.007180 -0.199325
v 0.032881 0.007180 0.199325
v 0.096989 0.007180 0.199325
v 0.032881 0.043323 0.199325
v 0.096989 0.043323 0.199325
v 0.032881 0.043323 -0.199325
v 0.096989 0.043323 -0.199325
v 0.032881 0.007180 -0.199325
v 0.096989 0.007180 -0.199325
v 0.153723 0.016364 0.199325
v 0.215206 0.034514 0.199325
v 0.143490 0.051027 0.199325
v 0.204973 0.069178 0.199325
v 0.143490 0.051027 -0.199325
v 0.204973 0.069178 -0.199325
v 0.153723 0.016364 -0.199325
v 0.215206 0.034514 -0.199325
v -0.242638 0.044615 0.148428
v 0.242638 0.047414 0.148428
v -0.235174 0.074751 0.148428
v 0.233847 0.077191 0.148428
v -0.235174 0.074751 -0.148428
v 0.233847 0.077191 -0.148428
v -0.242638 0.044615 -0.148428
v 0.242638 0.047414 -0.148428
v 0.209787 0.082378 -0.167569
v 0.209787 0.082378 0.167569
v 0.225252 0.029992 0.167569
v 0.225252 0.029992 -0.167569
v 0.138470 0.061325 -0.167569
v 0.138470 0.061325 0.167569
v 0.153933 0.008939 0.167569
v 0.153933 0.008939 -0.167569
v 0.099728 0.054621 -0.167569
v 0.099728 0.054621 0.167569
v 0.099728 0.000000 0.167569
v 0.099728 0.000000 -0.167569
v 0.032015 0.054621 -0.167569
v 0.032015 0.054621 0.167569
v 0.032015 0.000000 0.167569
v 0.032015 0.000000 -0.167569
v -0.012579 0.054621 -0.167569
v -0.012579 0.054621 0.167569
v -0.012579 0.000000 0.167569
v -0.012579 0.000000 -0.167569
v -0.082911 0.054621 -0.167569
v -0.082911 0.054621 0.167569
v -0.082911 0.000000 0.167569
v -0.082911 0.000000 -0.167569
v -0.123409 0.059209 -0.167569
v -0.123409 0.059209 0.167569
v -0.136543 0.006191 0.167569
v -0.136543 0.006191 -0.167569
v -0.201735 0.078611 -0.167569
v -0.201735 0.078611 0.167569
v -0.214869 0.025593 0.167569
v -0.214869 0.025593 -0.167569
v -0.114031 0.012062 0.154357
v -0.106241 0.043509 0.154357
v -0.106241 0.043509 -0.154357
v -0.114031 0.012062 -0.154357
v 0.009684 0.011112 0.154357
v 0.009684 0.043509 0.154357
v 0.009684 0.043509 -0.154357
v 0.009684 0.011112 -0.154357
v 0.126535 0.012437 0.154357
v 0.117365 0.043509 0.154357
v 0.117365 0.043509 -0.154357
v 0.126535 0.012437 -0.154357
vt 0.180323 0.443668
vt 0.205050 0.443668
vt 0.240374 0.443668
vt 0.180323 0.443668
vt 0.205050 0.443668
vt 0.240374 0.443668
vt 0.146177 0.443668
vt 0.205050 0.443668
vt 0.146177 0.443668
vt 0.146177 0.443668
vt 0.180323 0.443668
vt 0.180323 0.443668
vt 0.180323 0.443668
vt 0.180323 0.443668
vt 0.240374 0.443668
vt 0.205050 0.443668
vt 0.205050 0.443668
vt 0.240374 0.443668
vt 0.146177 0.443668
vt 0.205050 0.443668
vt 0.180323 0.443668
vt 0.205050 0.443668
vt 0.205050 0.443668
vt 0.180323 0.443668
vt 0.205050 0.443668
vt 0.205050 0.443668
vt 0.205050 0.443668
vt 0.205050 0.443668
vt 0.240374 0.443668
vt 0.240374 0.443668
vt 0.240374 0.443668
vt 0.240374 0.443668
vt 0.205050 0.443668
vt 0.205050 0.443668
vt 0.205050 0.443668
vt 0.205050 0.443668
vt 0.146177 0.443668
vt 0.146177 0.443668
vt 0.146177 0.443668
vt 0.146177 0.443668
vt 0.180323 0.443668
vt 0.180323 0.443668
vt 0.180323 0.443668
vt 0.180323 0.443668
vt 0.180323 0.443668
vt 0.180323 0.443668
vt 0.180323 0.443668
vt 0.180323 0.443668
vt 0.205050 0.443668
vt 0.205050 0.443668
vt 0.205050 0.443668
vt 0.205050 0.443668
vt 0.240374 0.443668
vt 0.240374 0.443668
vt 0.240374 0.443668
vt 0.240374 0.443668
vt 0.205050 0.443668
vt 0.205050 0.443668
vt 0.205050 0.443668
vt 0.205050 0.443668
vt 0.146177 0.443668
vt 0.146177 0.443668
vt 0.146177 0.443668
vt 0.146177 0.443668
vt 0.180323 0.443668
vt 0.180323 0.443668
vt 0.180323 0.443668
vt 0.180323 0.443668
vt 0.180323 0.443668
vt 0.180323 0.443668
vt 0.180323 0.443668
vt 0.180323 0.443668
vt 0.205050 0.443668
vt 0.205050 0.443668
vt 0.205050 0.443668
vt 0.205050 0.443668
vt 0.240374 0.443668
vt 0.240374 0.443668
vt 0.240374 0.443668
vt 0.240374 0.443668
vt 0.205050 0.443668
vt 0.205050 0.443668
vt 0.205050 0.443668
vt 0.205050 0.443668
vt 0.146177 0.443668
vt 0.146177 0.443668
vt 0.146177 0.443668
vt 0.146177 0.443668
vt 0.180323 0.443668
vt 0.180323 0.443668
vt 0.180323 0.443668
vt 0.180323 0.443668
vt 0.180323 0.443668
vt 0.180323 0.443668
vt 0.180323 0.443668
vt 0.180323 0.443668
vt 0.256885 0.024378
vt 0.256885 0.024378
vt 0.256885 0.024378
vt 0.256885 0.024378
vt 0.292209 0.024378
vt 0.292209 0.024378
vt 0.292209 0.024378
vt 0.292209 0.024378
vt 0.256885 0.024378
vt 0.256885 0.024378
vt 0.256885 0.024378
vt 0.256885 0.024378
vt 0.198012 0.024378
vt 0.198012 0.024378
vt 0.198012 0.024378
vt 0.198012 0.024378
vt 0.235614 0.024378
vt 0.235614 0.024378
vt 0.235614 0.024378
vt 0.235614 0.024378
vt 0.235614 0.024378
vt 0.235614 0.024378
vt 0.235614 0.024378
vt 0.235614 0.024378
vt 0.332526 0.024378
vt 0.332526 0.024378
vt 0.332526 0.024378
vt 0.332526 0.024378
vt 0.297202 0.024378
vt 0.297202 0.024378
vt 0.297202 0.024378
vt 0.297202 0.024378
vt 0.238328 0.024378
vt 0.238328 0.024378
vt 0.238328 0.024378
vt 0.238328 0.024378
vt 0.297202 0.024378
vt 0.297202 0.024378
vt 0.297202 0.024378
vt 0.297202 0.024378
vt 0.259956 0.024378
vt 0.259956 0.024378
vt 0.259956 0.024378
vt 0.259956 0.024378
vt 0.224632 0.024378
vt 0.224632 0.024378
vt 0.224632 0.024378
vt 0.224632 0.024378
vt 0.165759 0.024378
vt 0.165759 0.024378
vt 0.165759 0.024378
vt 0.165759 0.024378
vt 0.224632 0.024378
vt 0.224632 0.024378
vt 0.224632 0.024378
vt 0.224632 0.024378
vt 0.332526 0.024378
vt 0.332526 0.024378
vt 0.332526 0.024378
vt 0.332526 0.024378
vt 0.297202 0.024378
vt 0.297202 0.024378
vt 0.297202 0.024378
vt 0.297202 0.024378
vt 0.238328 0.024378
vt 0.238328 0.024378
vt 0.238328 0.024378
vt 0.238328 0.024378
vt 0.297202 0.024378
vt 0.297202 0.024378
vt 0.297202 0.024378
vt 0.297202 0.024378
vt 0.259956 0.024378
vt 0.259956 0.024378
vt 0.259956 0.024378
vt 0.259956 0.024378
vt 0.224632 0.024378
vt 0.224632 0.024378
vt 0.224632 0.024378
vt 0.224632 0.024378
vt 0.165759 0.024378
vt 0.165759 0.024378
vt 0.165759 0.024378
vt 0.165759 0.024378
vt 0.224632 0.024378
vt 0.224632 0.024378
vt 0.224632 0.024378
vt 0.224632 0.024378
vt 0.332526 0.024378
vt 0.332526 0.024378
vt 0.332526 0.024378
vt 0.332526 0.024378
vt 0.297202 0.024378
vt 0.297202 0.024378
vt 0.297202 0.024378
vt 0.297202 0.024378
vt 0.238328 0.024378
vt 0.238328 0.024378
vt 0.238328 0.024378
vt 0.238328 0.024378
vt 0.297202 0.024378
vt 0.297202 0.024378
vt 0.297202 0.024378
vt 0.297202 0.024378
vt 0.259956 0.024378
vt 0.259956 0.024378
vt 0.259956 0.024378
vt 0.259956 0.024378
vt 0.224632 0.024378
vt 0.224632 0.024378
vt 0.224632 0.024378
vt 0.224632 0.024378
vt 0.165759 0.024378
vt 0.165759 0.024378
vt 0.165759 0.024378
vt 0.165759 0.024378
vt 0.224632 0.024378
vt 0.224632 0.024378
vt 0.224632 0.024378
vt 0.224632 0.024378
vt 0.332526 0.024378
vt 0.332526 0.024378
vt 0.332526 0.024378
vt 0.332526 0.024378
vt 0.297202 0.024378
vt 0.297202 0.024378
vt 0.297202 0.024378
vt 0.297202 0.024378
vt 0.238328 0.024378
vt 0.238328 0.024378
vt 0.238328 0.024378
vt 0.238328 0.024378
vt 0.297202 0.024378
vt 0.297202 0.024378
vt 0.297202 0.024378
vt 0.297202 0.024378
vt 0.295665 0.024378
vt 0.295665 0.024378
vt 0.295665 0.024378
vt 0.295665 0.024378
vt 0.260341 0.024378
vt 0.260341 0.024378
vt 0.260341 0.024378
vt 0.260341 0.024378
vt 0.201468 0.024378
vt 0.201468 0.024378
vt 0.201468 0.024378
vt 0.201468 0.024378
vt 0.260341 0.024378
vt 0.260341 0.024378
vt 0.260341 0.024378
vt 0.260341 0.024378
vt 0.260341 0.024378
vt 0.260341 0.024378
vt 0.260341 0.024378
vt 0.260341 0.024378
vt 0.295665 0.024378
vt 0.295665 0.024378
vt 0.295665 0.024378
vt 0.295665 0.024378
vt 0.260341 0.024378
vt 0.260341 0.024378
vt 0.260341 0.024378
vt 0.260341 0.024378
vt 0.201468 0.024378
vt 0.201468 0.024378
vt 0.201468 0.024378
vt 0.201468 0.024378
vt 0.260341 0.024378
vt 0.260341 0.024378
vt 0.260341 0.024378
vt 0.260341 0.024378
vt 0.295665 0.024378
vt 0.295665 0.024378
vt 0.295665 0.024378
vt 0.295665 0.024378
vt 0.260341 0.024378
vt 0.260341 0.024378
vt 0.260341 0.024378
vt 0.260341 0.024378
vt 0.201468 0.024378
vt 0.201468 0.024378
vt 0.201468 0.024378
vt 0.201468 0.024378
vt 0.260341 0.024378
vt 0.260341 0.024378
vt 0.260341 0.024378
vt 0.260341 0.024378
vt 0.295665 0.024378
vt 0.295665 0.024378
vt 0.295665 0.024378
vt 0.295665 0.024378
vt 0.260341 0.024378
vt 0.260341 0.024378
vt 0.260341 0.024378
vt 0.260341 0.024378
vt 0.201468 0.024378
vt 0.201468 0.024378
vt 0.201468 0.024378
vt 0.201468 0.024378
vn 0.000000 0.000000 1.000000
vn 0.000000 0.000000 1.000000
vn 0.000000 0.000000 1.000000
vn 0.000000 0.000000 1.000000
vn 0.240442 0.970664 0.000000
vn 0.240442 0.970664 0.000000
vn 0.240442 0.970664 0.000000
vn 0.240442 0.970664 0.000000
vn 0.000000 0.000000 -1.000000
vn 0.000000 0.000000 -1.000000
vn 0.000000 0.000000 -1.000000
vn 0.000000 0.000000 -1.000000
vn -0.240440 -0.970664 0.000000
vn -0.240440 -0.970664 0.000000
vn -0.240440 -0.970664 0.000000
vn -0.240440 -0.970664 0.000000
vn 0.970665 -0.240434 0.000000
vn 0.970665 -0.240434 0.000000
vn 0.970665 -0.240434 0.000000
vn 0.970665 -0.240434 0.000000
vn -0.970666 0.240434 0.000000
vn -0.970666 0.240434 0.000000
vn -0.970666 0.240434 0.000000
vn -0.970666 0.240434 0.000000
vn 0.000000 0.000000 1.000000
vn 0.000000 0.000000 1.000000
vn 0.000000 0.000000 1.000000
vn 0.000000 0.000000 1.000000
vn 0.000000 1.000000 0.000000
vn 0.000000 1.000000 0.000000
vn 0.000000 1.000000 0.000000
vn 0.000000 1.000000 0.000000
vn 0.000000 0.000000 -1.000000
vn 0.000000 0.000000 -1.000000
vn 0.000000 0.000000 -1.000000
vn 0.000000 0.000000 -1.000000
vn 0.000000 -1.000000 0.000000
vn 0.000000 -1.000000 0.000000
vn 0.000000 -1.000000 0.000000
vn 0.000000 -1.000000 0.000000
vn 1.000000 0.000000 0.000000
vn 1.000000 0.000000 0.000000
vn 1.000000 0.000000 0.000000
vn 1.000000 0.000000 0.000000
vn -1.000000 0.000000 0.000000
vn -1.000000 0.000000 0.000000
vn -1.000000 0.000000 0.000000
vn -1.000000 0.000000 0.000000
vn 0.000000 0.000000 1.000000
vn 0.000000 0.000000 1.000000
vn 0.000000 0.000000 1.000000
vn 0.000000 0.000000 1.000000
vn 0.000000 1.000000 0.000000
vn 0.000000 1.000000 0.000000
vn 0.000000 1.000000 0.000000
vn 0.000000 1.000000 0.000000
vn 0.000000 0.000000 -1.000000
vn 0.000000 0.000000 -1.000000
vn 0.000000 0.000000 -1.000000
vn 0.000000 0.000000 -1.000000
vn 0.000000 -1.000000 0.000000
vn 0.000000 -1.000000 0.000000
vn 0.000000 -1.000000 0.000000
vn 0.000000 -1.000000 0.000000
vn 1.000000 0.000000 0.000000
vn 1.000000 0.000000 0.000000
vn 1.000000 0.000000 0.000000
vn 1.000000 0.000000 0.000000
vn -1.000000 0.000000 0.000000
vn -1.000000 0.000000 0.000000
vn -1.000000 0.000000 0.000000
vn -1.000000 0.000000 0.000000
vn 0.000000 0.000000 1.000000
vn 0.000000 0.000000 1.000000
vn 0.000000 0.000000 1.000000
vn 0.000000 0.000000 1.000000
vn -0.283126 0.959083 0.000000
vn -0.283126 0.959083 0.000000
vn -0.283126 0.959083 0.000000
vn -0.283126 0.959083 0.000000
vn 0.000000 0.000000 -1.000000
vn 0.000000 0.000000 -1.000000
vn 0.000000 0.000000 -1.000000
vn 0.000000 0.000000 -1.000000
vn 0.283128 -0.959082 0.000000
vn 0.283128 -0.959082 0.000000
vn 0.283128 -0.959082 0.000000
vn 0.283128 -0.959082 0.000000
vn 0.959083 0.283126 0.000000
vn 0.959083 0.283126 0.000000
vn 0.959083 0.283126 0.000000
vn 0.959083 0.283126 0.000000
vn -0.959083 -0.283125 0.000000
vn -0.959083 -0.283125 0.000000
vn -0.959083 -0.283125 0.000000
vn -0.959083 -0.283125 0.000000
vn 0.123425 0.036437 0.991685
vn 0.123427 0.036438 0.991685
vn 0.635978 0.187752 0.748519
vn 0.635978 0.187752 0.748519
vn -0.210885 0.977511 0.000000
vn -0.210885 0.977511 0.000000
vn 0.210756 0.977539 0.000000
vn 0.210756 0.977539 0.000000
vn 0.123427 0.036438 -0.991685
vn 0.123425 0.036437 -0.991685
vn 0.635978 0.187752 -0.748519
vn 0.635978 0.187752 -0.748519
vn 0.353783 -0.935328 0.000000
vn 0.353783 -0.935328 0.000000
vn 0.707852 -0.706361 0.000000
vn 0.707852 -0.706361 0.000000
vn 0.959075 0.283151 0.000000
vn 0.959075 0.283151 0.000000
vn 0.959075 0.283151 0.000000
vn 0.959075 0.283151 0.000000
vn -0.970675 0.240397 0.000000
vn -0.970675 0.240397 0.000000
vn -0.970675 0.240397 0.000000
vn -0.970675 0.240397 0.000000
vn -0.361753 0.932274 0.000000
vn -0.361753 0.932274 0.000000
vn -0.210885 0.977511 0.000000
vn -0.210885 0.977511 0.000000
vn -0.085535 -0.025247 0.996015
vn -0.085540 -0.025248 0.996015
vn 0.123427 0.036438 0.991685
vn 0.123425 0.036437 0.991685
vn 0.202536 -0.979275 0.000000
vn 0.202536 -0.979275 0.000000
vn 0.353783 -0.935328 0.000000
vn 0.353783 -0.935328 0.000000
vn -0.085540 -0.025248 -0.996015
vn -0.085535 -0.025247 -0.996015
vn 0.123425 0.036437 -0.991685
vn 0.123427 0.036438 -0.991685
vn 0.086675 0.996237 0.000000
vn 0.086675 0.996237 0.000000
vn -0.150362 0.988631 0.000000
vn -0.150362 0.988631 0.000000
vn 0.090650 0.009701 0.995836
vn 0.095606 0.010231 0.995367
vn -0.027939 -0.056383 0.998018
vn 0.048168 -0.041676 0.997969
vn 0.100553 -0.994932 0.000000
vn 0.100553 -0.994932 0.000000
vn 0.160891 -0.986972 0.000000
vn 0.160891 -0.986972 0.000000
vn 0.095606 0.010231 -0.995367
vn 0.090650 0.009701 -0.995836
vn 0.048168 -0.041676 -0.997969
vn -0.027939 -0.056383 -0.998018
vn -0.088891 0.996041 0.000000
vn -0.088891 0.996041 0.000000
vn 0.086675 0.996237 0.000000
vn 0.086675 0.996237 0.000000
vn -0.096108 0.000000 0.995371
vn -0.096108 0.000000 0.995371
vn 0.095606 0.010231 0.995367
vn 0.090650 0.009701 0.995836
vn -0.088891 -0.996041 0.000000
vn -0.088891 -0.996041 0.000000
vn 0.100553 -0.994932 0.000000
vn 0.100553 -0.994932 0.000000
vn -0.096108 0.000000 -0.995371
vn -0.096108 0.000000 -0.995371
vn 0.090650 0.009701 -0.995836
vn 0.095606 0.010231 -0.995367
vn 0.086156 0.996282 0.000000
vn 0.086156 0.996282 0.000000
vn 0.000124 1.000000 0.000000
vn 0.000124 1.000000 0.000000
vn 0.093112 0.000000 0.995656
vn 0.093112 0.000000 0.995656
vn 0.000124 0.000000 1.000000
vn 0.000124 0.000000 1.000000
vn 0.086156 -0.996282 0.000000
vn 0.086156 -0.996282 0.000000
vn 0.000124 -1.000000 0.000000
vn 0.000124 -1.000000 0.000000
vn 0.093112 0.000000 -0.995656
vn 0.093112 0.000000 -0.995656
vn 0.000124 0.000000 -1.000000
vn 0.000124 0.000000 -1.000000
vn -0.086445 0.996257 0.000000
vn -0.086445 0.996257 0.000000
vn 0.086156 0.996282 0.000000
vn 0.086156 0.996282 0.000000
vn -0.089930 0.008139 0.995915
vn -0.092996 0.008417 0.995631
vn 0.093112 0.000000 0.995656
vn 0.093112 0.000000 0.995656
vn -0.094217 -0.995552 0.000000
vn -0.094217 -0.995552 0.000000
vn 0.086156 -0.996282 0.000000
vn 0.086156 -0.996282 0.000000
vn -0.092996 0.008417 -0.995631
vn -0.089930 0.008139 -0.995915
vn 0.093112 0.000000 -0.995656
vn 0.093112 0.000000 -0.995656
vn 0.313612 0.949551 0.000000
vn 0.313612 0.949551 0.000000
vn 0.119656 0.992815 0.000000
vn 0.119656 0.992815 0.000000
vn 0.080022 -0.019823 0.996596
vn 0.080019 -0.019822 0.996596
vn 0.041210 -0.050275 0.997885
vn -0.027472 -0.038009 0.998900
vn -0.165880 -0.986146 0.000000
vn -0.165880 -0.986146 0.000000
vn -0.103880 -0.994590 0.000000
vn -0.103880 -0.994590 0.000000
vn 0.080019 -0.019822 -0.996596
vn 0.080022 -0.019823 -0.996596
vn -0.027473 -0.038009 -0.998900
vn 0.041210 -0.050275 -0.997885
vn 0.168073 0.985775 0.000000
vn 0.168073 0.985775 0.000000
vn 0.313612 0.949551 0.000000
vn 0.313612 0.949551 0.000000
vn -0.115544 0.028620 0.992890
vn -0.115546 0.028621 0.992890
vn 0.080019 -0.019822 0.996596
vn 0.080022 -0.019823 0.996596
vn -0.311503 -0.950245 0.000000
vn -0.311503 -0.950245 0.000000
vn -0.165880 -0.986146 0.000000
vn -0.165880 -0.986146 0.000000
vn -0.115546 0.028621 -0.992890
vn -0.115544 0.028620 -0.992890
vn 0.080022 -0.019823 -0.996596
vn 0.080019 -0.019822 -0.996596
vn -0.114670 0.993404 0.000000
vn 0.168073 0.985775 0.000000
vn 0.168073 0.985775 0.000000
vn -0.114670 0.993404 0.000000
vn -0.503723 0.124773 0.854807
vn -0.115546 0.028621 0.992890
vn -0.115544 0.028620 0.992890
vn -0.503723 0.124773 0.854807
vn -0.565133 -0.825000 0.000000
vn -0.311503 -0.950245 0.000000
vn -0.311503 -0.950245 0.000000
vn -0.565133 -0.825000 0.000000
vn -0.503723 0.124773 -0.854807
vn -0.115544 0.028620 -0.992890
vn -0.115546 0.028621 -0.992890
vn -0.503723 0.124773 -0.854807
vn -0.027472 -0.038009 0.998900
vn 0.041210 -0.050275 0.997885
vn -0.092996 0.008417 0.995631
vn -0.089930 0.008139 0.995915
vn 0.119656 0.992815 0.000000
vn 0.119656 0.992815 0.000000
vn -0.086445 0.996257 0.000000
vn -0.086445 0.996257 0.000000
vn 0.041210 -0.050275 -0.997885
vn -0.027473 -0.038009 -0.998900
vn -0.089930 0.008139 -0.995915
vn -0.092996 0.008417 -0.995631
vn -0.103880 -0.994590 0.000000
vn -0.103880 -0.994590 0.000000
vn -0.094217 -0.995552 0.000000
vn -0.094217 -0.995552 0.000000
vn 0.000124 0.000000 1.000000
vn 0.000124 0.000000 1.000000
vn -0.096108 0.000000 0.995371
vn -0.096108 0.000000 0.995371
vn 0.000124 1.000000 0.000000
vn 0.000124 1.000000 0.000000
vn -0.088891 0.996041 0.000000
vn -0.088891 0.996041 0.000000
vn 0.000124 0.000000 -1.000000
vn 0.000124 0.000000 -1.000000
vn -0.096108 0.000000 -0.995371
vn -0.096108 0.000000 -0.995371
vn 0.000124 -1.000000 0.000000
vn 0.000124 -1.000000 0.000000
vn -0.088891 -0.996041 0.000000
vn -0.088891 -0.996041 0.000000
vn 0.048168 -0.041676 0.997969
vn -0.027939 -0.056383 0.998018
vn -0.085540 -0.025248 0.996015
vn -0.085535 -0.025247 0.996015
vn -0.150362 0.988631 0.000000
vn -0.150362 0.988631 0.000000
vn -0.361753 0.932274 0.000000
vn -0.361753 0.932274 0.000000
vn -0.027939 -0.056383 -0.998018
vn 0.048168 -0.041676 -0.997969
vn -0.085535 -0.025247 -0.996015
vn -0.085540 -0.025248 -0.996015
vn 0.160891 -0.986972 0.000000
vn 0.160891 -0.986972 0.000000
vn 0.202536 -0.979275 0.000000
vn 0.202536 -0.979275 0.000000
s off
f 1/23/1 2/2/2 4/22/3 3/17/4
f 3/3/5 4/15/6 6/6/7 5/18/8
f 5/5/9 6/16/10 8/8/11 7/20/12
f 7/7/13 8/19/14 2/10/15 1/9/16
f 2/21/17 8/11/18 6/12/19 4/4/20
f 7/13/21 1/1/22 3/24/23 5/14/24
f 9/25/25 10/26/26 12/27/27 11/28/28
f 11/29/29 12/30/30 14/31/31 13/32/32
f 13/33/33 14/34/34 16/35/35 15/36/36
f 15/37/37 16/38/38 10/39/39 9/40/40
f 10/41/41 16/42/42 14/43/43 12/44/44
f 15/45/45 9/46/46 11/47/47 13/48/48
f 17/49/49 18/50/50 20/51/51 19/52/52
f 19/53/53 20/54/54 22/55/55 21/56/56
f 21/57/57 22/58/58 24/59/59 23/60/60
f 23/61/61 24/62/62 18/63/63 17/64/64
f 18/65/65 24/66/66 22/67/67 20/68/68
f 23/69/69 17/70/70 19/71/71 21/72/72
f 25/73/73 26/74/74 28/75/75 27/76/76
f 27/77/77 28/78/78 30/79/79 29/80/80
f 29/81/81 30/82/82 32/83/83 31/84/84
f 31/85/85 32/86/86 26/87/87 25/88/88
f 26/89/89 32/90/90 30/91/91 28/92/92
f 31/93/93 25/94/94 27/95/95 29/96/96
f 42/97/97 43/98/98 34/99/99 36/100/100
f 41/101/101 42/102/102 36/103/103 38/104/104
f 44/105/105 41/106/106 38/107/107 40/108/108
f 43/109/109 44/110/110 40/111/111 34/112/112
f 34/113/113 40/114/114 38/115/115 36/116/116
f 39/117/117 33/118/118 35/119/119 37/120/120
f 45/121/121 46/122/122 42/123/123 41/124/124
f 46/125/125 47/126/126 43/127/127 42/128/128
f 47/129/129 48/130/130 44/131/131 43/132/132
f 48/133/133 45/134/134 41/135/135 44/136/136
f 49/137/137 50/138/138 82/139/139 83/140/140
f 50/141/141 51/142/142 81/143/143 82/144/144
f 51/145/145 52/146/146 84/147/147 81/148/148
f 52/149/149 49/150/150 83/151/151 84/152/152
f 53/153/153 54/154/154 50/155/155 49/156/156
f 54/157/157 55/158/158 51/159/159 50/160/160
f 55/161/161 56/162/162 52/163/163 51/164/164
f 56/165/165 53/166/166 49/167/167 52/168/168
f 57/169/169 58/170/170 78/171/171 79/172/172
f 58/173/173 59/174/174 77/175/175 78/176/176
f 59/177/177 60/178/178 80/179/179 77/180/180
f 60/181/181 57/182/182 79/183/183 80/184/184
f 61/185/185 62/186/186 58/187/187 57/188/188
f 62/189/189 63/190/190 59/191/191 58/192/192
f 63/193/193 64/194/194 60/195/195 59/196/196
f 64/197/197 61/198/198 57/199/199 60/200/200
f 65/201/201 66/202/202 74/203/203 75/204/204
f 66/205/205 67/206/206 73/207/207 74/208/208
f 67/209/209 68/210/210 76/211/211 73/212/212
f 68/213/213 65/214/214 75/215/215 76/216/216
f 69/217/217 70/218/218 66/219/219 65/220/220
f 70/221/221 71/222/222 67/223/223 66/224/224
f 71/225/225 72/226/226 68/227/227 67/228/228
f 72/229/229 69/230/230 65/231/231 68/232/232
f 35/233/233 70/234/234 69/235/235 37/236/236
f 33/237/237 71/238/238 70/239/239 35/240/240
f 39/241/241 72/242/242 71/243/243 33/244/244
f 37/245/245 69/246/246 72/247/247 39/248/248
f 74/249/249 73/250/250 63/251/251 62/252/252
f 75/253/253 74/254/254 62/255/255 61/256/256
f 76/257/257 75/258/258 61/259/259 64/260/260
f 73/261/261 76/262/262 64/263/263 63/264/264
f 78/265/265 77/266/266 55/267/267 54/268/268
f 79/269/269 78/270/270 54/271/271 53/272/272
f 80/273/273 79/274/274 53/275/275 56/276/276
f 77/277/277 80/278/278 56/279/279 55/280/280
f 82/281/281 81/282/282 47/283/283 46/284/284
f 83/285/285 82/286/286 46/287/287 45/288/288
f 84/289/289 83/290/290 45/291/291 48/292/292
f 81/293/293 84/294/294 48/295/295 47/296/296
