# This file uses centimeters as units for non-parametric coordinates.

v -0.120510 -0.000000 0.120510
v 0.120510 -0.000000 0.120510
v -0.120510 0.063639 0.120510
v 0.120510 0.063639 0.120510
v -0.120510 0.063639 -0.120510
v 0.120510 0.063639 -0.120510
v -0.120510 -0.000000 -0.120510
v 0.120510 -0.000000 -0.120510
v -0.120510 0.063639 -0.038653
v 0.120510 0.063639 -0.038653
v 0.120510 0.063639 -0.038653
v -0.120510 0.063639 0.048254
v -0.120510 0.063639 0.093267
v 0.120510 0.063639 0.120510
v 0.120510 0.063639 -0.092246
v -0.120510 0.063639 -0.092246
v -0.062109 0.063639 -0.120510
v -0.062109 0.063639 -0.092246
v -0.062109 0.063639 -0.038653
v -0.062109 0.063639 0.012305
v -0.062109 0.063639 0.048254
v -0.062109 0.063639 0.093267
v -0.014807 0.063639 0.093267
v -0.014807 0.063639 0.048254
v -0.014807 0.063639 0.012305
v -0.014807 0.063639 -0.038653
v -0.014807 0.063639 -0.092246
v -0.014807 0.063639 -0.120510
v 0.047696 0.063639 0.120510
v 0.047696 0.063639 0.093267
v 0.047696 0.063639 0.048254
v 0.047696 0.063639 0.012305
v 0.096592 0.063639 0.120510
v 0.096592 0.063639 0.093267
v 0.096592 0.063639 0.048254
v 0.096592 0.063639 0.012305
v 0.096592 0.063639 -0.038653
v 0.096592 0.063639 -0.092246
v -0.085055 0.063639 -0.092246
v -0.085055 0.063639 -0.038653
v -0.085055 0.063639 0.048254
v -0.085055 0.063639 0.093267
v -0.014807 0.040597 -0.120510
v -0.062109 0.040597 -0.120510
v -0.120508 0.040597 -0.092246
v -0.120510 0.040597 -0.038653
v -0.120510 0.040597 0.048254
v -0.120510 0.040597 0.093267
v 0.047696 0.040597 0.120510
v 0.096592 0.040597 0.120510
v 0.120510 0.040597 -0.038653
v 0.120510 0.040597 -0.092246
vt 0.298630 0.399498
vt 0.323357 0.399498
vt 0.427598 0.399498
vt 0.305838 0.401741
vt 0.323357 0.399498
vt 0.427598 0.399498
vt 0.323357 0.399498
vt 0.305838 0.401741
vt 0.298630 0.399498
vt 0.298630 0.399498
vt 0.424997 0.399498
vt 0.323357 0.399498
vt 0.323357 0.399498
vt 0.427598 0.399498
vt 0.323357 0.399498
vt 0.323357 0.399498
vt 0.323357 0.399498
vt 0.298630 0.399498
vt 0.141290 0.048410
vt 0.201341 0.048410
vt 0.203941 0.049710
vt 0.143891 0.049710
vt 0.268129 0.400440
vt 0.423697 0.398198
vt 0.268129 0.400440
vt 0.298630 0.399498
vt 0.427598 0.399498
vt 0.141290 0.048410
vt 0.201341 0.048410
vt 0.427598 0.399498
vt 0.305838 0.401741
vt 0.203941 0.049710
vt 0.143891 0.049710
vt 0.141290 0.048410
vt 0.201341 0.048410
vt 0.166017 0.048410
vt 0.201341 0.048410
vt 0.427598 0.399498
vt 0.427598 0.399498
vt 0.427598 0.399498
vt 0.427598 0.399498
vt 0.427598 0.399498
vt 0.427598 0.399498
vt 0.427598 0.399498
vt 0.427598 0.399498
vt 0.427598 0.399498
vt 0.427598 0.399498
vt 0.323357 0.399498
vt 0.427598 0.399498
vt 0.268129 0.400440
vt 0.427598 0.399498
vt 0.323357 0.399498
vt 0.427598 0.399498
vt 0.201341 0.048410
vt 0.427598 0.399498
vt 0.201341 0.048410
vt 0.166017 0.048410
vt 0.427598 0.399498
vt 0.427598 0.399498
vt 0.423697 0.398198
vt 0.203941 0.049710
vt 0.427598 0.399498
vt 0.201341 0.048410
vt 0.427598 0.399498
vt 0.201341 0.048410
vt 0.427598 0.399498
vt 0.268129 0.400440
vt 0.323357 0.399498
vt 0.323357 0.399498
vt 0.298630 0.399498
vt 0.298630 0.399498
vt 0.298630 0.399498
vt 0.298630 0.399498
vt 0.323357 0.399498
vt 0.323357 0.399498
vt 0.305838 0.401741
vt 0.305838 0.401741
vt 0.305838 0.401741
vt 0.305838 0.401741
vt 0.166017 0.048410
vt 0.166017 0.048410
vt 0.141290 0.048410
vt 0.141290 0.048410
vt 0.141290 0.048410
vt 0.141290 0.048410
vt 0.166017 0.048410
vt 0.166017 0.048410
vt 0.424997 0.399498
vt 0.323357 0.399498
vt 0.201341 0.048410
vt 0.166017 0.048410
vt 0.427598 0.399498
vt 0.298630 0.399498
vt 0.201341 0.048410
vt 0.141290 0.048410
vt 0.427598 0.399498
vt 0.298630 0.399498
vt 0.427598 0.399498
vt 0.323357 0.399498
vt 0.427598 0.399498
vt 0.201341 0.048410
vt 0.427598 0.399498
vt 0.201341 0.048410
vt 0.298630 0.399498
vt 0.427598 0.399498
vt 0.427598 0.399498
vt 0.201341 0.048410
vt 0.201341 0.048410
vt 0.201341 0.048410
vt 0.305838 0.401741
vt 0.423697 0.398198
vt 0.427598 0.399498
vt 0.427598 0.399498
vt 0.201341 0.048410
vt 0.201341 0.048410
vt 0.201341 0.048410
vt 0.166017 0.048410
vt 0.201341 0.048410
vt 0.201341 0.048410
vt 0.201341 0.048410
vt 0.201341 0.048410
vt 0.201341 0.048410
vt 0.201341 0.048410
vt 0.201341 0.048410
vt 0.201341 0.048410
vt 0.201341 0.048410
vt 0.201341 0.048410
vt 0.422868 0.396539
vt 0.143891 0.049710
vt 0.143891 0.049710
vt 0.427598 0.399498
vt 0.305838 0.401741
vt 0.203941 0.049710
vt 0.305838 0.401741
vt 0.427598 0.399498
vt 0.427598 0.399498
vt 0.427598 0.399498
vt 0.427598 0.399498
vt 0.427598 0.399498
vt 0.427598 0.399498
vt 0.427598 0.399498
vt 0.424997 0.399498
vt 0.424997 0.399498
vt 0.427598 0.399498
vt 0.427598 0.399498
vt 0.427598 0.399498
vt 0.427598 0.399498
vt 0.427598 0.399498
vn 0.000000 1.000000 0.000000
vn 0.000000 1.000000 0.000000
vn 0.000000 1.000000 0.000000
vn 0.000000 1.000000 0.000000
vn 0.000000 1.000000 0.000000
vn 0.000000 1.000000 0.000000
vn 0.000000 0.000000 -1.000000
vn 0.000000 0.000000 -1.000000
vn 0.000000 0.000000 -1.000000
vn 0.000000 0.000000 -1.000000
vn 1.000000 0.000000 0.000000
vn 1.000000 0.000000 0.000000
vn 1.000000 0.000000 0.000000
vn 1.000000 0.000000 0.000000
vn -1.000000 -0.000041 -0.000018
vn -1.000000 -0.000041 -0.000018
vn -1.000000 -0.000041 -0.000018
vn -1.000000 -0.000041 -0.000018
vn 0.000000 1.000000 0.000000
vn 0.000000 1.000000 0.000000
vn 0.000000 1.000000 0.000000
vn 0.000000 1.000000 0.000000
vn -1.000000 0.000000 0.000000
vn -1.000000 0.000000 0.000000
vn -1.000000 0.000000 0.000000
vn -1.000000 0.000000 0.000000
vn 0.000000 1.000000 0.000000
vn 0.000000 1.000000 0.000000
vn 0.000000 1.000000 0.000000
vn 0.000000 1.000000 0.000000
vn -1.000000 0.000004 0.000002
vn -1.000000 0.000004 0.000002
vn -1.000000 0.000004 0.000002
vn -1.000000 0.000004 0.000002
vn -1.000000 0.000004 0.000002
vn -1.000000 0.000004 0.000002
vn -1.000000 0.000004 0.000002
vn -1.000000 0.000004 0.000002
vn -1.000000 0.000004 0.000002
vn -1.000000 0.000004 0.000002
vn -1.000000 0.000004 0.000002
vn -1.000000 0.000004 0.000002
vn 1.000000 0.000000 0.000000
vn 1.000000 0.000000 0.000000
vn 1.000000 0.000000 0.000000
vn 1.000000 0.000000 0.000000
vn 1.000000 0.000000 0.000000
vn 1.000000 0.000000 0.000000
vn 0.000000 0.000000 0.000000
vn 0.000000 0.000000 0.000000
vn 0.000000 0.000000 0.000000
vn 0.000000 0.000000 0.000000
vn 0.000000 1.000000 0.000000
vn 0.000000 1.000000 0.000000
vn 0.000000 1.000000 0.000000
vn 0.000000 1.000000 0.000000
vn 0.000000 0.000000 -1.000000
vn 0.000000 0.000000 -1.000000
vn 0.000000 0.000000 -1.000000
vn 0.000000 0.000000 -1.000000
vn 0.000000 0.000000 -1.000000
vn 0.000000 0.000000 -1.000000
vn 0.000000 0.000000 -1.000000
vn 0.000000 0.000000 -1.000000
vn 0.000000 1.000000 0.000000
vn 0.000000 1.000000 0.000000
vn 0.000000 1.000000 0.000000
vn 0.000000 1.000000 0.000000
vn 0.000000 1.000000 0.000000
vn 0.000000 1.000000 0.000000
vn 0.000000 1.000000 0.000000
vn 0.000000 1.000000 0.000000
vn 0.000000 1.000000 0.000000
vn 0.000000 1.000000 0.000000
vn 0.000000 1.000000 0.000000
vn 0.000000 1.000000 0.000000
vn 0.000000 1.000000 0.000000
vn 0.000000 1.000000 0.000000
vn 0.000000 1.000000 0.000000
vn 0.000000 1.000000 0.000000
vn 0.000000 1.000000 0.000000
vn 0.000000 1.000000 0.000000
vn 0.000000 1.000000 0.000000
vn 0.000000 1.000000 0.000000
vn 0.000000 1.000000 0.000000
vn 0.000000 1.000000 0.000000
vn 0.000000 1.000000 0.000000
vn 0.000000 1.000000 0.000000
vn 0.000000 1.000000 0.000000
vn 0.000000 1.000000 0.000000
vn 0.000000 1.000000 0.000000
vn 0.000000 1.000000 0.000000
vn 0.000000 1.000000 0.000000
vn 0.000000 1.000000 0.000000
vn 0.000000 0.000000 0.000000
vn 0.000000 0.000000 0.000000
vn 0.000000 1.000000 0.000000
vn 0.000000 1.000000 0.000000
vn 0.000000 1.000000 0.000000
vn 0.000000 1.000000 0.000000
vn 0.000000 1.000000 0.000000
vn 0.000000 0.000000 1.000000
vn 0.000000 0.000000 1.000000
vn 0.000000 0.000000 1.000000
vn 0.000000 0.000000 1.000000
vn 0.000000 1.000000 0.000000
vn 0.000000 1.000000 0.000000
vn 0.000000 1.000000 0.000000
vn 0.000000 1.000000 0.000000
vn 0.000000 1.000000 0.000000
vn 0.000000 1.000000 0.000000
vn 0.000000 1.000000 0.000000
vn 0.000000 1.000000 0.000000
vn 0.000000 0.000000 1.000000
vn 0.000000 0.000000 1.000000
vn 0.000000 0.000000 1.000000
vn 0.000000 0.000000 1.000000
vn 0.000000 0.000000 1.000000
vn 0.000000 0.000000 1.000000
vn 0.000000 0.000000 1.000000
vn 0.000000 0.000000 1.000000
vn 0.000000 1.000000 0.000000
vn 0.000000 1.000000 0.000000
vn 0.000000 0.000000 0.000000
vn 0.000000 1.000000 0.000000
vn 0.000000 1.000000 0.000000
vn 0.000000 1.000000 0.000000
vn 0.000000 1.000000 0.000000
vn 0.000000 1.000000 0.000000
vn 0.000000 1.000000 0.000000
vn 0.000000 1.000000 0.000000
vn 0.000000 1.000000 0.000000
vn 0.000000 1.000000 0.000000
vn 0.000000 1.000000 0.000000
vn 0.000000 1.000000 0.000000
vn 0.000000 1.000000 0.000000
vn 0.000000 1.000000 0.000000
vn 0.000000 1.000000 0.000000
vn 0.000000 1.000000 0.000000
vn 0.000000 1.000000 0.000000
vn 0.000000 1.000000 0.000000
vn 0.000000 1.000000 0.000000
vn 0.000000 1.000000 0.000000
vn 0.000000 1.000000 0.000000
vn 0.000000 -1.000000 0.000000
vn 0.000000 -1.000000 0.000000
vn 0.000000 -1.000000 0.000000
vn 0.000000 -1.000000 0.000000
s off
f 19/39/1 26/147/2 27/146/3 18/38/4 39/135/5 40/64/6
f 43/86/7 44/87/8 17/36/9 28/117/10
f 10/22/11 51/129/12 52/130/13 15/33/14
f 16/34/15 45/84/16 46/85/17 9/19/18
f 19/126/19 20/127/20 25/119/21 26/120/22
f 12/95/23 47/82/24 48/83/25 13/28/26
f 21/124/27 22/125/28 23/121/29 24/122/30
f 1/1/31 3/18/32 13/93/33 48/73/34 47/72/35 12/26/36 9/97/37 46/71/38 45/70/39 16/104/40 5/10/41 7/9/42
f 2/4/43 8/8/44 6/31/45 15/76/46 52/77/47 51/78/48 10/79/49 11/110/50 14/132/51 4/134/52
f 17/37/53 18/123/54 27/118/55 28/116/56
f 5/5/57 17/99/58 44/69/59 43/68/60 28/48/61 6/12/62 8/7/63 7/15/64
f 39/102/65 18/148/66 17/98/67 5/14/68 16/105/69
f 41/139/70 42/66/71 22/42/72 21/140/73
f 27/47/74 26/46/75 25/45/76 20/40/77 19/141/78 40/136/79 9/96/80 12/27/81 41/100/82 21/41/83 24/44/84 23/43/85 22/138/86 42/137/87 13/92/88 3/3/89 29/51/90 30/145/91 31/144/92 32/55/93 36/60/94 11/24/95 10/111/96 37/128/97 38/62/98 15/131/99 6/6/100 28/49/101
f 29/91/102 49/80/103 50/81/104 33/57/105
f 30/115/106 29/90/107 33/56/108 34/109/109
f 32/114/110 31/54/111 35/108/112 36/107/113
f 2/2/114 4/16/115 33/89/116 50/75/117 49/74/118 29/52/119 3/13/120 1/17/121
f 34/142/122 33/88/123 4/11/124 14/143/125
f 11/112/126 36/106/127 35/59/128 31/113/129 30/53/130 34/58/131 14/30/132
f 38/133/133 37/61/134 10/21/135 15/32/136
f 9/20/137 40/103/138 39/63/139 16/35/140
f 13/29/141 42/101/142 41/65/143 12/94/144
f 7/67/145 8/23/146 2/25/147 1/50/148
