# This file uses centimeters as units for non-parametric coordinates.

v -0.211098 0.119202 0.211100
v 0.211100 0.119202 0.211100
v -0.211098 0.161873 0.211100
v 0.211100 0.161873 0.211100
v -0.211098 0.161873 -0.211100
v 0.211100 0.161873 -0.211100
v -0.211098 0.119202 -0.211100
v 0.211100 0.119202 -0.211100
v -0.189201 0.161873 0.189203
v 0.189205 0.161873 0.189203
v 0.189205 0.161873 -0.189203
v -0.189201 0.161873 -0.189203
v -0.117744 0.037777 0.117746
v 0.117746 0.037777 0.117746
v 0.117746 0.037777 -0.117746
v -0.117744 0.037777 -0.117746
v -0.128756 0.000000 -0.128756
v 0.128756 0.000000 -0.128756
v 0.128756 0.000000 0.128756
v -0.128756 0.000000 0.128756
v -0.055889 0.031086 0.056311
v 0.139551 0.031086 0.056311
v -0.055889 0.226526 0.056311
v 0.139551 0.226526 0.056311
v -0.055889 0.226526 -0.139130
v 0.139551 0.226526 -0.139130
v -0.055889 0.031086 -0.139130
v 0.139551 0.031086 -0.139130
v -0.136597 0.019068 0.133115
v 0.031132 0.019068 0.133115
v -0.136597 0.186796 0.133115
v 0.031132 0.186796 0.133115
v -0.136597 0.186796 -0.034612
v 0.031132 0.186796 -0.034612
v -0.136597 0.019068 -0.034612
v 0.031132 0.019068 -0.034612
vt 0.331760 0.479233
vt 0.331761 0.479233
vt 0.331761 0.479233
vt 0.331760 0.479233
vt 0.363930 0.479233
vt 0.363930 0.479233
vt 0.363930 0.479233
vt 0.363930 0.479233
vt 0.331760 0.479233
vt 0.331761 0.479233
vt 0.331761 0.479233
vt 0.331760 0.479233
vt 0.266108 0.479233
vt 0.266108 0.479233
vt 0.266108 0.479233
vt 0.266108 0.479233
vt 0.298934 0.479233
vt 0.298934 0.479233
vt 0.298934 0.479233
vt 0.298934 0.479233
vt 0.298934 0.479233
vt 0.298934 0.479233
vt 0.298934 0.479233
vt 0.298934 0.479233
vt 0.363930 0.479233
vt 0.363930 0.479233
vt 0.363930 0.479233
vt 0.363930 0.479233
vt 0.363930 0.479233
vt 0.363930 0.479233
vt 0.363930 0.479233
vt 0.363930 0.479233
vt 0.363930 0.479233
vt 0.363930 0.479233
vt 0.363930 0.479233
vt 0.363930 0.479233
vt 0.363930 0.479233
vt 0.363930 0.479233
vt 0.363930 0.479233
vt 0.363930 0.479233
vt 0.331529 0.479233
vt 0.331530 0.479233
vt 0.331530 0.479233
vt 0.331529 0.479233
vt 0.331530 0.479233
vt 0.331530 0.479233
vt 0.331530 0.479233
vt 0.331530 0.479233
vt 0.331530 0.479233
vt 0.331529 0.479233
vt 0.331529 0.479233
vt 0.331530 0.479233
vt 0.331529 0.479233
vt 0.331529 0.479233
vt 0.331529 0.479233
vt 0.331529 0.479233
vt 0.266108 0.479233
vt 0.266108 0.479233
vt 0.266108 0.479233
vt 0.266108 0.479233
vt 0.411936 0.443660
vt 0.411936 0.443660
vt 0.411936 0.443660
vt 0.411936 0.443660
vt 0.447260 0.443660
vt 0.447260 0.443660
vt 0.447260 0.443660
vt 0.447260 0.443660
vt 0.411936 0.443660
vt 0.411936 0.443660
vt 0.411936 0.443660
vt 0.411936 0.443660
vt 0.353063 0.443660
vt 0.353063 0.443660
vt 0.353063 0.443660
vt 0.353063 0.443660
vt 0.387210 0.443660
vt 0.387210 0.443660
vt 0.387210 0.443660
vt 0.387210 0.443660
vt 0.387210 0.443660
vt 0.387210 0.443660
vt 0.387210 0.443660
vt 0.387210 0.443660
vt 0.411936 0.443660
vt 0.411936 0.443660
vt 0.411936 0.443660
vt 0.411936 0.443660
vt 0.447260 0.443660
vt 0.447260 0.443660
vt 0.447260 0.443660
vt 0.447260 0.443660
vt 0.411936 0.443660
vt 0.411936 0.443660
vt 0.411936 0.443660
vt 0.411936 0.443660
vt 0.353063 0.443660
vt 0.353063 0.443660
vt 0.353063 0.443660
vt 0.353063 0.443660
vt 0.387210 0.443660
vt 0.387210 0.443660
vt 0.387210 0.443660
vt 0.387210 0.443660
vt 0.387210 0.443660
vt 0.387210 0.443660
vt 0.387210 0.443660
vt 0.387210 0.443660
vn 0.000000 0.000000 1.000000
vn 0.000000 0.000000 1.000000
vn 0.000000 0.000000 1.000000
vn 0.000000 0.000000 1.000000
vn 0.000000 1.000000 0.000000
vn 0.000000 1.000000 0.000000
vn 0.000000 1.000000 0.000000
vn 0.000000 1.000000 0.000000
vn 0.000000 0.000000 -1.000000
vn 0.000000 0.000000 -1.000000
vn 0.000000 0.000000 -1.000000
vn 0.000000 0.000000 -1.000000
vn 0.000000 -1.000000 0.000000
vn 0.000000 -1.000000 0.000000
vn 0.000000 -1.000000 0.000000
vn 0.000000 -1.000000 0.000000
vn 1.000000 0.000000 0.000000
vn 1.000000 0.000000 0.000000
vn 1.000000 0.000000 0.000000
vn 1.000000 0.000000 0.000000
vn -1.000000 0.000000 0.000000
vn -1.000000 0.000000 0.000000
vn -1.000000 0.000000 0.000000
vn -1.000000 0.000000 0.000000
vn 0.000000 1.000000 0.000000
vn 0.000000 1.000000 0.000000
vn 0.000000 1.000000 0.000000
vn 0.000000 1.000000 0.000000
vn 0.000000 1.000000 0.000000
vn 0.000000 1.000000 0.000000
vn 0.000000 1.000000 0.000000
vn 0.000000 1.000000 0.000000
vn 0.000000 1.000000 0.000000
vn 0.000000 1.000000 0.000000
vn 0.000000 1.000000 0.000000
vn 0.000000 1.000000 0.000000
vn 0.000000 1.000000 0.000000
vn 0.000000 1.000000 0.000000
vn 0.000000 1.000000 0.000000
vn 0.000000 1.000000 0.000000
vn 0.000000 0.499004 -0.866600
vn 0.000000 0.499004 -0.866600
vn 0.000000 0.499004 -0.866600
vn 0.000000 0.499004 -0.866600
vn -0.866593 0.499015 0.000000
vn -0.866593 0.499015 0.000000
vn -0.866593 0.499016 0.000000
vn -0.866593 0.499016 0.000000
vn 0.000000 0.499005 0.866599
vn 0.000000 0.499005 0.866599
vn 0.000000 0.499005 0.866599
vn 0.000000 0.499005 0.866599
vn 0.866599 0.499005 0.000000
vn 0.866599 0.499005 0.000000
vn 0.866599 0.499005 0.000000
vn 0.866599 0.499005 0.000000
vn 0.000000 -0.568365 -0.822776
vn 0.000000 -0.568365 -0.822776
vn 0.000000 -0.568365 -0.822776
vn 0.000000 -0.568365 -0.822776
vn 0.822776 -0.568366 0.000000
vn 0.822776 -0.568366 0.000000
vn 0.822776 -0.568366 0.000000
vn 0.822776 -0.568366 0.000000
vn 0.000000 -0.568365 0.822776
vn 0.000000 -0.568365 0.822776
vn 0.000000 -0.568365 0.822776
vn 0.000000 -0.568365 0.822776
vn -0.822782 -0.568357 0.000000
vn -0.822782 -0.568357 0.000000
vn -0.822782 -0.568357 0.000000
vn -0.822782 -0.568357 0.000000
vn 0.000000 0.000000 1.000000
vn 0.000000 0.000000 1.000000
vn 0.000000 0.000000 1.000000
vn 0.000000 0.000000 1.000000
vn 0.000000 1.000000 0.000000
vn 0.000000 1.000000 0.000000
vn 0.000000 1.000000 0.000000
vn 0.000000 1.000000 0.000000
vn 0.000000 0.000000 -1.000000
vn 0.000000 0.000000 -1.000000
vn 0.000000 0.000000 -1.000000
vn 0.000000 0.000000 -1.000000
vn 0.000000 -1.000000 0.000000
vn 0.000000 -1.000000 0.000000
vn 0.000000 -1.000000 0.000000
vn 0.000000 -1.000000 0.000000
vn 1.000000 0.000000 0.000000
vn 1.000000 0.000000 0.000000
vn 1.000000 0.000000 0.000000
vn 1.000000 0.000000 0.000000
vn -1.000000 0.000000 0.000000
vn -1.000000 0.000000 0.000000
vn -1.000000 0.000000 0.000000
vn -1.000000 0.000000 0.000000
vn 0.000000 0.000000 1.000000
vn 0.000000 0.000000 1.000000
vn 0.000000 0.000000 1.000000
vn 0.000000 0.000000 1.000000
vn 0.000000 1.000000 0.000000
vn 0.000000 1.000000 0.000000
vn 0.000000 1.000000 0.000000
vn 0.000000 1.000000 0.000000
vn 0.000000 0.000000 -1.000000
vn 0.000000 0.000000 -1.000000
vn 0.000000 0.000000 -1.000000
vn 0.000000 0.000000 -1.000000
vn 0.000000 -1.000000 0.000000
vn 0.000000 -1.000000 0.000000
vn 0.000000 -1.000000 0.000000
vn 0.000000 -1.000000 0.000000
vn 1.000000 0.000000 0.000000
vn 1.000000 0.000000 0.000000
vn 1.000000 0.000000 0.000000
vn 1.000000 0.000000 0.000000
vn -1.000000 0.000000 0.000000
vn -1.000000 0.000000 0.000000
vn -1.000000 0.000000 0.000000
vn -1.000000 0.000000 0.000000
s off
f 1/1/1 2/2/2 4/3/3 3/4/4
f 13/5/5 14/6/6 15/7/7 16/8/8
f 5/9/9 6/10/10 8/11/11 7/12/12
f 17/57/13 18/58/14 19/59/15 20/60/16
f 2/17/17 8/18/18 6/19/19 4/20/20
f 7/21/21 1/22/22 3/23/23 5/24/24
f 3/25/25 4/26/26 10/27/27 9/28/28
f 4/29/29 6/30/30 11/31/31 10/32/32
f 6/33/33 5/34/34 12/35/35 11/36/36
f 5/37/37 3/38/38 9/39/39 12/40/40
f 9/41/41 10/42/42 14/43/43 13/44/44
f 10/45/45 11/46/46 15/47/47 14/48/48
f 11/49/49 12/50/50 16/51/51 15/52/52
f 12/53/53 9/54/54 13/55/55 16/56/56
f 7/13/57 8/14/58 18/58/59 17/57/60
f 8/14/61 2/15/62 19/59/63 18/58/64
f 2/15/65 1/16/66 20/60/67 19/59/68
f 1/16/69 7/13/70 17/57/71 20/60/72
f 21/61/73 22/62/74 24/63/75 23/64/76
f 23/65/77 24/66/78 26/67/79 25/68/80
f 25/69/81 26/70/82 28/71/83 27/72/84
f 27/73/85 28/74/86 22/75/87 21/76/88
f 22/77/89 28/78/90 26/79/91 24/80/92
f 27/81/93 21/82/94 23/83/95 25/84/96
f 29/85/97 30/86/98 32/87/99 31/88/100
f 31/89/101 32/90/102 34/91/103 33/92/104
f 33/93/105 34/94/106 36/95/107 35/96/108
f 35/97/109 36/98/110 30/99/111 29/100/112
f 30/101/113 36/102/114 34/103/115 32/104/116
f 35/105/117 29/106/118 31/107/119 33/108/120
