# This file uses centimeters as units for non-parametric coordinates.

v -0.127411 0.000000 0.127411
v 0.127411 0.000000 0.127411
v -0.127411 0.022405 0.127411
v 0.127411 0.022405 0.127411
v -0.127411 0.022405 -0.127411
v 0.127411 0.022405 -0.127411
v -0.127411 0.000000 -0.127411
v 0.127411 0.000000 -0.127411
vt 0.270023 0.220053
vt 0.294749 0.220053
vt 0.330073 0.220053
vt 0.270023 0.220053
vt 0.294749 0.220053
vt 0.330073 0.220053
vt 0.235876 0.220053
vt 0.294749 0.220053
vt 0.235876 0.220053
vt 0.235876 0.220053
vt 0.270023 0.220053
vt 0.270023 0.220053
vt 0.270023 0.220053
vt 0.270023 0.220053
vt 0.330073 0.220053
vt 0.294749 0.220053
vt 0.294749 0.220053
vt 0.330073 0.220053
vt 0.235876 0.220053
vt 0.294749 0.220053
vt 0.270023 0.220053
vt 0.294749 0.220053
vt 0.294749 0.220053
vt 0.270023 0.220053
vn 0.000000 0.000000 1.000000
vn 0.000000 0.000000 1.000000
vn 0.000000 0.000000 1.000000
vn 0.000000 0.000000 1.000000
vn 0.000000 1.000000 0.000000
vn 0.000000 1.000000 0.000000
vn 0.000000 1.000000 0.000000
vn 0.000000 1.000000 0.000000
vn 0.000000 0.000000 -1.000000
vn 0.000000 0.000000 -1.000000
vn 0.000000 0.000000 -1.000000
vn 0.000000 0.000000 -1.000000
vn 0.000000 -1.000000 0.000000
vn 0.000000 -1.000000 0.000000
vn 0.000000 -1.000000 0.000000
vn 0.000000 -1.000000 0.000000
vn 1.000000 0.000000 0.000000
vn 1.000000 0.000000 0.000000
vn 1.000000 0.000000 0.000000
vn 1.000000 0.000000 0.000000
vn -1.000000 0.000000 0.000000
vn -1.000000 0.000000 0.000000
vn -1.000000 0.000000 0.000000
vn -1.000000 0.000000 0.000000
s off
f 1/23/1 2/2/2 4/22/3 3/17/4
f 3/3/5 4/15/6 6/6/7 5/18/8
f 5/5/9 6/16/10 8/8/11 7/20/12
f 7/7/13 8/19/14 2/10/15 1/9/16
f 2/21/17 8/11/18 6/12/19 4/4/20
f 7/13/21 1/1/22 3/24/23 5/14/24
