# This file uses centimeters as units for non-parametric coordinates.

v -0.151285 0.000000 0.151285
v 0.151285 0.000000 0.151285
v -0.151285 0.035905 0.151285
v 0.151285 0.035905 0.151285
v -0.151285 0.035905 -0.151285
v 0.151285 0.035905 -0.151285
v -0.151285 0.000000 -0.151285
v 0.151285 0.000000 -0.151285
v -0.036066 0.035905 0.045051
v 0.082389 0.035905 0.045051
v 0.082389 0.035905 -0.073404
v -0.036066 0.035905 -0.073404
v -0.036066 0.074572 0.045051
v 0.082389 0.074572 0.045051
v 0.082389 0.074572 -0.073404
v -0.036066 0.074572 -0.073404
vt 0.426062 0.062713
vt 0.450789 0.062713
vt 0.486113 0.062713
vt 0.426062 0.062713
vt 0.450789 0.062713
vt 0.486113 0.062713
vt 0.391916 0.062713
vt 0.450789 0.062713
vt 0.391916 0.062713
vt 0.391916 0.062713
vt 0.426062 0.062713
vt 0.426062 0.062713
vt 0.426062 0.062713
vt 0.426062 0.062713
vt 0.486113 0.062713
vt 0.450789 0.062713
vt 0.450789 0.062713
vt 0.486113 0.062713
vt 0.391916 0.062713
vt 0.450789 0.062713
vt 0.426062 0.062713
vt 0.450789 0.062713
vt 0.450789 0.062713
vt 0.426062 0.062713
vt 0.294964 0.218753
vt 0.271558 0.218753
vt 0.294964 0.218753
vt 0.271559 0.218753
vt 0.331374 0.218753
vt 0.271558 0.218753
vt 0.294964 0.218753
vt 0.271559 0.218753
vt 0.294964 0.218753
vt 0.271559 0.218753
vt 0.294964 0.218753
vt 0.331374 0.218753
vt 0.271558 0.218753
vt 0.331374 0.218753
vt 0.486113 0.062713
vt 0.294964 0.218753
vt 0.294964 0.218753
vt 0.331374 0.218753
vt 0.486113 0.062713
vt 0.271558 0.218753
vt 0.486113 0.062713
vt 0.294964 0.218753
vt 0.486113 0.062713
vt 0.271559 0.218753
vn 0.000000 0.000000 1.000000
vn 0.000000 0.000000 1.000000
vn 0.000000 0.000000 1.000000
vn 0.000000 0.000000 1.000000
vn 0.000000 1.000000 0.000000
vn 0.000000 1.000000 0.000000
vn 0.000000 1.000000 0.000000
vn 0.000000 1.000000 0.000000
vn 0.000000 0.000000 -1.000000
vn 0.000000 0.000000 -1.000000
vn 0.000000 0.000000 -1.000000
vn 0.000000 0.000000 -1.000000
vn 0.000000 -1.000000 0.000000
vn 0.000000 -1.000000 0.000000
vn 0.000000 -1.000000 0.000000
vn 0.000000 -1.000000 0.000000
vn 1.000000 0.000000 0.000000
vn 1.000000 0.000000 0.000000
vn 1.000000 0.000000 0.000000
vn 1.000000 0.000000 0.000000
vn -1.000000 0.000000 0.000000
vn -1.000000 0.000000 0.000000
vn -1.000000 0.000000 0.000000
vn -1.000000 0.000000 0.000000
vn 0.000000 1.000000 -0.000000
vn 0.000000 1.000000 -0.000000
vn 0.000000 1.000000 -0.000000
vn 0.000000 1.000000 -0.000000
vn 0.000000 1.000000 0.000000
vn 0.000000 1.000000 0.000000
vn 0.000000 1.000000 0.000000
vn 0.000000 1.000000 0.000000
vn 0.000000 1.000000 0.000000
vn 0.000000 1.000000 0.000000
vn 0.000000 1.000000 0.000000
vn 0.000000 1.000000 0.000000
vn 0.000000 1.000000 0.000000
vn 0.000000 1.000000 0.000000
vn 0.000000 1.000000 0.000000
vn 0.000000 1.000000 0.000000
vn 0.000000 0.000000 1.000000
vn 0.000000 0.000000 1.000000
vn 0.000000 0.000000 1.000000
vn 0.000000 0.000000 1.000000
vn 1.000000 0.000000 0.000000
vn 1.000000 0.000000 0.000000
vn 1.000000 0.000000 0.000000
vn 1.000000 0.000000 0.000000
vn 0.000000 0.000000 -1.000000
vn 0.000000 0.000000 -1.000000
vn 0.000000 0.000000 -1.000000
vn 0.000000 0.000000 -1.000000
vn -1.000000 0.000000 0.000000
vn -1.000000 0.000000 0.000000
vn -1.000000 0.000000 0.000000
vn -1.000000 0.000000 0.000000
s off
f 1/23/1 2/2/2 4/22/3 3/17/4
f 13/29/5 14/42/6 15/38/7 16/36/8
f 5/5/9 6/16/10 8/8/11 7/20/12
f 7/7/13 8/19/14 2/10/15 1/9/16
f 2/21/17 8/11/18 6/12/19 4/4/20
f 7/13/21 1/1/22 3/24/23 5/14/24
f 3/3/25 4/15/26 10/45/27 9/47/28
f 4/15/29 6/6/30 11/43/31 10/45/32
f 6/6/33 5/18/34 12/39/35 11/43/36
f 5/18/37 3/3/38 9/47/39 12/39/40
f 9/25/41 10/46/42 14/41/43 13/33/44
f 10/26/45 11/44/46 15/37/47 14/30/48
f 11/27/49 12/40/50 16/35/51 15/31/52
f 12/28/53 9/48/54 13/34/55 16/32/56
