# This file uses centimeters as units for non-parametric coordinates.

v -0.153453 -0.000000 0.218211
v 0.153453 -0.000000 0.218211
v -0.153453 0.050862 0.218211
v 0.153453 0.050862 0.218211
v -0.153453 0.050862 -0.108297
v 0.153453 0.050862 -0.108297
v 0.153453 -0.000000 -0.108297
v -0.153453 -0.000000 -0.108297
v -0.181374 0.050862 -0.108297
v 0.181374 0.050862 -0.108297
v 0.181374 0.050862 -0.218211
v -0.181374 0.050862 -0.218211
v 0.181374 -0.000000 -0.218211
v -0.181374 -0.000000 -0.218211
v 0.181374 -0.000000 -0.108297
v -0.181374 -0.000000 -0.108297
v 0.158455 0.050862 -0.124830
v 0.158455 0.050862 -0.196855
v -0.158452 0.050862 -0.196855
v -0.158452 0.050862 -0.124830
v -0.132207 0.050862 -0.124830
v -0.132207 0.050862 0.196855
v 0.132211 0.050862 0.196855
v 0.132211 0.050862 -0.124830
v -0.100339 0.050862 -0.166196
v 0.100343 0.050862 -0.166196
v -0.100339 0.050862 0.158270
v 0.100343 0.050862 0.158270
v -0.100339 0.057410 -0.166196
v 0.100343 0.057410 -0.166196
v -0.100339 0.057410 0.158270
v 0.100343 0.057410 0.158270
vt 0.264821 0.399498
vt 0.289548 0.399498
vt 0.324872 0.399498
vt 0.264821 0.399498
vt 0.289548 0.399498
vt 0.324872 0.399498
vt 0.243422 0.392638
vt 0.289548 0.399498
vt 0.243422 0.392638
vt 0.243422 0.392638
vt 0.264821 0.399498
vt 0.264821 0.399498
vt 0.264821 0.399498
vt 0.264821 0.399498
vt 0.324872 0.399498
vt 0.289548 0.399498
vt 0.289548 0.399498
vt 0.324872 0.399498
vt 0.243422 0.392638
vt 0.289548 0.399498
vt 0.264821 0.399498
vt 0.289548 0.399498
vt 0.289548 0.399498
vt 0.264821 0.399498
vt 0.264821 0.399498
vt 0.324872 0.399498
vt 0.324872 0.399498
vt 0.264821 0.399498
vt 0.391916 0.399498
vt 0.264821 0.399498
vt 0.264821 0.399498
vt 0.243422 0.392638
vt 0.324872 0.399498
vt 0.324872 0.399498
vt 0.243422 0.392638
vt 0.391916 0.399498
vt 0.264821 0.399498
vt 0.264821 0.399498
vt 0.264821 0.399498
vt 0.264821 0.399498
vt 0.487413 0.399498
vt 0.324872 0.399498
vt 0.324872 0.399498
vt 0.324872 0.399498
vt 0.324872 0.399498
vt 0.324872 0.399498
vt 0.324872 0.399498
vt 0.324872 0.399498
vt 0.324872 0.399498
vt 0.487413 0.399498
vt 0.324872 0.399498
vt 0.324872 0.399498
vt 0.324872 0.399498
vt 0.487413 0.399498
vt 0.264821 0.399498
vt 0.324872 0.399498
vt 0.324872 0.399498
vt 0.487413 0.399498
vt 0.324872 0.399498
vt 0.324872 0.399498
vt 0.487413 0.399498
vt 0.324872 0.399498
vt 0.324872 0.399498
vt 0.487413 0.399498
vt 0.264821 0.399498
vt 0.324872 0.399498
vt 0.324872 0.399498
vt 0.487413 0.399498
vt 0.264821 0.399498
vt 0.324872 0.399498
vt 0.324872 0.399498
vt 0.487413 0.399498
vt 0.324872 0.399498
vt 0.324872 0.399498
vt 0.264821 0.399498
vt 0.324872 0.399498
vt 0.243422 0.392638
vt 0.264821 0.399498
vt 0.391916 0.399498
vt 0.264821 0.399498
vt 0.264821 0.399498
vt 0.391916 0.399498
vt 0.243422 0.392638
vt 0.264821 0.399498
vt 0.109017 0.169340
vt 0.171433 0.169340
vt 0.109017 0.169340
vt 0.171433 0.169340
vt 0.235149 0.169340
vt 0.171433 0.169340
vt 0.109017 0.169340
vt 0.171433 0.169340
vt 0.109017 0.169340
vt 0.235149 0.169340
vt 0.109017 0.169340
vt 0.171433 0.169340
vt 0.171433 0.169340
vt 0.235149 0.169340
vt 0.487413 0.399498
vt 0.109017 0.169340
vt 0.109017 0.169340
vt 0.235149 0.169340
vt 0.487413 0.399498
vt 0.171433 0.169340
vt 0.487413 0.399498
vt 0.171433 0.169340
vt 0.487413 0.399498
vt 0.109017 0.169340
vn 0.000000 0.000000 1.000000
vn 0.000000 0.000000 1.000000
vn 0.000000 0.000000 1.000000
vn 0.000000 0.000000 1.000000
vn 0.000000 1.000000 -0.000000
vn 0.000000 1.000000 -0.000000
vn 0.000000 1.000000 -0.000000
vn 0.000000 1.000000 -0.000000
vn 0.000000 1.000000 -0.000000
vn 0.000000 1.000000 -0.000000
vn 0.000000 1.000000 -0.000000
vn 0.000000 1.000000 -0.000000
vn 0.000000 0.000000 -1.000000
vn 0.000000 0.000000 -1.000000
vn 0.000000 0.000000 -1.000000
vn 0.000000 0.000000 -1.000000
vn 0.000000 -1.000000 0.000000
vn 0.000000 -1.000000 0.000000
vn 0.000000 -1.000000 0.000000
vn 0.000000 -1.000000 0.000000
vn 1.000000 0.000000 0.000000
vn 1.000000 0.000000 0.000000
vn 1.000000 0.000000 0.000000
vn 1.000000 0.000000 0.000000
vn -1.000000 0.000000 0.000000
vn -1.000000 0.000000 0.000000
vn -1.000000 0.000000 0.000000
vn -1.000000 0.000000 0.000000
vn 1.000000 0.000000 0.000000
vn 1.000000 0.000000 0.000000
vn 1.000000 0.000000 0.000000
vn 1.000000 0.000000 0.000000
vn 0.000000 -1.000000 0.000000
vn 0.000000 -1.000000 0.000000
vn 0.000000 -1.000000 0.000000
vn 0.000000 -1.000000 0.000000
vn -1.000000 0.000000 0.000000
vn -1.000000 0.000000 0.000000
vn -1.000000 0.000000 0.000000
vn -1.000000 0.000000 0.000000
vn 0.000000 0.000000 -0.000000
vn 0.000000 0.000000 -0.000000
vn 0.000000 0.000000 0.000000
vn 0.000000 0.000000 0.000000
vn 0.000000 0.000000 1.000000
vn 0.000000 0.000000 1.000000
vn 0.000000 0.000000 1.000000
vn 0.000000 0.000000 1.000000
vn 0.000000 0.000000 1.000000
vn 0.000000 0.000000 1.000000
vn 0.000000 0.000000 1.000000
vn 0.000000 0.000000 1.000000
vn 0.000000 1.000000 0.000000
vn 0.000000 1.000000 0.000000
vn 0.000000 1.000000 0.000000
vn 0.000000 1.000000 0.000000
vn 0.000000 1.000000 0.000000
vn 0.000000 1.000000 0.000000
vn 0.000000 1.000000 0.000000
vn 0.000000 1.000000 0.000000
vn 0.000000 1.000000 0.000000
vn 0.000000 1.000000 0.000000
vn 0.000000 1.000000 0.000000
vn 0.000000 1.000000 0.000000
vn 0.000000 1.000000 0.000000
vn 0.000000 1.000000 0.000000
vn 0.000000 1.000000 0.000000
vn 0.000000 1.000000 0.000000
vn 0.000000 1.000000 0.000000
vn 0.000000 1.000000 0.000000
vn 0.000000 1.000000 0.000000
vn 0.000000 1.000000 0.000000
vn 0.000000 1.000000 0.000000
vn 0.000000 1.000000 0.000000
vn 0.000000 1.000000 0.000000
vn 0.000000 1.000000 0.000000
vn 0.000000 1.000000 0.000000
vn 0.000000 1.000000 0.000000
vn 0.000000 1.000000 0.000000
vn 0.000000 1.000000 0.000000
vn 0.000000 1.000000 0.000000
vn 0.000000 1.000000 0.000000
vn 0.000000 1.000000 0.000000
vn 0.000000 1.000000 0.000000
vn 0.000000 1.000000 0.000000
vn 0.000000 1.000000 0.000000
vn 0.000000 1.000000 0.000000
vn 0.000000 1.000000 0.000000
vn 0.000000 1.000000 0.000000
vn 0.000000 1.000000 0.000000
vn 0.000000 1.000000 0.000000
vn 0.000000 1.000000 0.000000
vn 0.000000 1.000000 -0.000000
vn 0.000000 1.000000 -0.000000
vn 0.000000 1.000000 -0.000000
vn 0.000000 1.000000 -0.000000
vn 0.000000 1.000000 0.000000
vn 0.000000 1.000000 0.000000
vn 0.000000 1.000000 0.000000
vn 0.000000 1.000000 0.000000
vn 0.000000 0.000000 -1.000000
vn 0.000000 0.000000 -1.000000
vn 0.000000 0.000000 -1.000000
vn 0.000000 0.000000 -1.000000
vn -1.000000 0.000000 0.000000
vn -1.000000 0.000000 0.000000
vn -1.000000 0.000000 0.000000
vn -1.000000 0.000000 0.000000
vn 0.000000 0.000000 1.000000
vn 0.000000 0.000000 1.000000
vn 0.000000 0.000000 1.000000
vn 0.000000 0.000000 1.000000
vn 1.000000 0.000000 0.000000
vn 1.000000 0.000000 0.000000
vn 1.000000 0.000000 0.000000
vn 1.000000 0.000000 0.000000
s off
f 1/23/1 2/2/2 4/22/3 3/17/4
f 24/50/5 17/41/6 18/72/7 19/68/8 20/64/9 21/61/10 25/107/11 26/105/12
f 12/5/13 11/16/14 13/8/15 14/20/16
f 14/7/17 13/9/18 15/10/19 16/19/20
f 10/37/21 15/38/22 13/11/23 11/12/24
f 14/13/25 16/78/26 9/69/27 12/14/28
f 2/21/29 7/30/30 6/55/31 4/4/32
f 8/32/33 7/35/34 2/77/35 1/83/36
f 5/25/37 8/81/38 1/1/39 3/24/40
f 7/29/41 8/82/42 16/36/43 15/79/44
f 6/28/45 7/84/46 15/80/47 10/75/48
f 8/31/49 5/65/50 9/40/51 16/39/52
f 10/34/53 11/74/54 18/71/55 17/51/56
f 11/6/57 12/73/58 19/67/59 18/42/60
f 12/18/61 9/70/62 20/63/63 19/43/64
f 9/33/65 5/66/66 21/60/67 20/44/68
f 5/26/69 3/62/70 22/57/71 21/45/72
f 3/3/73 4/59/74 23/53/75 22/46/76
f 4/15/77 6/56/78 24/49/79 23/47/80
f 6/27/81 10/76/82 17/52/83 24/48/84
f 30/89/85 29/102/86 31/98/87 32/94/88
f 21/61/89 22/58/90 27/103/91 25/107/92
f 22/58/93 23/54/94 28/99/95 27/103/96
f 23/54/97 24/50/98 26/105/99 28/99/100
f 26/85/101 25/108/102 29/101/103 30/95/104
f 25/86/105 27/104/106 31/97/107 29/90/108
f 27/87/109 28/100/110 32/93/111 31/91/112
f 28/88/113 26/106/114 30/96/115 32/92/116
