# This file uses centimeters as units for non-parametric coordinates.

v -0.298285 0.000000 0.233755
v 0.298286 0.000000 0.233755
v -0.267956 0.775815 0.049927
v 0.267956 0.775815 0.049927
v -0.267956 0.775815 -0.049927
v 0.267956 0.775815 -0.049927
v -0.298285 0.000000 -0.233755
v 0.298286 0.000000 -0.233755
v -0.298285 0.539880 0.233755
v 0.298286 0.539880 0.233755
v 0.298286 0.539880 -0.233755
v -0.298285 0.539880 -0.233755
v 0.267956 0.657770 -0.049927
v 0.267956 0.657770 0.049927
v -0.267956 0.657770 0.049927
v -0.267956 0.657770 -0.049927
vt 0.359245 0.399082
vt 0.383972 0.399082
vt 0.452050 0.399082
vt 0.359245 0.399082
vt 0.383972 0.399082
vt 0.452050 0.399082
vt 0.325099 0.399082
vt 0.383972 0.399082
vt 0.325099 0.399082
vt 0.325099 0.399082
vt 0.359245 0.399082
vt 0.359245 0.399082
vt 0.359245 0.399082
vt 0.359245 0.399082
vt 0.452050 0.399082
vt 0.383972 0.399082
vt 0.383972 0.399082
vt 0.452050 0.399082
vt 0.325099 0.399082
vt 0.383972 0.399082
vt 0.359245 0.399082
vt 0.383972 0.399082
vt 0.383972 0.399082
vt 0.359245 0.399082
vt 0.391999 0.399082
vt 0.416726 0.399082
vt 0.383972 0.399082
vt 0.359245 0.399082
vt 0.416726 0.399082
vt 0.359245 0.399082
vt 0.391999 0.399082
vt 0.383972 0.399082
vt 0.416726 0.399082
vt 0.391999 0.399082
vt 0.383972 0.399082
vt 0.359245 0.399082
vt 0.359245 0.399082
vt 0.383972 0.399082
vt 0.359245 0.399082
vt 0.383972 0.399082
vt 0.391999 0.399082
vt 0.416726 0.399082
vt 0.359245 0.399082
vt 0.383972 0.399082
vt 0.416726 0.399082
vt 0.391999 0.399082
vt 0.391999 0.399082
vt 0.416726 0.399082
vt 0.359245 0.399082
vt 0.416726 0.399082
vt 0.383972 0.399082
vt 0.391999 0.399082
vt 0.383972 0.399082
vt 0.359245 0.399082
vt 0.416726 0.399082
vt 0.391999 0.399082
vn 0.000000 0.841771 0.539835
vn 0.000000 0.841771 0.539835
vn 0.000000 0.841771 0.539835
vn 0.000000 0.841771 0.539835
vn 0.000000 1.000000 0.000000
vn 0.000000 1.000000 0.000000
vn 0.000000 1.000000 0.000000
vn 0.000000 1.000000 0.000000
vn 0.000000 0.841771 -0.539835
vn 0.000000 0.841771 -0.539835
vn 0.000000 0.841771 -0.539835
vn 0.000000 0.841771 -0.539835
vn 0.000000 -1.000000 0.000000
vn 0.000000 -1.000000 0.000000
vn 0.000000 -1.000000 0.000000
vn 0.000000 -1.000000 0.000000
vn 0.968462 0.249161 0.000000
vn 0.968462 0.249161 0.000000
vn 0.968462 0.249161 0.000000
vn 0.968462 0.249161 0.000000
vn -0.968463 0.249157 0.000000
vn -0.968463 0.249157 0.000000
vn -0.968463 0.249157 0.000000
vn -0.968463 0.249157 0.000000
vn 0.000000 0.000000 1.000000
vn 0.000000 0.000000 1.000000
vn 0.000000 0.000000 1.000000
vn 0.000000 0.000000 1.000000
vn 1.000000 0.000000 0.000000
vn 1.000000 0.000000 0.000000
vn 1.000000 0.000000 0.000000
vn 1.000000 0.000000 0.000000
vn 0.000000 0.000000 -1.000000
vn 0.000000 0.000000 -1.000000
vn 0.000000 0.000000 -1.000000
vn 0.000000 0.000000 -1.000000
vn -1.000000 0.000000 0.000000
vn -1.000000 0.000000 0.000000
vn -1.000000 0.000000 0.000000
vn -1.000000 0.000000 0.000000
vn 1.000000 0.000000 0.000000
vn 1.000000 0.000000 0.000000
vn 1.000000 0.000000 0.000000
vn 1.000000 0.000000 0.000000
vn 0.000000 0.000001 1.000000
vn 0.000000 0.000001 1.000000
vn 0.000000 0.000001 1.000000
vn 0.000000 0.000001 1.000000
vn -1.000000 0.000000 0.000000
vn -1.000000 0.000000 0.000000
vn -1.000000 0.000000 0.000000
vn -1.000000 0.000000 0.000000
vn 0.000000 0.000000 -1.000000
vn 0.000000 0.000000 -1.000000
vn 0.000000 0.000000 -1.000000
vn 0.000000 0.000000 -1.000000
s off
f 9/26/1 10/55/2 14/48/3 15/45/4
f 3/3/5 4/15/6 6/6/7 5/18/8
f 16/42/9 13/33/10 11/29/11 12/50/12
f 7/7/13 8/19/14 2/10/15 1/9/16
f 10/56/17 11/52/18 13/34/19 14/47/20
f 12/31/21 9/25/22 15/46/23 16/41/24
f 1/23/25 2/2/26 10/27/27 9/53/28
f 2/21/29 8/11/30 11/30/31 10/28/32
f 12/32/33 11/51/34 8/8/35 7/20/36
f 7/13/37 1/1/38 9/54/39 12/49/40
f 14/36/41 13/43/42 6/12/43 4/4/44
f 15/38/45 14/35/46 4/22/47 3/17/48
f 16/39/49 15/37/50 3/24/51 5/14/52
f 5/5/53 6/16/54 13/44/55 16/40/56
