# This file uses centimeters as units for non-parametric coordinates.

v -0.107559 0.000000 0.086211
v 0.107559 0.000000 0.086211
v -0.107559 0.288375 0.086211
v 0.107559 0.288375 0.086211
v -0.107559 0.288375 -0.086211
v 0.107559 0.288375 -0.086211
v -0.107559 0.000000 -0.086211
v 0.107559 0.000000 -0.086211
v -0.028084 0.288375 0.022511
v 0.028084 0.288375 0.022511
v 0.028084 0.288375 -0.022511
v -0.028084 0.288375 -0.022511
vt 0.329708 0.398751
vt 0.354434 0.398751
vt 0.389758 0.398751
vt 0.329708 0.398751
vt 0.354434 0.398751
vt 0.389758 0.398751
vt 0.295561 0.398751
vt 0.354434 0.398751
vt 0.295561 0.398750
vt 0.295561 0.398750
vt 0.329708 0.398751
vt 0.329708 0.398751
vt 0.329708 0.398751
vt 0.329708 0.398751
vt 0.389758 0.398751
vt 0.354434 0.398751
vt 0.354434 0.398751
vt 0.389758 0.398751
vt 0.295561 0.398751
vt 0.354434 0.398751
vt 0.329708 0.398751
vt 0.354434 0.398751
vt 0.354434 0.398751
vt 0.329708 0.398751
vt 0.292285 0.396514
vt 0.389758 0.398751
vt 0.389758 0.398751
vt 0.389758 0.398751
vt 0.389758 0.398751
vt 0.389758 0.398751
vt 0.389758 0.398751
vt 0.292285 0.396514
vt 0.389758 0.398751
vt 0.292285 0.396514
vt 0.389758 0.398751
vt 0.389758 0.398751
vt 0.292285 0.396514
vt 0.389758 0.398751
vt 0.389758 0.398751
vt 0.389758 0.398751
vn 0.000000 0.000000 1.000000
vn 0.000000 0.000000 1.000000
vn 0.000000 0.000000 1.000000
vn 0.000000 0.000000 1.000000
vn 0.000000 1.000000 0.000000
vn 0.000000 1.000000 0.000000
vn 0.000000 1.000000 0.000000
vn 0.000000 1.000000 0.000000
vn 0.000000 0.000000 -1.000000
vn 0.000000 0.000000 -1.000000
vn 0.000000 0.000000 -1.000000
vn 0.000000 0.000000 -1.000000
vn 0.000000 -1.000000 0.000000
vn 0.000000 -1.000000 0.000000
vn 0.000000 -1.000000 0.000000
vn 0.000000 -1.000000 0.000000
vn 1.000000 0.000000 0.000000
vn 1.000000 0.000000 0.000000
vn 1.000000 0.000000 0.000000
vn 1.000000 0.000000 0.000000
vn -1.000000 0.000000 0.000000
vn -1.000000 0.000000 0.000000
vn -1.000000 0.000000 0.000000
vn -1.000000 0.000000 0.000000
vn 0.000000 1.000000 -0.000000
vn 0.000000 1.000000 -0.000000
vn 0.000000 1.000000 -0.000000
vn 0.000000 1.000000 -0.000000
vn 0.000000 1.000000 0.000000
vn 0.000000 1.000000 0.000000
vn 0.000000 1.000000 0.000000
vn 0.000000 1.000000 0.000000
vn 0.000000 1.000000 0.000000
vn 0.000000 1.000000 0.000000
vn 0.000000 1.000000 0.000000
vn 0.000000 1.000000 0.000000
vn 0.000000 1.000000 0.000000
vn 0.000000 1.000000 0.000000
vn 0.000000 1.000000 0.000000
vn 0.000000 1.000000 0.000000
s off
f 1/23/1 2/2/2 4/22/3 3/17/4
f 9/25/5 10/37/6 11/34/7 12/32/8
f 5/5/9 6/16/10 8/8/11 7/20/12
f 7/7/13 8/19/14 2/10/15 1/9/16
f 2/21/17 8/11/18 6/12/19 4/4/20
f 7/13/21 1/1/22 3/24/23 5/14/24
f 3/3/25 4/39/26 10/36/27 9/29/28
f 4/15/29 6/38/30 11/33/31 10/26/32
f 6/6/33 5/35/34 12/31/35 11/27/36
f 5/18/37 3/40/38 9/30/39 12/28/40
