# This file uses centimeters as units for non-parametric coordinates.

v 0.053835 0.079460 0.154221
v 0.123384 0.079460 0.117934
v 0.053835 0.092453 0.154221
v 0.123384 0.092453 0.117934
v 0.017548 0.092453 0.084671
v 0.087097 0.092453 0.048385
v 0.017548 0.079460 0.084671
v 0.087097 0.079460 0.048385
v -0.121357 0.079460 0.120538
v -0.033039 0.079460 0.137102
v -0.121357 0.094343 0.120538
v -0.033039 0.094343 0.137102
v -0.104794 0.094343 0.032220
v -0.016474 0.094343 0.048784
v -0.104794 0.079460 0.032220
v -0.016474 0.079460 0.048784
v -0.012201 0.079460 -0.019904
v 0.062712 0.079460 -0.079166
v -0.012201 0.095281 -0.019904
v 0.062712 0.095281 -0.079166
v -0.071465 0.095281 -0.094819
v 0.003450 0.095281 -0.154080
v -0.071465 0.079460 -0.094819
v 0.003450 0.079460 -0.154080
v -0.182426 0.000000 0.194480
v 0.182426 0.000000 0.194480
v -0.182426 0.063408 0.194480
v 0.182426 0.063408 0.194480
v -0.043470 0.063408 -0.281290
v 0.043467 0.063408 -0.281290
v -0.043470 0.000000 -0.281290
v 0.043467 0.000000 -0.281290
v -0.182426 0.000000 0.281290
v 0.182426 0.000000 0.281290
v 0.182426 0.063408 0.281290
v -0.182426 0.063408 0.281290
v -0.182426 0.080535 0.194480
v 0.182426 0.080535 0.194480
v 0.043467 0.080535 -0.281290
v -0.043470 0.080535 -0.281290
vt 0.239509 0.183991
vt 0.264236 0.183991
vt 0.299560 0.183992
vt 0.239509 0.183992
vt 0.264236 0.183992
vt 0.299560 0.183992
vt 0.264236 0.183991
vt 0.239509 0.183991
vt 0.239509 0.183992
vt 0.239509 0.183991
vt 0.239509 0.183992
vt 0.299560 0.183992
vt 0.264236 0.183992
vt 0.264236 0.183992
vt 0.299560 0.183992
vt 0.264236 0.183991
vt 0.239509 0.183991
vt 0.264236 0.183992
vt 0.264236 0.183991
vt 0.239509 0.183992
vt 0.264236 0.183991
vt 0.264236 0.183991
vt 0.264236 0.183992
vt 0.264236 0.183992
vt 0.299560 0.183992
vt 0.299560 0.183992
vt 0.299560 0.183992
vt 0.299560 0.183992
vt 0.264236 0.183992
vt 0.264236 0.183992
vt 0.264236 0.183991
vt 0.264236 0.183991
vt 0.239509 0.183991
vt 0.239509 0.183991
vt 0.239509 0.183992
vt 0.239509 0.183992
vt 0.239509 0.183991
vt 0.239509 0.183991
vt 0.239509 0.183992
vt 0.239509 0.183992
vt 0.264236 0.183991
vt 0.264236 0.183991
vt 0.264236 0.183992
vt 0.264236 0.183992
vt 0.299560 0.183992
vt 0.299560 0.183992
vt 0.299560 0.183992
vt 0.299560 0.183992
vt 0.264236 0.183992
vt 0.264236 0.183992
vt 0.264236 0.183991
vt 0.264236 0.183991
vt 0.239509 0.183991
vt 0.239509 0.183991
vt 0.239509 0.183992
vt 0.239509 0.183992
vt 0.239509 0.183991
vt 0.239509 0.183991
vt 0.239509 0.183992
vt 0.239509 0.183992
vt 0.259063 0.397795
vt 0.259063 0.397795
vt 0.259063 0.397795
vt 0.259063 0.397795
vt 0.299935 0.218412
vt 0.299935 0.218412
vt 0.299935 0.218412
vt 0.299935 0.218412
vt 0.485604 0.398720
vt 0.485604 0.398720
vt 0.485604 0.398720
vt 0.485604 0.398720
vt 0.362005 0.397795
vt 0.362005 0.397795
vt 0.362005 0.397795
vt 0.362005 0.397795
vt 0.460878 0.398720
vt 0.460878 0.398720
vt 0.460878 0.398720
vt 0.460878 0.398720
vt 0.460878 0.398720
vt 0.460878 0.398720
vt 0.460878 0.398720
vt 0.460878 0.398720
vt 0.420878 0.397795
vt 0.420878 0.397795
vt 0.420878 0.397795
vt 0.420878 0.397795
vt 0.456940 0.398720
vt 0.456940 0.398720
vt 0.456940 0.398720
vt 0.456940 0.398720
vt 0.420878 0.397795
vt 0.420878 0.397795
vt 0.420878 0.397795
vt 0.420878 0.397795
vt 0.456940 0.398720
vt 0.456940 0.398720
vt 0.456940 0.398720
vt 0.456940 0.398720
vt 0.236134 0.218412
vt 0.236134 0.218412
vt 0.236134 0.218412
vt 0.236134 0.218412
vt 0.236134 0.218412
vt 0.236134 0.218412
vt 0.236134 0.218412
vt 0.236134 0.218412
vt 0.236134 0.218412
vt 0.236134 0.218412
vt 0.236134 0.218412
vt 0.236134 0.218412
vt 0.236134 0.218412
vt 0.236134 0.218412
vt 0.236134 0.218412
vt 0.236134 0.218412
vn 0.462566 0.000000 0.886585
vn 0.462566 0.000000 0.886585
vn 0.462566 0.000000 0.886585
vn 0.462566 0.000000 0.886585
vn 0.000000 1.000000 0.000000
vn 0.000000 1.000000 0.000000
vn 0.000000 1.000000 0.000000
vn 0.000000 1.000000 0.000000
vn -0.462566 0.000000 -0.886585
vn -0.462566 0.000000 -0.886585
vn -0.462566 0.000000 -0.886585
vn -0.462566 0.000000 -0.886585
vn 0.886581 0.000000 -0.462572
vn 0.886581 0.000000 -0.462572
vn 0.886581 0.000000 -0.462572
vn 0.886581 0.000000 -0.462572
vn -0.886581 0.000000 0.462573
vn -0.886581 0.000000 0.462573
vn -0.886581 0.000000 0.462573
vn -0.886581 0.000000 0.462573
vn -0.184329 0.000000 0.982864
vn -0.184329 0.000000 0.982864
vn -0.184329 0.000000 0.982864
vn -0.184329 0.000000 0.982864
vn 0.000000 1.000000 0.000000
vn 0.000000 1.000000 0.000000
vn 0.000000 1.000000 0.000000
vn 0.000000 1.000000 0.000000
vn 0.184330 0.000000 -0.982864
vn 0.184330 0.000000 -0.982864
vn 0.184330 0.000000 -0.982864
vn 0.184330 0.000000 -0.982864
vn 0.982861 0.000000 0.184349
vn 0.982861 0.000000 0.184349
vn 0.982861 0.000000 0.184349
vn 0.982861 0.000000 0.184349
vn -0.982865 0.000000 -0.184328
vn -0.982865 0.000000 -0.184328
vn -0.982865 0.000000 -0.184328
vn -0.982865 0.000000 -0.184328
vn 0.620418 0.000000 0.784272
vn 0.620418 0.000000 0.784272
vn 0.620418 0.000000 0.784272
vn 0.620418 0.000000 0.784272
vn 0.000000 1.000000 0.000000
vn 0.000000 1.000000 0.000000
vn 0.000000 1.000000 0.000000
vn 0.000000 1.000000 0.000000
vn -0.620408 0.000000 -0.784279
vn -0.620408 0.000000 -0.784279
vn -0.620408 0.000000 -0.784279
vn -0.620408 0.000000 -0.784279
vn 0.784279 0.000000 -0.620408
vn 0.784279 0.000000 -0.620408
vn 0.784279 0.000000 -0.620408
vn 0.784279 0.000000 -0.620408
vn -0.784269 0.000000 0.620421
vn -0.784269 0.000000 0.620421
vn -0.784269 0.000000 0.620421
vn -0.784269 0.000000 0.620421
vn 0.000000 0.000000 1.000000
vn 0.000000 0.000000 1.000000
vn 0.000000 0.000000 1.000000
vn 0.000000 0.000000 1.000000
vn 0.000000 1.000000 0.000000
vn 0.000000 1.000000 0.000000
vn 0.000000 1.000000 0.000000
vn 0.000000 1.000000 0.000000
vn 0.000000 0.000000 -1.000000
vn 0.000000 0.000000 -1.000000
vn 0.000000 0.000000 -1.000000
vn 0.000000 0.000000 -1.000000
vn 0.000000 -1.000000 0.000000
vn 0.000000 -1.000000 0.000000
vn 0.000000 -1.000000 0.000000
vn 0.000000 -1.000000 0.000000
vn 0.959895 0.000000 -0.280360
vn 0.959895 0.000000 -0.280360
vn 0.959895 0.000000 -0.280360
vn 0.959895 0.000000 -0.280360
vn -0.959897 0.000000 -0.280353
vn -0.959897 0.000000 -0.280353
vn -0.959897 0.000000 -0.280353
vn -0.959897 0.000000 -0.280353
vn 0.000000 -1.000000 0.000000
vn 0.000000 -1.000000 0.000000
vn 0.000000 -1.000000 0.000000
vn 0.000000 -1.000000 0.000000
vn 1.000000 0.000000 0.000000
vn 1.000000 0.000000 0.000000
vn 1.000000 0.000000 0.000000
vn 1.000000 0.000000 0.000000
vn 0.000000 1.000000 0.000000
vn 0.000000 1.000000 0.000000
vn 0.000000 1.000000 0.000000
vn 0.000000 1.000000 0.000000
vn -1.000000 0.000000 0.000000
vn -1.000000 0.000000 0.000000
vn -1.000000 0.000000 0.000000
vn -1.000000 0.000000 0.000000
vn 0.000000 0.000000 1.000000
vn 0.000000 0.000000 1.000000
vn 0.000000 0.000000 1.000000
vn 0.000000 0.000000 1.000000
vn 0.959895 0.000000 -0.280360
vn 0.959895 0.000000 -0.280360
vn 0.959895 0.000000 -0.280360
vn 0.959895 0.000000 -0.280360
vn 0.000000 0.000000 -1.000000
vn 0.000000 0.000000 -1.000000
vn 0.000000 0.000000 -1.000000
vn 0.000000 0.000000 -1.000000
vn -0.959897 0.000000 -0.280353
vn -0.959897 0.000000 -0.280353
vn -0.959897 0.000000 -0.280353
vn -0.959897 0.000000 -0.280353
s off
f 1/19/1 2/2/2 4/18/3 3/14/4
f 3/3/5 4/12/6 6/6/7 5/15/8
f 5/5/9 6/13/10 8/7/11 7/16/12
f 2/17/13 8/8/14 6/9/15 4/4/16
f 7/10/17 1/1/18 3/20/19 5/11/20
f 9/21/21 10/22/22 12/23/23 11/24/24
f 11/25/25 12/26/26 14/27/27 13/28/28
f 13/29/29 14/30/30 16/31/31 15/32/32
f 10/33/33 16/34/34 14/35/35 12/36/36
f 15/37/37 9/38/38 11/39/39 13/40/40
f 17/41/41 18/42/42 20/43/43 19/44/44
f 19/45/45 20/46/46 22/47/47 21/48/48
f 21/49/49 22/50/50 24/51/51 23/52/52
f 18/53/53 24/54/54 22/55/55 20/56/56
f 23/57/57 17/58/58 19/59/59 21/60/60
f 33/61/61 34/62/62 35/63/63 36/64/64
f 37/65/65 38/66/66 39/67/67 40/68/68
f 29/69/69 30/70/70 32/71/71 31/72/72
f 31/73/73 32/74/74 26/75/75 25/76/76
f 26/77/77 32/78/78 30/79/79 28/80/80
f 31/81/81 25/82/82 27/83/83 29/84/84
f 25/85/85 26/86/86 34/87/87 33/88/88
f 26/89/89 28/90/90 35/91/91 34/92/92
f 28/93/93 27/94/94 36/95/95 35/96/96
f 27/97/97 25/98/98 33/99/99 36/100/100
f 27/101/101 28/102/102 38/103/103 37/104/104
f 28/105/105 30/106/106 39/107/107 38/108/108
f 30/109/109 29/110/110 40/111/111 39/112/112
f 29/113/113 27/114/114 37/115/115 40/116/116
