# This file uses centimeters as units for non-parametric coordinates.

v -0.024751 0.023251 0.208003
v 0.024751 0.023251 0.208003
v -0.024751 0.072753 0.208003
v 0.024751 0.072753 0.208003
v -0.024751 0.072753 -0.208003
v 0.024751 0.072753 -0.208003
v -0.024751 0.023251 -0.208003
v 0.024751 0.023251 -0.208003
v -0.048002 0.000000 -0.164695
v -0.048002 0.096004 -0.164696
v 0.048002 0.096004 -0.164696
v 0.048002 0.000000 -0.164695
v -0.048002 0.000000 0.167863
v -0.048002 0.096004 0.167863
v 0.048002 0.096004 0.167863
v 0.048002 0.000000 0.167863
v -0.010436 0.037566 0.192566
v -0.010436 0.058438 0.192566
v 0.010436 0.058438 0.192566
v 0.010436 0.037566 0.192566
v 0.010703 0.058706 -0.189740
v -0.010703 0.058706 -0.189740
v -0.010703 0.037299 -0.189740
v 0.010703 0.037299 -0.189740
vt 0.428348 0.181221
vt 0.263906 0.181221
vt 0.488398 0.181221
vt 0.428347 0.181221
vt 0.263906 0.181221
vt 0.488398 0.181221
vt 0.394201 0.181221
vt 0.263906 0.181221
vt 0.394201 0.181221
vt 0.394201 0.181221
vt 0.428347 0.181221
vt 0.428347 0.181221
vt 0.428348 0.181221
vt 0.428348 0.181221
vt 0.488398 0.181221
vt 0.263906 0.181221
vt 0.263906 0.181221
vt 0.488398 0.181221
vt 0.394201 0.181221
vt 0.263906 0.181221
vt 0.428347 0.181221
vt 0.263906 0.181221
vt 0.263906 0.181221
vt 0.428348 0.181221
vt 0.384742 0.181221
vt 0.394201 0.181221
vt 0.428348 0.181221
vt 0.444792 0.181221
vt 0.488398 0.181221
vt 0.384742 0.181221
vt 0.350595 0.181221
vt 0.428347 0.181221
vt 0.428348 0.181221
vt 0.394201 0.181221
vt 0.384742 0.181221
vt 0.488398 0.181221
vt 0.444792 0.181221
vt 0.428347 0.181221
vt 0.350595 0.181221
vt 0.384742 0.181221
vt 0.384742 0.181221
vt 0.350595 0.181221
vt 0.428348 0.181221
vt 0.488398 0.181221
vt 0.488398 0.181221
vt 0.428347 0.181221
vt 0.394201 0.181221
vt 0.428347 0.181221
vt 0.444792 0.181221
vt 0.384742 0.181221
vt 0.428348 0.181221
vt 0.488398 0.181221
vt 0.428348 0.181221
vt 0.394201 0.181221
vt 0.394201 0.181221
vt 0.428347 0.181221
vt 0.350595 0.181221
vt 0.384742 0.181221
vt 0.488398 0.181221
vt 0.428347 0.181221
vt 0.384742 0.181221
vt 0.350595 0.181221
vt 0.444792 0.181221
vt 0.384742 0.181221
vt 0.394201 0.181221
vt 0.384742 0.181221
vt 0.428348 0.181221
vt 0.350595 0.181221
vt 0.384742 0.181221
vt 0.350595 0.181221
vt 0.428348 0.181221
vt 0.394201 0.181221
vt 0.444792 0.181221
vt 0.384742 0.181221
vt 0.384742 0.181221
vt 0.444792 0.181221
vt 0.488398 0.181221
vt 0.384742 0.181221
vt 0.428348 0.181221
vt 0.444792 0.181221
vt 0.428347 0.181221
vt 0.394201 0.181221
vt 0.384742 0.181221
vt 0.350595 0.181221
vt 0.444792 0.181221
vt 0.428347 0.181221
vt 0.384742 0.181221
vt 0.488398 0.181221
vn 0.000000 0.000000 1.000000
vn 0.000000 0.000000 1.000000
vn 0.000000 0.000000 1.000000
vn 0.000000 0.000000 1.000000
vn 0.000000 0.557454 -0.830208
vn 0.000000 0.557454 -0.830208
vn 0.000000 0.557454 -0.830208
vn 0.000000 0.557454 -0.830208
vn 0.000000 0.000000 -1.000000
vn 0.000000 0.000000 -1.000000
vn 0.000000 0.000000 -1.000000
vn 0.000000 0.000000 -1.000000
vn 0.000000 -0.557455 -0.830207
vn 0.000000 -0.557455 -0.830207
vn 0.000000 -0.557455 -0.830207
vn 0.000000 -0.557455 -0.830207
vn 0.557450 -0.000001 -0.830211
vn 0.557450 -0.000001 -0.830211
vn 0.557450 -0.000001 -0.830211
vn 0.557450 -0.000001 -0.830211
vn -0.557450 -0.000001 -0.830211
vn -0.557450 -0.000001 -0.830211
vn -0.557450 -0.000001 -0.830211
vn -0.557450 -0.000001 -0.830211
vn -1.000000 0.000000 0.000000
vn -1.000000 0.000000 0.000000
vn -1.000000 0.000000 0.000000
vn -1.000000 0.000000 0.000000
vn 0.000000 1.000000 0.000000
vn 0.000000 1.000000 0.000000
vn 0.000000 1.000000 0.000000
vn 0.000000 1.000000 0.000000
vn 1.000000 0.000000 0.000000
vn 1.000000 0.000000 0.000000
vn 1.000000 0.000000 0.000000
vn 1.000000 0.000000 0.000000
vn 0.000000 -1.000000 0.000000
vn 0.000000 -1.000000 0.000000
vn 0.000000 -1.000000 0.000000
vn 0.000000 -1.000000 0.000000
vn -0.549441 0.000001 0.835533
vn -0.549441 0.000001 0.835533
vn -0.549441 0.000001 0.835533
vn -0.549441 0.000001 0.835533
vn 0.000000 0.549442 0.835532
vn 0.000000 0.549442 0.835532
vn 0.000000 0.549442 0.835532
vn 0.000000 0.549442 0.835532
vn 0.549441 0.000001 0.835533
vn 0.549441 0.000001 0.835533
vn 0.549441 0.000001 0.835533
vn 0.549441 0.000001 0.835533
vn 0.000000 -0.549441 0.835533
vn 0.000000 -0.549441 0.835533
vn 0.000000 -0.549441 0.835533
vn 0.000000 -0.549441 0.835533
vn -0.733246 -0.000001 -0.679964
vn -0.733246 -0.000001 -0.679964
vn -0.733246 -0.000001 -0.679964
vn -0.733246 -0.000001 -0.679964
vn 0.000000 0.733244 -0.679965
vn 0.000000 0.733244 -0.679965
vn 0.000000 0.733244 -0.679965
vn 0.000000 0.733244 -0.679965
vn 0.733246 -0.000001 -0.679964
vn 0.733246 -0.000001 -0.679964
vn 0.733246 -0.000001 -0.679964
vn 0.733246 -0.000001 -0.679964
vn 0.000000 -0.733244 -0.679966
vn 0.000000 -0.733244 -0.679966
vn 0.000000 -0.733244 -0.679966
vn 0.000000 -0.733244 -0.679966
vn 0.000000 0.792641 0.609689
vn 0.000000 0.792641 0.609689
vn 0.000000 0.792641 0.609689
vn 0.000000 0.792641 0.609689
vn -0.792634 0.000000 0.609698
vn -0.792634 0.000000 0.609698
vn -0.792634 0.000000 0.609698
vn -0.792634 0.000000 0.609698
vn 0.000000 -0.792641 0.609689
vn 0.000000 -0.792641 0.609689
vn 0.000000 -0.792641 0.609689
vn 0.000000 -0.792641 0.609689
vn 0.792634 0.000000 0.609698
vn 0.792634 0.000000 0.609698
vn 0.792634 0.000000 0.609698
vn 0.792634 0.000000 0.609698
s off
f 1/23/1 2/2/2 4/22/3 3/17/4
f 10/28/5 11/85/6 21/49/7 22/63/8
f 5/5/9 6/16/10 8/8/11 7/20/12
f 23/62/13 24/57/14 12/31/15 9/68/16
f 11/30/17 12/66/18 24/58/19 21/50/20
f 22/64/21 23/61/22 9/25/23 10/87/24
f 10/27/25 9/67/26 13/33/27 14/79/28
f 14/36/29 15/77/30 11/29/31 10/88/32
f 15/38/33 16/81/34 12/32/35 11/86/36
f 9/26/37 12/65/38 16/82/39 13/34/40
f 14/35/41 13/83/42 17/41/43 18/75/44
f 18/76/45 19/73/46 15/37/47 14/80/48
f 19/74/49 20/69/50 16/40/51 15/78/52
f 13/84/53 16/39/54 20/70/55 17/42/56
f 18/43/57 17/71/58 1/1/59 3/24/60
f 3/3/61 4/15/62 19/45/63 18/44/64
f 2/21/65 20/48/66 19/46/67 4/4/68
f 17/72/69 20/47/70 2/10/71 1/9/72
f 22/52/73 21/59/74 6/6/75 5/18/76
f 7/13/77 23/53/78 22/51/79 5/14/80
f 7/7/81 8/19/82 24/55/83 23/54/84
f 21/60/85 24/56/86 8/11/87 6/12/88
