# This file uses centimeters as units for non-parametric coordinates.

v 0.000000 0.573678 0.090504
v 0.000000 0.114184 0.090504
v 0.109921 0.114184 0.090504
v 0.109921 0.573678 0.090504
v 0.019417 0.000000 -0.090504
v 0.000000 0.000000 -0.090504
v 0.023548 0.673678 -0.082241
v 0.000000 0.673678 -0.082241
v -0.023548 0.673678 -0.082241
v -0.109921 0.573678 0.090504
v -0.109921 0.114184 0.090504
v -0.019417 0.000000 -0.090504
v -0.023148 0.622451 -0.083038
v 0.000000 0.622451 -0.083031
v 0.023159 0.622451 -0.083019
v 0.093182 0.538818 0.057026
v 0.092987 0.141058 0.056637
v 0.019733 0.051708 -0.089870
v -0.000004 0.051708 -0.089870
v -0.019733 0.051708 -0.089867
v -0.094334 0.548076 0.059330
v -0.092648 0.149924 0.055958
v -0.023388 0.651319 -0.082565
v 0.000000 0.651319 -0.082561
v 0.023388 0.651319 -0.082558
v 0.103100 0.559474 0.076862
v 0.103020 0.125133 0.076706
v 0.019543 0.021068 -0.090244
v -0.000004 0.021068 -0.090244
v -0.019543 0.021068 -0.090244
v -0.102879 0.128746 0.076427
v -0.103565 0.563247 0.077805
vt 0.296067 0.290017
vt 0.296067 0.290017
vt 0.296067 0.290017
vt 0.296067 0.290017
vt 0.326487 0.290017
vt 0.326487 0.290017
vt 0.326487 0.290017
vt 0.326487 0.290017
vt 0.324143 0.290017
vt 0.324143 0.290017
vt 0.324143 0.290017
vt 0.324143 0.290017
vt 0.265018 0.290016
vt 0.265018 0.290016
vt 0.265018 0.290017
vt 0.265018 0.290017
vt 0.236942 0.290017
vt 0.236942 0.290017
vt 0.236942 0.290017
vt 0.236942 0.290017
vt 0.267362 0.290017
vt 0.267362 0.290017
vt 0.267362 0.290017
vt 0.267362 0.290017
vt 0.241604 0.289339
vt 0.241604 0.289339
vt 0.241604 0.289339
vt 0.241604 0.289339
vt 0.211987 0.289339
vt 0.211987 0.289339
vt 0.211987 0.289339
vt 0.211987 0.289339
vt 0.211987 0.289339
vt 0.211987 0.289339
vt 0.241604 0.289339
vt 0.241604 0.289339
vt 0.241604 0.289339
vt 0.241604 0.289339
vt 0.211987 0.289339
vt 0.211987 0.289339
vt 0.606148 0.650817
vt 0.357298 0.170016
vt 0.357298 0.170016
vt 0.325487 0.442056
vt 0.611402 0.722516
vt 0.325487 0.442056
vt 0.295870 0.442056
vt 0.295870 0.442056
vt 0.295870 0.442056
vt 0.325487 0.442056
vt 0.325487 0.442056
vt 0.325487 0.442056
vt 0.295870 0.442056
vt 0.325487 0.442056
vt 0.295870 0.442056
vt 0.295870 0.442056
vt 0.530500 0.664136
vt 0.295870 0.442056
vt 0.211987 0.289339
vt 0.528752 0.718127
vt 0.295870 0.442056
vt 0.211987 0.289339
vt 0.357298 0.170016
vt 0.602605 0.728213
vt 0.325487 0.442056
vt 0.295870 0.442056
vt 0.357298 0.170016
vt 0.357298 0.170016
vt 0.550708 0.713188
vt 0.357298 0.170016
vt 0.295870 0.442056
vt 0.550877 0.668820
vt 0.325487 0.442056
vt 0.357298 0.170016
vt 0.295870 0.442056
vt 0.357298 0.170016
vt 0.211987 0.289339
vt 0.295870 0.442056
vt 0.614370 0.658854
vt 0.211987 0.289339
vt 0.295870 0.442056
vt 0.325487 0.442056
vt 0.325487 0.442056
vt 0.325487 0.442056
vt 0.295870 0.442056
vt 0.325487 0.442056
vt 0.295870 0.442056
vt 0.295870 0.442056
vt 0.295870 0.442056
vt 0.295870 0.442056
vt 0.295870 0.442056
vt 0.325487 0.442056
vt 0.325487 0.442056
vt 0.325487 0.442056
vt 0.295870 0.442056
vt 0.325487 0.442056
vt 0.295870 0.442056
vt 0.295870 0.442056
vt 0.295870 0.442056
vt 0.295870 0.442056
vt 0.241604 0.289339
vt 0.241604 0.289339
vt 0.211987 0.289339
vt 0.241604 0.289339
vt 0.241604 0.289339
vt 0.211987 0.289339
vt 0.241604 0.289339
vt 0.241604 0.289339
vt 0.241604 0.289339
vt 0.241604 0.289339
vt 0.211987 0.289339
vt 0.211987 0.289339
vn 0.000000 0.000000 1.000000
vn 0.000000 0.000000 1.000000
vn 0.000000 0.000000 1.000000
vn 0.000000 0.000000 1.000000
vn 0.000000 -0.845778 0.533536
vn 0.000000 -0.845778 0.533536
vn 0.000000 -0.845778 0.533536
vn 0.000000 -0.845778 0.533536
vn 0.000000 0.865449 0.500997
vn 0.000000 0.865449 0.500997
vn 0.000000 0.865449 0.500997
vn 0.000000 0.865449 0.500997
vn 0.000000 0.865449 0.500997
vn 0.000000 0.865449 0.500997
vn 0.000000 0.865449 0.500997
vn 0.000000 0.865449 0.500997
vn 0.000000 0.000000 1.000000
vn 0.000000 0.000000 1.000000
vn 0.000000 0.000000 1.000000
vn 0.000000 0.000000 1.000000
vn 0.000000 -0.845778 0.533536
vn 0.000000 -0.845778 0.533536
vn 0.000000 -0.845778 0.533536
vn 0.000000 -0.845778 0.533536
vn -0.894395 -0.000015 -0.447279
vn -0.894425 -0.000044 -0.447219
vn -0.894424 0.000002 -0.447220
vn -0.894433 0.000001 -0.447201
vn 0.894428 0.000003 -0.447213
vn 0.894429 0.000001 -0.447209
vn 0.894430 -0.000005 -0.447208
vn 0.894430 -0.000010 -0.447209
vn 0.000270 0.012207 -0.999925
vn 0.000270 0.012209 -0.999925
vn 0.000254 0.012002 -0.999928
vn 0.000254 0.012002 -0.999928
vn 0.000097 0.012201 -0.999926
vn 0.000097 0.012199 -0.999926
vn 0.000080 0.011987 -0.999928
vn 0.000080 0.011987 -0.999928
vn 0.000173 0.015479 -0.999880
vn 0.000174 0.015484 -0.999880
vn 0.000097 0.012199 -0.999926
vn 0.000097 0.012201 -0.999926
vn 0.000220 0.015297 -0.999883
vn 0.000219 0.015292 -0.999883
vn 0.000270 0.012209 -0.999925
vn 0.000270 0.012207 -0.999925
vn 0.894423 -0.000010 -0.447222
vn 0.894419 -0.000004 -0.447230
vn 0.894429 0.000001 -0.447209
vn 0.894428 0.000003 -0.447213
vn 0.894419 -0.000004 -0.447230
vn 0.894417 0.000011 -0.447233
vn 0.894430 -0.000005 -0.447208
vn 0.894429 0.000001 -0.447209
vn 0.894430 -0.000010 -0.447209
vn 0.894430 -0.000005 -0.447208
vn 0.894417 0.000011 -0.447233
vn 0.894415 0.000040 -0.447238
vn 0.000254 0.012002 -0.999928
vn 0.000254 0.012002 -0.999928
vn 0.000000 0.012245 -0.999925
vn 0.000000 0.012245 -0.999925
vn 0.000080 0.011987 -0.999928
vn 0.000080 0.011987 -0.999928
vn -0.000058 0.012282 -0.999925
vn -0.000058 0.012282 -0.999925
vn -0.894426 -0.000011 -0.447217
vn -0.894433 -0.000004 -0.447201
vn -0.894433 0.000001 -0.447201
vn -0.894424 0.000002 -0.447220
vn -0.894388 0.000018 -0.447292
vn -0.894395 -0.000015 -0.447279
vn -0.894433 0.000001 -0.447201
vn -0.894433 -0.000004 -0.447201
vn -0.894411 0.000062 -0.447246
vn -0.894388 0.000018 -0.447292
vn -0.894433 -0.000004 -0.447201
vn -0.894426 -0.000011 -0.447217
vn 0.000081 0.014415 -0.999896
vn 0.000081 0.014415 -0.999896
vn 0.000174 0.015484 -0.999880
vn 0.000173 0.015479 -0.999880
vn 0.000081 0.014244 -0.999899
vn 0.000081 0.014244 -0.999899
vn 0.000219 0.015292 -0.999883
vn 0.000220 0.015297 -0.999883
vn 0.894417 -0.000037 -0.447234
vn 0.894409 -0.000018 -0.447250
vn 0.894419 -0.000004 -0.447230
vn 0.894423 -0.000010 -0.447222
vn 0.894399 0.000049 -0.447270
vn 0.894417 0.000011 -0.447233
vn 0.894419 -0.000004 -0.447230
vn 0.894409 -0.000018 -0.447250
vn 0.894415 0.000040 -0.447238
vn 0.894417 0.000011 -0.447233
vn 0.894399 0.000049 -0.447270
vn 0.894394 0.000125 -0.447280
vn 0.000000 0.012245 -0.999925
vn 0.000000 0.012245 -0.999925
vn 0.000000 0.012312 -0.999924
vn 0.000000 0.012312 -0.999924
vn -0.000058 0.012282 -0.999925
vn -0.000058 0.012282 -0.999925
vn 0.000000 0.012312 -0.999924
vn 0.000000 0.012312 -0.999924
vn -0.894344 0.000077 -0.447381
vn -0.894388 0.000018 -0.447292
vn -0.894411 0.000062 -0.447246
vn -0.894388 0.000153 -0.447292
vn -0.894346 -0.000035 -0.447377
vn -0.894395 -0.000015 -0.447279
vn -0.894388 0.000018 -0.447292
vn -0.894344 0.000077 -0.447381
vn -0.894346 -0.000035 -0.447377
vn -0.894415 -0.000092 -0.447239
vn -0.894425 -0.000044 -0.447219
vn -0.894395 -0.000015 -0.447279
s off
f 3/1/1 4/2/2 1/3/3 2/4/4
f 5/5/5 3/6/6 2/7/7 6/8/8
f 8/9/9 1/10/10 4/11/11 7/12/12
f 9/13/13 10/14/14 1/15/15 8/16/16
f 2/17/17 1/18/18 10/19/19 11/20/20
f 6/21/21 2/22/22 11/23/23 12/24/24
f 32/99/25 23/81/26 13/66/27 21/61/28
f 15/45/29 16/69/30 17/72/31 18/79/32
f 14/43/33 15/76/34 18/70/35 19/67/36
f 13/42/37 14/74/38 19/68/39 20/63/40
f 23/82/41 24/84/42 14/44/43 13/65/44
f 24/83/45 25/86/46 15/46/47 14/73/48
f 25/85/49 26/88/50 16/78/51 15/75/52
f 26/87/53 27/90/54 17/71/55 16/47/56
f 18/49/57 17/48/58 27/89/59 28/91/60
f 19/51/61 18/50/62 28/92/63 29/93/64
f 20/54/65 19/52/66 29/94/67 30/96/68
f 20/41/69 22/57/70 21/60/71 13/64/72
f 31/97/73 32/100/74 21/55/75 22/58/76
f 30/95/77 31/98/78 22/56/79 20/53/80
f 9/25/81 8/109/82 24/104/83 23/28/84
f 8/26/85 7/108/86 25/105/87 24/27/88
f 7/29/89 4/31/90 26/32/91 25/30/92
f 3/33/93 27/34/94 26/32/95 4/31/96
f 28/103/97 27/34/98 3/33/99 5/111/100
f 29/101/101 28/35/102 5/36/103 6/110/104
f 30/102/105 29/37/106 6/38/107 12/107/108
f 11/59/109 31/62/110 30/39/111 12/40/112
f 10/77/113 32/80/114 31/62/115 11/59/116
f 10/77/117 9/112/118 23/106/119 32/80/120
