# This file uses centimeters as units for non-parametric coordinates.

v -0.116409 0.000000 0.116392
v 0.116394 0.000000 0.116392
v -0.054672 0.386215 0.054673
v 0.054672 0.386215 0.054673
v -0.054672 0.386215 -0.054673
v 0.054672 0.386215 -0.054673
v -0.116409 0.000000 -0.116392
v 0.137344 0.000000 -0.137345
v -0.018166 0.386215 0.018166
v 0.018166 0.386215 0.018166
v 0.018166 0.386215 -0.018166
v -0.018166 0.386215 -0.018166
v -0.073067 0.285391 -0.073061
v -0.073067 0.285391 0.073061
v 0.073051 0.285391 0.073061
v 0.073051 0.285391 -0.073061
v -0.137344 0.157649 -0.137345
v -0.137344 0.157649 0.137345
v 0.137344 0.157649 0.137345
v 0.137344 0.157649 -0.137345
v -0.018166 0.466460 0.018166
v 0.018166 0.466460 0.018166
v 0.018166 0.466460 -0.018166
v -0.018166 0.466460 -0.018166
v -0.028641 0.196483 0.117802
v 0.028641 0.196483 0.117802
v 0.028641 0.246557 0.092604
v -0.028641 0.246557 0.092604
v -0.028641 0.226527 0.102683
v 0.028641 0.226527 0.102683
vt 0.299344 0.287077
vt 0.324071 0.287077
vt 0.359395 0.287077
vt 0.299344 0.287077
vt 0.324071 0.287077
vt 0.359395 0.287077
vt 0.265198 0.287077
vt 0.324071 0.287077
vt 0.265198 0.287077
vt 0.265197 0.287077
vt 0.299344 0.287077
vt 0.299344 0.287077
vt 0.299344 0.287077
vt 0.299344 0.287077
vt 0.359395 0.287077
vt 0.324071 0.287077
vt 0.324071 0.287077
vt 0.359395 0.287077
vt 0.265197 0.287077
vt 0.324071 0.287077
vt 0.299344 0.287077
vt 0.324071 0.287077
vt 0.324071 0.287077
vt 0.299344 0.287077
vt 0.261921 0.400214
vt 0.359395 0.287077
vt 0.359395 0.287077
vt 0.359395 0.287077
vt 0.359395 0.287077
vt 0.359395 0.287077
vt 0.359395 0.287077
vt 0.299248 0.400214
vt 0.359395 0.287077
vt 0.261921 0.400214
vt 0.359395 0.287077
vt 0.359395 0.287077
vt 0.299248 0.400214
vt 0.359395 0.287077
vt 0.359395 0.287077
vt 0.359395 0.287077
vt 0.299344 0.287077
vt 0.324071 0.287077
vt 0.331333 0.287077
vt 0.324071 0.287077
vt 0.356060 0.287077
vt 0.299344 0.287077
vt 0.356060 0.287077
vt 0.331333 0.287077
vt 0.331333 0.287077
vt 0.356060 0.287077
vt 0.299344 0.287077
vt 0.324071 0.287077
vt 0.324071 0.287077
vt 0.299344 0.287077
vt 0.324071 0.287077
vt 0.299344 0.287077
vt 0.331333 0.287077
vt 0.356060 0.287077
vt 0.299344 0.287077
vt 0.324071 0.287077
vt 0.356060 0.287077
vt 0.331333 0.287077
vt 0.331333 0.287077
vt 0.356060 0.287077
vt 0.324071 0.287077
vt 0.331333 0.287077
vt 0.299344 0.287077
vt 0.356060 0.287077
vt 0.299344 0.287077
vt 0.324071 0.287077
vt 0.331333 0.287077
vt 0.356060 0.287077
vt 0.330919 0.400214
vt 0.299248 0.400214
vt 0.261921 0.400214
vt 0.299248 0.400214
vt 0.261921 0.400214
vt 0.299248 0.400214
vt 0.261921 0.400214
vt 0.330919 0.400214
vt 0.299248 0.400214
vt 0.330919 0.400214
vt 0.261921 0.400214
vt 0.261921 0.400214
vt 0.330919 0.400214
vt 0.299248 0.400214
vt 0.261921 0.400214
vt 0.299248 0.400214
vt 0.356060 0.287077
vt 0.356060 0.287077
vt 0.356060 0.287077
vt 0.356060 0.287077
vt 0.356060 0.287077
vt 0.356060 0.287077
vt 0.237465 0.216568
vt 0.237465 0.216568
vt 0.237465 0.216568
vt 0.237465 0.216568
vt 0.360756 0.473331
vt 0.360756 0.473331
vt 0.360756 0.473331
vt 0.360756 0.473331
vn 0.000000 0.179417 0.983773
vn 0.000000 0.179417 0.983773
vn 0.000000 0.179417 0.983773
vn 0.000000 0.179417 0.983773
vn 0.000000 1.000000 0.000000
vn 0.000000 1.000000 0.000000
vn 0.000000 1.000000 0.000000
vn 0.000000 1.000000 0.000000
vn 0.000000 0.179415 -0.983774
vn 0.000000 0.179415 -0.983774
vn 0.000000 0.389365 -0.921084
vn 0.000000 0.389368 -0.921082
vn 0.000000 -1.000000 0.000000
vn 0.000000 -1.000000 0.000000
vn 0.000000 -1.000000 0.000000
vn 0.000000 -1.000000 0.000000
vn 0.921072 0.389393 0.000000
vn 0.921072 0.389393 0.000000
vn 0.983788 0.179334 0.000000
vn 0.983788 0.179334 0.000000
vn -0.921089 0.389353 0.000000
vn -0.921089 0.389353 0.000000
vn -0.983762 0.179478 0.000000
vn -0.983762 0.179478 0.000000
vn 0.000000 1.000000 0.000000
vn 0.000000 1.000000 0.000000
vn 0.000000 1.000000 0.000000
vn 0.000000 1.000000 0.000000
vn 0.000000 1.000000 0.000000
vn 0.000000 1.000000 0.000000
vn 0.000000 1.000000 0.000000
vn 0.000000 1.000000 0.000000
vn 0.000000 1.000000 -0.000000
vn 0.000000 1.000000 -0.000000
vn 0.000000 1.000000 -0.000000
vn 0.000000 1.000000 -0.000000
vn 0.000000 1.000000 0.000000
vn 0.000000 1.000000 0.000000
vn 0.000000 1.000000 0.000000
vn 0.000000 1.000000 0.000000
vn -0.996053 0.088757 0.000000
vn -0.996053 0.088757 0.000000
vn -0.921089 0.389353 0.000000
vn -0.921089 0.389353 0.000000
vn 0.000000 0.449517 0.893272
vn 0.000000 0.449517 0.893272
vn 0.000000 0.449520 0.893270
vn 0.000000 0.449520 0.893270
vn 0.991894 0.124391 0.025963
vn 0.993166 0.113605 0.026755
vn 0.921072 0.389393 0.000000
vn 0.921072 0.389393 0.000000
vn 0.000000 0.389368 -0.921082
vn 0.000000 0.389365 -0.921084
vn -0.026758 0.113564 -0.993170
vn -0.025967 0.124348 -0.991899
vn -0.991298 -0.131640 0.000000
vn -0.991298 -0.131640 0.000000
vn -0.996053 0.088757 0.000000
vn -0.996053 0.088757 0.000000
vn 0.000000 -0.131751 0.991283
vn 0.000000 -0.131751 0.991283
vn 0.000000 -0.131751 0.991283
vn 0.000000 -0.131751 0.991283
vn 0.996843 -0.068863 0.039522
vn 0.996843 -0.068863 0.039522
vn 0.993166 0.113605 0.026755
vn 0.991894 0.124391 0.025963
vn -0.025967 0.124348 -0.991899
vn -0.026758 0.113564 -0.993170
vn -0.039525 -0.068869 -0.996842
vn -0.039525 -0.068869 -0.996842
vn 0.000000 0.000000 1.000000
vn 0.000000 0.000000 1.000000
vn 0.000000 0.000000 1.000000
vn 0.000000 0.000000 1.000000
vn 1.000000 0.000000 0.000000
vn 1.000000 0.000000 0.000000
vn 1.000000 0.000000 0.000000
vn 1.000000 0.000000 0.000000
vn 0.000000 0.000000 -1.000000
vn 0.000000 0.000000 -1.000000
vn 0.000000 0.000000 -1.000000
vn 0.000000 0.000000 -1.000000
vn -1.000000 0.000000 0.000000
vn -1.000000 0.000000 0.000000
vn -1.000000 0.000000 0.000000
vn -1.000000 0.000000 0.000000
vn 0.000000 0.449521 0.893270
vn 0.000000 0.449521 0.893270
vn 0.000000 0.449521 0.893270
vn 0.000000 0.449521 0.893270
vn -0.000000 0.449518 0.893271
vn -0.000000 0.449518 0.893271
vn -0.000000 0.449518 0.893271
vn -0.000000 0.449518 0.893271
vn -0.000000 0.449518 0.893271
vn 0.000000 0.449519 0.893271
vn 0.000000 0.449519 0.893271
vn 0.000000 0.449519 0.893271
vn 0.000000 0.449519 0.893271
vn 0.000000 0.449518 0.893271
vn 0.000000 0.449518 0.893271
vn 0.000000 0.449518 0.893271
vn 0.000000 0.449518 0.893271
vn 0.000000 0.449518 0.893272
vn 0.000000 0.449515 0.893273
vn 0.000000 0.449515 0.893273
vn 0.000000 0.449517 0.893272
vn 0.000000 0.449517 0.893272
s off
f 14/44/1 15/65/2 4/22/3 3/17/4
f 21/73/5 22/85/6 23/82/7 24/80/8
f 5/5/9 6/16/10 16/70/11 13/42/12
f 7/7/13 8/19/14 2/10/15 1/9/16
f 15/46/17 16/69/18 6/12/19 4/4/20
f 13/41/21 14/67/22 3/24/23 5/14/24
f 3/3/25 4/39/26 10/36/27 9/29/28
f 4/15/29 6/38/30 11/33/31 10/26/32
f 6/6/33 5/35/34 12/31/35 11/27/36
f 5/18/37 3/40/38 9/30/39 12/28/40
f 17/49/41 18/63/42 14/43/43 13/71/44
f 29/95/45 30/96/46 27/97/47 28/98/48
f 19/62/49 20/57/50 16/48/51 15/66/52
f 13/72/53 16/47/54 20/58/55 17/50/56
f 7/13/57 1/1/58 18/51/59 17/59/60
f 1/23/61 2/2/62 19/53/63 18/52/64
f 2/21/65 8/11/66 20/56/67 19/54/68
f 17/60/69 20/55/70 8/8/71 7/20/72
f 9/25/73 10/87/74 22/84/75 21/77/76
f 10/37/77 11/86/78 23/81/79 22/74/80
f 11/34/81 12/83/82 24/79/83 23/75/84
f 12/32/85 9/88/86 21/78/87 24/76/88
f 18/64/89 19/61/90 26/90/91 25/89/92
f 19/61/93 15/45/94 27/91/95 30/94/96 26/90/97
f 15/45/98 14/68/99 28/92/100 27/91/101
f 14/68/102 18/64/103 25/89/104 29/93/105 28/92/106
f 25/99/107 26/100/108 30/101/109 29/102/110
