# This file uses centimeters as units for non-parametric coordinates.

v 0.093468 0.000000 -0.365349
v 0.093468 0.186943 -0.365349
v 0.093468 0.000000 0.367143
v 0.093468 0.186943 0.367143
v -0.093468 0.000000 0.367143
v -0.093468 0.186943 0.367143
v -0.093468 0.000000 -0.365349
v -0.093468 0.186943 -0.365349
v 0.024406 0.069061 0.462164
v 0.024406 0.117874 0.462164
v -0.024406 0.117874 0.462164
v -0.024406 0.069061 0.462164
v -0.019886 0.073578 -0.462164
v -0.019886 0.113358 -0.462164
v 0.019886 0.113358 -0.462164
v 0.019886 0.073578 -0.462164
v -0.057484 0.186943 -0.028370
v 0.030411 0.186943 -0.055159
v -0.030411 0.186943 0.056964
v 0.057484 0.186943 0.030175
v 0.004745 0.186943 0.046248
v -0.022327 0.186943 -0.039085
vt 0.543131 0.530812
vt 0.543131 0.530812
vt 0.543131 0.530812
vt 0.543131 0.530812
vt 0.511148 0.528576
vt 0.511148 0.528576
vt 0.511148 0.528576
vt 0.511148 0.528576
vt 0.543131 0.530812
vt 0.543131 0.530812
vt 0.543131 0.530812
vt 0.543131 0.530812
vt 0.515655 0.530812
vt 0.515654 0.530812
vt 0.515654 0.530812
vt 0.515655 0.530812
vt 0.271179 0.225834
vt 0.271179 0.225834
vt 0.271179 0.225834
vt 0.271179 0.225834
vt 0.577794 0.530812
vt 0.577794 0.530812
vt 0.577794 0.530812
vt 0.577794 0.530812
vt 0.548927 0.530812
vt 0.548926 0.530812
vt 0.548926 0.530812
vt 0.548927 0.530812
vt 0.580018 0.530812
vt 0.580018 0.530812
vt 0.580018 0.530812
vt 0.580018 0.530812
vt 0.548926 0.530812
vt 0.548927 0.530812
vt 0.548927 0.530812
vt 0.548926 0.530812
vt 0.580018 0.530812
vt 0.580018 0.530812
vt 0.580018 0.530812
vt 0.580018 0.530812
vt 0.548237 0.530812
vt 0.548237 0.530812
vt 0.548237 0.530812
vt 0.548237 0.530812
vt 0.545183 0.530812
vt 0.545183 0.530812
vt 0.545183 0.530812
vt 0.545183 0.530812
vt 0.548237 0.530812
vt 0.548237 0.530812
vt 0.548237 0.530812
vt 0.548237 0.530812
vt 0.574407 0.530812
vt 0.574407 0.530812
vt 0.574407 0.530812
vt 0.574407 0.530812
vt 0.577794 0.530812
vt 0.577794 0.530812
vt 0.577794 0.530812
vt 0.577794 0.530812
vt 0.577794 0.530812
vt 0.577794 0.530812
vt 0.577794 0.530812
vt 0.577794 0.530812
vt 0.577794 0.530812
vt 0.577794 0.530812
vt 0.365917 0.475598
vt 0.365917 0.475598
vt 0.365917 0.475598
vt 0.365917 0.475598
vt 0.577794 0.530812
vt 0.577794 0.530812
vt 0.577794 0.530812
vt 0.577794 0.530812
vt 0.577794 0.530812
vt 0.577794 0.530812
vt 0.577794 0.530812
vt 0.577794 0.530812
vn 1.000000 0.000000 0.000000
vn 1.000000 0.000000 0.000000
vn 1.000000 0.000000 0.000000
vn 1.000000 0.000000 0.000000
vn 0.000000 0.000000 1.000000
vn 0.000000 0.000000 1.000000
vn 0.000000 0.000000 1.000000
vn 0.000000 0.000000 1.000000
vn -1.000000 0.000000 0.000000
vn -1.000000 0.000000 0.000000
vn -1.000000 0.000000 0.000000
vn -1.000000 0.000000 0.000000
vn 0.000000 0.000000 -1.000000
vn 0.000000 0.000000 -1.000000
vn 0.000000 0.000000 -1.000000
vn 0.000000 0.000000 -1.000000
vn 0.000000 1.000000 0.000000
vn 0.000000 1.000000 0.000000
vn 0.000000 1.000000 0.000000
vn 0.000000 1.000000 0.000000
vn 0.000000 -1.000000 0.000000
vn 0.000000 -1.000000 0.000000
vn 0.000000 -1.000000 0.000000
vn 0.000000 -1.000000 0.000000
vn 0.808918 0.000000 0.587922
vn 0.808918 0.000000 0.587922
vn 0.808918 0.000000 0.587922
vn 0.808918 0.000000 0.587922
vn 0.000000 0.808887 0.587964
vn 0.000000 0.808887 0.587964
vn 0.000000 0.808887 0.587964
vn 0.000000 0.808887 0.587964
vn -0.808918 0.000000 0.587922
vn -0.808918 0.000000 0.587922
vn -0.808918 0.000000 0.587922
vn -0.808918 0.000000 0.587922
vn 0.000000 -0.808918 0.587922
vn 0.000000 -0.808918 0.587922
vn 0.000000 -0.808918 0.587922
vn 0.000000 -0.808918 0.587922
vn -0.796152 0.000000 -0.605097
vn -0.796152 0.000000 -0.605097
vn -0.796152 0.000000 -0.605097
vn -0.796152 0.000000 -0.605097
vn 0.000000 0.796137 -0.605117
vn 0.000000 0.796137 -0.605117
vn 0.000000 0.796137 -0.605117
vn 0.000000 0.796137 -0.605117
vn 0.796152 0.000000 -0.605097
vn 0.796152 0.000000 -0.605097
vn 0.796152 0.000000 -0.605097
vn 0.796152 0.000000 -0.605097
vn 0.000000 -0.796167 -0.605077
vn 0.000000 -0.796167 -0.605077
vn 0.000000 -0.796167 -0.605077
vn 0.000000 -0.796167 -0.605077
vn 0.000000 1.000000 -0.000000
vn 0.000000 1.000000 -0.000000
vn 0.000000 1.000000 -0.000000
vn 0.000000 1.000000 -0.000000
vn 0.000000 1.000000 -0.000000
vn 0.000000 1.000000 0.000000
vn 0.000000 1.000000 0.000000
vn 0.000000 1.000000 0.000000
vn 0.000000 1.000000 0.000000
vn 0.000000 1.000000 0.000000
vn 0.000000 1.000000 0.000000
vn 0.000000 1.000000 0.000000
vn 0.000000 1.000000 0.000000
vn 0.000000 1.000000 0.000000
vn 0.000000 1.000000 0.000000
vn 0.000000 1.000000 0.000000
vn 0.000000 1.000000 0.000000
vn 0.000000 1.000000 0.000000
vn 0.000000 1.000000 0.000000
vn 0.000000 1.000000 0.000000
vn 0.000000 1.000000 0.000000
vn 0.000000 1.000000 0.000000
s off
f 1/1/1 2/2/2 4/3/3 3/4/4
f 9/5/5 10/6/6 11/7/7 12/8/8
f 5/9/9 6/10/10 8/11/11 7/12/12
f 13/13/13 14/14/14 15/15/15 16/16/16
f 21/17/17 22/18/18 17/19/19 19/20/20
f 7/21/21 1/22/22 3/23/23 5/24/24
f 3/25/25 4/26/26 10/27/27 9/28/28
f 4/29/29 6/30/30 11/31/31 10/32/32
f 6/33/33 5/34/34 12/35/35 11/36/36
f 5/37/37 3/38/38 9/39/39 12/40/40
f 7/41/41 8/42/42 14/43/43 13/44/44
f 8/45/45 2/46/46 15/47/47 14/48/48
f 2/49/49 1/50/50 16/51/51 15/52/52
f 1/53/53 7/54/54 13/55/55 16/56/56
f 2/57/57 8/78/58 17/75/59 22/60/60 18/61/61
f 8/58/62 6/76/63 19/72/64 17/59/65
f 6/62/66 4/74/67 20/73/68 21/66/69 19/63/70
f 4/64/71 2/77/72 18/71/73 20/65/74
f 18/67/75 22/68/76 21/69/77 20/70/78
