# This file uses centimeters as units for non-parametric coordinates.

v -0.058666 0.000000 0.058670
v 0.058674 0.000000 0.058670
v -0.055965 0.165535 0.055968
v 0.055973 0.165535 0.055968
v -0.055965 0.165535 -0.055968
v 0.055973 0.165535 -0.055968
v -0.058666 0.000000 -0.058670
v 0.058674 0.000000 -0.058670
v -0.058666 0.060753 0.058670
v 0.058674 0.060753 0.058670
v 0.058674 0.060753 -0.058670
v -0.058666 0.060753 -0.058670
v 0.095806 0.052486 -0.095806
v 0.095806 0.052486 0.095806
v -0.095806 0.052486 0.095806
v -0.095806 0.052486 -0.095806
v 0.095806 0.144806 -0.095806
v 0.095806 0.144806 0.095806
v -0.095806 0.144806 0.095806
v -0.095806 0.144806 -0.095806
vt 0.241032 0.440996
vt 0.265759 0.440996
vt 0.333704 0.440996
vt 0.273653 0.440996
vt 0.298380 0.440996
vt 0.333704 0.440996
vt 0.206886 0.440996
vt 0.265759 0.440996
vt 0.206886 0.440996
vt 0.206885 0.440996
vt 0.241032 0.440996
vt 0.273653 0.440996
vt 0.241032 0.440996
vt 0.273653 0.440996
vt 0.333704 0.440996
vt 0.298380 0.440996
vt 0.298380 0.440996
vt 0.333704 0.440996
vt 0.206885 0.440996
vt 0.265759 0.440996
vt 0.241032 0.440996
vt 0.298380 0.440996
vt 0.265759 0.440996
vt 0.273653 0.440996
vt 0.099219 0.442292
vt 0.099219 0.442292
vt 0.265759 0.440996
vt 0.241032 0.440996
vt 0.099219 0.442292
vt 0.241032 0.440996
vt 0.099219 0.442292
vt 0.265759 0.440996
vt 0.265759 0.440996
vt 0.099219 0.442292
vt 0.265759 0.440996
vt 0.241032 0.440996
vt 0.241032 0.440996
vt 0.265759 0.440996
vt 0.241032 0.440996
vt 0.099219 0.442292
vt 0.265759 0.440996
vt 0.241032 0.440996
vt 0.298380 0.440996
vt 0.273653 0.440996
vt 0.273653 0.440996
vt 0.298380 0.440996
vt 0.273653 0.440996
vt 0.298380 0.440996
vt 0.241032 0.440996
vt 0.265759 0.440996
vt 0.273653 0.440996
vt 0.298380 0.440996
vt 0.265759 0.440996
vt 0.241032 0.440996
vt 0.241032 0.440996
vt 0.265759 0.440996
vt 0.099219 0.442292
vt 0.265759 0.440996
vt 0.099219 0.442292
vt 0.241032 0.440996
vt 0.241032 0.440996
vt 0.265759 0.440996
vt 0.265759 0.440996
vt 0.241032 0.440996
vt 0.099219 0.442292
vt 0.099219 0.442292
vt 0.099219 0.442292
vt 0.099219 0.442292
vt 0.099219 0.442292
vt 0.099219 0.442292
vt 0.099219 0.442292
vt 0.099219 0.442292
vn 0.000000 -0.976107 -0.217292
vn 0.000000 -0.976107 -0.217292
vn 0.000000 -0.976107 -0.217292
vn 0.000000 -0.976107 -0.217292
vn 0.000000 1.000000 0.000000
vn 0.000000 1.000000 0.000000
vn 0.000000 1.000000 0.000000
vn 0.000000 1.000000 0.000000
vn 0.000000 -0.976107 0.217293
vn 0.000000 -0.976107 0.217293
vn 0.000000 -0.976107 0.217293
vn 0.000000 -0.976107 0.217293
vn 0.000000 -1.000000 0.000000
vn 0.000000 -1.000000 0.000000
vn 0.000000 -1.000000 0.000000
vn 0.000000 -1.000000 0.000000
vn -0.217314 -0.976102 0.000000
vn -0.217314 -0.976102 0.000000
vn -0.217314 -0.976102 0.000000
vn -0.217314 -0.976102 0.000000
vn 0.217271 -0.976111 0.000000
vn 0.217271 -0.976111 0.000000
vn 0.217271 -0.976111 0.000000
vn 0.217271 -0.976111 0.000000
vn 0.000000 0.000000 1.000000
vn 0.000000 0.000000 1.000000
vn 0.000000 0.000000 1.000000
vn 0.000000 0.000000 1.000000
vn 1.000000 0.000000 0.000000
vn 1.000000 0.000000 0.000000
vn 1.000000 0.000000 0.000000
vn 1.000000 0.000000 0.000000
vn 0.000000 0.000000 -1.000000
vn 0.000000 0.000000 -1.000000
vn 0.000000 0.000000 -1.000000
vn 0.000000 0.000000 -1.000000
vn -1.000000 0.000000 0.000000
vn -1.000000 0.000000 0.000000
vn -1.000000 0.000000 0.000000
vn -1.000000 0.000000 0.000000
vn 1.000000 0.000000 0.000000
vn 1.000000 0.000000 0.000000
vn 1.000000 0.000000 0.000000
vn 1.000000 0.000000 0.000000
vn 0.000000 0.000000 1.000000
vn 0.000000 0.000000 1.000000
vn 0.000000 0.000000 1.000000
vn 0.000000 0.000000 1.000000
vn -1.000000 0.000000 0.000000
vn -1.000000 0.000000 0.000000
vn -1.000000 0.000000 0.000000
vn -1.000000 0.000000 0.000000
vn 0.000000 0.000000 -1.000000
vn 0.000000 0.000000 -1.000000
vn 0.000000 0.000000 -1.000000
vn 0.000000 0.000000 -1.000000
vn 0.461632 0.887072 0.000000
vn 0.461632 0.887072 0.000000
vn 0.461632 0.887072 0.000000
vn 0.461632 0.887072 0.000000
vn 0.000000 0.887097 0.461583
vn 0.000000 0.887097 0.461583
vn 0.000000 0.887097 0.461583
vn 0.000000 0.887097 0.461583
vn -0.461562 0.887108 0.000000
vn -0.461562 0.887108 0.000000
vn -0.461562 0.887108 0.000000
vn -0.461562 0.887108 0.000000
vn 0.000000 0.887097 -0.461584
vn 0.000000 0.887096 -0.461584
vn 0.000000 0.887097 -0.461584
vn 0.000000 0.887097 -0.461584
s off
f 9/71/1 10/26/2 14/68/3 15/31/4
f 3/3/5 4/15/6 6/6/7 5/18/8
f 16/65/9 13/40/10 11/57/11 12/69/12
f 7/7/13 8/19/14 2/10/15 1/9/16
f 10/72/17 11/70/18 13/66/19 14/29/20
f 12/59/21 9/25/22 15/67/23 16/34/24
f 1/23/25 2/2/26 10/27/27 9/62/28
f 2/21/29 8/11/30 11/30/31 10/28/32
f 12/32/33 11/63/34 8/8/35 7/20/36
f 7/13/37 1/1/38 9/61/39 12/64/40
f 14/36/41 13/60/42 17/42/43 18/55/44
f 15/38/45 14/35/46 18/56/47 19/53/48
f 16/39/49 15/37/50 19/54/51 20/49/52
f 20/50/53 17/41/54 13/33/55 16/58/56
f 18/44/57 17/51/58 6/12/59 4/4/60
f 19/46/61 18/43/62 4/22/63 3/17/64
f 20/47/65 19/45/66 3/24/67 5/14/68
f 5/5/69 6/16/70 17/52/71 20/48/72
