# This file uses centimeters as units for non-parametric coordinates.

v -0.024752 0.023251 -0.207033
v 0.024750 0.023251 -0.207033
v -0.024752 0.072753 -0.207033
v 0.024750 0.072753 -0.207033
v -0.024752 0.072753 -0.623038
v 0.024750 0.072753 -0.623038
v -0.024752 0.023251 -0.623038
v 0.024750 0.023251 -0.623038
v -0.048002 0.000000 -0.579731
v -0.048002 0.096004 -0.579731
v 0.048002 0.096004 -0.579731
v 0.048002 0.000000 -0.579731
v -0.048002 0.000000 -0.247172
v -0.048002 0.096004 -0.247173
v 0.048002 0.096004 -0.247173
v 0.048002 0.000000 -0.247172
v -0.010437 0.037566 -0.222469
v -0.010437 0.058438 -0.222469
v 0.010435 0.058438 -0.222469
v 0.010435 0.037566 -0.222469
v 0.010702 0.058706 -0.604776
v -0.010704 0.058706 -0.604776
v -0.010704 0.037299 -0.604776
v 0.010702 0.037299 -0.604776
v -0.024752 0.023251 0.208449
v 0.024750 0.023251 0.208449
v -0.024752 0.072753 0.208449
v 0.024750 0.072753 0.208449
v -0.024752 0.072753 -0.207556
v 0.024750 0.072753 -0.207556
v -0.024752 0.023251 -0.207556
v 0.024750 0.023251 -0.207556
v -0.048002 0.000000 -0.164249
v -0.048002 0.096004 -0.164249
v 0.048002 0.096004 -0.164249
v 0.048002 0.000000 -0.164249
v -0.048002 0.000000 0.168309
v -0.048002 0.096004 0.168309
v 0.048002 0.096004 0.168309
v 0.048002 0.000000 0.168309
v -0.010437 0.037566 0.193012
v -0.010437 0.058438 0.193012
v 0.010435 0.058438 0.193012
v 0.010435 0.037566 0.193012
v 0.010702 0.058706 -0.189294
v -0.010704 0.058706 -0.189294
v -0.010704 0.037299 -0.189294
v 0.010702 0.037299 -0.189294
v -0.024752 0.023251 0.623038
v 0.024750 0.023251 0.623038
v -0.024752 0.072753 0.623038
v 0.024750 0.072753 0.623038
v -0.024752 0.072753 0.207033
v 0.024750 0.072753 0.207033
v -0.024752 0.023251 0.207033
v 0.024750 0.023251 0.207033
v -0.048002 0.000000 0.250340
v -0.048002 0.096004 0.250340
v 0.048002 0.096004 0.250340
v 0.048002 0.000000 0.250340
v -0.048002 0.000000 0.582899
v -0.048002 0.096004 0.582898
v 0.048002 0.096004 0.582898
v 0.048002 0.000000 0.582899
v -0.010437 0.037566 0.607602
v -0.010437 0.058438 0.607602
v 0.010435 0.058438 0.607602
v 0.010435 0.037566 0.607602
v 0.010702 0.058706 0.225295
v -0.010704 0.058706 0.225295
v -0.010704 0.037299 0.225295
v 0.010702 0.037299 0.225295
vt 0.428348 0.181221
vt 0.263906 0.181221
vt 0.488398 0.181221
vt 0.428347 0.181221
vt 0.263906 0.181221
vt 0.488398 0.181221
vt 0.394201 0.181221
vt 0.263906 0.181221
vt 0.394201 0.181221
vt 0.394201 0.181221
vt 0.428347 0.181221
vt 0.428347 0.181221
vt 0.428348 0.181221
vt 0.428348 0.181221
vt 0.488398 0.181221
vt 0.263906 0.181221
vt 0.263906 0.181221
vt 0.488398 0.181221
vt 0.394201 0.181221
vt 0.263906 0.181221
vt 0.428347 0.181221
vt 0.263906 0.181221
vt 0.263906 0.181221
vt 0.428348 0.181221
vt 0.384742 0.181221
vt 0.394201 0.181221
vt 0.428348 0.181221
vt 0.444792 0.181221
vt 0.488398 0.181221
vt 0.384742 0.181221
vt 0.350595 0.181221
vt 0.428347 0.181221
vt 0.428348 0.181221
vt 0.394201 0.181221
vt 0.384742 0.181221
vt 0.488398 0.181221
vt 0.444792 0.181221
vt 0.428347 0.181221
vt 0.350595 0.181221
vt 0.384742 0.181221
vt 0.384742 0.181221
vt 0.350595 0.181221
vt 0.428348 0.181221
vt 0.488398 0.181221
vt 0.488398 0.181221
vt 0.428347 0.181221
vt 0.394201 0.181221
vt 0.428347 0.181221
vt 0.444792 0.181221
vt 0.384742 0.181221
vt 0.428348 0.181221
vt 0.488398 0.181221
vt 0.428348 0.181221
vt 0.394201 0.181221
vt 0.394201 0.181221
vt 0.428347 0.181221
vt 0.350595 0.181221
vt 0.384742 0.181221
vt 0.488398 0.181221
vt 0.428347 0.181221
vt 0.384742 0.181221
vt 0.350595 0.181221
vt 0.444792 0.181221
vt 0.384742 0.181221
vt 0.394201 0.181221
vt 0.384742 0.181221
vt 0.428348 0.181221
vt 0.350595 0.181221
vt 0.384742 0.181221
vt 0.350595 0.181221
vt 0.428348 0.181221
vt 0.394201 0.181221
vt 0.444792 0.181221
vt 0.384742 0.181221
vt 0.384742 0.181221
vt 0.444792 0.181221
vt 0.488398 0.181221
vt 0.384742 0.181221
vt 0.428348 0.181221
vt 0.444792 0.181221
vt 0.428347 0.181221
vt 0.394201 0.181221
vt 0.384742 0.181221
vt 0.350595 0.181221
vt 0.444792 0.181221
vt 0.428347 0.181221
vt 0.384742 0.181221
vt 0.488398 0.181221
vt 0.263906 0.181221
vt 0.263906 0.181221
vt 0.263906 0.181221
vt 0.263906 0.181221
vt 0.444792 0.181221
vt 0.444792 0.181221
vt 0.444792 0.181221
vt 0.444792 0.181221
vt 0.263906 0.181221
vt 0.263906 0.181221
vt 0.263906 0.181221
vt 0.263906 0.181221
vt 0.350595 0.181221
vt 0.350595 0.181221
vt 0.350595 0.181221
vt 0.350595 0.181221
vt 0.384742 0.181221
vt 0.384742 0.181221
vt 0.384742 0.181221
vt 0.384742 0.181221
vt 0.384742 0.181221
vt 0.384742 0.181221
vt 0.384742 0.181221
vt 0.384742 0.181221
vt 0.428348 0.181221
vt 0.428348 0.181221
vt 0.428348 0.181221
vt 0.428348 0.181221
vt 0.488398 0.181221
vt 0.488398 0.181221
vt 0.488398 0.181221
vt 0.488398 0.181221
vt 0.428347 0.181221
vt 0.428347 0.181221
vt 0.428347 0.181221
vt 0.428347 0.181221
vt 0.394201 0.181221
vt 0.394201 0.181221
vt 0.394201 0.181221
vt 0.394201 0.181221
vt 0.384742 0.181221
vt 0.384742 0.181221
vt 0.384742 0.181221
vt 0.384742 0.181221
vt 0.444792 0.181221
vt 0.444792 0.181221
vt 0.444792 0.181221
vt 0.444792 0.181221
vt 0.384742 0.181221
vt 0.384742 0.181221
vt 0.384742 0.181221
vt 0.384742 0.181221
vt 0.350595 0.181221
vt 0.350595 0.181221
vt 0.350595 0.181221
vt 0.350595 0.181221
vt 0.428348 0.181221
vt 0.428348 0.181221
vt 0.428348 0.181221
vt 0.428348 0.181221
vt 0.488398 0.181221
vt 0.488398 0.181221
vt 0.488398 0.181221
vt 0.488398 0.181221
vt 0.428347 0.181221
vt 0.428347 0.181221
vt 0.428347 0.181221
vt 0.428347 0.181221
vt 0.394201 0.181221
vt 0.394201 0.181221
vt 0.394201 0.181221
vt 0.394201 0.181221
vt 0.488398 0.181221
vt 0.488398 0.181221
vt 0.488398 0.181221
vt 0.488398 0.181221
vt 0.428348 0.181221
vt 0.428348 0.181221
vt 0.428348 0.181221
vt 0.428348 0.181221
vt 0.394201 0.181221
vt 0.394201 0.181221
vt 0.394201 0.181221
vt 0.394201 0.181221
vt 0.428347 0.181221
vt 0.428347 0.181221
vt 0.428347 0.181221
vt 0.428347 0.181221
vt 0.263906 0.181221
vt 0.263906 0.181221
vt 0.263906 0.181221
vt 0.263906 0.181221
vt 0.444792 0.181221
vt 0.444792 0.181221
vt 0.444792 0.181221
vt 0.444792 0.181221
vt 0.263906 0.181221
vt 0.263906 0.181221
vt 0.263906 0.181221
vt 0.263906 0.181221
vt 0.350595 0.181221
vt 0.350595 0.181221
vt 0.350595 0.181221
vt 0.350595 0.181221
vt 0.384742 0.181221
vt 0.384742 0.181221
vt 0.384742 0.181221
vt 0.384742 0.181221
vt 0.384742 0.181221
vt 0.384742 0.181221
vt 0.384742 0.181221
vt 0.384742 0.181221
vt 0.428348 0.181221
vt 0.428348 0.181221
vt 0.428348 0.181221
vt 0.428348 0.181221
vt 0.488398 0.181221
vt 0.488398 0.181221
vt 0.488398 0.181221
vt 0.488398 0.181221
vt 0.428347 0.181221
vt 0.428347 0.181221
vt 0.428347 0.181221
vt 0.428347 0.181221
vt 0.394201 0.181221
vt 0.394201 0.181221
vt 0.394201 0.181221
vt 0.394201 0.181221
vt 0.384742 0.181221
vt 0.384742 0.181221
vt 0.384742 0.181221
vt 0.384742 0.181221
vt 0.444792 0.181221
vt 0.444792 0.181221
vt 0.444792 0.181221
vt 0.444792 0.181221
vt 0.384742 0.181221
vt 0.384742 0.181221
vt 0.384742 0.181221
vt 0.384742 0.181221
vt 0.350595 0.181221
vt 0.350595 0.181221
vt 0.350595 0.181221
vt 0.350595 0.181221
vt 0.428348 0.181221
vt 0.428348 0.181221
vt 0.428348 0.181221
vt 0.428348 0.181221
vt 0.488398 0.181221
vt 0.488398 0.181221
vt 0.488398 0.181221
vt 0.488398 0.181221
vt 0.428347 0.181221
vt 0.428347 0.181221
vt 0.428347 0.181221
vt 0.428347 0.181221
vt 0.394201 0.181221
vt 0.394201 0.181221
vt 0.394201 0.181221
vt 0.394201 0.181221
vt 0.488398 0.181221
vt 0.488398 0.181221
vt 0.488398 0.181221
vt 0.488398 0.181221
vt 0.428348 0.181221
vt 0.428348 0.181221
vt 0.428348 0.181221
vt 0.428348 0.181221
vt 0.394201 0.181221
vt 0.394201 0.181221
vt 0.394201 0.181221
vt 0.394201 0.181221
vt 0.428347 0.181221
vt 0.428347 0.181221
vt 0.428347 0.181221
vt 0.428347 0.181221
vn 0.000000 0.000000 1.000000
vn 0.000000 0.000000 1.000000
vn 0.000000 0.000000 1.000000
vn 0.000000 0.000000 1.000000
vn 0.000000 0.557454 -0.830208
vn 0.000000 0.557454 -0.830208
vn 0.000000 0.557454 -0.830208
vn 0.000000 0.557454 -0.830208
vn 0.000000 0.000000 -1.000000
vn 0.000000 0.000000 -1.000000
vn 0.000000 0.000000 -1.000000
vn 0.000000 0.000000 -1.000000
vn 0.000000 -0.557454 -0.830208
vn 0.000000 -0.557454 -0.830208
vn 0.000000 -0.557454 -0.830208
vn 0.000000 -0.557454 -0.830208
vn 0.557440 0.000000 -0.830217
vn 0.557440 0.000000 -0.830217
vn 0.557440 0.000000 -0.830217
vn 0.557440 0.000000 -0.830217
vn -0.557459 0.000000 -0.830204
vn -0.557459 0.000000 -0.830204
vn -0.557459 0.000000 -0.830204
vn -0.557459 0.000000 -0.830204
vn -1.000000 0.000000 0.000000
vn -1.000000 0.000000 0.000000
vn -1.000000 0.000000 0.000000
vn -1.000000 0.000000 0.000000
vn 0.000000 1.000000 0.000000
vn 0.000000 1.000000 0.000000
vn 0.000000 1.000000 0.000000
vn 0.000000 1.000000 0.000000
vn 1.000000 0.000000 0.000000
vn 1.000000 0.000000 0.000000
vn 1.000000 0.000000 0.000000
vn 1.000000 0.000000 0.000000
vn 0.000000 -1.000000 0.000000
vn 0.000000 -1.000000 0.000000
vn 0.000000 -1.000000 0.000000
vn 0.000000 -1.000000 0.000000
vn -0.549452 0.000002 0.835525
vn -0.549452 0.000002 0.835525
vn -0.549452 0.000002 0.835525
vn -0.549452 0.000002 0.835525
vn 0.000000 0.549446 0.835530
vn 0.000000 0.549446 0.835530
vn 0.000000 0.549446 0.835530
vn 0.000000 0.549446 0.835530
vn 0.549433 0.000002 0.835538
vn 0.549433 0.000002 0.835538
vn 0.549433 0.000002 0.835538
vn 0.549433 0.000002 0.835538
vn 0.000000 -0.549442 0.835532
vn 0.000000 -0.549442 0.835532
vn 0.000000 -0.549442 0.835532
vn 0.000000 -0.549442 0.835532
vn -0.733242 0.000000 -0.679968
vn -0.733242 0.000000 -0.679968
vn -0.733242 0.000000 -0.679968
vn -0.733242 0.000000 -0.679968
vn 0.000000 0.733242 -0.679968
vn 0.000000 0.733242 -0.679968
vn 0.000000 0.733242 -0.679968
vn 0.000000 0.733242 -0.679968
vn 0.733242 0.000000 -0.679968
vn 0.733242 0.000000 -0.679968
vn 0.733242 0.000000 -0.679968
vn 0.733242 0.000000 -0.679968
vn 0.000000 -0.733242 -0.679968
vn 0.000000 -0.733242 -0.679968
vn 0.000000 -0.733242 -0.679968
vn 0.000000 -0.733242 -0.679968
vn 0.000000 0.792639 0.609691
vn 0.000000 0.792639 0.609691
vn 0.000000 0.792639 0.609691
vn 0.000000 0.792639 0.609691
vn -0.792632 0.000000 0.609701
vn -0.792632 0.000000 0.609701
vn -0.792632 0.000000 0.609701
vn -0.792632 0.000000 0.609701
vn 0.000000 -0.792639 0.609691
vn 0.000000 -0.792639 0.609691
vn 0.000000 -0.792639 0.609691
vn 0.000000 -0.792639 0.609691
vn 0.792631 0.000000 0.609701
vn 0.792631 0.000000 0.609701
vn 0.792631 0.000000 0.609701
vn 0.792631 0.000000 0.609701
vn 0.000000 0.000000 1.000000
vn 0.000000 0.000000 1.000000
vn 0.000000 0.000000 1.000000
vn 0.000000 0.000000 1.000000
vn 0.000000 0.557454 -0.830208
vn 0.000000 0.557454 -0.830208
vn 0.000000 0.557454 -0.830208
vn 0.000000 0.557454 -0.830208
vn 0.000000 0.000000 -1.000000
vn 0.000000 0.000000 -1.000000
vn 0.000000 0.000000 -1.000000
vn 0.000000 0.000000 -1.000000
vn 0.000000 -0.557454 -0.830208
vn 0.000000 -0.557454 -0.830208
vn 0.000000 -0.557454 -0.830208
vn 0.000000 -0.557454 -0.830208
vn 0.557439 0.000000 -0.830218
vn 0.557439 0.000000 -0.830218
vn 0.557439 0.000000 -0.830218
vn 0.557439 0.000000 -0.830218
vn -0.557459 0.000000 -0.830205
vn -0.557459 0.000000 -0.830205
vn -0.557459 0.000000 -0.830205
vn -0.557459 0.000000 -0.830205
vn -1.000000 0.000000 0.000000
vn -1.000000 0.000000 0.000000
vn -1.000000 0.000000 0.000000
vn -1.000000 0.000000 0.000000
vn 0.000000 1.000000 0.000000
vn 0.000000 1.000000 0.000000
vn 0.000000 1.000000 0.000000
vn 0.000000 1.000000 0.000000
vn 1.000000 0.000000 0.000000
vn 1.000000 0.000000 0.000000
vn 1.000000 0.000000 0.000000
vn 1.000000 0.000000 0.000000
vn 0.000000 -1.000000 0.000000
vn 0.000000 -1.000000 0.000000
vn 0.000000 -1.000000 0.000000
vn 0.000000 -1.000000 0.000000
vn -0.549452 0.000002 0.835525
vn -0.549452 0.000002 0.835525
vn -0.549452 0.000002 0.835525
vn -0.549452 0.000002 0.835525
vn 0.000000 0.549446 0.835530
vn 0.000000 0.549446 0.835530
vn 0.000000 0.549446 0.835530
vn 0.000000 0.549446 0.835530
vn 0.549433 0.000002 0.835538
vn 0.549433 0.000002 0.835538
vn 0.549433 0.000002 0.835538
vn 0.549433 0.000002 0.835538
vn 0.000000 -0.549442 0.835532
vn 0.000000 -0.549442 0.835532
vn 0.000000 -0.549442 0.835532
vn 0.000000 -0.549442 0.835532
vn -0.733242 0.000000 -0.679968
vn -0.733242 0.000000 -0.679968
vn -0.733242 0.000000 -0.679968
vn -0.733242 0.000000 -0.679968
vn 0.000000 0.733242 -0.679968
vn 0.000000 0.733242 -0.679968
vn 0.000000 0.733242 -0.679968
vn 0.000000 0.733242 -0.679968
vn 0.733242 0.000000 -0.679968
vn 0.733242 0.000000 -0.679968
vn 0.733242 0.000000 -0.679968
vn 0.733242 0.000000 -0.679968
vn 0.000000 -0.733242 -0.679968
vn 0.000000 -0.733242 -0.679968
vn 0.000000 -0.733242 -0.679968
vn 0.000000 -0.733242 -0.679968
vn 0.000000 0.792639 0.609691
vn 0.000000 0.792639 0.609691
vn 0.000000 0.792639 0.609691
vn 0.000000 0.792639 0.609691
vn -0.792632 0.000000 0.609701
vn -0.792632 0.000000 0.609701
vn -0.792632 0.000000 0.609701
vn -0.792632 0.000000 0.609701
vn 0.000000 -0.792639 0.609691
vn 0.000000 -0.792639 0.609691
vn 0.000000 -0.792639 0.609691
vn 0.000000 -0.792639 0.609691
vn 0.792632 0.000000 0.609701
vn 0.792632 0.000000 0.609701
vn 0.792632 0.000000 0.609701
vn 0.792632 0.000000 0.609701
vn 0.000000 0.000000 1.000000
vn 0.000000 0.000000 1.000000
vn 0.000000 0.000000 1.000000
vn 0.000000 0.000000 1.000000
vn 0.000000 0.557454 -0.830208
vn 0.000000 0.557454 -0.830208
vn 0.000000 0.557454 -0.830208
vn 0.000000 0.557454 -0.830208
vn 0.000000 0.000000 -1.000000
vn 0.000000 0.000000 -1.000000
vn 0.000000 0.000000 -1.000000
vn 0.000000 0.000000 -1.000000
vn 0.000000 -0.557454 -0.830208
vn 0.000000 -0.557454 -0.830208
vn 0.000000 -0.557454 -0.830208
vn 0.000000 -0.557454 -0.830208
vn 0.557439 0.000000 -0.830218
vn 0.557439 0.000000 -0.830218
vn 0.557439 0.000000 -0.830218
vn 0.557439 0.000000 -0.830218
vn -0.557458 0.000000 -0.830205
vn -0.557458 0.000000 -0.830205
vn -0.557458 0.000000 -0.830205
vn -0.557458 0.000000 -0.830205
vn -1.000000 0.000000 0.000000
vn -1.000000 0.000000 0.000000
vn -1.000000 0.000000 0.000000
vn -1.000000 0.000000 0.000000
vn 0.000000 1.000000 0.000000
vn 0.000000 1.000000 0.000000
vn 0.000000 1.000000 0.000000
vn 0.000000 1.000000 0.000000
vn 1.000000 0.000000 0.000000
vn 1.000000 0.000000 0.000000
vn 1.000000 0.000000 0.000000
vn 1.000000 0.000000 0.000000
vn 0.000000 -1.000000 0.000000
vn 0.000000 -1.000000 0.000000
vn 0.000000 -1.000000 0.000000
vn 0.000000 -1.000000 0.000000
vn -0.549450 0.000001 0.835526
vn -0.549450 0.000001 0.835526
vn -0.549450 0.000001 0.835526
vn -0.549450 0.000001 0.835526
vn 0.000000 0.549444 0.835531
vn 0.000000 0.549444 0.835531
vn 0.000000 0.549444 0.835531
vn 0.000000 0.549444 0.835531
vn 0.549431 0.000001 0.835539
vn 0.549431 0.000001 0.835539
vn 0.549431 0.000001 0.835539
vn 0.549431 0.000001 0.835539
vn 0.000000 -0.549442 0.835532
vn 0.000000 -0.549442 0.835532
vn 0.000000 -0.549442 0.835532
vn 0.000000 -0.549442 0.835532
vn -0.733245 0.000000 -0.679964
vn -0.733245 0.000000 -0.679964
vn -0.733245 0.000000 -0.679964
vn -0.733245 0.000000 -0.679964
vn 0.000000 0.733245 -0.679965
vn 0.000000 0.733245 -0.679965
vn 0.000000 0.733245 -0.679965
vn 0.000000 0.733245 -0.679965
vn 0.733245 0.000000 -0.679964
vn 0.733245 0.000000 -0.679964
vn 0.733245 0.000000 -0.679964
vn 0.733245 0.000000 -0.679964
vn 0.000000 -0.733245 -0.679965
vn 0.000000 -0.733245 -0.679965
vn 0.000000 -0.733245 -0.679965
vn 0.000000 -0.733245 -0.679965
vn 0.000000 0.792639 0.609691
vn 0.000000 0.792639 0.609691
vn 0.000000 0.792639 0.609691
vn 0.000000 0.792639 0.609691
vn -0.792632 0.000000 0.609700
vn -0.792632 0.000000 0.609700
vn -0.792632 0.000000 0.609700
vn -0.792632 0.000000 0.609700
vn 0.000000 -0.792639 0.609691
vn 0.000000 -0.792639 0.609691
vn 0.000000 -0.792639 0.609691
vn 0.000000 -0.792639 0.609691
vn 0.792632 0.000000 0.609700
vn 0.792632 0.000000 0.609700
vn 0.792632 0.000000 0.609700
vn 0.792632 0.000000 0.609700
s off
f 1/23/1 2/2/2 4/22/3 3/17/4
f 10/28/5 11/85/6 21/49/7 22/63/8
f 5/5/9 6/16/10 8/8/11 7/20/12
f 23/62/13 24/57/14 12/31/15 9/68/16
f 11/30/17 12/66/18 24/58/19 21/50/20
f 22/64/21 23/61/22 9/25/23 10/87/24
f 10/27/25 9/67/26 13/33/27 14/79/28
f 14/36/29 15/77/30 11/29/31 10/88/32
f 15/38/33 16/81/34 12/32/35 11/86/36
f 9/26/37 12/65/38 16/82/39 13/34/40
f 14/35/41 13/83/42 17/41/43 18/75/44
f 18/76/45 19/73/46 15/37/47 14/80/48
f 19/74/49 20/69/50 16/40/51 15/78/52
f 13/84/53 16/39/54 20/70/55 17/42/56
f 18/43/57 17/71/58 1/1/59 3/24/60
f 3/3/61 4/15/62 19/45/63 18/44/64
f 2/21/65 20/48/66 19/46/67 4/4/68
f 17/72/69 20/47/70 2/10/71 1/9/72
f 22/52/73 21/59/74 6/6/75 5/18/76
f 7/13/77 23/53/78 22/51/79 5/14/80
f 7/7/81 8/19/82 24/55/83 23/54/84
f 21/60/85 24/56/86 8/11/87 6/12/88
f 25/89/89 26/90/90 28/91/91 27/92/92
f 34/93/93 35/94/94 45/95/95 46/96/96
f 29/97/97 30/98/98 32/99/99 31/100/100
f 47/101/101 48/102/102 36/103/103 33/104/104
f 35/105/105 36/106/106 48/107/107 45/108/108
f 46/109/109 47/110/110 33/111/111 34/112/112
f 34/113/113 33/114/114 37/115/115 38/116/116
f 38/117/117 39/118/118 35/119/119 34/120/120
f 39/121/121 40/122/122 36/123/123 35/124/124
f 33/125/125 36/126/126 40/127/127 37/128/128
f 38/129/129 37/130/130 41/131/131 42/132/132
f 42/133/133 43/134/134 39/135/135 38/136/136
f 43/137/137 44/138/138 40/139/139 39/140/140
f 37/141/141 40/142/142 44/143/143 41/144/144
f 42/145/145 41/146/146 25/147/147 27/148/148
f 27/149/149 28/150/150 43/151/151 42/152/152
f 26/153/153 44/154/154 43/155/155 28/156/156
f 41/157/157 44/158/158 26/159/159 25/160/160
f 46/161/161 45/162/162 30/163/163 29/164/164
f 31/165/165 47/166/166 46/167/167 29/168/168
f 31/169/169 32/170/170 48/171/171 47/172/172
f 45/173/173 48/174/174 32/175/175 30/176/176
f 49/177/177 50/178/178 52/179/179 51/180/180
f 58/181/181 59/182/182 69/183/183 70/184/184
f 53/185/185 54/186/186 56/187/187 55/188/188
f 71/189/189 72/190/190 60/191/191 57/192/192
f 59/193/193 60/194/194 72/195/195 69/196/196
f 70/197/197 71/198/198 57/199/199 58/200/200
f 58/201/201 57/202/202 61/203/203 62/204/204
f 62/205/205 63/206/206 59/207/207 58/208/208
f 63/209/209 64/210/210 60/211/211 59/212/212
f 57/213/213 60/214/214 64/215/215 61/216/216
f 62/217/217 61/218/218 65/219/219 66/220/220
f 66/221/221 67/222/222 63/223/223 62/224/224
f 67/225/225 68/226/226 64/227/227 63/228/228
f 61/229/229 64/230/230 68/231/231 65/232/232
f 66/233/233 65/234/234 49/235/235 51/236/236
f 51/237/237 52/238/238 67/239/239 66/240/240
f 50/241/241 68/242/242 67/243/243 52/244/244
f 65/245/245 68/246/246 50/247/247 49/248/248
f 70/249/249 69/250/250 54/251/251 53/252/252
f 55/253/253 71/254/254 70/255/255 53/256/256
f 55/257/257 56/258/258 72/259/259 71/260/260
f 69/261/261 72/262/262 56/263/263 54/264/264
