# This file uses centimeters as units for non-parametric coordinates.

v -0.025793 0.029546 0.091807
v 0.025789 0.029546 0.091807
v -0.025793 0.068165 0.091807
v 0.025789 0.068165 0.091807
v -0.045370 0.082823 -0.187034
v 0.045366 0.082823 -0.187034
v -0.045370 0.014888 -0.187034
v 0.045366 0.014888 -0.187034
v -0.065252 0.000000 0.013109
v -0.065252 0.097710 0.013109
v 0.065252 0.097710 0.013109
v 0.065252 0.000000 0.013109
v 0.065252 0.097710 -0.147988
v -0.065252 0.097710 -0.147988
v -0.065252 0.000000 -0.147988
v 0.065252 0.000000 -0.147988
v -0.025793 0.029546 0.131695
v 0.025789 0.029546 0.131695
v 0.025789 0.068165 0.131695
v -0.025793 0.068165 0.131695
v -0.031393 0.025351 0.143151
v 0.031393 0.025351 0.143151
v 0.031393 0.072359 0.143151
v -0.031393 0.072359 0.143151
v -0.031393 0.025351 0.176852
v 0.031393 0.025351 0.176852
v 0.031393 0.072359 0.176852
v -0.031393 0.072359 0.176852
v -0.019659 0.034137 0.187033
v 0.019659 0.034137 0.187033
v 0.019659 0.063574 0.187033
v -0.019659 0.063574 0.187033
vt 0.296050 0.445672
vt 0.296050 0.445672
vt 0.296050 0.445672
vt 0.296050 0.445672
vt 0.304392 0.046634
vt 0.304392 0.046634
vt 0.304392 0.046634
vt 0.304392 0.046634
vt 0.231486 0.046634
vt 0.231486 0.046634
vt 0.231486 0.046634
vt 0.231486 0.046634
vt 0.210195 0.046634
vt 0.210195 0.046634
vt 0.210195 0.046634
vt 0.210195 0.046634
vt 0.244341 0.046634
vt 0.244341 0.046634
vt 0.244341 0.046634
vt 0.244341 0.046634
vt 0.244341 0.046634
vt 0.244341 0.046634
vt 0.244341 0.046634
vt 0.244341 0.046634
vt 0.206759 0.046634
vt 0.206759 0.046634
vt 0.206759 0.046634
vt 0.206759 0.046634
vt 0.266810 0.046634
vt 0.266810 0.046634
vt 0.266810 0.046634
vt 0.266810 0.046634
vt 0.206759 0.046634
vt 0.206759 0.046634
vt 0.206759 0.046634
vt 0.206759 0.046634
vt 0.172613 0.046634
vt 0.172613 0.046634
vt 0.172613 0.046634
vt 0.172613 0.046634
vt 0.266810 0.046634
vt 0.266810 0.046634
vt 0.266810 0.046634
vt 0.266810 0.046634
vt 0.206759 0.046634
vt 0.206759 0.046634
vt 0.206759 0.046634
vt 0.206759 0.046634
vt 0.172613 0.046634
vt 0.172613 0.046634
vt 0.172613 0.046634
vt 0.172613 0.046634
vt 0.206759 0.046634
vt 0.206759 0.046634
vt 0.206759 0.046634
vt 0.206759 0.046634
vt 0.233413 0.442781
vt 0.233413 0.442781
vt 0.233413 0.442781
vt 0.233413 0.442781
vt 0.270032 0.445672
vt 0.270032 0.445672
vt 0.270032 0.445672
vt 0.270032 0.445672
vt 0.330741 0.445672
vt 0.330741 0.445672
vt 0.330741 0.445672
vt 0.330741 0.445672
vt 0.270032 0.445672
vt 0.270032 0.445672
vt 0.270032 0.445672
vt 0.270032 0.445672
vt 0.233413 0.442781
vt 0.233413 0.442781
vt 0.233413 0.442781
vt 0.233413 0.442781
vt 0.270032 0.445672
vt 0.270032 0.445672
vt 0.270032 0.445672
vt 0.270032 0.445672
vt 0.330741 0.445672
vt 0.330741 0.445672
vt 0.330741 0.445672
vt 0.330741 0.445672
vt 0.270032 0.445672
vt 0.270032 0.445672
vt 0.270032 0.445672
vt 0.270032 0.445672
vt 0.233413 0.442781
vt 0.233413 0.442781
vt 0.233413 0.442781
vt 0.233413 0.442781
vt 0.270032 0.445672
vt 0.270032 0.445672
vt 0.270032 0.445672
vt 0.270032 0.445672
vt 0.330741 0.445672
vt 0.330741 0.445672
vt 0.330741 0.445672
vt 0.330741 0.445672
vt 0.270032 0.445672
vt 0.270032 0.445672
vt 0.270032 0.445672
vt 0.270032 0.445672
vt 0.233413 0.442781
vt 0.233413 0.442781
vt 0.233413 0.442781
vt 0.233413 0.442781
vt 0.270032 0.445672
vt 0.270032 0.445672
vt 0.270032 0.445672
vt 0.270032 0.445672
vt 0.330741 0.445672
vt 0.330741 0.445672
vt 0.330741 0.445672
vt 0.330741 0.445672
vt 0.270032 0.445672
vt 0.270032 0.445672
vt 0.270032 0.445672
vt 0.270032 0.445672
vn 0.000000 0.000000 1.000000
vn 0.000000 0.000000 1.000000
vn 0.000000 0.000000 1.000000
vn 0.000000 0.000000 1.000000
vn 0.000000 1.000000 0.000000
vn 0.000000 1.000000 0.000000
vn 0.000000 1.000000 0.000000
vn 0.000000 1.000000 0.000000
vn 0.000000 0.000000 -1.000000
vn 0.000000 0.000000 -1.000000
vn 0.000000 0.000000 -1.000000
vn 0.000000 0.000000 -1.000000
vn 0.000000 -1.000000 0.000000
vn 0.000000 -1.000000 0.000000
vn 0.000000 -1.000000 0.000000
vn 0.000000 -1.000000 0.000000
vn 1.000000 0.000000 0.000000
vn 1.000000 0.000000 0.000000
vn 1.000000 0.000000 0.000000
vn 1.000000 0.000000 0.000000
vn -1.000000 0.000000 0.000000
vn -1.000000 0.000000 0.000000
vn -1.000000 0.000000 0.000000
vn -1.000000 0.000000 0.000000
vn -0.893927 0.000000 0.448212
vn -0.893927 0.000000 0.448212
vn -0.893927 0.000000 0.448212
vn -0.893927 0.000000 0.448212
vn 0.000000 0.936197 0.351475
vn 0.000000 0.936197 0.351475
vn 0.000000 0.936197 0.351475
vn 0.000000 0.936197 0.351475
vn 0.893910 0.000000 0.448247
vn 0.893910 0.000000 0.448247
vn 0.893910 0.000000 0.448247
vn 0.893910 0.000000 0.448247
vn 0.000000 -0.936197 0.351475
vn 0.000000 -0.936197 0.351475
vn 0.000000 -0.936197 0.351475
vn 0.000000 -0.936197 0.351475
vn 0.000000 0.934382 -0.356273
vn 0.000000 0.934382 -0.356273
vn 0.000000 0.934382 -0.356273
vn 0.000000 0.934382 -0.356273
vn -0.891121 0.000000 -0.453766
vn -0.891121 0.000000 -0.453766
vn -0.891121 0.000000 -0.453766
vn -0.891121 0.000000 -0.453766
vn 0.000000 -0.934383 -0.356270
vn 0.000000 -0.934383 -0.356270
vn 0.000000 -0.934383 -0.356270
vn 0.000000 -0.934383 -0.356270
vn 0.891086 0.000000 -0.453835
vn 0.891086 0.000000 -0.453835
vn 0.891086 0.000000 -0.453835
vn 0.891086 0.000000 -0.453835
vn 0.000000 -1.000000 0.000000
vn 0.000000 -1.000000 0.000000
vn 0.000000 -1.000000 0.000000
vn 0.000000 -1.000000 0.000000
vn 1.000000 0.000000 0.000000
vn 1.000000 0.000000 0.000000
vn 1.000000 0.000000 0.000000
vn 1.000000 0.000000 0.000000
vn 0.000000 1.000000 0.000000
vn 0.000000 1.000000 0.000000
vn 0.000000 1.000000 0.000000
vn 0.000000 1.000000 0.000000
vn -1.000000 0.000000 0.000000
vn -1.000000 0.000000 0.000000
vn -1.000000 0.000000 0.000000
vn -1.000000 0.000000 0.000000
vn 0.000000 -0.939040 -0.343807
vn 0.000000 -0.939040 -0.343807
vn 0.000000 -0.939040 -0.343807
vn 0.000000 -0.939040 -0.343807
vn 0.898286 0.000000 -0.439412
vn 0.898286 0.000000 -0.439412
vn 0.898286 0.000000 -0.439412
vn 0.898286 0.000000 -0.439412
vn 0.000000 0.939040 -0.343807
vn 0.000000 0.939040 -0.343807
vn 0.000000 0.939040 -0.343807
vn 0.000000 0.939040 -0.343807
vn -0.898404 0.000000 -0.439171
vn -0.898404 0.000000 -0.439171
vn -0.898404 0.000000 -0.439171
vn -0.898404 0.000000 -0.439171
vn 0.000000 -1.000000 0.000000
vn 0.000000 -1.000000 0.000000
vn 0.000000 -1.000000 0.000000
vn 0.000000 -1.000000 0.000000
vn 1.000000 0.000000 0.000000
vn 1.000000 0.000000 0.000000
vn 1.000000 0.000000 0.000000
vn 1.000000 0.000000 0.000000
vn 0.000000 1.000000 0.000000
vn 0.000000 1.000000 0.000000
vn 0.000000 1.000000 0.000000
vn 0.000000 1.000000 0.000000
vn -1.000000 0.000000 0.000000
vn -1.000000 0.000000 0.000000
vn -1.000000 0.000000 0.000000
vn -1.000000 0.000000 0.000000
vn 0.000000 -0.757110 0.653287
vn 0.000000 -0.757110 0.653287
vn 0.000000 -0.757110 0.653287
vn 0.000000 -0.757110 0.653287
vn 0.655369 0.000000 0.755309
vn 0.655369 0.000000 0.755309
vn 0.655369 0.000000 0.755309
vn 0.655369 0.000000 0.755309
vn 0.000000 0.757110 0.653287
vn 0.000000 0.757110 0.653287
vn 0.000000 0.757110 0.653287
vn 0.000000 0.757110 0.653287
vn -0.655369 0.000000 0.755309
vn -0.655369 0.000000 0.755309
vn -0.655369 0.000000 0.755309
vn -0.655369 0.000000 0.755309
s off
f 29/1/1 30/2/2 31/3/3 32/4/4
f 10/5/5 11/6/6 13/7/7 14/8/8
f 5/9/9 6/10/10 8/11/11 7/12/12
f 15/13/13 16/14/14 12/15/15 9/16/16
f 11/17/17 12/18/18 16/19/19 13/20/20
f 14/21/21 15/22/22 9/23/23 10/24/24
f 10/25/25 9/26/26 1/27/27 3/28/28
f 3/29/29 4/30/30 11/31/31 10/32/32
f 2/33/33 12/34/34 11/35/35 4/36/36
f 9/37/37 12/38/38 2/39/39 1/40/40
f 14/41/41 13/42/42 6/43/43 5/44/44
f 7/45/45 15/46/46 14/47/47 5/48/48
f 7/49/49 8/50/50 16/51/51 15/52/52
f 13/53/53 16/54/54 8/55/55 6/56/56
f 1/57/57 2/58/58 18/59/59 17/60/60
f 2/61/61 4/62/62 19/63/63 18/64/64
f 4/65/65 3/66/66 20/67/67 19/68/68
f 3/69/69 1/70/70 17/71/71 20/72/72
f 17/73/73 18/74/74 22/75/75 21/76/76
f 18/77/77 19/78/78 23/79/79 22/80/80
f 19/81/81 20/82/82 24/83/83 23/84/84
f 20/85/85 17/86/86 21/87/87 24/88/88
f 21/89/89 22/90/90 26/91/91 25/92/92
f 22/93/93 23/94/94 27/95/95 26/96/96
f 23/97/97 24/98/98 28/99/99 27/100/100
f 24/101/101 21/102/102 25/103/103 28/104/104
f 25/105/105 26/106/106 30/107/107 29/108/108
f 26/109/109 27/110/110 31/111/111 30/112/112
f 27/113/113 28/114/114 32/115/115 31/116/116
f 28/117/117 25/118/118 29/119/119 32/120/120
