# This file uses centimeters as units for non-parametric coordinates.

v -0.187822 0.000000 0.159619
v 0.187822 0.000000 0.023618
v -0.187822 0.259520 0.159619
v 0.187822 0.259520 0.023618
v -0.187822 0.259520 -0.159619
v 0.187822 0.259520 -0.023618
v -0.187822 0.000000 -0.159619
v 0.187822 0.000000 -0.023618
v -0.187822 0.207527 0.159619
v 0.187822 0.207527 0.023618
v 0.187822 0.207527 -0.023618
v -0.187822 0.207527 -0.159619
v -0.187822 0.187620 0.159619
v 0.187822 0.187620 0.023618
v 0.187822 0.187620 -0.023618
v -0.187822 0.187620 -0.159619
v -0.187822 0.161946 0.159619
v 0.187822 0.161946 0.023618
v 0.187822 0.161946 -0.023618
v -0.187822 0.161946 -0.159619
v -0.187822 0.170099 0.159619
v 0.187822 0.170099 0.023618
v 0.187822 0.170098 -0.023618
v -0.187822 0.170098 -0.159619
v -0.187822 0.102788 0.159619
v 0.187822 0.102788 0.023618
v 0.187822 0.102788 -0.023618
v -0.187822 0.102788 -0.159619
v -0.187822 0.064062 0.159619
v 0.187822 0.064062 0.023618
v 0.187822 0.064062 -0.023618
v -0.187822 0.064062 -0.159619
v -0.162058 0.064062 -0.150293
v -0.162058 0.102788 -0.150293
v -0.162058 0.170098 -0.150293
v -0.162058 0.161946 -0.150293
v -0.162058 0.187620 -0.150293
v -0.162058 0.207527 -0.150293
v -0.162058 0.259520 -0.150293
v -0.162058 0.259520 0.150293
v -0.162058 0.207527 0.150293
v -0.162058 0.187620 0.150293
v -0.162058 0.161946 0.150293
v -0.162058 0.170099 0.150293
v -0.162058 0.102788 0.150293
v -0.162058 0.064062 0.150293
v -0.162058 0.000000 0.150293
v -0.162058 0.000000 -0.150293
v -0.100842 0.259520 -0.038967
v -0.100842 0.259520 0.038967
v -0.020150 0.259520 0.038967
v -0.020150 0.259520 -0.038967
v -0.100842 0.308830 -0.038967
v -0.100842 0.308830 0.038967
v -0.020150 0.308830 0.038967
v -0.020150 0.308830 -0.038967
vt 0.099436 0.047912
vt 0.136084 0.047350
vt 0.201922 0.047350
vt 0.173309 0.047350
vt 0.137348 0.046987
vt 0.201922 0.047350
vt 0.077211 0.047350
vt 0.136084 0.047350
vt 0.077211 0.047350
vt 0.077211 0.047350
vt 0.173309 0.047350
vt 0.173309 0.047350
vt 0.099436 0.047912
vt 0.099436 0.047912
vt 0.201922 0.047350
vt 0.136084 0.047350
vt 0.137348 0.046987
vt 0.201922 0.047350
vt 0.077211 0.047350
vt 0.137348 0.046987
vt 0.173309 0.047350
vt 0.136084 0.047350
vt 0.137348 0.046987
vt 0.099436 0.047912
vt 0.099436 0.047912
vt 0.137348 0.046987
vt 0.267725 0.443665
vt 0.173309 0.047350
vt 0.267725 0.443665
vt 0.305635 0.443665
vt 0.099436 0.047912
vt 0.137348 0.046987
vt 0.099436 0.047912
vt 0.137348 0.046987
vt 0.267725 0.443665
vt 0.099436 0.047912
vt 0.137348 0.046987
vt 0.099436 0.047912
vt 0.137348 0.046987
vt 0.267725 0.443665
vt 0.099436 0.047912
vt 0.137348 0.046987
vt 0.099436 0.047912
vt 0.137348 0.046987
vt 0.136084 0.047350
vt 0.305635 0.443665
vt 0.136084 0.047350
vt 0.173309 0.047350
vt 0.099436 0.047912
vt 0.137348 0.046987
vt 0.099436 0.047912
vt 0.137348 0.046987
vt 0.264611 0.441254
vt 0.173309 0.047350
vt 0.264611 0.441254
vt 0.301837 0.441254
vt 0.099436 0.047912
vt 0.137348 0.046987
vt 0.099436 0.047912
vt 0.137348 0.046987
vt 0.136084 0.047350
vt 0.173309 0.047350
vt 0.136084 0.047350
vt 0.173309 0.047350
vt 0.099436 0.047912
vt 0.137348 0.046987
vt 0.137348 0.046987
vt 0.136084 0.047350
vt 0.137348 0.046987
vt 0.077211 0.047350
vt 0.301837 0.441254
vt 0.264611 0.441254
vt 0.264611 0.441254
vt 0.301837 0.441254
vt 0.136084 0.047350
vt 0.301837 0.441254
vt 0.077211 0.047350
vt 0.137348 0.046987
vt 0.137348 0.046987
vt 0.136084 0.047350
vt 0.173309 0.047350
vt 0.136084 0.047350
vt 0.267725 0.443665
vt 0.173309 0.047350
vt 0.136084 0.047350
vt 0.137348 0.046987
vt 0.137348 0.046987
vt 0.264611 0.441254
vt 0.305635 0.443665
vt 0.267725 0.443665
vt 0.267725 0.443665
vt 0.305635 0.443665
vt 0.264611 0.441254
vt 0.137348 0.046987
vt 0.137348 0.046987
vt 0.136084 0.047350
vt 0.305635 0.443665
vt 0.267725 0.443665
vt 0.305635 0.443665
vt 0.136084 0.047350
vt 0.137348 0.046987
vt 0.137348 0.046987
vt 0.267725 0.443665
vt 0.305635 0.443665
vt 0.136084 0.047350
vt 0.305635 0.443665
vt 0.267725 0.443665
vt 0.137348 0.046987
vt 0.137348 0.046987
vt 0.173309 0.047350
vt 0.136084 0.047350
vt 0.264611 0.441254
vt 0.136084 0.047350
vt 0.136084 0.047350
vt 0.264611 0.441254
vt 0.267725 0.443665
vt 0.136084 0.047350
vt 0.267725 0.443665
vt 0.267725 0.443665
vt 0.136084 0.047350
vt 0.267725 0.443665
vt 0.136084 0.047350
vt 0.201922 0.047350
vt 0.201922 0.047350
vt 0.136084 0.047350
vt 0.136084 0.047350
vt 0.267725 0.443665
vt 0.267725 0.443665
vt 0.137348 0.046987
vt 0.137348 0.046987
vt 0.137348 0.046987
vt 0.137348 0.046987
vt 0.201922 0.047350
vt 0.201922 0.047350
vt 0.330449 0.309028
vt 0.419216 0.309953
vt 0.330449 0.309028
vt 0.419216 0.309953
vt 0.486868 0.308665
vt 0.419216 0.309953
vt 0.330449 0.309028
vt 0.419216 0.309953
vt 0.330449 0.309028
vt 0.419216 0.309953
vt 0.330449 0.309028
vt 0.486868 0.308665
vt 0.419216 0.309953
vt 0.486868 0.308665
vt 0.201922 0.047350
vt 0.330449 0.309028
vt 0.330449 0.309028
vt 0.486868 0.308665
vt 0.201922 0.047350
vt 0.419216 0.309953
vt 0.201922 0.047350
vt 0.330449 0.309028
vt 0.201922 0.047350
vt 0.419216 0.309953
vn 0.340423 0.000000 0.940272
vn 0.340423 0.000000 0.940272
vn 0.340428 0.000000 0.940270
vn 0.340428 0.000000 0.940270
vn 0.000000 1.000000 0.000000
vn 0.000000 1.000000 0.000000
vn 0.000000 1.000000 0.000000
vn 0.000000 1.000000 0.000000
vn 0.340423 0.000000 -0.940272
vn 0.340423 0.000000 -0.940272
vn 0.340430 0.000000 -0.940270
vn 0.340430 0.000000 -0.940270
vn 0.000000 -1.000000 0.000000
vn 0.000000 -1.000000 0.000000
vn 0.000000 -1.000000 0.000000
vn 0.000000 -1.000000 0.000000
vn 1.000000 0.000000 0.000000
vn 1.000000 0.000000 0.000000
vn 1.000000 0.000000 0.000000
vn 1.000000 0.000000 0.000000
vn -1.000000 0.000000 0.000000
vn -1.000000 0.000000 0.000000
vn -1.000000 0.000000 0.000000
vn -1.000000 0.000000 0.000000
vn 0.340428 0.000000 0.940271
vn 0.340428 0.000000 0.940270
vn 0.340428 0.000000 0.940270
vn 0.340423 0.000000 0.940272
vn 0.340423 0.000000 0.940272
vn 0.340424 0.000000 0.940272
vn 0.340423 0.000000 0.940272
vn 0.340428 0.000000 0.940270
vn 0.000000 0.000000 0.000000
vn 1.000000 0.000000 0.000000
vn 1.000000 0.000000 0.000000
vn 1.000000 0.000000 0.000000
vn 1.000000 0.000000 0.000000
vn 1.000000 0.000000 0.000000
vn 1.000000 0.000000 0.000000
vn 1.000000 0.000000 0.000000
vn 0.000000 0.000000 -0.000000
vn 0.340423 0.000000 -0.940272
vn 0.340423 0.000000 -0.940272
vn 0.340430 0.000000 -0.940270
vn 0.340430 0.000000 -0.940270
vn 0.000000 0.000000 -0.000000
vn 0.340430 0.000000 -0.940270
vn 0.340424 0.000000 -0.940272
vn -1.000000 0.000000 0.000000
vn -1.000000 0.000000 0.000000
vn -1.000000 0.000000 0.000000
vn -1.000000 0.000000 0.000000
vn -1.000000 0.000000 0.000000
vn -0.000000 0.000000 0.000000
vn -1.000000 0.000000 0.000000
vn -1.000000 0.000000 0.000000
vn 0.340423 0.000000 0.940272
vn 0.340424 0.000000 0.940272
vn 0.340428 0.000000 0.940270
vn 0.340428 0.000000 0.940270
vn 1.000000 0.000000 0.000000
vn 1.000000 0.000000 0.000000
vn 1.000000 0.000000 0.000000
vn 1.000000 0.000000 0.000000
vn 0.340424 0.000000 -0.940272
vn 0.340424 0.000000 -0.940272
vn 0.340430 0.000000 -0.940270
vn 0.340430 0.000000 -0.940270
vn -1.000000 0.000000 0.000000
vn -1.000000 0.000000 0.000000
vn -1.000000 0.000000 0.000000
vn -1.000000 0.000000 0.000000
vn 0.340424 0.000000 0.940272
vn 0.340424 0.000000 0.940272
vn 0.340428 0.000000 0.940270
vn 0.340428 0.000000 0.940270
vn 1.000000 0.000000 0.000000
vn 1.000000 0.000000 0.000000
vn 1.000000 0.000000 0.000000
vn 1.000000 0.000000 0.000000
vn 0.340424 0.000000 -0.940272
vn 0.340424 0.000000 -0.940272
vn 0.340430 0.000000 -0.940270
vn 0.340430 0.000000 -0.940270
vn -1.000000 0.000000 0.000000
vn -1.000000 0.000000 0.000000
vn -1.000000 0.000000 0.000000
vn -1.000000 0.000000 0.000000
vn 0.340424 0.000000 0.940272
vn 0.340423 0.000000 0.940272
vn 0.340428 0.000000 0.940270
vn 0.340428 0.000000 0.940270
vn 1.000000 0.000000 0.000000
vn 1.000000 0.000000 0.000000
vn 1.000000 0.000000 0.000000
vn 1.000000 0.000000 0.000000
vn 0.340423 0.000000 -0.940272
vn 0.340424 0.000000 -0.940272
vn 0.340430 0.000000 -0.940270
vn 0.340430 0.000000 -0.940270
vn -1.000000 0.000000 0.000000
vn -1.000000 0.000000 0.000000
vn -1.000000 0.000000 0.000000
vn -1.000000 0.000000 0.000000
vn 0.340339 0.000000 -0.940303
vn 0.340424 0.000000 -0.940272
vn 0.340424 0.000000 -0.940272
vn 0.340339 0.000000 -0.940303
vn 0.340339 0.000000 -0.940303
vn 0.340424 0.000000 -0.940272
vn 0.340424 0.000000 -0.940272
vn 0.340339 0.000000 -0.940303
vn 0.340339 0.000000 -0.940303
vn 0.340339 0.000000 -0.940303
vn 0.340423 0.000000 -0.940272
vn 0.340423 0.000000 -0.940272
vn 0.000000 0.000000 -0.000000
vn 0.340424 0.000000 -0.940272
vn 0.340339 0.000000 -0.940303
vn 0.000000 0.000000 -0.000000
vn 0.340339 0.000000 -0.940303
vn 0.340423 0.000000 -0.940272
vn 0.340423 0.000000 -0.940272
vn 0.340339 0.000000 -0.940303
vn 0.000000 1.000000 0.000000
vn 0.000000 1.000000 0.000000
vn 0.000000 1.000000 0.000000
vn 0.000000 1.000000 0.000000
vn 0.340357 0.000000 0.940296
vn 0.340423 0.000000 0.940272
vn 0.340423 0.000000 0.940272
vn 0.340357 0.000000 0.940296
vn 0.340424 0.000000 0.940272
vn 0.340423 0.000000 0.940272
vn 0.340423 0.000000 0.940272
vn 0.340357 0.000000 0.940296
vn 0.340357 0.000000 0.940296
vn 0.340357 0.000000 0.940296
vn 0.340357 0.000000 0.940296
vn 0.340423 0.000000 0.940272
vn 0.340358 0.000000 0.940296
vn 0.340424 0.000000 0.940272
vn 0.340423 0.000000 0.940272
vn 0.340357 0.000000 0.940296
vn 0.340358 0.000000 0.940296
vn 0.340424 0.000000 0.940272
vn 0.340424 0.000000 0.940272
vn 0.340358 0.000000 0.940296
vn 0.340358 0.000000 0.940296
vn 0.340423 0.000000 0.940272
vn 0.340424 0.000000 0.940272
vn 0.340358 0.000000 0.940296
vn 0.000000 -1.000000 0.000000
vn 0.000000 -1.000000 0.000000
vn 0.000000 -1.000000 0.000000
vn 0.000000 -1.000000 0.000000
vn 0.340339 0.000000 -0.940303
vn 0.340424 0.000000 -0.940272
vn 0.340423 0.000000 -0.940272
vn 0.340339 0.000000 -0.940303
vn 0.000000 1.000000 0.000000
vn 0.000000 1.000000 0.000000
vn 0.000000 1.000000 0.000000
vn 0.000000 1.000000 0.000000
vn 0.000000 1.000000 -0.000000
vn 0.000000 1.000000 -0.000000
vn 0.000000 1.000000 -0.000000
vn 0.000000 1.000000 -0.000000
vn 0.000000 1.000000 0.000000
vn 0.000000 1.000000 0.000000
vn 0.000000 1.000000 0.000000
vn 0.000000 1.000000 0.000000
vn 0.000000 1.000000 0.000000
vn 0.000000 1.000000 0.000000
vn 0.000000 1.000000 0.000000
vn 0.000000 1.000000 0.000000
vn -1.000000 0.000000 0.000000
vn -1.000000 0.000000 0.000000
vn -1.000000 0.000000 0.000000
vn -1.000000 0.000000 0.000000
vn 0.000000 0.000000 1.000000
vn 0.000000 0.000000 1.000000
vn 0.000000 0.000000 1.000000
vn 0.000000 0.000000 1.000000
vn 1.000000 0.000000 0.000000
vn 1.000000 0.000000 0.000000
vn 1.000000 0.000000 0.000000
vn 1.000000 0.000000 0.000000
vn 0.000000 0.000000 -1.000000
vn 0.000000 0.000000 -1.000000
vn 0.000000 0.000000 -1.000000
vn 0.000000 0.000000 -1.000000
s off
f 40/125/1 41/126/2 10/105/3 4/22/4
f 53/139/5 54/146/6 55/148/7 56/152/8
f 38/120/9 39/122/10 6/16/11 11/111/12
f 47/77/13 48/70/14 8/19/15 2/10/16
f 10/28/17 11/110/18 6/12/19 4/4/20
f 12/1/21 9/13/22 3/14/23 5/24/24
f 18/27/25 14/29/26 10/35/27 41/40/28 42/83/29 43/90/30 44/91/31 22/98/32
f 19/30/33 15/46/34 11/89/35 10/92/36 14/97/37 18/99/38 22/104/39 23/106/40
f 36/103/41 37/107/42 38/116/43 11/118/44 15/119/45 19/121/46 23/127/47 35/128/48
f 17/36/49 13/31/50 9/13/51 12/1/52 16/25/53 20/33/54 24/38/55 21/41/56
f 44/100/57 45/96/58 26/75/59 22/45/60
f 26/54/61 27/81/62 23/48/63 22/84/64
f 34/114/65 35/117/66 23/47/67 27/82/68
f 28/43/69 25/49/70 21/41/71 24/38/72
f 45/93/73 46/88/74 30/73/75 26/53/76
f 30/74/77 31/71/78 27/56/79 26/76/80
f 33/112/81 34/115/82 27/55/83 31/72/84
f 32/51/85 29/57/86 25/49/87 28/43/88
f 46/85/89 47/80/90 2/2/91 30/61/92
f 2/21/93 8/11/94 31/64/95 30/62/96
f 48/68/97 33/113/98 31/63/99 8/8/100
f 7/59/101 1/65/102 29/57/103 32/51/104
f 28/5/105 34/17/106 33/20/107 32/23/108
f 24/26/109 35/32/110 34/17/111 28/5/112
f 16/39/113 12/44/114 38/50/115 37/42/116 36/37/117 35/32/118 24/26/119 20/34/120
f 5/52/121 39/58/122 38/50/123 12/44/124
f 3/3/125 40/124/126 39/123/127 5/18/128
f 9/60/129 41/66/130 40/67/131 3/69/132
f 43/87/133 42/79/134 41/66/135 9/60/136 13/78/137 17/86/138 21/94/139 44/95/140
f 25/101/141 45/102/142 44/95/143 21/94/144
f 29/108/145 46/109/146 45/102/147 25/101/148
f 1/129/149 47/130/150 46/109/151 29/108/152
f 7/7/153 48/70/154 47/77/155 1/9/156
f 32/23/157 33/20/158 48/131/159 7/132/160
f 39/133/161 40/134/162 50/155/163 49/157/164
f 40/134/165 4/15/166 51/153/167 50/155/168
f 4/15/169 6/6/170 52/149/171 51/153/172
f 6/6/173 39/133/174 49/157/175 52/149/176
f 49/135/177 50/156/178 54/151/179 53/143/180
f 50/136/181 51/154/182 55/147/183 54/140/184
f 51/137/185 52/150/186 56/145/187 55/141/188
f 52/138/189 49/158/190 53/144/191 56/142/192
