# This file uses centimeters as units for non-parametric coordinates.

v -0.166975 0.000000 0.376705
v 0.166975 0.000000 0.376705
v -0.166975 0.199944 0.291228
v 0.166975 0.199944 0.291228
v -0.166975 0.199944 -0.382762
v 0.166975 0.199944 -0.382762
v -0.166975 0.000000 -0.382762
v 0.166975 0.000000 -0.382762
v -0.131989 0.033276 0.361419
v 0.131971 0.033276 0.361419
v 0.131971 0.166668 0.291228
v -0.131989 0.166668 0.291228
v -0.098516 0.158957 -0.382762
v 0.098513 0.158957 -0.382762
v 0.098513 0.040987 -0.382762
v -0.098516 0.040987 -0.382762
v -0.058823 0.166668 0.291228
v -0.058811 0.199944 -0.382762
v 0.060486 0.199944 0.156429
v 0.060486 0.199944 -0.247964
v 0.024702 0.199944 0.196674
v 0.024702 0.178427 0.196674
v 0.131971 0.199944 0.291228
v -0.058811 0.222235 0.291228
v 0.060486 0.222235 0.156429
v 0.060486 0.222235 -0.247964
v -0.058811 0.222235 -0.382762
v -0.131989 0.059954 0.347381
v 0.131971 0.059954 0.347381
v -0.131989 0.123982 0.313689
v 0.131971 0.123982 0.313689
v 0.131971 0.099571 0.326534
v -0.131989 0.099571 0.326534
v 0.043161 0.132537 0.322020
v 0.088272 0.132537 0.311449
v 0.043161 0.178869 0.322020
v 0.088272 0.178869 0.311449
v 0.026030 0.178869 0.248910
v 0.071140 0.178869 0.238340
v 0.026030 0.132537 0.248910
v 0.071140 0.132537 0.238340
v -0.098743 0.048339 0.355948
v -0.063841 0.048807 0.373991
v -0.103786 0.086306 0.364718
v -0.068886 0.086774 0.382762
v -0.075701 0.102686 0.309965
v -0.040800 0.103155 0.328008
v -0.070654 0.064719 0.301194
v -0.035753 0.065187 0.319237
v 0.031590 0.054174 0.373786
v 0.113445 0.054174 0.354606
v 0.031590 0.075749 0.373786
v 0.113445 0.075749 0.354606
v 0.014458 0.075749 0.300677
v 0.096313 0.075749 0.281496
v 0.014458 0.054174 0.300677
v 0.096313 0.054174 0.281496
vt 0.261095 0.444219
vt 0.285822 0.444219
vt 0.324320 0.442822
vt 0.261095 0.444219
vt 0.285822 0.444219
vt 0.321146 0.444219
vt 0.226949 0.444219
vt 0.285822 0.444219
vt 0.226949 0.444219
vt 0.226949 0.444219
vt 0.261095 0.444219
vt 0.261095 0.444219
vt 0.261095 0.444219
vt 0.261095 0.444219
vt 0.321146 0.444219
vt 0.285822 0.444219
vt 0.285822 0.444219
vt 0.324320 0.442822
vt 0.226949 0.444219
vt 0.285822 0.444219
vt 0.261095 0.444219
vt 0.285822 0.444219
vt 0.261095 0.444219
vt 0.133707 0.151850
vt 0.285822 0.444219
vt 0.199411 0.397335
vt 0.285822 0.444219
vt 0.285822 0.444219
vt 0.285822 0.444219
vt 0.285822 0.444219
vt 0.133707 0.151850
vt 0.285822 0.444219
vt 0.170530 0.399501
vt 0.285822 0.444219
vt 0.285822 0.444219
vt 0.170530 0.399501
vt 0.285822 0.444219
vt 0.285822 0.444219
vt 0.285822 0.444219
vt 0.285822 0.444219
vt 0.285822 0.444219
vt 0.285822 0.444219
vt 0.237951 0.444205
vt 0.237951 0.444205
vt 0.237951 0.444205
vt 0.237951 0.444205
vt 0.285822 0.444219
vt 0.285822 0.444219
vt 0.285822 0.444219
vt 0.285822 0.444219
vt 0.285822 0.444219
vt 0.285822 0.444219
vt 0.285822 0.444219
vt 0.285822 0.444219
vt 0.285822 0.444219
vt 0.170530 0.399501
vt 0.285822 0.444219
vt 0.321146 0.444219
vt 0.321146 0.444219
vt 0.321146 0.444219
vt 0.321146 0.444219
vt 0.199411 0.397335
vt 0.321146 0.444219
vt 0.303381 0.444266
vt 0.303381 0.444266
vt 0.272335 0.442822
vt 0.272335 0.442822
vt 0.272335 0.442822
vt 0.272335 0.442822
vt 0.272335 0.442822
vt 0.199411 0.397335
vt 0.324320 0.442822
vt 0.324320 0.442822
vt 0.324320 0.442822
vt 0.324320 0.442822
vt 0.294718 0.442100
vt 0.294718 0.442100
vt 0.294718 0.442100
vt 0.294718 0.442100
vt 0.262949 0.448598
vt 0.262949 0.448598
vt 0.262949 0.448598
vt 0.262949 0.448598
vt 0.262949 0.448598
vt 0.262949 0.448598
vt 0.262949 0.448598
vt 0.262949 0.448598
vt 0.285822 0.444219
vt 0.231007 0.219726
vt 0.231007 0.219726
vt 0.285822 0.444219
vt 0.285822 0.444219
vt 0.170530 0.399501
vt 0.170530 0.399501
vt 0.285822 0.444219
vt 0.231007 0.219726
vt 0.285822 0.444219
vt 0.285822 0.444219
vt 0.231007 0.219726
vt 0.133707 0.151850
vt 0.133707 0.151850
vt 0.109735 0.047323
vt 0.109735 0.047323
vt 0.109735 0.047323
vt 0.109735 0.047323
vt 0.262115 0.181923
vt 0.262115 0.181923
vt 0.262115 0.181923
vt 0.262115 0.181923
vt 0.297439 0.181923
vt 0.297439 0.181923
vt 0.297439 0.181923
vt 0.297439 0.181923
vt 0.262115 0.181923
vt 0.262115 0.181923
vt 0.262115 0.181923
vt 0.262115 0.181923
vt 0.203242 0.181923
vt 0.203242 0.181923
vt 0.203242 0.181923
vt 0.203242 0.181923
vt 0.237388 0.181923
vt 0.237388 0.181923
vt 0.237388 0.181923
vt 0.237388 0.181923
vt 0.237388 0.181923
vt 0.237388 0.181923
vt 0.237388 0.181923
vt 0.237388 0.181923
vt 0.262115 0.181923
vt 0.262115 0.181923
vt 0.262115 0.181923
vt 0.262115 0.181923
vt 0.297439 0.181923
vt 0.297439 0.181923
vt 0.297439 0.181923
vt 0.297439 0.181923
vt 0.262115 0.181923
vt 0.262115 0.181923
vt 0.262115 0.181923
vt 0.262115 0.181923
vt 0.203242 0.181923
vt 0.203242 0.181923
vt 0.203242 0.181923
vt 0.203242 0.181923
vt 0.237388 0.181923
vt 0.237388 0.181923
vt 0.237388 0.181923
vt 0.237388 0.181923
vt 0.237388 0.181923
vt 0.237388 0.181923
vt 0.237388 0.181923
vt 0.237388 0.181923
vt 0.170157 0.309471
vt 0.170157 0.309471
vt 0.170157 0.309471
vt 0.170157 0.309471
vt 0.205481 0.309471
vt 0.205481 0.309471
vt 0.205481 0.309471
vt 0.205481 0.309471
vt 0.170157 0.309471
vt 0.170157 0.309471
vt 0.170157 0.309471
vt 0.170157 0.309471
vt 0.111283 0.309471
vt 0.111283 0.309471
vt 0.111283 0.309471
vt 0.111283 0.309471
vt 0.145430 0.309471
vt 0.145430 0.309471
vt 0.145430 0.309471
vt 0.145430 0.309471
vt 0.145430 0.309471
vt 0.145430 0.309471
vt 0.145430 0.309471
vt 0.145430 0.309471
vn 0.000000 0.465668 0.884960
vn 0.000000 0.465668 0.884960
vn 0.000000 0.465671 0.884958
vn 0.000000 0.465671 0.884958
vn 0.000000 0.465671 0.884958
vn -0.201850 0.979417 0.000000
vn -0.144935 0.989441 0.000000
vn -0.144935 0.989441 0.000000
vn -0.201850 0.979417 0.000000
vn 0.000000 0.000000 -1.000000
vn 0.000000 0.000000 -1.000000
vn 0.000000 0.000000 -1.000000
vn 0.000000 0.000000 -1.000000
vn 0.000000 -1.000000 0.000000
vn 0.000000 -1.000000 0.000000
vn 0.000000 -1.000000 0.000000
vn 0.000000 -1.000000 0.000000
vn 1.000000 -0.000000 0.000000
vn 1.000000 -0.000000 0.000000
vn 1.000000 -0.000000 0.000000
vn 1.000000 -0.000000 0.000000
vn -1.000000 -0.000000 0.000000
vn -1.000000 -0.000000 0.000000
vn -1.000000 -0.000000 0.000000
vn -1.000000 -0.000000 0.000000
vn 0.000000 0.417434 0.908707
vn 0.000000 0.417434 0.908707
vn 0.000000 0.417434 0.908707
vn 0.000000 0.417434 0.908707
vn -0.179763 0.384474 0.905464
vn -0.179763 0.384473 0.905464
vn -0.179763 0.384473 0.905464
vn -0.179763 0.384473 0.905464
vn -0.179763 0.384474 0.905464
vn -0.179763 0.384474 0.905464
vn -0.179763 0.384473 0.905464
vn -0.179763 0.384473 0.905464
vn 0.194169 0.415082 0.888822
vn 0.194169 0.415082 0.888822
vn 0.194169 0.415082 0.888822
vn 0.194169 0.415082 0.888822
vn 0.194169 0.415082 0.888822
vn 0.194169 0.415082 0.888822
vn 0.194169 0.415082 0.888822
vn 0.000000 0.000000 -1.000000
vn 0.000000 0.000000 -1.000000
vn 0.000000 0.000000 -1.000000
vn 0.000000 0.000000 -1.000000
vn 0.000000 0.000000 -1.000000
vn -0.000000 0.000000 -1.000000
vn -0.000000 0.000000 -1.000000
vn -0.000000 0.000000 -1.000000
vn -0.000000 0.000000 -1.000000
vn 0.000000 0.000000 -1.000000
vn 0.000000 0.000000 -1.000000
vn 0.000000 0.000000 -1.000000
vn 0.000000 0.000000 -1.000000
vn 0.000000 0.000000 -1.000000
vn 0.000000 0.000000 -1.000000
vn 0.000000 0.000000 -1.000000
vn 0.000000 0.000000 -1.000000
vn 0.000000 1.000000 0.000000
vn 0.000000 1.000000 0.000000
vn 0.000000 1.000000 0.000000
vn 0.000000 1.000000 0.000000
vn 0.000000 1.000000 0.000000
vn 0.000000 1.000000 0.000000
vn 0.000000 1.000000 0.000000
vn 0.000000 0.992356 0.123407
vn 0.000000 0.992356 0.123407
vn 0.000000 0.992356 0.123407
vn -0.661246 0.000000 0.750169
vn -0.661246 0.000000 0.750169
vn -0.661246 0.000000 0.750169
vn -0.661246 0.000000 0.750169
vn 0.000000 0.000000 1.000000
vn 0.000000 0.000000 1.000000
vn 0.000000 0.000000 1.000000
vn 0.000000 0.000000 1.000000
vn 0.749484 -0.000111 0.662022
vn 0.749485 -0.000111 0.662022
vn 0.749485 -0.000111 0.662022
vn 0.749484 -0.000111 0.662022
vn 0.748491 -0.004324 0.663131
vn 0.748491 -0.004324 0.663131
vn 0.748491 -0.004324 0.663131
vn 0.748491 -0.004324 0.663131
vn 1.000000 0.000000 0.000000
vn 1.000000 0.000000 0.000000
vn 1.000000 0.000000 0.000000
vn 1.000000 0.000000 0.000000
vn 0.748852 0.000000 -0.662738
vn 0.748852 0.000000 -0.662738
vn 0.748852 0.000000 -0.662738
vn 0.748852 0.000000 -0.662738
vn 0.000000 0.000000 -1.000000
vn 0.000000 0.000000 -1.000000
vn 0.000000 0.000000 -1.000000
vn -0.144935 0.989441 0.000000
vn -0.144935 0.989441 0.000000
vn 0.000000 1.000000 0.000000
vn 0.000000 1.000000 0.000000
vn 0.000000 0.465677 0.884955
vn 0.000000 0.465677 0.884955
vn 0.000000 0.465669 0.884959
vn 0.000000 0.465669 0.884959
vn 0.000000 0.465669 0.884959
vn 0.000000 0.465669 0.884959
vn 0.000000 0.465663 0.884962
vn 0.000000 0.465663 0.884962
vn 0.000000 0.465663 0.884962
vn 0.000000 0.465663 0.884962
vn 0.000000 0.465668 0.884960
vn 0.000000 0.465668 0.884960
vn 0.228144 0.000000 0.973627
vn 0.228144 0.000000 0.973627
vn 0.228144 0.000000 0.973627
vn 0.228144 0.000000 0.973627
vn 0.000000 1.000000 -0.000000
vn 0.000000 1.000000 -0.000000
vn 0.000000 1.000000 -0.000000
vn 0.000000 1.000000 -0.000000
vn -0.228144 0.000000 -0.973627
vn -0.228144 0.000000 -0.973627
vn -0.228144 0.000000 -0.973627
vn -0.228144 0.000000 -0.973627
vn 0.000000 -1.000000 0.000000
vn 0.000000 -1.000000 0.000000
vn 0.000000 -1.000000 0.000000
vn 0.000000 -1.000000 0.000000
vn 0.973626 0.000000 -0.228152
vn 0.973626 0.000000 -0.228152
vn 0.973626 0.000000 -0.228152
vn 0.973626 0.000000 -0.228152
vn -0.973626 0.000000 0.228152
vn -0.973626 0.000000 0.228152
vn -0.973626 0.000000 0.228152
vn -0.973626 0.000000 0.228152
vn -0.441061 -0.257228 0.859825
vn -0.441061 -0.257228 0.859825
vn -0.441061 -0.257228 0.859825
vn -0.441061 -0.257228 0.859825
vn -0.128383 0.966277 0.223220
vn -0.128383 0.966277 0.223220
vn -0.128383 0.966277 0.223220
vn -0.128383 0.966277 0.223220
vn 0.441066 0.257257 -0.859814
vn 0.441066 0.257257 -0.859813
vn 0.441066 0.257257 -0.859813
vn 0.441066 0.257257 -0.859813
vn 0.128368 -0.966279 -0.223217
vn 0.128368 -0.966279 -0.223217
vn 0.128368 -0.966279 -0.223217
vn 0.128368 -0.966279 -0.223217
vn 0.888245 0.011961 0.459213
vn 0.888245 0.011961 0.459213
vn 0.888245 0.011961 0.459213
vn 0.888245 0.011961 0.459213
vn -0.888242 -0.011943 -0.459221
vn -0.888242 -0.011943 -0.459221
vn -0.888242 -0.011943 -0.459221
vn -0.888242 -0.011943 -0.459221
vn 0.228144 0.000000 0.973627
vn 0.228144 0.000000 0.973627
vn 0.228144 0.000000 0.973627
vn 0.228144 0.000000 0.973627
vn 0.000000 1.000000 -0.000000
vn 0.000000 1.000000 -0.000000
vn 0.000000 1.000000 -0.000000
vn 0.000000 1.000000 -0.000000
vn -0.228144 0.000000 -0.973627
vn -0.228144 0.000000 -0.973627
vn -0.228144 0.000000 -0.973627
vn -0.228144 0.000000 -0.973627
vn 0.000000 -1.000000 0.000000
vn 0.000000 -1.000000 0.000000
vn 0.000000 -1.000000 0.000000
vn 0.000000 -1.000000 0.000000
vn 0.973626 0.000000 -0.228150
vn 0.973626 0.000000 -0.228150
vn 0.973626 0.000000 -0.228150
vn 0.973626 0.000000 -0.228150
vn -0.973626 0.000000 0.228150
vn -0.973626 0.000000 0.228150
vn -0.973626 0.000000 0.228150
vn -0.973626 0.000000 0.228150
s off
f 30/93/1 31/94/2 11/33/3 17/36/4 12/56/5
f 3/3/6 24/18/7 27/74/8 5/75/9
f 13/43/10 14/44/11 15/45/12 16/46/13
f 7/7/14 8/19/15 2/10/16 1/9/17
f 2/21/18 8/11/19 6/12/20 4/4/21
f 7/13/22 1/1/23 3/23/24 5/14/25
f 1/22/26 2/37/27 10/35/28 9/28/29
f 11/32/30 31/95/31 32/97/32 29/91/33 10/25/34 2/2/35 4/65/36 23/64/37
f 3/17/38 1/38/39 9/29/40 28/88/41 33/98/42 30/92/43 12/27/44
f 5/5/45 18/57/46 6/53/47 14/51/48 13/39/49
f 6/16/50 8/52/51 15/49/52 14/40/53
f 8/8/54 7/50/55 16/48/56 15/41/57
f 7/20/58 5/54/59 13/47/60 16/42/61
f 18/58/62 20/60/63 19/59/64 21/61/65 23/63/66 4/15/67 6/6/68
f 11/26/69 22/62/70 17/71/71
f 22/67/72 11/69/73 23/70/74 21/68/75
f 17/55/76 24/76/77 3/34/78 12/30/79
f 21/80/80 24/81/81 17/66/82 22/67/83
f 21/80/84 19/82/85 25/83/86 24/81/87
f 19/82/88 20/84/89 26/85/90 25/83/91
f 20/84/92 18/86/93 27/87/94 26/85/95
f 18/77/96 5/78/97 27/79/98
f 27/74/99 24/18/100 25/72/101 26/73/102
f 9/24/103 10/31/104 29/100/105 28/101/106
f 28/89/107 29/90/108 32/96/109 33/99/110
f 33/102/111 32/103/112 31/104/113 30/105/114
f 34/106/115 35/107/116 37/108/117 36/109/118
f 36/110/119 37/111/120 39/112/121 38/113/122
f 38/114/123 39/115/124 41/116/125 40/117/126
f 40/118/127 41/119/128 35/120/129 34/121/130
f 35/122/131 41/123/132 39/124/133 37/125/134
f 40/126/135 34/127/136 36/128/137 38/129/138
f 42/130/139 43/131/140 45/132/141 44/133/142
f 44/134/143 45/135/144 47/136/145 46/137/146
f 46/138/147 47/139/148 49/140/149 48/141/150
f 48/142/151 49/143/152 43/144/153 42/145/154
f 43/146/155 49/147/156 47/148/157 45/149/158
f 48/150/159 42/151/160 44/152/161 46/153/162
f 50/154/163 51/155/164 53/156/165 52/157/166
f 52/158/167 53/159/168 55/160/169 54/161/170
f 54/162/171 55/163/172 57/164/173 56/165/174
f 56/166/175 57/167/176 51/168/177 50/169/178
f 51/170/179 57/171/180 55/172/181 53/173/182
f 56/174/183 50/175/184 52/176/185 54/177/186
