# This file uses centimeters as units for non-parametric coordinates.

v -0.269430 0.000000 0.204674
v -0.033871 0.000000 0.204674
v -0.269430 0.142534 0.204674
v -0.033871 0.142534 0.204674
v -0.269430 0.142534 -0.204674
v -0.033871 0.142534 -0.204674
v -0.269430 0.000000 -0.204674
v -0.033871 0.000000 -0.204674
v -0.269430 0.099680 0.204674
v -0.033871 0.099680 0.204674
v -0.033871 0.099680 -0.204674
v -0.269430 0.099680 -0.204674
v -0.269430 0.055158 0.204674
v -0.033871 0.055158 0.204674
v -0.033871 0.055158 -0.204674
v -0.269430 0.055158 -0.204674
v 0.034426 0.000000 0.212278
v 0.269428 0.000000 0.196104
v 0.034426 0.142534 0.212278
v 0.269428 0.142534 0.196104
v 0.006319 0.142534 -0.196104
v 0.241322 0.142534 -0.212278
v 0.006319 0.000000 -0.196104
v 0.241322 0.000000 -0.212278
v 0.034426 0.099680 0.212278
v 0.269428 0.099680 0.196104
v 0.241322 0.099680 -0.212278
v 0.006319 0.099680 -0.196104
v 0.034426 0.055158 0.212278
v 0.269428 0.055158 0.196104
v 0.241322 0.055158 -0.212278
v 0.006319 0.055158 -0.196104
vt 0.299967 0.400932
vt 0.299968 0.400932
vt 0.299968 0.400932
vt 0.299967 0.400932
vt 0.332137 0.400932
vt 0.332137 0.400932
vt 0.332137 0.400932
vt 0.332137 0.400932
vt 0.299967 0.400932
vt 0.299968 0.400932
vt 0.299968 0.400932
vt 0.299967 0.400932
vt 0.234315 0.400932
vt 0.234315 0.400932
vt 0.234315 0.400932
vt 0.234315 0.400932
vt 0.267141 0.400932
vt 0.267141 0.400932
vt 0.267141 0.400932
vt 0.267141 0.400932
vt 0.267141 0.400932
vt 0.267141 0.400932
vt 0.267141 0.400932
vt 0.267141 0.400932
vt 0.299967 0.438732
vt 0.299968 0.438732
vt 0.299968 0.438732
vt 0.299967 0.438732
vt 0.267141 0.438732
vt 0.267141 0.438732
vt 0.267141 0.438732
vt 0.267141 0.438732
vt 0.299967 0.438732
vt 0.299968 0.438732
vt 0.299968 0.438732
vt 0.299967 0.438732
vt 0.267141 0.438732
vt 0.267141 0.438732
vt 0.267141 0.438732
vt 0.267141 0.438732
vt 0.299967 0.400932
vt 0.299968 0.400932
vt 0.299968 0.400932
vt 0.299967 0.400932
vt 0.267141 0.400932
vt 0.267141 0.400932
vt 0.267141 0.400932
vt 0.267141 0.400932
vt 0.299967 0.400932
vt 0.299968 0.400932
vt 0.299968 0.400932
vt 0.299967 0.400932
vt 0.267141 0.400932
vt 0.267141 0.400932
vt 0.267141 0.400932
vt 0.267141 0.400932
vt 0.299967 0.400932
vt 0.299968 0.400932
vt 0.299968 0.400932
vt 0.299967 0.400932
vt 0.332137 0.400932
vt 0.332137 0.400932
vt 0.332137 0.400932
vt 0.332137 0.400932
vt 0.299967 0.400932
vt 0.299968 0.400932
vt 0.299968 0.400932
vt 0.299967 0.400932
vt 0.234315 0.400932
vt 0.234315 0.400932
vt 0.234315 0.400932
vt 0.234315 0.400932
vt 0.267141 0.400932
vt 0.267141 0.400932
vt 0.267141 0.400932
vt 0.267141 0.400932
vt 0.267141 0.400932
vt 0.267141 0.400932
vt 0.267141 0.400932
vt 0.267141 0.400932
vt 0.299967 0.438732
vt 0.299968 0.438732
vt 0.299968 0.438732
vt 0.299967 0.438732
vt 0.267141 0.438732
vt 0.267141 0.438732
vt 0.267141 0.438732
vt 0.267141 0.438732
vt 0.299967 0.438732
vt 0.299968 0.438732
vt 0.299968 0.438732
vt 0.299967 0.438732
vt 0.267141 0.438732
vt 0.267141 0.438732
vt 0.267141 0.438732
vt 0.267141 0.438732
vt 0.299967 0.400932
vt 0.299968 0.400932
vt 0.299968 0.400932
vt 0.299967 0.400932
vt 0.267141 0.400932
vt 0.267141 0.400932
vt 0.267141 0.400932
vt 0.267141 0.400932
vt 0.299967 0.400932
vt 0.299968 0.400932
vt 0.299968 0.400932
vt 0.299967 0.400932
vt 0.267141 0.400932
vt 0.267141 0.400932
vt 0.267141 0.400932
vt 0.267141 0.400932
vn 0.000000 0.000000 1.000000
vn 0.000000 0.000000 1.000000
vn 0.000000 0.000000 1.000000
vn 0.000000 0.000000 1.000000
vn 0.000000 1.000000 0.000000
vn 0.000000 1.000000 0.000000
vn 0.000000 1.000000 0.000000
vn 0.000000 1.000000 0.000000
vn 0.000000 0.000000 -1.000000
vn 0.000000 0.000000 -1.000000
vn 0.000000 0.000000 -1.000000
vn 0.000000 0.000000 -1.000000
vn 0.000000 -1.000000 0.000000
vn 0.000000 -1.000000 0.000000
vn 0.000000 -1.000000 0.000000
vn 0.000000 -1.000000 0.000000
vn 1.000000 0.000000 0.000000
vn 1.000000 0.000000 0.000000
vn 1.000000 0.000000 0.000000
vn 1.000000 0.000000 0.000000
vn -1.000000 0.000000 0.000000
vn -1.000000 0.000000 0.000000
vn -1.000000 0.000000 0.000000
vn -1.000000 0.000000 0.000000
vn 0.000000 0.000000 1.000000
vn 0.000000 0.000000 1.000000
vn 0.000000 0.000000 1.000000
vn 0.000000 0.000000 1.000000
vn 1.000000 0.000000 0.000000
vn 1.000000 0.000000 0.000000
vn 1.000000 0.000000 0.000000
vn 1.000000 0.000000 0.000000
vn 0.000000 0.000000 -1.000000
vn 0.000000 0.000000 -1.000000
vn 0.000000 0.000000 -1.000000
vn 0.000000 0.000000 -1.000000
vn -1.000000 0.000000 0.000000
vn -1.000000 0.000000 0.000000
vn -1.000000 0.000000 0.000000
vn -1.000000 0.000000 0.000000
vn 0.000000 0.000000 1.000000
vn 0.000000 0.000000 1.000000
vn 0.000000 0.000000 1.000000
vn 0.000000 0.000000 1.000000
vn 1.000000 0.000000 0.000000
vn 1.000000 0.000000 0.000000
vn 1.000000 0.000000 0.000000
vn 1.000000 0.000000 0.000000
vn 0.000000 0.000000 -1.000000
vn 0.000000 0.000000 -1.000000
vn 0.000000 0.000000 -1.000000
vn 0.000000 0.000000 -1.000000
vn -1.000000 0.000000 0.000000
vn -1.000000 0.000000 0.000000
vn -1.000000 0.000000 0.000000
vn -1.000000 0.000000 0.000000
vn 0.068663 0.000000 0.997640
vn 0.068663 0.000000 0.997640
vn 0.068663 0.000000 0.997640
vn 0.068663 0.000000 0.997640
vn 0.000000 1.000000 0.000000
vn 0.000000 1.000000 0.000000
vn 0.000000 1.000000 0.000000
vn 0.000000 1.000000 0.000000
vn -0.068662 0.000000 -0.997640
vn -0.068662 0.000000 -0.997640
vn -0.068662 0.000000 -0.997640
vn -0.068662 0.000000 -0.997640
vn 0.000000 -1.000000 0.000000
vn 0.000000 -1.000000 0.000000
vn 0.000000 -1.000000 0.000000
vn 0.000000 -1.000000 0.000000
vn 0.997640 0.000000 -0.068662
vn 0.997640 0.000000 -0.068662
vn 0.997640 0.000000 -0.068662
vn 0.997640 0.000000 -0.068662
vn -0.997640 0.000000 0.068662
vn -0.997640 0.000000 0.068662
vn -0.997640 0.000000 0.068662
vn -0.997640 0.000000 0.068662
vn 0.068663 0.000000 0.997640
vn 0.068663 0.000000 0.997640
vn 0.068663 0.000000 0.997640
vn 0.068663 0.000000 0.997640
vn 0.997640 0.000000 -0.068662
vn 0.997640 0.000000 -0.068662
vn 0.997640 0.000000 -0.068662
vn 0.997640 0.000000 -0.068662
vn -0.068662 0.000000 -0.997640
vn -0.068662 0.000000 -0.997640
vn -0.068662 0.000000 -0.997640
vn -0.068662 0.000000 -0.997640
vn -0.997640 0.000000 0.068662
vn -0.997640 0.000000 0.068662
vn -0.997640 0.000000 0.068662
vn -0.997640 0.000000 0.068662
vn 0.068663 0.000000 0.997640
vn 0.068663 0.000000 0.997640
vn 0.068663 0.000000 0.997640
vn 0.068663 0.000000 0.997640
vn 0.997640 0.000000 -0.068662
vn 0.997640 0.000000 -0.068662
vn 0.997640 0.000000 -0.068662
vn 0.997640 0.000000 -0.068662
vn -0.068662 0.000000 -0.997640
vn -0.068662 0.000000 -0.997640
vn -0.068662 0.000000 -0.997640
vn -0.068662 0.000000 -0.997640
vn -0.997640 0.000000 0.068662
vn -0.997640 0.000000 0.068662
vn -0.997640 0.000000 0.068662
vn -0.997640 0.000000 0.068662
s off
f 9/1/1 10/2/2 4/3/3 3/4/4
f 3/5/5 4/6/6 6/7/7 5/8/8
f 5/9/9 6/10/10 11/11/11 12/12/12
f 7/13/13 8/14/14 2/15/15 1/16/16
f 10/17/17 11/18/18 6/19/19 4/20/20
f 12/21/21 9/22/22 3/23/23 5/24/24
f 13/25/25 14/26/26 10/27/27 9/28/28
f 14/29/29 15/30/30 11/31/31 10/32/32
f 12/33/33 11/34/34 15/35/35 16/36/36
f 16/37/37 13/38/38 9/39/39 12/40/40
f 1/41/41 2/42/42 14/43/43 13/44/44
f 2/45/45 8/46/46 15/47/47 14/48/48
f 16/49/49 15/50/50 8/51/51 7/52/52
f 7/53/53 1/54/54 13/55/55 16/56/56
f 25/57/57 26/58/58 20/59/59 19/60/60
f 19/61/61 20/62/62 22/63/63 21/64/64
f 21/65/65 22/66/66 27/67/67 28/68/68
f 23/69/69 24/70/70 18/71/71 17/72/72
f 26/73/73 27/74/74 22/75/75 20/76/76
f 28/77/77 25/78/78 19/79/79 21/80/80
f 29/81/81 30/82/82 26/83/83 25/84/84
f 30/85/85 31/86/86 27/87/87 26/88/88
f 28/89/89 27/90/90 31/91/91 32/92/92
f 32/93/93 29/94/94 25/95/95 28/96/96
f 17/97/97 18/98/98 30/99/99 29/100/100
f 18/101/101 24/102/102 31/103/103 30/104/104
f 32/105/105 31/106/106 24/107/107 23/108/108
f 23/109/109 17/110/110 29/111/111 32/112/112
