# This file uses centimeters as units for non-parametric coordinates.

v -0.024862 0.000000 0.218941
v 0.064029 0.000000 0.193507
v -0.024862 0.056658 0.218941
v 0.064029 0.056658 0.193507
v -0.086802 0.056658 -0.218941
v 0.068178 0.056658 -0.218941
v -0.086802 0.000000 -0.218941
v 0.068178 0.000000 -0.218941
v -0.144132 0.000000 0.027464
v -0.144132 0.056658 0.027464
v 0.141241 0.056658 0.027464
v 0.141241 0.000000 0.027464
v -0.072336 0.000000 0.127387
v -0.072336 0.056658 0.127387
v 0.095257 0.056658 0.127387
v 0.095257 0.000000 0.127387
v 0.154696 0.056658 -0.138036
v -0.154696 0.056658 -0.138036
v -0.154696 0.000000 -0.138036
v 0.154696 0.000000 -0.138036
v -0.123671 0.056658 0.023565
v 0.121187 0.056658 0.023565
v 0.132736 0.056658 -0.118441
v -0.132730 0.056658 -0.118441
v -0.062071 0.056658 0.109304
v 0.081739 0.056658 0.109304
v -0.021332 0.056658 0.187861
v 0.054939 0.056658 0.166037
v 0.058498 0.056658 -0.187861
v -0.074484 0.056658 -0.187861
v -0.132730 0.000000 -0.118441
v 0.132736 0.000000 -0.118441
v 0.121187 0.000000 0.023565
v -0.123671 0.000000 0.023565
v 0.081739 0.000000 0.109304
v -0.062071 0.000000 0.109304
v 0.054939 0.000000 0.166037
v -0.021332 0.000000 0.187861
v -0.074484 0.000000 -0.187861
v 0.058498 0.000000 -0.187861
v -0.039320 0.056658 -0.032383
v 0.038534 0.056658 -0.032383
v 0.042209 0.056658 -0.107502
v -0.042200 0.056658 -0.107502
v -0.042200 0.000000 -0.107502
v 0.042209 0.000000 -0.107502
v 0.038534 0.000000 -0.032383
v -0.039320 0.000000 -0.032383
v -0.018731 0.056658 -0.052046
v 0.018363 0.056658 -0.052046
v 0.020113 0.056658 -0.087838
v -0.020105 0.056658 -0.087838
v -0.020105 0.000000 -0.087838
v 0.020113 0.000000 -0.087838
v 0.018363 0.000000 -0.052046
v -0.018731 0.000000 -0.052046
vt 0.119864 0.444708
vt 0.144591 0.444708
vt 0.211188 0.443479
vt 0.119864 0.444708
vt 0.144591 0.444708
vt 0.211188 0.443479
vt 0.211188 0.443479
vt 0.144591 0.444708
vt 0.211188 0.443479
vt 0.211188 0.443479
vt 0.119864 0.444708
vt 0.119864 0.444708
vt 0.119864 0.444708
vt 0.119864 0.444708
vt 0.211188 0.443479
vt 0.144591 0.444708
vt 0.144591 0.444708
vt 0.211188 0.443479
vt 0.211188 0.443479
vt 0.144591 0.444708
vt 0.119864 0.444708
vt 0.144591 0.444708
vt 0.144591 0.444708
vt 0.119864 0.444708
vt 0.119864 0.444708
vt 0.211188 0.443479
vt 0.119864 0.444708
vt 0.211188 0.443479
vt 0.211188 0.443479
vt 0.119864 0.444708
vt 0.211188 0.443479
vt 0.119864 0.444708
vt 0.119864 0.444708
vt 0.211188 0.443479
vt 0.119864 0.444708
vt 0.211188 0.443479
vt 0.211188 0.443479
vt 0.119864 0.444708
vt 0.211188 0.443479
vt 0.119864 0.444708
vt 0.211188 0.443479
vt 0.119864 0.444708
vt 0.119864 0.444708
vt 0.211188 0.443479
vt 0.119864 0.444708
vt 0.211188 0.443479
vt 0.211188 0.443479
vt 0.119864 0.444708
vt 0.172481 0.047562
vt 0.211188 0.443479
vt 0.172481 0.047562
vt 0.211188 0.443479
vt 0.172481 0.047562
vt 0.172481 0.047562
vt 0.172481 0.047562
vt 0.172481 0.047562
vt 0.172481 0.047562
vt 0.172481 0.047562
vt 0.172481 0.047562
vt 0.172481 0.047562
vt 0.172481 0.047562
vt 0.172481 0.047562
vt 0.172481 0.047562
vt 0.172481 0.047562
vt 0.172481 0.047562
vt 0.172481 0.047562
vt 0.172481 0.047562
vt 0.172481 0.047562
vt 0.119864 0.444708
vt 0.119864 0.444708
vt 0.119864 0.444708
vt 0.119864 0.444708
vt 0.119864 0.444708
vt 0.119864 0.444708
vt 0.119864 0.444708
vt 0.119864 0.444708
vt 0.119864 0.444708
vt 0.119864 0.444708
vt 0.119864 0.444708
vt 0.119864 0.444708
vt 0.211188 0.443479
vt 0.211188 0.443479
vt 0.211188 0.443479
vt 0.172481 0.047562
vt 0.172481 0.047562
vt 0.211188 0.443479
vt 0.211188 0.443479
vt 0.211188 0.443479
vt 0.211188 0.443479
vt 0.211188 0.443479
vt 0.211188 0.443479
vt 0.211188 0.443479
vt 0.211188 0.443479
vt 0.211188 0.443479
vt 0.211188 0.443479
vt 0.211188 0.443479
vt 0.211188 0.443479
vt 0.211188 0.443479
vt 0.211188 0.443479
vt 0.211188 0.443479
vt 0.176496 0.442515
vt 0.176496 0.442515
vt 0.176496 0.442515
vt 0.176496 0.442515
vt 0.176496 0.442515
vt 0.176496 0.442515
vt 0.176496 0.442515
vt 0.176496 0.442515
vt 0.120606 0.443479
vt 0.176496 0.442515
vt 0.176496 0.442515
vt 0.176496 0.442515
vt 0.120606 0.443479
vt 0.176496 0.442515
vt 0.176496 0.442515
vt 0.176496 0.442515
vt 0.176496 0.442515
vt 0.176496 0.442515
vt 0.176496 0.442515
vt 0.120606 0.443479
vt 0.176496 0.442515
vt 0.120606 0.443479
vt 0.172481 0.047562
vt 0.176496 0.442515
vt 0.176496 0.442515
vt 0.120606 0.443479
vt 0.172481 0.047562
vt 0.176496 0.442515
vt 0.172481 0.047562
vt 0.176496 0.442515
vt 0.172481 0.047562
vt 0.176496 0.442515
vt 0.176496 0.442515
vt 0.176496 0.442515
vt 0.176496 0.442515
vt 0.120606 0.443479
vt 0.176496 0.442515
vt 0.120606 0.443479
vt 0.172481 0.047562
vt 0.176496 0.442515
vt 0.176496 0.442515
vt 0.120606 0.443479
vt 0.172481 0.047562
vt 0.176496 0.442515
vt 0.172481 0.047562
vt 0.176496 0.442515
vt 0.172481 0.047562
vt 0.176496 0.442515
vn 0.275088 0.000000 0.961419
vn 0.275088 0.000000 0.961419
vn 0.275088 0.000000 0.961419
vn 0.275088 0.000000 0.961419
vn 0.000000 1.000000 0.000000
vn 0.000000 1.000000 0.000000
vn 0.000000 1.000000 0.000000
vn 0.000000 1.000000 0.000000
vn 0.000000 0.000000 -1.000000
vn 0.000000 0.000000 -1.000000
vn 0.000000 0.000000 -1.000000
vn 0.000000 0.000000 -1.000000
vn 0.000000 -1.000000 0.000000
vn 0.000000 -1.000000 0.000000
vn 0.000000 -1.000000 0.000000
vn 0.000000 -1.000000 0.000000
vn 0.975831 0.000000 0.218527
vn 0.975831 0.000000 0.218527
vn 0.958741 0.000000 -0.284282
vn 0.958741 0.000000 -0.284282
vn -0.973985 0.000000 -0.226614
vn -0.973985 0.000000 -0.226614
vn -0.955078 0.000000 0.296356
vn -0.955078 0.000000 0.296356
vn -0.955078 0.000000 0.296356
vn -0.955078 0.000000 0.296356
vn -0.848802 0.000000 0.528711
vn -0.848802 0.000000 0.528711
vn 0.000000 1.000000 -0.000000
vn 0.000000 1.000000 -0.000000
vn 0.000000 1.000000 -0.000000
vn 0.000000 1.000000 -0.000000
vn 0.906756 0.000000 0.421655
vn 0.906756 0.000000 0.421655
vn 0.975831 0.000000 0.218527
vn 0.975831 0.000000 0.218527
vn 0.000000 -1.000000 0.000000
vn 0.000000 -1.000000 0.000000
vn 0.000000 -1.000000 0.000000
vn 0.000000 -1.000000 0.000000
vn -0.848802 0.000000 0.528711
vn -0.848802 0.000000 0.528711
vn -0.887748 0.000000 0.460330
vn -0.887748 0.000000 0.460330
vn 0.000000 1.000000 -0.000000
vn 0.000000 1.000000 -0.000000
vn 0.000000 1.000000 -0.000000
vn 0.000000 1.000000 -0.000000
vn 0.904222 0.000000 0.427062
vn 0.906756 0.000000 0.421655
vn 0.906756 0.000000 0.421655
vn 0.904222 0.000000 0.427062
vn 0.000000 -1.000000 0.000000
vn 0.000000 -1.000000 0.000000
vn 0.000000 -1.000000 0.000000
vn 0.000000 -1.000000 0.000000
vn 0.000000 1.000000 -0.000000
vn 0.000000 1.000000 -0.000000
vn 0.000000 1.000000 -0.000000
vn 0.000000 1.000000 -0.000000
vn -0.766013 0.000000 -0.642826
vn -0.973985 0.000000 -0.226614
vn -0.973985 0.000000 -0.226614
vn -0.766013 0.000000 -0.642826
vn 0.000000 -1.000000 0.000000
vn 0.000000 -1.000000 0.000000
vn 0.000000 -1.000000 0.000000
vn 0.000000 -1.000000 0.000000
vn 0.958741 0.000000 -0.284282
vn 0.958741 0.000000 -0.284282
vn 0.683018 0.000000 -0.730401
vn 0.683018 0.000000 -0.730401
vn 0.000000 1.000000 0.000000
vn 0.000000 1.000000 0.000000
vn 0.000000 1.000000 0.000000
vn 0.000000 1.000000 0.000000
vn 0.000000 1.000000 0.000000
vn 0.000000 1.000000 0.000000
vn 0.000000 1.000000 0.000000
vn 0.000000 1.000000 0.000000
vn 0.000000 1.000000 0.000000
vn 0.000000 1.000000 0.000000
vn 0.000000 1.000000 0.000000
vn 0.000000 1.000000 0.000000
vn 0.000000 1.000000 0.000000
vn 0.000000 1.000000 0.000000
vn 0.000000 1.000000 0.000000
vn 0.000000 1.000000 0.000000
vn 0.000000 1.000000 0.000000
vn 0.000000 1.000000 0.000000
vn 0.000000 1.000000 0.000000
vn 0.000000 1.000000 0.000000
vn 0.000000 1.000000 -0.000000
vn 0.000000 1.000000 -0.000000
vn 0.000000 1.000000 -0.000000
vn 0.000000 1.000000 -0.000000
vn 0.000000 1.000000 -0.000000
vn 0.000000 1.000000 -0.000000
vn 0.000000 1.000000 -0.000000
vn 0.000000 1.000000 -0.000000
vn 0.000000 1.000000 0.000000
vn 0.000000 1.000000 0.000000
vn 0.000000 1.000000 0.000000
vn 0.000000 1.000000 0.000000
vn 0.000000 1.000000 0.000000
vn 0.000000 1.000000 0.000000
vn 0.000000 1.000000 0.000000
vn 0.000000 1.000000 0.000000
vn 0.000000 1.000000 0.000000
vn 0.000000 1.000000 0.000000
vn 0.000000 1.000000 0.000000
vn 0.000000 1.000000 0.000000
vn 0.000000 -1.000000 0.000000
vn 0.000000 -1.000000 0.000000
vn 0.000000 -1.000000 0.000000
vn 0.000000 -1.000000 0.000000
vn 0.000000 -1.000000 0.000000
vn 0.000000 -1.000000 0.000000
vn 0.000000 -1.000000 0.000000
vn 0.000000 -1.000000 0.000000
vn 0.000000 -1.000000 0.000000
vn 0.000000 -1.000000 0.000000
vn 0.000000 -1.000000 0.000000
vn 0.000000 -1.000000 0.000000
vn 0.000000 -1.000000 0.000000
vn 0.000000 -1.000000 0.000000
vn 0.000000 -1.000000 0.000000
vn 0.000000 -1.000000 0.000000
vn 0.000000 -1.000000 0.000000
vn 0.000000 -1.000000 0.000000
vn 0.000000 -1.000000 0.000000
vn 0.000000 -1.000000 0.000000
vn 0.000000 -1.000000 0.000000
vn 0.000000 -1.000000 0.000000
vn 0.000000 -1.000000 0.000000
vn 0.000000 -1.000000 0.000000
vn 0.000000 -1.000000 0.000000
vn 0.000000 -1.000000 0.000000
vn 0.000000 -1.000000 0.000000
vn 0.000000 -1.000000 0.000000
vn 0.000000 -1.000000 0.000000
vn 0.000000 -1.000000 0.000000
vn 0.000000 -1.000000 0.000000
vn 0.000000 -1.000000 0.000000
vn 0.000000 -1.000000 0.000000
vn 0.000000 -1.000000 0.000000
vn 0.000000 -1.000000 0.000000
vn 0.000000 -1.000000 0.000000
vn 0.000000 -1.000000 0.000000
vn 0.000000 -1.000000 0.000000
vn 0.000000 -1.000000 0.000000
vn 0.000000 -1.000000 0.000000
vn 0.000000 1.000000 0.000000
vn 0.000000 1.000000 0.000000
vn 0.000000 1.000000 0.000000
vn 0.000000 1.000000 0.000000
vn 0.000000 1.000000 0.000000
vn 0.000000 1.000000 0.000000
vn 0.000000 1.000000 0.000000
vn 0.000000 1.000000 0.000000
vn 0.000000 1.000000 0.000000
vn 0.000000 1.000000 0.000000
vn 0.000000 1.000000 0.000000
vn 0.000000 1.000000 0.000000
vn 0.000000 1.000000 -0.000000
vn 0.000000 1.000000 -0.000000
vn 0.000000 1.000000 -0.000000
vn 0.000000 1.000000 -0.000000
vn 0.000000 -1.000000 0.000000
vn 0.000000 -1.000000 0.000000
vn 0.000000 -1.000000 0.000000
vn 0.000000 -1.000000 0.000000
vn 0.000000 -1.000000 0.000000
vn 0.000000 -1.000000 0.000000
vn 0.000000 -1.000000 0.000000
vn 0.000000 -1.000000 0.000000
vn 0.000000 -1.000000 0.000000
vn 0.000000 -1.000000 0.000000
vn 0.000000 -1.000000 0.000000
vn 0.000000 -1.000000 0.000000
vn 0.000000 -1.000000 0.000000
vn 0.000000 -1.000000 0.000000
vn 0.000000 -1.000000 0.000000
vn 0.000000 -1.000000 0.000000
vn 0.000000 1.000000 -0.000000
vn 0.000000 1.000000 -0.000000
vn 0.000000 1.000000 -0.000000
vn 0.000000 1.000000 -0.000000
vn 0.000000 1.000000 0.000000
vn 0.000000 1.000000 0.000000
vn 0.000000 1.000000 0.000000
vn 0.000000 1.000000 0.000000
vn 0.000000 1.000000 0.000000
vn 0.000000 1.000000 0.000000
vn 0.000000 1.000000 0.000000
vn 0.000000 1.000000 0.000000
vn 0.000000 1.000000 0.000000
vn 0.000000 1.000000 0.000000
vn 0.000000 1.000000 0.000000
vn 0.000000 1.000000 0.000000
vn 0.000000 -1.000000 0.000000
vn 0.000000 -1.000000 0.000000
vn 0.000000 -1.000000 0.000000
vn 0.000000 -1.000000 0.000000
vn 0.000000 -1.000000 0.000000
vn 0.000000 -1.000000 0.000000
vn 0.000000 -1.000000 0.000000
vn 0.000000 -1.000000 0.000000
vn 0.000000 -1.000000 0.000000
vn 0.000000 -1.000000 0.000000
vn 0.000000 -1.000000 0.000000
vn 0.000000 -1.000000 0.000000
vn 0.000000 -1.000000 0.000000
vn 0.000000 -1.000000 0.000000
vn 0.000000 -1.000000 0.000000
vn 0.000000 -1.000000 0.000000
s off
f 1/23/1 2/2/2 4/22/3 3/17/4
f 49/109/5 50/113/6 51/120/7 52/122/8
f 5/5/9 6/16/10 8/8/11 7/20/12
f 53/126/13 54/136/14 55/138/15 56/142/16
f 11/30/17 12/73/18 20/48/19 17/70/20
f 18/43/21 19/72/22 9/25/23 10/80/24
f 10/27/25 9/74/26 13/33/27 14/78/28
f 25/59/29 26/60/30 22/51/31 21/49/32
f 15/38/33 16/76/34 12/32/35 11/79/36
f 34/58/37 33/57/38 35/61/39 36/62/40
f 14/35/41 13/77/42 1/1/43 3/24/44
f 27/63/45 28/64/46 26/60/47 25/59/48
f 2/21/49 16/40/50 15/75/51 4/4/52
f 36/62/53 35/61/54 37/65/55 38/66/56
f 24/54/57 23/53/58 29/67/59 30/68/60
f 7/13/61 19/45/62 18/71/63 5/14/64
f 39/84/65 40/85/66 32/56/67 31/55/68
f 17/42/69 20/69/70 8/11/71 6/12/72
f 11/3/73 17/6/74 23/7/75 22/9/76
f 18/10/77 10/15/78 21/18/79 24/19/80
f 15/26/81 11/3/82 22/9/83 26/28/84
f 10/15/85 14/29/86 25/31/87 21/18/88
f 3/34/89 4/36/90 28/37/91 27/39/92
f 4/36/93 15/26/94 26/28/95 28/37/96
f 14/29/97 3/34/98 27/39/99 25/31/100
f 17/6/101 6/41/102 29/44/103 23/7/104
f 6/41/105 5/46/106 30/47/107 29/44/108
f 5/46/109 18/10/110 24/19/111 30/47/112
f 20/50/113 12/52/114 33/81/115 32/82/116
f 9/83/117 19/86/118 31/87/119 34/88/120
f 12/52/121 16/89/122 35/90/123 33/81/124
f 13/91/125 9/83/126 34/88/127 36/92/128
f 16/89/129 2/93/130 37/94/131 35/90/132
f 2/93/133 1/95/134 38/96/135 37/94/136
f 1/95/137 13/91/138 36/92/139 38/96/140
f 7/97/141 8/98/142 40/99/143 39/100/144
f 8/98/145 20/50/146 32/82/147 40/99/148
f 19/86/149 7/97/150 39/100/151 31/87/152
f 21/49/153 22/51/154 42/145/155 41/147/156
f 22/51/157 23/53/158 43/143/159 42/145/160
f 23/53/161 24/54/162 44/139/163 43/143/164
f 24/54/165 21/49/166 41/147/167 44/139/168
f 31/55/169 32/56/170 46/129/171 45/131/172
f 32/56/173 33/57/174 47/127/175 46/129/176
f 33/57/177 34/58/178 48/123/179 47/127/180
f 34/58/181 31/55/182 45/131/183 48/123/184
f 41/101/185 42/146/186 50/141/187 49/133/188
f 42/102/189 43/144/190 51/137/191 50/110/192
f 43/103/193 44/140/194 52/135/195 51/111/196
f 44/104/197 41/148/198 49/134/199 52/112/200
f 45/105/201 46/130/202 54/125/203 53/117/204
f 46/106/205 47/128/206 55/121/207 54/114/208
f 47/107/209 48/124/210 56/119/211 55/115/212
f 48/108/213 45/132/214 53/118/215 56/116/216
