# This file uses centimeters as units for non-parametric coordinates.

v -0.116392 0.000000 0.116392
v 0.116392 0.000000 0.116392
v -0.054677 0.386215 0.054673
v 0.054677 0.386215 0.054673
v -0.054677 0.386215 -0.054673
v 0.054677 0.386215 -0.054673
v -0.116392 0.000000 -0.116392
v 0.137344 0.000000 -0.137345
v -0.018169 0.386215 0.018166
v 0.018169 0.386215 0.018166
v 0.018169 0.386215 -0.018166
v -0.018169 0.386215 -0.018166
v -0.073070 0.285391 -0.073061
v -0.073070 0.285391 0.073061
v 0.073070 0.285391 0.073061
v 0.073070 0.285391 -0.073061
v -0.137344 0.157649 -0.137345
v -0.137344 0.157649 0.137345
v 0.137344 0.157649 0.137345
v 0.137344 0.157649 -0.137345
vt 0.299344 0.287077
vt 0.324071 0.287077
vt 0.359395 0.287077
vt 0.299344 0.287077
vt 0.324071 0.287077
vt 0.359395 0.287077
vt 0.265198 0.287077
vt 0.324071 0.287077
vt 0.265198 0.287077
vt 0.265197 0.287077
vt 0.299344 0.287077
vt 0.299344 0.287077
vt 0.299344 0.287077
vt 0.299344 0.287077
vt 0.359395 0.287077
vt 0.324071 0.287077
vt 0.324071 0.287077
vt 0.359395 0.287077
vt 0.265197 0.287077
vt 0.324071 0.287077
vt 0.299344 0.287077
vt 0.324071 0.287077
vt 0.324071 0.287077
vt 0.299344 0.287077
vt 0.261921 0.284840
vt 0.359395 0.287077
vt 0.359395 0.287077
vt 0.359395 0.287077
vt 0.359395 0.287077
vt 0.359395 0.287077
vt 0.359395 0.287077
vt 0.261921 0.284840
vt 0.359395 0.287077
vt 0.261921 0.284840
vt 0.359395 0.287077
vt 0.359395 0.287077
vt 0.261921 0.284840
vt 0.359395 0.287077
vt 0.359395 0.287077
vt 0.359395 0.287077
vt 0.299344 0.287077
vt 0.324071 0.287077
vt 0.331333 0.287077
vt 0.324071 0.287077
vt 0.356060 0.287077
vt 0.299344 0.287077
vt 0.356060 0.287077
vt 0.331333 0.287077
vt 0.331333 0.287077
vt 0.356060 0.287077
vt 0.299344 0.287077
vt 0.324071 0.287077
vt 0.324071 0.287077
vt 0.299344 0.287077
vt 0.324071 0.287077
vt 0.299344 0.287077
vt 0.331333 0.287077
vt 0.356060 0.287077
vt 0.299344 0.287077
vt 0.324071 0.287077
vt 0.356060 0.287077
vt 0.331333 0.287077
vt 0.331333 0.287077
vt 0.356060 0.287077
vt 0.324071 0.287077
vt 0.331333 0.287077
vt 0.299344 0.287077
vt 0.356060 0.287077
vt 0.299344 0.287077
vt 0.324071 0.287077
vt 0.331333 0.287077
vt 0.356060 0.287077
vn 0.000000 0.389363 0.921084
vn 0.000000 0.389363 0.921084
vn 0.000000 0.179417 0.983773
vn 0.000000 0.179417 0.983773
vn 0.000000 1.000000 0.000000
vn 0.000000 1.000000 0.000000
vn 0.000000 1.000000 0.000000
vn 0.000000 1.000000 0.000000
vn 0.000000 0.179417 -0.983773
vn 0.000000 0.179417 -0.983773
vn 0.000000 0.389363 -0.921084
vn 0.000000 0.389363 -0.921084
vn 0.000000 -1.000000 0.000000
vn 0.000000 -1.000000 0.000000
vn 0.000000 -1.000000 0.000000
vn 0.000000 -1.000000 0.000000
vn 0.921096 0.389336 0.000000
vn 0.921096 0.389336 0.000000
vn 0.983765 0.179460 0.000000
vn 0.983765 0.179460 0.000000
vn -0.921096 0.389336 0.000000
vn -0.921096 0.389336 0.000000
vn -0.983765 0.179460 0.000000
vn -0.983765 0.179460 0.000000
vn 0.000000 1.000000 0.000000
vn 0.000000 1.000000 0.000000
vn 0.000000 1.000000 0.000000
vn 0.000000 1.000000 0.000000
vn 0.000000 1.000000 0.000000
vn 0.000000 1.000000 0.000000
vn 0.000000 1.000000 0.000000
vn 0.000000 1.000000 0.000000
vn 0.000000 1.000000 0.000000
vn 0.000000 1.000000 0.000000
vn 0.000000 1.000000 0.000000
vn 0.000000 1.000000 0.000000
vn 0.000000 1.000000 0.000000
vn 0.000000 1.000000 0.000000
vn 0.000000 1.000000 0.000000
vn 0.000000 1.000000 0.000000
vn -0.996060 0.088678 0.000000
vn -0.996060 0.088678 0.000000
vn -0.921096 0.389336 0.000000
vn -0.921096 0.389336 0.000000
vn 0.000000 0.088710 0.996058
vn 0.000000 0.088710 0.996058
vn 0.000000 0.389363 0.921084
vn 0.000000 0.389363 0.921084
vn 0.991900 0.124337 0.025966
vn 0.993171 0.113554 0.026757
vn 0.921096 0.389336 0.000000
vn 0.921096 0.389336 0.000000
vn 0.000000 0.389363 -0.921084
vn 0.000000 0.389363 -0.921084
vn -0.026757 0.113584 -0.993168
vn -0.025966 0.124368 -0.991896
vn -0.991284 -0.131746 0.000000
vn -0.991284 -0.131746 0.000000
vn -0.996060 0.088678 0.000000
vn -0.996060 0.088678 0.000000
vn 0.000000 -0.131750 0.991283
vn 0.000000 -0.131750 0.991283
vn 0.000000 0.088710 0.996058
vn 0.000000 0.088710 0.996058
vn 0.996843 -0.068869 0.039525
vn 0.996843 -0.068869 0.039525
vn 0.993171 0.113554 0.026757
vn 0.991900 0.124337 0.025966
vn -0.025966 0.124368 -0.991896
vn -0.026757 0.113584 -0.993168
vn -0.039527 -0.068872 -0.996842
vn -0.039527 -0.068872 -0.996842
s off
f 14/44/1 15/65/2 4/22/3 3/17/4
f 9/25/5 10/37/6 11/34/7 12/32/8
f 5/5/9 6/16/10 16/70/11 13/42/12
f 7/7/13 8/19/14 2/10/15 1/9/16
f 15/46/17 16/69/18 6/12/19 4/4/20
f 13/41/21 14/67/22 3/24/23 5/14/24
f 3/3/25 4/39/26 10/36/27 9/29/28
f 4/15/29 6/38/30 11/33/31 10/26/32
f 6/6/33 5/35/34 12/31/35 11/27/36
f 5/18/37 3/40/38 9/30/39 12/28/40
f 17/49/41 18/63/42 14/43/43 13/71/44
f 18/64/45 19/61/46 15/45/47 14/68/48
f 19/62/49 20/57/50 16/48/51 15/66/52
f 13/72/53 16/47/54 20/58/55 17/50/56
f 7/13/57 1/1/58 18/51/59 17/59/60
f 1/23/61 2/2/62 19/53/63 18/52/64
f 2/21/65 8/11/66 20/56/67 19/54/68
f 17/60/69 20/55/70 8/8/71 7/20/72
