# This file uses centimeters as units for non-parametric coordinates.

v -0.230322 0.000000 0.230322
v 0.230322 0.000000 0.230322
v -0.230322 0.064690 0.230322
v 0.230322 0.064690 0.230322
v -0.230322 0.064690 -0.230322
v 0.230322 0.064690 -0.230322
v -0.230322 0.000000 -0.230322
v 0.230322 0.000000 -0.230322
v 0.075690 0.064690 -0.071508
v -0.068929 0.064690 -0.071508
v -0.068929 0.064690 0.071561
v 0.075690 0.064690 0.071561
v -0.198576 0.064690 0.198857
v -0.083965 0.064690 0.198857
v -0.083965 0.064690 0.086329
v -0.198576 0.064690 0.086329
v -0.053915 0.064690 0.086310
v -0.053915 0.064690 0.198876
v 0.060677 0.064690 0.198876
v 0.060677 0.064690 0.086310
v 0.090549 0.064690 0.198324
v 0.090549 0.064690 0.086862
v 0.198774 0.064690 0.198324
v 0.198774 0.064690 0.086862
v 0.091671 0.064690 0.054989
v 0.091671 0.064690 -0.054937
v 0.197652 0.064690 0.054989
v 0.197652 0.064690 -0.054937
v -0.052556 0.064690 -0.055316
v -0.052556 0.064690 0.055369
v 0.059325 0.064690 0.055369
v 0.059325 0.064690 -0.055316
v -0.197245 0.064690 0.055370
v -0.085298 0.064690 0.055370
v -0.085298 0.064690 -0.055318
v -0.197245 0.064690 -0.055318
v -0.083907 0.064690 -0.086223
v -0.198643 0.064690 -0.086223
v -0.083907 0.064690 -0.198911
v -0.198643 0.064690 -0.198911
v -0.054486 0.064690 -0.199435
v -0.054486 0.064690 -0.085699
v 0.061251 0.064690 -0.085699
v 0.061251 0.064690 -0.199435
v 0.090311 0.064690 -0.086572
v 0.090311 0.064690 -0.198562
v 0.199011 0.064690 -0.086572
v 0.199011 0.064690 -0.198562
v -0.052556 0.037295 -0.055316
v -0.052556 0.037295 0.055369
v 0.059325 0.037295 0.055369
v 0.059325 0.037295 -0.055316
v -0.053915 0.037295 0.086310
v -0.053915 0.037295 0.198876
v 0.060677 0.037295 0.198876
v 0.060677 0.037295 0.086310
v -0.054486 0.037295 -0.199435
v -0.054486 0.037295 -0.085699
v 0.061251 0.037295 -0.085699
v 0.061251 0.037295 -0.199435
v -0.083907 0.037295 -0.086223
v -0.198643 0.037295 -0.086223
v -0.083907 0.037295 -0.198911
v -0.198643 0.037295 -0.198911
v -0.197245 0.037295 0.055370
v -0.085298 0.037295 0.055370
v -0.085298 0.037295 -0.055318
v -0.197245 0.037295 -0.055318
v -0.198576 0.037295 0.198857
v -0.083965 0.037295 0.198857
v -0.083965 0.037295 0.086329
v -0.198576 0.037295 0.086329
v 0.090549 0.037295 0.198324
v 0.090549 0.037295 0.086862
v 0.198774 0.037295 0.198324
v 0.198774 0.037295 0.086862
v 0.091671 0.037295 0.054989
v 0.091671 0.037295 -0.054937
v 0.197652 0.037295 0.054989
v 0.197652 0.037295 -0.054937
v 0.090311 0.037295 -0.086572
v 0.090311 0.037295 -0.198562
v 0.199011 0.037295 -0.086572
v 0.199011 0.037295 -0.198562
vt 0.394854 0.400530
vt 0.419581 0.400530
vt 0.454905 0.400530
vt 0.394854 0.400530
vt 0.419581 0.400530
vt 0.454905 0.400530
vt 0.360708 0.400530
vt 0.419581 0.400530
vt 0.360708 0.400530
vt 0.360708 0.400530
vt 0.394854 0.400530
vt 0.394854 0.400530
vt 0.394854 0.400530
vt 0.394854 0.400530
vt 0.454905 0.400530
vt 0.419581 0.400530
vt 0.419581 0.400530
vt 0.454905 0.400530
vt 0.360708 0.400530
vt 0.419581 0.400530
vt 0.394854 0.400530
vt 0.419581 0.400530
vt 0.419581 0.400530
vt 0.394854 0.400530
vt 0.390707 0.400530
vt 0.327497 0.400530
vt 0.390707 0.400530
vt 0.327497 0.400530
vt 0.327497 0.400530
vt 0.390707 0.400530
vt 0.327497 0.400530
vt 0.390707 0.400530
vt 0.327497 0.400530
vt 0.390707 0.400530
vt 0.327496 0.400530
vt 0.390707 0.400530
vt 0.327497 0.400530
vt 0.390707 0.400530
vt 0.327496 0.400530
vt 0.390707 0.400530
vt 0.327497 0.400530
vt 0.390707 0.400530
vt 0.327497 0.400530
vt 0.390707 0.400530
vt 0.390707 0.400530
vt 0.327497 0.400530
vt 0.390707 0.400530
vt 0.327497 0.400530
vt 0.390707 0.400530
vt 0.327497 0.400530
vt 0.390707 0.400530
vt 0.327497 0.400530
vt 0.327497 0.400530
vt 0.390707 0.400530
vt 0.327497 0.400530
vt 0.390707 0.400530
vt 0.327497 0.400530
vt 0.390707 0.400530
vt 0.327496 0.400530
vt 0.390707 0.400530
vt 0.426263 0.400530
vt 0.390707 0.400530
vt 0.327497 0.400530
vt 0.390707 0.400530
vt 0.426263 0.400530
vt 0.390707 0.400530
vt 0.327497 0.400530
vt 0.390707 0.400530
vt 0.426263 0.400530
vt 0.390707 0.400530
vt 0.327497 0.400530
vt 0.390707 0.400530
vt 0.426263 0.400530
vt 0.327497 0.400530
vt 0.390707 0.400530
vt 0.327497 0.400530
vt 0.426263 0.400530
vt 0.327497 0.400530
vt 0.390707 0.400530
vt 0.327497 0.400530
vt 0.426263 0.400530
vt 0.327497 0.400530
vt 0.390707 0.400530
vt 0.327497 0.400530
vt 0.426263 0.400530
vt 0.390707 0.400530
vt 0.327496 0.400530
vt 0.390707 0.400530
vt 0.426263 0.400530
vt 0.390707 0.400530
vt 0.327496 0.400530
vt 0.390707 0.400530
vt 0.426263 0.400530
vt 0.390707 0.400530
vt 0.327496 0.400530
vt 0.390707 0.400530
vt 0.327497 0.400530
vt 0.426263 0.400530
vt 0.426263 0.400530
vt 0.426263 0.400530
vt 0.426263 0.400530
vt 0.327497 0.400530
vt 0.426263 0.400530
vt 0.426263 0.400530
vt 0.327497 0.400530
vt 0.426263 0.400530
vt 0.426263 0.400530
vt 0.426263 0.400530
vt 0.390707 0.400530
vt 0.426263 0.400530
vt 0.426263 0.400530
vt 0.426263 0.400530
vt 0.390707 0.400530
vt 0.426263 0.400530
vt 0.426263 0.400530
vt 0.426263 0.400530
vt 0.390707 0.400530
vt 0.426263 0.400530
vt 0.426263 0.400530
vt 0.426263 0.400530
vt 0.327497 0.400530
vt 0.426263 0.400530
vt 0.426263 0.400530
vt 0.426263 0.400530
vt 0.327497 0.400530
vt 0.426263 0.400530
vt 0.426263 0.400530
vt 0.426263 0.400530
vt 0.426263 0.400530
vt 0.327497 0.400530
vt 0.426263 0.400530
vt 0.426263 0.400530
vt 0.390707 0.400530
vt 0.327496 0.400530
vt 0.454905 0.400530
vt 0.390707 0.400530
vt 0.327497 0.400530
vt 0.390707 0.400530
vt 0.390707 0.400530
vt 0.454905 0.400530
vt 0.327496 0.400530
vt 0.390707 0.400530
vt 0.454905 0.400530
vt 0.327497 0.400530
vt 0.390707 0.400530
vt 0.390707 0.400530
vt 0.390707 0.400530
vt 0.454905 0.400530
vt 0.390707 0.400530
vt 0.327496 0.400530
vt 0.454905 0.400530
vt 0.327497 0.400530
vt 0.390707 0.400530
vt 0.390707 0.400530
vt 0.390707 0.400530
vt 0.454905 0.400530
vt 0.390707 0.400530
vt 0.327497 0.400530
vt 0.390707 0.400530
vt 0.454905 0.400530
vt 0.327497 0.400530
vt 0.390707 0.400530
vt 0.390707 0.400530
vt 0.454905 0.400530
vt 0.327497 0.400530
vt 0.390707 0.400530
vt 0.390707 0.400530
vt 0.454905 0.400530
vt 0.327497 0.400530
vt 0.390707 0.400530
vt 0.390707 0.400530
vt 0.454905 0.400530
vt 0.390707 0.400530
vt 0.327497 0.400530
vt 0.390707 0.400530
vt 0.454905 0.400530
vt 0.390707 0.400530
vt 0.327497 0.400530
vt 0.454905 0.400530
vt 0.390707 0.400530
vt 0.390707 0.400530
vt 0.327497 0.400530
vt 0.454905 0.400530
vt 0.390707 0.400530
vt 0.327497 0.400530
vt 0.390707 0.400530
vt 0.454905 0.400530
vt 0.390707 0.400530
vt 0.390707 0.400530
vt 0.327497 0.400530
vt 0.454905 0.400530
vt 0.327497 0.400530
vt 0.390707 0.400530
vt 0.390707 0.400530
vt 0.454905 0.400530
vt 0.390707 0.400530
vt 0.327497 0.400530
vt 0.390707 0.400530
vt 0.454905 0.400530
vt 0.327497 0.400530
vt 0.390707 0.400530
vt 0.390707 0.400530
vt 0.454905 0.400530
vt 0.390707 0.400530
vt 0.327496 0.400530
vt 0.454905 0.400530
vt 0.454905 0.400530
vt 0.327497 0.400530
vt 0.327496 0.400530
vt 0.454905 0.400530
vt 0.454905 0.400530
vt 0.327497 0.400530
vt 0.327496 0.400530
vt 0.454905 0.400530
vt 0.454905 0.400530
vt 0.327497 0.400530
vt 0.454905 0.400530
vt 0.327497 0.400530
vt 0.454905 0.400530
vt 0.327497 0.400530
vt 0.454905 0.400530
vt 0.327497 0.400530
vt 0.454905 0.400530
vt 0.327497 0.400530
vt 0.454905 0.400530
vt 0.327497 0.400530
vt 0.327497 0.400530
vt 0.454905 0.400530
vt 0.327497 0.400530
vt 0.454905 0.400530
vt 0.327497 0.400530
vt 0.454905 0.400530
vt 0.327497 0.400530
vt 0.454905 0.400530
vt 0.327497 0.400530
vt 0.454905 0.400530
vt 0.327497 0.400530
vt 0.454905 0.400530
vt 0.327497 0.400530
vt 0.454905 0.400530
vt 0.454905 0.400530
vt 0.454905 0.400530
vt 0.454905 0.400530
vt 0.454905 0.400530
vt 0.454905 0.400530
vt 0.454905 0.400530
vt 0.454905 0.400530
vt 0.454905 0.400530
vt 0.454905 0.400530
vt 0.454905 0.400530
vt 0.454905 0.400530
vt 0.454905 0.400530
vt 0.454905 0.400530
vt 0.454905 0.400530
vt 0.454905 0.400530
vt 0.454905 0.400530
vt 0.454905 0.400530
vt 0.454905 0.400530
vt 0.454905 0.400530
vt 0.454905 0.400530
vt 0.454905 0.400530
vt 0.454905 0.400530
vt 0.454905 0.400530
vt 0.454905 0.400530
vt 0.454905 0.400530
vt 0.454905 0.400530
vt 0.454905 0.400530
vt 0.454905 0.400530
vt 0.454905 0.400530
vt 0.454905 0.400530
vt 0.454905 0.400530
vt 0.454905 0.400530
vt 0.454905 0.400530
vt 0.454905 0.400530
vt 0.454905 0.400530
vt 0.454905 0.400530
vt 0.454905 0.400530
vt 0.454905 0.400530
vt 0.454905 0.400530
vt 0.454905 0.400530
vt 0.454905 0.400530
vt 0.454905 0.400530
vt 0.454905 0.400530
vt 0.454905 0.400530
vt 0.454905 0.400530
vt 0.454905 0.400530
vt 0.454905 0.400530
vt 0.454905 0.400530
vt 0.454905 0.400530
vt 0.454905 0.400530
vt 0.454905 0.400530
vt 0.454905 0.400530
vt 0.454905 0.400530
vt 0.454905 0.400530
vt 0.454905 0.400530
vt 0.454905 0.400530
vn 0.000000 0.000000 1.000000
vn 0.000000 0.000000 1.000000
vn 0.000000 0.000000 1.000000
vn 0.000000 0.000000 1.000000
vn 0.000000 1.000000 0.000000
vn 0.000000 1.000000 0.000000
vn 0.000000 1.000000 0.000000
vn 0.000000 1.000000 0.000000
vn 0.000000 0.000000 -1.000000
vn 0.000000 0.000000 -1.000000
vn 0.000000 0.000000 -1.000000
vn 0.000000 0.000000 -1.000000
vn 0.000000 -1.000000 0.000000
vn 0.000000 -1.000000 0.000000
vn 0.000000 -1.000000 0.000000
vn 0.000000 -1.000000 0.000000
vn 1.000000 0.000000 0.000000
vn 1.000000 0.000000 0.000000
vn 1.000000 0.000000 0.000000
vn 1.000000 0.000000 0.000000
vn -1.000000 0.000000 0.000000
vn -1.000000 0.000000 0.000000
vn -1.000000 0.000000 0.000000
vn -1.000000 0.000000 0.000000
vn 0.000000 1.000000 0.000000
vn 0.000000 1.000000 0.000000
vn 0.000000 1.000000 0.000000
vn 0.000000 1.000000 0.000000
vn 0.000000 1.000000 0.000000
vn 0.000000 1.000000 0.000000
vn 0.000000 1.000000 0.000000
vn 0.000000 1.000000 0.000000
vn 0.000000 1.000000 0.000000
vn 0.000000 1.000000 0.000000
vn 0.000000 1.000000 0.000000
vn 0.000000 1.000000 0.000000
vn 0.000000 1.000000 0.000000
vn 0.000000 1.000000 0.000000
vn 0.000000 1.000000 0.000000
vn 0.000000 1.000000 0.000000
vn 0.000000 1.000000 0.000000
vn 0.000000 1.000000 0.000000
vn 0.000000 1.000000 0.000000
vn 0.000000 1.000000 0.000000
vn 0.000000 1.000000 0.000000
vn 0.000000 1.000000 0.000000
vn 0.000000 1.000000 0.000000
vn 0.000000 1.000000 0.000000
vn 0.000000 1.000000 0.000000
vn 0.000000 1.000000 0.000000
vn 0.000000 1.000000 0.000000
vn 0.000000 1.000000 0.000000
vn 0.000000 1.000000 0.000000
vn 0.000000 1.000000 0.000000
vn 0.000000 1.000000 0.000000
vn 0.000000 1.000000 0.000000
vn 0.000000 1.000000 0.000000
vn 0.000000 1.000000 0.000000
vn 0.000000 1.000000 0.000000
vn 0.000000 1.000000 0.000000
vn 0.000000 1.000000 0.000000
vn 0.000000 1.000000 0.000000
vn 0.000000 1.000000 0.000000
vn 0.000000 1.000000 0.000000
vn 0.000000 1.000000 0.000000
vn 0.000000 1.000000 0.000000
vn 0.000000 1.000000 0.000000
vn 0.000000 1.000000 0.000000
vn 0.000000 1.000000 0.000000
vn 0.000000 1.000000 0.000000
vn 0.000000 1.000000 0.000000
vn 0.000000 1.000000 0.000000
vn 0.000000 1.000000 0.000000
vn 0.000000 1.000000 0.000000
vn 0.000000 1.000000 0.000000
vn 0.000000 1.000000 0.000000
vn 0.000000 1.000000 0.000000
vn 0.000000 1.000000 0.000000
vn 0.000000 1.000000 0.000000
vn 0.000000 1.000000 0.000000
vn 0.000000 1.000000 0.000000
vn 0.000000 1.000000 0.000000
vn 0.000000 1.000000 -0.000000
vn 0.000000 1.000000 -0.000000
vn 0.000000 1.000000 -0.000000
vn 0.000000 1.000000 -0.000000
vn 0.000000 1.000000 -0.000000
vn 0.000000 1.000000 -0.000000
vn 0.000000 1.000000 -0.000000
vn 0.000000 1.000000 -0.000000
vn 0.000000 1.000000 -0.000000
vn 0.000000 1.000000 -0.000000
vn 0.000000 1.000000 -0.000000
vn 0.000000 1.000000 -0.000000
vn 0.000000 1.000000 -0.000000
vn 0.000000 1.000000 -0.000000
vn 0.000000 1.000000 -0.000000
vn 0.000000 1.000000 -0.000000
vn 0.000000 1.000000 -0.000000
vn 0.000000 1.000000 -0.000000
vn 0.000000 1.000000 0.000000
vn 0.000000 1.000000 0.000000
vn 0.000000 1.000000 0.000000
vn 0.000000 1.000000 0.000000
vn 0.000000 1.000000 0.000000
vn 0.000000 1.000000 0.000000
vn 0.000000 1.000000 0.000000
vn 0.000000 1.000000 0.000000
vn 0.000000 1.000000 0.000000
vn 0.000000 1.000000 0.000000
vn 0.000000 1.000000 0.000000
vn 0.000000 1.000000 0.000000
vn 0.000000 1.000000 0.000000
vn 0.000000 1.000000 0.000000
vn 0.000000 1.000000 0.000000
vn 0.000000 1.000000 0.000000
vn 0.000000 1.000000 0.000000
vn 0.000000 1.000000 0.000000
vn 0.000000 1.000000 -0.000000
vn 0.000000 1.000000 -0.000000
vn 0.000000 1.000000 -0.000000
vn 0.000000 1.000000 -0.000000
vn 0.000000 1.000000 -0.000000
vn 0.000000 1.000000 -0.000000
vn 0.000000 1.000000 0.000000
vn 0.000000 1.000000 0.000000
vn 0.000000 1.000000 0.000000
vn 0.000000 1.000000 0.000000
vn 0.000000 1.000000 0.000000
vn 0.000000 1.000000 -0.000000
vn 0.000000 1.000000 -0.000000
vn 0.000000 1.000000 -0.000000
vn 0.000000 1.000000 -0.000000
vn 0.000000 1.000000 -0.000000
vn 0.000000 1.000000 -0.000000
vn 0.000000 1.000000 -0.000000
vn 0.000000 1.000000 -0.000000
vn 0.000000 1.000000 -0.000000
vn 0.000000 1.000000 -0.000000
vn 0.000000 1.000000 0.000000
vn 0.000000 1.000000 0.000000
vn 0.000000 1.000000 0.000000
vn 0.000000 1.000000 0.000000
vn 0.000000 1.000000 0.000000
vn 0.000000 1.000000 0.000000
vn 0.000000 1.000000 0.000000
vn 0.000000 1.000000 0.000000
vn 0.000000 1.000000 0.000000
vn 0.000000 1.000000 0.000000
vn 0.000000 1.000000 0.000000
vn 0.000000 1.000000 0.000000
vn 0.000000 1.000000 0.000000
vn 1.000000 0.000000 0.000000
vn 1.000000 0.000000 0.000000
vn 1.000000 0.000000 0.000000
vn 1.000000 0.000000 0.000000
vn 0.000000 0.000000 -1.000000
vn 0.000000 0.000000 -1.000000
vn 0.000000 0.000000 -1.000000
vn 0.000000 0.000000 -1.000000
vn -1.000000 0.000000 0.000000
vn -1.000000 0.000000 0.000000
vn -1.000000 0.000000 0.000000
vn -1.000000 0.000000 0.000000
vn 0.000000 0.000000 1.000000
vn 0.000000 0.000000 1.000000
vn 0.000000 0.000000 1.000000
vn 0.000000 0.000000 1.000000
vn 1.000000 0.000000 0.000000
vn 1.000000 0.000000 0.000000
vn 1.000000 0.000000 0.000000
vn 1.000000 0.000000 0.000000
vn 0.000000 0.000000 -1.000000
vn 0.000000 0.000000 -1.000000
vn 0.000000 0.000000 -1.000000
vn 0.000000 0.000000 -1.000000
vn -1.000000 0.000000 0.000000
vn -1.000000 0.000000 0.000000
vn -1.000000 0.000000 0.000000
vn -1.000000 0.000000 0.000000
vn 0.000000 0.000000 1.000000
vn 0.000000 0.000000 1.000000
vn 0.000000 0.000000 1.000000
vn 0.000000 0.000000 1.000000
vn 1.000000 0.000000 0.000000
vn 1.000000 0.000000 0.000000
vn 1.000000 0.000000 0.000000
vn 1.000000 0.000000 0.000000
vn 0.000000 0.000000 -1.000000
vn 0.000000 0.000000 -1.000000
vn 0.000000 0.000000 -1.000000
vn 0.000000 0.000000 -1.000000
vn -1.000000 0.000000 0.000000
vn -1.000000 0.000000 0.000000
vn -1.000000 0.000000 0.000000
vn -1.000000 0.000000 0.000000
vn 0.000000 0.000000 1.000000
vn 0.000000 0.000000 1.000000
vn 0.000000 0.000000 1.000000
vn 0.000000 0.000000 1.000000
vn 0.000000 0.000000 -1.000000
vn 0.000000 0.000000 -1.000000
vn 0.000000 0.000000 -1.000000
vn 0.000000 0.000000 -1.000000
vn -1.000000 0.000000 0.000000
vn -1.000000 0.000000 0.000000
vn -1.000000 0.000000 0.000000
vn -1.000000 0.000000 0.000000
vn 0.000000 0.000000 1.000000
vn 0.000000 0.000000 1.000000
vn 0.000000 0.000000 1.000000
vn 0.000000 0.000000 1.000000
vn 1.000000 0.000000 0.000000
vn 1.000000 0.000000 0.000000
vn 1.000000 0.000000 0.000000
vn 1.000000 0.000000 0.000000
vn 0.000000 0.000000 -1.000000
vn 0.000000 0.000000 -1.000000
vn 0.000000 0.000000 -1.000000
vn 0.000000 0.000000 -1.000000
vn -1.000000 0.000000 0.000000
vn -1.000000 0.000000 0.000000
vn -1.000000 0.000000 0.000000
vn -1.000000 0.000000 0.000000
vn 0.000000 0.000000 1.000000
vn 0.000000 0.000000 1.000000
vn 0.000000 0.000000 1.000000
vn 0.000000 0.000000 1.000000
vn 1.000000 0.000000 0.000000
vn 1.000000 0.000000 0.000000
vn 1.000000 0.000000 0.000000
vn 1.000000 0.000000 0.000000
vn 0.000000 0.000000 -1.000000
vn 0.000000 0.000000 -1.000000
vn 0.000000 0.000000 -1.000000
vn 0.000000 0.000000 -1.000000
vn -1.000000 0.000000 0.000000
vn -1.000000 0.000000 0.000000
vn -1.000000 0.000000 0.000000
vn -1.000000 0.000000 0.000000
vn 0.000000 0.000000 1.000000
vn 0.000000 0.000000 1.000000
vn 0.000000 0.000000 1.000000
vn 0.000000 0.000000 1.000000
vn 1.000000 0.000000 0.000000
vn 1.000000 0.000000 0.000000
vn 1.000000 0.000000 0.000000
vn 1.000000 0.000000 0.000000
vn 1.000000 0.000000 0.000000
vn 1.000000 0.000000 0.000000
vn 1.000000 0.000000 0.000000
vn 1.000000 0.000000 0.000000
vn 0.000000 0.000000 -1.000000
vn 0.000000 0.000000 -1.000000
vn 0.000000 0.000000 -1.000000
vn 0.000000 0.000000 -1.000000
vn -1.000000 0.000000 0.000000
vn -1.000000 0.000000 0.000000
vn -1.000000 0.000000 0.000000
vn -1.000000 0.000000 0.000000
vn 0.000000 0.000000 1.000000
vn 0.000000 0.000000 1.000000
vn 0.000000 0.000000 1.000000
vn 0.000000 0.000000 1.000000
vn 1.000000 0.000000 0.000000
vn 1.000000 0.000000 0.000000
vn 1.000000 0.000000 0.000000
vn 1.000000 0.000000 0.000000
vn 0.000000 0.000000 -1.000000
vn 0.000000 0.000000 -1.000000
vn 0.000000 0.000000 -1.000000
vn 0.000000 0.000000 -1.000000
vn -1.000000 0.000000 0.000000
vn -1.000000 0.000000 0.000000
vn -1.000000 0.000000 0.000000
vn -1.000000 0.000000 0.000000
vn 0.000000 0.000000 1.000000
vn 0.000000 0.000000 1.000000
vn 0.000000 0.000000 1.000000
vn 0.000000 0.000000 1.000000
vn 1.000000 0.000000 0.000000
vn 1.000000 0.000000 0.000000
vn 1.000000 0.000000 0.000000
vn 1.000000 0.000000 0.000000
vn 0.000000 0.000000 -1.000000
vn 0.000000 0.000000 -1.000000
vn 0.000000 0.000000 -1.000000
vn 0.000000 0.000000 -1.000000
vn -1.000000 0.000000 0.000000
vn -1.000000 0.000000 0.000000
vn -1.000000 0.000000 0.000000
vn -1.000000 0.000000 0.000000
vn 0.000000 0.000000 1.000000
vn 0.000000 0.000000 1.000000
vn 0.000000 0.000000 1.000000
vn 0.000000 0.000000 1.000000
s off
f 1/23/1 2/2/2 4/22/3 3/17/4
f 49/61/5 50/132/6 51/131/7 52/129/8
f 5/5/9 6/16/10 8/8/11 7/20/12
f 7/7/13 8/19/14 2/10/15 1/9/16
f 2/21/17 8/11/18 6/12/19 4/4/20
f 7/13/21 1/1/22 3/24/23 5/14/24
f 6/6/25 5/293/26 40/261/27 39/176/28 41/268/29 44/183/30 46/243/31 48/135/32
f 5/18/33 3/296/34 13/256/35 16/217/36 33/260/37 36/221/38 38/263/39 40/225/40
f 53/65/41 54/128/42 55/127/43 56/126/44
f 57/69/45 58/124/46 59/123/47 60/122/48
f 62/73/49 61/120/50 63/119/51 64/118/52
f 65/77/53 66/116/54 67/115/55 68/114/56
f 69/81/57 70/112/58 71/111/59 72/110/60
f 74/85/61 73/108/62 75/107/63 76/106/64
f 78/89/65 77/104/66 79/103/67 80/101/68
f 82/93/69 81/100/70 83/99/71 84/98/72
f 14/219/73 18/271/74 17/236/75 11/287/76 15/254/77
f 12/291/78 20/269/79 19/234/80 21/252/81 22/215/82
f 4/295/83 23/250/84 21/156/85 19/270/86 18/195/87 14/255/88 13/164/89 3/3/90
f 24/151/91 27/246/92 25/148/93 12/290/94 22/251/95
f 9/277/96 26/247/97 28/143/98 47/242/99 45/140/100
f 11/285/101 30/275/102 29/240/103 10/282/104 35/258/105 34/223/106
f 12/292/107 31/274/108 30/203/109 11/286/110 17/272/111 20/191/112
f 9/278/113 32/273/114 31/238/115 12/289/116 25/248/117 26/211/118
f 10/281/119 29/276/120 32/199/121 9/279/122 43/266/123 42/187/124
f 11/288/125 34/259/126 33/172/127 16/253/128 15/160/129
f 36/257/130 35/168/131 10/283/132 37/264/133 38/179/134
f 10/284/135 42/267/136 41/232/137 39/262/138 37/228/139
f 44/265/140 43/230/141 9/280/142 45/244/143 46/207/144
f 6/294/145 48/241/146 47/206/147 28/245/148 27/210/149 24/249/150 23/214/151 4/15/152
f 29/41/153 30/239/154 50/200/155 49/130/156
f 30/42/157 31/202/158 51/201/159 50/62/160
f 31/43/161 32/237/162 52/197/163 51/63/164
f 32/44/165 29/204/166 49/198/167 52/64/168
f 17/29/169 18/235/170 54/192/171 53/125/172
f 18/30/173 19/194/174 55/193/175 54/66/176
f 19/31/177 20/233/178 56/190/179 55/67/180
f 20/32/181 17/196/182 53/189/183 56/68/184
f 41/53/185 42/231/186 58/185/187 57/121/188
f 42/54/189 43/186/190 59/184/191 58/70/192
f 43/55/193 44/229/194 60/182/195 59/71/196
f 44/56/197 41/188/198 57/181/199 60/72/200
f 38/49/201 37/180/202 61/177/203 62/117/204
f 37/50/205 39/226/206 63/174/207 61/74/208
f 39/51/209 40/175/210 64/173/211 63/75/212
f 40/52/213 38/227/214 62/178/215 64/76/216
f 33/45/217 34/171/218 66/170/219 65/113/220
f 34/46/221 35/222/222 67/165/223 66/78/224
f 35/47/225 36/167/226 68/166/227 67/79/228
f 36/48/229 33/224/230 65/169/231 68/80/232
f 13/25/233 14/163/234 70/162/235 69/109/236
f 14/26/237 15/218/238 71/158/239 70/82/240
f 15/27/241 16/159/242 72/157/243 71/83/244
f 16/28/245 13/220/246 69/161/247 72/84/248
f 22/33/249 21/216/250 73/152/251 74/105/252
f 21/34/253 23/154/254 75/153/255 73/86/256
f 23/35/257 24/213/258 76/150/259 75/87/260
f 24/36/261 22/155/262 74/149/263 76/88/264
f 26/37/265 25/212/266 77/144/267 78/102/268
f 25/38/269 27/146/270 79/145/271 77/90/272
f 27/39/273 28/209/274 80/141/275 79/91/276
f 28/40/277 26/147/278 78/142/279 80/92/280
f 46/57/281 45/208/282 81/137/283 82/97/284
f 45/58/285 47/138/286 83/136/287 81/94/288
f 47/59/289 48/205/290 84/134/291 83/95/292
f 48/60/293 46/139/294 82/133/295 84/96/296
