# This file uses centimeters as units for non-parametric coordinates.

v -0.052471 0.123327 0.221129
v 0.052479 0.123327 0.221129
v -0.052471 0.123327 -0.305062
v 0.052479 0.123327 -0.305062
v -0.052471 0.018380 -0.305062
v 0.052479 0.018380 -0.305062
v -0.052471 0.018380 0.221129
v 0.052479 0.018380 0.221129
v -0.029125 0.099979 -0.305062
v 0.029125 0.099979 -0.305062
v 0.029125 0.041728 -0.305062
v -0.029125 0.041728 -0.305062
v -0.028179 0.042670 0.305062
v 0.028187 0.042670 0.305062
v 0.028187 0.099037 0.305062
v -0.028179 0.099037 0.305062
v -0.070850 0.141707 -0.258521
v 0.070850 0.141707 -0.258521
v 0.070850 0.000000 -0.258521
v -0.070850 0.000000 -0.258521
v -0.056423 0.014428 0.117984
v -0.056423 0.127279 0.117984
v 0.056431 0.127279 0.117984
v 0.056431 0.014428 0.117984
v 0.057865 0.128714 0.080548
v -0.057858 0.128714 0.080548
v -0.057858 0.012993 0.080548
v 0.057865 0.012993 0.080548
v 0.064388 0.135241 -0.089791
v -0.064388 0.135241 -0.089791
v -0.064388 0.006466 -0.089791
v 0.064388 0.006466 -0.089791
v 0.065960 0.136807 -0.130660
v -0.065952 0.136807 -0.130660
v -0.065952 0.004900 -0.130659
v 0.065960 0.004900 -0.130659
vt 0.297082 0.376723
vt 0.321808 0.376723
vt 0.357132 0.376723
vt 0.297082 0.376723
vt 0.321809 0.376723
vt 0.357132 0.376723
vt 0.300036 0.376723
vt 0.321808 0.376723
vt 0.300036 0.376723
vt 0.325622 0.376723
vt 0.297082 0.376723
vt 0.297082 0.376723
vt 0.297082 0.376723
vt 0.297082 0.376723
vt 0.357132 0.376723
vt 0.321808 0.376723
vt 0.321809 0.376723
vt 0.357132 0.376723
vt 0.325622 0.376723
vt 0.321809 0.376723
vt 0.297082 0.376723
vt 0.321808 0.376723
vt 0.321809 0.376723
vt 0.297082 0.376723
vt 0.203430 0.292072
vt 0.357132 0.376723
vt 0.357132 0.376723
vt 0.357132 0.376723
vt 0.357132 0.376723
vt 0.357132 0.376723
vt 0.357132 0.376723
vt 0.203430 0.292072
vt 0.357132 0.376723
vt 0.203430 0.292072
vt 0.357132 0.376723
vt 0.357132 0.376723
vt 0.203430 0.292072
vt 0.357132 0.376723
vt 0.357132 0.376723
vt 0.357132 0.376723
vt 0.270611 0.376723
vt 0.300035 0.376723
vt 0.325622 0.376723
vt 0.300036 0.376723
vt 0.297082 0.376723
vt 0.321809 0.376723
vt 0.321808 0.376723
vt 0.297082 0.376723
vt 0.321808 0.376723
vt 0.297082 0.376723
vt 0.297082 0.376723
vt 0.321809 0.376723
vt 0.238233 0.376723
vt 0.321809 0.376723
vt 0.297082 0.376723
vt 0.321809 0.376723
vt 0.321808 0.376723
vt 0.297082 0.376723
vt 0.262960 0.376723
vt 0.297082 0.376723
vt 0.262960 0.376723
vt 0.238233 0.376723
vt 0.297082 0.376723
vt 0.321809 0.376723
vt 0.297082 0.376723
vt 0.262960 0.376723
vt 0.321808 0.376723
vt 0.238233 0.376723
vt 0.321808 0.376723
vt 0.297082 0.376723
vt 0.238233 0.376723
vt 0.262960 0.376723
vt 0.238233 0.376723
vt 0.321809 0.376723
vt 0.262960 0.376723
vt 0.297082 0.376723
vt 0.262960 0.376723
vt 0.238233 0.376723
vt 0.297082 0.376723
vt 0.321809 0.376723
vt 0.297082 0.376723
vt 0.321809 0.376723
vt 0.321808 0.376723
vt 0.297082 0.376723
vt 0.262960 0.376723
vt 0.238233 0.376723
vt 0.321808 0.376723
vt 0.297082 0.376723
vt 0.238233 0.376723
vt 0.262960 0.376723
vt 0.262960 0.376723
vt 0.238233 0.376723
vt 0.321808 0.376723
vt 0.238233 0.376723
vt 0.297082 0.376723
vt 0.262960 0.376723
vt 0.262960 0.376723
vt 0.238233 0.376723
vt 0.321809 0.376723
vt 0.297082 0.376723
vt 0.262960 0.376723
vt 0.297082 0.376723
vt 0.321808 0.376723
vt 0.297082 0.376723
vt 0.238233 0.376723
vt 0.321809 0.376723
vt 0.262960 0.376723
vt 0.238233 0.376723
vt 0.321808 0.376723
vt 0.238233 0.376723
vt 0.297082 0.376723
vt 0.262960 0.376723
vt 0.262960 0.376723
vt 0.238233 0.376723
vt 0.238233 0.376723
vt 0.262960 0.376723
vt 0.325622 0.376723
vt 0.300036 0.376723
vt 0.325622 0.376723
vt 0.270611 0.376723
vt 0.300035 0.376723
vt 0.270611 0.376723
vt 0.325622 0.376723
vt 0.325622 0.376723
vt 0.270611 0.376723
vt 0.300035 0.376723
vt 0.300035 0.376723
vt 0.325622 0.376723
vn 0.000000 0.998685 -0.051271
vn 0.000000 0.998684 -0.051277
vn 0.000000 0.930098 -0.367311
vn 0.000000 0.930098 -0.367311
vn 0.000000 0.000000 -1.000000
vn 0.000000 0.000000 -1.000000
vn 0.000000 0.000000 -1.000000
vn 0.000000 0.000000 -1.000000
vn 0.000000 -0.930097 -0.367315
vn 0.000000 -0.930097 -0.367315
vn 0.000000 -0.998685 -0.051276
vn 0.000000 -0.998685 -0.051271
vn 0.000000 0.000000 1.000000
vn 0.000000 0.000000 1.000000
vn 0.000000 0.000000 1.000000
vn 0.000000 0.000000 1.000000
vn 0.998684 0.000000 -0.051290
vn 0.998684 0.000000 -0.051290
vn 0.930155 -0.000000 -0.367167
vn 0.930155 -0.000000 -0.367167
vn -0.998684 0.000000 -0.051277
vn -0.998685 0.000000 -0.051278
vn -0.930103 -0.000000 -0.367299
vn -0.930103 -0.000000 -0.367299
vn 0.000000 0.000000 -1.000000
vn 0.000000 0.000000 -1.000000
vn 0.000000 0.000000 -1.000000
vn 0.000000 0.000000 -1.000000
vn 0.000000 0.000000 -1.000000
vn 0.000000 0.000000 -1.000000
vn 0.000000 0.000000 -1.000000
vn 0.000000 0.000000 -1.000000
vn 0.000000 0.000000 -1.000000
vn 0.000000 0.000000 -1.000000
vn 0.000000 0.000000 -1.000000
vn 0.000000 0.000000 -1.000000
vn -0.000000 0.000000 -1.000000
vn -0.000000 0.000000 -1.000000
vn -0.000000 0.000000 -1.000000
vn -0.000000 0.000000 -1.000000
vn 0.000000 -0.960585 0.277986
vn 0.000000 -0.960585 0.277986
vn 0.000000 -0.960585 0.277986
vn 0.000000 -0.960585 0.277986
vn 0.960578 0.000000 0.278012
vn 0.960578 0.000000 0.278012
vn 0.960578 0.000000 0.278012
vn 0.960578 0.000000 0.278012
vn 0.000000 0.960585 0.277986
vn 0.000000 0.960585 0.277986
vn 0.000000 0.960585 0.277986
vn 0.000000 0.960585 0.277986
vn -0.960578 0.000000 0.278012
vn -0.960578 0.000000 0.278012
vn -0.960578 0.000000 0.278012
vn -0.960578 0.000000 0.278012
vn 0.000000 0.999267 0.038291
vn 0.000000 0.999267 0.038291
vn 0.000000 0.999267 0.038292
vn 0.000000 0.999267 0.038292
vn 0.999267 0.000000 0.038287
vn 0.999267 0.000000 0.038287
vn 0.999267 0.000000 0.038270
vn 0.999268 0.000000 0.038270
vn 0.000000 -0.999267 0.038291
vn 0.000000 -0.999267 0.038291
vn 0.000000 -0.999267 0.038290
vn 0.000000 -0.999267 0.038290
vn -0.999267 0.000000 0.038287
vn -0.999267 0.000000 0.038287
vn -0.999266 0.000000 0.038307
vn -0.999266 0.000000 0.038307
vn -0.999267 0.000000 0.038287
vn -0.999267 0.000000 0.038287
vn -0.999267 0.000000 0.038287
vn -0.999267 0.000000 0.038287
vn 0.000000 0.999267 0.038290
vn 0.000000 0.999267 0.038290
vn 0.000000 0.999267 0.038291
vn 0.000000 0.999267 0.038291
vn 0.999267 0.000000 0.038287
vn 0.999267 0.000000 0.038287
vn 0.999267 0.000000 0.038287
vn 0.999267 0.000000 0.038287
vn 0.000000 -0.999267 0.038290
vn 0.000000 -0.999267 0.038290
vn 0.000000 -0.999267 0.038292
vn 0.000000 -0.999267 0.038292
vn 0.000000 0.999267 0.038292
vn 0.000000 0.999267 0.038292
vn 0.000000 0.999267 0.038292
vn 0.000000 0.999267 0.038292
vn -0.999266 0.000000 0.038307
vn -0.999266 0.000000 0.038307
vn -0.999266 0.000000 0.038297
vn -0.999266 0.000000 0.038297
vn 0.000000 -0.999267 0.038292
vn 0.000000 -0.999267 0.038292
vn 0.000000 -0.999267 0.038291
vn 0.000000 -0.999267 0.038291
vn 0.999268 0.000000 0.038270
vn 0.999267 0.000000 0.038270
vn 0.999266 0.000000 0.038301
vn 0.999266 0.000000 0.038301
vn 0.000000 0.999267 0.038292
vn 0.000000 0.999267 0.038292
vn 0.000000 0.999267 0.038291
vn 0.000000 0.999267 0.038291
vn -0.999266 0.000000 0.038297
vn -0.999266 0.000000 0.038297
vn -0.999267 0.000000 0.038271
vn -0.999267 0.000000 0.038271
vn 0.000000 -0.999267 0.038293
vn 0.000000 -0.999267 0.038293
vn 0.000000 -0.999267 0.038292
vn 0.000000 -0.999267 0.038292
vn 0.999266 0.000000 0.038301
vn 0.999266 0.000000 0.038301
vn 0.999268 0.000000 0.038267
vn 0.999268 0.000000 0.038267
vn 0.000000 0.999267 0.038291
vn 0.000000 0.999267 0.038291
vn 0.000000 0.998684 -0.051277
vn 0.000000 0.998685 -0.051271
vn -0.999267 0.000000 0.038271
vn -0.999267 0.000000 0.038271
vn -0.998685 0.000000 -0.051278
vn -0.998684 0.000000 -0.051277
vn 0.000000 -0.998685 -0.051271
vn 0.000000 -0.998685 -0.051276
vn 0.000000 -0.999267 0.038293
vn 0.000000 -0.999267 0.038293
vn 0.999268 0.000000 0.038267
vn 0.999268 0.000000 0.038267
vn 0.998684 0.000000 -0.051290
vn 0.998684 0.000000 -0.051290
s off
f 17/46/1 18/47/2 4/22/3 3/17/4
f 9/25/5 10/32/6 11/34/7 12/37/8
f 5/5/9 6/16/10 19/49/11 20/52/12
f 13/41/13 14/125/14 15/122/15 16/120/16
f 18/48/17 19/50/18 6/12/19 4/4/20
f 20/51/21 17/45/22 3/24/23 5/14/24
f 3/3/25 4/39/26 10/36/27 9/29/28
f 4/15/29 6/38/30 11/33/31 10/26/32
f 6/6/33 5/35/34 12/31/35 11/27/36
f 5/18/37 3/40/38 9/30/39 12/28/40
f 7/128/41 8/19/42 14/124/43 13/117/44
f 8/127/45 2/126/46 15/121/47 14/42/48
f 2/10/49 1/123/50 16/119/51 15/43/52
f 1/9/53 7/7/54 13/118/55 16/44/56
f 22/116/57 23/113/58 25/61/59 26/107/60
f 23/114/61 24/110/62 28/68/63 25/62/64
f 27/66/65 28/101/66 24/59/67 21/112/68
f 21/53/69 22/115/70 26/108/71 27/105/72
f 7/13/73 1/1/74 22/55/75 21/111/76
f 1/23/77 2/2/78 23/57/79 22/56/80
f 2/21/81 8/11/82 24/60/83 23/58/84
f 21/54/85 24/109/86 8/8/87 7/20/88
f 26/64/89 25/103/90 29/69/91 30/99/92
f 27/65/93 26/63/94 30/100/95 31/95/96
f 31/74/97 32/93/98 28/67/99 27/106/100
f 25/104/101 28/102/102 32/76/103 29/70/104
f 30/72/105 29/97/106 33/77/107 34/91/108
f 31/73/109 30/71/110 34/92/111 35/89/112
f 35/90/113 36/85/114 32/75/115 31/96/116
f 29/98/117 32/94/118 36/86/119 33/78/120
f 34/80/121 33/87/122 18/47/123 17/46/124
f 35/81/125 34/79/126 17/45/127 20/51/128
f 20/52/129 19/49/130 36/83/131 35/82/132
f 33/88/133 36/84/134 19/50/135 18/48/136
