# This file uses centimeters as units for non-parametric coordinates.

v -0.106014 0.000000 0.106014
v 0.106010 0.000000 0.106014
v -0.135536 0.327000 0.135539
v 0.135540 0.327000 0.135539
v -0.135536 0.327000 -0.135539
v 0.135540 0.327000 -0.135539
v -0.106014 0.000000 -0.106015
v 0.106010 0.000000 -0.106015
v -0.163498 0.180510 -0.163500
v -0.163498 0.180510 0.163500
v 0.163502 0.180510 0.163500
v 0.163502 0.180510 -0.163500
v -0.044109 0.327000 0.044108
v 0.044109 0.327000 0.044108
v 0.044109 0.327000 -0.044108
v -0.044109 0.327000 -0.044108
v -0.033759 0.000000 -0.033758
v 0.033755 0.000000 -0.033758
v 0.033755 0.000000 0.033757
v -0.033759 0.000000 0.033757
vt 0.201801 0.153819
vt 0.226528 0.153819
vt 0.261852 0.153819
vt 0.201801 0.153819
vt 0.226528 0.153819
vt 0.261852 0.153819
vt 0.167655 0.153819
vt 0.226528 0.153819
vt 0.167655 0.153819
vt 0.167654 0.153819
vt 0.201801 0.153819
vt 0.201801 0.153819
vt 0.201801 0.153819
vt 0.201801 0.153819
vt 0.261852 0.153819
vt 0.226528 0.153819
vt 0.226528 0.153819
vt 0.261852 0.153819
vt 0.167654 0.153819
vt 0.226528 0.153819
vt 0.201801 0.153819
vt 0.226528 0.153819
vt 0.226528 0.153819
vt 0.201801 0.153819
vt 0.201801 0.153819
vt 0.226528 0.153819
vt 0.201801 0.153819
vt 0.226528 0.153819
vt 0.226528 0.153819
vt 0.201801 0.153819
vt 0.226528 0.153819
vt 0.201801 0.153819
vt 0.171262 0.153819
vt 0.261852 0.153819
vt 0.261852 0.153819
vt 0.261852 0.153819
vt 0.261852 0.153819
vt 0.261852 0.153819
vt 0.261852 0.153819
vt 0.171262 0.153819
vt 0.261852 0.153819
vt 0.171262 0.153819
vt 0.261852 0.153819
vt 0.261852 0.153819
vt 0.171262 0.153819
vt 0.261852 0.153819
vt 0.261852 0.153819
vt 0.261852 0.153819
vt 0.201801 0.153819
vt 0.226528 0.153819
vt 0.201801 0.153819
vt 0.226528 0.153819
vt 0.226528 0.153819
vt 0.201801 0.153819
vt 0.201801 0.153819
vt 0.226528 0.153819
vt 0.108666 0.153819
vt 0.167654 0.153819
vt 0.167654 0.153819
vt 0.167655 0.153819
vt 0.167655 0.153819
vt 0.108666 0.153819
vt 0.108666 0.153819
vt 0.108666 0.153819
vn 0.000000 -0.066541 0.997784
vn 0.000000 -0.066537 0.997784
vn 0.000000 0.187491 0.982266
vn 0.000000 0.187491 0.982266
vn 0.000000 1.000000 0.000000
vn 0.000000 1.000000 0.000000
vn 0.000000 1.000000 0.000000
vn 0.000000 1.000000 0.000000
vn 0.000000 0.187490 -0.982267
vn 0.000000 0.187490 -0.982267
vn 0.000000 -0.066536 -0.997784
vn 0.000000 -0.066539 -0.997784
vn 0.000000 -1.000000 0.000000
vn 0.000000 -1.000000 0.000000
vn 0.000000 -1.000000 0.000000
vn 0.000000 -1.000000 0.000000
vn 0.997783 -0.066553 0.000000
vn 0.997783 -0.066553 0.000000
vn 0.982266 0.187493 0.000000
vn 0.982266 0.187493 0.000000
vn -0.997784 -0.066531 0.000000
vn -0.997784 -0.066531 0.000000
vn -0.982266 0.187493 0.000000
vn -0.982266 0.187493 0.000000
vn -0.952851 -0.303437 0.000000
vn -0.952851 -0.303437 0.000000
vn -0.997784 -0.066531 0.000000
vn -0.997784 -0.066531 0.000000
vn 0.000000 -0.303451 0.952847
vn 0.000000 -0.303451 0.952847
vn 0.000000 -0.066537 0.997784
vn 0.000000 -0.066541 0.997784
vn 0.952840 -0.303474 0.000000
vn 0.952840 -0.303474 0.000000
vn 0.997783 -0.066553 0.000000
vn 0.997783 -0.066553 0.000000
vn 0.000000 -0.066539 -0.997784
vn 0.000000 -0.066536 -0.997784
vn 0.000000 -0.303447 -0.952848
vn 0.000000 -0.303447 -0.952848
vn 0.000000 1.000000 0.000000
vn 0.000000 1.000000 0.000000
vn 0.000000 1.000000 0.000000
vn 0.000000 1.000000 0.000000
vn 0.000000 1.000000 0.000000
vn 0.000000 1.000000 0.000000
vn 0.000000 1.000000 0.000000
vn 0.000000 1.000000 0.000000
vn 0.000000 1.000000 0.000000
vn 0.000000 1.000000 0.000000
vn 0.000000 1.000000 0.000000
vn 0.000000 1.000000 0.000000
vn 0.000000 1.000000 0.000000
vn 0.000000 1.000000 0.000000
vn 0.000000 1.000000 0.000000
vn 0.000000 1.000000 0.000000
vn 0.000000 -1.000000 0.000000
vn 0.000000 -1.000000 0.000000
vn 0.000000 -1.000000 0.000000
vn 0.000000 -1.000000 0.000000
vn 0.000000 -1.000000 0.000000
vn 0.000000 -1.000000 0.000000
vn 0.000000 -1.000000 0.000000
vn 0.000000 -1.000000 0.000000
vn 0.000000 -1.000000 0.000000
vn 0.000000 -1.000000 0.000000
vn 0.000000 -1.000000 0.000000
vn 0.000000 -1.000000 0.000000
vn 0.000000 -1.000000 0.000000
vn 0.000000 -1.000000 0.000000
vn 0.000000 -1.000000 0.000000
vn 0.000000 -1.000000 0.000000
s off
f 10/56/1 11/53/2 4/22/3 3/17/4
f 13/33/5 14/45/6 15/42/7 16/40/8
f 5/5/9 6/16/10 12/50/11 9/26/12
f 17/57/13 18/64/14 19/63/15 20/62/16
f 11/54/17 12/49/18 6/12/19 4/4/20
f 9/25/21 10/55/22 3/24/23 5/14/24
f 7/13/25 1/1/26 10/27/27 9/51/28
f 1/23/29 2/2/30 11/29/31 10/28/32
f 2/21/33 8/11/34 12/32/35 11/30/36
f 9/52/37 12/31/38 8/8/39 7/20/40
f 3/3/41 4/47/42 14/44/43 13/37/44
f 4/15/45 6/46/46 15/41/47 14/34/48
f 6/6/49 5/43/50 16/39/51 15/35/52
f 5/18/53 3/48/54 13/38/55 16/36/56
f 7/7/57 8/19/58 18/58/59 17/61/60
f 8/19/61 2/10/62 19/59/63 18/58/64
f 2/10/65 1/9/66 20/60/67 19/59/68
f 1/9/69 7/7/70 17/61/71 20/60/72
