# This file uses centimeters as units for non-parametric coordinates.

v -0.194374 0.000000 0.353195
v 0.194374 0.000000 0.353195
v -0.194374 0.388751 0.353195
v 0.194374 0.388751 0.353195
v -0.063623 0.258000 -0.353195
v 0.063622 0.258000 -0.353195
v -0.063623 0.130751 -0.353195
v 0.063622 0.130751 -0.353195
v -0.173743 0.020634 0.353195
v 0.173743 0.020634 0.353195
v 0.173743 0.368118 0.353195
v -0.173743 0.368118 0.353195
v -0.061050 0.133324 0.353195
v 0.061050 0.133324 0.353195
v 0.061050 0.255427 0.353195
v -0.061050 0.255427 0.353195
v -0.194374 0.388751 0.002323
v 0.194374 0.388751 0.002323
v 0.194374 0.000000 0.002323
v -0.194374 0.000000 0.002323
v 0.050883 0.143494 -0.253361
v 0.050883 0.245258 -0.253361
v -0.050883 0.245258 -0.253361
v -0.050883 0.143494 -0.253361
v 0.050883 0.143494 -0.304122
v 0.050883 0.245258 -0.304122
v -0.050883 0.245258 -0.304122
v -0.050883 0.143494 -0.304122
v 0.063622 0.130751 -0.319372
v 0.063622 0.258000 -0.319372
v -0.063623 0.258000 -0.319372
v -0.063623 0.130751 -0.319372
vt 0.330118 0.046256
vt 0.547348 0.569963
vt 0.390169 0.046256
vt 0.330118 0.046256
vt 0.419600 0.060815
vt 0.454923 0.060815
vt 0.360726 0.060815
vt 0.419600 0.060815
vt 0.295972 0.046256
vt 0.295972 0.046256
vt 0.394873 0.060815
vt 0.394873 0.060815
vt 0.394873 0.060815
vt 0.394873 0.060815
vt 0.390169 0.046256
vt 0.419600 0.060815
vt 0.547346 0.569963
vt 0.454924 0.060815
vt 0.360726 0.060815
vt 0.419600 0.060815
vt 0.330118 0.046256
vt 0.547348 0.569963
vt 0.547346 0.569963
vt 0.330118 0.046256
vt 0.514316 0.568959
vt 0.514316 0.568959
vt 0.514316 0.568959
vt 0.514316 0.568959
vt 0.545351 0.566301
vt 0.514316 0.568959
vt 0.514316 0.568959
vt 0.514316 0.568959
vt 0.292327 0.046256
vt 0.352377 0.046256
vt 0.390169 0.046256
vt 0.330118 0.046256
vt 0.258180 0.046256
vt 0.330118 0.046256
vt 0.292327 0.046256
vt 0.295972 0.046256
vt 0.360726 0.060815
vt 0.292327 0.046256
vt 0.454923 0.060815
vt 0.394873 0.060815
vt 0.394873 0.060815
vt 0.454924 0.060815
vt 0.394873 0.060815
vt 0.258180 0.046256
vt 0.360726 0.060815
vt 0.394873 0.060815
vt 0.454923 0.060815
vt 0.394873 0.060815
vt 0.394873 0.060815
vt 0.454924 0.060815
vt 0.394873 0.060815
vt 0.360726 0.060815
vt 0.360726 0.060815
vt 0.394873 0.060815
vt 0.454923 0.060815
vt 0.394873 0.060815
vt 0.394873 0.060815
vt 0.454924 0.060815
vt 0.394873 0.060815
vt 0.360726 0.060815
vt 0.292327 0.046256
vt 0.360726 0.060815
vt 0.258180 0.046256
vt 0.394873 0.060815
vt 0.352377 0.046256
vt 0.292327 0.046256
vt 0.292327 0.046256
vt 0.352377 0.046256
vt 0.330118 0.046256
vt 0.258180 0.046256
vt 0.295972 0.046256
vt 0.292327 0.046256
vt 0.390169 0.046256
vt 0.330118 0.046256
vt 0.352377 0.046256
vt 0.292327 0.046256
vt 0.547346 0.569963
vt 0.547348 0.569963
vt 0.547348 0.569963
vt 0.547346 0.569963
vt 0.514316 0.568959
vt 0.514316 0.568959
vt 0.514316 0.568959
vt 0.545351 0.566301
vt 0.514316 0.568959
vt 0.514316 0.568959
vt 0.545351 0.566301
vt 0.514316 0.568959
vt 0.514316 0.568959
vt 0.514316 0.568959
vt 0.514316 0.568959
vt 0.545351 0.566301
vt 0.394873 0.060815
vt 0.360726 0.060815
vt 0.394873 0.060815
vt 0.360726 0.060815
vt 0.454924 0.060815
vt 0.394873 0.060815
vt 0.394873 0.060815
vt 0.454923 0.060815
vt 0.394873 0.060815
vt 0.360726 0.060815
vt 0.360726 0.060815
vt 0.394873 0.060815
vt 0.454924 0.060815
vt 0.394873 0.060815
vt 0.394873 0.060815
vt 0.454923 0.060815
vn 0.000000 0.000000 1.000000
vn 0.000000 0.000000 1.000000
vn 0.000000 0.000000 1.000000
vn 0.000000 0.000000 1.000000
vn 0.000000 0.872054 -0.489410
vn 0.000000 0.872054 -0.489410
vn 0.000000 0.872054 -0.489410
vn 0.000000 0.872054 -0.489410
vn 0.000000 0.000000 -1.000000
vn 0.000000 0.000000 -1.000000
vn 0.000000 0.000000 -1.000000
vn 0.000000 0.000000 -1.000000
vn 0.000000 -0.872054 -0.489410
vn 0.000000 -0.872054 -0.489410
vn 0.000000 -0.872054 -0.489410
vn 0.000000 -0.872054 -0.489410
vn 0.872058 0.000000 -0.489403
vn 0.872058 0.000000 -0.489403
vn 0.872058 0.000000 -0.489403
vn 0.872058 0.000000 -0.489403
vn -0.872058 0.000000 -0.489403
vn -0.872058 0.000000 -0.489403
vn -0.872058 0.000000 -0.489403
vn -0.872058 0.000000 -0.489403
vn 0.000000 0.000000 1.000000
vn 0.000000 0.000000 1.000000
vn 0.000000 0.000000 1.000000
vn 0.000000 0.000000 1.000000
vn -0.000001 0.000000 1.000000
vn -0.000001 0.000000 1.000000
vn -0.000001 0.000000 1.000000
vn -0.000001 0.000000 1.000000
vn 0.000000 0.000000 1.000000
vn 0.000000 0.000000 1.000000
vn 0.000000 0.000000 1.000000
vn 0.000000 0.000000 1.000000
vn 0.000001 0.000000 1.000000
vn 0.000001 0.000000 1.000000
vn 0.000001 0.000000 1.000000
vn 0.000001 0.000000 1.000000
vn 0.000000 0.000000 1.000000
vn 0.000000 0.000000 1.000000
vn 0.000000 0.000000 1.000000
vn 0.000000 0.000000 1.000000
vn 0.000000 0.000000 1.000000
vn 0.000000 0.000000 1.000000
vn 0.000000 0.000000 1.000000
vn 0.000000 0.000000 1.000000
vn 0.000000 0.000000 1.000000
vn 0.000000 0.000000 1.000000
vn 0.000000 0.000000 1.000000
vn 0.000000 0.000000 1.000000
vn -0.000000 0.000000 1.000000
vn -0.000000 0.000000 1.000000
vn -0.000000 0.000000 1.000000
vn -0.000000 0.000000 1.000000
vn 0.000000 1.000000 0.000000
vn 0.000000 1.000000 0.000000
vn 0.000000 1.000000 0.000000
vn 0.000000 1.000000 0.000000
vn 1.000000 0.000000 0.000000
vn 1.000000 0.000000 0.000000
vn 1.000000 0.000000 0.000000
vn 1.000000 0.000000 0.000000
vn 0.000000 -1.000000 0.000000
vn 0.000000 -1.000000 0.000000
vn 0.000000 -1.000000 0.000000
vn 0.000000 -1.000000 0.000000
vn -1.000000 0.000000 0.000000
vn -1.000000 0.000000 0.000000
vn -1.000000 0.000000 0.000000
vn -1.000000 0.000000 0.000000
vn 1.000000 0.000000 0.000000
vn 1.000000 0.000000 0.000000
vn 1.000000 0.000000 0.000000
vn 1.000000 0.000000 0.000000
vn 0.000000 1.000000 0.000000
vn 0.000000 1.000000 0.000000
vn 0.000000 1.000000 0.000000
vn 0.000000 1.000000 0.000000
vn -1.000000 0.000000 0.000000
vn -1.000000 0.000000 0.000000
vn -1.000000 0.000000 0.000000
vn -1.000000 0.000000 0.000000
vn 0.000000 -1.000000 0.000000
vn 0.000000 -1.000000 0.000000
vn 0.000000 -1.000000 0.000000
vn 0.000000 -1.000000 0.000000
vn 0.767446 0.000000 0.641114
vn 0.767446 0.000000 0.641114
vn 0.767446 0.000000 0.641114
vn 0.767446 0.000000 0.641114
vn 0.000000 0.767370 0.641205
vn 0.000000 0.767370 0.641205
vn 0.000000 0.767370 0.641205
vn 0.000000 0.767370 0.641205
vn -0.767422 0.000000 0.641142
vn -0.767422 0.000000 0.641142
vn -0.767422 0.000000 0.641142
vn -0.767422 0.000000 0.641142
vn 0.000000 -0.767370 0.641204
vn 0.000000 -0.767370 0.641204
vn 0.000000 -0.767370 0.641204
vn 0.000000 -0.767370 0.641204
vn 1.000000 0.000000 0.000000
vn 1.000000 0.000000 0.000000
vn 1.000000 0.000000 0.000000
vn 1.000000 0.000000 0.000000
vn 0.000000 1.000000 0.000000
vn 0.000000 1.000000 0.000000
vn 0.000000 1.000000 0.000000
vn 0.000000 1.000000 0.000000
vn -1.000000 0.000000 0.000000
vn -1.000000 0.000000 0.000000
vn -1.000000 0.000000 0.000000
vn -1.000000 0.000000 0.000000
vn 0.000000 -1.000000 0.000000
vn 0.000000 -1.000000 0.000000
vn 0.000000 -1.000000 0.000000
vn 0.000000 -1.000000 0.000000
s off
f 13/29/1 14/88/2 15/91/3 16/96/4
f 17/34/5 18/79/6 22/72/7 23/69/8
f 5/5/9 6/16/10 8/8/11 7/20/12
f 24/48/13 21/67/14 19/37/15 20/74/16
f 18/80/17 19/76/18 21/42/19 22/71/20
f 23/70/21 24/65/22 20/39/23 17/33/24
f 1/2/25 2/17/26 10/22/27 9/23/28
f 2/17/29 4/81/30 11/82/31 10/22/32
f 4/81/33 3/83/34 12/84/35 11/82/36
f 3/83/37 1/2/38 9/23/39 12/84/40
f 9/25/41 10/86/42 14/89/43 13/93/44
f 10/26/45 11/87/46 15/92/47 14/30/48
f 11/27/49 12/90/50 16/95/51 15/31/52
f 12/28/53 9/85/54 13/94/55 16/32/56
f 3/3/57 4/15/58 18/35/59 17/77/60
f 2/21/61 19/38/62 18/36/63 4/4/64
f 20/40/65 19/75/66 2/10/67 1/9/68
f 17/78/69 20/73/70 1/1/71 3/24/72
f 22/44/73 21/68/74 25/50/75 26/111/76
f 23/46/77 22/43/78 26/112/79 27/109/80
f 27/110/81 28/105/82 24/47/83 23/45/84
f 28/56/85 25/107/86 21/41/87 24/66/88
f 26/52/89 25/108/90 29/58/91 30/103/92
f 27/54/93 26/51/94 30/104/95 31/101/96
f 31/102/97 32/97/98 28/55/99 27/53/100
f 32/98/101 29/57/102 25/49/103 28/106/104
f 30/60/105 29/99/106 8/11/107 6/12/108
f 31/62/109 30/59/110 6/6/111 5/18/112
f 7/13/113 32/63/114 31/61/115 5/14/116
f 7/7/117 8/19/118 29/100/119 32/64/120
