# This file uses centimeters as units for non-parametric coordinates.

v -0.068582 0.000000 0.068582
v 0.068582 0.000000 0.068582
v -0.068582 0.016306 0.068582
v 0.068582 0.016306 0.068582
v -0.068582 0.016306 -0.068582
v 0.068582 0.016306 -0.068582
v -0.068582 0.000000 -0.068582
v 0.068582 0.000000 -0.068582
v -0.055287 0.016306 0.055289
v 0.055289 0.016306 0.055289
v 0.055289 0.016306 -0.055289
v -0.055287 0.016306 -0.055289
v -0.055287 0.000000 -0.055289
v 0.055289 0.000000 -0.055289
v 0.055289 0.000000 0.055289
v -0.055287 0.000000 0.055289
v -0.028375 0.016306 0.028376
v 0.028378 0.016306 0.028376
v 0.028378 0.016306 -0.028376
v -0.028375 0.016306 -0.028376
v -0.028375 0.000000 -0.028376
v 0.028378 0.000000 -0.028376
v 0.028378 0.000000 0.028376
v -0.028375 0.000000 0.028376
vt 0.139990 0.152436
vt 0.164717 0.152436
vt 0.200041 0.152436
vt 0.139990 0.152436
vt 0.164717 0.152436
vt 0.200040 0.152436
vt 0.105843 0.152436
vt 0.164717 0.152436
vt 0.105843 0.152436
vt 0.105843 0.152436
vt 0.139990 0.152436
vt 0.139990 0.152436
vt 0.139990 0.152436
vt 0.139990 0.152436
vt 0.200040 0.152436
vt 0.164717 0.152436
vt 0.164717 0.152436
vt 0.200041 0.152436
vt 0.105843 0.152436
vt 0.164717 0.152436
vt 0.139990 0.152436
vt 0.164717 0.152436
vt 0.164717 0.152436
vt 0.139990 0.152436
vt 0.423697 0.290271
vt 0.200040 0.152436
vt 0.200040 0.152436
vt 0.200041 0.152436
vt 0.329500 0.290271
vt 0.105843 0.152436
vt 0.105843 0.152436
vt 0.105843 0.152436
vt 0.105843 0.152436
vt 0.105843 0.152436
vt 0.105843 0.152436
vt 0.329500 0.290271
vt 0.105843 0.152436
vt 0.329500 0.290271
vt 0.105843 0.152436
vt 0.105843 0.152436
vt 0.329500 0.290271
vt 0.105843 0.152436
vt 0.105843 0.152436
vt 0.105843 0.152436
vt 0.200041 0.152436
vt 0.200041 0.152436
vt 0.200041 0.152436
vt 0.423697 0.290271
vt 0.200040 0.152436
vt 0.423697 0.290271
vt 0.200041 0.152436
vt 0.200040 0.152436
vt 0.423697 0.290271
vt 0.200040 0.152436
vt 0.200040 0.152436
vt 0.200041 0.152436
vt 0.484812 0.290271
vt 0.423697 0.290271
vt 0.423697 0.290271
vt 0.423697 0.290271
vt 0.390615 0.290271
vt 0.329500 0.290271
vt 0.329500 0.290271
vt 0.329500 0.290271
vt 0.329500 0.290271
vt 0.390615 0.290271
vt 0.390615 0.290271
vt 0.390615 0.290271
vt 0.423697 0.290271
vt 0.484812 0.290271
vt 0.484812 0.290271
vt 0.484812 0.290271
vt 0.329500 0.290271
vt 0.329500 0.290271
vt 0.329500 0.290271
vt 0.329500 0.290271
vt 0.329500 0.290271
vt 0.329500 0.290271
vt 0.329500 0.290271
vt 0.329500 0.290271
vt 0.423697 0.290271
vt 0.423697 0.290271
vt 0.423697 0.290271
vt 0.423697 0.290271
vt 0.423697 0.290271
vt 0.423697 0.290271
vt 0.423697 0.290271
vt 0.423697 0.290271
vn 0.000000 0.000000 1.000000
vn 0.000000 0.000000 1.000000
vn 0.000000 0.000000 1.000000
vn 0.000000 0.000000 1.000000
vn 0.000000 1.000000 0.000000
vn 0.000000 1.000000 0.000000
vn 0.000000 1.000000 0.000000
vn 0.000000 1.000000 0.000000
vn 0.000000 0.000000 -1.000000
vn 0.000000 0.000000 -1.000000
vn 0.000000 0.000000 -1.000000
vn 0.000000 0.000000 -1.000000
vn 0.000000 -1.000000 0.000000
vn 0.000000 -1.000000 0.000000
vn 0.000000 -1.000000 0.000000
vn 0.000000 -1.000000 0.000000
vn 1.000000 0.000000 0.000000
vn 1.000000 0.000000 0.000000
vn 1.000000 0.000000 0.000000
vn 1.000000 0.000000 0.000000
vn -1.000000 0.000000 0.000000
vn -1.000000 0.000000 0.000000
vn -1.000000 0.000000 0.000000
vn -1.000000 0.000000 0.000000
vn 0.000000 1.000000 0.000000
vn 0.000000 1.000000 0.000000
vn 0.000000 1.000000 0.000000
vn 0.000000 1.000000 0.000000
vn 0.000000 1.000000 0.000000
vn 0.000000 1.000000 0.000000
vn 0.000000 1.000000 0.000000
vn 0.000000 1.000000 0.000000
vn 0.000000 1.000000 -0.000000
vn 0.000000 1.000000 -0.000000
vn 0.000000 1.000000 -0.000000
vn 0.000000 1.000000 -0.000000
vn 0.000000 1.000000 0.000000
vn 0.000000 1.000000 0.000000
vn 0.000000 1.000000 0.000000
vn 0.000000 1.000000 0.000000
vn 0.000000 -1.000000 0.000000
vn 0.000000 -1.000000 0.000000
vn 0.000000 -1.000000 0.000000
vn 0.000000 -1.000000 0.000000
vn 0.000000 -1.000000 0.000000
vn 0.000000 -1.000000 0.000000
vn 0.000000 -1.000000 0.000000
vn 0.000000 -1.000000 0.000000
vn 0.000000 -1.000000 0.000000
vn 0.000000 -1.000000 0.000000
vn 0.000000 -1.000000 0.000000
vn 0.000000 -1.000000 0.000000
vn 0.000000 -1.000000 0.000000
vn 0.000000 -1.000000 0.000000
vn 0.000000 -1.000000 0.000000
vn 0.000000 -1.000000 0.000000
vn 0.000000 1.000000 -0.000000
vn 0.000000 1.000000 -0.000000
vn 0.000000 1.000000 -0.000000
vn 0.000000 1.000000 -0.000000
vn 0.000000 1.000000 0.000000
vn 0.000000 1.000000 0.000000
vn 0.000000 1.000000 0.000000
vn 0.000000 1.000000 0.000000
vn 0.000000 1.000000 0.000000
vn 0.000000 1.000000 0.000000
vn 0.000000 1.000000 0.000000
vn 0.000000 1.000000 0.000000
vn 0.000000 1.000000 0.000000
vn 0.000000 1.000000 0.000000
vn 0.000000 1.000000 0.000000
vn 0.000000 1.000000 0.000000
vn 0.000000 -1.000000 0.000000
vn 0.000000 -1.000000 0.000000
vn 0.000000 -1.000000 0.000000
vn 0.000000 -1.000000 0.000000
vn 0.000000 -1.000000 0.000000
vn 0.000000 -1.000000 0.000000
vn 0.000000 -1.000000 0.000000
vn 0.000000 -1.000000 0.000000
vn 0.000000 -1.000000 0.000000
vn 0.000000 -1.000000 0.000000
vn 0.000000 -1.000000 0.000000
vn 0.000000 -1.000000 0.000000
vn 0.000000 -1.000000 0.000000
vn 0.000000 -1.000000 0.000000
vn 0.000000 -1.000000 0.000000
vn 0.000000 -1.000000 0.000000
s off
f 1/23/1 2/2/2 4/22/3 3/17/4
f 17/57/5 18/72/6 19/71/7 20/70/8
f 5/5/9 6/16/10 8/8/11 7/20/12
f 21/61/13 22/68/14 23/67/15 24/66/16
f 2/21/17 8/11/18 6/12/19 4/4/20
f 7/13/21 1/1/22 3/24/23 5/14/24
f 3/3/25 4/55/26 10/52/27 9/45/28
f 4/15/29 6/54/30 11/49/31 10/26/32
f 6/6/33 5/51/34 12/47/35 11/27/36
f 5/18/37 3/56/38 9/46/39 12/28/40
f 7/7/41 8/43/42 14/40/43 13/33/44
f 8/19/45 2/42/46 15/37/47 14/30/48
f 2/10/49 1/39/50 16/35/51 15/31/52
f 1/9/53 7/44/54 13/34/55 16/32/56
f 9/25/57 10/87/58 18/85/59 17/69/60
f 10/53/61 11/86/62 19/83/63 18/58/64
f 11/50/65 12/84/66 20/82/67 19/59/68
f 12/48/69 9/88/70 17/81/71 20/60/72
f 13/29/73 14/79/74 22/77/75 21/65/76
f 14/41/77 15/78/78 23/75/79 22/62/80
f 15/38/81 16/76/82 24/74/83 23/63/84
f 16/36/85 13/80/86 21/73/87 24/64/88
