# This file uses centimeters as units for non-parametric coordinates.

v -0.204129 0.000000 0.204129
v 0.204129 0.000000 0.204129
v -0.204129 0.307556 0.204129
v 0.204129 0.307556 0.204129
v -0.204129 0.307556 -0.204129
v 0.204129 0.307556 -0.204129
v -0.204129 0.000000 -0.204129
v 0.204129 0.000000 -0.204129
v -0.204129 0.264653 0.204129
v 0.204129 0.264653 0.204129
v 0.204129 0.264653 -0.204129
v -0.204129 0.264653 -0.204129
v -0.204129 0.213542 0.204129
v 0.204129 0.213542 0.204129
v 0.204129 0.213541 -0.204129
v -0.204129 0.213541 -0.204129
v -0.204129 0.103845 0.204129
v 0.204129 0.103845 0.204129
v 0.204129 0.103845 -0.204129
v -0.204129 0.103845 -0.204129
v -0.040501 0.307556 0.040502
v 0.040504 0.307556 0.040502
v 0.040504 0.307556 -0.040502
v -0.040501 0.307556 -0.040502
v -0.040501 0.370147 0.040502
v 0.040504 0.370147 0.040502
v 0.040504 0.370147 -0.040502
v -0.040501 0.370147 -0.040502
vt 0.239885 0.443103
vt 0.264611 0.443103
vt 0.201922 0.049200
vt 0.141871 0.049200
vt 0.166598 0.049200
vt 0.201922 0.049200
vt 0.077211 0.047350
vt 0.264611 0.443103
vt 0.077211 0.047350
vt 0.077211 0.047350
vt 0.239885 0.443103
vt 0.141871 0.049200
vt 0.239885 0.443103
vt 0.141871 0.049200
vt 0.201922 0.049200
vt 0.166598 0.049200
vt 0.166598 0.049200
vt 0.201922 0.049200
vt 0.077211 0.047350
vt 0.264611 0.443103
vt 0.239885 0.443103
vt 0.166598 0.049200
vt 0.264611 0.443103
vt 0.141871 0.049200
vt 0.240809 0.444953
vt 0.166598 0.049200
vt 0.265536 0.444953
vt 0.141871 0.049200
vt 0.265536 0.444953
vt 0.240809 0.444953
vt 0.240809 0.444953
vt 0.265536 0.444953
vt 0.270398 0.013138
vt 0.264611 0.443103
vt 0.327447 0.013138
vt 0.239885 0.443103
vt 0.327447 0.013138
vt 0.270398 0.013138
vt 0.270398 0.013138
vt 0.327447 0.013138
vt 0.270398 0.013138
vt 0.327447 0.013138
vt 0.264611 0.443103
vt 0.239885 0.443103
vt 0.264611 0.443103
vt 0.239885 0.443103
vt 0.239885 0.443103
vt 0.264611 0.443103
vt 0.327447 0.013138
vt 0.270398 0.013138
vt 0.264611 0.443103
vt 0.239885 0.443103
vt 0.270398 0.013138
vt 0.327447 0.013138
vt 0.327447 0.013138
vt 0.270398 0.013138
vt 0.264611 0.443103
vt 0.270398 0.013138
vt 0.239885 0.443103
vt 0.327447 0.013138
vt 0.264611 0.443103
vt 0.239885 0.443103
vt 0.239885 0.443103
vt 0.264611 0.443103
vt 0.166598 0.049200
vt 0.240809 0.444953
vt 0.141871 0.049200
vt 0.265536 0.444953
vt 0.166598 0.049200
vt 0.141871 0.049200
vt 0.141871 0.049200
vt 0.166598 0.049200
vt 0.458976 0.311802
vt 0.389627 0.311802
vt 0.458976 0.311802
vt 0.389627 0.311802
vt 0.481168 0.311802
vt 0.389627 0.311802
vt 0.458976 0.311802
vt 0.389627 0.311802
vt 0.458976 0.311802
vt 0.389627 0.311802
vt 0.458976 0.311802
vt 0.481168 0.311802
vt 0.389627 0.311802
vt 0.481168 0.311802
vt 0.201922 0.049200
vt 0.458976 0.311802
vt 0.458976 0.311802
vt 0.481168 0.311802
vt 0.201922 0.049200
vt 0.389627 0.311802
vt 0.201922 0.049200
vt 0.458976 0.311802
vt 0.201922 0.049200
vt 0.389627 0.311802
vt 0.201922 0.049200
vt 0.201922 0.049200
vt 0.201922 0.049200
vt 0.201922 0.049200
vt 0.201922 0.049200
vt 0.201922 0.049200
vt 0.201922 0.049200
vt 0.201922 0.049200
vn 0.000000 0.000000 1.000000
vn 0.000000 0.000000 1.000000
vn 0.000000 0.000000 1.000000
vn 0.000000 0.000000 1.000000
vn 0.000000 1.000000 0.000000
vn 0.000000 1.000000 0.000000
vn 0.000000 1.000000 0.000000
vn 0.000000 1.000000 0.000000
vn 0.000000 0.000000 -1.000000
vn 0.000000 0.000000 -1.000000
vn 0.000000 0.000000 -1.000000
vn 0.000000 0.000000 -1.000000
vn 0.000000 -1.000000 0.000000
vn 0.000000 -1.000000 0.000000
vn 0.000000 -1.000000 0.000000
vn 0.000000 -1.000000 0.000000
vn 1.000000 0.000000 0.000000
vn 1.000000 0.000000 0.000000
vn 1.000000 0.000000 0.000000
vn 1.000000 0.000000 0.000000
vn -1.000000 0.000000 0.000000
vn -1.000000 0.000000 0.000000
vn -1.000000 0.000000 0.000000
vn -1.000000 0.000000 0.000000
vn 0.000000 0.000000 1.000000
vn 0.000000 0.000000 1.000000
vn 0.000000 0.000000 1.000000
vn 0.000000 0.000000 1.000000
vn 1.000000 0.000000 0.000000
vn 1.000000 0.000000 0.000000
vn 1.000000 0.000000 0.000000
vn 1.000000 0.000000 0.000000
vn 0.000000 0.000000 -1.000000
vn 0.000000 0.000000 -1.000000
vn 0.000000 0.000000 -1.000000
vn 0.000000 0.000000 -1.000000
vn -1.000000 0.000000 0.000000
vn -1.000000 0.000000 0.000000
vn -1.000000 0.000000 0.000000
vn -1.000000 0.000000 0.000000
vn 0.000000 0.000000 1.000000
vn 0.000000 0.000000 1.000000
vn 0.000000 0.000000 1.000000
vn 0.000000 0.000000 1.000000
vn 1.000000 0.000000 0.000000
vn 1.000000 0.000000 0.000000
vn 1.000000 0.000000 0.000000
vn 1.000000 0.000000 0.000000
vn 0.000000 0.000000 -1.000000
vn 0.000000 0.000000 -1.000000
vn 0.000000 0.000000 -1.000000
vn 0.000000 0.000000 -1.000000
vn -1.000000 0.000000 0.000000
vn -1.000000 0.000000 0.000000
vn -1.000000 0.000000 0.000000
vn -1.000000 0.000000 0.000000
vn 0.000000 0.000000 1.000000
vn 0.000000 0.000000 1.000000
vn 0.000000 0.000000 1.000000
vn 0.000000 0.000000 1.000000
vn 1.000000 0.000000 0.000000
vn 1.000000 0.000000 0.000000
vn 1.000000 0.000000 0.000000
vn 1.000000 0.000000 0.000000
vn 0.000000 0.000000 -1.000000
vn 0.000000 0.000000 -1.000000
vn 0.000000 0.000000 -1.000000
vn 0.000000 0.000000 -1.000000
vn -1.000000 0.000000 0.000000
vn -1.000000 0.000000 0.000000
vn -1.000000 0.000000 0.000000
vn -1.000000 0.000000 0.000000
vn 0.000000 1.000000 -0.000000
vn 0.000000 1.000000 -0.000000
vn 0.000000 1.000000 -0.000000
vn 0.000000 1.000000 -0.000000
vn 0.000000 1.000000 0.000000
vn 0.000000 1.000000 0.000000
vn 0.000000 1.000000 0.000000
vn 0.000000 1.000000 0.000000
vn 0.000000 1.000000 0.000000
vn 0.000000 1.000000 0.000000
vn 0.000000 1.000000 0.000000
vn 0.000000 1.000000 0.000000
vn 0.000000 1.000000 0.000000
vn 0.000000 1.000000 0.000000
vn 0.000000 1.000000 0.000000
vn 0.000000 1.000000 0.000000
vn 0.000000 0.000000 1.000000
vn 0.000000 0.000000 1.000000
vn 0.000000 0.000000 1.000000
vn 0.000000 0.000000 1.000000
vn 1.000000 0.000000 0.000000
vn 1.000000 0.000000 0.000000
vn 1.000000 0.000000 0.000000
vn 1.000000 0.000000 0.000000
vn 0.000000 0.000000 -1.000000
vn 0.000000 0.000000 -1.000000
vn 0.000000 0.000000 -1.000000
vn 0.000000 0.000000 -1.000000
vn -1.000000 0.000000 0.000000
vn -1.000000 0.000000 0.000000
vn -1.000000 0.000000 0.000000
vn -1.000000 0.000000 0.000000
s off
f 9/26/1 10/65/2 4/22/3 3/17/4
f 25/77/5 26/90/6 27/86/7 28/84/8
f 5/5/9 6/16/10 11/72/11 12/69/12
f 7/7/13 8/19/14 2/10/15 1/9/16
f 10/28/17 11/71/18 6/12/19 4/4/20
f 12/70/21 9/67/22 3/24/23 5/14/24
f 10/27/25 9/68/26 13/34/27 14/57/28
f 11/30/29 10/66/30 14/36/31 15/63/32
f 12/32/33 11/29/34 15/64/35 16/61/36
f 9/25/37 12/31/38 16/62/39 13/59/40
f 17/42/41 18/55/42 14/35/43 13/60/44
f 18/56/45 19/53/46 15/38/47 14/58/48
f 16/40/49 15/37/50 19/54/51 20/49/52
f 20/50/53 17/41/54 13/33/55 16/39/56
f 1/23/57 2/2/58 18/43/59 17/51/60
f 2/21/61 8/11/62 19/46/63 18/44/64
f 20/48/65 19/45/66 8/8/67 7/20/68
f 7/13/69 1/1/70 17/52/71 20/47/72
f 3/3/73 4/103/74 22/101/75 21/95/76
f 4/15/77 6/102/78 23/99/79 22/93/80
f 6/6/81 5/100/82 24/98/83 23/91/84
f 5/18/85 3/104/86 21/97/87 24/87/88
f 21/73/89 22/94/90 26/89/91 25/81/92
f 22/74/93 23/92/94 27/85/95 26/78/96
f 23/75/97 24/88/98 28/83/99 27/79/100
f 24/76/101 21/96/102 25/82/103 28/80/104
