# This file uses centimeters as units for non-parametric coordinates.

v 0.091679 0.000000 -0.091356
v 3.601340 0.000000 -0.091356
v 0.091679 0.000000 -1.091356
v 3.601340 0.000000 -1.091356
v 0.091679 1.030293 -0.091356
v 3.601340 1.030293 -0.091356
v 3.601340 1.030293 -1.091356
v 0.091679 1.030293 -1.091356
v -0.000004 1.030293 -0.009477
v 3.688029 1.030293 -0.009477
v 3.688029 1.294057 -0.009477
v -0.000004 1.294057 -0.009477
v 3.688029 1.294057 -1.173234
v -0.000004 1.294057 -1.173234
v 3.688029 1.030293 -1.173234
v -0.000004 1.030293 -1.173234
vt 0.267141 0.479233
vt 0.168756 0.061866
vt 0.235537 0.059232
vt 0.168755 0.061866
vt 0.168755 0.061866
vt 0.267141 0.479233
vt 0.299968 0.479233
vt 0.299968 0.479233
vt 0.267141 0.479233
vt 0.299967 0.479233
vt 0.267141 0.479233
vt 0.299967 0.479233
vt 0.235537 0.059232
vt 0.168756 0.061866
vt 0.235537 0.059232
vt 0.168756 0.061866
vt 0.168755 0.061866
vt 0.235537 0.059232
vt 0.168755 0.061866
vt 0.168756 0.061866
vt 0.135911 0.058939
vt 0.135911 0.058939
vt 0.299968 0.479233
vt 0.267141 0.479233
vt 0.299968 0.479233
vt 0.267141 0.479233
vt 0.267141 0.479233
vt 0.299967 0.479233
vt 0.135911 0.058939
vt 0.135911 0.058939
vt 0.299967 0.479233
vt 0.267141 0.479233
vt 0.135911 0.058939
vt 0.135911 0.058939
vt 0.135911 0.058939
vt 0.135911 0.058939
vt 0.135911 0.058939
vt 0.135911 0.058939
vt 0.135911 0.058939
vt 0.135911 0.058939
vt 0.135911 0.058939
vt 0.135911 0.058939
vt 0.135911 0.058939
vt 0.135911 0.058939
vn 0.000000 0.000000 1.000000
vn 0.000000 0.000000 1.000000
vn 0.000000 0.000000 1.000000
vn 0.000000 0.000000 1.000000
vn 0.000000 1.000000 0.000000
vn 0.000000 1.000000 0.000000
vn 0.000000 1.000000 0.000000
vn 0.000000 1.000000 0.000000
vn 0.000000 0.000000 -1.000000
vn 0.000000 0.000000 -1.000000
vn 0.000000 0.000000 -1.000000
vn 0.000000 0.000000 -1.000000
vn 1.000000 0.000000 0.000000
vn 1.000000 0.000000 0.000000
vn 1.000000 0.000000 0.000000
vn 1.000000 0.000000 0.000000
vn -1.000000 0.000000 0.000000
vn -1.000000 0.000000 0.000000
vn -1.000000 0.000000 0.000000
vn -1.000000 0.000000 0.000000
vn 0.000000 0.000000 1.000000
vn 0.000000 0.000000 1.000000
vn 0.000000 0.000000 1.000000
vn 0.000000 0.000000 1.000000
vn 1.000000 0.000000 0.000000
vn 1.000000 0.000000 0.000000
vn 1.000000 0.000000 0.000000
vn 1.000000 0.000000 0.000000
vn 0.000000 0.000000 -1.000000
vn 0.000000 0.000000 -1.000000
vn 0.000000 0.000000 -1.000000
vn 0.000000 0.000000 -1.000000
vn -1.000000 0.000000 0.000000
vn -1.000000 0.000000 0.000000
vn -1.000000 0.000000 0.000000
vn -1.000000 0.000000 0.000000
vn 0.000000 -1.000000 0.000000
vn 0.000000 -1.000000 0.000000
vn 0.000000 -1.000000 0.000000
vn 0.000000 -1.000000 0.000000
vn 0.000000 -1.000000 0.000000
vn 0.000000 -1.000000 0.000000
vn 0.000000 -1.000000 0.000000
vn 0.000000 -1.000000 0.000000
vn 0.000000 -1.000000 0.000000
vn 0.000000 -1.000000 0.000000
vn 0.000000 -1.000000 0.000000
vn 0.000000 -1.000000 0.000000
vn 0.000000 -1.000000 0.000000
vn 0.000000 -1.000000 0.000000
vn 0.000000 -1.000000 0.000000
vn 0.000000 -1.000000 0.000000
s off
f 9/2/1 10/4/2 11/5/3 12/14/4
f 12/3/5 11/18/6 13/13/7 14/15/8
f 14/16/9 13/17/10 15/19/11 16/20/12
f 10/4/13 15/19/14 13/17/15 11/5/16
f 16/20/17 9/2/18 12/14/19 14/16/20
f 1/12/21 2/8/22 6/23/23 5/31/24
f 2/9/25 4/6/26 7/26/27 6/24/28
f 8/28/29 7/25/30 4/7/31 3/10/32
f 3/11/33 1/1/34 5/32/35 8/27/36
f 5/22/37 6/35/38 10/38/39 9/44/40
f 7/34/41 8/29/42 16/40/43 15/39/44
f 6/36/45 7/33/46 15/37/47 10/41/48
f 8/30/49 5/21/50 9/42/51 16/43/52
