# This file uses centimeters as units for non-parametric coordinates.

v -0.500000 0.000000 0.035111
v 0.500000 0.000000 0.035111
v -0.500000 1.000000 0.035111
v 0.500000 1.000000 0.035111
v -0.500000 1.000000 -0.035111
v 0.500000 1.000000 -0.035111
v -0.500000 0.000000 -0.035111
v 0.500000 0.000000 -0.035111
v -0.413367 0.086633 0.035111
v 0.413367 0.086633 0.035111
v 0.413367 0.913367 0.035111
v -0.413367 0.913367 0.035111
v -0.383562 0.116438 0.035111
v 0.383562 0.116438 0.035111
v 0.383562 0.883562 0.035111
v -0.383562 0.883562 0.035111
v -0.318897 0.363189 0.035111
v 0.318897 0.363189 0.035111
v 0.318897 0.636811 0.035111
v -0.318897 0.636811 0.035111
v -0.260074 0.468317 0.035111
v 0.260074 0.468317 0.035111
v 0.260074 0.531683 0.035111
v -0.260074 0.531683 0.035111
vt 0.271323 0.330590
vt 0.296050 0.330590
vt 0.331374 0.330590
vt 0.271323 0.330590
vt 0.331374 0.330590
vt 0.237177 0.330590
vt 0.237177 0.330590
vt 0.237176 0.330590
vt 0.271323 0.330590
vt 0.271323 0.330590
vt 0.271323 0.330590
vt 0.271323 0.330590
vt 0.331374 0.330590
vt 0.296050 0.330590
vt 0.331374 0.330590
vt 0.237176 0.330590
vt 0.271323 0.330590
vt 0.296050 0.330590
vt 0.296050 0.330590
vt 0.271323 0.330590
vt 0.172935 0.063038
vt 0.296050 0.330590
vt 0.296050 0.330590
vt 0.296050 0.330590
vt 0.296050 0.330590
vt 0.296050 0.330590
vt 0.296050 0.330590
vt 0.172935 0.063038
vt 0.296050 0.330590
vt 0.172935 0.063038
vt 0.296050 0.330590
vt 0.296050 0.330590
vt 0.172935 0.063038
vt 0.296050 0.330590
vt 0.296050 0.330590
vt 0.296050 0.330590
vt 0.358736 0.197817
vt 0.358736 0.197817
vt 0.358736 0.197817
vt 0.358736 0.197817
vt 0.358736 0.197817
vt 0.358736 0.197817
vt 0.358736 0.197817
vt 0.358736 0.197817
vt 0.358736 0.197817
vt 0.358736 0.197817
vt 0.358736 0.197817
vt 0.358736 0.197817
vt 0.172935 0.063038
vt 0.172935 0.063038
vt 0.172935 0.063038
vt 0.172935 0.063038
vt 0.172935 0.063038
vt 0.172935 0.063038
vt 0.172935 0.063038
vt 0.172935 0.063038
vt 0.172935 0.063038
vt 0.172935 0.063038
vt 0.172935 0.063038
vt 0.172935 0.063038
vn 0.000000 0.000000 1.000000
vn 0.000000 0.000000 1.000000
vn 0.000000 0.000000 1.000000
vn 0.000000 0.000000 1.000000
vn 0.000000 1.000000 0.000000
vn 0.000000 1.000000 0.000000
vn 0.000000 1.000000 0.000000
vn 0.000000 1.000000 0.000000
vn 0.000000 -1.000000 0.000000
vn 0.000000 -1.000000 0.000000
vn 0.000000 -1.000000 0.000000
vn 0.000000 -1.000000 0.000000
vn 1.000000 0.000000 0.000000
vn 1.000000 0.000000 0.000000
vn 1.000000 0.000000 0.000000
vn 1.000000 0.000000 0.000000
vn -1.000000 0.000000 0.000000
vn -1.000000 0.000000 0.000000
vn -1.000000 0.000000 0.000000
vn -1.000000 0.000000 0.000000
vn 0.000000 0.000000 1.000000
vn 0.000000 0.000000 1.000000
vn 0.000000 0.000000 1.000000
vn 0.000000 0.000000 1.000000
vn 0.000000 0.000000 1.000000
vn 0.000000 0.000000 1.000000
vn 0.000000 0.000000 1.000000
vn 0.000000 0.000000 1.000000
vn 0.000000 0.000000 1.000000
vn 0.000000 0.000000 1.000000
vn 0.000000 0.000000 1.000000
vn 0.000000 0.000000 1.000000
vn -0.000000 0.000000 1.000000
vn -0.000000 0.000000 1.000000
vn -0.000000 0.000000 1.000000
vn -0.000000 0.000000 1.000000
vn 0.000000 0.000000 1.000000
vn 0.000000 0.000000 1.000000
vn 0.000000 0.000000 1.000000
vn 0.000000 0.000000 1.000000
vn 0.000000 0.000000 1.000000
vn 0.000000 0.000000 1.000000
vn 0.000000 0.000000 1.000000
vn 0.000000 0.000000 1.000000
vn 0.000000 0.000000 1.000000
vn 0.000000 0.000000 1.000000
vn 0.000000 0.000000 1.000000
vn 0.000000 0.000000 1.000000
vn 0.000000 0.000000 1.000000
vn 0.000000 0.000000 1.000000
vn 0.000000 0.000000 1.000000
vn 0.000000 0.000000 1.000000
vn 0.000000 0.000000 1.000000
vn 0.000000 0.000000 1.000000
vn 0.000000 0.000000 1.000000
vn 0.000000 0.000000 1.000000
vn 0.000000 0.000000 1.000000
vn 0.000000 0.000000 1.000000
vn 0.000000 0.000000 1.000000
vn 0.000000 0.000000 1.000000
vn 0.000000 0.000000 1.000000
vn 0.000000 0.000000 1.000000
vn 0.000000 0.000000 1.000000
vn 0.000000 0.000000 1.000000
vn -0.000000 0.000000 1.000000
vn -0.000000 0.000000 1.000000
vn -0.000000 0.000000 1.000000
vn -0.000000 0.000000 1.000000
vn 0.000000 0.000000 1.000000
vn 0.000000 0.000000 1.000000
vn 0.000000 0.000000 1.000000
vn 0.000000 0.000000 1.000000
vn 0.000000 0.000000 1.000000
vn 0.000000 0.000000 1.000000
vn 0.000000 0.000000 1.000000
vn 0.000000 0.000000 1.000000
vn 0.000000 0.000000 1.000000
vn 0.000000 0.000000 1.000000
vn 0.000000 0.000000 1.000000
vn 0.000000 0.000000 1.000000
vn 0.000000 0.000000 1.000000
vn 0.000000 0.000000 1.000000
vn 0.000000 0.000000 1.000000
vn 0.000000 0.000000 1.000000
s off
f 21/37/1 22/38/2 23/39/3 24/40/4
f 3/3/5 4/13/6 6/5/7 5/15/8
f 7/6/9 8/16/10 2/8/11 1/7/12
f 2/17/13 8/9/14 6/10/15 4/4/16
f 7/11/17 1/1/18 3/20/19 5/12/20
f 1/19/21 2/35/22 10/32/23 9/25/24
f 2/2/25 4/34/26 11/29/27 10/22/28
f 4/18/29 3/31/30 12/27/31 11/23/32
f 3/14/33 1/36/34 9/26/35 12/24/36
f 9/21/37 10/28/38 14/30/39 13/33/40
f 10/28/41 11/49/42 15/50/43 14/30/44
f 11/49/45 12/51/46 16/52/47 15/50/48
f 12/51/49 9/21/50 13/33/51 16/52/52
f 13/41/53 14/42/54 18/43/55 17/44/56
f 14/42/57 15/45/58 19/46/59 18/43/60
f 15/45/61 16/47/62 20/48/63 19/46/64
f 16/47/65 13/41/66 17/44/67 20/48/68
f 17/53/69 18/54/70 22/55/71 21/56/72
f 18/54/73 19/57/74 23/58/75 22/55/76
f 19/57/77 20/59/78 24/60/79 23/58/80
f 20/59/81 17/53/82 21/56/83 24/60/84
