# This file uses centimeters as units for non-parametric coordinates.

v -0.331044 0.000000 0.518330
v 0.331044 0.000000 0.518330
v -0.331044 0.639332 0.518330
v 0.331044 0.639332 0.518330
v -0.331044 0.639332 -0.518330
v 0.331044 0.639332 -0.518330
v -0.331044 0.000000 -0.518330
v 0.331044 0.000000 -0.518330
v -0.331044 0.639332 0.505397
v 0.331044 0.639332 0.505397
v 0.331044 0.639332 -0.501809
v -0.331044 0.639332 -0.501809
v -0.104650 0.639332 0.518330
v 0.083650 0.639332 0.518330
v 0.083650 0.639332 0.505397
v 0.083650 0.639332 -0.501809
v -0.104650 0.639332 -0.501809
v -0.104650 0.639332 -0.518330
v 0.083650 0.639332 -0.518330
v 0.083650 0.346192 0.518330
v -0.104650 0.346192 0.518330
v -0.104650 0.289543 -0.518330
v 0.083650 0.289543 -0.518330
v -0.104650 0.639332 0.505397
v 0.331044 0.041649 0.083926
v 0.331044 0.041649 0.448925
v 0.331044 0.215589 0.083926
v 0.331044 0.215589 0.448925
v 0.331044 0.215589 0.286596
v 0.331044 0.041649 0.286596
v 0.331044 0.215589 0.254131
v 0.331044 0.041649 0.254131
v -0.331044 0.051855 -0.446052
v -0.331044 0.051855 -0.272485
v -0.331044 0.219399 -0.272485
v -0.331044 0.219399 -0.446052
vt 0.386350 0.397534
vt 0.361815 0.397534
vt 0.236377 0.397534
vt 0.386350 0.397534
vt 0.361815 0.397534
vt 0.236377 0.397534
vt 0.323988 0.397534
vt 0.361815 0.397534
vt 0.323988 0.397534
vt 0.323988 0.397534
vt 0.386350 0.397534
vt 0.386350 0.397534
vt 0.386350 0.397534
vt 0.386350 0.397534
vt 0.236377 0.397534
vt 0.361815 0.397534
vt 0.361815 0.397534
vt 0.236377 0.397534
vt 0.323988 0.397534
vt 0.361815 0.397534
vt 0.386350 0.397534
vt 0.361815 0.397534
vt 0.361815 0.397534
vt 0.386350 0.397534
vt 0.386350 0.397534
vt 0.236377 0.397534
vt 0.420087 0.397534
vt 0.386350 0.397534
vt 0.236377 0.397534
vt 0.386350 0.397534
vt 0.386350 0.397534
vt 0.420087 0.397534
vt 0.264755 0.443088
vt 0.206482 0.443088
vt 0.236377 0.397534
vt 0.361815 0.397534
vt 0.420087 0.397534
vt 0.236377 0.397534
vt 0.420087 0.397534
vt 0.361815 0.397534
vt 0.236377 0.397534
vt 0.361815 0.397534
vt 0.236377 0.397534
vt 0.206482 0.443088
vt 0.206482 0.443088
vt 0.206482 0.443088
vt 0.206482 0.443088
vt 0.236377 0.397534
vt 0.264755 0.443088
vt 0.361815 0.397534
vt 0.236377 0.397534
vt 0.264755 0.443088
vt 0.206482 0.443088
vt 0.264755 0.443088
vt 0.361815 0.397534
vt 0.264755 0.443088
vt 0.206482 0.443088
vt 0.361815 0.397534
vt 0.264755 0.443088
vt 0.264755 0.443088
vt 0.206482 0.443088
vt 0.264755 0.443088
vt 0.361815 0.397534
vt 0.361815 0.397534
vt 0.420087 0.397534
vt 0.236377 0.397534
vt 0.420087 0.397534
vt 0.236377 0.397534
vt 0.236377 0.397534
vt 0.236377 0.397534
vt 0.420087 0.397534
vt 0.420087 0.397534
vt 0.386350 0.397534
vt 0.386350 0.397534
vt 0.386350 0.397534
vt 0.386350 0.397534
vt 0.386350 0.397534
vt 0.386350 0.397534
vt 0.386350 0.397534
vt 0.386350 0.397534
vt 0.231739 0.065066
vt 0.231739 0.065066
vt 0.231739 0.065066
vt 0.231739 0.065066
vt 0.231739 0.065066
vt 0.231739 0.065066
vt 0.231739 0.065066
vt 0.231739 0.065066
vt 0.386350 0.397534
vt 0.386350 0.397534
vt 0.386350 0.397534
vt 0.386350 0.397534
vt 0.228752 0.059839
vt 0.228752 0.059839
vt 0.228752 0.059839
vt 0.228752 0.059839
vn 0.000000 0.000000 1.000000
vn 0.000000 0.000000 1.000000
vn 0.000000 0.000000 1.000000
vn 0.000000 0.000000 1.000000
vn 0.000000 0.000000 1.000000
vn 0.000000 0.000000 1.000000
vn 0.000000 0.000000 1.000000
vn 0.000000 0.000000 1.000000
vn 0.000000 1.000000 0.000000
vn 0.000000 1.000000 0.000000
vn 0.000000 1.000000 0.000000
vn 0.000000 1.000000 0.000000
vn 0.000000 1.000000 0.000000
vn 0.000000 1.000000 0.000000
vn 0.000000 1.000000 0.000000
vn 0.000000 1.000000 0.000000
vn 0.000000 0.000000 -1.000000
vn 0.000000 0.000000 -1.000000
vn 0.000000 0.000000 -1.000000
vn 0.000000 0.000000 -1.000000
vn 0.000000 0.000000 -1.000000
vn 0.000000 0.000000 -1.000000
vn 0.000000 0.000000 -1.000000
vn 0.000000 0.000000 -1.000000
vn 0.000000 -1.000000 0.000000
vn 0.000000 -1.000000 0.000000
vn 0.000000 -1.000000 0.000000
vn 0.000000 -1.000000 0.000000
vn 1.000000 0.000000 0.000000
vn 1.000000 0.000000 0.000000
vn 1.000000 0.000000 0.000000
vn 1.000000 0.000000 0.000000
vn -1.000000 0.000000 0.000000
vn -1.000000 0.000000 0.000000
vn -1.000000 0.000000 0.000000
vn -1.000000 0.000000 0.000000
vn 0.000000 0.000000 1.000000
vn 0.000000 0.000000 1.000000
vn 0.000000 0.000000 1.000000
vn 0.000000 0.000000 1.000000
vn 0.000000 1.000000 0.000000
vn 0.000000 1.000000 0.000000
vn 0.000000 1.000000 0.000000
vn 0.000000 1.000000 0.000000
vn 0.000000 1.000000 0.000000
vn 0.000000 1.000000 0.000000
vn 0.000000 1.000000 0.000000
vn 0.000000 1.000000 0.000000
vn 0.000000 1.000000 0.000000
vn 0.000000 1.000000 0.000000
vn 0.000000 1.000000 0.000000
vn 0.000000 1.000000 0.000000
vn 0.000000 0.000000 -1.000000
vn 0.000000 0.000000 -1.000000
vn 0.000000 0.000000 -1.000000
vn 0.000000 0.000000 -1.000000
vn 0.000000 1.000000 0.000000
vn 0.000000 1.000000 0.000000
vn 0.000000 1.000000 0.000000
vn 0.000000 1.000000 0.000000
vn 0.000000 1.000000 0.000000
vn 0.000000 1.000000 0.000000
vn 0.000000 1.000000 0.000000
vn 0.000000 1.000000 0.000000
vn 0.000000 1.000000 0.000000
vn 0.000000 1.000000 0.000000
vn 0.000000 1.000000 0.000000
vn 0.000000 1.000000 0.000000
vn 1.000000 -0.000000 0.000000
vn 1.000000 -0.000000 0.000000
vn 1.000000 -0.000000 0.000000
vn 1.000000 -0.000000 0.000000
vn 1.000000 -0.000000 0.000000
vn 1.000000 -0.000000 0.000000
vn 1.000000 0.000000 0.000000
vn 1.000000 0.000000 0.000000
vn 1.000000 0.000000 0.000000
vn 1.000000 0.000000 0.000000
vn 1.000000 0.000000 0.000000
vn 1.000000 0.000000 0.000000
vn 1.000000 0.000000 0.000000
vn 1.000000 0.000000 0.000000
vn 1.000000 0.000000 0.000000
vn 1.000000 0.000000 0.000000
vn 1.000000 0.000000 0.000000
vn 1.000000 0.000000 0.000000
vn 1.000000 0.000000 0.000000
vn 1.000000 0.000000 0.000000
vn 1.000000 0.000000 0.000000
vn 1.000000 0.000000 0.000000
vn 1.000000 0.000000 0.000000
vn 1.000000 0.000000 0.000000
vn 1.000000 0.000000 0.000000
vn 1.000000 0.000000 0.000000
vn 1.000000 0.000000 0.000000
vn 1.000000 0.000000 0.000000
vn 1.000000 0.000000 0.000000
vn 1.000000 0.000000 0.000000
vn -1.000000 -0.000000 0.000000
vn -1.000000 -0.000000 0.000000
vn -1.000000 -0.000000 0.000000
vn -1.000000 -0.000000 0.000000
vn -1.000000 0.000000 0.000000
vn -1.000000 0.000000 0.000000
vn -1.000000 0.000000 0.000000
vn -1.000000 0.000000 0.000000
vn -1.000000 0.000000 0.000000
vn -1.000000 0.000000 0.000000
vn -1.000000 0.000000 0.000000
vn -1.000000 0.000000 0.000000
vn -1.000000 0.000000 0.000000
vn -1.000000 0.000000 0.000000
vn -1.000000 0.000000 0.000000
vn -1.000000 0.000000 0.000000
vn -1.000000 0.000000 0.000000
vn -1.000000 0.000000 0.000000
s off
f 1/23/1 2/2/2 4/22/3 14/36/4 20/64/5 21/63/6 13/50/7 3/17/8
f 15/60/9 16/59/10 19/56/11 18/54/12 17/52/13 24/49/14 13/33/15 14/62/16
f 5/5/17 18/40/18 22/58/19 23/55/20 19/42/21 6/16/22 8/8/23 7/20/24
f 7/7/25 8/19/26 2/10/27 1/9/28
f 31/81/29 32/82/30 25/83/31 27/84/32
f 33/93/33 34/94/34 35/95/35 36/96/36
f 13/34/37 21/45/38 20/44/39 14/61/40
f 15/68/41 14/35/42 4/15/43 10/70/44
f 16/67/45 15/37/46 10/27/47 11/71/48
f 19/43/49 16/38/50 11/29/51 6/6/52
f 19/57/53 23/47/54 22/46/55 18/53/56
f 12/69/57 17/66/58 18/41/59 5/18/60
f 9/72/61 24/65/62 17/39/63 12/32/64
f 3/3/65 13/51/66 24/48/67 9/26/68
f 2/21/69 8/11/70 25/74/71 32/80/72 30/78/73 26/73/74
f 8/11/75 6/12/76 27/75/77 25/74/78
f 27/75/79 6/12/80 11/30/81 10/28/82 4/4/83 28/76/84 29/77/85 31/79/86
f 4/4/87 2/21/88 26/73/89 28/76/90
f 26/85/91 30/86/92 29/87/93 28/88/94
f 29/77/95 30/78/96 32/80/97 31/79/98
f 7/13/99 1/1/100 34/90/101 33/89/102
f 1/1/103 3/24/104 35/91/105 34/90/106
f 35/91/107 3/24/108 9/25/109 12/31/110 5/14/111 36/92/112
f 5/14/113 7/13/114 33/89/115 36/92/116
