# This file uses centimeters as units for non-parametric coordinates.

v -0.078049 0.000000 0.153543
v 0.078053 0.000000 0.153543
v -0.078049 0.057815 0.153543
v 0.078053 0.057815 0.153543
v -0.078049 0.057815 -0.153543
v 0.078053 0.057815 -0.153543
v -0.078049 0.000000 -0.153543
v 0.078053 0.000000 -0.153543
v -0.068354 0.056328 0.143703
v 0.068356 0.056328 0.143703
v 0.068356 0.056328 -0.143703
v -0.068354 0.056328 -0.143703
v -0.052056 0.051152 0.109439
v 0.052058 0.051152 0.109439
v 0.052058 0.051152 -0.109440
v -0.052056 0.051152 -0.109440
v 0.078053 0.042351 0.034814
v 0.068356 0.042351 0.034814
v 0.052058 0.042351 0.034814
v -0.052056 0.042351 0.034814
v -0.068354 0.042351 0.034814
v -0.078049 0.042351 0.034814
v -0.078049 0.000000 0.034814
v 0.078053 0.000000 0.034814
v 0.078053 0.042351 -0.026299
v 0.068356 0.042351 -0.026299
v 0.052058 0.042351 -0.026299
v -0.052056 0.042351 -0.026299
v -0.068354 0.042351 -0.026299
v -0.078049 0.042351 -0.026299
v -0.078049 0.000000 -0.026299
v 0.078053 0.000000 -0.026299
v 0.078053 0.042351 -0.015826
v 0.078053 0.000000 -0.015826
v -0.078049 0.000000 -0.015826
v -0.078049 0.042351 -0.015826
v 0.078053 0.042351 0.025037
v 0.078053 0.000000 0.025037
v -0.078049 0.000000 0.025037
v -0.078049 0.042351 0.025037
vt 0.205852 0.442807
vt 0.230579 0.442807
vt 0.265903 0.442808
vt 0.205852 0.442808
vt 0.230579 0.442808
vt 0.265903 0.442808
vt 0.171706 0.442807
vt 0.230579 0.442807
vt 0.171706 0.442807
vt 0.171706 0.442807
vt 0.205852 0.442807
vt 0.205852 0.442808
vt 0.205852 0.442807
vt 0.205852 0.442808
vt 0.265903 0.442808
vt 0.230579 0.442808
vt 0.230579 0.442808
vt 0.265903 0.442808
vt 0.171706 0.442807
vt 0.230579 0.442807
vt 0.205852 0.442807
vt 0.230579 0.442808
vt 0.230579 0.442807
vt 0.205852 0.442808
vt 0.210702 0.442808
vt 0.210702 0.442808
vt 0.210702 0.442808
vt 0.265903 0.442808
vt 0.265903 0.442808
vt 0.210702 0.442808
vt 0.265903 0.442808
vt 0.210702 0.442808
vt 0.265903 0.442808
vt 0.205852 0.442808
vt 0.271323 0.219437
vt 0.331374 0.219437
vt 0.271323 0.219437
vt 0.171706 0.442807
vt 0.237176 0.219437
vt 0.205852 0.442807
vt 0.331374 0.219437
vt 0.205852 0.442808
vt 0.331374 0.219437
vt 0.331374 0.219437
vt 0.331374 0.219437
vt 0.331374 0.219437
vt 0.271323 0.219437
vt 0.265903 0.442808
vt 0.205852 0.442807
vt 0.171706 0.442807
vt 0.171706 0.442807
vt 0.205852 0.442807
vt 0.387858 0.473617
vt 0.271323 0.219437
vt 0.293661 0.473617
vt 0.327807 0.473617
vt 0.327807 0.473617
vt 0.293661 0.473617
vt 0.327807 0.473617
vt 0.331374 0.219437
vt 0.387858 0.473617
vt 0.327807 0.473617
vt 0.237176 0.219437
vt 0.271323 0.219437
vt 0.271323 0.219437
vt 0.237177 0.219437
vt 0.271323 0.219437
vt 0.331374 0.219437
vt 0.271323 0.219437
vt 0.331374 0.219437
vt 0.327807 0.473617
vt 0.387858 0.473617
vt 0.293661 0.473617
vt 0.327807 0.473617
vt 0.327807 0.473617
vt 0.293661 0.473617
vt 0.205852 0.442807
vt 0.237177 0.219437
vt 0.171706 0.442807
vt 0.271323 0.219437
vt 0.331374 0.219437
vt 0.327807 0.473617
vt 0.271323 0.219437
vt 0.387858 0.473617
vt 0.237177 0.219437
vt 0.271323 0.219437
vt 0.271323 0.219437
vt 0.237176 0.219437
vt 0.210702 0.442808
vt 0.265903 0.442808
vt 0.210702 0.442808
vt 0.265903 0.442808
vt 0.205852 0.442808
vt 0.331374 0.219437
vt 0.265903 0.442808
vt 0.271323 0.219437
vt 0.237176 0.219437
vt 0.271323 0.219437
vt 0.271323 0.219437
vt 0.237177 0.219437
vt 0.331374 0.219437
vt 0.271323 0.219437
vt 0.265903 0.442808
vt 0.205852 0.442808
vt 0.331374 0.219437
vt 0.210702 0.442808
vt 0.331374 0.219437
vt 0.265903 0.442808
vt 0.331374 0.219437
vt 0.210702 0.442808
vt 0.331374 0.219437
vt 0.265903 0.442808
vt 0.210702 0.442808
vt 0.265903 0.442808
vt 0.210702 0.442808
vt 0.265903 0.442808
vt 0.265903 0.442808
vt 0.265903 0.442808
vt 0.210702 0.442808
vt 0.210702 0.442808
vt 0.210702 0.442808
vt 0.265903 0.442808
vt 0.210702 0.442808
vt 0.210702 0.442808
vt 0.210702 0.442808
vt 0.265903 0.442808
vt 0.265903 0.442808
vt 0.265903 0.442808
vt 0.265903 0.442808
vt 0.210702 0.442808
vt 0.265903 0.442808
vt 0.210702 0.442808
vt 0.210702 0.442808
vt 0.210702 0.442808
vt 0.210702 0.442808
vt 0.265903 0.442808
vt 0.265903 0.442808
vt 0.265903 0.442808
vt 0.210702 0.442808
vt 0.265903 0.442808
vt 0.265903 0.442808
vt 0.210702 0.442808
vt 0.265903 0.442808
vt 0.265903 0.442808
vn 0.000000 0.000000 1.000000
vn 0.000000 0.000000 1.000000
vn 0.000000 0.000000 1.000000
vn 0.000000 0.000000 1.000000
vn 0.000000 0.993117 -0.117123
vn 0.000000 0.993117 -0.117123
vn -0.003425 0.996017 -0.089103
vn 0.003425 0.996017 -0.089103
vn 0.000000 0.000000 -1.000000
vn 0.000000 0.000000 -1.000000
vn 0.000000 0.000000 -1.000000
vn 0.000000 0.000000 -1.000000
vn 0.000000 -1.000000 0.000000
vn 0.000000 -1.000000 0.000000
vn 0.000000 -1.000000 0.000000
vn 0.000000 -1.000000 0.000000
vn 1.000000 0.000000 0.000000
vn 1.000000 0.000000 0.000000
vn 1.000000 0.000000 0.000000
vn 1.000000 0.000000 0.000000
vn -1.000000 0.000000 0.000000
vn -1.000000 0.000000 0.000000
vn -1.000000 0.000000 0.000000
vn -1.000000 0.000000 0.000000
vn 0.000000 0.988781 -0.149376
vn 0.000000 0.988781 -0.149376
vn 0.000000 0.988781 -0.149376
vn 0.000000 0.988781 -0.149376
vn -0.010933 0.991680 -0.128266
vn -0.004620 0.998520 -0.054198
vn -0.009631 0.998270 -0.058000
vn -0.010933 0.991680 -0.128266
vn 0.000000 0.988781 0.149376
vn 0.000000 0.988781 0.149376
vn 0.000000 0.988781 0.149376
vn 0.000000 0.988781 0.149376
vn 0.009632 0.998270 -0.057997
vn 0.004620 0.998520 -0.054192
vn 0.010935 0.991680 -0.128266
vn 0.010935 0.991680 -0.128266
vn 0.000000 0.988781 -0.149371
vn 0.000000 0.988781 -0.149371
vn 0.000000 0.988781 -0.149371
vn 0.000000 0.988781 -0.149371
vn -0.028098 0.991993 -0.123127
vn -0.009631 0.998270 -0.058000
vn -0.003425 0.996017 -0.089103
vn -0.028098 0.991993 -0.123127
vn 0.000000 0.988781 0.149371
vn 0.000000 0.988781 0.149371
vn 0.000000 0.988781 0.149371
vn 0.000000 0.988781 0.149371
vn 0.003425 0.996017 -0.089103
vn 0.009632 0.998270 -0.057997
vn 0.028098 0.991993 -0.123127
vn 0.028098 0.991993 -0.123127
vn -0.013591 0.998457 0.053834
vn -0.004733 0.996703 0.080994
vn 0.004733 0.996703 0.080994
vn 0.013592 0.998458 0.053832
vn 0.006549 0.998701 0.050529
vn 0.000000 1.000000 0.000000
vn 0.000000 1.000000 0.000000
vn -0.006549 0.998701 0.050535
vn -1.000000 0.000000 0.000000
vn -1.000000 0.000000 0.000000
vn -1.000000 0.000000 0.000000
vn -1.000000 0.000000 0.000000
vn 0.000000 -1.000000 0.000000
vn 0.000000 -1.000000 0.000000
vn 0.000000 -1.000000 0.000000
vn 0.000000 -1.000000 0.000000
vn 1.000000 0.000000 0.000000
vn 1.000000 0.000000 0.000000
vn 1.000000 0.000000 0.000000
vn 1.000000 0.000000 0.000000
vn -0.013591 0.998457 0.053834
vn -0.006549 0.998701 0.050535
vn -0.015480 0.992718 0.119461
vn -0.015480 0.992718 0.119461
vn -0.004733 0.996703 0.080994
vn -0.013591 0.998457 0.053834
vn -0.039125 0.992851 0.112767
vn -0.039125 0.992851 0.112767
vn 0.004733 0.996703 0.080994
vn -0.004733 0.996703 0.080994
vn 0.000000 0.994444 0.105266
vn 0.000000 0.994444 0.105266
vn 0.039125 0.992851 0.112767
vn 0.013592 0.998458 0.053832
vn 0.004733 0.996703 0.080994
vn 0.039125 0.992851 0.112767
vn 0.015483 0.992718 0.119461
vn 0.006549 0.998701 0.050529
vn 0.013592 0.998458 0.053832
vn 0.015483 0.992718 0.119461
vn -1.000000 0.000000 0.000000
vn -1.000000 0.000000 0.000000
vn -1.000000 0.000000 0.000000
vn -1.000000 0.000000 0.000000
vn 0.000000 -1.000000 0.000000
vn 0.000000 -1.000000 0.000000
vn 0.000000 -1.000000 0.000000
vn 0.000000 -1.000000 0.000000
vn 1.000000 0.000000 0.000000
vn 1.000000 0.000000 0.000000
vn 1.000000 0.000000 0.000000
vn 1.000000 0.000000 0.000000
vn 1.000000 0.000000 0.000000
vn 1.000000 0.000000 0.000000
vn 1.000000 0.000000 0.000000
vn 1.000000 0.000000 0.000000
vn 0.000000 -1.000000 0.000000
vn 0.000000 -1.000000 0.000000
vn 0.000000 -1.000000 0.000000
vn 0.000000 -1.000000 0.000000
vn -1.000000 0.000000 0.000000
vn -1.000000 0.000000 0.000000
vn -1.000000 0.000000 0.000000
vn -1.000000 0.000000 0.000000
vn 0.000000 1.000000 0.000000
vn 0.000000 1.000000 0.000000
vn 0.000000 1.000000 0.000000
vn 0.000000 1.000000 0.000000
vn 1.000000 0.000000 0.000000
vn 1.000000 0.000000 0.000000
vn 1.000000 0.000000 0.000000
vn 1.000000 0.000000 0.000000
vn 0.000000 -1.000000 0.000000
vn 0.000000 -1.000000 0.000000
vn 0.000000 -1.000000 0.000000
vn 0.000000 -1.000000 0.000000
vn -1.000000 0.000000 0.000000
vn -1.000000 0.000000 0.000000
vn -1.000000 0.000000 0.000000
vn -1.000000 0.000000 0.000000
vn 0.000000 1.000000 0.000000
vn 0.004620 0.998520 -0.054192
vn 0.009632 0.998270 -0.057997
vn 0.003425 0.996017 -0.089103
vn -0.003425 0.996017 -0.089103
vn -0.009631 0.998270 -0.058000
vn -0.004620 0.998520 -0.054198
vn 0.000000 1.000000 0.000000
s off
f 1/23/1 2/2/2 4/22/3 3/17/4
f 13/29/5 14/136/6 19/131/7 20/108/8
f 5/5/9 6/16/10 8/8/11 7/20/12
f 23/38/13 24/79/14 2/10/15 1/9/16
f 2/21/17 24/40/18 17/34/19 4/4/20
f 22/104/21 23/77/22 1/1/23 3/24/24
f 3/3/25 4/143/26 10/138/27 9/140/28
f 4/15/29 17/33/30 18/112/31 10/137/32
f 6/128/33 5/18/34 12/118/35 11/126/36
f 21/129/37 22/103/38 3/144/39 9/141/40
f 9/25/41 10/139/42 14/135/43 13/133/44
f 10/26/45 18/132/46 19/110/47 14/30/48
f 11/125/49 12/119/50 16/121/51 15/123/52
f 20/130/53 21/106/54 9/142/55 13/134/56
f 26/43/57 27/44/58 28/45/59 29/46/60 30/94/61 36/60/62 33/81/63 25/41/64
f 30/47/65 31/99/66 35/86/67 36/83/68
f 31/100/69 32/97/70 34/88/71 35/85/72
f 33/54/73 34/87/74 32/98/75 25/96/76
f 26/116/77 25/95/78 6/6/79 11/127/80
f 27/115/81 26/89/82 11/27/83 15/124/84
f 28/114/85 27/90/86 15/31/87 16/122/88
f 12/120/89 29/113/90 28/91/91 16/32/92
f 5/117/93 30/48/94 29/92/95 12/28/96
f 7/13/97 31/49/98 30/93/99 5/14/100
f 7/7/101 8/19/102 32/51/103 31/50/104
f 25/42/105 32/52/106 8/11/107 6/12/108
f 37/62/109 38/75/110 34/56/111 33/82/112
f 35/58/113 34/55/114 38/76/115 39/73/116
f 36/59/117 35/57/118 39/74/119 40/71/120
f 36/84/121 40/72/122 37/61/123 33/53/124
f 17/102/125 24/80/126 38/64/127 37/69/128
f 39/66/129 38/63/130 24/39/131 23/78/132
f 40/67/133 39/65/134 23/37/135 22/35/136
f 40/68/137 22/36/138 21/105/139 20/107/140 19/109/141 18/111/142 17/101/143 37/70/144
