# This file uses centimeters as units for non-parametric coordinates.

v -0.363289 0.002434 0.319139
v 0.146717 0.002434 0.319139
v -0.363289 0.280862 0.319139
v 0.146717 0.280862 0.319139
v -0.363289 0.280862 -0.301395
v 0.146717 0.280862 -0.301395
v -0.363289 0.002434 -0.301395
v 0.146717 0.002434 -0.301395
v -0.332258 0.280862 0.292603
v 0.115688 0.280862 0.292603
v 0.115688 0.280862 -0.274861
v -0.332258 0.280862 -0.274861
v -0.332258 0.052862 0.292603
v 0.115688 0.052862 0.292603
v 0.115688 0.052862 -0.274861
v -0.332258 0.052862 -0.274861
v 0.027826 0.459064 0.326829
v 0.313480 0.002171 0.328689
v 0.073853 0.487842 0.326929
v 0.359505 0.030948 0.328789
v 0.077635 0.485670 -0.328689
v 0.363289 0.028777 -0.326830
v 0.031609 0.456892 -0.328789
v 0.317262 0.000000 -0.326930
v 0.041264 0.441319 -0.306273
v 0.307351 0.015721 -0.304539
v 0.303827 0.017743 0.306171
v 0.037739 0.443343 0.304439
v 0.075113 0.462484 -0.306199
v 0.341202 0.036887 -0.304466
v 0.337678 0.038908 0.306246
v 0.071590 0.464508 0.304513
vt 0.234590 0.199451
vt 0.299417 0.199451
vt 0.234591 0.199451
vt 0.299586 0.199451
vt 0.234591 0.199451
vt 0.267417 0.199451
vt 0.234591 0.199451
vt 0.299417 0.199451
vt 0.267417 0.199451
vt 0.299417 0.199451
vt 0.267417 0.199451
vt 0.234591 0.199451
vt 0.267417 0.199451
vt 0.234590 0.199451
vt 0.267417 0.199451
vt 0.299417 0.199451
vt 0.299587 0.199451
vt 0.267417 0.199451
vt 0.299586 0.199451
vt 0.234590 0.199451
vt 0.267417 0.199451
vt 0.299587 0.199451
vt 0.267417 0.199451
vt 0.234590 0.199451
vt 0.332137 0.479233
vt 0.332137 0.479233
vt 0.332137 0.479233
vt 0.332137 0.479233
vt 0.332137 0.479233
vt 0.332137 0.479233
vt 0.332137 0.479233
vt 0.332137 0.479233
vt 0.299586 0.199451
vt 0.299586 0.199451
vt 0.299586 0.199451
vt 0.299586 0.199451
vt 0.299587 0.199451
vt 0.299587 0.199451
vt 0.299586 0.199451
vt 0.299587 0.199451
vt 0.299587 0.199451
vt 0.299587 0.199451
vt 0.299587 0.199451
vt 0.299586 0.199451
vt 0.332137 0.479233
vt 0.332137 0.479233
vt 0.332137 0.479233
vt 0.332137 0.479233
vt 0.332137 0.479233
vt 0.332137 0.479233
vt 0.332137 0.479233
vt 0.332137 0.479233
vt 0.332137 0.479233
vt 0.332137 0.479233
vt 0.332137 0.479233
vt 0.332137 0.479233
vt 0.230991 0.198676
vt 0.230991 0.198676
vt 0.230991 0.198676
vt 0.230991 0.198676
vt 0.263160 0.198676
vt 0.263161 0.198676
vt 0.263161 0.198676
vt 0.263160 0.198676
vt 0.230991 0.198676
vt 0.230991 0.198676
vt 0.230991 0.198676
vt 0.230991 0.198676
vt 0.307167 0.471483
vt 0.307167 0.471483
vt 0.307167 0.471483
vt 0.307167 0.471483
vt 0.198165 0.198676
vt 0.198165 0.198676
vt 0.198165 0.198676
vt 0.198165 0.198676
vt 0.198164 0.198676
vt 0.198164 0.198676
vt 0.198164 0.198676
vt 0.198164 0.198676
vt 0.165338 0.198676
vt 0.165338 0.198676
vt 0.165338 0.198676
vt 0.165338 0.198676
vt 0.165338 0.198676
vt 0.165338 0.198676
vt 0.165338 0.198676
vt 0.165338 0.198676
vt 0.259311 0.479111
vt 0.259311 0.479111
vt 0.259311 0.479111
vt 0.259311 0.479111
vt 0.259311 0.479111
vt 0.259311 0.479112
vt 0.259311 0.479111
vt 0.259311 0.479111
vn 0.000000 0.000000 1.000000
vn 0.000000 0.000000 1.000000
vn 0.000000 0.000000 1.000000
vn 0.000000 0.000000 1.000000
vn 0.000000 1.000000 0.000000
vn 0.000000 1.000000 0.000000
vn 0.000000 1.000000 0.000000
vn 0.000000 1.000000 0.000000
vn 0.000000 0.000000 -1.000000
vn 0.000000 0.000000 -1.000000
vn 0.000000 0.000000 -1.000000
vn 0.000000 0.000000 -1.000000
vn 0.000000 -1.000000 0.000000
vn 0.000000 -1.000000 0.000000
vn 0.000000 -1.000000 0.000000
vn 0.000000 -1.000000 0.000000
vn 1.000000 0.000000 0.000000
vn 1.000000 0.000000 0.000000
vn 1.000000 0.000000 0.000000
vn 1.000000 0.000000 0.000000
vn -1.000000 0.000000 0.000000
vn -1.000000 0.000000 0.000000
vn -1.000000 0.000000 0.000000
vn -1.000000 0.000000 0.000000
vn 0.000000 1.000000 0.000000
vn 0.000000 1.000000 0.000000
vn 0.000000 1.000000 0.000000
vn 0.000000 1.000000 0.000000
vn 0.000000 1.000000 0.000000
vn 0.000000 1.000000 0.000000
vn 0.000000 1.000000 0.000000
vn 0.000000 1.000000 0.000000
vn 0.000000 1.000000 -0.000000
vn 0.000000 1.000000 -0.000000
vn 0.000000 1.000000 -0.000000
vn 0.000000 1.000000 -0.000000
vn 0.000000 1.000000 0.000000
vn 0.000000 1.000000 0.000000
vn 0.000000 1.000000 0.000000
vn 0.000000 1.000000 0.000000
vn 0.000000 0.000000 -1.000000
vn 0.000000 0.000000 -1.000000
vn 0.000000 0.000000 -1.000000
vn 0.000000 0.000000 -1.000000
vn -1.000000 0.000000 0.000000
vn -1.000000 0.000000 0.000000
vn -1.000000 0.000000 0.000000
vn -1.000000 0.000000 0.000000
vn 0.000000 0.000000 1.000000
vn 0.000000 0.000000 1.000000
vn 0.000000 0.000000 1.000000
vn 0.000000 0.000000 1.000000
vn 1.000000 0.000000 0.000000
vn 1.000000 0.000000 0.000000
vn 1.000000 0.000000 0.000000
vn 1.000000 0.000000 0.000000
vn -0.003394 0.001948 0.999992
vn -0.003394 0.001948 0.999992
vn -0.003394 0.001948 0.999992
vn -0.003394 0.001948 0.999992
vn 0.847909 0.530132 0.003137
vn 0.847909 0.530132 0.003137
vn 0.847909 0.530132 0.003137
vn 0.847909 0.530132 0.003137
vn 0.003393 -0.001947 -0.999992
vn 0.003393 -0.001947 -0.999992
vn 0.003393 -0.001947 -0.999992
vn 0.003393 -0.001947 -0.999992
vn -0.847909 -0.530133 -0.003136
vn -0.847909 -0.530133 -0.003136
vn -0.847909 -0.530133 -0.003136
vn -0.847909 -0.530133 -0.003136
vn 0.530124 -0.847900 0.005867
vn 0.530123 -0.847900 0.005867
vn 0.530124 -0.847900 0.005867
vn 0.530124 -0.847900 0.005867
vn -0.530135 0.847893 -0.005867
vn -0.530135 0.847893 -0.005867
vn -0.530135 0.847893 -0.005867
vn -0.530135 0.847893 -0.005867
vn -0.847909 -0.530132 -0.003069
vn -0.847909 -0.530132 -0.003069
vn -0.847909 -0.530132 -0.003069
vn -0.847909 -0.530132 -0.003069
vn -0.847917 -0.530120 -0.003136
vn -0.847917 -0.530120 -0.003136
vn -0.847917 -0.530120 -0.003136
vn -0.847917 -0.530120 -0.003136
vn -0.847909 -0.530133 -0.003136
vn -0.847909 -0.530133 -0.003136
vn -0.847909 -0.530133 -0.003136
vn -0.847909 -0.530133 -0.003136
vn -0.847874 -0.530189 -0.003136
vn -0.847874 -0.530189 -0.003136
vn -0.847874 -0.530189 -0.003136
vn -0.847874 -0.530189 -0.003136
vn -0.003380 0.001959 0.999992
vn -0.003380 0.001959 0.999992
vn -0.003380 0.001959 0.999992
vn -0.003380 0.001959 0.999992
vn -0.530146 0.847886 -0.005866
vn -0.530146 0.847886 -0.005866
vn -0.530146 0.847886 -0.005866
vn -0.530146 0.847886 -0.005866
vn 0.003410 -0.001939 -0.999992
vn 0.003410 -0.001939 -0.999992
vn 0.003410 -0.001939 -0.999992
vn 0.003410 -0.001939 -0.999992
vn 0.530129 -0.847897 0.005868
vn 0.530129 -0.847897 0.005868
vn 0.530129 -0.847897 0.005868
vn 0.530129 -0.847897 0.005868
s off
f 1/15/1 2/11/2 4/21/3 3/23/4
f 13/29/5 14/53/6 15/50/7 16/48/8
f 5/6/9 6/18/10 8/9/11 7/13/12
f 7/8/13 8/10/14 2/2/15 1/16/16
f 2/12/17 8/7/18 6/5/19 4/3/20
f 7/14/21 1/1/22 3/24/23 5/20/24
f 3/4/25 4/43/26 10/41/27 9/33/28
f 4/22/29 6/42/30 11/38/31 10/40/32
f 6/17/33 5/39/34 12/36/35 11/37/36
f 5/19/37 3/44/38 9/34/39 12/35/40
f 9/25/41 10/55/42 14/52/43 13/45/44
f 10/26/45 11/54/46 15/49/47 14/30/48
f 11/27/49 12/51/50 16/47/51 15/31/52
f 12/28/53 9/56/54 13/46/55 16/32/56
f 17/57/57 18/58/58 20/59/59 19/60/60
f 19/61/61 20/62/62 22/63/63 21/64/64
f 21/65/65 22/66/66 24/67/67 23/68/68
f 29/69/69 30/70/70 31/71/71 32/72/72
f 18/73/73 24/74/74 22/75/75 20/76/76
f 23/77/77 17/78/78 19/79/79 21/80/80
f 23/81/81 24/82/82 26/83/83 25/84/84
f 24/82/85 18/85/86 27/86/87 26/83/88
f 18/85/89 17/87/90 28/88/91 27/86/92
f 17/87/93 23/81/94 25/84/95 28/88/96
f 25/89/97 26/90/98 30/91/99 29/92/100
f 26/90/101 27/93/102 31/94/103 30/91/104
f 27/93/105 28/95/106 32/96/107 31/94/108
f 28/95/109 25/89/110 29/92/111 32/96/112
