# This file uses centimeters as units for non-parametric coordinates.

v -0.626941 0.000000 0.114946
v 0.626941 0.000000 0.114946
v -0.626941 1.957195 0.114946
v 0.626941 1.957195 0.114946
v -0.626941 1.957195 -0.000000
v 0.626941 1.957195 -0.000000
v -0.626941 0.000000 -0.000000
v 0.626941 0.000000 -0.000000
v -0.543327 0.070210 0.114946
v 0.543327 0.070210 0.114946
v 0.543327 1.886985 0.114946
v -0.543327 1.886985 0.114946
vt 0.172755 0.059381
vt 0.197482 0.059381
vt 0.232805 0.059381
vt 0.172755 0.059381
vt 0.232805 0.059381
vt 0.138608 0.059381
vt 0.138608 0.059381
vt 0.138608 0.059381
vt 0.172755 0.059381
vt 0.172755 0.059381
vt 0.172755 0.059381
vt 0.172755 0.059381
vt 0.232805 0.059381
vt 0.197482 0.059381
vt 0.232805 0.059381
vt 0.138608 0.059381
vt 0.172755 0.059381
vt 0.197482 0.059381
vt 0.197482 0.059381
vt 0.172755 0.059381
vt 0.197482 0.059381
vt 0.197482 0.059381
vt 0.197482 0.059381
vt 0.197482 0.059381
vt 0.501721 0.002474
vt 0.598444 0.002474
vt 0.598444 0.142699
vt 0.501721 0.142699
vn 0.000000 0.000000 1.000000
vn 0.000000 0.000000 1.000000
vn 0.000000 0.000000 1.000000
vn 0.000000 0.000000 1.000000
vn 0.000000 1.000000 0.000000
vn 0.000000 1.000000 0.000000
vn 0.000000 1.000000 0.000000
vn 0.000000 1.000000 0.000000
vn 0.000000 -1.000000 0.000000
vn 0.000000 -1.000000 0.000000
vn 0.000000 -1.000000 0.000000
vn 0.000000 -1.000000 0.000000
vn 1.000000 0.000000 0.000000
vn 1.000000 0.000000 0.000000
vn 1.000000 0.000000 0.000000
vn 1.000000 0.000000 0.000000
vn -1.000000 0.000000 0.000000
vn -1.000000 0.000000 0.000000
vn -1.000000 0.000000 0.000000
vn -1.000000 0.000000 0.000000
vn 0.000000 0.000000 1.000000
vn 0.000000 0.000000 1.000000
vn 0.000000 0.000000 1.000000
vn 0.000000 0.000000 1.000000
vn -0.000000 0.000000 1.000000
vn -0.000000 0.000000 1.000000
vn -0.000000 0.000000 1.000000
vn -0.000000 0.000000 1.000000
vn 0.000000 0.000000 1.000000
vn 0.000000 0.000000 1.000000
vn 0.000000 0.000000 1.000000
vn 0.000000 0.000000 1.000000
vn 0.000000 0.000000 1.000000
vn 0.000000 0.000000 1.000000
vn 0.000000 0.000000 1.000000
vn 0.000000 0.000000 1.000000
s off
f 9/25/1 10/26/2 11/27/3 12/28/4
f 3/3/5 4/13/6 6/5/7 5/15/8
f 7/6/9 8/16/10 2/8/11 1/7/12
f 2/17/13 8/9/14 6/10/15 4/4/16
f 7/11/17 1/1/18 3/20/19 5/12/20
f 1/19/21 2/2/22 10/22/23 9/21/24
f 2/2/25 4/18/26 11/23/27 10/22/28
f 4/18/29 3/14/30 12/24/31 11/23/32
f 3/14/33 1/19/34 9/21/35 12/24/36
