# This file uses centimeters as units for non-parametric coordinates.

v -0.220168 0.000000 0.515431
v 0.221227 0.000000 0.515431
v -0.220168 0.099762 0.515431
v 0.221227 0.099762 0.515431
v -0.220168 0.099762 -0.079895
v 0.221227 0.099762 -0.079895
v -0.220168 0.000000 -0.079895
v 0.221227 0.000000 -0.079895
v -0.168214 0.099762 0.477180
v 0.169274 0.099762 0.477180
v 0.169274 0.099762 -0.041644
v -0.168214 0.099762 -0.041644
v -0.168214 0.070768 0.477180
v 0.169274 0.070768 0.477180
v 0.169274 0.070768 -0.041644
v -0.168214 0.070768 -0.041644
v -0.116780 0.070768 0.398109
v 0.117840 0.070768 0.398109
v 0.117840 0.070768 0.037426
v -0.116780 0.070768 0.037426
v -0.082804 0.070768 0.363560
v 0.083863 0.070768 0.363560
v 0.083863 0.070768 0.071976
v -0.082804 0.070768 0.071976
v -0.116780 0.093650 0.398109
v 0.117840 0.093650 0.398109
v 0.083863 0.093650 0.363560
v -0.082804 0.093650 0.363560
v 0.117840 0.093650 0.037426
v 0.083863 0.093650 0.071976
v -0.116780 0.093650 0.037426
v -0.082804 0.093650 0.071976
v -0.221227 0.039352 -0.155349
v 0.220167 0.039352 -0.155349
v -0.221227 0.099693 -0.075905
v 0.220167 0.099693 -0.075905
v -0.221227 0.573777 -0.435987
v 0.220167 0.573777 -0.435987
v -0.221227 0.513436 -0.515431
v 0.220167 0.513436 -0.515431
v -0.169274 0.130155 -0.099041
v 0.168214 0.130155 -0.099041
v 0.168214 0.543315 -0.412849
v -0.169274 0.543315 -0.412849
v -0.169274 0.112617 -0.122131
v 0.168214 0.112617 -0.122131
v 0.168214 0.525778 -0.435939
v -0.169274 0.525778 -0.435939
vt 0.202414 0.062713
vt 0.202414 0.062713
vt 0.202414 0.062713
vt 0.202414 0.062713
vt 0.332137 0.445254
vt 0.332137 0.445254
vt 0.332137 0.445254
vt 0.332137 0.445254
vt 0.202414 0.062713
vt 0.202414 0.062713
vt 0.202414 0.062713
vt 0.202414 0.062713
vt 0.136761 0.062713
vt 0.136762 0.062713
vt 0.136762 0.062713
vt 0.136761 0.062713
vt 0.169588 0.062713
vt 0.169588 0.062713
vt 0.169588 0.062713
vt 0.169588 0.062713
vt 0.169588 0.062713
vt 0.169588 0.062713
vt 0.169588 0.062713
vt 0.169588 0.062713
vt 0.234584 0.062713
vt 0.234584 0.062713
vt 0.234584 0.062713
vt 0.234584 0.062713
vt 0.234584 0.062713
vt 0.234584 0.062713
vt 0.234584 0.062713
vt 0.234584 0.062713
vt 0.172105 0.062713
vt 0.172106 0.062713
vt 0.172106 0.062713
vt 0.172105 0.062713
vt 0.143607 0.062713
vt 0.143607 0.062713
vt 0.143607 0.062713
vt 0.143607 0.062713
vt 0.172106 0.062713
vt 0.172105 0.062713
vt 0.172105 0.062713
vt 0.172106 0.062713
vt 0.143607 0.062713
vt 0.143607 0.062713
vt 0.143607 0.062713
vt 0.143607 0.062713
vt 0.230199 0.221648
vt 0.204989 0.221648
vt 0.230199 0.221648
vt 0.204989 0.221648
vt 0.204989 0.221648
vt 0.230199 0.221648
vt 0.204989 0.221648
vt 0.230199 0.221648
vt 0.291581 0.221648
vt 0.204989 0.221648
vt 0.291581 0.221648
vt 0.204989 0.221648
vt 0.230199 0.221648
vt 0.291581 0.221648
vt 0.204989 0.221648
vt 0.291581 0.221648
vt 0.230199 0.221648
vt 0.291581 0.221648
vt 0.291581 0.221648
vt 0.291581 0.221648
vt 0.230199 0.221648
vt 0.204989 0.221648
vt 0.291581 0.221648
vt 0.230199 0.221648
vt 0.204989 0.221648
vt 0.230199 0.221648
vt 0.291581 0.221648
vt 0.291581 0.221648
vt 0.291581 0.221648
vt 0.204989 0.221648
vt 0.230199 0.221648
vt 0.332137 0.445254
vt 0.204989 0.221648
vt 0.204989 0.221648
vt 0.291581 0.221648
vt 0.291581 0.221648
vt 0.332137 0.445254
vt 0.230199 0.221648
vt 0.291581 0.221648
vt 0.230199 0.221648
vt 0.204989 0.221648
vt 0.332137 0.445254
vt 0.230199 0.221648
vt 0.230199 0.221648
vt 0.291581 0.221648
vt 0.291581 0.221648
vt 0.332137 0.445254
vt 0.204989 0.221648
vt 0.332137 0.445254
vt 0.230199 0.221648
vt 0.332137 0.445254
vt 0.204989 0.221648
vt 0.332137 0.445254
vt 0.230199 0.221648
vt 0.332137 0.445254
vt 0.204989 0.221648
vt 0.202414 0.062713
vt 0.202414 0.062713
vt 0.202414 0.062713
vt 0.202414 0.062713
vt 0.332137 0.445254
vt 0.332137 0.445254
vt 0.332137 0.445254
vt 0.332137 0.445254
vt 0.202414 0.062713
vt 0.202414 0.062713
vt 0.202414 0.062713
vt 0.202414 0.062713
vt 0.136761 0.062713
vt 0.136762 0.062713
vt 0.136762 0.062713
vt 0.136761 0.062713
vt 0.169588 0.062713
vt 0.169588 0.062713
vt 0.169588 0.062713
vt 0.169588 0.062713
vt 0.169588 0.062713
vt 0.169588 0.062713
vt 0.169588 0.062713
vt 0.169588 0.062713
vt 0.234584 0.062713
vt 0.234584 0.062713
vt 0.234584 0.062713
vt 0.234584 0.062713
vt 0.234584 0.062713
vt 0.234584 0.062713
vt 0.234584 0.062713
vt 0.234584 0.062713
vt 0.172105 0.062713
vt 0.172106 0.062713
vt 0.172106 0.062713
vt 0.172105 0.062713
vt 0.143607 0.062713
vt 0.143607 0.062713
vt 0.143607 0.062713
vt 0.143607 0.062713
vt 0.172106 0.062713
vt 0.172105 0.062713
vt 0.172105 0.062713
vt 0.172106 0.062713
vt 0.143607 0.062713
vt 0.143607 0.062713
vt 0.143607 0.062713
vt 0.143607 0.062713
vn 0.000000 0.000000 1.000000
vn 0.000000 0.000000 1.000000
vn 0.000000 0.000000 1.000000
vn 0.000000 0.000000 1.000000
vn 0.000000 1.000000 0.000000
vn 0.000000 1.000000 0.000000
vn 0.000000 1.000000 0.000000
vn 0.000000 1.000000 0.000000
vn 0.000000 0.000000 -1.000000
vn 0.000000 0.000000 -1.000000
vn 0.000000 0.000000 -1.000000
vn 0.000000 0.000000 -1.000000
vn 0.000000 -1.000000 0.000000
vn 0.000000 -1.000000 0.000000
vn 0.000000 -1.000000 0.000000
vn 0.000000 -1.000000 0.000000
vn 1.000000 0.000000 0.000000
vn 1.000000 0.000000 0.000000
vn 1.000000 0.000000 0.000000
vn 1.000000 0.000000 0.000000
vn -1.000000 0.000000 0.000000
vn -1.000000 0.000000 0.000000
vn -1.000000 0.000000 0.000000
vn -1.000000 0.000000 0.000000
vn 0.000000 1.000000 0.000000
vn 0.000000 1.000000 0.000000
vn 0.000000 1.000000 0.000000
vn 0.000000 1.000000 0.000000
vn 0.000000 1.000000 0.000000
vn 0.000000 1.000000 0.000000
vn 0.000000 1.000000 0.000000
vn 0.000000 1.000000 0.000000
vn 0.000000 1.000000 -0.000000
vn 0.000000 1.000000 -0.000000
vn 0.000000 1.000000 -0.000000
vn 0.000000 1.000000 -0.000000
vn 0.000000 1.000000 0.000000
vn 0.000000 1.000000 0.000000
vn 0.000000 1.000000 0.000000
vn 0.000000 1.000000 0.000000
vn 0.000000 0.000000 -1.000000
vn 0.000000 0.000000 -1.000000
vn 0.000000 0.000000 -1.000000
vn 0.000000 0.000000 -1.000000
vn -1.000000 0.000000 0.000000
vn -1.000000 0.000000 0.000000
vn -1.000000 0.000000 0.000000
vn -1.000000 0.000000 0.000000
vn 0.000000 0.000000 1.000000
vn 0.000000 0.000000 1.000000
vn 0.000000 0.000000 1.000000
vn 0.000000 0.000000 1.000000
vn 1.000000 0.000000 0.000000
vn 1.000000 0.000000 0.000000
vn 1.000000 0.000000 0.000000
vn 1.000000 0.000000 0.000000
vn 0.000000 1.000000 0.000000
vn 0.000000 1.000000 0.000000
vn 0.000000 1.000000 0.000000
vn 0.000000 1.000000 0.000000
vn 0.000000 1.000000 0.000000
vn 0.000000 1.000000 0.000000
vn 0.000000 1.000000 0.000000
vn 0.000000 1.000000 0.000000
vn 0.000000 1.000000 -0.000000
vn 0.000000 1.000000 -0.000000
vn 0.000000 1.000000 -0.000000
vn 0.000000 1.000000 -0.000000
vn 0.000000 1.000000 0.000000
vn 0.000000 1.000000 0.000000
vn 0.000000 1.000000 0.000000
vn 0.000000 1.000000 0.000000
vn 0.000000 1.000000 -0.000000
vn 0.000000 1.000000 -0.000000
vn 0.000000 1.000000 -0.000000
vn 0.000000 1.000000 -0.000000
vn 0.000000 1.000000 0.000000
vn 0.000000 1.000000 0.000000
vn 0.000000 1.000000 0.000000
vn 0.000000 1.000000 0.000000
vn 0.000000 1.000000 0.000000
vn 0.000000 1.000000 0.000000
vn 0.000000 1.000000 0.000000
vn 0.000000 1.000000 0.000000
vn 0.000000 1.000000 0.000000
vn 0.000000 1.000000 0.000000
vn 0.000000 1.000000 0.000000
vn 0.000000 1.000000 0.000000
vn 0.000000 0.000000 1.000000
vn 0.000000 0.000000 1.000000
vn 0.000000 0.000000 1.000000
vn 0.000000 0.000000 1.000000
vn 0.000000 0.000000 -1.000000
vn 0.000000 0.000000 -1.000000
vn 0.000000 0.000000 -1.000000
vn 0.000000 0.000000 -1.000000
vn 1.000000 0.000000 0.000000
vn 1.000000 0.000000 0.000000
vn 1.000000 0.000000 0.000000
vn 1.000000 0.000000 0.000000
vn -1.000000 0.000000 0.000000
vn -1.000000 0.000000 0.000000
vn -1.000000 0.000000 0.000000
vn -1.000000 0.000000 0.000000
vn 0.000000 0.000000 -1.000000
vn 0.000000 0.000000 -1.000000
vn 0.000000 0.000000 -1.000000
vn 0.000000 0.000000 -1.000000
vn 0.000000 0.000000 1.000000
vn 0.000000 0.000000 1.000000
vn 0.000000 0.000000 1.000000
vn 0.000000 0.000000 1.000000
vn -1.000000 0.000000 0.000000
vn -1.000000 0.000000 0.000000
vn -1.000000 0.000000 0.000000
vn -1.000000 0.000000 0.000000
vn 1.000000 0.000000 0.000000
vn 1.000000 0.000000 0.000000
vn 1.000000 0.000000 0.000000
vn 1.000000 0.000000 0.000000
vn 0.000000 -0.796340 0.604849
vn 0.000000 -0.796340 0.604849
vn 0.000000 -0.796340 0.604849
vn 0.000000 -0.796340 0.604849
vn 0.000000 0.604847 0.796342
vn 0.000000 0.604847 0.796342
vn 0.000000 0.604847 0.796342
vn 0.000000 0.604847 0.796342
vn 0.000000 0.796342 -0.604847
vn 0.000000 0.796342 -0.604847
vn 0.000000 0.796342 -0.604847
vn 0.000000 0.796342 -0.604847
vn 0.000000 -0.604847 -0.796341
vn 0.000000 -0.604847 -0.796341
vn 0.000000 -0.604847 -0.796341
vn 0.000000 -0.604847 -0.796341
vn 1.000000 0.000000 0.000000
vn 1.000000 0.000000 0.000000
vn 1.000000 0.000000 0.000000
vn 1.000000 0.000000 0.000000
vn -1.000000 0.000000 0.000000
vn -1.000000 0.000000 0.000000
vn -1.000000 0.000000 0.000000
vn -1.000000 0.000000 0.000000
vn 0.000000 0.604838 0.796349
vn 0.000000 0.604838 0.796349
vn 0.000000 0.604838 0.796349
vn 0.000000 0.604838 0.796349
vn 0.000007 0.604847 0.796342
vn 0.000007 0.604847 0.796342
vn 0.000007 0.604847 0.796342
vn 0.000007 0.604847 0.796342
vn 0.000000 0.604854 0.796337
vn 0.000000 0.604854 0.796337
vn 0.000000 0.604853 0.796337
vn 0.000000 0.604854 0.796337
vn -0.000007 0.604847 0.796342
vn -0.000007 0.604847 0.796342
vn -0.000007 0.604847 0.796342
vn -0.000007 0.604847 0.796342
vn 0.000000 0.796348 -0.604839
vn 0.000000 0.796348 -0.604839
vn 0.000000 0.796348 -0.604839
vn 0.000000 0.796348 -0.604839
vn -1.000000 0.000000 0.000000
vn -1.000000 0.000000 0.000000
vn -1.000000 0.000000 0.000000
vn -1.000000 0.000000 0.000000
vn 0.000000 -0.796349 0.604838
vn 0.000000 -0.796349 0.604838
vn 0.000000 -0.796349 0.604838
vn 0.000000 -0.796349 0.604838
vn 1.000000 -0.000000 0.000000
vn 1.000000 -0.000000 0.000000
vn 1.000000 -0.000000 0.000000
vn 1.000000 -0.000000 0.000000
s off
f 1/1/1 2/2/2 4/3/3 3/4/4
f 21/97/5 22/99/6 23/90/7 24/80/8
f 5/9/9 6/10/10 8/11/11 7/12/12
f 7/13/13 8/14/14 2/15/15 1/16/16
f 2/17/17 8/18/18 6/19/19 4/20/20
f 7/21/21 1/22/22 3/23/23 5/24/24
f 3/25/25 4/26/26 10/27/27 9/28/28
f 4/26/29 6/29/30 11/30/31 10/27/32
f 6/29/33 5/31/34 12/32/35 11/30/36
f 5/31/37 3/25/38 9/28/39 12/32/40
f 9/33/41 10/34/42 14/35/43 13/36/44
f 10/37/45 11/38/46 15/39/47 14/40/48
f 11/41/49 12/42/50 16/43/51 15/44/52
f 12/45/53 9/46/54 13/47/55 16/48/56
f 13/5/57 14/6/58 18/101/59 17/103/60
f 14/6/61 15/7/62 19/95/63 18/101/64
f 15/7/65 16/8/66 20/85/67 19/95/68
f 16/8/69 13/5/70 17/103/71 20/85/72
f 25/71/73 26/93/74 27/87/75 28/66/76
f 26/94/77 29/83/78 30/77/79 27/59/80
f 29/84/81 31/75/82 32/68/83 30/62/84
f 31/76/85 25/57/86 28/67/87 32/64/88
f 17/49/89 18/102/90 26/92/91 25/72/92
f 22/54/93 21/98/94 28/65/95 27/88/96
f 18/50/97 19/96/98 29/82/99 26/58/100
f 23/55/101 22/100/102 27/89/103 30/78/104
f 19/51/105 20/86/106 31/74/107 29/61/108
f 24/56/109 23/91/110 30/79/111 32/69/112
f 20/52/113 17/104/114 25/73/115 31/63/116
f 21/53/117 24/81/118 32/70/119 28/60/120
f 33/105/121 34/106/122 36/107/123 35/108/124
f 45/109/125 46/110/126 47/111/127 48/112/128
f 37/113/129 38/114/130 40/115/131 39/116/132
f 39/117/133 40/118/134 34/119/135 33/120/136
f 34/121/137 40/122/138 38/123/139 36/124/140
f 39/125/141 33/126/142 35/127/143 37/128/144
f 35/129/145 36/130/146 42/131/147 41/132/148
f 36/130/149 38/133/150 43/134/151 42/131/152
f 38/133/153 37/135/154 44/136/155 43/134/156
f 37/135/157 35/129/158 41/132/159 44/136/160
f 41/137/161 42/138/162 46/139/163 45/140/164
f 42/141/165 43/142/166 47/143/167 46/144/168
f 43/145/169 44/146/170 48/147/171 47/148/172
f 44/149/173 41/150/174 45/151/175 48/152/176
