# This file uses centimeters as units for non-parametric coordinates.

v -0.500000 0.000000 0.030415
v 0.500000 0.000000 0.030415
v -0.500000 1.000000 0.030415
v 0.500000 1.000000 0.030415
v -0.500000 1.000000 -0.030415
v 0.500000 1.000000 -0.030415
v -0.500000 0.000000 -0.030415
v 0.500000 0.000000 -0.030415
v -0.392416 0.107584 0.030415
v 0.392416 0.107584 0.030415
v 0.392416 0.892416 0.030415
v -0.392416 0.892416 0.030415
v -0.392416 0.713693 0.030415
v -0.089504 0.892416 0.030415
v -0.134881 0.784431 0.030415
v 0.030247 0.107584 0.030415
v 0.082100 0.611386 0.030415
v -0.110497 0.328392 0.030415
v 0.250813 0.577592 0.030415
v 0.392416 0.440821 0.030415
v -0.392416 0.378440 0.030415
vt 0.362728 0.198505
vt 0.387455 0.198505
vt 0.422779 0.198505
vt 0.362728 0.198505
vt 0.422779 0.198505
vt 0.328582 0.198505
vt 0.328582 0.198505
vt 0.328582 0.198505
vt 0.362728 0.198505
vt 0.362728 0.198505
vt 0.362728 0.198505
vt 0.362728 0.198505
vt 0.422779 0.198505
vt 0.387455 0.198505
vt 0.422779 0.198505
vt 0.328582 0.198505
vt 0.362728 0.198505
vt 0.387455 0.198505
vt 0.387455 0.198505
vt 0.362728 0.198505
vt 0.387455 0.351743
vt 0.387455 0.155491
vt 0.387455 0.309625
vt 0.387455 0.198505
vt 0.387455 0.198505
vt 0.387455 0.223597
vt 0.387455 0.181479
vt 0.387455 0.155491
vt 0.387455 0.155491
vt 0.387455 0.181479
vt 0.387455 0.155491
vt 0.387455 0.309625
vt 0.387455 0.351744
vt 0.387455 0.223597
vt 0.387455 0.198505
vt 0.387455 0.223597
vt 0.387455 0.223597
vt 0.387455 0.246000
vt 0.387455 0.246000
vt 0.387455 0.246000
vt 0.387455 0.246000
vt 0.387455 0.246000
vt 0.387455 0.155491
vt 0.387455 0.181479
vt 0.387455 0.181479
vt 0.387455 0.181479
vt 0.387455 0.309625
vt 0.387455 0.155491
vt 0.387455 0.351744
vt 0.387455 0.198505
vt 0.387455 0.198505
vt 0.387455 0.198505
vt 0.387455 0.351743
vt 0.387455 0.198505
vt 0.387455 0.198505
vt 0.387455 0.198505
vn 0.000000 0.000000 1.000000
vn 0.000000 0.000000 1.000000
vn 0.000000 0.000000 1.000000
vn 0.000000 0.000000 1.000000
vn 0.000000 1.000000 0.000000
vn 0.000000 1.000000 0.000000
vn 0.000000 1.000000 0.000000
vn 0.000000 1.000000 0.000000
vn 0.000000 -1.000000 0.000000
vn 0.000000 -1.000000 0.000000
vn 0.000000 -1.000000 0.000000
vn 0.000000 -1.000000 0.000000
vn 1.000000 0.000000 0.000000
vn 1.000000 0.000000 0.000000
vn 1.000000 0.000000 0.000000
vn 1.000000 0.000000 0.000000
vn -1.000000 0.000000 0.000000
vn -1.000000 0.000000 0.000000
vn -1.000000 0.000000 0.000000
vn -1.000000 0.000000 0.000000
vn 0.000000 0.000000 1.000000
vn 0.000000 0.000000 1.000000
vn 0.000000 0.000000 1.000000
vn 0.000000 0.000000 1.000000
vn 0.000000 0.000000 1.000000
vn -0.000000 0.000000 1.000000
vn -0.000000 0.000000 1.000000
vn -0.000000 0.000000 1.000000
vn -0.000000 0.000000 1.000000
vn -0.000000 0.000000 1.000000
vn 0.000000 0.000000 1.000000
vn 0.000000 0.000000 1.000000
vn 0.000000 0.000000 1.000000
vn 0.000000 0.000000 1.000000
vn 0.000000 0.000000 1.000000
vn 0.000000 0.000000 1.000000
vn 0.000000 0.000000 1.000000
vn 0.000000 0.000000 1.000000
vn 0.000000 0.000000 1.000000
vn 0.000000 0.000000 1.000000
vn 0.000000 0.000000 1.000000
vn 0.000000 0.000000 1.000000
vn 0.000000 0.000000 1.000000
vn 0.000000 0.000000 1.000000
vn 0.000000 0.000000 1.000000
vn 0.000000 0.000000 1.000000
vn 0.000000 0.000000 1.000000
vn 0.000000 0.000000 1.000000
vn 0.000000 0.000000 1.000000
vn 0.000000 0.000000 1.000000
vn 0.000000 0.000000 1.000000
vn 0.000000 0.000000 1.000000
vn 0.000000 0.000000 1.000000
vn 0.000000 0.000000 1.000000
vn 0.000000 0.000000 1.000000
vn 0.000000 0.000000 1.000000
vn 0.000000 0.000000 1.000000
vn 0.000000 0.000000 1.000000
vn 0.000000 0.000000 1.000000
vn 0.000000 0.000000 1.000000
vn 0.000000 0.000000 1.000000
vn 0.000000 0.000000 1.000000
vn 0.000000 0.000000 1.000000
vn 0.000000 0.000000 1.000000
s off
f 13/36/1 15/34/2 14/26/3 12/37/4
f 3/3/5 4/13/6 6/5/7 5/15/8
f 7/6/9 8/16/10 2/8/11 1/7/12
f 2/17/13 8/9/14 6/10/15 4/4/16
f 7/11/17 1/1/18 3/20/19 5/12/20
f 1/19/21 2/2/22 10/51/23 16/50/24 9/54/25
f 2/2/26 4/18/27 11/56/28 20/55/29 10/51/30
f 4/18/31 3/14/32 12/24/33 14/35/34 11/56/35
f 3/14/36 1/19/37 9/54/38 21/52/39 13/25/40 12/24/41
f 15/41/42 17/40/43 19/38/44 11/39/45 14/42/46
f 9/21/47 16/53/48 18/49/49 21/33/50
f 11/23/51 19/47/52 20/32/53
f 20/48/54 19/31/55 17/29/56 18/43/57 16/28/58 10/22/59
f 21/44/60 18/30/61 17/46/62 15/27/63 13/45/64
