# This file uses centimeters as units for non-parametric coordinates.

v -0.263597 -0.002631 0.226453
v 0.263597 -0.002631 0.226453
v -0.263597 0.082064 0.226453
v -0.191915 0.039717 0.226453
v -0.263597 0.082064 -0.226453
v -0.191915 0.039717 -0.226453
v -0.263597 -0.002631 -0.226453
v 0.263597 -0.002631 -0.226453
v -0.191915 0.082064 -0.226453
v -0.191915 0.082064 0.226453
v -0.191915 -0.002631 0.226453
v -0.191915 -0.002631 -0.226453
v 0.263597 0.039717 0.226453
v 0.263597 0.039717 -0.226453
v 0.223738 0.039717 0.188244
v 0.223738 0.039717 -0.188244
v -0.152054 0.039717 -0.188244
v -0.152054 0.039717 0.188244
v 0.099173 0.039717 0.063449
v 0.099173 0.039717 -0.063449
v -0.027490 0.039717 -0.063449
v -0.027490 0.039717 0.063449
v 0.063304 0.039717 0.027514
v 0.063304 0.039717 -0.027514
v 0.008379 0.039717 -0.027514
v 0.008379 0.039717 0.027514
vt 0.143446 0.063414
vt 0.169003 0.060923
vt 0.203496 0.063414
vt 0.205724 0.062583
vt 0.168173 0.063414
vt 0.140015 0.063426
vt 0.109299 0.063414
vt 0.169003 0.060923
vt 0.109299 0.063414
vt 0.110130 0.060923
vt 0.140015 0.063426
vt 0.205724 0.062583
vt 0.143446 0.063414
vt 0.143446 0.063414
vt 0.140015 0.063426
vt 0.168173 0.063414
vt 0.203496 0.063414
vt 0.110130 0.060923
vt 0.168173 0.063414
vt 0.140015 0.063426
vt 0.168173 0.063414
vt 0.143446 0.063414
vt 0.140015 0.063426
vt 0.203496 0.063414
vt 0.168173 0.063414
vt 0.168173 0.063414
vt 0.109299 0.063414
vt 0.109299 0.063414
vt 0.168173 0.063414
vt 0.110130 0.060923
vt 0.169003 0.060923
vt 0.203496 0.063414
vt 0.168173 0.063414
vt 0.169003 0.060923
vt 0.110130 0.060923
vt 0.140015 0.063426
vt 0.169003 0.060923
vt 0.168173 0.063414
vt 0.169003 0.060923
vt 0.140015 0.063426
vt 0.169003 0.060923
vt 0.140015 0.063426
vt 0.168173 0.063414
vt 0.205724 0.062583
vt 0.169003 0.060923
vt 0.205724 0.062583
vt 0.357682 0.480260
vt 0.357682 0.480260
vt 0.357682 0.480260
vt 0.357682 0.480260
vt 0.170738 0.442905
vt 0.170738 0.442905
vt 0.170738 0.442905
vt 0.170738 0.442905
vt 0.205724 0.062583
vt 0.205724 0.062583
vt 0.205724 0.062583
vt 0.205724 0.062583
vt 0.357682 0.480260
vt 0.357682 0.480260
vt 0.357682 0.480260
vt 0.357682 0.480260
vt 0.357682 0.480260
vt 0.357682 0.480260
vt 0.205724 0.062583
vt 0.357682 0.480260
vt 0.357682 0.480260
vt 0.357682 0.480260
vt 0.205724 0.062583
vt 0.357682 0.480260
vt 0.205724 0.062583
vt 0.357682 0.480260
vt 0.205724 0.062583
vt 0.357682 0.480260
vt 0.170738 0.442905
vt 0.170738 0.442905
vt 0.170738 0.442905
vt 0.170738 0.442905
vn 0.508634 0.860983 0.000000
vn 0.508634 0.860983 0.000000
vn 1.000000 0.000000 0.000000
vn 1.000000 0.000000 0.000000
vn 0.000000 -1.000000 0.000000
vn 0.000000 -1.000000 0.000000
vn 0.000000 -1.000000 0.000000
vn 0.000000 -1.000000 0.000000
vn 0.000000 1.000000 0.000000
vn 0.000000 1.000000 0.000000
vn 0.000000 1.000000 0.000000
vn 0.000000 1.000000 0.000000
vn -1.000000 0.000000 0.000000
vn -1.000000 0.000000 0.000000
vn -1.000000 0.000000 0.000000
vn -1.000000 0.000000 0.000000
vn 0.000000 1.000000 0.000000
vn 0.508634 0.860983 0.000000
vn 0.508634 0.860983 0.000000
vn 0.000000 1.000000 0.000000
vn -0.000000 0.000000 1.000000
vn -0.000000 0.000000 1.000000
vn -0.000000 0.000000 1.000000
vn -0.000000 0.000000 1.000000
vn -0.000000 0.000000 1.000000
vn 0.000000 -1.000000 0.000000
vn 0.000000 -1.000000 0.000000
vn 0.000000 -1.000000 0.000000
vn 0.000000 -1.000000 0.000000
vn -0.000000 0.000000 -1.000000
vn -0.000000 0.000000 -1.000000
vn -0.000000 0.000000 -1.000000
vn -0.000000 0.000000 -1.000000
vn -0.000000 0.000000 -1.000000
vn 0.000000 0.000000 1.000000
vn -0.000000 0.000000 1.000000
vn -0.000000 0.000000 1.000000
vn 0.000000 0.000000 1.000000
vn 1.000000 0.000000 0.000000
vn 1.000000 0.000000 0.000000
vn 1.000000 0.000000 0.000000
vn 1.000000 0.000000 0.000000
vn -0.000000 0.000000 -1.000000
vn -0.000000 0.000000 -1.000000
vn 0.000000 0.000000 -1.000000
vn 0.000000 0.000000 -1.000000
vn 0.000000 1.000000 0.000000
vn 0.000000 1.000000 0.000000
vn 0.000000 1.000000 0.000000
vn 0.000000 1.000000 0.000000
vn 0.000000 1.000000 -0.000000
vn 0.000000 1.000000 -0.000000
vn 0.000000 1.000000 -0.000000
vn 0.000000 1.000000 -0.000000
vn 0.000000 1.000000 0.000000
vn 0.000000 1.000000 0.000000
vn 0.000000 1.000000 0.000000
vn 0.000000 1.000000 0.000000
vn 0.000000 1.000000 0.000000
vn 0.000000 1.000000 0.000000
vn 0.000000 1.000000 0.000000
vn 0.000000 1.000000 0.000000
vn 0.000000 1.000000 0.000000
vn 0.000000 1.000000 0.000000
vn 0.000000 1.000000 0.000000
vn 0.000000 1.000000 0.000000
vn 0.000000 1.000000 0.000000
vn 0.000000 1.000000 0.000000
vn 0.000000 1.000000 0.000000
vn 0.000000 1.000000 0.000000
vn 0.000000 1.000000 0.000000
vn 0.000000 1.000000 0.000000
vn 0.000000 1.000000 0.000000
vn 0.000000 1.000000 0.000000
vn 0.000000 1.000000 -0.000000
vn 0.000000 1.000000 -0.000000
vn 0.000000 1.000000 -0.000000
vn 0.000000 1.000000 -0.000000
vn 0.000000 1.000000 0.000000
vn 0.000000 1.000000 0.000000
vn 0.000000 1.000000 0.000000
vn 0.000000 1.000000 0.000000
vn 0.000000 1.000000 0.000000
vn 0.000000 1.000000 0.000000
vn 0.000000 1.000000 0.000000
vn 0.000000 1.000000 0.000000
vn 0.000000 1.000000 0.000000
vn 0.000000 1.000000 0.000000
vn 0.000000 1.000000 0.000000
vn 0.000000 1.000000 0.000000
vn 0.000000 1.000000 -0.000000
vn 0.000000 1.000000 -0.000000
vn 0.000000 1.000000 -0.000000
vn 0.000000 1.000000 -0.000000
s off
f 9/23/1 10/36/2 4/15/3 6/6/4
f 11/35/5 12/30/6 8/18/7 2/10/8
f 23/55/9 24/56/10 25/57/11 26/58/12
f 7/13/13 1/1/14 3/22/15 5/14/16
f 3/3/17 10/24/18 9/32/19 5/17/20
f 1/21/21 11/26/22 4/38/23 10/25/24 3/16/25
f 7/7/26 12/28/27 11/27/28 1/9/29
f 5/5/30 9/33/31 6/43/32 12/29/33 7/19/34
f 13/39/35 4/37/36 11/34/37 2/2/38
f 2/20/39 8/11/40 14/42/41 13/40/42
f 12/31/43 6/45/44 14/41/45 8/8/46
f 13/46/47 14/44/48 16/71/49 15/73/50
f 14/44/51 6/12/52 17/69/53 16/71/54
f 6/12/55 4/4/56 18/65/57 17/69/58
f 4/4/59 13/46/60 15/73/61 18/65/62
f 15/47/63 16/72/64 20/68/65 19/59/66
f 16/48/67 17/70/68 21/64/69 20/67/70
f 17/49/71 18/66/72 22/62/73 21/63/74
f 18/50/75 15/74/76 19/60/77 22/61/78
f 19/51/79 20/52/80 24/53/81 23/54/82
f 20/52/83 21/75/84 25/76/85 24/53/86
f 21/75/87 22/77/88 26/78/89 25/76/90
f 22/77/91 19/51/92 23/54/93 26/78/94
