# This file uses centimeters as units for non-parametric coordinates.

v -0.190413 0.000000 -0.274153
v -0.170740 0.000000 -0.000492
v -0.165640 0.756665 -0.189974
v -0.158263 0.756665 -0.087349
v -0.071034 0.756665 -0.196775
v -0.063657 0.756665 -0.094151
v -0.058564 0.000000 -0.283630
v -0.038891 0.000000 -0.009970
v -0.058564 0.484991 -0.283630
v -0.190413 0.484991 -0.274153
v -0.170740 0.484991 -0.000492
v -0.038891 0.484991 -0.009970
v -0.158263 0.679805 -0.087349
v -0.165640 0.679805 -0.189974
v -0.071034 0.679805 -0.196775
v -0.063657 0.679805 -0.094151
v -0.186623 0.123754 -0.221453
v -0.174528 0.123754 -0.053192
v -0.174528 0.462309 -0.053192
v -0.186623 0.462309 -0.221453
v -0.185135 0.394507 -0.200758
v -0.176016 0.394507 -0.073887
v -0.176016 0.435981 -0.073887
v -0.185135 0.435981 -0.200758
v 0.054399 0.000000 -0.339289
v 0.001545 0.000000 -0.070061
v 0.056205 0.756665 -0.251560
v 0.036384 0.756665 -0.150597
v 0.149278 0.756665 -0.233288
v 0.129459 0.756665 -0.132326
v 0.184115 0.000000 -0.313824
v 0.131260 0.000000 -0.044596
v 0.184115 0.484991 -0.313824
v 0.054399 0.484991 -0.339289
v 0.001545 0.484991 -0.070061
v 0.131260 0.484991 -0.044596
v 0.036384 0.679805 -0.150597
v 0.056205 0.679805 -0.251560
v 0.149278 0.679805 -0.233288
v 0.129459 0.679805 -0.132326
v 0.044221 0.123754 -0.287443
v 0.011724 0.123754 -0.121908
v 0.011724 0.462309 -0.121908
v 0.044221 0.462309 -0.287443
v 0.040223 0.394507 -0.267082
v 0.015721 0.394507 -0.142267
v 0.015721 0.435981 -0.142267
v 0.040223 0.435981 -0.267082
v 0.043340 0.000000 0.041454
v 0.063013 0.000000 0.315115
v 0.068113 0.756665 0.125633
v 0.075490 0.756665 0.228258
v 0.162720 0.756665 0.118832
v 0.170097 0.756665 0.221457
v 0.175191 0.000000 0.031977
v 0.194863 0.000000 0.305637
v 0.175191 0.484991 0.031977
v 0.043340 0.484991 0.041454
v 0.063013 0.484991 0.315115
v 0.194863 0.484991 0.305637
v 0.075490 0.679805 0.228258
v 0.068113 0.679805 0.125633
v 0.162720 0.679805 0.118832
v 0.170097 0.679805 0.221457
v 0.047130 0.123754 0.094154
v 0.059225 0.123754 0.262415
v 0.059225 0.462309 0.262415
v 0.047130 0.462309 0.094154
v 0.048617 0.394507 0.114849
v 0.057737 0.394507 0.241718
v 0.057737 0.435981 0.241718
v 0.048617 0.435981 0.114849
v -0.194863 0.000000 0.077396
v -0.113075 0.000000 0.339289
v -0.151482 0.756665 0.153669
v -0.120812 0.756665 0.251883
v -0.060944 0.756665 0.125395
v -0.030273 0.756665 0.223608
v -0.068682 0.000000 0.037991
v 0.013106 0.000000 0.299883
v -0.068682 0.484991 0.037991
v -0.194863 0.484991 0.077396
v -0.113075 0.484991 0.339289
v 0.013106 0.484991 0.299883
v -0.120812 0.679805 0.251883
v -0.151482 0.679805 0.153669
v -0.060944 0.679805 0.125395
v -0.030273 0.679805 0.223608
v -0.179113 0.123754 0.127831
v -0.128826 0.123754 0.288855
v -0.128826 0.462309 0.288855
v -0.179113 0.462309 0.127831
v -0.172927 0.394507 0.147636
v -0.135010 0.394507 0.269051
v -0.135010 0.435981 0.269051
v -0.172927 0.435981 0.147636
vt 0.204311 0.180748
vt 0.229037 0.180748
vt 0.207277 0.180748
vt 0.147226 0.180748
vt 0.171953 0.180748
vt 0.207276 0.180748
vt 0.170164 0.180748
vt 0.229037 0.180748
vt 0.170164 0.180748
vt 0.170164 0.180748
vt 0.204310 0.180748
vt 0.147226 0.180748
vt 0.204310 0.180748
vt 0.147226 0.180748
vt 0.207276 0.180748
vt 0.171953 0.180748
vt 0.171953 0.180748
vt 0.207277 0.180748
vt 0.170164 0.180748
vt 0.229037 0.180748
vt 0.204310 0.180748
vt 0.171953 0.180748
vt 0.229037 0.180748
vt 0.147226 0.180748
vt 0.204310 0.180748
vt 0.229037 0.180748
vt 0.204311 0.180748
vt 0.229037 0.180748
vt 0.229037 0.180748
vt 0.204310 0.180748
vt 0.229037 0.180748
vt 0.204310 0.180748
vt 0.229037 0.180748
vt 0.204310 0.180748
vt 0.147226 0.180748
vt 0.171953 0.180748
vt 0.147226 0.180748
vt 0.171953 0.180748
vt 0.171953 0.180748
vt 0.147226 0.180748
vt 0.229037 0.180748
vt 0.229037 0.180748
vt 0.229037 0.180748
vt 0.229037 0.180748
vt 0.359861 0.477238
vt 0.359861 0.477238
vt 0.359861 0.477238
vt 0.359861 0.477238
vt 0.229037 0.180748
vt 0.204310 0.180748
vt 0.171953 0.180748
vt 0.147226 0.180748
vt 0.204310 0.180748
vt 0.229037 0.180748
vt 0.229037 0.180748
vt 0.204311 0.180748
vt 0.172474 0.477238
vt 0.359861 0.477238
vt 0.359861 0.477238
vt 0.359861 0.477238
vt 0.359861 0.477238
vt 0.172474 0.477238
vt 0.172474 0.477238
vt 0.172474 0.477238
vt 0.229037 0.180748
vt 0.229037 0.180748
vt 0.229037 0.180748
vt 0.229037 0.180748
vt 0.207277 0.180748
vt 0.207276 0.180748
vt 0.207276 0.180748
vt 0.207277 0.180748
vt 0.229037 0.180748
vt 0.229037 0.180748
vt 0.229037 0.180748
vt 0.229037 0.180748
vt 0.170164 0.180748
vt 0.170164 0.180748
vt 0.170164 0.180748
vt 0.170164 0.180748
vt 0.204310 0.180748
vt 0.204310 0.180748
vt 0.204310 0.180748
vt 0.204310 0.180748
vt 0.204310 0.180748
vt 0.204311 0.180748
vt 0.204311 0.180748
vt 0.204310 0.180748
vt 0.204310 0.180748
vt 0.204311 0.180748
vt 0.172474 0.477238
vt 0.172474 0.477238
vt 0.172474 0.477238
vt 0.172474 0.477238
vt 0.204310 0.180748
vt 0.204310 0.180748
vt 0.229037 0.180748
vt 0.229037 0.180748
vt 0.171953 0.180748
vt 0.171953 0.180748
vt 0.171953 0.180748
vt 0.171953 0.180748
vt 0.147226 0.180748
vt 0.147226 0.180748
vt 0.147226 0.180748
vt 0.147226 0.180748
vt 0.171953 0.180748
vt 0.171953 0.180748
vt 0.171953 0.180748
vt 0.171953 0.180748
vt 0.147226 0.180748
vt 0.147226 0.180748
vt 0.147226 0.180748
vt 0.147226 0.180748
vt 0.229037 0.180748
vt 0.229037 0.180748
vt 0.229037 0.180748
vt 0.229037 0.180748
vt 0.229037 0.180748
vt 0.229037 0.180748
vt 0.359861 0.477238
vt 0.359861 0.477238
vt 0.359861 0.477238
vt 0.359861 0.477238
vt 0.359861 0.477238
vt 0.359861 0.477238
vt 0.359861 0.477238
vt 0.359861 0.477238
vt 0.229037 0.180748
vt 0.229037 0.180748
vt 0.229037 0.180748
vt 0.229037 0.180748
vt 0.207277 0.180748
vt 0.207276 0.180748
vt 0.207276 0.180748
vt 0.207277 0.180748
vt 0.229037 0.180748
vt 0.229037 0.180748
vt 0.229037 0.180748
vt 0.229037 0.180748
vt 0.170164 0.180748
vt 0.170164 0.180748
vt 0.170164 0.180748
vt 0.170164 0.180748
vt 0.204310 0.180748
vt 0.204310 0.180748
vt 0.204310 0.180748
vt 0.204310 0.180748
vt 0.204310 0.180748
vt 0.204311 0.180748
vt 0.204311 0.180748
vt 0.204310 0.180748
vt 0.204310 0.180748
vt 0.204311 0.180748
vt 0.172474 0.477238
vt 0.172474 0.477238
vt 0.172474 0.477238
vt 0.172474 0.477238
vt 0.204310 0.180748
vt 0.204310 0.180748
vt 0.229037 0.180748
vt 0.229037 0.180748
vt 0.171953 0.180748
vt 0.171953 0.180748
vt 0.171953 0.180748
vt 0.171953 0.180748
vt 0.147226 0.180748
vt 0.147226 0.180748
vt 0.147226 0.180748
vt 0.147226 0.180748
vt 0.171953 0.180748
vt 0.171953 0.180748
vt 0.171953 0.180748
vt 0.171953 0.180748
vt 0.147226 0.180748
vt 0.147226 0.180748
vt 0.147226 0.180748
vt 0.147226 0.180748
vt 0.229037 0.180748
vt 0.229037 0.180748
vt 0.229037 0.180748
vt 0.229037 0.180748
vt 0.229037 0.180748
vt 0.229037 0.180748
vt 0.359861 0.477238
vt 0.359861 0.477238
vt 0.359861 0.477238
vt 0.359861 0.477238
vt 0.359861 0.477238
vt 0.359861 0.477238
vt 0.359861 0.477238
vt 0.359861 0.477238
vt 0.229037 0.180748
vt 0.229037 0.180748
vt 0.229037 0.180748
vt 0.229037 0.180748
vt 0.207277 0.180748
vt 0.207276 0.180748
vt 0.207276 0.180748
vt 0.207277 0.180748
vt 0.229037 0.180748
vt 0.229037 0.180748
vt 0.229037 0.180748
vt 0.229037 0.180748
vt 0.170164 0.180748
vt 0.170164 0.180748
vt 0.170164 0.180748
vt 0.170164 0.180748
vt 0.204310 0.180748
vt 0.204310 0.180748
vt 0.204310 0.180748
vt 0.204310 0.180748
vt 0.204310 0.180748
vt 0.204311 0.180748
vt 0.204311 0.180748
vt 0.204310 0.180748
vt 0.204310 0.180748
vt 0.204311 0.180748
vt 0.172474 0.477238
vt 0.172474 0.477238
vt 0.172474 0.477238
vt 0.172474 0.477238
vt 0.204310 0.180748
vt 0.204310 0.180748
vt 0.229037 0.180748
vt 0.229037 0.180748
vt 0.171953 0.180748
vt 0.171953 0.180748
vt 0.171953 0.180748
vt 0.171953 0.180748
vt 0.147226 0.180748
vt 0.147226 0.180748
vt 0.147226 0.180748
vt 0.147226 0.180748
vt 0.171953 0.180748
vt 0.171953 0.180748
vt 0.171953 0.180748
vt 0.171953 0.180748
vt 0.147226 0.180748
vt 0.147226 0.180748
vt 0.147226 0.180748
vt 0.147226 0.180748
vt 0.229037 0.180748
vt 0.229037 0.180748
vt 0.229037 0.180748
vt 0.229037 0.180748
vt 0.229037 0.180748
vt 0.229037 0.180748
vt 0.359861 0.477238
vt 0.359861 0.477238
vt 0.359861 0.477238
vt 0.359861 0.477238
vt 0.359861 0.477238
vt 0.359861 0.477238
vt 0.359861 0.477238
vt 0.359861 0.477238
vn -0.992875 0.095415 0.071375
vn -0.992876 0.095415 0.071375
vn -0.994098 0.081623 0.071462
vn -0.994098 0.081623 0.071462
vn 0.000000 1.000000 0.000000
vn 0.000000 1.000000 0.000000
vn 0.000000 1.000000 0.000000
vn 0.000000 1.000000 0.000000
vn 0.994100 0.081593 -0.071462
vn 0.994100 0.081593 -0.071462
vn 0.997295 0.016204 -0.071693
vn 0.997295 0.016204 -0.071693
vn 0.000000 -1.000000 0.000000
vn 0.000000 -1.000000 0.000000
vn 0.000000 -1.000000 0.000000
vn 0.000000 -1.000000 0.000000
vn 0.071283 0.107509 0.991645
vn 0.071283 0.107510 0.991645
vn 0.067982 0.317976 0.945658
vn 0.067982 0.317977 0.945658
vn -0.071283 0.107509 -0.991645
vn -0.071283 0.107507 -0.991646
vn -0.067983 0.317972 -0.945660
vn -0.067983 0.317971 -0.945660
vn -0.071697 0.000000 -0.997426
vn -0.071697 0.000000 -0.997426
vn -0.071283 0.107507 -0.991646
vn -0.071283 0.107509 -0.991645
vn -0.997427 0.000000 0.071695
vn -0.997427 0.000000 0.071695
vn -0.997427 0.000000 0.071695
vn -0.997427 0.000000 0.071695
vn 0.071697 0.000000 0.997426
vn 0.071697 0.000000 0.997426
vn 0.071283 0.107510 0.991645
vn 0.071283 0.107509 0.991645
vn 0.997295 0.016204 -0.071693
vn 0.997295 0.016204 -0.071693
vn 0.997426 0.000000 -0.071703
vn 0.997426 0.000000 -0.071703
vn -0.994098 0.081623 0.071462
vn -0.994098 0.081623 0.071462
vn -0.997426 0.000000 0.071700
vn -0.997426 0.000000 0.071700
vn -0.067983 0.317971 -0.945660
vn -0.067983 0.317972 -0.945660
vn -0.071709 0.000000 -0.997426
vn -0.071709 0.000000 -0.997426
vn 0.997426 0.000000 -0.071700
vn 0.997426 0.000000 -0.071700
vn 0.994100 0.081593 -0.071462
vn 0.994100 0.081593 -0.071462
vn 0.067982 0.317977 0.945658
vn 0.067982 0.317976 0.945658
vn 0.071709 0.000000 0.997426
vn 0.071709 0.000000 0.997426
vn -0.997426 0.000008 0.071701
vn -0.997426 0.000008 0.071701
vn -0.997426 0.000008 0.071701
vn -0.997426 0.000008 0.071701
vn -0.997427 0.000000 0.071693
vn -0.997427 0.000000 0.071693
vn -0.997427 0.000000 0.071693
vn -0.997427 0.000000 0.071693
vn -0.997426 -0.000042 0.071701
vn -0.997426 -0.000042 0.071701
vn -0.997426 -0.000042 0.071701
vn -0.997426 -0.000042 0.071701
vn -0.997424 0.000000 0.071729
vn -0.997424 0.000000 0.071729
vn -0.997424 0.000000 0.071729
vn -0.997424 0.000000 0.071729
vn -0.997427 0.000000 0.071696
vn -0.997427 0.000000 0.071696
vn -0.997427 0.000000 0.071696
vn -0.997427 0.000000 0.071696
vn -0.997426 0.000000 0.071704
vn -0.997426 0.000000 0.071704
vn -0.997426 0.000000 0.071704
vn -0.997426 0.000000 0.071704
vn -0.997427 -0.000000 0.071696
vn -0.997427 -0.000000 0.071696
vn -0.997427 -0.000000 0.071696
vn -0.997427 -0.000000 0.071696
vn -0.997426 0.000000 0.071704
vn -0.997426 0.000000 0.071704
vn -0.997426 0.000000 0.071704
vn -0.997426 0.000000 0.071704
vn -0.976794 0.095408 -0.191758
vn -0.976794 0.095408 -0.191758
vn -0.977996 0.081617 -0.191995
vn -0.977996 0.081617 -0.191994
vn 0.000000 1.000000 0.000000
vn 0.000000 1.000000 0.000000
vn 0.000000 1.000000 0.000000
vn 0.000000 1.000000 0.000000
vn 0.977998 0.081605 0.191992
vn 0.977998 0.081605 0.191992
vn 0.981140 0.016206 0.192616
vn 0.981140 0.016206 0.192616
vn 0.000000 -1.000000 0.000000
vn 0.000000 -1.000000 0.000000
vn 0.000000 -1.000000 0.000000
vn 0.000000 -1.000000 0.000000
vn -0.191520 0.107510 0.975583
vn -0.191520 0.107511 0.975583
vn -0.182632 0.317976 0.930342
vn -0.182632 0.317977 0.930342
vn 0.191521 0.107507 -0.975583
vn 0.191521 0.107507 -0.975583
vn 0.182644 0.317973 -0.930341
vn 0.182644 0.317973 -0.930341
vn 0.192636 0.000000 -0.981270
vn 0.192636 0.000000 -0.981270
vn 0.191521 0.107507 -0.975583
vn 0.191521 0.107507 -0.975583
vn -0.981271 0.000000 -0.192632
vn -0.981271 0.000000 -0.192632
vn -0.981271 0.000000 -0.192632
vn -0.981271 0.000000 -0.192632
vn -0.192638 0.000000 0.981270
vn -0.192638 0.000000 0.981270
vn -0.191520 0.107511 0.975583
vn -0.191520 0.107510 0.975583
vn 0.981140 0.016206 0.192616
vn 0.981140 0.016206 0.192616
vn 0.981269 0.000000 0.192642
vn 0.981269 0.000000 0.192642
vn -0.977996 0.081617 -0.191994
vn -0.977996 0.081617 -0.191995
vn -0.981270 0.000000 -0.192638
vn -0.981270 0.000000 -0.192638
vn 0.182644 0.317973 -0.930341
vn 0.182644 0.317973 -0.930341
vn 0.192646 0.000000 -0.981268
vn 0.192646 0.000000 -0.981268
vn 0.981273 0.000000 0.192624
vn 0.981273 0.000000 0.192624
vn 0.977998 0.081605 0.191992
vn 0.977998 0.081605 0.191992
vn -0.182632 0.317977 0.930342
vn -0.182632 0.317976 0.930342
vn -0.192623 0.000000 0.981273
vn -0.192623 0.000000 0.981273
vn -0.981270 0.000004 -0.192636
vn -0.981270 0.000004 -0.192636
vn -0.981270 0.000004 -0.192636
vn -0.981270 0.000004 -0.192636
vn -0.981268 0.000000 -0.192649
vn -0.981268 0.000000 -0.192649
vn -0.981268 0.000000 -0.192649
vn -0.981268 0.000000 -0.192649
vn -0.981270 -0.000023 -0.192636
vn -0.981270 -0.000023 -0.192636
vn -0.981270 -0.000023 -0.192636
vn -0.981270 -0.000023 -0.192636
vn -0.981272 0.000000 -0.192630
vn -0.981272 0.000000 -0.192630
vn -0.981272 0.000000 -0.192630
vn -0.981272 0.000000 -0.192630
vn -0.981271 -0.000002 -0.192634
vn -0.981271 -0.000002 -0.192634
vn -0.981271 -0.000002 -0.192634
vn -0.981271 -0.000002 -0.192634
vn -0.981274 0.000000 -0.192619
vn -0.981274 0.000000 -0.192619
vn -0.981274 0.000000 -0.192619
vn -0.981274 0.000000 -0.192619
vn -0.981271 0.000020 -0.192634
vn -0.981271 0.000020 -0.192634
vn -0.981271 0.000020 -0.192634
vn -0.981271 0.000020 -0.192634
vn -0.981264 0.000000 -0.192668
vn -0.981264 0.000000 -0.192668
vn -0.981264 0.000000 -0.192668
vn -0.981264 0.000000 -0.192668
vn -0.992876 0.095413 0.071374
vn -0.992876 0.095413 0.071374
vn -0.994098 0.081622 0.071461
vn -0.994098 0.081622 0.071461
vn 0.000000 1.000000 0.000000
vn 0.000000 1.000000 0.000000
vn 0.000000 1.000000 0.000000
vn 0.000000 1.000000 0.000000
vn 0.994100 0.081594 -0.071461
vn 0.994100 0.081595 -0.071461
vn 0.997295 0.016204 -0.071692
vn 0.997295 0.016204 -0.071692
vn 0.000000 -1.000000 0.000000
vn 0.000000 -1.000000 0.000000
vn 0.000000 -1.000000 0.000000
vn 0.000000 -1.000000 0.000000
vn 0.071282 0.107509 0.991645
vn 0.071282 0.107511 0.991645
vn 0.067981 0.317976 0.945659
vn 0.067981 0.317977 0.945658
vn -0.071282 0.107509 -0.991645
vn -0.071282 0.107507 -0.991646
vn -0.067982 0.317972 -0.945660
vn -0.067982 0.317971 -0.945660
vn -0.071696 0.000000 -0.997427
vn -0.071696 0.000000 -0.997427
vn -0.071282 0.107507 -0.991646
vn -0.071282 0.107509 -0.991645
vn -0.997427 0.000000 0.071696
vn -0.997427 0.000000 0.071696
vn -0.997427 0.000000 0.071696
vn -0.997427 0.000000 0.071696
vn 0.071696 0.000000 0.997427
vn 0.071696 0.000000 0.997427
vn 0.071282 0.107511 0.991645
vn 0.071282 0.107509 0.991645
vn 0.997295 0.016204 -0.071692
vn 0.997295 0.016204 -0.071692
vn 0.997426 0.000000 -0.071701
vn 0.997426 0.000000 -0.071701
vn -0.994098 0.081622 0.071461
vn -0.994098 0.081622 0.071461
vn -0.997426 0.000000 0.071700
vn -0.997426 0.000000 0.071700
vn -0.067982 0.317971 -0.945660
vn -0.067982 0.317972 -0.945660
vn -0.071708 0.000000 -0.997426
vn -0.071708 0.000000 -0.997426
vn 0.997426 0.000000 -0.071700
vn 0.997426 0.000000 -0.071700
vn 0.994100 0.081595 -0.071461
vn 0.994100 0.081594 -0.071461
vn 0.067981 0.317977 0.945658
vn 0.067981 0.317976 0.945659
vn 0.071708 0.000000 0.997426
vn 0.071708 0.000000 0.997426
vn -0.997426 0.000006 0.071700
vn -0.997426 0.000006 0.071700
vn -0.997426 0.000006 0.071700
vn -0.997426 0.000006 0.071700
vn -0.997427 0.000000 0.071693
vn -0.997427 0.000000 0.071693
vn -0.997427 0.000000 0.071693
vn -0.997427 0.000000 0.071693
vn -0.997426 -0.000032 0.071700
vn -0.997426 -0.000032 0.071700
vn -0.997426 -0.000032 0.071700
vn -0.997426 -0.000032 0.071700
vn -0.997425 0.000000 0.071720
vn -0.997425 0.000000 0.071720
vn -0.997425 0.000000 0.071720
vn -0.997425 0.000000 0.071720
vn -0.997426 0.000000 0.071697
vn -0.997427 0.000000 0.071697
vn -0.997426 0.000000 0.071697
vn -0.997426 0.000000 0.071697
vn -0.997426 0.000000 0.071698
vn -0.997426 0.000000 0.071698
vn -0.997426 0.000000 0.071698
vn -0.997426 0.000000 0.071698
vn -0.997427 -0.000002 0.071697
vn -0.997427 -0.000002 0.071697
vn -0.997426 -0.000002 0.071697
vn -0.997427 -0.000002 0.071697
vn -0.997426 0.000000 0.071704
vn -0.997426 0.000000 0.071704
vn -0.997426 0.000000 0.071704
vn -0.997426 0.000000 0.071704
vn -0.950182 0.095405 0.296735
vn -0.950182 0.095405 0.296735
vn -0.951352 0.081614 0.297099
vn -0.951352 0.081614 0.297099
vn 0.000000 1.000000 0.000000
vn 0.000000 1.000000 0.000000
vn 0.000000 1.000000 0.000000
vn 0.000000 1.000000 0.000000
vn 0.951353 0.081605 -0.297100
vn 0.951353 0.081605 -0.297100
vn 0.954410 0.016206 -0.298058
vn 0.954410 0.016206 -0.298058
vn 0.000000 -1.000000 0.000000
vn 0.000000 -1.000000 0.000000
vn 0.000000 -1.000000 0.000000
vn 0.000000 -1.000000 0.000000
vn 0.296369 0.107508 0.949003
vn 0.296369 0.107509 0.949003
vn 0.282625 0.317974 0.904995
vn 0.282625 0.317974 0.904995
vn -0.296370 0.107507 -0.949003
vn -0.296370 0.107506 -0.949003
vn -0.282626 0.317970 -0.904996
vn -0.282626 0.317969 -0.904996
vn -0.298097 0.000000 -0.954536
vn -0.298097 0.000000 -0.954536
vn -0.296370 0.107506 -0.949003
vn -0.296370 0.107507 -0.949003
vn -0.954537 0.000000 0.298094
vn -0.954537 0.000000 0.298094
vn -0.954537 0.000000 0.298094
vn -0.954537 0.000000 0.298094
vn 0.298097 0.000000 0.954536
vn 0.298097 0.000000 0.954536
vn 0.296369 0.107509 0.949003
vn 0.296369 0.107508 0.949003
vn 0.954410 0.016206 -0.298058
vn 0.954410 0.016206 -0.298058
vn 0.954535 0.000000 -0.298098
vn 0.954535 0.000000 -0.298098
vn -0.951352 0.081614 0.297099
vn -0.951352 0.081614 0.297099
vn -0.954539 0.000000 0.298085
vn -0.954539 0.000000 0.298085
vn -0.282626 0.317969 -0.904996
vn -0.282626 0.317970 -0.904996
vn -0.298097 0.000000 -0.954536
vn -0.298097 0.000000 -0.954536
vn 0.954538 0.000000 -0.298089
vn 0.954538 0.000000 -0.298089
vn 0.951353 0.081605 -0.297100
vn 0.951353 0.081605 -0.297100
vn 0.282625 0.317974 0.904995
vn 0.282625 0.317974 0.904995
vn 0.298095 0.000000 0.954536
vn 0.298095 0.000000 0.954536
vn -0.954535 0.000000 0.298098
vn -0.954535 0.000000 0.298098
vn -0.954535 0.000000 0.298098
vn -0.954535 0.000000 0.298098
vn -0.954535 0.000000 0.298098
vn -0.954535 0.000000 0.298098
vn -0.954535 0.000000 0.298098
vn -0.954535 0.000000 0.298098
vn -0.954535 0.000000 0.298098
vn -0.954535 0.000000 0.298098
vn -0.954535 0.000000 0.298098
vn -0.954535 0.000000 0.298098
vn -0.954535 0.000000 0.298098
vn -0.954535 0.000000 0.298098
vn -0.954535 0.000000 0.298098
vn -0.954535 0.000000 0.298098
vn -0.954536 0.000001 0.298096
vn -0.954536 0.000001 0.298096
vn -0.954536 0.000001 0.298096
vn -0.954536 0.000001 0.298096
vn -0.954537 0.000000 0.298092
vn -0.954537 0.000000 0.298092
vn -0.954537 0.000000 0.298092
vn -0.954537 0.000000 0.298092
vn -0.954536 -0.000015 0.298096
vn -0.954536 -0.000015 0.298096
vn -0.954536 -0.000015 0.298096
vn -0.954536 -0.000015 0.298096
vn -0.954526 0.000000 0.298128
vn -0.954526 0.000000 0.298128
vn -0.954526 0.000000 0.298128
vn -0.954526 0.000000 0.298128
s off
f 10/28/1 11/29/2 13/33/3 14/55/4
f 3/3/5 4/15/6 6/6/7 5/18/8
f 15/54/9 16/49/10 12/31/11 9/26/12
f 7/7/13 8/19/14 2/10/15 1/9/16
f 11/30/17 12/32/18 16/50/19 13/34/20
f 9/25/21 10/27/22 14/56/23 15/53/24
f 7/13/25 1/1/26 10/27/27 9/25/28
f 21/57/29 22/64/30 23/63/31 24/62/32
f 2/21/33 8/11/34 12/32/35 11/30/36
f 9/26/37 12/31/38 8/8/39 7/20/40
f 14/36/41 13/51/42 4/22/43 3/17/44
f 15/37/45 14/35/46 3/24/47 5/14/48
f 5/5/49 6/16/50 16/39/51 15/38/52
f 13/52/53 16/40/54 6/12/55 4/4/56
f 1/23/57 2/2/58 18/42/59 17/41/60
f 2/2/61 11/29/62 19/43/63 18/42/64
f 11/29/65 10/28/66 20/44/67 19/43/68
f 10/28/69 1/23/70 17/41/71 20/44/72
f 17/45/73 18/46/74 22/58/75 21/61/76
f 18/46/77 19/47/78 23/59/79 22/58/80
f 19/47/81 20/48/82 24/60/83 23/59/84
f 20/48/85 17/45/86 21/61/87 24/60/88
f 34/65/89 35/66/90 37/67/91 38/68/92
f 27/69/93 28/70/94 30/71/95 29/72/96
f 39/73/97 40/74/98 36/75/99 33/76/100
f 31/77/101 32/78/102 26/79/103 25/80/104
f 35/81/105 36/82/106 40/83/107 37/84/108
f 33/85/109 34/86/110 38/87/111 39/88/112
f 31/89/113 25/90/114 34/86/115 33/85/116
f 45/91/117 46/92/118 47/93/119 48/94/120
f 26/95/121 32/96/122 36/82/123 35/81/124
f 33/76/125 36/75/126 32/97/127 31/98/128
f 38/99/129 37/100/130 28/101/131 27/102/132
f 39/103/133 38/104/134 27/105/135 29/106/136
f 29/107/137 30/108/138 40/109/139 39/110/140
f 37/111/141 40/112/142 30/113/143 28/114/144
f 25/115/145 26/116/146 42/117/147 41/118/148
f 26/116/149 35/66/150 43/119/151 42/117/152
f 35/66/153 34/65/154 44/120/155 43/119/156
f 34/65/157 25/115/158 41/118/159 44/120/160
f 41/121/161 42/122/162 46/123/163 45/124/164
f 42/122/165 43/125/166 47/126/167 46/123/168
f 43/125/169 44/127/170 48/128/171 47/126/172
f 44/127/173 41/121/174 45/124/175 48/128/176
f 58/129/177 59/130/178 61/131/179 62/132/180
f 51/133/181 52/134/182 54/135/183 53/136/184
f 63/137/185 64/138/186 60/139/187 57/140/188
f 55/141/189 56/142/190 50/143/191 49/144/192
f 59/145/193 60/146/194 64/147/195 61/148/196
f 57/149/197 58/150/198 62/151/199 63/152/200
f 55/153/201 49/154/202 58/150/203 57/149/204
f 69/155/205 70/156/206 71/157/207 72/158/208
f 50/159/209 56/160/210 60/146/211 59/145/212
f 57/140/213 60/139/214 56/161/215 55/162/216
f 62/163/217 61/164/218 52/165/219 51/166/220
f 63/167/221 62/168/222 51/169/223 53/170/224
f 53/171/225 54/172/226 64/173/227 63/174/228
f 61/175/229 64/176/230 54/177/231 52/178/232
f 49/179/233 50/180/234 66/181/235 65/182/236
f 50/180/237 59/130/238 67/183/239 66/181/240
f 59/130/241 58/129/242 68/184/243 67/183/244
f 58/129/245 49/179/246 65/182/247 68/184/248
f 65/185/249 66/186/250 70/187/251 69/188/252
f 66/186/253 67/189/254 71/190/255 70/187/256
f 67/189/257 68/191/258 72/192/259 71/190/260
f 68/191/261 65/185/262 69/188/263 72/192/264
f 82/193/265 83/194/266 85/195/267 86/196/268
f 75/197/269 76/198/270 78/199/271 77/200/272
f 87/201/273 88/202/274 84/203/275 81/204/276
f 79/205/277 80/206/278 74/207/279 73/208/280
f 83/209/281 84/210/282 88/211/283 85/212/284
f 81/213/285 82/214/286 86/215/287 87/216/288
f 79/217/289 73/218/290 82/214/291 81/213/292
f 93/219/293 94/220/294 95/221/295 96/222/296
f 74/223/297 80/224/298 84/210/299 83/209/300
f 81/204/301 84/203/302 80/225/303 79/226/304
f 86/227/305 85/228/306 76/229/307 75/230/308
f 87/231/309 86/232/310 75/233/311 77/234/312
f 77/235/313 78/236/314 88/237/315 87/238/316
f 85/239/317 88/240/318 78/241/319 76/242/320
f 73/243/321 74/244/322 90/245/323 89/246/324
f 74/244/325 83/194/326 91/247/327 90/245/328
f 83/194/329 82/193/330 92/248/331 91/247/332
f 82/193/333 73/243/334 89/246/335 92/248/336
f 89/249/337 90/250/338 94/251/339 93/252/340
f 90/250/341 91/253/342 95/254/343 94/251/344
f 91/253/345 92/255/346 96/256/347 95/254/348
f 92/255/349 89/249/350 93/252/351 96/256/352
