# This file uses centimeters as units for non-parametric coordinates.

v -0.253851 0.039122 0.082639
v 0.232640 0.039122 0.082639
v -0.253851 0.631048 0.082639
v 0.232640 0.631048 0.082639
v -0.253851 0.631048 -0.451379
v 0.232640 0.631048 -0.451379
v -0.253851 0.039122 -0.451379
v 0.232640 0.039122 -0.451379
v -0.119082 0.631048 0.044595
v 0.097872 0.631048 0.044595
v 0.097872 0.631048 -0.413335
v -0.119082 0.631048 -0.413335
v -0.253851 0.048996 0.482377
v 0.232640 0.048996 0.482377
v -0.253851 0.323039 0.482377
v 0.232640 0.323039 0.482377
v -0.253851 0.323039 0.105262
v 0.232640 0.323039 0.105262
v -0.253851 0.048996 0.105262
v 0.232640 0.048996 0.105262
v -0.208575 0.323039 0.447281
v 0.187364 0.323039 0.447281
v 0.187364 0.323039 0.140358
v -0.208575 0.323039 0.140358
v -0.332083 0.000000 0.534361
v 0.327783 0.000000 0.534361
v -0.332083 0.638854 0.534361
v 0.327783 0.638854 0.534361
v -0.332083 0.638854 -0.498646
v 0.327783 0.638854 -0.498646
v -0.332083 0.000000 -0.498646
v 0.327783 0.000000 -0.498646
v -0.294750 0.638854 0.500535
v 0.290451 0.638854 0.500535
v 0.290451 0.638854 -0.464820
v -0.294750 0.638854 -0.464820
v -0.294750 0.044847 0.500535
v 0.290451 0.044847 0.500535
v 0.290451 0.044847 -0.464820
v -0.294750 0.044847 -0.464820
v 0.327783 0.041171 0.092036
v 0.327783 0.041171 0.445428
v 0.327783 0.215112 0.092036
v 0.327783 0.215112 0.445428
v 0.327783 0.215112 0.287998
v 0.327783 0.041171 0.287998
v 0.327783 0.215112 0.251807
v 0.327783 0.041171 0.251807
v -0.332083 0.049634 -0.435677
v -0.332083 0.049634 -0.240090
v -0.332083 0.235212 -0.240090
v -0.332083 0.235212 -0.435677
v -0.332083 0.745084 0.835257
v 0.327783 0.745083 0.835257
v 0.290451 0.763250 0.821775
v -0.294750 0.763250 0.821775
v -0.332083 0.742934 -0.835257
v 0.327783 0.742934 -0.835257
v -0.294750 0.763512 -0.819962
v 0.290451 0.763512 -0.819962
v -0.612587 0.744433 0.534361
v -0.612587 0.744433 -0.498646
v -0.601193 0.755776 0.500535
v -0.601193 0.755776 -0.464820
v 0.612587 0.745889 0.534361
v 0.612587 0.745889 -0.498646
v 0.595388 0.757753 -0.464820
v 0.595388 0.757753 0.500535
vt 0.233922 0.197426
vt 0.258649 0.197426
vt 0.293973 0.197426
vt 0.233922 0.197426
vt 0.258649 0.197426
vt 0.293973 0.197426
vt 0.199776 0.197426
vt 0.258649 0.197426
vt 0.199776 0.197426
vt 0.199776 0.197426
vt 0.233922 0.197426
vt 0.233922 0.197426
vt 0.233922 0.197426
vt 0.233922 0.197426
vt 0.293973 0.197426
vt 0.258649 0.197426
vt 0.258649 0.197426
vt 0.293973 0.197426
vt 0.199776 0.197426
vt 0.258649 0.197426
vt 0.233922 0.197426
vt 0.258649 0.197426
vt 0.258649 0.197426
vt 0.233922 0.197426
vt 0.387475 0.470740
vt 0.293973 0.197426
vt 0.293973 0.197426
vt 0.293973 0.197426
vt 0.293973 0.197426
vt 0.387475 0.470740
vt 0.387475 0.470740
vt 0.387475 0.470740
vt 0.296050 0.170095
vt 0.296050 0.170095
vt 0.296050 0.170095
vt 0.296050 0.170095
vt 0.236433 0.170095
vt 0.236433 0.170095
vt 0.236433 0.170095
vt 0.236433 0.170095
vt 0.296050 0.170095
vt 0.296050 0.170095
vt 0.296050 0.170095
vt 0.296050 0.170095
vt 0.237177 0.170095
vt 0.237176 0.170095
vt 0.237176 0.170095
vt 0.237177 0.170095
vt 0.271323 0.170095
vt 0.271323 0.170095
vt 0.271323 0.170095
vt 0.271323 0.170095
vt 0.271323 0.170095
vt 0.271323 0.170095
vt 0.271323 0.170095
vt 0.271323 0.170095
vt 0.331374 0.170095
vt 0.331374 0.170095
vt 0.331374 0.170095
vt 0.331374 0.170095
vt 0.331374 0.170095
vt 0.331374 0.170095
vt 0.331374 0.170095
vt 0.331374 0.170095
vt 0.364802 0.397534
vt 0.364802 0.397534
vt 0.364802 0.397534
vt 0.364802 0.397534
vt 0.330472 0.397534
vt 0.330472 0.397534
vt 0.330472 0.397534
vt 0.330472 0.397534
vt 0.364802 0.397534
vt 0.364802 0.397534
vt 0.364802 0.397534
vt 0.364802 0.397534
vt 0.326976 0.397534
vt 0.326976 0.397534
vt 0.326976 0.397534
vt 0.326976 0.397534
vt 0.236219 0.064319
vt 0.236219 0.064319
vt 0.236219 0.064319
vt 0.236219 0.064319
vt 0.230271 0.062225
vt 0.230271 0.062225
vt 0.230271 0.062225
vt 0.230271 0.062225
vt 0.368559 0.397534
vt 0.368559 0.397534
vt 0.368559 0.397534
vt 0.368559 0.397534
vt 0.368559 0.397534
vt 0.368559 0.397534
vt 0.368559 0.397534
vt 0.368559 0.397534
vt 0.368559 0.397534
vt 0.368559 0.397534
vt 0.368559 0.397534
vt 0.368559 0.397534
vt 0.368559 0.397534
vt 0.368559 0.397534
vt 0.368559 0.397534
vt 0.368559 0.397534
vt 0.272223 0.397534
vt 0.272223 0.397534
vt 0.272223 0.397534
vt 0.272223 0.397534
vt 0.301347 0.397534
vt 0.301347 0.397534
vt 0.301347 0.397534
vt 0.301347 0.397534
vt 0.272223 0.397534
vt 0.272223 0.397534
vt 0.272223 0.397534
vt 0.272223 0.397534
vt 0.301348 0.397534
vt 0.301348 0.397534
vt 0.301348 0.397534
vt 0.301348 0.397534
vt 0.389338 0.397534
vt 0.389337 0.397534
vt 0.389337 0.397534
vt 0.389338 0.397534
vt 0.389338 0.397534
vt 0.389338 0.397534
vt 0.389337 0.397534
vt 0.389337 0.397534
vt 0.389338 0.397534
vt 0.389338 0.397534
vt 0.389338 0.397534
vt 0.389338 0.397534
vt 0.236219 0.064319
vt 0.236219 0.064319
vt 0.236219 0.064319
vt 0.236219 0.064319
vt 0.389338 0.397534
vt 0.389338 0.397534
vt 0.389338 0.397534
vt 0.389338 0.397534
vt 0.389338 0.397534
vt 0.389338 0.397534
vt 0.389338 0.397534
vt 0.389338 0.397534
vt 0.302841 0.397534
vt 0.302841 0.397534
vt 0.302841 0.397534
vt 0.302841 0.397534
vt 0.368559 0.397534
vt 0.368559 0.397534
vt 0.368559 0.397534
vt 0.368559 0.397534
vt 0.423074 0.397534
vt 0.423074 0.397534
vt 0.423074 0.397534
vt 0.423074 0.397534
vt 0.368559 0.397534
vt 0.368559 0.397534
vt 0.368559 0.397534
vt 0.368559 0.397534
vt 0.302841 0.397534
vt 0.302841 0.397534
vt 0.302841 0.397534
vt 0.302841 0.397534
vt 0.368559 0.397534
vt 0.368559 0.397534
vt 0.368559 0.397534
vt 0.368559 0.397534
vt 0.423074 0.397534
vt 0.423074 0.397534
vt 0.423074 0.397534
vt 0.423074 0.397534
vt 0.368559 0.397534
vt 0.368559 0.397534
vt 0.368559 0.397534
vt 0.368559 0.397534
vt 0.302841 0.397534
vt 0.302841 0.397534
vt 0.302841 0.397534
vt 0.302841 0.397534
vt 0.368559 0.397534
vt 0.368559 0.397534
vt 0.368559 0.397534
vt 0.368559 0.397534
vt 0.423074 0.397534
vt 0.423074 0.397534
vt 0.423074 0.397534
vt 0.423074 0.397534
vt 0.368559 0.397534
vt 0.368559 0.397534
vt 0.368559 0.397534
vt 0.368559 0.397534
vt 0.302841 0.397534
vt 0.302841 0.397534
vt 0.302841 0.397534
vt 0.302841 0.397534
vt 0.368559 0.397534
vt 0.368559 0.397534
vt 0.368559 0.397534
vt 0.368559 0.397534
vt 0.423074 0.397534
vt 0.423074 0.397534
vt 0.423074 0.397534
vt 0.423074 0.397534
vt 0.368559 0.397534
vt 0.368559 0.397534
vt 0.368559 0.397534
vt 0.368559 0.397534
vn 0.000000 0.000000 1.000000
vn 0.000000 0.000000 1.000000
vn 0.000000 0.000000 1.000000
vn 0.000000 0.000000 1.000000
vn 0.000000 1.000000 0.000000
vn 0.000000 1.000000 0.000000
vn 0.000000 1.000000 0.000000
vn 0.000000 1.000000 0.000000
vn 0.000000 0.000000 -1.000000
vn 0.000000 0.000000 -1.000000
vn 0.000000 0.000000 -1.000000
vn 0.000000 0.000000 -1.000000
vn 0.000000 -1.000000 0.000000
vn 0.000000 -1.000000 0.000000
vn 0.000000 -1.000000 0.000000
vn 0.000000 -1.000000 0.000000
vn 1.000000 0.000000 0.000000
vn 1.000000 0.000000 0.000000
vn 1.000000 0.000000 0.000000
vn 1.000000 0.000000 0.000000
vn -1.000000 0.000000 0.000000
vn -1.000000 0.000000 0.000000
vn -1.000000 0.000000 0.000000
vn -1.000000 0.000000 0.000000
vn 0.000000 1.000000 0.000002
vn 0.000000 1.000000 0.000002
vn 0.000000 1.000000 0.000002
vn 0.000000 1.000000 0.000002
vn 0.000000 1.000000 0.000000
vn 0.000000 1.000000 0.000000
vn 0.000000 1.000000 0.000000
vn 0.000000 1.000000 0.000000
vn 0.000000 1.000000 -0.000002
vn 0.000000 1.000000 -0.000002
vn 0.000000 1.000000 -0.000002
vn 0.000000 1.000000 -0.000002
vn 0.000000 1.000000 0.000000
vn 0.000000 1.000000 0.000000
vn 0.000000 1.000000 0.000000
vn 0.000000 1.000000 0.000000
vn 0.000000 0.000000 1.000000
vn 0.000000 0.000000 1.000000
vn 0.000000 0.000000 1.000000
vn 0.000000 0.000000 1.000000
vn 0.000000 1.000000 0.000000
vn 0.000000 1.000000 0.000000
vn 0.000000 1.000000 0.000000
vn 0.000000 1.000000 0.000000
vn 0.000000 0.000000 -1.000000
vn 0.000000 0.000000 -1.000000
vn 0.000000 0.000000 -1.000000
vn 0.000000 0.000000 -1.000000
vn 0.000000 -1.000000 0.000000
vn 0.000000 -1.000000 0.000000
vn 0.000000 -1.000000 0.000000
vn 0.000000 -1.000000 0.000000
vn 1.000000 0.000000 0.000000
vn 1.000000 0.000000 0.000000
vn 1.000000 0.000000 0.000000
vn 1.000000 0.000000 0.000000
vn -1.000000 0.000000 0.000000
vn -1.000000 0.000000 0.000000
vn -1.000000 0.000000 0.000000
vn -1.000000 0.000000 0.000000
vn 0.000000 1.000000 -0.000000
vn 0.000000 1.000000 -0.000000
vn 0.000000 1.000000 -0.000000
vn 0.000000 1.000000 -0.000000
vn 0.000000 1.000000 0.000000
vn 0.000000 1.000000 0.000000
vn 0.000000 1.000000 0.000000
vn 0.000000 1.000000 0.000000
vn 0.000000 1.000000 0.000000
vn 0.000000 1.000000 0.000000
vn 0.000000 1.000000 0.000000
vn 0.000000 1.000000 0.000000
vn 0.000000 1.000000 0.000000
vn 0.000000 1.000000 0.000000
vn 0.000000 1.000000 0.000000
vn 0.000000 1.000000 0.000000
vn -0.000000 0.000000 1.000000
vn -0.000000 0.000000 1.000000
vn -0.000000 0.000000 1.000000
vn -0.000000 0.000000 1.000000
vn -0.000000 1.000000 0.000000
vn -0.000000 1.000000 0.000000
vn -0.000000 1.000000 0.000000
vn -0.000000 1.000000 0.000000
vn 0.000000 0.000000 -1.000000
vn 0.000000 0.000000 -1.000000
vn 0.000000 0.000000 -1.000000
vn 0.000000 0.000000 -1.000000
vn 0.000000 -1.000000 0.000000
vn 0.000000 -1.000000 0.000000
vn 0.000000 -1.000000 0.000000
vn 0.000000 -1.000000 0.000000
vn 1.000000 0.000000 0.000000
vn 1.000000 0.000000 0.000000
vn 1.000000 0.000000 0.000000
vn 1.000000 0.000000 0.000000
vn -1.000000 0.000000 0.000000
vn -1.000000 0.000000 0.000000
vn -1.000000 0.000000 0.000000
vn -1.000000 0.000000 0.000000
vn 0.000000 0.595957 0.803017
vn 0.000000 0.595957 0.803017
vn 0.000000 0.595957 0.803017
vn 0.000000 0.595957 0.803017
vn 0.567821 0.823152 0.000000
vn 0.567821 0.823152 0.000000
vn 0.567821 0.823152 0.000000
vn 0.567821 0.823152 0.000000
vn 0.000000 0.596527 -0.802593
vn 0.000000 0.596527 -0.802593
vn 0.000000 0.596527 -0.802593
vn 0.000000 0.596527 -0.802593
vn -0.705547 0.708663 0.000000
vn -0.705547 0.708663 0.000000
vn -0.705547 0.708663 0.000000
vn -0.705547 0.708663 0.000000
vn 0.000000 0.000000 -1.000000
vn 0.000000 0.000000 -1.000000
vn 0.000000 0.000000 -1.000000
vn 0.000000 0.000000 -1.000000
vn -1.000000 0.000000 0.000000
vn -1.000000 0.000000 0.000000
vn -1.000000 0.000000 0.000000
vn -1.000000 0.000000 0.000000
vn -0.000000 0.000000 1.000000
vn -0.000000 0.000000 1.000000
vn -0.000000 0.000000 1.000000
vn -0.000000 0.000000 1.000000
vn 1.000000 0.000000 0.000000
vn 1.000000 0.000000 0.000000
vn 1.000000 0.000000 0.000000
vn 1.000000 0.000000 0.000000
vn 1.000000 -0.000000 0.000000
vn 1.000000 -0.000000 0.000000
vn 1.000000 -0.000000 0.000000
vn 1.000000 -0.000000 0.000000
vn 1.000000 -0.000000 0.000000
vn 1.000000 -0.000000 0.000000
vn 1.000000 0.000000 0.000000
vn 1.000000 0.000000 0.000000
vn 1.000000 0.000000 0.000000
vn 1.000000 0.000000 0.000000
vn 1.000000 0.000000 0.000000
vn 1.000000 0.000000 0.000000
vn 1.000000 0.000000 0.000000
vn 1.000000 0.000000 0.000000
vn 1.000000 0.000000 0.000000
vn 1.000000 0.000000 0.000000
vn 1.000000 0.000000 0.000000
vn 1.000000 0.000000 0.000000
vn 1.000000 0.000000 0.000000
vn 1.000000 0.000000 0.000000
vn 1.000000 0.000000 0.000000
vn 1.000000 0.000000 0.000000
vn 1.000000 0.000000 0.000000
vn 1.000000 0.000000 0.000000
vn 1.000000 0.000000 0.000000
vn 1.000000 0.000000 0.000000
vn 1.000000 0.000000 0.000000
vn 1.000000 0.000000 0.000000
vn -1.000000 -0.000000 0.000000
vn -1.000000 -0.000000 0.000000
vn -1.000000 -0.000000 0.000000
vn -1.000000 -0.000000 0.000000
vn -1.000000 0.000000 0.000000
vn -1.000000 0.000000 0.000000
vn -1.000000 0.000000 0.000000
vn -1.000000 0.000000 0.000000
vn -1.000000 0.000000 0.000000
vn -1.000000 0.000000 0.000000
vn -1.000000 0.000000 0.000000
vn -1.000000 0.000000 0.000000
vn -1.000000 0.000000 0.000000
vn -1.000000 0.000000 0.000000
vn -1.000000 0.000000 0.000000
vn -1.000000 0.000000 0.000000
vn -0.000000 -0.942960 0.332905
vn -0.000000 -0.942960 0.332905
vn -0.000000 -0.942960 0.332905
vn -0.000000 -0.942960 0.332905
vn 0.409130 0.855582 -0.317162
vn 0.409130 0.855582 -0.317162
vn 0.409130 0.855582 -0.317162
vn 0.409130 0.855582 -0.317162
vn 0.000000 0.932525 -0.361106
vn 0.000000 0.932525 -0.361106
vn 0.000000 0.932525 -0.361106
vn 0.000000 0.932525 -0.361106
vn -0.409120 0.855586 -0.317164
vn -0.409120 0.855586 -0.317164
vn -0.409120 0.855586 -0.317164
vn -0.409120 0.855586 -0.317164
vn 0.000000 -0.955374 -0.295399
vn 0.000000 -0.955374 -0.295399
vn 0.000000 -0.955374 -0.295399
vn 0.000000 -0.955374 -0.295399
vn -0.424038 0.859856 0.284322
vn -0.424038 0.859856 0.284322
vn -0.424038 0.859856 0.284322
vn -0.424038 0.859856 0.284322
vn 0.000000 0.943561 0.331198
vn 0.000000 0.943561 0.331198
vn 0.000000 0.943561 0.331198
vn 0.000000 0.943561 0.331198
vn 0.424046 0.859852 0.284321
vn 0.424046 0.859852 0.284321
vn 0.424046 0.859852 0.284321
vn 0.424046 0.859852 0.284321
vn -0.352262 -0.935901 0.000000
vn -0.352262 -0.935901 0.000000
vn -0.352262 -0.935901 0.000000
vn -0.352262 -0.935901 0.000000
vn 0.327730 0.864538 0.381008
vn 0.327730 0.864538 0.381008
vn 0.327730 0.864538 0.381008
vn 0.327730 0.864538 0.381008
vn 0.356479 0.934303 0.000000
vn 0.356479 0.934303 0.000000
vn 0.356479 0.934303 0.000000
vn 0.356479 0.934303 0.000000
vn 0.327730 0.864539 -0.381005
vn 0.327730 0.864539 -0.381005
vn 0.327730 0.864539 -0.381005
vn 0.327730 0.864539 -0.381005
vn 0.351796 -0.936077 0.000000
vn 0.351796 -0.936077 0.000000
vn 0.351796 -0.936077 0.000000
vn 0.351796 -0.936077 0.000000
vn -0.325982 0.850889 -0.411974
vn -0.325982 0.850889 -0.411974
vn -0.325982 0.850889 -0.411974
vn -0.325982 0.850889 -0.411974
vn -0.363276 0.931682 0.000000
vn -0.363276 0.931682 0.000000
vn -0.363276 0.931682 0.000000
vn -0.363276 0.931682 0.000000
vn -0.325982 0.850889 0.411975
vn -0.325982 0.850889 0.411975
vn -0.325982 0.850889 0.411975
vn -0.325982 0.850889 0.411975
s off
f 1/23/1 2/2/2 4/22/3 3/17/4
f 9/25/5 10/32/6 11/31/7 12/30/8
f 5/5/9 6/16/10 8/8/11 7/20/12
f 7/7/13 8/19/14 2/10/15 1/9/16
f 2/21/17 8/11/18 6/12/19 4/4/20
f 7/13/21 1/1/22 3/24/23 5/14/24
f 3/3/25 4/15/26 10/26/27 9/29/28
f 4/15/29 6/6/30 11/27/31 10/26/32
f 6/6/33 5/18/34 12/28/35 11/27/36
f 5/18/37 3/3/38 9/29/39 12/28/40
f 13/33/41 14/34/42 16/35/43 15/36/44
f 21/37/45 22/38/46 23/39/47 24/40/48
f 17/41/49 18/42/50 20/43/51 19/44/52
f 19/45/53 20/46/54 14/47/55 13/48/56
f 14/49/57 20/50/58 18/51/59 16/52/60
f 19/53/61 13/54/62 15/55/63 17/56/64
f 15/57/65 16/58/66 22/59/67 21/60/68
f 16/58/69 18/61/70 23/62/71 22/59/72
f 18/61/73 17/63/74 24/64/75 23/62/76
f 17/63/77 15/57/78 21/60/79 24/64/80
f 25/65/81 26/66/82 28/67/83 27/68/84
f 37/69/85 38/70/86 39/71/87 40/72/88
f 29/73/89 30/74/90 32/75/91 31/76/92
f 31/77/93 32/78/94 26/79/95 25/80/96
f 47/81/97 48/82/98 41/83/99 43/84/100
f 49/85/101 50/86/102 51/87/103 52/88/104
f 53/89/105 54/90/106 55/91/107 56/92/108
f 65/93/109 66/94/110 67/95/111 68/96/112
f 58/97/113 57/98/114 59/99/115 60/100/116
f 62/101/117 61/102/118 63/103/119 64/104/120
f 33/105/121 34/106/122 38/107/123 37/108/124
f 34/109/125 35/110/126 39/111/127 38/112/128
f 35/113/129 36/114/130 40/115/131 39/116/132
f 36/117/133 33/118/134 37/119/135 40/120/136
f 26/121/137 32/122/138 41/123/139 48/124/140 46/125/141 42/126/142
f 32/122/143 30/127/144 43/128/145 41/123/146
f 30/127/147 28/129/148 44/130/149 45/131/150 47/132/151 43/128/152
f 28/129/153 26/121/154 42/126/155 44/130/156
f 42/133/157 46/134/158 45/135/159 44/136/160
f 45/131/161 46/125/162 48/124/163 47/132/164
f 31/137/165 25/138/166 50/139/167 49/140/168
f 25/138/169 27/141/170 51/142/171 50/139/172
f 27/141/173 29/143/174 52/144/175 51/142/176
f 29/143/177 31/137/178 49/140/179 52/144/180
f 27/145/181 28/146/182 54/147/183 53/148/184
f 28/149/185 34/150/186 55/151/187 54/152/188
f 34/153/189 33/154/190 56/155/191 55/156/192
f 33/157/193 27/158/194 53/159/195 56/160/196
f 30/161/197 29/162/198 57/163/199 58/164/200
f 29/165/201 36/166/202 59/167/203 57/168/204
f 36/169/205 35/170/206 60/171/207 59/172/208
f 35/173/209 30/174/210 58/175/211 60/176/212
f 29/177/213 27/178/214 61/179/215 62/180/216
f 27/181/217 33/182/218 63/183/219 61/184/220
f 33/185/221 36/186/222 64/187/223 63/188/224
f 36/189/225 29/190/226 62/191/227 64/192/228
f 28/193/229 30/194/230 66/195/231 65/196/232
f 30/197/233 35/198/234 67/199/235 66/200/236
f 35/201/237 34/202/238 68/203/239 67/204/240
f 34/205/241 28/206/242 65/207/243 68/208/244
