# This file uses centimeters as units for non-parametric coordinates.

v 0.025584 -0.006097 -0.272306
v -0.025585 -0.006097 -0.272306
v 0.025584 0.045073 -0.272306
v -0.025585 0.045073 -0.272306
v 0.092583 0.038976 0.289401
v -0.092588 0.038976 0.289401
v 0.092583 0.000000 0.289401
v -0.092588 0.000000 0.289401
v 0.092583 0.000000 0.115579
v 0.092583 0.038976 0.115579
v -0.092588 0.038976 0.115579
v -0.092588 0.000000 0.115579
v 0.019488 0.000000 0.085755
v 0.019488 0.038976 0.085755
v -0.019491 0.038976 0.085755
v -0.019491 0.000000 0.085755
v 0.019488 0.000000 -0.092035
v 0.019488 0.038976 -0.092035
v -0.019491 0.038976 -0.092035
v -0.019491 0.000000 -0.092035
v 0.025584 -0.006097 -0.106050
v 0.025584 0.045073 -0.106050
v -0.025585 0.045073 -0.106050
v -0.025585 -0.006097 -0.106050
v 0.067198 0.038976 0.139409
v -0.067200 0.038976 0.139409
v -0.067200 0.038976 0.265570
v 0.067198 0.038976 0.265570
v 0.067198 0.000000 0.265570
v -0.067200 0.000000 0.265570
v -0.067200 0.000000 0.139409
v 0.067198 0.000000 0.139409
vt 0.172176 0.063259
vt 0.196903 0.063259
vt 0.232227 0.063259
vt 0.172176 0.063259
vt 0.261092 0.473617
vt 0.296416 0.473617
vt 0.291360 0.473617
vt 0.261092 0.473617
vt 0.227171 0.063259
vt 0.227171 0.063259
vt 0.236366 0.473617
vt 0.236366 0.473617
vt 0.236366 0.473617
vt 0.236366 0.473617
vt 0.232227 0.063259
vt 0.261092 0.473617
vt 0.196903 0.063259
vt 0.296416 0.473617
vt 0.291360 0.473617
vt 0.261092 0.473617
vt 0.172176 0.063259
vt 0.196903 0.063259
vt 0.196903 0.063259
vt 0.172176 0.063259
vt 0.236366 0.473617
vt 0.291360 0.473617
vt 0.236366 0.473617
vt 0.296416 0.473617
vt 0.296416 0.473617
vt 0.236366 0.473617
vt 0.291360 0.473617
vt 0.236366 0.473617
vt 0.236366 0.473617
vt 0.291360 0.473617
vt 0.236366 0.473617
vt 0.296416 0.473617
vt 0.296416 0.473617
vt 0.236366 0.473617
vt 0.291360 0.473617
vt 0.236366 0.473617
vt 0.236366 0.473617
vt 0.291360 0.473617
vt 0.172176 0.063259
vt 0.296416 0.473617
vt 0.232227 0.063259
vt 0.236366 0.473617
vt 0.227171 0.063259
vt 0.172176 0.063259
vt 0.172176 0.063259
vt 0.227171 0.063259
vt 0.172176 0.063259
vt 0.232227 0.063259
vt 0.232227 0.063259
vt 0.172176 0.063259
vt 0.227171 0.063259
vt 0.172176 0.063259
vt 0.172176 0.063259
vt 0.227171 0.063259
vt 0.172176 0.063259
vt 0.227171 0.063259
vt 0.232227 0.063259
vt 0.172176 0.063259
vt 0.172176 0.063259
vt 0.232227 0.063259
vt 0.296416 0.473617
vt 0.172176 0.063259
vt 0.236366 0.473617
vt 0.232227 0.063259
vt 0.236366 0.473617
vt 0.291360 0.473617
vt 0.172176 0.063259
vt 0.227171 0.063259
vt 0.296416 0.473617
vt 0.296416 0.473617
vt 0.296416 0.473617
vt 0.296416 0.473617
vt 0.291360 0.473617
vt 0.291360 0.473617
vt 0.291360 0.473617
vt 0.291360 0.473617
vt 0.322759 0.994643
vt 0.447628 0.994643
vt 0.447628 0.997161
vt 0.322759 0.997161
vt 0.322759 0.997161
vt 0.447628 0.997161
vt 0.447628 0.994643
vt 0.322759 0.994643
vt 0.291360 0.473617
vt 0.291360 0.473617
vt 0.291360 0.473617
vt 0.291360 0.473617
vt 0.291360 0.473617
vt 0.291360 0.473617
vt 0.291360 0.473617
vt 0.291360 0.473617
vt 0.291360 0.473617
vt 0.291360 0.473617
vt 0.291360 0.473617
vt 0.291360 0.473617
vn 0.000000 0.000000 -1.000000
vn 0.000000 0.000000 -1.000000
vn 0.000000 0.000000 -1.000000
vn 0.000000 0.000000 -1.000000
vn 0.000000 1.000000 0.000000
vn 0.000000 1.000000 0.000000
vn 0.000000 1.000000 0.000000
vn 0.000000 1.000000 0.000000
vn 0.000000 0.000000 1.000000
vn 0.000000 0.000000 1.000000
vn 0.000000 0.000000 1.000000
vn 0.000000 0.000000 1.000000
vn 0.000000 -1.000000 0.000000
vn 0.000000 -1.000000 0.000000
vn 0.000000 -1.000000 0.000000
vn 0.000000 -1.000000 0.000000
vn -1.000000 0.000000 0.000000
vn -1.000000 0.000000 0.000000
vn -1.000000 0.000000 0.000000
vn -1.000000 0.000000 0.000000
vn 1.000000 0.000000 0.000000
vn 1.000000 0.000000 0.000000
vn 1.000000 0.000000 0.000000
vn 1.000000 0.000000 0.000000
vn 0.377780 0.000000 -0.925895
vn 0.377780 0.000000 -0.925895
vn 0.377780 0.000000 -0.925895
vn 0.377780 0.000000 -0.925895
vn 0.000000 1.000000 0.000000
vn 0.000000 1.000000 0.000000
vn 0.000000 1.000000 0.000000
vn 0.000000 1.000000 0.000000
vn -0.377768 0.000000 -0.925900
vn -0.377768 0.000000 -0.925900
vn -0.377768 0.000000 -0.925900
vn -0.377768 0.000000 -0.925900
vn 0.000000 -1.000000 0.000000
vn 0.000000 -1.000000 0.000000
vn 0.000000 -1.000000 0.000000
vn 0.000000 -1.000000 0.000000
vn 1.000000 0.000000 0.000000
vn 1.000000 0.000000 0.000000
vn 1.000000 0.000000 0.000000
vn 1.000000 0.000000 0.000000
vn 0.000000 1.000000 0.000000
vn 0.000000 1.000000 0.000000
vn 0.000000 1.000000 0.000000
vn 0.000000 1.000000 0.000000
vn -1.000000 0.000000 0.000000
vn -1.000000 0.000000 0.000000
vn -1.000000 0.000000 0.000000
vn -1.000000 0.000000 0.000000
vn 0.000000 -1.000000 0.000000
vn 0.000000 -1.000000 0.000000
vn 0.000000 -1.000000 0.000000
vn 0.000000 -1.000000 0.000000
vn 0.917017 0.000000 0.398848
vn 0.917017 0.000000 0.398848
vn 0.917017 0.000000 0.398848
vn 0.917017 0.000000 0.398848
vn 0.000000 0.916976 0.398943
vn 0.000000 0.916976 0.398943
vn 0.000000 0.916976 0.398943
vn 0.000000 0.916976 0.398943
vn -0.917063 0.000000 0.398743
vn -0.917063 0.000000 0.398743
vn -0.917063 0.000000 0.398743
vn -0.917063 0.000000 0.398743
vn 0.000000 -0.916988 0.398914
vn 0.000000 -0.916988 0.398914
vn 0.000000 -0.916988 0.398914
vn 0.000000 -0.916988 0.398914
vn 1.000000 0.000000 0.000000
vn 1.000000 0.000000 0.000000
vn 1.000000 0.000000 0.000000
vn 1.000000 0.000000 0.000000
vn 0.000000 1.000000 0.000000
vn 0.000000 1.000000 0.000000
vn 0.000000 1.000000 0.000000
vn 0.000000 1.000000 0.000000
vn -1.000000 0.000000 0.000000
vn -1.000000 0.000000 0.000000
vn -1.000000 0.000000 0.000000
vn -1.000000 0.000000 0.000000
vn 0.000000 -1.000000 0.000000
vn 0.000000 -1.000000 0.000000
vn 0.000000 -1.000000 0.000000
vn 0.000000 -1.000000 0.000000
vn 0.000000 1.000000 0.000000
vn 0.000000 1.000000 0.000000
vn 0.000000 1.000000 0.000000
vn 0.000000 1.000000 0.000000
vn 0.000000 1.000000 0.000000
vn 0.000000 1.000000 0.000000
vn 0.000000 1.000000 0.000000
vn 0.000000 1.000000 0.000000
vn 0.000000 1.000000 0.000000
vn 0.000000 1.000000 0.000000
vn 0.000000 1.000000 0.000000
vn 0.000000 1.000000 0.000000
vn 0.000000 1.000000 0.000000
vn 0.000000 1.000000 0.000000
vn 0.000000 1.000000 0.000000
vn 0.000000 1.000000 0.000000
vn 0.000000 -1.000000 0.000000
vn 0.000000 -1.000000 0.000000
vn 0.000000 -1.000000 0.000000
vn 0.000000 -1.000000 0.000000
vn 0.000000 -1.000000 0.000000
vn 0.000000 -1.000000 0.000000
vn 0.000000 -1.000000 0.000000
vn 0.000000 -1.000000 0.000000
vn 0.000000 -1.000000 0.000000
vn 0.000000 -1.000000 0.000000
vn 0.000000 -1.000000 0.000000
vn 0.000000 -1.000000 0.000000
vn 0.000000 -1.000000 0.000000
vn 0.000000 -1.000000 0.000000
vn 0.000000 -1.000000 0.000000
vn 0.000000 -1.000000 0.000000
s off
f 1/23/1 2/2/2 4/22/3 3/17/4
f 25/81/5 26/82/6 27/83/7 28/84/8
f 5/5/9 6/16/10 8/8/11 7/20/12
f 29/85/13 30/86/14 31/87/15 32/88/16
f 11/30/17 12/32/18 8/11/19 6/12/20
f 7/13/21 9/25/22 10/27/23 5/14/24
f 10/27/25 9/25/26 13/33/27 14/35/28
f 14/36/29 15/37/30 11/29/31 10/28/32
f 15/38/33 16/40/34 12/32/35 11/30/36
f 9/92/37 12/95/38 16/99/39 13/34/40
f 14/35/41 13/33/42 17/41/43 18/67/44
f 18/44/45 19/65/46 15/37/47 14/36/48
f 19/46/49 20/69/50 16/40/51 15/38/52
f 13/100/53 16/39/54 20/70/55 17/42/56
f 18/43/57 17/71/58 21/49/59 22/63/60
f 22/64/61 23/61/62 19/45/63 18/68/64
f 23/62/65 24/57/66 20/48/67 19/66/68
f 17/72/69 20/47/70 24/58/71 21/50/72
f 22/51/73 21/59/74 1/1/75 3/24/76
f 3/3/77 4/15/78 23/53/79 22/52/80
f 2/21/81 24/56/82 23/54/83 4/4/84
f 21/60/85 24/55/86 2/10/87 1/9/88
f 10/28/89 11/29/90 26/74/91 25/73/92
f 11/29/93 6/6/94 27/75/95 26/74/96
f 6/6/97 5/18/98 28/76/99 27/75/100
f 5/18/101 10/28/102 25/73/103 28/76/104
f 7/7/105 8/97/106 30/94/107 29/77/108
f 8/19/109 12/96/110 31/91/111 30/78/112
f 12/31/113 9/93/114 32/90/115 31/79/116
f 9/26/117 7/98/118 29/89/119 32/80/120
