# This file uses centimeters as units for non-parametric coordinates.

v 0.376070 0.000000 -0.290955
v 0.096615 0.000000 -0.290955
v 0.325785 0.577307 -0.240669
v 0.146898 0.577307 -0.240669
v 0.325785 0.577307 -0.061785
v 0.146898 0.577307 -0.061785
v 0.376070 0.000000 -0.011497
v 0.096615 0.000000 -0.011497
v 0.325785 0.527862 -0.240669
v 0.146898 0.527862 -0.240669
v 0.146898 0.527862 -0.061785
v 0.325785 0.527862 -0.061785
v 0.376070 0.435228 -0.290955
v 0.096615 0.435228 -0.290955
v 0.096615 0.435228 -0.011497
v 0.376070 0.435228 -0.011497
v 0.376070 0.365841 -0.290955
v 0.096615 0.365841 -0.290955
v 0.096615 0.365841 -0.011497
v 0.376070 0.365841 -0.011497
v 0.299702 0.099977 -0.290955
v 0.172981 0.099977 -0.290955
v 0.172981 0.265865 -0.290955
v 0.299702 0.265865 -0.290955
v -0.096613 0.000000 0.038507
v -0.376070 0.000000 0.038507
v -0.146900 0.577307 0.088793
v -0.325785 0.577307 0.088793
v -0.146900 0.577307 0.267677
v -0.325785 0.577307 0.267677
v -0.096613 0.000000 0.317965
v -0.376070 0.000000 0.317965
v -0.146900 0.527862 0.088793
v -0.325785 0.527862 0.088793
v -0.325785 0.527862 0.267677
v -0.146900 0.527862 0.267677
v -0.096613 0.435228 0.038507
v -0.376070 0.435228 0.038507
v -0.376070 0.435228 0.317965
v -0.096613 0.435228 0.317965
v -0.096613 0.365841 0.038507
v -0.376070 0.365841 0.038507
v -0.376070 0.365841 0.317965
v -0.096613 0.365841 0.317965
v -0.172983 0.099977 0.038507
v -0.299704 0.099977 0.038507
v -0.299704 0.265865 0.038507
v -0.172983 0.265865 0.038507
v 0.095430 0.000000 -0.277388
v -0.181068 0.000000 -0.317963
v 0.038376 0.577307 -0.234936
v -0.138617 0.577307 -0.260908
v 0.012402 0.577307 -0.057945
v -0.164589 0.577307 -0.083918
v 0.054853 0.000000 -0.000891
v -0.221643 0.000000 -0.041466
v 0.038376 0.527862 -0.234936
v -0.138617 0.527862 -0.260908
v -0.164589 0.527862 -0.083918
v 0.012402 0.527862 -0.057945
v 0.095430 0.435228 -0.277388
v -0.181068 0.435228 -0.317963
v -0.221643 0.435228 -0.041466
v 0.054853 0.435228 -0.000891
v 0.095430 0.365841 -0.277388
v -0.181068 0.365841 -0.317963
v -0.221643 0.365841 -0.041466
v 0.054853 0.365841 -0.000891
v 0.019869 0.099977 -0.288477
v -0.105507 0.099977 -0.306875
v -0.105507 0.265865 -0.306875
v 0.019869 0.265865 -0.288477
vt 0.327413 0.473617
vt 0.352140 0.473617
vt 0.208995 0.110366
vt 0.148944 0.110366
vt 0.173671 0.110366
vt 0.208995 0.110366
vt 0.293267 0.473617
vt 0.352140 0.473617
vt 0.293267 0.473617
vt 0.293267 0.473617
vt 0.327413 0.473617
vt 0.148944 0.110366
vt 0.327413 0.473617
vt 0.148944 0.110366
vt 0.208995 0.110366
vt 0.173671 0.110366
vt 0.173671 0.110366
vt 0.208995 0.110366
vt 0.293267 0.473617
vt 0.352140 0.473617
vt 0.327413 0.473617
vt 0.173671 0.110366
vt 0.352140 0.473617
vt 0.148944 0.110366
vt 0.269623 0.111129
vt 0.173671 0.110366
vt 0.294350 0.111129
vt 0.148944 0.110366
vt 0.294350 0.111129
vt 0.269623 0.111129
vt 0.269623 0.111129
vt 0.294350 0.111129
vt 0.269623 0.111129
vt 0.294350 0.111129
vt 0.267155 0.111129
vt 0.242428 0.111129
vt 0.267155 0.111129
vt 0.242428 0.111129
vt 0.242428 0.111129
vt 0.267155 0.111129
vt 0.294350 0.111129
vt 0.269623 0.111129
vt 0.267155 0.111129
vt 0.242428 0.111129
vt 0.269623 0.111129
vt 0.294350 0.111129
vt 0.294350 0.111129
vt 0.269623 0.111129
vt 0.173671 0.110366
vt 0.269623 0.111129
vt 0.148944 0.110366
vt 0.294350 0.111129
vt 0.173671 0.110366
vt 0.148944 0.110366
vt 0.148944 0.110366
vt 0.173671 0.110366
vt 0.242428 0.111129
vt 0.267155 0.111129
vt 0.352140 0.473617
vt 0.327413 0.473617
vt 0.352140 0.473617
vt 0.327413 0.473617
vt 0.327413 0.473617
vt 0.352140 0.473617
vt 0.267155 0.111129
vt 0.242428 0.111129
vt 0.352140 0.473617
vt 0.327413 0.473617
vt 0.242428 0.111129
vt 0.267155 0.111129
vt 0.267155 0.111129
vt 0.242428 0.111129
vt 0.263755 0.110366
vt 0.352140 0.473617
vt 0.352140 0.473617
vt 0.352140 0.473617
vt 0.352140 0.473617
vt 0.263755 0.110366
vt 0.263755 0.110366
vt 0.263755 0.110366
vt 0.173671 0.110366
vt 0.173671 0.110366
vt 0.173671 0.110366
vt 0.173671 0.110366
vt 0.208995 0.110366
vt 0.208995 0.110366
vt 0.208995 0.110366
vt 0.208995 0.110366
vt 0.173671 0.110366
vt 0.173671 0.110366
vt 0.173671 0.110366
vt 0.173671 0.110366
vt 0.293267 0.473617
vt 0.293267 0.473617
vt 0.293267 0.473617
vt 0.293267 0.473617
vt 0.148944 0.110366
vt 0.148944 0.110366
vt 0.148944 0.110366
vt 0.148944 0.110366
vt 0.148944 0.110366
vt 0.148944 0.110366
vt 0.148944 0.110366
vt 0.148944 0.110366
vt 0.294350 0.111129
vt 0.294350 0.111129
vt 0.294350 0.111129
vt 0.294350 0.111129
vt 0.269623 0.111129
vt 0.269623 0.111129
vt 0.269623 0.111129
vt 0.269623 0.111129
vt 0.294350 0.111129
vt 0.294350 0.111129
vt 0.294350 0.111129
vt 0.294350 0.111129
vt 0.269623 0.111129
vt 0.269623 0.111129
vt 0.269623 0.111129
vt 0.269623 0.111129
vt 0.267155 0.111129
vt 0.267155 0.111129
vt 0.267155 0.111129
vt 0.267155 0.111129
vt 0.242428 0.111129
vt 0.242428 0.111129
vt 0.242428 0.111129
vt 0.242428 0.111129
vt 0.267155 0.111129
vt 0.267155 0.111129
vt 0.267155 0.111129
vt 0.267155 0.111129
vt 0.242428 0.111129
vt 0.242428 0.111129
vt 0.242428 0.111129
vt 0.242428 0.111129
vt 0.263755 0.110366
vt 0.263755 0.110366
vt 0.263755 0.110366
vt 0.263755 0.110366
vt 0.327413 0.473617
vt 0.327413 0.473617
vt 0.327413 0.473617
vt 0.327413 0.473617
vt 0.352140 0.473617
vt 0.352140 0.473617
vt 0.352140 0.473617
vt 0.352140 0.473617
vt 0.327413 0.473617
vt 0.327413 0.473617
vt 0.327413 0.473617
vt 0.327413 0.473617
vt 0.352140 0.473617
vt 0.352140 0.473617
vt 0.352140 0.473617
vt 0.352140 0.473617
vt 0.352140 0.473617
vt 0.352140 0.473617
vt 0.352140 0.473617
vt 0.352140 0.473617
vt 0.173671 0.110366
vt 0.173671 0.110366
vt 0.173671 0.110366
vt 0.173671 0.110366
vt 0.208995 0.110366
vt 0.208995 0.110366
vt 0.208995 0.110366
vt 0.208995 0.110366
vt 0.173671 0.110366
vt 0.173671 0.110366
vt 0.173671 0.110366
vt 0.173671 0.110366
vt 0.293267 0.473617
vt 0.293267 0.473617
vt 0.293267 0.473617
vt 0.293267 0.473617
vt 0.148944 0.110366
vt 0.148944 0.110366
vt 0.148944 0.110366
vt 0.148944 0.110366
vt 0.148944 0.110366
vt 0.148944 0.110366
vt 0.148944 0.110366
vt 0.148944 0.110366
vt 0.294350 0.111129
vt 0.294350 0.111129
vt 0.294350 0.111129
vt 0.294350 0.111129
vt 0.269623 0.111129
vt 0.269623 0.111129
vt 0.269623 0.111129
vt 0.269623 0.111129
vt 0.294350 0.111129
vt 0.294350 0.111129
vt 0.294350 0.111129
vt 0.294350 0.111129
vt 0.269623 0.111129
vt 0.269623 0.111129
vt 0.269623 0.111129
vt 0.269623 0.111129
vt 0.267155 0.111129
vt 0.267155 0.111129
vt 0.267155 0.111129
vt 0.267155 0.111129
vt 0.242428 0.111129
vt 0.242428 0.111129
vt 0.242428 0.111129
vt 0.242428 0.111129
vt 0.267155 0.111129
vt 0.267155 0.111129
vt 0.267155 0.111129
vt 0.267155 0.111129
vt 0.242428 0.111129
vt 0.242428 0.111129
vt 0.242428 0.111129
vt 0.242428 0.111129
vt 0.263755 0.110366
vt 0.263755 0.110366
vt 0.263755 0.110366
vt 0.263755 0.110366
vt 0.327413 0.473617
vt 0.327413 0.473617
vt 0.327413 0.473617
vt 0.327413 0.473617
vt 0.352140 0.473617
vt 0.352140 0.473617
vt 0.352140 0.473617
vt 0.352140 0.473617
vt 0.327413 0.473617
vt 0.327413 0.473617
vt 0.327413 0.473617
vt 0.327413 0.473617
vt 0.352140 0.473617
vt 0.352140 0.473617
vt 0.352140 0.473617
vt 0.352140 0.473617
vt 0.352140 0.473617
vt 0.352140 0.473617
vt 0.352140 0.473617
vt 0.352140 0.473617
vn 0.000000 0.000000 -1.000000
vn 0.000000 0.000000 -1.000000
vn 0.000000 0.000000 -1.000000
vn 0.000000 0.000000 -1.000000
vn 0.000000 1.000000 0.000000
vn 0.000000 1.000000 0.000000
vn 0.000000 1.000000 0.000000
vn 0.000000 1.000000 0.000000
vn 0.000000 0.000000 1.000000
vn 0.000000 0.000000 1.000000
vn 0.000000 0.000000 1.000000
vn 0.000000 0.000000 1.000000
vn 0.000000 -1.000000 0.000000
vn 0.000000 -1.000000 0.000000
vn 0.000000 -1.000000 0.000000
vn 0.000000 -1.000000 0.000000
vn -1.000000 0.000000 0.000000
vn -1.000000 0.000000 0.000000
vn -1.000000 0.000000 0.000000
vn -1.000000 0.000000 0.000000
vn 1.000000 0.000000 0.000000
vn 1.000000 0.000000 0.000000
vn 1.000000 0.000000 0.000000
vn 1.000000 0.000000 0.000000
vn 0.000000 0.477079 -0.878861
vn 0.000000 0.477079 -0.878861
vn 0.000000 0.477079 -0.878861
vn 0.000000 0.477079 -0.878861
vn -0.878868 0.477065 0.000000
vn -0.878868 0.477065 0.000000
vn -0.878868 0.477065 0.000000
vn -0.878868 0.477065 0.000000
vn 0.000000 0.477093 0.878853
vn 0.000000 0.477093 0.878853
vn 0.000000 0.477093 0.878853
vn 0.000000 0.477093 0.878853
vn 0.878860 0.477079 0.000000
vn 0.878861 0.477079 0.000000
vn 0.878860 0.477079 0.000000
vn 0.878860 0.477079 0.000000
vn 0.000000 0.000000 -1.000000
vn 0.000000 0.000000 -1.000000
vn 0.000000 0.000000 -1.000000
vn 0.000000 0.000000 -1.000000
vn -1.000000 0.000000 0.000000
vn -1.000000 0.000000 0.000000
vn -1.000000 0.000000 0.000000
vn -1.000000 0.000000 0.000000
vn 0.000000 0.000000 1.000000
vn 0.000000 0.000000 1.000000
vn 0.000000 0.000000 1.000000
vn 0.000000 0.000000 1.000000
vn 1.000000 0.000000 0.000000
vn 1.000000 0.000000 0.000000
vn 1.000000 0.000000 0.000000
vn 1.000000 0.000000 0.000000
vn 0.000000 0.000000 -1.000000
vn 0.000000 0.000000 -1.000000
vn 0.000000 0.000000 -1.000000
vn 0.000000 0.000000 -1.000000
vn -1.000000 0.000000 0.000000
vn -1.000000 0.000000 0.000000
vn -1.000000 0.000000 0.000000
vn -1.000000 0.000000 0.000000
vn 0.000000 0.000000 1.000000
vn 0.000000 0.000000 1.000000
vn 0.000000 0.000000 1.000000
vn 0.000000 0.000000 1.000000
vn 1.000000 0.000000 0.000000
vn 1.000000 0.000000 0.000000
vn 1.000000 0.000000 0.000000
vn 1.000000 0.000000 0.000000
vn 0.000000 0.000000 -1.000000
vn 0.000000 0.000000 -1.000000
vn 0.000000 0.000000 -1.000000
vn 0.000000 0.000000 -1.000000
vn 0.000000 0.000000 -1.000000
vn 0.000000 0.000000 -1.000000
vn 0.000000 0.000000 -1.000000
vn 0.000000 0.000000 -1.000000
vn 0.000000 0.000000 -1.000000
vn 0.000000 0.000000 -1.000000
vn 0.000000 0.000000 -1.000000
vn 0.000000 0.000000 -1.000000
vn -0.000000 0.000000 -1.000000
vn -0.000000 0.000000 -1.000000
vn -0.000000 0.000000 -1.000000
vn -0.000000 0.000000 -1.000000
vn 0.000000 0.000000 -1.000000
vn 0.000000 0.000000 -1.000000
vn 0.000000 0.000000 -1.000000
vn 0.000000 0.000000 -1.000000
vn 0.000000 1.000000 0.000000
vn 0.000000 1.000000 0.000000
vn 0.000000 1.000000 0.000000
vn 0.000000 1.000000 0.000000
vn 0.000000 0.000000 1.000000
vn 0.000000 0.000000 1.000000
vn 0.000000 0.000000 1.000000
vn 0.000000 0.000000 1.000000
vn 0.000000 -1.000000 0.000000
vn 0.000000 -1.000000 0.000000
vn 0.000000 -1.000000 0.000000
vn 0.000000 -1.000000 0.000000
vn -1.000000 0.000000 0.000000
vn -1.000000 0.000000 0.000000
vn -1.000000 0.000000 0.000000
vn -1.000000 0.000000 0.000000
vn 1.000000 0.000000 0.000000
vn 1.000000 0.000000 0.000000
vn 1.000000 0.000000 0.000000
vn 1.000000 0.000000 0.000000
vn 0.000000 0.477079 -0.878861
vn 0.000000 0.477079 -0.878861
vn 0.000000 0.477079 -0.878861
vn 0.000000 0.477079 -0.878861
vn -0.878860 0.477079 0.000000
vn -0.878860 0.477079 0.000000
vn -0.878861 0.477079 0.000000
vn -0.878860 0.477079 0.000000
vn 0.000000 0.477093 0.878853
vn 0.000000 0.477093 0.878853
vn 0.000000 0.477093 0.878853
vn 0.000000 0.477093 0.878853
vn 0.878853 0.477093 0.000001
vn 0.878853 0.477093 0.000001
vn 0.878853 0.477093 0.000001
vn 0.878853 0.477093 0.000001
vn 0.000000 0.000000 -1.000000
vn 0.000000 0.000000 -1.000000
vn 0.000000 0.000000 -1.000000
vn 0.000000 0.000000 -1.000000
vn -1.000000 0.000000 0.000000
vn -1.000000 0.000000 0.000000
vn -1.000000 0.000000 0.000000
vn -1.000000 0.000000 0.000000
vn 0.000000 0.000000 1.000000
vn 0.000000 0.000000 1.000000
vn 0.000000 0.000000 1.000000
vn 0.000000 0.000000 1.000000
vn 1.000000 0.000000 0.000000
vn 1.000000 0.000000 0.000000
vn 1.000000 0.000000 0.000000
vn 1.000000 0.000000 0.000000
vn 0.000000 0.000000 -1.000000
vn 0.000000 0.000000 -1.000000
vn 0.000000 0.000000 -1.000000
vn 0.000000 0.000000 -1.000000
vn -1.000000 0.000000 0.000000
vn -1.000000 0.000000 0.000000
vn -1.000000 0.000000 0.000000
vn -1.000000 0.000000 0.000000
vn 0.000000 0.000000 1.000000
vn 0.000000 0.000000 1.000000
vn 0.000000 0.000000 1.000000
vn 0.000000 0.000000 1.000000
vn 1.000000 0.000000 0.000000
vn 1.000000 0.000000 0.000000
vn 1.000000 0.000000 0.000000
vn 1.000000 0.000000 0.000000
vn 0.000000 0.000000 -1.000000
vn 0.000000 0.000000 -1.000000
vn 0.000000 0.000000 -1.000000
vn 0.000000 0.000000 -1.000000
vn -0.000000 0.000000 -1.000000
vn -0.000000 0.000000 -1.000000
vn -0.000000 0.000000 -1.000000
vn -0.000000 0.000000 -1.000000
vn 0.000000 0.000000 -1.000000
vn 0.000000 0.000000 -1.000000
vn 0.000000 0.000000 -1.000000
vn 0.000000 0.000000 -1.000000
vn 0.000000 0.000000 -1.000000
vn 0.000000 0.000000 -1.000000
vn 0.000000 0.000000 -1.000000
vn 0.000000 0.000000 -1.000000
vn 0.145188 0.000000 -0.989404
vn 0.145188 0.000000 -0.989404
vn 0.145188 0.000000 -0.989404
vn 0.145188 0.000000 -0.989404
vn 0.000000 1.000000 -0.000000
vn 0.000000 1.000000 -0.000000
vn 0.000000 1.000000 -0.000000
vn 0.000000 1.000000 -0.000000
vn -0.145189 0.000000 0.989404
vn -0.145189 0.000000 0.989404
vn -0.145189 0.000000 0.989404
vn -0.145189 0.000000 0.989404
vn 0.000000 -1.000000 0.000000
vn 0.000000 -1.000000 0.000000
vn 0.000000 -1.000000 0.000000
vn 0.000000 -1.000000 0.000000
vn -0.989404 0.000000 -0.145189
vn -0.989404 0.000000 -0.145189
vn -0.989404 0.000000 -0.145190
vn -0.989404 0.000000 -0.145190
vn 0.989402 0.000000 0.145200
vn 0.989402 0.000000 0.145200
vn 0.989402 0.000000 0.145200
vn 0.989402 0.000000 0.145200
vn 0.127601 0.477084 -0.869545
vn 0.127601 0.477084 -0.869545
vn 0.127601 0.477084 -0.869545
vn 0.127601 0.477084 -0.869545
vn -0.869545 0.477084 -0.127602
vn -0.869545 0.477084 -0.127602
vn -0.869545 0.477084 -0.127602
vn -0.869545 0.477084 -0.127602
vn -0.127602 0.477084 0.869545
vn -0.127602 0.477084 0.869545
vn -0.127602 0.477084 0.869545
vn -0.127602 0.477084 0.869545
vn 0.869544 0.477084 0.127610
vn 0.869544 0.477084 0.127610
vn 0.869544 0.477084 0.127610
vn 0.869544 0.477084 0.127610
vn 0.145191 0.000000 -0.989404
vn 0.145191 0.000000 -0.989404
vn 0.145191 0.000000 -0.989404
vn 0.145191 0.000000 -0.989404
vn -0.989404 0.000000 -0.145192
vn -0.989404 0.000000 -0.145192
vn -0.989404 0.000000 -0.145192
vn -0.989404 0.000000 -0.145192
vn -0.145192 0.000000 0.989404
vn -0.145192 0.000000 0.989404
vn -0.145192 0.000000 0.989404
vn -0.145192 0.000000 0.989404
vn 0.989403 0.000000 0.145198
vn 0.989403 0.000000 0.145198
vn 0.989403 0.000000 0.145198
vn 0.989403 0.000000 0.145198
vn 0.145190 0.000000 -0.989404
vn 0.145190 0.000000 -0.989404
vn 0.145190 0.000000 -0.989404
vn 0.145190 0.000000 -0.989404
vn -0.989404 0.000000 -0.145192
vn -0.989404 0.000000 -0.145192
vn -0.989404 0.000000 -0.145192
vn -0.989404 0.000000 -0.145192
vn -0.145192 0.000000 0.989404
vn -0.145192 0.000000 0.989404
vn -0.145192 0.000000 0.989404
vn -0.145192 0.000000 0.989404
vn 0.989403 0.000000 0.145198
vn 0.989403 0.000000 0.145198
vn 0.989403 0.000000 0.145198
vn 0.989403 0.000000 0.145198
vn 0.145191 -0.000009 -0.989404
vn 0.145191 -0.000009 -0.989404
vn 0.145191 -0.000009 -0.989404
vn 0.145191 -0.000009 -0.989404
vn 0.145179 0.000000 -0.989405
vn 0.145179 0.000000 -0.989405
vn 0.145179 0.000000 -0.989405
vn 0.145179 0.000000 -0.989405
vn 0.145191 0.000009 -0.989404
vn 0.145191 0.000009 -0.989404
vn 0.145191 0.000009 -0.989404
vn 0.145191 0.000009 -0.989404
vn 0.145203 0.000000 -0.989402
vn 0.145203 0.000000 -0.989402
vn 0.145203 0.000000 -0.989402
vn 0.145203 0.000000 -0.989402
s off
f 9/26/1 10/49/2 4/22/3 3/17/4
f 3/3/5 4/15/6 6/6/7 5/18/8
f 5/5/9 6/16/10 11/56/11 12/53/12
f 7/7/13 8/19/14 2/10/15 1/9/16
f 10/28/17 11/55/18 6/12/19 4/4/20
f 12/54/21 9/51/22 3/24/23 5/14/24
f 13/34/25 14/47/26 10/27/27 9/52/28
f 14/48/29 15/45/30 11/30/31 10/50/32
f 12/32/33 11/29/34 15/46/35 16/41/36
f 16/42/37 13/33/38 9/25/39 12/31/40
f 17/58/41 18/71/42 14/35/43 13/43/44
f 18/72/45 19/69/46 15/38/47 14/36/48
f 16/40/49 15/37/50 19/70/51 20/65/52
f 20/66/53 17/57/54 13/44/55 16/39/56
f 21/73/57 22/80/58 23/79/59 24/78/60
f 2/21/61 8/11/62 19/62/63 18/60/64
f 20/64/65 19/61/66 8/8/67 7/20/68
f 7/13/69 1/1/70 17/68/71 20/63/72
f 1/23/73 2/2/74 22/74/75 21/77/76
f 2/2/77 18/59/78 23/75/79 22/74/80
f 18/59/81 17/67/82 24/76/83 23/75/84
f 17/67/85 1/23/86 21/77/87 24/76/88
f 33/81/89 34/82/90 28/83/91 27/84/92
f 27/85/93 28/86/94 30/87/95 29/88/96
f 29/89/97 30/90/98 35/91/99 36/92/100
f 31/93/101 32/94/102 26/95/103 25/96/104
f 34/97/105 35/98/106 30/99/107 28/100/108
f 36/101/109 33/102/110 27/103/111 29/104/112
f 37/105/113 38/106/114 34/107/115 33/108/116
f 38/109/117 39/110/118 35/111/119 34/112/120
f 36/113/121 35/114/122 39/115/123 40/116/124
f 40/117/125 37/118/126 33/119/127 36/120/128
f 41/121/129 42/122/130 38/123/131 37/124/132
f 42/125/133 43/126/134 39/127/135 38/128/136
f 40/129/137 39/130/138 43/131/139 44/132/140
f 44/133/141 41/134/142 37/135/143 40/136/144
f 45/137/145 46/138/146 47/139/147 48/140/148
f 26/141/149 32/142/150 43/143/151 42/144/152
f 44/145/153 43/146/154 32/147/155 31/148/156
f 31/149/157 25/150/158 41/151/159 44/152/160
f 25/153/161 26/154/162 46/155/163 45/156/164
f 26/154/165 42/157/166 47/158/167 46/155/168
f 42/157/169 41/159/170 48/160/171 47/158/172
f 41/159/173 25/153/174 45/156/175 48/160/176
f 57/161/177 58/162/178 52/163/179 51/164/180
f 51/165/181 52/166/182 54/167/183 53/168/184
f 53/169/185 54/170/186 59/171/187 60/172/188
f 55/173/189 56/174/190 50/175/191 49/176/192
f 58/177/193 59/178/194 54/179/195 52/180/196
f 60/181/197 57/182/198 51/183/199 53/184/200
f 61/185/201 62/186/202 58/187/203 57/188/204
f 62/189/205 63/190/206 59/191/207 58/192/208
f 60/193/209 59/194/210 63/195/211 64/196/212
f 64/197/213 61/198/214 57/199/215 60/200/216
f 65/201/217 66/202/218 62/203/219 61/204/220
f 66/205/221 67/206/222 63/207/223 62/208/224
f 64/209/225 63/210/226 67/211/227 68/212/228
f 68/213/229 65/214/230 61/215/231 64/216/232
f 69/217/233 70/218/234 71/219/235 72/220/236
f 50/221/237 56/222/238 67/223/239 66/224/240
f 68/225/241 67/226/242 56/227/243 55/228/244
f 55/229/245 49/230/246 65/231/247 68/232/248
f 49/233/249 50/234/250 70/235/251 69/236/252
f 50/234/253 66/237/254 71/238/255 70/235/256
f 66/237/257 65/239/258 72/240/259 71/238/260
f 65/239/261 49/233/262 69/236/263 72/240/264
