# This file uses centimeters as units for non-parametric coordinates.

v -2.562369 1.734308 0.143236
v 2.562371 1.734308 0.143236
v -2.562369 1.790447 0.143236
v 2.562371 1.790447 0.143236
v -2.562369 1.790447 -0.000000
v 2.562371 1.790447 -0.000000
v -2.562369 1.734308 -0.000000
v 2.562371 1.734308 -0.000000
v -2.479177 1.790447 0.063042
v 2.479179 1.790447 0.063042
v 2.479179 1.790447 0.000000
v -2.479177 1.790447 0.000000
v -2.479177 1.734308 0.000000
v 2.479179 1.734308 0.000000
v 2.479179 1.734308 0.063042
v -2.479177 1.734308 0.063042
v -2.562369 0.862747 0.143236
v 2.562371 0.862747 0.143236
v -2.562369 0.918887 0.143236
v 2.562371 0.918887 0.143236
v -2.562369 0.918887 -0.000000
v 2.562371 0.918887 -0.000000
v -2.562369 0.862747 -0.000000
v 2.562371 0.862747 -0.000000
v -2.479177 0.918887 0.063042
v 2.479179 0.918887 0.063042
v 2.479179 0.918887 0.000000
v -2.479177 0.918887 0.000000
v -2.479177 0.862747 0.000000
v 2.479179 0.862747 0.000000
v 2.479179 0.862747 0.063042
v -2.479177 0.862747 0.063042
vt 0.203603 0.061525
vt 0.170777 0.061525
vt 0.203603 0.061525
vt 0.268599 0.061525
vt 0.203603 0.061525
vt 0.203603 0.061525
vt 0.170777 0.061525
vt 0.236429 0.061525
vt 0.203603 0.061525
vt 0.203603 0.061525
vt 0.236429 0.061525
vt 0.170776 0.061525
vt 0.268599 0.061525
vt 0.203603 0.061525
vt 0.236429 0.061525
vt 0.268599 0.061525
vt 0.236429 0.061525
vt 0.203603 0.061525
vt 0.268599 0.061525
vt 0.268599 0.061525
vt 0.268599 0.061525
vt 0.170777 0.061525
vt 0.170777 0.061525
vt 0.170776 0.061525
vt 0.200320 0.061227
vt 0.170120 0.061426
vt 0.170120 0.061426
vt 0.170120 0.061426
vt 0.200320 0.061227
vt 0.170120 0.061426
vt 0.200320 0.061227
vt 0.170120 0.061426
vt 0.170120 0.061426
vt 0.170120 0.061426
vt 0.200320 0.061227
vt 0.170120 0.061426
vt 0.170776 0.061525
vt 0.268599 0.061525
vt 0.170777 0.061525
vt 0.268599 0.061525
vt 0.268599 0.061525
vt 0.170776 0.061525
vt 0.170776 0.061525
vt 0.170777 0.061525
vt 0.170776 0.061525
vt 0.268599 0.061525
vt 0.268599 0.061525
vt 0.268599 0.061525
vt 0.236429 0.061525
vt 0.236429 0.061525
vt 0.236429 0.061525
vt 0.236429 0.061525
vt 0.203603 0.061525
vt 0.203603 0.061525
vt 0.203603 0.061525
vt 0.203603 0.061525
vt 0.203603 0.061525
vt 0.203603 0.061525
vt 0.203603 0.061525
vt 0.203603 0.061525
vt 0.268599 0.061525
vt 0.268599 0.061525
vt 0.268599 0.061525
vt 0.268599 0.061525
vt 0.268599 0.061525
vt 0.268599 0.061525
vt 0.268599 0.061525
vt 0.268599 0.061525
vt 0.268599 0.061525
vt 0.268599 0.061525
vt 0.268599 0.061525
vt 0.268599 0.061525
vt 0.170777 0.061525
vt 0.170777 0.061525
vt 0.170777 0.061525
vt 0.170777 0.061525
vt 0.170777 0.061525
vt 0.170776 0.061525
vt 0.170776 0.061525
vt 0.170777 0.061525
vt 0.170776 0.061525
vt 0.170776 0.061525
vt 0.170776 0.061525
vt 0.170776 0.061525
vt 0.170120 0.061426
vt 0.170120 0.061426
vt 0.170120 0.061426
vt 0.170120 0.061426
vt 0.170120 0.061426
vt 0.170120 0.061426
vt 0.170120 0.061426
vt 0.170120 0.061426
vt 0.200320 0.061227
vt 0.200320 0.061227
vt 0.200320 0.061227
vt 0.200320 0.061227
vn 0.000000 0.000000 1.000000
vn 0.000000 0.000000 1.000000
vn 0.000000 0.000000 1.000000
vn 0.000000 0.000000 1.000000
vn 1.000000 0.000000 0.000000
vn 1.000000 0.000000 0.000000
vn 1.000000 0.000000 0.000000
vn 1.000000 0.000000 0.000000
vn -1.000000 0.000000 0.000000
vn -1.000000 0.000000 0.000000
vn -1.000000 0.000000 0.000000
vn -1.000000 0.000000 0.000000
vn 0.000000 1.000000 -0.000002
vn 0.000000 1.000000 -0.000002
vn 0.000000 1.000000 -0.000002
vn 0.000000 1.000000 -0.000002
vn 0.000000 1.000000 0.000000
vn 0.000000 1.000000 0.000000
vn 0.000000 1.000000 0.000000
vn 0.000000 1.000000 0.000000
vn 0.000000 1.000000 0.000000
vn 0.000000 1.000000 0.000000
vn 0.000000 1.000000 0.000000
vn 0.000000 1.000000 0.000000
vn 0.000000 -1.000000 0.000000
vn 0.000000 -1.000000 0.000000
vn 0.000000 -1.000000 0.000000
vn 0.000000 -1.000000 0.000000
vn 0.000000 -1.000000 -0.000000
vn 0.000000 -1.000000 -0.000000
vn 0.000000 -1.000000 -0.000000
vn 0.000000 -1.000000 -0.000000
vn 0.000000 -1.000000 0.000000
vn 0.000000 -1.000000 0.000000
vn 0.000000 -1.000000 0.000000
vn 0.000000 -1.000000 0.000000
vn 1.000000 0.000000 0.000000
vn 1.000000 0.000000 0.000000
vn 1.000000 0.000000 0.000000
vn 1.000000 0.000000 0.000000
vn -1.000000 0.000000 0.000000
vn -1.000000 0.000000 0.000000
vn -1.000000 0.000000 0.000000
vn -1.000000 0.000000 0.000000
vn 0.000000 0.000000 -1.000000
vn 0.000000 0.000000 -1.000000
vn 0.000000 0.000000 -1.000000
vn 0.000000 0.000000 -1.000000
vn 0.000000 0.000000 1.000000
vn 0.000000 0.000000 1.000000
vn 0.000000 0.000000 1.000000
vn 0.000000 0.000000 1.000000
vn 1.000000 0.000000 0.000000
vn 1.000000 0.000000 0.000000
vn 1.000000 0.000000 0.000000
vn 1.000000 0.000000 0.000000
vn -1.000000 0.000000 0.000000
vn -1.000000 0.000000 0.000000
vn -1.000000 0.000000 0.000000
vn -1.000000 0.000000 0.000000
vn 0.000000 1.000000 -0.000000
vn 0.000000 1.000000 -0.000000
vn 0.000000 1.000000 -0.000000
vn 0.000000 1.000000 -0.000000
vn 0.000000 1.000000 0.000000
vn 0.000000 1.000000 0.000000
vn 0.000000 1.000000 0.000000
vn 0.000000 1.000000 0.000000
vn 0.000000 1.000000 0.000000
vn 0.000000 1.000000 0.000000
vn 0.000000 1.000000 0.000000
vn 0.000000 1.000000 0.000000
vn 0.000000 -1.000000 0.000000
vn 0.000000 -1.000000 0.000000
vn 0.000000 -1.000000 0.000000
vn 0.000000 -1.000000 0.000000
vn 0.000000 -1.000000 0.000001
vn 0.000000 -1.000000 0.000001
vn 0.000000 -1.000000 0.000001
vn 0.000000 -1.000000 0.000001
vn 0.000000 -1.000000 0.000000
vn 0.000000 -1.000000 0.000000
vn 0.000000 -1.000000 0.000000
vn 0.000000 -1.000000 0.000000
vn 1.000000 0.000000 0.000000
vn 1.000000 0.000000 0.000000
vn 1.000000 0.000000 0.000000
vn 1.000000 0.000000 0.000000
vn -1.000000 0.000000 0.000000
vn -1.000000 0.000000 0.000000
vn -1.000000 0.000000 0.000000
vn -1.000000 0.000000 0.000000
vn 0.000000 0.000000 -1.000000
vn 0.000000 0.000000 -1.000000
vn 0.000000 0.000000 -1.000000
vn 0.000000 0.000000 -1.000000
s off
f 1/11/1 2/8/2 4/15/3 3/17/4
f 2/9/5 8/6/6 6/5/7 4/3/8
f 7/10/9 1/1/10 3/18/11 5/14/12
f 3/4/13 4/47/14 10/40/15 9/19/16
f 4/16/17 6/46/18 11/41/19 10/20/20
f 5/13/21 3/48/22 9/38/23 12/21/24
f 8/7/25 2/44/26 15/39/27 14/22/28
f 2/2/29 1/43/30 16/37/31 15/23/32
f 1/12/33 7/45/34 13/42/35 16/24/36
f 12/27/37 9/36/38 16/30/39 13/33/40
f 11/34/41 14/28/42 15/32/43 10/26/44
f 10/35/45 15/29/46 16/31/47 9/25/48
f 17/49/49 18/50/50 20/51/51 19/52/52
f 18/53/53 24/54/54 22/55/55 20/56/56
f 23/57/57 17/58/58 19/59/59 21/60/60
f 19/61/61 20/62/62 26/63/63 25/64/64
f 20/65/65 22/66/66 27/67/67 26/68/68
f 21/69/69 19/70/70 25/71/71 28/72/72
f 24/73/73 18/74/74 31/75/75 30/76/76
f 18/77/77 17/78/78 32/79/79 31/80/80
f 17/81/81 23/82/82 29/83/83 32/84/84
f 28/85/85 25/86/86 32/87/87 29/88/88
f 27/89/89 30/90/90 31/91/91 26/92/92
f 26/93/93 31/94/94 32/95/95 25/96/96
