# This file uses centimeters as units for non-parametric coordinates.

v -0.430042 0.000000 0.246920
v 0.430044 0.000000 0.246920
v -0.430042 0.234790 0.246920
v 0.430044 0.234790 0.246920
v -0.430042 0.234790 -0.226374
v 0.430044 0.234790 -0.226374
v -0.430042 0.000000 -0.226374
v 0.430044 0.000000 -0.226374
v -0.326389 0.048341 0.246920
v 0.326393 0.048341 0.246920
v 0.326393 0.186449 0.246920
v -0.326389 0.186449 0.246920
v -0.404299 0.235362 0.288626
v 0.451500 0.235362 0.202850
v -0.404299 0.470152 0.288626
v 0.451500 0.470152 0.202850
v -0.451500 0.470152 -0.182308
v 0.404299 0.470152 -0.268082
v -0.451500 0.235362 -0.182308
v 0.404299 0.235362 -0.268082
v -0.301163 0.283703 0.278288
v 0.348366 0.283703 0.213188
v 0.348366 0.421810 0.213188
v -0.301163 0.421810 0.278288
v -0.437418 0.470843 0.184029
v 0.421516 0.470843 0.228563
v -0.437418 0.705633 0.184029
v 0.421516 0.705633 0.228563
v -0.412910 0.705633 -0.288628
v 0.446024 0.705633 -0.244095
v -0.412910 0.470843 -0.288628
v 0.446024 0.470843 -0.244095
v -0.333904 0.519184 0.189396
v 0.318003 0.519184 0.223196
v 0.318003 0.657291 0.223196
v -0.333904 0.657291 0.189396
vt 0.232658 0.010528
vt 0.257384 0.010528
vt 0.292708 0.010528
vt 0.232658 0.010528
vt 0.257384 0.010528
vt 0.292708 0.010528
vt 0.198511 0.010528
vt 0.257384 0.010528
vt 0.198511 0.010528
vt 0.198511 0.010528
vt 0.232658 0.010528
vt 0.232658 0.010528
vt 0.232658 0.010528
vt 0.232658 0.010528
vt 0.292708 0.010528
vt 0.257384 0.010528
vt 0.257384 0.010528
vt 0.292708 0.010528
vt 0.198511 0.010528
vt 0.257384 0.010528
vt 0.232658 0.010528
vt 0.257384 0.010528
vt 0.257384 0.010528
vt 0.232658 0.010528
vt 0.360124 0.480035
vt 0.257384 0.010528
vt 0.257384 0.010528
vt 0.257384 0.010528
vt 0.257384 0.010528
vt 0.257384 0.010528
vt 0.257384 0.010528
vt 0.360124 0.480035
vt 0.257384 0.010528
vt 0.360124 0.480035
vt 0.257384 0.010528
vt 0.257384 0.010528
vt 0.360124 0.480035
vt 0.257384 0.010528
vt 0.257384 0.010528
vt 0.257384 0.010528
vt 0.360124 0.480035
vt 0.360124 0.480035
vt 0.360124 0.480035
vt 0.360124 0.480035
vt 0.292708 0.010528
vt 0.292708 0.010528
vt 0.292708 0.010528
vt 0.292708 0.010528
vt 0.257384 0.010528
vt 0.257384 0.010528
vt 0.257384 0.010528
vt 0.257384 0.010528
vt 0.198511 0.010528
vt 0.198511 0.010528
vt 0.198511 0.010528
vt 0.198511 0.010528
vt 0.232658 0.010528
vt 0.232658 0.010528
vt 0.232658 0.010528
vt 0.232658 0.010528
vt 0.232658 0.010528
vt 0.232658 0.010528
vt 0.232658 0.010528
vt 0.232658 0.010528
vt 0.257384 0.010528
vt 0.257384 0.010528
vt 0.257384 0.010528
vt 0.257384 0.010528
vt 0.257384 0.010528
vt 0.257384 0.010528
vt 0.257384 0.010528
vt 0.257384 0.010528
vt 0.257384 0.010528
vt 0.257384 0.010528
vt 0.257384 0.010528
vt 0.257384 0.010528
vt 0.257384 0.010528
vt 0.257384 0.010528
vt 0.257384 0.010528
vt 0.257384 0.010528
vt 0.360124 0.480035
vt 0.360124 0.480035
vt 0.360124 0.480035
vt 0.360124 0.480035
vt 0.292708 0.010528
vt 0.292708 0.010528
vt 0.292708 0.010528
vt 0.292708 0.010528
vt 0.257384 0.010528
vt 0.257384 0.010528
vt 0.257384 0.010528
vt 0.257384 0.010528
vt 0.198511 0.010528
vt 0.198511 0.010528
vt 0.198511 0.010528
vt 0.198511 0.010528
vt 0.232658 0.010528
vt 0.232658 0.010528
vt 0.232658 0.010528
vt 0.232658 0.010528
vt 0.232658 0.010528
vt 0.232658 0.010528
vt 0.232658 0.010528
vt 0.232658 0.010528
vt 0.257384 0.010528
vt 0.257384 0.010528
vt 0.257384 0.010528
vt 0.257384 0.010528
vt 0.257384 0.010528
vt 0.257384 0.010528
vt 0.257384 0.010528
vt 0.257384 0.010528
vt 0.257384 0.010528
vt 0.257384 0.010528
vt 0.257384 0.010528
vt 0.257384 0.010528
vt 0.257384 0.010528
vt 0.257384 0.010528
vt 0.257384 0.010528
vt 0.257384 0.010528
vn 0.000000 0.000000 1.000000
vn 0.000000 0.000000 1.000000
vn 0.000000 0.000000 1.000000
vn 0.000000 0.000000 1.000000
vn 0.000000 1.000000 0.000000
vn 0.000000 1.000000 0.000000
vn 0.000000 1.000000 0.000000
vn 0.000000 1.000000 0.000000
vn 0.000000 0.000000 -1.000000
vn 0.000000 0.000000 -1.000000
vn 0.000000 0.000000 -1.000000
vn 0.000000 0.000000 -1.000000
vn 0.000000 -1.000000 0.000000
vn 0.000000 -1.000000 0.000000
vn 0.000000 -1.000000 0.000000
vn 0.000000 -1.000000 0.000000
vn 1.000000 0.000000 0.000000
vn 1.000000 0.000000 0.000000
vn 1.000000 0.000000 0.000000
vn 1.000000 0.000000 0.000000
vn -1.000000 0.000000 0.000000
vn -1.000000 0.000000 0.000000
vn -1.000000 0.000000 0.000000
vn -1.000000 0.000000 0.000000
vn 0.000000 0.000000 1.000000
vn 0.000000 0.000000 1.000000
vn 0.000000 0.000000 1.000000
vn 0.000000 0.000000 1.000000
vn -0.000000 0.000000 1.000000
vn -0.000000 0.000000 1.000000
vn -0.000000 0.000000 1.000000
vn -0.000000 0.000000 1.000000
vn 0.000000 0.000000 1.000000
vn 0.000000 0.000000 1.000000
vn 0.000000 0.000000 1.000000
vn 0.000000 0.000000 1.000000
vn 0.000000 0.000000 1.000000
vn 0.000000 0.000000 1.000000
vn 0.000000 0.000000 1.000000
vn 0.000000 0.000000 1.000000
vn 0.099726 0.000000 0.995015
vn 0.099726 0.000000 0.995015
vn 0.099726 0.000000 0.995015
vn 0.099726 0.000000 0.995015
vn 0.000000 1.000000 0.000000
vn 0.000000 1.000000 0.000000
vn 0.000000 1.000000 0.000000
vn 0.000000 1.000000 0.000000
vn -0.099727 0.000000 -0.995015
vn -0.099727 0.000000 -0.995015
vn -0.099727 0.000000 -0.995015
vn -0.099727 0.000000 -0.995015
vn 0.000000 -1.000000 0.000000
vn 0.000000 -1.000000 0.000000
vn 0.000000 -1.000000 0.000000
vn 0.000000 -1.000000 0.000000
vn 0.995015 0.000000 -0.099730
vn 0.995015 0.000000 -0.099730
vn 0.995015 0.000000 -0.099730
vn 0.995015 0.000000 -0.099730
vn -0.995015 0.000000 0.099729
vn -0.995015 0.000000 0.099729
vn -0.995015 0.000000 0.099729
vn -0.995015 0.000000 0.099729
vn 0.099728 -0.000002 0.995015
vn 0.099728 -0.000002 0.995015
vn 0.099728 -0.000002 0.995015
vn 0.099728 -0.000002 0.995015
vn 0.099737 0.000000 0.995014
vn 0.099737 0.000000 0.995014
vn 0.099737 0.000000 0.995014
vn 0.099737 0.000000 0.995014
vn 0.099728 0.000002 0.995015
vn 0.099728 0.000002 0.995015
vn 0.099728 0.000002 0.995015
vn 0.099728 0.000002 0.995015
vn 0.099735 0.000000 0.995014
vn 0.099735 0.000000 0.995014
vn 0.099735 0.000000 0.995014
vn 0.099735 0.000000 0.995014
vn -0.051779 0.000000 0.998659
vn -0.051779 0.000000 0.998659
vn -0.051779 0.000000 0.998659
vn -0.051779 0.000000 0.998659
vn 0.000000 1.000000 -0.000000
vn 0.000000 1.000000 -0.000000
vn 0.000000 1.000000 -0.000000
vn 0.000000 1.000000 -0.000000
vn 0.051777 0.000000 -0.998659
vn 0.051777 0.000000 -0.998659
vn 0.051777 0.000000 -0.998659
vn 0.051777 0.000000 -0.998659
vn 0.000000 -1.000000 0.000000
vn 0.000000 -1.000000 0.000000
vn 0.000000 -1.000000 0.000000
vn 0.000000 -1.000000 0.000000
vn 0.998658 0.000000 0.051781
vn 0.998658 0.000000 0.051781
vn 0.998658 0.000000 0.051781
vn 0.998658 0.000000 0.051781
vn -0.998658 0.000000 -0.051781
vn -0.998658 0.000000 -0.051781
vn -0.998658 0.000000 -0.051781
vn -0.998658 0.000000 -0.051781
vn -0.051779 0.000000 0.998659
vn -0.051779 0.000000 0.998659
vn -0.051779 0.000000 0.998659
vn -0.051779 0.000000 0.998659
vn -0.051781 0.000000 0.998658
vn -0.051781 0.000000 0.998658
vn -0.051781 0.000000 0.998658
vn -0.051781 0.000000 0.998658
vn -0.051779 0.000000 0.998659
vn -0.051779 0.000000 0.998659
vn -0.051779 0.000000 0.998659
vn -0.051779 0.000000 0.998659
vn -0.051781 0.000000 0.998658
vn -0.051781 0.000000 0.998658
vn -0.051781 0.000000 0.998658
vn -0.051781 0.000000 0.998658
s off
f 9/25/1 10/37/2 11/34/3 12/32/4
f 3/3/5 4/15/6 6/6/7 5/18/8
f 5/5/9 6/16/10 8/8/11 7/20/12
f 7/7/13 8/19/14 2/10/15 1/9/16
f 2/21/17 8/11/18 6/12/19 4/4/20
f 7/13/21 1/1/22 3/24/23 5/14/24
f 1/23/25 2/39/26 10/36/27 9/29/28
f 2/2/29 4/38/30 11/33/31 10/26/32
f 4/22/33 3/35/34 12/31/35 11/27/36
f 3/17/37 1/40/38 9/30/39 12/28/40
f 21/41/41 22/42/42 23/43/43 24/44/44
f 15/45/45 16/46/46 18/47/47 17/48/48
f 17/49/49 18/50/50 20/51/51 19/52/52
f 19/53/53 20/54/54 14/55/55 13/56/56
f 14/57/57 20/58/58 18/59/59 16/60/60
f 19/61/61 13/62/62 15/63/63 17/64/64
f 13/65/65 14/66/66 22/67/67 21/68/68
f 14/69/69 16/70/70 23/71/71 22/72/72
f 16/73/73 15/74/74 24/75/75 23/76/76
f 15/77/77 13/78/78 21/79/79 24/80/80
f 33/81/81 34/82/82 35/83/83 36/84/84
f 27/85/85 28/86/86 30/87/87 29/88/88
f 29/89/89 30/90/90 32/91/91 31/92/92
f 31/93/93 32/94/94 26/95/95 25/96/96
f 26/97/97 32/98/98 30/99/99 28/100/100
f 31/101/101 25/102/102 27/103/103 29/104/104
f 25/105/105 26/106/106 34/107/107 33/108/108
f 26/109/109 28/110/110 35/111/111 34/112/112
f 28/113/113 27/114/114 36/115/115 35/116/116
f 27/117/117 25/118/118 33/119/119 36/120/120
