# This file uses centimeters as units for non-parametric coordinates.

v -0.070624 0.041830 0.004638
v -0.041489 0.041830 0.012443
v -0.059471 0.041830 -0.036982
v -0.030335 0.041830 -0.029176
v -0.059471 0.026104 -0.036982
v -0.070624 0.026104 0.004638
v -0.041489 0.026104 0.012443
v -0.030335 0.026104 -0.029176
v -0.064100 0.000000 -0.049708
v -0.019964 0.000000 -0.037883
v -0.044383 0.000000 0.053241
v -0.088517 0.000000 0.041417
v -0.088517 0.026104 0.041417
v -0.064100 0.026104 -0.049708
v -0.044383 0.026104 0.053241
v -0.019964 0.026104 -0.037883
v -0.095338 0.202366 0.051152
v 0.095338 0.202366 0.051152
v 0.095338 0.202367 -0.086207
v -0.095338 0.202367 -0.086207
v 0.095338 0.072108 0.051152
v 0.095338 0.072108 -0.086207
v -0.095338 0.072108 -0.086207
v -0.095338 0.072108 0.051152
v -0.068171 0.072108 -0.111356
v -0.068172 0.202367 -0.111356
v -0.068172 0.230493 -0.086207
v -0.068172 0.230493 0.051152
v -0.068172 0.202366 0.079320
v -0.068172 0.072108 0.079320
v -0.068172 0.039814 0.051152
v -0.068172 0.039814 -0.086207
v 0.067706 0.039814 -0.086207
v 0.067706 0.039814 0.051152
v 0.067706 0.072108 0.079320
v 0.067706 0.202366 0.079320
v 0.067706 0.230493 0.051152
v 0.067706 0.230493 -0.086207
v 0.067706 0.202367 -0.111356
v 0.067706 0.072108 -0.111356
v -0.016967 0.230493 -0.053321
v -0.016967 0.230493 0.032800
v 0.016503 0.230493 0.032800
v 0.016503 0.230493 -0.053321
v -0.016967 0.268320 -0.053321
v -0.016967 0.291922 0.032800
v 0.016503 0.291922 0.032800
v 0.016503 0.268320 -0.053321
v 0.016503 0.291922 -0.014563
v -0.016967 0.291922 -0.014563
v 0.016503 0.268320 -0.014563
v -0.016967 0.268320 -0.014563
v -0.035066 0.115453 0.079320
v -0.000968 0.081355 0.079320
v 0.034600 0.116924 0.079320
v 0.000503 0.151021 0.079320
v -0.000232 0.116188 0.111350
v 0.033680 0.139096 0.085069
v 0.050888 0.139096 0.085069
v 0.033680 0.156087 0.085069
v 0.050888 0.156087 0.085069
v 0.033680 0.156087 0.075406
v 0.050888 0.156087 0.075406
v 0.033680 0.139096 0.075406
v 0.050888 0.139096 0.075406
v -0.052983 0.139096 0.085069
v -0.035776 0.139096 0.085069
v -0.052983 0.156087 0.085069
v -0.035776 0.156087 0.085069
v -0.052983 0.156087 0.075406
v -0.035776 0.156087 0.075406
v -0.052983 0.139096 0.075406
v -0.035776 0.139096 0.075406
v 0.040646 0.041830 0.012443
v 0.069781 0.041830 0.004638
v 0.029493 0.041830 -0.029181
v 0.058628 0.041830 -0.036988
v 0.029493 0.026104 -0.029181
v 0.040646 0.026104 0.012443
v 0.069781 0.026104 0.004638
v 0.058628 0.026104 -0.036988
v 0.019122 0.000000 -0.037883
v 0.063257 0.000000 -0.049708
v 0.087674 0.000000 0.041417
v 0.043539 0.000000 0.053241
v 0.043539 0.026104 0.053241
v 0.019122 0.026104 -0.037883
v 0.087674 0.026104 0.041417
v 0.063257 0.026104 -0.049708
v 0.037813 0.133156 0.079320
v 0.063163 0.133156 0.079320
v 0.063089 0.111314 0.079320
v 0.037675 0.111314 0.079320
v -0.038213 0.133156 0.079320
v -0.063617 0.133156 0.079320
v -0.038397 0.111314 0.079320
v -0.063698 0.111314 0.079320
vt 0.271323 0.379255
vt 0.296050 0.379255
vt 0.331374 0.379255
vt 0.271323 0.379255
vt 0.296050 0.379255
vt 0.331374 0.379255
vt 0.237177 0.379255
vt 0.296050 0.379255
vt 0.237177 0.379255
vt 0.237176 0.379255
vt 0.271323 0.379255
vt 0.271323 0.379255
vt 0.271323 0.379255
vt 0.271323 0.379255
vt 0.331374 0.379255
vt 0.296050 0.379255
vt 0.296050 0.379255
vt 0.331374 0.379255
vt 0.237176 0.379255
vt 0.296050 0.379255
vt 0.271323 0.379255
vt 0.296050 0.379255
vt 0.296050 0.379255
vt 0.271323 0.379255
vt 0.271323 0.379255
vt 0.322569 0.379602
vt 0.322569 0.379602
vt 0.296050 0.379255
vt 0.322569 0.379602
vt 0.271323 0.379255
vt 0.296050 0.379255
vt 0.322569 0.379602
vt 0.271323 0.379255
vt 0.322569 0.379602
vt 0.296050 0.379255
vt 0.296050 0.379255
vt 0.271323 0.379255
vt 0.271323 0.379255
vt 0.322569 0.379602
vt 0.296050 0.379255
vt 0.322569 0.379602
vt 0.322569 0.379602
vt 0.271323 0.379255
vt 0.296050 0.379255
vt 0.322569 0.379602
vt 0.322569 0.379602
vt 0.271323 0.379255
vt 0.322569 0.379602
vt 0.322569 0.379602
vt 0.322569 0.379602
vt 0.296050 0.379255
vt 0.322569 0.379602
vt 0.296050 0.379255
vt 0.322569 0.379602
vt 0.271323 0.379255
vt 0.322569 0.379602
vt 0.302155 0.167785
vt 0.302155 0.167785
vt 0.302155 0.167785
vt 0.302155 0.167785
vt 0.396744 0.219584
vt 0.396744 0.219584
vt 0.396744 0.219584
vt 0.396744 0.219584
vt 0.231053 0.219584
vt 0.231053 0.219584
vt 0.231053 0.219584
vt 0.231053 0.219584
vt 0.332125 0.219584
vt 0.332125 0.219584
vt 0.332125 0.219584
vt 0.332125 0.219584
vt 0.295673 0.219584
vt 0.295673 0.219584
vt 0.295673 0.219584
vt 0.295673 0.219584
vt 0.295673 0.219584
vt 0.295673 0.219584
vt 0.295673 0.219584
vt 0.295673 0.219584
vt 0.360292 0.219584
vt 0.360292 0.219584
vt 0.360292 0.219584
vt 0.360292 0.219584
vt 0.327154 0.219584
vt 0.327154 0.219584
vt 0.327154 0.219584
vt 0.327154 0.219584
vt 0.363606 0.219584
vt 0.363606 0.219584
vt 0.363606 0.219584
vt 0.396744 0.219584
vt 0.396744 0.219584
vt 0.396744 0.219584
vt 0.396744 0.219584
vt 0.363606 0.219584
vt 0.363606 0.219584
vt 0.363606 0.219584
vt 0.327154 0.219584
vt 0.327154 0.219584
vt 0.327154 0.219584
vt 0.327154 0.219584
vt 0.333782 0.219584
vt 0.333782 0.219584
vt 0.333782 0.219584
vt 0.333782 0.219584
vt 0.300643 0.219584
vt 0.300643 0.219584
vt 0.300643 0.219584
vt 0.269162 0.219584
vt 0.269162 0.219584
vt 0.269162 0.219584
vt 0.269162 0.219584
vt 0.300643 0.219584
vt 0.300643 0.219584
vt 0.300643 0.219584
vt 0.333782 0.219584
vt 0.333782 0.219584
vt 0.333782 0.219584
vt 0.333782 0.219584
vt 0.269162 0.219584
vt 0.269162 0.219584
vt 0.269162 0.219584
vt 0.269162 0.219584
vt 0.300643 0.219584
vt 0.300643 0.219584
vt 0.300643 0.219584
vt 0.327154 0.219584
vt 0.327154 0.219584
vt 0.327154 0.219584
vt 0.327154 0.219584
vt 0.363606 0.219584
vt 0.363606 0.219584
vt 0.363606 0.219584
vt 0.332125 0.219584
vt 0.332125 0.219584
vt 0.332125 0.219584
vt 0.332125 0.219584
vt 0.363606 0.219584
vt 0.363606 0.219584
vt 0.363606 0.219584
vt 0.327154 0.219584
vt 0.327154 0.219584
vt 0.327154 0.219584
vt 0.327154 0.219584
vt 0.300643 0.219584
vt 0.300643 0.219584
vt 0.300643 0.219584
vt 0.424083 0.219584
vt 0.424083 0.219584
vt 0.424083 0.219584
vt 0.424083 0.219584
vt 0.424083 0.219584
vt 0.424083 0.219584
vt 0.424083 0.219584
vt 0.424083 0.219584
vt 0.238081 0.170218
vt 0.238081 0.170218
vt 0.238081 0.170218
vt 0.238081 0.170218
vt 0.238081 0.170218
vt 0.238081 0.170218
vt 0.267280 0.167785
vt 0.267279 0.167785
vt 0.267279 0.167785
vt 0.267280 0.167785
vt 0.238081 0.170218
vt 0.238081 0.170218
vt 0.238081 0.170218
vt 0.238081 0.170218
vt 0.238081 0.170218
vt 0.238081 0.170218
vt 0.267280 0.167785
vt 0.267280 0.167785
vt 0.267280 0.167785
vt 0.267280 0.167785
vt 0.267280 0.167785
vt 0.267280 0.167785
vt 0.267280 0.167785
vt 0.267280 0.167785
vt 0.302155 0.167785
vt 0.302155 0.167785
vt 0.302155 0.167785
vt 0.302155 0.167785
vt 0.360292 0.219584
vt 0.360292 0.219584
vt 0.360292 0.219584
vt 0.360292 0.219584
vt 0.360292 0.219584
vt 0.360292 0.219584
vt 0.360292 0.219584
vt 0.360292 0.219584
vt 0.289227 0.374323
vt 0.289227 0.374323
vt 0.289227 0.374323
vt 0.289227 0.374323
vt 0.289227 0.374323
vt 0.289227 0.374323
vt 0.328198 0.374323
vt 0.328198 0.374323
vt 0.328198 0.374323
vt 0.328198 0.374323
vt 0.328198 0.374323
vt 0.328198 0.374323
vt 0.200145 0.063059
vt 0.200145 0.063059
vt 0.200145 0.063059
vt 0.200145 0.063059
vt 0.235469 0.063059
vt 0.235469 0.063059
vt 0.235469 0.063059
vt 0.235469 0.063059
vt 0.200145 0.063059
vt 0.200145 0.063059
vt 0.200145 0.063059
vt 0.200145 0.063059
vt 0.141272 0.063059
vt 0.141272 0.063059
vt 0.141272 0.063059
vt 0.141272 0.063059
vt 0.175418 0.063059
vt 0.175418 0.063059
vt 0.175418 0.063059
vt 0.175418 0.063059
vt 0.175418 0.063059
vt 0.175418 0.063059
vt 0.175418 0.063059
vt 0.175418 0.063059
vt 0.200145 0.063059
vt 0.200145 0.063059
vt 0.200145 0.063059
vt 0.200145 0.063059
vt 0.235469 0.063059
vt 0.235469 0.063059
vt 0.235469 0.063059
vt 0.235469 0.063059
vt 0.200145 0.063059
vt 0.200145 0.063059
vt 0.200145 0.063059
vt 0.200145 0.063059
vt 0.141272 0.063059
vt 0.141272 0.063059
vt 0.141272 0.063059
vt 0.141272 0.063059
vt 0.175418 0.063059
vt 0.175418 0.063059
vt 0.175418 0.063059
vt 0.175418 0.063059
vt 0.175418 0.063059
vt 0.175418 0.063059
vt 0.175418 0.063059
vt 0.175418 0.063059
vt 0.296050 0.379255
vt 0.296050 0.379255
vt 0.296050 0.379255
vt 0.296050 0.379255
vt 0.331374 0.379255
vt 0.331374 0.379255
vt 0.331374 0.379255
vt 0.331374 0.379255
vt 0.296050 0.379255
vt 0.296050 0.379255
vt 0.296050 0.379255
vt 0.296050 0.379255
vt 0.237177 0.379255
vt 0.237176 0.379255
vt 0.237176 0.379255
vt 0.237177 0.379255
vt 0.271323 0.379255
vt 0.271323 0.379255
vt 0.271323 0.379255
vt 0.271323 0.379255
vt 0.271323 0.379255
vt 0.271323 0.379255
vt 0.271323 0.379255
vt 0.271323 0.379255
vt 0.271323 0.379255
vt 0.271323 0.379255
vt 0.271323 0.379255
vt 0.271323 0.379255
vt 0.296050 0.379255
vt 0.296050 0.379255
vt 0.296050 0.379255
vt 0.296050 0.379255
vt 0.271323 0.379255
vt 0.271323 0.379255
vt 0.271323 0.379255
vt 0.271323 0.379255
vt 0.296050 0.379255
vt 0.296050 0.379255
vt 0.296050 0.379255
vt 0.296050 0.379255
vt 0.322569 0.379602
vt 0.322569 0.379602
vt 0.322569 0.379602
vt 0.322569 0.379602
vt 0.322569 0.379602
vt 0.322569 0.379602
vt 0.322569 0.379602
vt 0.322569 0.379602
vt 0.322569 0.379602
vt 0.322569 0.379602
vt 0.322569 0.379602
vt 0.322569 0.379602
vt 0.322569 0.379602
vt 0.322569 0.379602
vt 0.322569 0.379602
vt 0.322569 0.379602
vt 0.360292 0.219584
vt 0.360292 0.219584
vt 0.360292 0.219584
vt 0.360292 0.219584
vt 0.360292 0.219584
vt 0.360292 0.219584
vt 0.360292 0.219584
vt 0.360292 0.219584
vt 0.421123 0.374932
vt 0.421123 0.374932
vt 0.421123 0.374932
vt 0.421123 0.374932
vt 0.421896 0.375891
vt 0.421896 0.375891
vt 0.421896 0.375891
vt 0.421896 0.375891
vn -0.258757 0.000000 0.965943
vn -0.258757 0.000000 0.965943
vn -0.258757 0.000000 0.965943
vn -0.258757 0.000000 0.965943
vn 0.000000 1.000000 -0.000000
vn 0.000000 1.000000 -0.000000
vn 0.000000 1.000000 -0.000000
vn 0.000000 1.000000 -0.000000
vn 0.258786 0.000000 -0.965935
vn 0.258786 0.000000 -0.965935
vn 0.258786 0.000000 -0.965935
vn 0.258786 0.000000 -0.965935
vn 0.000000 -1.000000 0.000000
vn 0.000000 -1.000000 0.000000
vn 0.000000 -1.000000 0.000000
vn 0.000000 -1.000000 0.000000
vn 0.965916 0.000000 0.258854
vn 0.965916 0.000000 0.258854
vn 0.965916 0.000000 0.258854
vn 0.965916 0.000000 0.258854
vn -0.965918 0.000000 -0.258849
vn -0.965918 0.000000 -0.258849
vn -0.965918 0.000000 -0.258849
vn -0.965918 0.000000 -0.258849
vn -0.965926 0.000000 -0.258818
vn -0.965926 0.000000 -0.258818
vn -0.965926 0.000000 -0.258818
vn -0.965926 0.000000 -0.258818
vn -0.258777 0.000000 0.965937
vn -0.258777 0.000000 0.965937
vn -0.258777 0.000000 0.965937
vn -0.258777 0.000000 0.965937
vn 0.965920 0.000000 0.258842
vn 0.965920 0.000000 0.258842
vn 0.965920 0.000000 0.258842
vn 0.965920 0.000000 0.258842
vn 0.258806 0.000000 -0.965929
vn 0.258806 0.000000 -0.965929
vn 0.258806 0.000000 -0.965929
vn 0.258806 0.000000 -0.965929
vn 0.000000 1.000000 0.000000
vn 0.000000 1.000000 0.000000
vn 0.000000 1.000000 0.000000
vn 0.000000 1.000000 0.000000
vn 0.000000 1.000000 -0.000000
vn 0.000000 1.000000 -0.000000
vn 0.000000 1.000000 -0.000000
vn 0.000000 1.000000 -0.000000
vn 0.000000 1.000000 0.000000
vn 0.000000 1.000000 0.000000
vn 0.000000 1.000000 0.000000
vn 0.000000 1.000000 0.000000
vn 0.000000 1.000000 -0.000000
vn 0.000000 1.000000 -0.000000
vn 0.000000 1.000000 -0.000000
vn 0.000000 1.000000 -0.000000
vn 0.000000 1.000000 0.000000
vn 0.000000 1.000000 0.000000
vn 0.000000 1.000000 0.000000
vn 0.000000 1.000000 0.000000
vn 0.000000 0.666542 -0.745468
vn 0.000000 0.666542 -0.745468
vn 0.000000 0.666542 -0.745468
vn 0.000000 0.666542 -0.745468
vn 0.000000 -1.000000 0.000000
vn 0.000000 -1.000000 0.000000
vn 0.000000 -1.000000 0.000000
vn 0.000000 -1.000000 0.000000
vn -0.719274 0.694726 0.000000
vn -0.719274 0.694726 0.000000
vn -0.719274 0.694726 0.000000
vn -0.719274 0.694726 0.000000
vn -1.000000 0.000000 0.000000
vn -1.000000 0.000000 0.000000
vn -1.000000 0.000000 0.000000
vn -1.000000 0.000000 0.000000
vn 1.000000 0.000000 0.000000
vn 1.000000 0.000000 0.000000
vn 1.000000 0.000000 0.000000
vn 1.000000 0.000000 0.000000
vn 0.000000 0.000000 -1.000000
vn 0.000000 0.000000 -1.000000
vn 0.000000 0.000000 -1.000000
vn 0.000000 0.000000 -1.000000
vn -0.719785 0.000000 0.694197
vn -0.719785 0.000000 0.694197
vn -0.719785 0.000000 0.694197
vn -0.719785 0.000000 0.694197
vn -0.590996 0.570824 0.569986
vn -0.590996 0.570824 0.569986
vn -0.590996 0.570824 0.569986
vn 0.000000 0.707626 0.706587
vn 0.000000 0.707626 0.706587
vn 0.000000 0.707626 0.706587
vn 0.000000 0.707626 0.706587
vn -0.567977 0.548594 -0.613553
vn -0.567977 0.548594 -0.613553
vn -0.567977 0.548594 -0.613553
vn -0.679320 -0.000003 -0.733843
vn -0.679320 -0.000003 -0.733843
vn -0.679319 -0.000003 -0.733843
vn -0.679319 -0.000003 -0.733843
vn 0.000000 -0.614408 -0.788988
vn 0.000000 -0.614408 -0.788988
vn 0.000000 -0.614408 -0.788988
vn 0.000000 -0.614408 -0.788988
vn -0.589804 -0.496152 -0.637153
vn -0.589804 -0.496152 -0.637153
vn -0.589804 -0.496152 -0.637153
vn -0.765246 -0.643738 0.000000
vn -0.765246 -0.643738 0.000000
vn -0.765246 -0.643738 0.000000
vn -0.765246 -0.643738 0.000000
vn -0.615713 -0.517948 0.593825
vn -0.615713 -0.517948 0.593825
vn -0.615713 -0.517948 0.593825
vn 0.000000 -0.657319 0.753613
vn 0.000000 -0.657319 0.753613
vn 0.000000 -0.657319 0.753613
vn 0.000000 -0.657319 0.753613
vn 0.759825 -0.650127 0.000000
vn 0.759825 -0.650127 0.000000
vn 0.759825 -0.650127 0.000000
vn 0.759825 -0.650127 0.000000
vn 0.609212 -0.521259 0.597620
vn 0.609212 -0.521259 0.597620
vn 0.609212 -0.521259 0.597620
vn 0.713866 0.000000 0.700283
vn 0.713866 0.000000 0.700283
vn 0.713866 0.000000 0.700283
vn 0.713866 0.000000 0.700283
vn 0.584461 0.574184 0.573340
vn 0.584461 0.574184 0.573340
vn 0.584461 0.574184 0.573340
vn 0.713350 0.700808 0.000000
vn 0.713350 0.700808 0.000000
vn 0.713350 0.700808 0.000000
vn 0.713350 0.700808 0.000000
vn 0.561444 0.551573 -0.616886
vn 0.561444 0.551573 -0.616886
vn 0.561444 0.551573 -0.616886
vn 0.673092 0.000000 -0.739559
vn 0.673092 0.000000 -0.739559
vn 0.673092 0.000000 -0.739559
vn 0.673092 0.000000 -0.739559
vn 0.583277 -0.499068 -0.640874
vn 0.583277 -0.499067 -0.640874
vn 0.583277 -0.499068 -0.640874
vn 0.000000 1.000000 0.000000
vn 0.000000 1.000000 0.000000
vn 0.000000 1.000000 0.000000
vn 0.000000 1.000000 0.000000
vn 0.000000 1.000000 0.000001
vn 0.000000 1.000000 0.000001
vn 0.000000 1.000000 0.000001
vn 0.000000 1.000000 0.000001
vn 0.000000 1.000000 0.000000
vn 0.000000 1.000000 0.000000
vn 0.000000 1.000000 0.000000
vn 0.000000 1.000000 0.000000
vn 0.000000 1.000000 -0.000001
vn 0.000000 1.000000 -0.000001
vn 0.000000 1.000000 -0.000001
vn 0.000000 1.000000 -0.000001
vn -1.000000 -0.000000 0.000000
vn -1.000000 -0.000000 0.000000
vn -1.000000 -0.000000 0.000000
vn -1.000000 -0.000000 0.000000
vn -1.000000 -0.000000 0.000000
vn -1.000000 -0.000000 0.000000
vn 0.000000 0.000000 1.000000
vn 0.000000 0.000000 1.000000
vn 0.000000 0.000000 1.000000
vn 0.000000 0.000000 1.000000
vn 1.000000 0.000000 0.000000
vn 1.000000 0.000000 0.000000
vn 1.000000 0.000000 0.000000
vn 1.000000 0.000000 0.000000
vn 1.000000 0.000000 0.000000
vn 1.000000 0.000000 0.000000
vn 0.000000 0.000000 -1.000000
vn 0.000000 0.000000 -1.000000
vn 0.000000 0.000000 -1.000000
vn 0.000000 0.000000 -1.000000
vn 0.000000 0.000000 -1.000000
vn 0.000000 0.000000 -1.000000
vn 0.000000 0.000000 -1.000000
vn 0.000000 0.000000 -1.000000
vn 0.000000 1.000000 0.000000
vn 0.000000 1.000000 0.000000
vn 0.000000 1.000000 0.000000
vn 0.000000 1.000000 0.000000
vn 0.000000 0.000000 1.000000
vn -0.000000 0.000000 1.000000
vn -0.000000 0.000000 1.000000
vn 0.000000 0.000000 1.000000
vn -0.000000 0.000000 1.000000
vn -0.000000 0.000000 1.000000
vn -0.000000 0.000000 1.000000
vn -0.000000 0.000000 1.000000
vn -0.000000 0.000000 1.000000
vn 0.000000 0.000000 1.000000
vn -0.000000 0.000000 1.000000
vn -0.000000 0.000000 1.000000
vn 0.000000 0.000000 1.000000
vn -0.556138 -0.556142 0.617589
vn -0.556138 -0.556142 0.617589
vn -0.556138 -0.556142 0.617589
vn 0.564949 -0.564943 0.601392
vn 0.564949 -0.564943 0.601392
vn 0.564949 -0.564943 0.601392
vn 0.556147 0.556152 0.617572
vn 0.556147 0.556152 0.617572
vn 0.556147 0.556152 0.617572
vn -0.564935 0.564931 0.601416
vn -0.564935 0.564931 0.601416
vn -0.564935 0.564931 0.601416
vn 0.000000 0.000000 1.000000
vn 0.000000 0.000000 1.000000
vn 0.000000 0.000000 1.000000
vn 0.000000 0.000000 1.000000
vn 0.000000 1.000000 0.000000
vn 0.000000 1.000000 0.000000
vn 0.000000 1.000000 0.000000
vn 0.000000 1.000000 0.000000
vn 0.000000 0.000000 -1.000000
vn 0.000000 0.000000 -1.000000
vn 0.000000 0.000000 -1.000000
vn 0.000000 0.000000 -1.000000
vn 0.000000 -1.000000 0.000000
vn 0.000000 -1.000000 0.000000
vn 0.000000 -1.000000 0.000000
vn 0.000000 -1.000000 0.000000
vn 1.000000 0.000000 0.000000
vn 1.000000 0.000000 0.000000
vn 1.000000 0.000000 0.000000
vn 1.000000 0.000000 0.000000
vn -1.000000 0.000000 0.000000
vn -1.000000 0.000000 0.000000
vn -1.000000 0.000000 0.000000
vn -1.000000 0.000000 0.000000
vn 0.000000 0.000000 1.000000
vn 0.000000 0.000000 1.000000
vn 0.000000 0.000000 1.000000
vn 0.000000 0.000000 1.000000
vn 0.000000 1.000000 0.000000
vn 0.000000 1.000000 0.000000
vn 0.000000 1.000000 0.000000
vn 0.000000 1.000000 0.000000
vn 0.000000 0.000000 -1.000000
vn 0.000000 0.000000 -1.000000
vn 0.000000 0.000000 -1.000000
vn 0.000000 0.000000 -1.000000
vn 0.000000 -1.000000 0.000000
vn 0.000000 -1.000000 0.000000
vn 0.000000 -1.000000 0.000000
vn 0.000000 -1.000000 0.000000
vn 1.000000 0.000000 0.000000
vn 1.000000 0.000000 0.000000
vn 1.000000 0.000000 0.000000
vn 1.000000 0.000000 0.000000
vn -1.000000 0.000000 0.000000
vn -1.000000 0.000000 0.000000
vn -1.000000 0.000000 0.000000
vn -1.000000 0.000000 0.000000
vn 0.258757 0.000000 0.965943
vn 0.258757 0.000000 0.965943
vn 0.258757 0.000000 0.965943
vn 0.258757 0.000000 0.965943
vn 0.000000 1.000000 0.000000
vn 0.000000 1.000000 0.000000
vn 0.000000 1.000000 0.000000
vn 0.000000 1.000000 0.000000
vn -0.258824 0.000000 -0.965925
vn -0.258824 0.000000 -0.965925
vn -0.258824 0.000000 -0.965925
vn -0.258824 0.000000 -0.965925
vn 0.000000 -1.000000 0.000000
vn 0.000000 -1.000000 0.000000
vn 0.000000 -1.000000 0.000000
vn 0.000000 -1.000000 0.000000
vn 0.965928 0.000000 -0.258810
vn 0.965928 0.000000 -0.258810
vn 0.965928 0.000000 -0.258810
vn 0.965928 0.000000 -0.258810
vn -0.965931 0.000000 0.258800
vn -0.965931 0.000000 0.258800
vn -0.965931 0.000000 0.258800
vn -0.965931 0.000000 0.258800
vn -0.965925 0.000000 0.258823
vn -0.965925 0.000000 0.258823
vn -0.965925 0.000000 0.258823
vn -0.965925 0.000000 0.258823
vn 0.258772 0.000000 0.965939
vn 0.258772 0.000000 0.965939
vn 0.258772 0.000000 0.965939
vn 0.258772 0.000000 0.965939
vn 0.965926 0.000000 -0.258818
vn 0.965926 0.000000 -0.258818
vn 0.965926 0.000000 -0.258818
vn 0.965926 0.000000 -0.258818
vn -0.258811 0.000000 -0.965928
vn -0.258811 0.000000 -0.965928
vn -0.258811 0.000000 -0.965928
vn -0.258811 0.000000 -0.965928
vn 0.000000 1.000000 0.000000
vn 0.000000 1.000000 0.000000
vn 0.000000 1.000000 0.000000
vn 0.000000 1.000000 0.000000
vn 0.000000 1.000000 -0.000000
vn 0.000000 1.000000 -0.000000
vn 0.000000 1.000000 -0.000000
vn 0.000000 1.000000 -0.000000
vn 0.000000 1.000000 0.000000
vn 0.000000 1.000000 0.000000
vn 0.000000 1.000000 0.000000
vn 0.000000 1.000000 0.000000
vn 0.000000 1.000000 0.000000
vn 0.000000 1.000000 0.000000
vn 0.000000 1.000000 0.000000
vn 0.000000 1.000000 0.000000
vn -0.000000 0.000000 1.000000
vn -0.000000 0.000000 1.000000
vn 0.000000 0.000000 1.000000
vn 0.000000 0.000000 1.000000
vn 0.000000 0.000000 1.000000
vn 0.000000 0.000000 1.000000
vn -0.000000 0.000000 1.000000
vn 0.000000 0.000000 1.000000
vn 0.000000 0.000000 1.000000
vn -0.000000 0.000000 1.000000
vn 0.000000 0.000000 1.000000
vn 0.000000 0.000000 1.000000
vn -0.000000 0.000000 1.000000
vn 0.000000 0.000000 1.000000
vn 0.000000 0.000000 1.000000
vn -0.000000 0.000000 1.000000
vn 0.000000 0.000000 1.000000
vn 0.000000 0.000000 1.000000
vn 0.000000 0.000000 1.000000
vn -0.000000 0.000000 1.000000
vn 0.000000 0.000000 1.000000
vn 0.000000 0.000000 1.000000
vn -0.000000 0.000000 1.000000
vn 0.000000 0.000000 1.000000
vn -0.000000 0.000000 1.000000
vn -0.000000 0.000000 1.000000
vn 0.000000 0.000000 1.000000
s off
f 6/28/1 7/51/2 2/22/3 1/17/4
f 1/3/5 2/15/6 4/6/7 3/18/8
f 3/5/9 4/16/10 8/31/11 5/53/12
f 9/7/13 10/19/14 11/10/15 12/9/16
f 7/30/17 8/47/18 4/12/19 2/4/20
f 5/25/21 6/55/22 1/24/23 3/14/24
f 9/13/25 12/1/26 13/33/27 14/43/28
f 12/23/29 11/2/30 15/35/31 13/36/32
f 11/21/33 10/11/34 16/37/35 15/38/36
f 14/44/37 16/40/38 10/8/39 9/20/40
f 6/27/41 5/54/42 14/34/43 13/49/44
f 7/29/45 6/56/46 13/50/47 15/45/48
f 8/32/49 7/52/50 15/46/51 16/41/52
f 5/26/53 8/48/54 16/42/55 14/39/56
f 49/57/57 50/58/58 46/59/59 47/60/60
f 38/61/61 39/62/62 26/63/63 27/64/64
f 31/65/65 32/66/66 33/67/67 34/68/68
f 20/69/69 17/70/70 28/71/71 27/72/72
f 20/73/73 23/74/74 24/75/75 17/76/76
f 18/77/77 21/78/78 22/79/79 19/80/80
f 25/81/81 26/82/82 39/83/83 40/84/84
f 29/85/85 17/86/86 24/87/87 30/88/88
f 17/89/89 29/90/90 28/91/91
f 36/92/92 37/93/93 28/94/94 29/95/95
f 26/96/96 20/97/97 27/98/98
f 23/99/99 20/100/100 26/101/101 25/102/102
f 40/103/103 33/104/104 32/105/105 25/106/106
f 32/107/107 23/108/108 25/109/109
f 24/110/110 23/111/111 32/112/112 31/113/113
f 24/114/114 31/115/115 30/116/116
f 34/117/117 35/118/118 30/119/119 31/120/120
f 34/121/121 33/122/122 22/123/123 21/124/124
f 34/125/125 21/126/126 35/127/127
f 18/128/128 36/129/129 35/130/130 21/131/131
f 18/132/132 37/133/133 36/134/134
f 19/135/135 38/136/136 37/137/137 18/138/138
f 19/139/139 39/140/140 38/141/141
f 22/142/142 40/143/143 39/144/144 19/145/145
f 22/146/146 33/147/147 40/148/148
f 27/149/149 28/150/150 42/151/151 41/152/152
f 28/150/153 37/153/154 43/154/155 42/151/156
f 37/153/157 38/155/158 44/156/159 43/154/160
f 38/155/161 27/149/162 41/152/163 44/156/164
f 41/157/165 42/158/166 46/159/167 50/160/168 52/161/169 45/162/170
f 42/163/171 43/164/172 47/165/173 46/166/174
f 43/167/175 44/168/176 48/169/177 51/170/178 49/171/179 47/172/180
f 44/173/181 41/174/182 45/175/183 48/176/184
f 51/177/185 52/178/186 50/179/187 49/180/188
f 45/181/189 52/182/190 51/183/191 48/184/192
f 36/191/193 91/310/194 92/311/195 35/189/196
f 30/186/197 54/187/198 53/188/199 56/192/200 29/185/201 95/314/202 94/313/203 96/315/204 97/316/205
f 53/193/206 54/194/207 57/195/208
f 54/196/209 55/197/210 57/198/211
f 55/199/212 56/200/213 57/201/214
f 56/202/215 53/203/216 57/204/217
f 58/205/218 59/206/219 61/207/220 60/208/221
f 60/209/222 61/210/223 63/211/224 62/212/225
f 62/213/226 63/214/227 65/215/228 64/216/229
f 64/217/230 65/218/231 59/219/232 58/220/233
f 59/221/234 65/222/235 63/223/236 61/224/237
f 64/225/238 58/226/239 60/227/240 62/228/241
f 66/229/242 67/230/243 69/231/244 68/232/245
f 68/233/246 69/234/247 71/235/248 70/236/249
f 70/237/250 71/238/251 73/239/252 72/240/253
f 72/241/254 73/242/255 67/243/256 66/244/257
f 67/245/258 73/246/259 71/247/260 69/248/261
f 72/249/262 66/250/263 68/251/264 70/252/265
f 79/253/266 80/254/267 75/255/268 74/256/269
f 74/257/270 75/258/271 77/259/272 76/260/273
f 76/261/274 77/262/275 81/263/276 78/264/277
f 82/265/278 83/266/279 84/267/280 85/268/281
f 80/269/282 81/270/283 77/271/284 75/272/285
f 78/273/286 79/274/287 74/275/288 76/276/289
f 82/277/290 85/278/291 86/279/292 87/280/293
f 85/281/294 84/282/295 88/283/296 86/284/297
f 84/285/298 83/286/299 89/287/300 88/288/301
f 87/289/302 89/290/303 83/291/304 82/292/305
f 79/293/306 78/294/307 87/295/308 86/296/309
f 80/297/310 79/298/311 86/299/312 88/300/313
f 81/301/314 80/302/315 88/303/316 89/304/317
f 78/305/318 81/306/319 89/307/320 87/308/321
f 29/185/322 56/192/323 36/191/324
f 35/189/325 54/187/326 30/186/327
f 30/186/328 97/316/329 95/314/330 29/185/331
f 54/187/332 35/189/333 92/311/334 93/312/335 90/309/336 91/310/337 36/191/338 56/192/339 55/190/340
f 91/317/341 90/318/342 93/319/343 92/320/344
f 97/321/345 96/322/346 94/323/347 95/324/348
