# This file uses centimeters as units for non-parametric coordinates.

v -0.453918 0.000000 0.307417
v 0.453911 0.000000 0.307417
v -0.521047 0.638853 0.352882
v 0.521046 0.638853 0.352882
v -0.521047 0.638853 -0.352882
v 0.521046 0.638853 -0.352882
v -0.453918 0.000000 -0.307417
v 0.453911 0.000000 -0.307417
v -0.521047 0.523306 0.352882
v 0.521046 0.523306 0.352882
v 0.521046 0.523306 -0.352882
v -0.521047 0.523306 -0.352882
v -0.504860 0.516427 -0.341920
v -0.504861 0.516428 0.341920
v 0.504858 0.516428 0.341920
v 0.504860 0.516427 -0.341920
v -0.439407 0.638853 0.284543
v 0.439405 0.638853 0.284543
v 0.439405 0.638853 -0.284543
v -0.439407 0.638853 -0.284543
v -0.439407 0.523306 0.284543
v 0.439405 0.523306 0.284543
v 0.439405 0.523306 -0.284543
v -0.439407 0.523306 -0.284543
v -0.456479 0.523306 0.314043
v 0.456477 0.523306 0.314043
v 0.456477 0.523306 -0.314043
v -0.456479 0.523306 -0.314043
v -0.407492 0.009922 0.274435
v 0.407490 0.009922 0.274435
v 0.407490 0.009922 -0.274435
v -0.407492 0.009922 -0.274435
v 0.009955 0.923943 -0.285655
v 0.009955 0.923943 0.284693
v 0.071697 0.935666 -0.285655
v 0.071697 0.935666 0.284693
v 0.137517 0.589008 -0.285655
v 0.137517 0.589008 0.284693
v 0.075775 0.577286 -0.285655
v 0.075775 0.577286 0.284693
v 0.082355 0.879535 -0.246423
v 0.082355 0.879535 0.245462
v 0.137517 0.589008 0.245462
v 0.137517 0.589008 -0.246423
v 0.075775 0.577286 -0.246423
v 0.075775 0.577286 0.245462
v 0.020614 0.867812 0.245462
v 0.020614 0.867812 -0.246423
v -0.042920 0.932472 -0.285655
v -0.042920 0.932472 0.284693
v 0.017816 0.916329 -0.285655
v 0.017816 0.916329 0.284693
v -0.072822 0.575318 -0.285655
v -0.072822 0.575318 0.284693
v -0.133557 0.591460 -0.285655
v -0.133557 0.591460 0.284693
v 0.003139 0.861112 -0.246423
v 0.003139 0.861112 0.245462
v -0.072822 0.575318 0.245462
v -0.072822 0.575318 -0.246423
v -0.133557 0.591460 -0.246423
v -0.133557 0.591460 0.245462
v -0.057596 0.877255 0.245462
v -0.057596 0.877255 -0.246423
vt 0.299967 0.169862
vt 0.299968 0.169862
vt 0.299968 0.169862
vt 0.299967 0.169862
vt 0.234100 0.169862
vt 0.234100 0.169862
vt 0.234100 0.169862
vt 0.234100 0.169862
vt 0.299967 0.169862
vt 0.299968 0.169862
vt 0.299968 0.169862
vt 0.299967 0.169862
vt 0.234315 0.169862
vt 0.234315 0.169862
vt 0.234315 0.169862
vt 0.234315 0.169862
vt 0.267141 0.169862
vt 0.267141 0.169862
vt 0.267141 0.169862
vt 0.267141 0.169862
vt 0.267141 0.169862
vt 0.267141 0.169862
vt 0.267141 0.169862
vt 0.267141 0.169862
vt 0.299967 0.169862
vt 0.299968 0.169862
vt 0.299968 0.169862
vt 0.299967 0.169862
vt 0.267141 0.169862
vt 0.267141 0.169862
vt 0.267141 0.169862
vt 0.267141 0.169862
vt 0.299967 0.169862
vt 0.299968 0.169862
vt 0.299968 0.169862
vt 0.299967 0.169862
vt 0.267141 0.169862
vt 0.267141 0.169862
vt 0.267141 0.169862
vt 0.267141 0.169862
vt 0.230453 0.169862
vt 0.230453 0.169862
vt 0.230453 0.169862
vt 0.230453 0.169862
vt 0.263280 0.169862
vt 0.263280 0.169862
vt 0.263280 0.169862
vt 0.263280 0.169862
vt 0.230454 0.169862
vt 0.230454 0.169862
vt 0.230454 0.169862
vt 0.230454 0.169862
vt 0.263280 0.169862
vt 0.263280 0.169862
vt 0.263280 0.169862
vt 0.263280 0.169862
vt 0.332137 0.169862
vt 0.332137 0.169862
vt 0.332137 0.169862
vt 0.332137 0.169862
vt 0.332137 0.169862
vt 0.332137 0.169862
vt 0.332137 0.169862
vt 0.332137 0.169862
vt 0.332137 0.169862
vt 0.332137 0.169862
vt 0.332137 0.169862
vt 0.332137 0.169862
vt 0.332137 0.169862
vt 0.332137 0.169862
vt 0.332137 0.169862
vt 0.332137 0.169862
vt 0.294187 0.169862
vt 0.294188 0.169862
vt 0.294188 0.169862
vt 0.294187 0.169862
vt 0.272050 0.169862
vt 0.272050 0.169862
vt 0.272050 0.169862
vt 0.272050 0.169862
vt 0.294188 0.169862
vt 0.294187 0.169862
vt 0.294187 0.169862
vt 0.294188 0.169862
vt 0.272050 0.169862
vt 0.272050 0.169862
vt 0.272050 0.169862
vt 0.272050 0.169862
vt 0.332137 0.169862
vt 0.332137 0.169862
vt 0.332137 0.169862
vt 0.332137 0.169862
vt 0.332137 0.169862
vt 0.332137 0.169862
vt 0.332137 0.169862
vt 0.332137 0.169862
vt 0.332137 0.169862
vt 0.332137 0.169862
vt 0.332137 0.169862
vt 0.332137 0.169862
vt 0.332137 0.169862
vt 0.332137 0.169862
vt 0.332137 0.169862
vt 0.332137 0.169862
vt 0.242533 0.169862
vt 0.242534 0.169862
vt 0.242534 0.169862
vt 0.242533 0.169862
vt 0.211963 0.169862
vt 0.211963 0.169862
vt 0.211963 0.169862
vt 0.211963 0.169862
vt 0.242534 0.169862
vt 0.242533 0.169862
vt 0.242533 0.169862
vt 0.242534 0.169862
vt 0.211963 0.169862
vt 0.211963 0.169862
vt 0.211963 0.169862
vt 0.211963 0.169862
vt 0.253363 0.059841
vt 0.253363 0.059841
vt 0.253363 0.059841
vt 0.253363 0.059841
vt 0.199559 0.059841
vt 0.199559 0.059841
vt 0.199559 0.059841
vt 0.199559 0.059841
vt 0.199558 0.059841
vt 0.199558 0.059841
vt 0.199558 0.059841
vt 0.199558 0.059841
vt 0.235353 0.059083
vt 0.235353 0.059083
vt 0.235353 0.059083
vt 0.235353 0.059083
vt 0.235353 0.059083
vt 0.235353 0.059083
vt 0.235353 0.059083
vt 0.235353 0.059083
vt 0.235353 0.059083
vt 0.235353 0.059083
vt 0.235353 0.059083
vt 0.235353 0.059083
vt 0.235353 0.059083
vt 0.235353 0.059083
vt 0.235353 0.059083
vt 0.235353 0.059083
vt 0.235353 0.059083
vt 0.235353 0.059083
vt 0.235353 0.059083
vt 0.235353 0.059083
vt 0.235353 0.059083
vt 0.235353 0.059083
vt 0.235353 0.059083
vt 0.235353 0.059083
vt 0.166076 0.059810
vt 0.166076 0.059810
vt 0.166076 0.059810
vt 0.166076 0.059810
vt 0.166076 0.059810
vt 0.166076 0.059810
vt 0.166076 0.059810
vt 0.166076 0.059810
vt 0.138455 0.060331
vt 0.138455 0.060331
vt 0.138455 0.060331
vt 0.138455 0.060331
vt 0.108909 0.061387
vt 0.108909 0.061387
vt 0.108909 0.061387
vt 0.108909 0.061387
vt 0.108909 0.061387
vt 0.108909 0.061387
vt 0.108909 0.061387
vt 0.108909 0.061387
vt 0.253363 0.059841
vt 0.253363 0.059841
vt 0.253363 0.059841
vt 0.253363 0.059841
vt 0.199559 0.059841
vt 0.199559 0.059841
vt 0.199559 0.059841
vt 0.199559 0.059841
vt 0.199558 0.059841
vt 0.199558 0.059841
vt 0.199558 0.059841
vt 0.199558 0.059841
vt 0.235353 0.059083
vt 0.235353 0.059083
vt 0.235353 0.059083
vt 0.235353 0.059083
vt 0.235353 0.059083
vt 0.235353 0.059083
vt 0.235353 0.059083
vt 0.235353 0.059083
vt 0.235353 0.059083
vt 0.235353 0.059083
vt 0.235353 0.059083
vt 0.235353 0.059083
vt 0.235353 0.059083
vt 0.235353 0.059083
vt 0.235353 0.059083
vt 0.235353 0.059083
vt 0.235353 0.059083
vt 0.235353 0.059083
vt 0.235353 0.059083
vt 0.235353 0.059083
vt 0.235353 0.059083
vt 0.235353 0.059083
vt 0.235353 0.059083
vt 0.235353 0.059083
vt 0.166076 0.059810
vt 0.166076 0.059810
vt 0.166076 0.059810
vt 0.166076 0.059810
vt 0.166076 0.059810
vt 0.166076 0.059810
vt 0.166076 0.059810
vt 0.166076 0.059810
vt 0.138455 0.060331
vt 0.138455 0.060331
vt 0.138455 0.060331
vt 0.138455 0.060331
vt 0.108909 0.061387
vt 0.108909 0.061387
vt 0.108909 0.061387
vt 0.108909 0.061387
vt 0.108909 0.061387
vt 0.108909 0.061387
vt 0.108909 0.061387
vt 0.108909 0.061387
vn 0.000000 -0.039089 0.999236
vn 0.000000 -0.039085 0.999236
vn 0.000000 0.000000 1.000000
vn 0.000000 0.000000 1.000000
vn 0.000000 1.000000 0.000000
vn 0.000000 1.000000 0.000000
vn 0.000000 1.000000 0.000000
vn 0.000000 1.000000 0.000000
vn 0.000000 0.000000 -1.000000
vn 0.000000 0.000000 -1.000000
vn 0.000000 -0.039088 -0.999236
vn 0.000000 -0.039087 -0.999236
vn 0.000000 -1.000000 0.000000
vn 0.000000 -1.000000 0.000000
vn 0.000000 -1.000000 0.000000
vn 0.000000 -1.000000 0.000000
vn 0.996345 -0.085424 0.000000
vn 0.996345 -0.085420 0.000000
vn 1.000000 0.000000 0.000000
vn 1.000000 0.000000 0.000000
vn -0.996345 -0.085418 -0.000000
vn -0.996346 -0.085415 -0.000000
vn -1.000000 0.000000 0.000000
vn -1.000000 0.000000 0.000000
vn 0.000000 -0.101882 0.994796
vn 0.000000 -0.101883 0.994796
vn 0.000000 -0.039085 0.999236
vn 0.000000 -0.039089 0.999236
vn 0.989900 -0.141765 0.000001
vn 0.989900 -0.141766 0.000001
vn 0.996345 -0.085420 0.000000
vn 0.996345 -0.085424 0.000000
vn 0.000000 -0.039087 -0.999236
vn 0.000000 -0.039088 -0.999236
vn 0.000000 -0.101883 -0.994797
vn 0.000000 -0.101883 -0.994797
vn -0.989902 -0.141754 -0.000001
vn -0.989902 -0.141755 -0.000001
vn -0.996346 -0.085415 -0.000000
vn -0.996345 -0.085418 -0.000000
vn -0.995170 -0.098169 -0.000001
vn -0.995170 -0.098169 -0.000001
vn -0.989902 -0.141755 -0.000001
vn -0.989902 -0.141754 -0.000001
vn 0.000000 -0.066662 0.997776
vn 0.000000 -0.066662 0.997776
vn 0.000000 -0.101883 0.994796
vn 0.000000 -0.101882 0.994796
vn 0.995169 -0.098178 0.000001
vn 0.995169 -0.098178 0.000001
vn 0.989900 -0.141766 0.000001
vn 0.989900 -0.141765 0.000001
vn 0.000000 -0.101883 -0.994797
vn 0.000000 -0.101883 -0.994797
vn 0.000000 -0.066662 -0.997776
vn 0.000000 -0.066662 -0.997776
vn 0.000000 1.000000 -0.000000
vn 0.000000 1.000000 -0.000000
vn 0.000000 1.000000 -0.000000
vn 0.000000 1.000000 -0.000000
vn 0.000000 1.000000 0.000000
vn 0.000000 1.000000 0.000000
vn 0.000000 1.000000 0.000000
vn 0.000000 1.000000 0.000000
vn 0.000000 1.000000 0.000000
vn 0.000000 1.000000 0.000000
vn 0.000000 1.000000 0.000000
vn 0.000000 1.000000 0.000000
vn 0.000000 1.000000 0.000000
vn 0.000000 1.000000 0.000000
vn 0.000000 1.000000 0.000000
vn 0.000000 1.000000 0.000000
vn 0.000000 0.000000 -1.000000
vn 0.000000 0.000000 -1.000000
vn 0.000000 0.000000 -1.000000
vn 0.000000 0.000000 -1.000000
vn -1.000000 0.000000 0.000000
vn -1.000000 0.000000 0.000000
vn -1.000000 0.000000 0.000000
vn -1.000000 0.000000 0.000000
vn 0.000000 0.000000 1.000000
vn 0.000000 0.000000 1.000000
vn 0.000000 0.000000 1.000000
vn 0.000000 0.000000 1.000000
vn 1.000000 0.000000 0.000000
vn 1.000000 0.000000 0.000000
vn 1.000000 0.000000 0.000000
vn 1.000000 0.000000 0.000000
vn 0.000000 -1.000000 0.000001
vn 0.000000 -1.000000 0.000001
vn 0.000000 -1.000000 0.000001
vn 0.000000 -1.000000 0.000001
vn 0.000000 -1.000000 0.000000
vn 0.000000 -1.000000 0.000000
vn 0.000000 -1.000000 0.000000
vn 0.000000 -1.000000 0.000000
vn 0.000000 -1.000000 -0.000001
vn 0.000000 -1.000000 -0.000001
vn 0.000000 -1.000000 -0.000001
vn 0.000000 -1.000000 -0.000001
vn 0.000000 -1.000000 0.000000
vn 0.000000 -1.000000 0.000000
vn 0.000000 -1.000000 0.000000
vn 0.000000 -1.000000 0.000000
vn 0.000000 0.076921 -0.997037
vn 0.000000 0.076921 -0.997037
vn 0.000000 0.076921 -0.997037
vn 0.000000 0.076921 -0.997037
vn -0.995478 0.094989 0.000000
vn -0.995478 0.094989 0.000000
vn -0.995478 0.094989 0.000000
vn -0.995478 0.094989 0.000000
vn 0.000000 0.076921 0.997037
vn 0.000000 0.076921 0.997037
vn 0.000000 0.076921 0.997037
vn 0.000000 0.076921 0.997037
vn 0.995478 0.094989 0.000000
vn 0.995478 0.094989 0.000000
vn 0.995478 0.094989 0.000000
vn 0.995478 0.094989 0.000000
vn -0.186536 0.982448 0.000000
vn -0.186536 0.982448 0.000000
vn -0.186536 0.982448 0.000000
vn -0.186536 0.982448 0.000000
vn 0.000000 0.000000 1.000000
vn 0.000000 0.000000 1.000000
vn 0.000000 0.000000 1.000000
vn 0.000000 0.000000 1.000000
vn -0.000000 0.000000 -1.000000
vn -0.000000 0.000000 -1.000000
vn -0.000000 0.000000 -1.000000
vn -0.000000 0.000000 -1.000000
vn 0.982449 0.186532 0.000000
vn 0.982449 0.186532 0.000000
vn 0.982449 0.186532 0.000000
vn 0.982449 0.186532 0.000000
vn 0.982448 0.186537 -0.000004
vn 0.982448 0.186537 -0.000004
vn 0.982448 0.186537 -0.000004
vn 0.982448 0.186537 -0.000004
vn 0.982448 0.186537 0.000004
vn 0.982448 0.186537 0.000004
vn 0.982448 0.186537 0.000004
vn 0.982448 0.186537 0.000004
vn -0.982448 -0.186536 -0.000009
vn -0.982448 -0.186536 -0.000009
vn -0.982448 -0.186536 -0.000009
vn -0.982448 -0.186536 -0.000009
vn -0.982446 -0.186548 0.000000
vn -0.982446 -0.186548 0.000000
vn -0.982446 -0.186548 0.000000
vn -0.982446 -0.186548 0.000000
vn -0.982448 -0.186536 0.000009
vn -0.982448 -0.186536 0.000009
vn -0.982448 -0.186536 0.000009
vn -0.982448 -0.186536 0.000009
vn -0.000000 0.000000 1.000000
vn -0.000000 0.000000 1.000000
vn -0.000000 0.000000 1.000000
vn -0.000000 0.000000 1.000000
vn 0.000000 0.000000 -1.000000
vn 0.000000 0.000000 -1.000000
vn 0.000000 0.000000 -1.000000
vn 0.000000 0.000000 -1.000000
vn 0.186538 -0.982448 0.000000
vn 0.186538 -0.982448 0.000000
vn 0.186538 -0.982448 0.000000
vn 0.186538 -0.982448 0.000000
vn 0.186536 -0.982448 0.000000
vn 0.186536 -0.982448 0.000000
vn 0.186536 -0.982448 0.000000
vn 0.186536 -0.982448 0.000000
vn 0.186536 -0.982448 0.000000
vn 0.186536 -0.982448 0.000000
vn 0.186536 -0.982448 0.000000
vn 0.186536 -0.982448 0.000000
vn 0.256870 0.966446 0.000000
vn 0.256870 0.966446 0.000000
vn 0.256870 0.966446 0.000000
vn 0.256870 0.966446 0.000000
vn 0.000000 0.000000 1.000000
vn 0.000000 0.000000 1.000000
vn 0.000000 0.000000 1.000000
vn 0.000000 0.000000 1.000000
vn 0.000000 0.000000 -1.000000
vn 0.000000 0.000000 -1.000000
vn 0.000000 0.000000 -1.000000
vn 0.000000 0.000000 -1.000000
vn 0.966446 -0.256871 0.000000
vn 0.966446 -0.256871 0.000000
vn 0.966446 -0.256871 0.000000
vn 0.966446 -0.256871 0.000000
vn 0.966446 -0.256871 0.000000
vn 0.966446 -0.256871 0.000000
vn 0.966446 -0.256871 0.000000
vn 0.966446 -0.256871 0.000000
vn 0.966446 -0.256871 -0.000000
vn 0.966446 -0.256871 -0.000000
vn 0.966446 -0.256871 -0.000000
vn 0.966446 -0.256871 -0.000000
vn -0.966446 0.256871 0.000000
vn -0.966446 0.256871 0.000000
vn -0.966446 0.256871 0.000000
vn -0.966446 0.256871 0.000000
vn -0.966446 0.256871 0.000000
vn -0.966446 0.256871 0.000000
vn -0.966446 0.256871 0.000000
vn -0.966446 0.256871 0.000000
vn -0.966446 0.256871 0.000000
vn -0.966446 0.256871 0.000000
vn -0.966446 0.256871 0.000000
vn -0.966446 0.256871 0.000000
vn 0.000000 0.000000 1.000000
vn 0.000000 0.000000 1.000000
vn 0.000000 0.000000 1.000000
vn 0.000000 0.000000 1.000000
vn 0.000000 0.000000 -1.000000
vn 0.000000 0.000000 -1.000000
vn 0.000000 0.000000 -1.000000
vn 0.000000 0.000000 -1.000000
vn -0.256870 -0.966446 0.000000
vn -0.256870 -0.966446 0.000000
vn -0.256870 -0.966446 0.000000
vn -0.256870 -0.966446 0.000000
vn -0.256870 -0.966446 0.000000
vn -0.256870 -0.966446 0.000000
vn -0.256870 -0.966446 0.000000
vn -0.256870 -0.966446 0.000000
vn -0.256870 -0.966446 0.000000
vn -0.256870 -0.966446 0.000000
vn -0.256870 -0.966446 0.000000
vn -0.256870 -0.966446 0.000000
s off
f 9/1/1 10/2/2 4/3/3 3/4/4
f 29/5/5 30/6/6 31/7/7 32/8/8
f 5/9/9 6/10/10 11/11/11 12/12/12
f 7/13/13 8/14/14 2/15/15 1/16/16
f 10/17/17 11/18/18 6/19/19 4/20/20
f 12/21/21 9/22/22 3/23/23 5/24/24
f 14/25/25 15/26/26 10/27/27 9/28/28
f 15/29/29 16/30/30 11/31/31 10/32/32
f 12/33/33 11/34/34 16/35/35 13/36/36
f 13/37/37 14/38/38 9/39/39 12/40/40
f 7/41/41 1/42/42 14/43/43 13/44/44
f 1/45/45 2/46/46 15/47/47 14/48/48
f 2/49/49 8/50/50 16/51/51 15/52/52
f 13/53/53 16/54/54 8/55/55 7/56/56
f 3/57/57 4/58/58 18/59/59 17/60/60
f 4/61/61 6/62/62 19/63/63 18/64/64
f 6/65/65 5/66/66 20/67/67 19/68/68
f 5/69/69 3/70/70 17/71/71 20/72/72
f 17/73/73 18/74/74 22/75/75 21/76/76
f 18/77/77 19/78/78 23/79/79 22/80/80
f 19/81/81 20/82/82 24/83/83 23/84/84
f 20/85/85 17/86/86 21/87/87 24/88/88
f 21/89/89 22/90/90 26/91/91 25/92/92
f 22/93/93 23/94/94 27/95/95 26/96/96
f 23/97/97 24/98/98 28/99/99 27/100/100
f 24/101/101 21/102/102 25/103/103 28/104/104
f 25/105/105 26/106/106 30/107/107 29/108/108
f 26/109/109 27/110/110 31/111/111 30/112/112
f 27/113/113 28/114/114 32/115/115 31/116/116
f 28/117/117 25/118/118 29/119/119 32/120/120
f 33/121/121 34/122/122 36/123/123 35/124/124
f 34/125/125 40/126/126 38/127/127 36/128/128
f 39/129/129 33/130/130 35/131/131 37/132/132
f 35/133/133 36/134/134 42/135/135 41/136/136
f 36/137/137 38/138/138 43/139/139 42/140/140
f 37/141/141 35/142/142 41/143/143 44/144/144
f 40/145/145 34/146/146 47/147/147 46/148/148
f 34/149/149 33/150/150 48/151/151 47/152/152
f 33/153/153 39/154/154 45/155/155 48/156/156
f 44/157/157 41/158/158 48/159/159 45/160/160
f 43/161/161 46/162/162 47/163/163 42/164/164
f 42/165/165 47/166/166 48/167/167 41/168/168
f 39/169/169 37/170/170 44/171/171 45/172/172
f 40/173/173 46/174/174 43/175/175 38/176/176
f 49/177/177 50/178/178 52/179/179 51/180/180
f 50/181/181 56/182/182 54/183/183 52/184/184
f 55/185/185 49/186/186 51/187/187 53/188/188
f 51/189/189 52/190/190 58/191/191 57/192/192
f 52/193/193 54/194/194 59/195/195 58/196/196
f 53/197/197 51/198/198 57/199/199 60/200/200
f 56/201/201 50/202/202 63/203/203 62/204/204
f 50/205/205 49/206/206 64/207/207 63/208/208
f 49/209/209 55/210/210 61/211/211 64/212/212
f 60/213/213 57/214/214 64/215/215 61/216/216
f 59/217/217 62/218/218 63/219/219 58/220/220
f 58/221/221 63/222/222 64/223/223 57/224/224
f 55/225/225 53/226/226 60/227/227 61/228/228
f 56/229/229 62/230/230 59/231/231 54/232/232
