# This file uses centimeters as units for non-parametric coordinates.

v 0.935467 0.000000 -0.569481
v 0.935467 0.000000 0.430519
v 0.935467 1.302266 0.430519
v 0.935467 1.302266 -0.569481
v 0.935467 1.302266 0.760643
v 0.935467 1.476236 0.760643
v 0.935467 1.476236 -0.760643
v 0.935467 1.302266 -0.760643
v 0.756432 1.170323 0.430519
v 0.756345 0.000000 0.430519
v 0.756432 1.170323 -0.333984
v 0.756345 0.000000 -0.333984
v 0.756402 0.905204 -0.333984
v 0.756402 0.905204 0.430519
v 0.935467 0.906391 0.430519
v 0.935467 0.906391 -0.569481
v 0.756369 0.433690 -0.333984
v 0.756369 0.433690 0.430519
v 0.935467 0.433726 0.430519
v 0.935467 0.433726 -0.569481
v -0.935467 0.000000 -0.569481
v -0.935467 0.000000 0.430519
v -0.935467 0.433726 0.430519
v -0.935467 0.433726 -0.569481
v -0.935467 1.476236 0.760641
v -0.935467 1.476236 -0.760643
v -0.935467 1.302266 -0.760643
v -0.935467 1.302266 0.760641
v -0.756370 0.433690 -0.333984
v -0.756346 0.000000 -0.333984
v -0.935467 1.302266 -0.569481
v -0.935467 1.302266 0.430519
v -0.756430 1.170323 0.430519
v -0.756346 0.000000 0.430519
v -0.756370 0.433690 0.430519
v -0.756430 1.170323 -0.333984
v -0.756402 0.905204 -0.333984
v -0.756404 0.905204 0.430519
v -0.935467 0.906391 0.430519
v -0.935467 0.906391 -0.569481
vt 0.225189 0.085683
vt 0.225189 0.085683
vt 0.225189 0.085683
vt 0.225189 0.085683
vt 0.296581 0.061097
vt 0.296581 0.061097
vt 0.296581 0.061097
vt 0.296581 0.061097
vt 0.200587 0.061287
vt 0.200587 0.061287
vt 0.200587 0.061287
vt 0.200587 0.061287
vt 0.272043 0.085569
vt 0.272043 0.085569
vt 0.272043 0.085569
vt 0.272043 0.085569
vt 0.225189 0.085683
vt 0.225189 0.085683
vt 0.225189 0.085683
vt 0.225189 0.085683
vt 0.175541 0.086826
vt 0.175541 0.086826
vt 0.175541 0.086826
vt 0.175541 0.086826
vt 0.175541 0.086826
vt 0.175541 0.086826
vt 0.225189 0.085683
vt 0.225189 0.085683
vt 0.225189 0.085683
vt 0.225189 0.085683
vt 0.272043 0.085569
vt 0.272043 0.085569
vt 0.274963 0.083971
vt 0.272043 0.085569
vt 0.225189 0.085683
vt 0.225189 0.085683
vt 0.225189 0.085683
vt 0.225189 0.085683
vt 0.322325 0.086953
vt 0.322325 0.086953
vt 0.322325 0.086953
vt 0.322325 0.086953
vt 0.350895 0.086976
vt 0.350895 0.086976
vt 0.350895 0.086976
vt 0.350895 0.086976
vt 0.300612 0.087134
vt 0.300612 0.087134
vt 0.300612 0.087134
vt 0.300612 0.087134
vt 0.225189 0.085683
vt 0.225189 0.085683
vt 0.225189 0.085683
vt 0.225189 0.085683
vt 0.296581 0.061097
vt 0.296581 0.061097
vt 0.296581 0.061097
vt 0.296581 0.061097
vt 0.453142 0.061203
vt 0.453142 0.061203
vt 0.453142 0.061203
vt 0.453142 0.061203
vt 0.390289 0.061224
vt 0.390289 0.061224
vt 0.390289 0.061224
vt 0.390289 0.061224
vt 0.272043 0.085569
vt 0.272043 0.085569
vt 0.272043 0.085569
vt 0.272043 0.085569
vt 0.272043 0.085569
vt 0.272043 0.085569
vt 0.272043 0.085569
vt 0.272043 0.085569
vt 0.200587 0.061287
vt 0.200587 0.061287
vt 0.390289 0.061224
vt 0.390289 0.061224
vt 0.390289 0.061224
vt 0.390289 0.061224
vt 0.200587 0.061287
vt 0.200587 0.061287
vt 0.272043 0.085569
vt 0.274963 0.083971
vt 0.272043 0.085569
vt 0.272043 0.085569
vt 0.272043 0.085569
vt 0.272043 0.085569
vt 0.175541 0.086826
vt 0.175541 0.086826
vt 0.175541 0.086826
vt 0.175541 0.086826
vt 0.225189 0.085683
vt 0.225189 0.085683
vt 0.225189 0.085683
vt 0.225189 0.085683
vt 0.175541 0.086826
vt 0.175541 0.086826
vt 0.272043 0.085569
vt 0.272043 0.085569
vt 0.272043 0.085569
vt 0.272043 0.085569
vt 0.225189 0.085683
vt 0.225189 0.085683
vt 0.225189 0.085683
vt 0.225189 0.085683
vt 0.272043 0.085569
vt 0.272043 0.085569
vt 0.225189 0.085683
vt 0.225189 0.085683
vt 0.225189 0.085683
vt 0.225189 0.085683
vt 0.272043 0.085569
vt 0.272043 0.085569
vt 0.272043 0.085569
vt 0.272043 0.085569
vt 0.350895 0.086976
vt 0.350895 0.086976
vt 0.350895 0.086976
vt 0.350895 0.086976
vt 0.322325 0.086953
vt 0.322325 0.086953
vt 0.322325 0.086953
vt 0.322325 0.086953
vt 0.350895 0.086976
vt 0.350895 0.086976
vt 0.350895 0.086976
vt 0.350895 0.086976
vt 0.300612 0.087134
vt 0.300612 0.087134
vt 0.300612 0.087134
vt 0.300612 0.087134
vt 0.353180 0.087021
vt 0.353180 0.087021
vt 0.353180 0.087021
vt 0.353180 0.087021
vt 0.272043 0.085569
vt 0.274963 0.083971
vt 0.272043 0.085569
vt 0.274963 0.083971
vn 1.000000 0.000000 0.000000
vn 1.000000 0.000000 0.000000
vn 1.000000 0.000000 0.000000
vn 1.000000 0.000000 0.000000
vn 1.000000 0.000000 0.000000
vn 1.000000 0.000000 0.000000
vn 1.000000 0.000000 0.000000
vn 1.000000 0.000000 0.000000
vn 0.000000 0.000000 1.000000
vn 0.000000 0.000000 1.000000
vn 0.000000 0.000000 1.000000
vn 0.000000 0.000000 1.000000
vn -1.000000 0.000055 0.000000
vn -1.000000 0.000055 0.000000
vn -1.000000 0.000055 0.000000
vn -1.000000 0.000055 0.000000
vn 0.000000 -1.000000 0.000000
vn 0.000000 -1.000000 0.000000
vn 0.000000 -1.000000 0.000000
vn 0.000000 -1.000000 0.000000
vn 0.000000 -1.000000 0.000000
vn 0.000000 -1.000000 0.000000
vn 0.000000 -1.000000 0.000000
vn 0.000000 -1.000000 0.000000
vn -1.000000 0.000111 0.000000
vn -1.000000 0.000111 0.000000
vn -1.000000 0.000111 0.000000
vn -1.000000 0.000111 0.000000
vn 0.000000 0.000000 1.000000
vn 0.000000 0.000000 1.000000
vn 0.000000 0.000000 1.000000
vn 0.000000 0.000000 1.000000
vn 1.000000 0.000000 0.000000
vn 1.000000 0.000000 0.000000
vn 1.000000 0.000000 0.000000
vn 1.000000 0.000000 0.000000
vn -1.000000 0.000071 0.000000
vn -1.000000 0.000071 0.000000
vn -1.000000 0.000071 0.000000
vn -1.000000 0.000071 0.000000
vn 0.000000 0.000000 1.000000
vn 0.000000 0.000000 1.000000
vn 0.000000 0.000000 1.000000
vn 0.000000 0.000000 1.000000
vn 1.000000 0.000000 0.000000
vn 1.000000 0.000000 0.000000
vn 1.000000 0.000000 0.000000
vn 1.000000 0.000000 0.000000
vn -1.000000 0.000000 0.000000
vn -1.000000 0.000000 0.000000
vn -1.000000 0.000000 0.000000
vn -1.000000 0.000000 0.000000
vn -1.000000 0.000000 0.000000
vn -1.000000 0.000000 0.000000
vn -1.000000 0.000000 0.000000
vn -1.000000 0.000000 0.000000
vn 0.000000 1.000000 0.000000
vn 0.000000 1.000000 0.000000
vn 0.000000 1.000000 0.000000
vn 0.000000 1.000000 0.000000
vn -0.000001 0.000000 1.000000
vn -0.000001 0.000000 1.000000
vn -0.000001 0.000000 1.000000
vn -0.000001 0.000000 1.000000
vn 0.000000 0.000000 1.000000
vn 0.000000 0.000000 1.000000
vn 0.000000 0.000000 1.000000
vn 0.000000 0.000000 1.000000
vn 0.000000 0.000000 -1.000000
vn 0.000000 0.000000 -1.000000
vn 0.000000 0.000000 -1.000000
vn 0.000000 0.000000 -1.000000
vn 0.000000 -1.000000 0.000000
vn 0.000000 -1.000000 0.000000
vn 0.000000 -1.000000 0.000000
vn 0.000000 -1.000000 0.000000
vn 0.000000 0.000000 -1.000000
vn 0.000000 0.000000 -1.000000
vn 0.000000 0.000000 -1.000000
vn 0.000000 0.000000 -1.000000
vn 0.000000 -1.000000 0.000000
vn 0.000000 -1.000000 0.000000
vn 0.000000 -1.000000 0.000000
vn 0.000000 -1.000000 0.000000
vn 0.000000 0.000000 1.000000
vn 0.000000 0.000000 1.000000
vn 0.000000 0.000000 1.000000
vn 0.000000 0.000000 1.000000
vn 0.000000 0.000000 1.000000
vn 0.000000 0.000000 1.000000
vn 0.000000 0.000000 1.000000
vn 0.000000 0.000000 1.000000
vn 0.000000 -1.000000 0.000000
vn 0.000000 -1.000000 0.000000
vn 0.000000 -1.000000 0.000000
vn 0.000000 -1.000000 0.000000
vn 1.000000 0.000055 0.000000
vn 1.000000 0.000055 0.000000
vn 1.000000 0.000055 0.000000
vn 1.000000 0.000055 0.000000
vn 0.000000 -1.000000 0.000000
vn 0.000000 -1.000000 0.000000
vn 0.000000 -1.000000 0.000000
vn 0.000000 -1.000000 0.000000
vn 0.000000 0.000000 1.000000
vn 0.000000 0.000000 1.000000
vn 0.000000 0.000000 1.000000
vn 0.000000 0.000000 1.000000
vn 1.000000 0.000101 0.000001
vn 1.000000 0.000101 0.000001
vn 1.000000 0.000101 0.000001
vn 1.000000 0.000101 0.000001
vn 0.000000 0.000000 1.000000
vn 0.000000 0.000000 1.000000
vn 0.000000 0.000000 1.000000
vn 0.000000 0.000000 1.000000
vn -1.000000 0.000000 0.000000
vn -1.000000 0.000000 0.000000
vn -1.000000 0.000000 0.000000
vn -1.000000 0.000000 0.000000
vn 0.000000 0.000000 -1.000000
vn 0.000000 0.000000 -1.000000
vn 0.000000 0.000000 -1.000000
vn 0.000000 0.000000 -1.000000
vn 0.000000 0.000000 1.000000
vn 0.000000 0.000000 1.000000
vn 0.000000 0.000000 1.000000
vn 0.000000 0.000000 1.000000
vn 1.000000 0.000071 0.000001
vn 1.000000 0.000071 0.000001
vn 1.000000 0.000071 0.000001
vn 1.000000 0.000071 0.000001
vn 0.000000 0.000000 1.000000
vn 0.000000 0.000000 1.000000
vn 0.000000 0.000000 1.000000
vn 0.000000 0.000000 1.000000
vn -1.000000 0.000000 0.000000
vn -1.000000 0.000000 0.000000
vn -1.000000 0.000000 0.000000
vn -1.000000 0.000000 0.000000
vn 0.000000 0.000000 -1.000000
vn 0.000000 0.000000 -1.000000
vn 0.000000 0.000000 -1.000000
vn 0.000000 0.000000 -1.000000
s off
f 1/1/1 20/4/2 19/3/3 2/2/4
f 6/5/5 5/8/6 8/7/7 7/6/8
f 10/13/9 2/16/10 19/15/11 18/14/12
f 18/17/13 17/20/14 12/19/15 10/18/16
f 12/21/17 30/24/18 21/23/19 1/22/20
f 12/21/21 1/22/22 2/26/23 10/25/24
f 9/27/25 11/30/26 13/29/27 14/28/28
f 15/31/29 3/34/30 9/139/31 14/32/32
f 16/35/33 4/38/34 3/37/35 15/36/36
f 14/39/37 13/42/38 17/41/39 18/40/40
f 19/43/41 15/46/42 14/45/43 18/44/44
f 20/47/45 16/50/46 15/49/47 19/48/48
f 21/51/49 22/54/50 23/53/51 24/52/52
f 25/55/53 26/58/54 27/57/55 28/56/56
f 6/59/57 7/62/58 26/61/59 25/60/60
f 5/63/61 6/66/62 25/65/63 28/64/64
f 12/67/65 17/70/66 29/69/67 30/68/68
f 20/71/69 1/74/70 21/73/71 24/72/72
f 8/10/73 4/11/74 31/76/75 27/75/76
f 7/77/77 8/80/78 27/79/79 26/78/80
f 3/12/81 5/9/82 28/81/83 32/82/84
f 9/33/85 3/140/86 32/84/87 33/138/88
f 34/85/89 35/88/90 23/87/91 22/86/92
f 11/89/93 9/92/94 33/91/95 36/90/96
f 35/93/97 34/96/98 30/95/99 29/94/100
f 30/24/101 34/98/102 22/97/103 21/23/104
f 13/99/105 11/102/106 36/101/107 37/100/108
f 33/103/109 38/106/110 37/105/111 36/104/112
f 39/107/113 38/108/114 33/83/115 32/137/116
f 40/109/117 39/112/118 32/111/119 31/110/120
f 4/113/121 16/116/122 40/115/123 31/114/124
f 17/117/125 13/120/126 37/119/127 29/118/128
f 38/121/129 35/124/130 29/123/131 37/122/132
f 23/125/133 35/128/134 38/127/135 39/126/136
f 24/129/137 23/132/138 39/131/139 40/130/140
f 16/133/141 20/136/142 24/135/143 40/134/144
