# This file uses centimeters as units for non-parametric coordinates.

v -0.062647 0.433506 -0.090985
v -0.062647 0.433506 0.062987
v 0.062179 0.433506 0.062987
v 0.062179 0.433506 -0.090985
v -0.086802 0.433506 0.092781
v 0.086332 0.433506 0.092781
v 0.086332 0.562086 0.092781
v -0.086802 0.562086 0.092781
v 0.086332 0.494768 -0.120778
v -0.086802 0.494768 -0.120778
v 0.086332 0.433506 -0.120778
v -0.086802 0.433506 -0.120778
v -0.062647 0.071869 -0.090985
v -0.062647 0.071869 0.062987
v 0.062179 0.071869 0.062987
v 0.062179 0.071869 -0.090985
v -0.105191 0.000000 -0.143463
v 0.104722 0.000000 -0.143463
v 0.104722 0.000000 0.115466
v -0.105191 0.000000 0.115466
v -0.105191 0.071869 0.115466
v -0.105191 0.071869 -0.143463
v 0.104722 0.071869 0.115466
v 0.104722 0.071869 -0.143463
vt 0.172011 0.064230
vt 0.139185 0.064230
vt 0.172012 0.064230
vt 0.237007 0.064230
vt 0.172012 0.064230
vt 0.204838 0.064230
vt 0.172012 0.064230
vt 0.139185 0.064230
vt 0.204838 0.064230
vt 0.139185 0.064230
vt 0.204838 0.064230
vt 0.172012 0.064230
vt 0.204838 0.064230
vt 0.172011 0.064230
vt 0.204838 0.064230
vt 0.139185 0.064230
vt 0.237008 0.064230
vt 0.204838 0.064230
vt 0.237007 0.064230
vt 0.172011 0.064230
vt 0.204838 0.064230
vt 0.237008 0.064230
vt 0.204838 0.064230
vt 0.172011 0.064230
vt 0.172011 0.064230
vt 0.204838 0.064230
vt 0.172011 0.064230
vt 0.204838 0.064230
vt 0.204838 0.064230
vt 0.172012 0.064230
vt 0.204838 0.064230
vt 0.172012 0.064230
vt 0.204838 0.064230
vt 0.204838 0.064230
vt 0.204838 0.064230
vt 0.204838 0.064230
vt 0.172012 0.064230
vt 0.172012 0.064230
vt 0.172011 0.064230
vt 0.172011 0.064230
vt 0.204838 0.064230
vt 0.172011 0.064230
vt 0.204838 0.064230
vt 0.172011 0.064230
vt 0.204838 0.064230
vt 0.172012 0.064230
vt 0.204838 0.064230
vt 0.172012 0.064230
vt 0.172011 0.064230
vt 0.204838 0.064230
vt 0.204838 0.064230
vt 0.172012 0.064230
vt 0.172012 0.064230
vt 0.204838 0.064230
vt 0.204838 0.064230
vt 0.172011 0.064230
vt 0.172011 0.064230
vt 0.204838 0.064230
vt 0.172011 0.064230
vt 0.204838 0.064230
vt 0.204838 0.064230
vt 0.172012 0.064230
vt 0.204838 0.064230
vt 0.172012 0.064230
vt 0.172011 0.064230
vt 0.172011 0.064230
vt 0.204838 0.064230
vt 0.204838 0.064230
vt 0.172012 0.064230
vt 0.172012 0.064230
vt 0.204838 0.064230
vt 0.204838 0.064230
vt 0.267452 0.063055
vt 0.267452 0.063055
vt 0.267452 0.063055
vt 0.267452 0.063055
vt 0.267452 0.063055
vt 0.267452 0.063055
vt 0.267452 0.063055
vt 0.267452 0.063055
vn 0.000000 0.000000 1.000000
vn 0.000000 0.000000 1.000000
vn 0.000000 0.000000 1.000000
vn 0.000000 0.000000 1.000000
vn 0.000000 0.953739 -0.300635
vn 0.000000 0.953739 -0.300635
vn 0.000000 0.953739 -0.300635
vn 0.000000 0.953739 -0.300635
vn 0.000000 0.000000 -1.000000
vn 0.000000 0.000000 -1.000000
vn 0.000000 0.000000 -1.000000
vn 0.000000 0.000000 -1.000000
vn 0.000000 -1.000000 0.000000
vn 0.000000 -1.000000 0.000000
vn 0.000000 -1.000000 0.000000
vn 0.000000 -1.000000 0.000000
vn 1.000000 0.000000 0.000000
vn 1.000000 0.000000 0.000000
vn 1.000000 0.000000 0.000000
vn 1.000000 0.000000 0.000000
vn -1.000000 0.000000 0.000000
vn -1.000000 0.000000 0.000000
vn -1.000000 0.000000 0.000000
vn -1.000000 0.000000 0.000000
vn -1.000000 0.000000 0.000000
vn -1.000000 0.000000 0.000000
vn -1.000000 0.000000 0.000000
vn -1.000000 0.000000 0.000000
vn 0.000000 0.000000 1.000000
vn 0.000000 0.000000 1.000000
vn 0.000000 0.000000 1.000000
vn 0.000000 0.000000 1.000000
vn 1.000000 0.000000 0.000000
vn 1.000000 0.000000 0.000000
vn 1.000000 0.000000 0.000000
vn 1.000000 0.000000 0.000000
vn 0.000000 0.000000 -1.000000
vn 0.000000 0.000000 -1.000000
vn 0.000000 0.000000 -1.000000
vn 0.000000 0.000000 -1.000000
vn 0.000000 -1.000000 -0.000000
vn 0.000000 -1.000000 -0.000000
vn 0.000000 -1.000000 -0.000000
vn 0.000000 -1.000000 -0.000000
vn 0.000000 -1.000000 -0.000001
vn 0.000000 -1.000000 -0.000001
vn 0.000000 -1.000000 -0.000001
vn 0.000000 -1.000000 -0.000001
vn 0.000000 -1.000000 0.000000
vn 0.000000 -1.000000 0.000000
vn 0.000000 -1.000000 0.000000
vn 0.000000 -1.000000 0.000000
vn 0.000000 -1.000000 0.000000
vn 0.000000 -1.000000 0.000000
vn 0.000000 -1.000000 0.000000
vn 0.000000 -1.000000 0.000000
vn -1.000000 0.000000 0.000000
vn -1.000000 0.000000 0.000000
vn -1.000000 0.000000 0.000000
vn -1.000000 0.000000 0.000000
vn 0.000000 0.000000 1.000000
vn 0.000000 0.000000 1.000000
vn 0.000000 0.000000 1.000000
vn 0.000000 0.000000 1.000000
vn 1.000000 0.000000 0.000000
vn 1.000000 0.000000 0.000000
vn 1.000000 0.000000 0.000000
vn 1.000000 0.000000 0.000000
vn 0.000000 0.000000 -1.000000
vn 0.000000 0.000000 -1.000000
vn 0.000000 0.000000 -1.000000
vn 0.000000 0.000000 -1.000000
vn 0.000000 1.000000 0.000000
vn 0.000000 1.000000 0.000000
vn 0.000000 1.000000 0.000000
vn 0.000000 1.000000 0.000000
vn 0.000000 1.000000 -0.000000
vn 0.000000 1.000000 -0.000000
vn 0.000000 1.000000 -0.000000
vn 0.000000 1.000000 -0.000000
vn 0.000000 1.000000 0.000000
vn 0.000000 1.000000 0.000000
vn 0.000000 1.000000 0.000000
vn 0.000000 1.000000 0.000000
vn 0.000000 1.000000 0.000000
vn 0.000000 1.000000 0.000000
vn 0.000000 1.000000 0.000000
vn 0.000000 1.000000 0.000000
s off
f 5/33/1 6/45/2 7/21/3 8/23/4
f 8/4/5 7/22/6 9/17/7 10/19/8
f 10/6/9 9/18/10 11/35/11 12/41/12
f 17/8/13 18/10/14 19/2/15 20/16/16
f 6/46/17 11/38/18 9/5/19 7/3/20
f 12/42/21 5/40/22 8/24/23 10/20/24
f 13/57/25 14/59/26 2/27/27 1/49/28
f 14/60/29 15/61/30 3/29/31 2/55/32
f 15/62/33 16/64/34 4/32/35 3/53/36
f 1/26/37 4/51/38 16/63/39 13/58/40
f 2/28/41 3/54/42 6/34/43 5/43/44
f 4/31/45 1/50/46 12/36/47 11/47/48
f 3/30/49 4/52/50 11/48/51 6/37/52
f 1/25/53 2/56/54 5/44/55 12/39/56
f 17/14/57 20/1/58 21/65/59 22/66/60
f 20/15/61 19/11/62 23/67/63 21/68/64
f 19/12/65 18/7/66 24/69/67 23/70/68
f 22/71/69 24/72/70 18/9/71 17/13/72
f 14/73/73 13/74/74 22/75/75 21/76/76
f 15/77/77 14/73/78 21/76/79 23/78/80
f 16/79/81 15/77/82 23/78/83 24/80/84
f 13/74/85 16/79/86 24/80/87 22/75/88
v -0.046907 0.529238 0.104443
v 0.049765 0.529238 0.104443
v 0.049765 0.643249 0.070848
v -0.046907 0.643249 0.070848
v -0.046907 0.461277 -0.126195
v 0.049765 0.461277 -0.126195
v 0.049765 0.575288 -0.159790
v -0.046907 0.575288 -0.159790
v -0.106020 0.485678 0.150902
v 0.108876 0.485678 0.150902
v 0.108876 0.511544 0.238684
v -0.106020 0.511544 0.238684
v 0.108876 0.697741 0.142689
v -0.106020 0.697741 0.142689
v 0.108876 0.683026 0.092750
v -0.106020 0.683026 0.092750
v -0.063474 0.572964 -0.239736
v 0.066331 0.572964 -0.239736
v 0.066331 0.412345 -0.220193
v -0.063474 0.412345 -0.220193
v 0.066331 0.441740 -0.120438
v -0.063474 0.441740 -0.120438
v 0.066331 0.594825 -0.165547
v -0.063474 0.594825 -0.165547
v -0.125345 0.417924 0.171894
v 0.122489 0.417924 0.171894
v 0.122489 0.443602 0.259039
v -0.125345 0.443602 0.259039
v -0.122489 0.482776 0.141053
v 0.125346 0.482776 0.141053
v 0.125346 0.514447 0.248533
v -0.122489 0.514447 0.248533
v -0.097358 0.422525 0.187507
v 0.094500 0.422525 0.187507
v 0.094500 0.439002 0.243425
v -0.097358 0.439002 0.243425
v -0.084919 0.428574 0.208037
v 0.082062 0.428574 0.208037
v 0.082062 0.432952 0.222895
v -0.084919 0.432952 0.222895
v 0.066331 0.485892 -0.241865
v -0.063474 0.485892 -0.241865
v -0.017906 0.529238 0.104443
v 0.020763 0.529238 0.104443
v 0.020763 0.515149 0.056628
v -0.017906 0.515149 0.056628
v -0.017906 0.505882 0.130690
v 0.020763 0.505882 0.130690
v 0.020763 0.486542 0.065057
v -0.017906 0.486542 0.065057
vt 0.200355 0.060922
vt 0.167529 0.060922
vt 0.200355 0.060922
vt 0.265351 0.060922
vt 0.200355 0.060922
vt 0.233181 0.060922
vt 0.200355 0.060922
vt 0.167529 0.060922
vt 0.233181 0.060922
vt 0.167529 0.060922
vt 0.233181 0.060922
vt 0.200355 0.060922
vt 0.233181 0.060922
vt 0.200355 0.060922
vt 0.233181 0.060922
vt 0.167529 0.060922
vt 0.265351 0.060922
vt 0.233181 0.060922
vt 0.265351 0.060922
vt 0.200355 0.060922
vt 0.230842 0.087468
vt 0.265351 0.060922
vt 0.230842 0.087468
vt 0.200355 0.060922
vt 0.200355 0.060922
vt 0.233181 0.060922
vt 0.233181 0.060922
vt 0.200355 0.060922
vt 0.233181 0.060922
vt 0.200355 0.060922
vt 0.200355 0.060922
vt 0.233181 0.060922
vt 0.200355 0.060922
vt 0.233181 0.060922
vt 0.233181 0.060922
vt 0.200355 0.060922
vt 0.233181 0.060922
vt 0.200355 0.060922
vt 0.200355 0.060922
vt 0.233181 0.060922
vt 0.230842 0.087468
vt 0.230842 0.087468
vt 0.233181 0.060922
vt 0.233181 0.060922
vt 0.200355 0.060922
vt 0.200355 0.060922
vt 0.200355 0.060922
vt 0.200355 0.060922
vt 0.201758 0.060967
vt 0.167287 0.060967
vt 0.167287 0.060967
vt 0.201758 0.060967
vt 0.201758 0.060967
vt 0.167287 0.060967
vt 0.167287 0.060967
vt 0.201758 0.060967
vt 0.233181 0.060922
vt 0.233181 0.060922
vt 0.200355 0.060922
vt 0.200355 0.060922
vt 0.233181 0.060922
vt 0.233181 0.060922
vt 0.200355 0.060922
vt 0.200355 0.060922
vt 0.255617 0.060824
vt 0.255617 0.060824
vt 0.255617 0.060824
vt 0.255617 0.060824
vt 0.255617 0.060824
vt 0.255617 0.060824
vt 0.255617 0.060824
vt 0.255617 0.060824
vt 0.231027 0.087852
vt 0.231027 0.087852
vt 0.231027 0.087852
vt 0.231027 0.087852
vt 0.199788 0.087852
vt 0.171781 0.087567
vt 0.199788 0.087852
vt 0.263343 0.087852
vt 0.231027 0.087852
vt 0.231027 0.087852
vt 0.231027 0.087852
vt 0.231027 0.087852
vt 0.230842 0.087468
vt 0.230842 0.087468
vt 0.230842 0.087468
vt 0.230842 0.087468
vt 0.171781 0.087567
vt 0.199788 0.087852
vt 0.199788 0.087852
vt 0.263343 0.087852
vt 0.199788 0.087852
vt 0.199788 0.087852
vt 0.199788 0.087852
vt 0.199788 0.087852
vt 0.171781 0.087567
vt 0.171781 0.087567
vt 0.263343 0.087852
vt 0.263343 0.087852
vt 0.104810 0.060110
vt 0.104810 0.060110
vt 0.104810 0.060110
vt 0.104810 0.060110
vt 0.231027 0.087852
vt 0.231027 0.087852
vt 0.231027 0.087852
vt 0.231027 0.087852
vt 0.231027 0.087852
vt 0.231027 0.087852
vt 0.231027 0.087852
vt 0.231027 0.087852
vt 0.230842 0.087468
vt 0.230842 0.087468
vt 0.230842 0.087468
vt 0.230842 0.087468
vt 0.230842 0.087468
vt 0.230842 0.087468
vt 0.201758 0.060967
vt 0.230842 0.087468
vt 0.167287 0.060967
vt 0.230842 0.087468
vt 0.255617 0.060824
vt 0.255617 0.060824
vt 0.255617 0.060824
vt 0.255617 0.060824
vt 0.255617 0.060824
vt 0.255617 0.060824
vt 0.255617 0.060824
vt 0.255617 0.060824
vt 0.201758 0.060967
vt 0.167287 0.060967
vt 0.201758 0.060967
vt 0.167287 0.060967
vt 0.201758 0.060967
vt 0.167287 0.060967
vt 0.104810 0.060110
vt 0.104810 0.060110
vt 0.104810 0.060110
vt 0.104810 0.060110
vt 0.269621 0.170413
vt 0.269621 0.170413
vt 0.269621 0.170413
vt 0.269621 0.170413
vt 0.167529 0.060922
vt 0.200355 0.060922
vt 0.200355 0.060922
vt 0.167529 0.060922
vt 0.297628 0.063121
vt 0.233181 0.060922
vt 0.201758 0.060967
vt 0.233181 0.060922
vt 0.233181 0.060922
vt 0.233181 0.060922
vt 0.297628 0.063121
vt 0.326713 0.063121
vt 0.266389 0.063121
vt 0.326713 0.063121
vt 0.297628 0.063121
vt 0.297628 0.063121
vt 0.266389 0.063121
vt 0.326713 0.063121
vt 0.266389 0.063121
vt 0.297628 0.063121
vt 0.266389 0.063121
vt 0.201758 0.060967
vt 0.326713 0.063121
vt 0.297628 0.063121
vt 0.201758 0.060967
vt 0.297628 0.063121
vt 0.297628 0.063121
vt 0.201758 0.060967
vt 0.201758 0.060967
vt 0.201758 0.060967
vt 0.201758 0.060967
vt 0.201758 0.060967
vn 0.000000 -0.959223 0.282650
vn 0.000000 -0.959223 0.282650
vn 0.000000 -0.959223 0.282650
vn 0.000000 -0.959223 0.282650
vn 0.000000 0.458240 0.888829
vn 0.000000 0.458240 0.888829
vn 0.000000 0.458240 0.888829
vn 0.000000 0.458240 0.888829
vn 0.000000 0.959223 -0.282651
vn 0.000000 0.959223 -0.282651
vn 0.000000 0.959223 -0.282651
vn 0.000000 0.959223 -0.282651
vn 0.000000 0.024448 -0.999701
vn 0.000000 0.024448 -0.999701
vn 0.000000 -0.120779 -0.992679
vn 0.000000 -0.120779 -0.992679
vn 1.000000 0.000000 0.000000
vn 1.000000 0.000000 0.000000
vn 1.000000 0.000000 0.000000
vn 1.000000 0.000000 0.000000
vn -1.000000 0.000000 0.000000
vn -1.000000 0.000000 0.000000
vn -1.000000 0.000000 0.000000
vn -1.000000 0.000000 0.000000
vn -0.000000 -0.959223 0.282650
vn -0.000000 -0.959223 0.282651
vn -0.000000 -0.959223 0.282650
vn -0.000000 -0.959223 0.282650
vn 1.000000 -0.000000 0.000000
vn 1.000000 -0.000000 0.000000
vn 1.000000 -0.000000 0.000000
vn 1.000000 -0.000000 0.000000
vn 0.000000 0.959223 -0.282650
vn 0.000000 0.959223 -0.282650
vn 0.000000 0.959223 -0.282650
vn 0.000000 0.959223 -0.282650
vn -1.000000 0.000000 0.000000
vn -1.000000 0.000000 0.000000
vn -1.000000 0.000000 0.000000
vn -1.000000 0.000000 0.000000
vn 0.000000 -0.959223 0.282650
vn 0.000000 -0.959223 0.282650
vn 0.000000 -0.959223 0.282650
vn 0.000000 -0.959223 0.282650
vn 1.000000 0.000000 0.000000
vn 1.000000 0.000000 0.000000
vn 1.000000 0.000000 0.000000
vn 1.000000 0.000000 0.000000
vn 1.000000 0.000000 0.000000
vn 0.000000 0.959223 -0.282651
vn 0.000000 0.959223 -0.282651
vn 0.000000 0.959223 -0.282651
vn 0.000000 0.959223 -0.282651
vn -1.000000 0.000000 0.000000
vn -1.000000 0.000000 0.000000
vn -1.000000 0.000000 0.000000
vn -1.000000 0.000000 0.000000
vn -1.000000 0.000000 0.000000
vn 0.011773 -0.740489 -0.671965
vn 0.011773 -0.740489 -0.671965
vn 0.003679 -0.717826 -0.696213
vn 0.006189 -0.724941 -0.688783
vn 0.000000 0.482340 -0.875984
vn 0.000000 0.482340 -0.875984
vn 0.000000 0.482340 -0.875984
vn 0.000000 0.482340 -0.875984
vn 0.478962 -0.248120 -0.842040
vn 0.478962 -0.248120 -0.842040
vn 0.478962 -0.248120 -0.842040
vn 0.478962 -0.248120 -0.842040
vn -0.478950 -0.248122 -0.842046
vn -0.478950 -0.248122 -0.842046
vn -0.478950 -0.248122 -0.842046
vn -0.478950 -0.248122 -0.842046
vn 0.000000 0.282651 0.959223
vn 0.000000 0.282651 0.959223
vn 0.000000 0.282651 0.959223
vn 0.000000 0.282651 0.959223
vn -0.000001 0.282651 0.959223
vn -0.000001 0.282651 0.959223
vn -0.000001 0.282651 0.959223
vn -0.000001 0.282651 0.959223
vn 0.000000 0.282650 0.959223
vn 0.000000 0.282650 0.959223
vn 0.000000 0.282649 0.959223
vn 0.000000 0.282649 0.959223
vn 0.000001 0.282651 0.959223
vn 0.000001 0.282651 0.959223
vn 0.000001 0.282651 0.959223
vn 0.000001 0.282651 0.959223
vn 0.000000 -0.429466 -0.903083
vn 0.000000 -0.429466 -0.903083
vn 0.000000 -0.429466 -0.903083
vn 0.000000 -0.429466 -0.903083
vn 0.999190 -0.038611 0.011377
vn 0.999190 -0.038611 0.011377
vn 0.999190 -0.038611 0.011377
vn 0.999190 -0.038611 0.011377
vn 0.000000 0.146686 0.989183
vn 0.000000 0.146686 0.989183
vn 0.000000 0.146686 0.989183
vn 0.000000 0.146686 0.989183
vn -0.999190 0.038598 -0.011374
vn -0.999190 0.038598 -0.011374
vn -0.999190 0.038598 -0.011374
vn -0.999190 0.038598 -0.011374
vn 0.000000 0.959223 -0.282649
vn 0.000000 0.959223 -0.282649
vn 0.000000 0.959223 -0.282649
vn 0.000000 0.959223 -0.282649
vn 0.000000 0.959223 -0.282650
vn 0.000000 0.959223 -0.282650
vn 0.000000 0.959223 -0.282650
vn 0.000000 0.959223 -0.282650
vn 0.000000 0.959224 -0.282648
vn 0.000000 0.959224 -0.282648
vn 0.000000 0.959224 -0.282648
vn 0.000000 0.959224 -0.282648
vn -0.000000 0.959223 -0.282650
vn -0.000000 0.959223 -0.282650
vn -0.000000 0.959223 -0.282650
vn -0.000000 0.959223 -0.282650
vn 0.000000 -0.959223 0.282650
vn 0.000000 -0.959223 0.282650
vn 0.000000 -0.959223 0.282650
vn 0.000000 -0.959223 0.282650
vn -0.000001 -0.959223 0.282650
vn -0.000001 -0.959223 0.282650
vn -0.000001 -0.959223 0.282650
vn -0.000001 -0.959223 0.282650
vn 0.000000 -0.959224 0.282648
vn 0.000000 -0.959224 0.282648
vn 0.000000 -0.959224 0.282648
vn 0.000000 -0.959224 0.282648
vn 0.000001 -0.959223 0.282650
vn 0.000001 -0.959223 0.282650
vn 0.000001 -0.959223 0.282650
vn 0.000001 -0.959223 0.282650
vn 0.000000 -0.959224 0.282649
vn 0.000000 -0.959224 0.282649
vn 0.000000 -0.959224 0.282649
vn 0.000000 -0.959224 0.282649
vn 0.000001 -0.959223 0.282650
vn 0.000001 -0.959223 0.282650
vn 0.000001 -0.959223 0.282650
vn 0.000001 -0.959223 0.282650
vn 0.000000 -0.959222 0.282653
vn 0.000000 -0.959222 0.282653
vn 0.000000 -0.959222 0.282653
vn 0.000000 -0.959222 0.282653
vn -0.000002 -0.959223 0.282650
vn -0.000002 -0.959223 0.282650
vn -0.000002 -0.959223 0.282650
vn -0.000002 -0.959223 0.282650
vn 0.000000 -0.120779 -0.992679
vn 0.000000 -0.120779 -0.992679
vn 0.000000 -0.282650 -0.959223
vn 0.000000 -0.282650 -0.959223
vn 0.000000 -0.282650 -0.959223
vn 0.000000 -0.282650 -0.959223
vn 0.000000 -0.282650 -0.959223
vn 0.000000 -0.282650 -0.959223
vn 1.000000 0.000000 0.000000
vn 1.000000 0.000000 0.000000
vn 1.000000 0.000000 0.000000
vn 1.000000 0.000000 0.000000
vn 0.000000 -0.959223 0.282650
vn 0.000000 -0.959223 0.282650
vn 0.000000 -0.959223 0.282650
vn 0.000000 -0.959223 0.282650
vn -1.000000 0.000000 0.000000
vn -1.000000 0.000000 0.000000
vn -1.000000 0.000000 0.000000
vn -1.000000 0.000000 0.000000
vn 0.000000 -0.959223 0.282650
vn 0.000000 -0.959223 0.282650
vn 0.000000 -0.959223 0.282650
vn 0.000000 -0.959223 0.282650
vn 0.000000 -0.959223 0.282650
vn -0.000000 -0.959223 0.282651
vn -0.000000 -0.959223 0.282650
vn 0.000000 -0.959223 0.282650
vn -0.006189 -0.724941 -0.688783
vn -0.003679 -0.717826 -0.696213
vn -0.011773 -0.740490 -0.671965
vn -0.011773 -0.740490 -0.671965
vn 0.006189 -0.724941 -0.688783
vn 0.003679 -0.717826 -0.696213
vn -0.003679 -0.717826 -0.696213
vn -0.006189 -0.724941 -0.688783
s off
f 61/221/89 62/222/90 63/223/91 64/224/92
f 36/84/93 35/102/94 37/97/95 38/99/96
f 38/86/97 37/98/98 39/123/99 40/124/100
f 41/88/101 42/90/102 65/225/103 66/228/104
f 34/125/105 39/126/106 37/85/107 35/83/108
f 40/127/109 33/128/110 36/104/111 38/100/112
f 69/233/113 30/115/114 26/107/115 68/232/116
f 30/116/117 31/118/118 27/110/119 26/108/120
f 28/112/121 27/109/122 31/117/123 32/120/124
f 32/119/125 29/113/126 25/105/127 28/111/128
f 44/95/129 43/91/130 45/137/131 46/138/132
f 43/92/133 65/226/134 42/87/135 47/139/136 45/140/137
f 48/141/138 47/142/139 42/89/140 41/93/141
f 41/94/142 66/227/143 44/81/144 46/143/145 48/144/146
f 25/129/147 67/252/148 71/253/149 33/132/150
f 27/133/151 28/213/152 40/211/153 39/136/154
f 26/130/155 27/214/156 39/212/157 34/131/158
f 28/134/159 25/216/160 33/201/161 40/135/162
f 30/145/163 29/209/164 46/204/165 45/148/166
f 31/149/167 30/210/168 45/207/169 47/150/170
f 32/151/171 31/208/172 47/205/173 48/152/174
f 29/146/175 32/206/176 48/203/177 46/147/178
f 53/169/179 54/158/180 50/178/181 49/177/182
f 54/174/183 55/159/184 51/173/185 50/176/186
f 55/172/187 56/160/188 52/179/189 51/180/190
f 56/170/191 53/157/192 49/175/193 52/171/194
f 33/101/195 34/200/196 54/197/197 53/122/198
f 34/103/199 35/198/200 55/195/201 54/121/202
f 35/165/203 36/196/204 56/194/205 55/166/206
f 36/167/207 33/202/208 53/193/209 56/168/210
f 49/153/211 50/191/212 58/189/213 57/161/214
f 50/154/215 51/190/216 59/187/217 58/162/218
f 51/155/219 52/188/220 60/186/221 59/163/222
f 52/156/223 49/192/224 57/185/225 60/164/226
f 57/181/227 58/182/228 62/218/229 61/217/230
f 58/182/231 59/183/232 63/219/233 62/218/234
f 59/183/235 60/184/236 64/220/237 63/219/238
f 60/184/239 57/181/240 61/217/241 64/220/242
f 66/228/243 65/225/244 43/82/245 44/96/246
f 69/237/247 73/245/248 74/243/249 70/241/250
f 68/251/251 72/250/252 73/244/253 69/248/254
f 72/236/255 71/247/256 74/242/257 73/238/258
f 71/235/259 67/229/260 70/240/261 74/239/262
f 29/114/263 70/234/264 67/230/265 25/106/266
f 29/114/267 30/115/268 69/233/269 70/234/270
f 34/256/271 72/249/272 68/231/273 26/215/274
f 33/254/275 71/246/276 72/255/277 34/199/278
