# This file uses centimeters as units for non-parametric coordinates.

v -0.536330 0.000000 0.128931
v 0.536331 0.000000 0.128931
v -0.536330 0.705230 0.128931
v 0.536331 0.705230 0.128931
v -0.536330 0.705230 -0.128931
v 0.536331 0.705230 -0.128931
v -0.536330 0.000000 -0.128931
v 0.536331 0.000000 -0.128931
v -0.536330 0.000000 0.027194
v -0.536330 0.705230 0.027194
v 0.536331 0.705230 0.027194
v 0.536331 0.000000 0.027194
v 0.536331 0.705230 -0.031288
v -0.536330 0.705230 -0.031288
v -0.536330 0.000000 -0.031288
v 0.536331 0.000000 -0.031288
v 0.214532 0.705230 -0.031288
v -0.214532 0.705230 -0.031288
v -0.214532 0.705230 0.027194
v 0.214532 0.705230 0.027194
v -0.214532 0.840138 -0.031288
v -0.214532 0.840138 0.027194
v 0.214532 0.840138 0.027194
v 0.214532 0.840138 -0.031288
v -0.162953 0.738407 0.027194
v 0.162954 0.738407 0.027194
v 0.162954 0.806961 0.027194
v -0.162953 0.806961 0.027194
v 0.162954 0.738407 -0.031288
v -0.162953 0.738407 -0.031288
v -0.162953 0.806961 -0.031288
v 0.162954 0.806961 -0.031288
vt 0.171241 0.061278
vt 0.195967 0.061278
vt 0.231291 0.061278
vt 0.171241 0.061278
vt 0.195967 0.061278
vt 0.231291 0.061278
vt 0.137094 0.061278
vt 0.195967 0.061278
vt 0.137094 0.061278
vt 0.137094 0.061278
vt 0.171241 0.061278
vt 0.171241 0.061278
vt 0.171241 0.061278
vt 0.171241 0.061278
vt 0.231291 0.061278
vt 0.195967 0.061278
vt 0.195967 0.061278
vt 0.231291 0.061278
vt 0.137094 0.061278
vt 0.195967 0.061278
vt 0.171241 0.061278
vt 0.195967 0.061278
vt 0.195967 0.061278
vt 0.171241 0.061278
vt 0.267320 0.474952
vt 0.137094 0.061278
vt 0.171241 0.061278
vt 0.231291 0.061278
vt 0.231291 0.061278
vt 0.171241 0.061278
vt 0.233173 0.474952
vt 0.171241 0.061278
vt 0.327370 0.474952
vt 0.267320 0.474952
vt 0.171241 0.061278
vt 0.231291 0.061278
vt 0.171241 0.061278
vt 0.137094 0.061278
vt 0.137094 0.061278
vt 0.171241 0.061278
vt 0.233173 0.474952
vt 0.267320 0.474952
vt 0.231291 0.061278
vt 0.171241 0.061278
vt 0.267320 0.474952
vt 0.233173 0.474952
vt 0.327370 0.474952
vt 0.267320 0.474952
vt 0.137094 0.061278
vt 0.267320 0.474952
vt 0.171241 0.061278
vt 0.233173 0.474952
vt 0.327370 0.474952
vt 0.267320 0.474952
vt 0.267320 0.474952
vt 0.327370 0.474952
vt 0.298013 0.474952
vt 0.231291 0.061278
vt 0.298013 0.474952
vt 0.231291 0.061278
vt 0.298013 0.474952
vt 0.231291 0.061278
vt 0.298013 0.474952
vt 0.231291 0.061278
vt 0.298013 0.474952
vt 0.298013 0.474952
vt 0.298013 0.474952
vt 0.298013 0.474952
vt 0.355393 0.474952
vt 0.267321 0.474952
vt 0.327370 0.474952
vt 0.267321 0.474952
vt 0.355393 0.474952
vt 0.267321 0.474952
vt 0.327370 0.474952
vt 0.267321 0.474952
vt 0.355393 0.474952
vt 0.298013 0.474952
vt 0.298013 0.474952
vt 0.355393 0.474952
vt 0.355393 0.474952
vt 0.355393 0.474952
vt 0.355393 0.474952
vt 0.355393 0.474952
vt 0.298013 0.474952
vt 0.267321 0.474952
vt 0.267321 0.474952
vt 0.298013 0.474952
vt 0.298013 0.474952
vt 0.267321 0.474952
vt 0.267321 0.474952
vt 0.298013 0.474952
vt 0.267321 0.474952
vt 0.267321 0.474952
vt 0.327370 0.474952
vt 0.267321 0.474952
vt 0.267321 0.474952
vt 0.327370 0.474952
vt 0.267321 0.474952
vt 0.267321 0.474952
vt 0.327370 0.474952
vt 0.267321 0.474952
vt 0.267321 0.474952
vt 0.327370 0.474952
vt 0.298013 0.474952
vt 0.298013 0.474952
vt 0.327370 0.474952
vt 0.298013 0.474952
vt 0.298013 0.474952
vt 0.298013 0.474952
vt 0.298013 0.474952
vt 0.298013 0.474952
vt 0.298013 0.474952
vt 0.298013 0.474952
vt 0.298013 0.474952
vt 0.298013 0.474952
vt 0.327370 0.474952
vt 0.298013 0.474952
vt 0.298013 0.474952
vt 0.298013 0.474952
vt 0.298013 0.474952
vt 0.298013 0.474952
vt 0.298013 0.474952
vt 0.298013 0.474952
vn 0.000000 0.000000 1.000000
vn 0.000000 0.000000 1.000000
vn 0.000000 0.000000 1.000000
vn 0.000000 0.000000 1.000000
vn 0.000000 1.000000 0.000000
vn 0.000000 1.000000 0.000000
vn 0.000000 1.000000 0.000000
vn 0.000000 1.000000 0.000000
vn 0.000000 0.000000 -1.000000
vn 0.000000 0.000000 -1.000000
vn 0.000000 0.000000 -1.000000
vn 0.000000 0.000000 -1.000000
vn 0.000000 -1.000000 0.000000
vn 0.000000 -1.000000 0.000000
vn 0.000000 -1.000000 0.000000
vn 0.000000 -1.000000 0.000000
vn 1.000000 0.000000 0.000000
vn 1.000000 0.000000 0.000000
vn 1.000000 0.000000 0.000000
vn 1.000000 0.000000 0.000000
vn -1.000000 0.000000 0.000000
vn -1.000000 0.000000 0.000000
vn -1.000000 0.000000 0.000000
vn -1.000000 0.000000 0.000000
vn -1.000000 0.000000 0.000000
vn -1.000000 0.000000 0.000000
vn -1.000000 0.000000 0.000000
vn -1.000000 0.000000 0.000000
vn 0.000000 1.000000 0.000001
vn 0.000000 1.000000 0.000001
vn 0.000000 1.000000 0.000000
vn 0.000000 1.000000 0.000001
vn 0.000000 1.000000 0.000001
vn 0.000000 1.000000 0.000000
vn 1.000000 0.000000 0.000000
vn 1.000000 0.000000 0.000000
vn 1.000000 0.000000 0.000000
vn 1.000000 0.000000 0.000000
vn 0.000000 -1.000000 0.000000
vn 0.000000 -1.000000 0.000000
vn 0.000000 -1.000000 0.000000
vn 0.000000 -1.000000 0.000000
vn 0.000000 1.000000 -0.000000
vn 0.000000 1.000000 -0.000001
vn 0.000000 1.000000 -0.000001
vn 0.000000 1.000000 -0.000000
vn 0.000000 1.000000 -0.000001
vn 0.000000 1.000000 -0.000001
vn -1.000000 0.000000 0.000000
vn -1.000000 0.000000 0.000000
vn -1.000000 0.000000 0.000000
vn -1.000000 0.000000 0.000000
vn 0.000000 -1.000000 0.000000
vn 0.000000 -1.000000 0.000000
vn 0.000000 -1.000000 0.000000
vn 0.000000 -1.000000 0.000000
vn 1.000000 0.000000 0.000000
vn 1.000000 0.000000 0.000000
vn 1.000000 0.000000 0.000000
vn 1.000000 0.000000 0.000000
vn 0.000000 1.000000 0.000000
vn 0.000000 1.000000 0.000001
vn 0.000000 1.000000 -0.000001
vn 0.000000 1.000000 -0.000000
vn 0.000000 1.000000 -0.000001
vn 0.000000 1.000000 0.000001
vn 0.000000 1.000000 0.000000
vn 0.000000 1.000000 -0.000000
vn -1.000000 0.000000 0.000000
vn -1.000000 0.000000 0.000000
vn -1.000000 0.000000 0.000000
vn -1.000000 0.000000 0.000000
vn 1.000000 0.000000 0.000000
vn 1.000000 0.000000 0.000000
vn 1.000000 0.000000 0.000000
vn 1.000000 0.000000 0.000000
vn 0.000000 0.000000 1.000000
vn 0.000000 0.000000 1.000000
vn 0.000000 0.000000 1.000000
vn 0.000000 0.000000 1.000000
vn -0.000000 0.000000 1.000000
vn -0.000000 0.000000 1.000000
vn -0.000000 0.000000 1.000000
vn -0.000000 0.000000 1.000000
vn 0.000000 0.000000 1.000000
vn 0.000000 0.000000 1.000000
vn 0.000000 0.000000 1.000000
vn 0.000000 0.000000 1.000000
vn 0.000000 0.000000 1.000000
vn 0.000000 0.000000 1.000000
vn 0.000000 0.000000 1.000000
vn 0.000000 0.000000 1.000000
vn 0.000000 0.000000 -1.000000
vn 0.000000 0.000000 -1.000000
vn 0.000000 0.000000 -1.000000
vn 0.000000 0.000000 -1.000000
vn -0.000000 0.000000 -1.000000
vn -0.000000 0.000000 -1.000000
vn -0.000000 0.000000 -1.000000
vn -0.000000 0.000000 -1.000000
vn 0.000000 0.000000 -1.000000
vn 0.000000 0.000000 -1.000000
vn 0.000000 0.000000 -1.000000
vn 0.000000 0.000000 -1.000000
vn 0.000000 0.000000 -1.000000
vn 0.000000 0.000000 -1.000000
vn 0.000000 0.000000 -1.000000
vn 0.000000 0.000000 -1.000000
vn 0.000000 -1.000000 0.000000
vn 0.000000 -1.000000 0.000000
vn 0.000000 -1.000000 0.000000
vn 0.000000 -1.000000 0.000000
vn 1.000000 0.000000 0.000000
vn 1.000000 0.000000 0.000000
vn 1.000000 0.000000 0.000000
vn 1.000000 0.000000 0.000000
vn 0.000000 1.000000 0.000000
vn 0.000000 1.000000 0.000000
vn 0.000000 1.000000 0.000000
vn 0.000000 1.000000 0.000000
vn -1.000000 0.000000 0.000000
vn -1.000000 0.000000 0.000000
vn -1.000000 0.000000 0.000000
vn -1.000000 0.000000 0.000000
s off
f 1/23/1 2/2/2 4/22/3 3/17/4
f 21/82/5 22/84/6 23/83/7 24/81/8
f 5/5/9 6/16/10 8/8/11 7/20/12
f 15/46/13 16/41/14 12/31/15 9/52/16
f 11/54/17 12/50/18 16/42/19 13/34/20
f 14/48/21 15/45/22 9/25/23 10/55/24
f 10/27/25 9/51/26 1/1/27 3/24/28
f 3/3/29 4/15/30 11/29/31 20/64/32 19/62/33 10/28/34
f 2/21/35 12/32/36 11/30/37 4/4/38
f 9/26/39 12/49/40 2/10/41 1/9/42
f 14/36/43 18/60/44 17/58/45 13/43/46 6/6/47 5/18/48
f 7/13/49 15/37/50 14/35/51 5/14/52
f 7/7/53 8/19/54 16/39/55 15/38/56
f 13/44/57 16/40/58 8/11/59 6/12/60
f 10/56/61 19/101/62 18/104/63 14/47/64
f 17/95/65 20/98/66 11/53/67 13/33/68
f 18/103/69 19/102/70 22/100/71 21/99/72
f 20/97/73 17/96/74 24/94/75 23/93/76
f 19/61/77 20/123/78 26/121/79 25/78/80
f 20/63/81 23/122/82 27/119/83 26/92/84
f 23/67/85 22/120/86 28/116/87 27/118/88
f 22/66/89 19/124/90 25/115/91 28/88/92
f 17/57/93 18/113/94 30/111/95 29/79/96
f 18/59/97 21/112/98 31/109/99 30/89/100
f 21/65/101 24/110/102 32/106/103 31/108/104
f 24/68/105 17/114/106 29/105/107 32/85/108
f 27/71/109 28/117/110 31/75/111 32/107/112
f 28/72/113 25/90/114 30/74/115 31/87/116
f 26/80/117 29/73/118 30/77/119 25/69/120
f 27/86/121 32/76/122 29/91/123 26/70/124
