# This file uses centimeters as units for non-parametric coordinates.

v -0.406654 0.197267 0.406655
v 0.406654 0.197267 0.406655
v -0.406654 0.240364 0.406655
v 0.406654 0.240364 0.406655
v -0.406654 0.240364 -0.406655
v 0.406654 0.240364 -0.406655
v -0.406654 0.197267 -0.406655
v 0.406654 0.197267 -0.406655
v -0.364473 0.240364 0.364474
v 0.364475 0.240364 0.364474
v 0.364475 0.240364 -0.364474
v -0.364473 0.240364 -0.364474
v -0.300011 0.220497 0.300011
v 0.300011 0.220497 0.300011
v 0.300011 0.220497 -0.300011
v -0.300011 0.220497 -0.300011
v -0.406654 0.130957 0.406655
v 0.406654 0.130957 0.406655
v -0.406654 0.174054 0.406655
v 0.406654 0.174054 0.406655
v -0.406654 0.174054 -0.406655
v 0.406654 0.174054 -0.406655
v -0.406654 0.130957 -0.406655
v 0.406654 0.130957 -0.406655
v -0.364473 0.174054 0.364474
v 0.364475 0.174054 0.364474
v 0.364475 0.174054 -0.364474
v -0.364473 0.174054 -0.364474
v -0.300011 0.154187 0.300011
v 0.300011 0.154187 0.300011
v 0.300011 0.154187 -0.300011
v -0.300011 0.154187 -0.300011
v -0.406654 0.063406 0.406655
v 0.406654 0.063406 0.406655
v -0.406654 0.106504 0.406655
v 0.406654 0.106504 0.406655
v -0.406654 0.106504 -0.406655
v 0.406654 0.106504 -0.406655
v -0.406654 0.063406 -0.406655
v 0.406654 0.063406 -0.406655
v -0.364473 0.106504 0.364474
v 0.364475 0.106504 0.364474
v 0.364475 0.106504 -0.364474
v -0.364473 0.106504 -0.364474
v -0.300011 0.086637 0.300011
v 0.300011 0.086637 0.300011
v 0.300011 0.086637 -0.300011
v -0.300011 0.086637 -0.300011
v -0.406654 0.000000 0.406655
v 0.406654 0.000000 0.406655
v -0.406654 0.043097 0.406655
v 0.406654 0.043097 0.406655
v -0.406654 0.043097 -0.406655
v 0.406654 0.043097 -0.406655
v -0.406654 0.000000 -0.406655
v 0.406654 0.000000 -0.406655
v -0.364473 0.043097 0.364474
v 0.364475 0.043097 0.364474
v 0.364475 0.043097 -0.364474
v -0.364473 0.043097 -0.364474
v -0.300011 0.023230 0.300011
v 0.300011 0.023230 0.300011
v 0.300011 0.023230 -0.300011
v -0.300011 0.023230 -0.300011
vt 0.331760 0.479233
vt 0.331761 0.479233
vt 0.331761 0.479233
vt 0.331760 0.479233
vt 0.363930 0.479233
vt 0.363930 0.479233
vt 0.363930 0.479233
vt 0.363930 0.479233
vt 0.331760 0.479233
vt 0.331761 0.479233
vt 0.331761 0.479233
vt 0.331760 0.479233
vt 0.266108 0.479233
vt 0.266108 0.479233
vt 0.266108 0.479233
vt 0.266108 0.479233
vt 0.298934 0.479233
vt 0.298934 0.479233
vt 0.298934 0.479233
vt 0.298934 0.479233
vt 0.298934 0.479233
vt 0.298934 0.479233
vt 0.298934 0.479233
vt 0.298934 0.479233
vt 0.363930 0.479233
vt 0.363930 0.479233
vt 0.363930 0.479233
vt 0.363930 0.479233
vt 0.363930 0.479233
vt 0.363930 0.479233
vt 0.363930 0.479233
vt 0.363930 0.479233
vt 0.363930 0.479233
vt 0.363930 0.479233
vt 0.363930 0.479233
vt 0.363930 0.479233
vt 0.363930 0.479233
vt 0.363930 0.479233
vt 0.363930 0.479233
vt 0.363930 0.479233
vt 0.331529 0.479233
vt 0.331530 0.479233
vt 0.331530 0.479233
vt 0.331529 0.479233
vt 0.331530 0.479233
vt 0.331530 0.479233
vt 0.331530 0.479233
vt 0.331530 0.479233
vt 0.331530 0.479233
vt 0.331529 0.479233
vt 0.331529 0.479233
vt 0.331530 0.479233
vt 0.331529 0.479233
vt 0.331529 0.479233
vt 0.331529 0.479233
vt 0.331529 0.479233
vt 0.331760 0.479233
vt 0.331761 0.479233
vt 0.331761 0.479233
vt 0.331760 0.479233
vt 0.363930 0.479233
vt 0.363930 0.479233
vt 0.363930 0.479233
vt 0.363930 0.479233
vt 0.331760 0.479233
vt 0.331761 0.479233
vt 0.331761 0.479233
vt 0.331760 0.479233
vt 0.266108 0.479233
vt 0.266108 0.479233
vt 0.266108 0.479233
vt 0.266108 0.479233
vt 0.298934 0.479233
vt 0.298934 0.479233
vt 0.298934 0.479233
vt 0.298934 0.479233
vt 0.298934 0.479233
vt 0.298934 0.479233
vt 0.298934 0.479233
vt 0.298934 0.479233
vt 0.363930 0.479233
vt 0.363930 0.479233
vt 0.363930 0.479233
vt 0.363930 0.479233
vt 0.363930 0.479233
vt 0.363930 0.479233
vt 0.363930 0.479233
vt 0.363930 0.479233
vt 0.363930 0.479233
vt 0.363930 0.479233
vt 0.363930 0.479233
vt 0.363930 0.479233
vt 0.363930 0.479233
vt 0.363930 0.479233
vt 0.363930 0.479233
vt 0.363930 0.479233
vt 0.331529 0.479233
vt 0.331530 0.479233
vt 0.331530 0.479233
vt 0.331529 0.479233
vt 0.331530 0.479233
vt 0.331530 0.479233
vt 0.331530 0.479233
vt 0.331530 0.479233
vt 0.331530 0.479233
vt 0.331529 0.479233
vt 0.331529 0.479233
vt 0.331530 0.479233
vt 0.331529 0.479233
vt 0.331529 0.479233
vt 0.331529 0.479233
vt 0.331529 0.479233
vt 0.331760 0.479233
vt 0.331761 0.479233
vt 0.331761 0.479233
vt 0.331760 0.479233
vt 0.363930 0.479233
vt 0.363930 0.479233
vt 0.363930 0.479233
vt 0.363930 0.479233
vt 0.331760 0.479233
vt 0.331761 0.479233
vt 0.331761 0.479233
vt 0.331760 0.479233
vt 0.266108 0.479233
vt 0.266108 0.479233
vt 0.266108 0.479233
vt 0.266108 0.479233
vt 0.298934 0.479233
vt 0.298934 0.479233
vt 0.298934 0.479233
vt 0.298934 0.479233
vt 0.298934 0.479233
vt 0.298934 0.479233
vt 0.298934 0.479233
vt 0.298934 0.479233
vt 0.363930 0.479233
vt 0.363930 0.479233
vt 0.363930 0.479233
vt 0.363930 0.479233
vt 0.363930 0.479233
vt 0.363930 0.479233
vt 0.363930 0.479233
vt 0.363930 0.479233
vt 0.363930 0.479233
vt 0.363930 0.479233
vt 0.363930 0.479233
vt 0.363930 0.479233
vt 0.363930 0.479233
vt 0.363930 0.479233
vt 0.363930 0.479233
vt 0.363930 0.479233
vt 0.331529 0.479233
vt 0.331530 0.479233
vt 0.331530 0.479233
vt 0.331529 0.479233
vt 0.331530 0.479233
vt 0.331530 0.479233
vt 0.331530 0.479233
vt 0.331530 0.479233
vt 0.331530 0.479233
vt 0.331529 0.479233
vt 0.331529 0.479233
vt 0.331530 0.479233
vt 0.331529 0.479233
vt 0.331529 0.479233
vt 0.331529 0.479233
vt 0.331529 0.479233
vt 0.331760 0.479233
vt 0.331761 0.479233
vt 0.331761 0.479233
vt 0.331760 0.479233
vt 0.363930 0.479233
vt 0.363930 0.479233
vt 0.363930 0.479233
vt 0.363930 0.479233
vt 0.331760 0.479233
vt 0.331761 0.479233
vt 0.331761 0.479233
vt 0.331760 0.479233
vt 0.266108 0.479233
vt 0.266108 0.479233
vt 0.266108 0.479233
vt 0.266108 0.479233
vt 0.298934 0.479233
vt 0.298934 0.479233
vt 0.298934 0.479233
vt 0.298934 0.479233
vt 0.298934 0.479233
vt 0.298934 0.479233
vt 0.298934 0.479233
vt 0.298934 0.479233
vt 0.363930 0.479233
vt 0.363930 0.479233
vt 0.363930 0.479233
vt 0.363930 0.479233
vt 0.363930 0.479233
vt 0.363930 0.479233
vt 0.363930 0.479233
vt 0.363930 0.479233
vt 0.363930 0.479233
vt 0.363930 0.479233
vt 0.363930 0.479233
vt 0.363930 0.479233
vt 0.363930 0.479233
vt 0.363930 0.479233
vt 0.363930 0.479233
vt 0.363930 0.479233
vt 0.331529 0.479233
vt 0.331530 0.479233
vt 0.331530 0.479233
vt 0.331529 0.479233
vt 0.331530 0.479233
vt 0.331530 0.479233
vt 0.331530 0.479233
vt 0.331530 0.479233
vt 0.331530 0.479233
vt 0.331529 0.479233
vt 0.331529 0.479233
vt 0.331530 0.479233
vt 0.331529 0.479233
vt 0.331529 0.479233
vt 0.331529 0.479233
vt 0.331529 0.479233
vn 0.000000 0.000000 1.000000
vn 0.000000 0.000000 1.000000
vn 0.000000 0.000000 1.000000
vn 0.000000 0.000000 1.000000
vn 0.000000 1.000000 0.000000
vn 0.000000 1.000000 0.000000
vn 0.000000 1.000000 0.000000
vn 0.000000 1.000000 0.000000
vn 0.000000 0.000000 -1.000000
vn 0.000000 0.000000 -1.000000
vn 0.000000 0.000000 -1.000000
vn 0.000000 0.000000 -1.000000
vn 0.000000 -1.000000 0.000000
vn 0.000000 -1.000000 0.000000
vn 0.000000 -1.000000 0.000000
vn 0.000000 -1.000000 0.000000
vn 1.000000 0.000000 0.000000
vn 1.000000 0.000000 0.000000
vn 1.000000 0.000000 0.000000
vn 1.000000 0.000000 0.000000
vn -1.000000 0.000000 0.000000
vn -1.000000 0.000000 0.000000
vn -1.000000 0.000000 0.000000
vn -1.000000 0.000000 0.000000
vn 0.000000 1.000000 -0.000000
vn 0.000000 1.000000 -0.000000
vn 0.000000 1.000000 -0.000000
vn 0.000000 1.000000 -0.000000
vn 0.000000 1.000000 0.000000
vn 0.000000 1.000000 0.000000
vn 0.000000 1.000000 0.000000
vn 0.000000 1.000000 0.000000
vn 0.000000 1.000000 0.000000
vn 0.000000 1.000000 0.000000
vn 0.000000 1.000000 0.000000
vn 0.000000 1.000000 0.000000
vn 0.000000 1.000000 0.000000
vn 0.000000 1.000000 0.000000
vn 0.000000 1.000000 0.000000
vn 0.000000 1.000000 0.000000
vn 0.000000 0.955643 -0.294526
vn 0.000000 0.955643 -0.294526
vn 0.000000 0.955643 -0.294526
vn 0.000000 0.955643 -0.294526
vn -0.294518 0.955646 0.000000
vn -0.294518 0.955646 0.000000
vn -0.294518 0.955646 0.000000
vn -0.294518 0.955646 0.000000
vn 0.000000 0.955644 0.294525
vn 0.000000 0.955644 0.294525
vn 0.000000 0.955644 0.294525
vn 0.000000 0.955644 0.294525
vn 0.294526 0.955643 0.000000
vn 0.294526 0.955643 0.000000
vn 0.294526 0.955643 0.000000
vn 0.294526 0.955643 0.000000
vn 0.000000 0.000000 1.000000
vn 0.000000 0.000000 1.000000
vn 0.000000 0.000000 1.000000
vn 0.000000 0.000000 1.000000
vn 0.000000 1.000000 0.000000
vn 0.000000 1.000000 0.000000
vn 0.000000 1.000000 0.000000
vn 0.000000 1.000000 0.000000
vn 0.000000 0.000000 -1.000000
vn 0.000000 0.000000 -1.000000
vn 0.000000 0.000000 -1.000000
vn 0.000000 0.000000 -1.000000
vn 0.000000 -1.000000 0.000000
vn 0.000000 -1.000000 0.000000
vn 0.000000 -1.000000 0.000000
vn 0.000000 -1.000000 0.000000
vn 1.000000 0.000000 0.000000
vn 1.000000 0.000000 0.000000
vn 1.000000 0.000000 0.000000
vn 1.000000 0.000000 0.000000
vn -1.000000 0.000000 0.000000
vn -1.000000 0.000000 0.000000
vn -1.000000 0.000000 0.000000
vn -1.000000 0.000000 0.000000
vn 0.000000 1.000000 0.000000
vn 0.000000 1.000000 0.000000
vn 0.000000 1.000000 0.000000
vn 0.000000 1.000000 0.000000
vn 0.000000 1.000000 0.000000
vn 0.000000 1.000000 0.000000
vn 0.000000 1.000000 0.000000
vn 0.000000 1.000000 0.000000
vn 0.000000 1.000000 0.000000
vn 0.000000 1.000000 0.000000
vn 0.000000 1.000000 0.000000
vn 0.000000 1.000000 0.000000
vn 0.000000 1.000000 0.000000
vn 0.000000 1.000000 0.000000
vn 0.000000 1.000000 0.000000
vn 0.000000 1.000000 0.000000
vn 0.000000 0.955643 -0.294528
vn 0.000000 0.955643 -0.294528
vn 0.000000 0.955643 -0.294528
vn 0.000000 0.955643 -0.294528
vn -0.294520 0.955645 0.000000
vn -0.294520 0.955645 0.000000
vn -0.294520 0.955645 0.000000
vn -0.294520 0.955645 0.000000
vn 0.000000 0.955643 0.294527
vn 0.000000 0.955643 0.294527
vn 0.000000 0.955643 0.294527
vn 0.000000 0.955643 0.294527
vn 0.294528 0.955643 0.000000
vn 0.294528 0.955643 0.000000
vn 0.294528 0.955643 0.000000
vn 0.294528 0.955643 0.000000
vn 0.000000 0.000000 1.000000
vn 0.000000 0.000000 1.000000
vn 0.000000 0.000000 1.000000
vn 0.000000 0.000000 1.000000
vn 0.000000 1.000000 0.000000
vn 0.000000 1.000000 0.000000
vn 0.000000 1.000000 0.000000
vn 0.000000 1.000000 0.000000
vn 0.000000 0.000000 -1.000000
vn 0.000000 0.000000 -1.000000
vn 0.000000 0.000000 -1.000000
vn 0.000000 0.000000 -1.000000
vn 0.000000 -1.000000 0.000000
vn 0.000000 -1.000000 0.000000
vn 0.000000 -1.000000 0.000000
vn 0.000000 -1.000000 0.000000
vn 1.000000 0.000000 0.000000
vn 1.000000 0.000000 0.000000
vn 1.000000 0.000000 0.000000
vn 1.000000 0.000000 0.000000
vn -1.000000 0.000000 0.000000
vn -1.000000 0.000000 0.000000
vn -1.000000 0.000000 0.000000
vn -1.000000 0.000000 0.000000
vn 0.000000 1.000000 0.000000
vn 0.000000 1.000000 0.000000
vn 0.000000 1.000000 0.000000
vn 0.000000 1.000000 0.000000
vn 0.000000 1.000000 0.000000
vn 0.000000 1.000000 0.000000
vn 0.000000 1.000000 0.000000
vn 0.000000 1.000000 0.000000
vn 0.000000 1.000000 0.000000
vn 0.000000 1.000000 0.000000
vn 0.000000 1.000000 0.000000
vn 0.000000 1.000000 0.000000
vn 0.000000 1.000000 0.000000
vn 0.000000 1.000000 0.000000
vn 0.000000 1.000000 0.000000
vn 0.000000 1.000000 0.000000
vn 0.000000 0.955643 -0.294528
vn 0.000000 0.955643 -0.294528
vn 0.000000 0.955643 -0.294528
vn 0.000000 0.955643 -0.294528
vn -0.294520 0.955645 0.000000
vn -0.294520 0.955645 0.000000
vn -0.294520 0.955645 0.000000
vn -0.294520 0.955645 0.000000
vn 0.000000 0.955643 0.294527
vn 0.000000 0.955643 0.294527
vn 0.000000 0.955643 0.294527
vn 0.000000 0.955643 0.294527
vn 0.294528 0.955643 0.000000
vn 0.294528 0.955643 0.000000
vn 0.294528 0.955643 0.000000
vn 0.294528 0.955643 0.000000
vn 0.000000 0.000000 1.000000
vn 0.000000 0.000000 1.000000
vn 0.000000 0.000000 1.000000
vn 0.000000 0.000000 1.000000
vn 0.000000 1.000000 0.000000
vn 0.000000 1.000000 0.000000
vn 0.000000 1.000000 0.000000
vn 0.000000 1.000000 0.000000
vn 0.000000 0.000000 -1.000000
vn 0.000000 0.000000 -1.000000
vn 0.000000 0.000000 -1.000000
vn 0.000000 0.000000 -1.000000
vn 0.000000 -1.000000 0.000000
vn 0.000000 -1.000000 0.000000
vn 0.000000 -1.000000 0.000000
vn 0.000000 -1.000000 0.000000
vn 1.000000 0.000000 0.000000
vn 1.000000 0.000000 0.000000
vn 1.000000 0.000000 0.000000
vn 1.000000 0.000000 0.000000
vn -1.000000 0.000000 0.000000
vn -1.000000 0.000000 0.000000
vn -1.000000 0.000000 0.000000
vn -1.000000 0.000000 0.000000
vn 0.000000 1.000000 -0.000000
vn 0.000000 1.000000 -0.000000
vn 0.000000 1.000000 -0.000000
vn 0.000000 1.000000 -0.000000
vn 0.000000 1.000000 0.000000
vn 0.000000 1.000000 0.000000
vn 0.000000 1.000000 0.000000
vn 0.000000 1.000000 0.000000
vn 0.000000 1.000000 0.000000
vn 0.000000 1.000000 0.000000
vn 0.000000 1.000000 0.000000
vn 0.000000 1.000000 0.000000
vn 0.000000 1.000000 0.000000
vn 0.000000 1.000000 0.000000
vn 0.000000 1.000000 0.000000
vn 0.000000 1.000000 0.000000
vn 0.000000 0.955643 -0.294528
vn 0.000000 0.955643 -0.294528
vn 0.000000 0.955643 -0.294528
vn 0.000000 0.955643 -0.294528
vn -0.294520 0.955645 0.000000
vn -0.294520 0.955645 0.000000
vn -0.294520 0.955645 0.000000
vn -0.294520 0.955645 0.000000
vn 0.000000 0.955643 0.294527
vn 0.000000 0.955643 0.294527
vn 0.000000 0.955643 0.294527
vn 0.000000 0.955643 0.294527
vn 0.294528 0.955643 0.000000
vn 0.294528 0.955643 0.000000
vn 0.294528 0.955643 0.000000
vn 0.294528 0.955643 0.000000
s off
f 1/1/1 2/2/2 4/3/3 3/4/4
f 13/5/5 14/6/6 15/7/7 16/8/8
f 5/9/9 6/10/10 8/11/11 7/12/12
f 7/13/13 8/14/14 2/15/15 1/16/16
f 2/17/17 8/18/18 6/19/19 4/20/20
f 7/21/21 1/22/22 3/23/23 5/24/24
f 3/25/25 4/26/26 10/27/27 9/28/28
f 4/29/29 6/30/30 11/31/31 10/32/32
f 6/33/33 5/34/34 12/35/35 11/36/36
f 5/37/37 3/38/38 9/39/39 12/40/40
f 9/41/41 10/42/42 14/43/43 13/44/44
f 10/45/45 11/46/46 15/47/47 14/48/48
f 11/49/49 12/50/50 16/51/51 15/52/52
f 12/53/53 9/54/54 13/55/55 16/56/56
f 17/57/57 18/58/58 20/59/59 19/60/60
f 29/61/61 30/62/62 31/63/63 32/64/64
f 21/65/65 22/66/66 24/67/67 23/68/68
f 23/69/69 24/70/70 18/71/71 17/72/72
f 18/73/73 24/74/74 22/75/75 20/76/76
f 23/77/77 17/78/78 19/79/79 21/80/80
f 19/81/81 20/82/82 26/83/83 25/84/84
f 20/85/85 22/86/86 27/87/87 26/88/88
f 22/89/89 21/90/90 28/91/91 27/92/92
f 21/93/93 19/94/94 25/95/95 28/96/96
f 25/97/97 26/98/98 30/99/99 29/100/100
f 26/101/101 27/102/102 31/103/103 30/104/104
f 27/105/105 28/106/106 32/107/107 31/108/108
f 28/109/109 25/110/110 29/111/111 32/112/112
f 33/113/113 34/114/114 36/115/115 35/116/116
f 45/117/117 46/118/118 47/119/119 48/120/120
f 37/121/121 38/122/122 40/123/123 39/124/124
f 39/125/125 40/126/126 34/127/127 33/128/128
f 34/129/129 40/130/130 38/131/131 36/132/132
f 39/133/133 33/134/134 35/135/135 37/136/136
f 35/137/137 36/138/138 42/139/139 41/140/140
f 36/141/141 38/142/142 43/143/143 42/144/144
f 38/145/145 37/146/146 44/147/147 43/148/148
f 37/149/149 35/150/150 41/151/151 44/152/152
f 41/153/153 42/154/154 46/155/155 45/156/156
f 42/157/157 43/158/158 47/159/159 46/160/160
f 43/161/161 44/162/162 48/163/163 47/164/164
f 44/165/165 41/166/166 45/167/167 48/168/168
f 49/169/169 50/170/170 52/171/171 51/172/172
f 61/173/173 62/174/174 63/175/175 64/176/176
f 53/177/177 54/178/178 56/179/179 55/180/180
f 55/181/181 56/182/182 50/183/183 49/184/184
f 50/185/185 56/186/186 54/187/187 52/188/188
f 55/189/189 49/190/190 51/191/191 53/192/192
f 51/193/193 52/194/194 58/195/195 57/196/196
f 52/197/197 54/198/198 59/199/199 58/200/200
f 54/201/201 53/202/202 60/203/203 59/204/204
f 53/205/205 51/206/206 57/207/207 60/208/208
f 57/209/209 58/210/210 62/211/211 61/212/212
f 58/213/213 59/214/214 63/215/215 62/216/216
f 59/217/217 60/218/218 64/219/219 63/220/220
f 60/221/221 57/222/222 61/223/223 64/224/224
