# This file uses centimeters as units for non-parametric coordinates.

v 0.091677 0.000000 -0.081879
v 3.605642 0.000000 -3.595848
v 0.091678 0.000000 -1.081882
v 2.605642 0.000000 -3.595848
v 0.091677 1.030293 -0.081879
v 3.605642 1.030293 -3.595848
v 2.605642 1.030293 -3.595848
v 0.091678 1.030293 -1.081882
v 0.000000 1.030293 0.000000
v 3.687521 1.030293 -3.687527
v 3.687521 1.294057 -3.687527
v 0.000000 1.294057 0.000000
v 2.523763 1.294057 -3.687527
v 0.000001 1.294057 -1.163757
v 2.523763 1.030293 -3.687527
v 0.000001 1.030293 -1.163757
v 2.605642 0.000000 -1.081882
v 2.605642 1.030293 -1.081882
v 2.523763 1.030293 -1.163757
v 2.523763 1.294057 -1.163757
v 3.687521 1.294057 -0.000004
v 3.687521 1.030293 -0.000004
v 3.605642 1.030293 -0.081879
v 3.605642 0.000000 -0.081879
vt 0.267141 0.479233
vt 0.181836 0.063055
vt 0.235537 0.059232
vt 0.181836 0.063055
vt 0.181836 0.063055
vt 0.267141 0.479233
vt 0.299968 0.479233
vt 0.299968 0.479233
vt 0.267141 0.479233
vt 0.299967 0.479233
vt 0.267141 0.479233
vt 0.299967 0.479233
vt 0.235537 0.059232
vt 0.181836 0.063055
vt 0.235537 0.059232
vt 0.181836 0.063055
vt 0.181836 0.063055
vt 0.235537 0.059232
vt 0.181836 0.063055
vt 0.181836 0.063055
vt 0.135911 0.058939
vt 0.135911 0.058939
vt 0.299968 0.479233
vt 0.267141 0.479233
vt 0.299968 0.479233
vt 0.267141 0.479233
vt 0.267141 0.479233
vt 0.299967 0.479233
vt 0.135911 0.058939
vt 0.135911 0.058939
vt 0.299967 0.479233
vt 0.267141 0.479233
vt 0.135911 0.058939
vt 0.135911 0.058939
vt 0.135911 0.058939
vt 0.135911 0.058939
vt 0.181836 0.063055
vt 0.135911 0.058939
vt 0.181836 0.063055
vt 0.135911 0.058939
vt 0.135911 0.058939
vt 0.181836 0.063055
vt 0.135911 0.058939
vt 0.181836 0.063055
vt 0.299967 0.479233
vt 0.299967 0.479233
vt 0.135911 0.058939
vt 0.135911 0.058939
vt 0.135911 0.058939
vt 0.135911 0.058939
vt 0.135911 0.058939
vt 0.135911 0.058939
vt 0.299967 0.479233
vt 0.135911 0.058939
vt 0.299967 0.479233
vt 0.235537 0.059232
vt 0.135911 0.058939
vt 0.235537 0.059232
vn 0.707107 0.000000 0.707106
vn 0.707107 0.000000 0.707106
vn 1.000000 0.000000 -0.000000
vn 1.000000 0.000000 -0.000000
vn 0.000000 1.000000 0.000000
vn 0.000000 1.000000 0.000000
vn 0.000000 1.000000 0.000000
vn 0.000000 1.000000 0.000000
vn -0.707108 0.000000 -0.707106
vn -0.707108 0.000000 -0.707106
vn -1.000000 0.000000 0.000000
vn -1.000000 0.000000 0.000000
vn 0.000000 0.000000 -1.000000
vn 0.000000 0.000000 -1.000000
vn 0.000000 0.000000 -1.000000
vn 0.000000 0.000000 -1.000000
vn -1.000000 0.000000 -0.000001
vn -1.000000 0.000000 -0.000001
vn -1.000000 0.000000 -0.000001
vn -1.000000 0.000000 -0.000001
vn 0.707107 0.000000 0.707106
vn 0.707107 0.000000 0.707106
vn 1.000000 0.000000 -0.000000
vn 1.000000 0.000000 -0.000000
vn 0.000000 0.000000 -1.000000
vn 0.000000 0.000000 -1.000000
vn 0.000000 0.000000 -1.000000
vn 0.000000 0.000000 -1.000000
vn -0.707107 0.000000 -0.707107
vn -0.707107 0.000000 -0.707107
vn -1.000000 0.000000 0.000000
vn -1.000000 0.000000 0.000000
vn -1.000000 0.000000 -0.000001
vn -1.000000 0.000000 -0.000001
vn -1.000000 0.000000 -0.000001
vn -1.000000 0.000000 -0.000001
vn 0.000000 -1.000000 -0.000000
vn 0.000000 -1.000000 -0.000000
vn 0.000000 -1.000000 0.000000
vn 0.000000 -1.000000 0.000000
vn 0.000000 -1.000000 -0.000000
vn 0.000000 -1.000000 -0.000000
vn 0.000000 -1.000000 -0.000000
vn 0.000000 -1.000000 -0.000000
vn 0.000000 -1.000000 0.000001
vn 0.000000 -1.000000 0.000001
vn 0.000000 -1.000000 0.000001
vn 0.000000 -1.000000 0.000001
vn 0.000000 -1.000000 0.000000
vn 0.000000 -1.000000 0.000000
vn 0.000000 -1.000000 0.000000
vn 0.000000 -1.000000 0.000000
vn 0.000000 0.000000 -1.000000
vn -0.707107 0.000000 -0.707107
vn -0.707107 0.000000 -0.707107
vn 0.000000 0.000000 -1.000000
vn 0.000000 -1.000000 -0.000000
vn 0.000000 -1.000000 -0.000000
vn 0.000000 -1.000000 0.000000
vn 0.000000 -1.000000 0.000000
vn 0.000000 0.000000 -1.000000
vn -0.707108 0.000000 -0.707106
vn -0.707108 0.000000 -0.707106
vn 0.000000 0.000000 -1.000000
vn 0.000000 1.000000 0.000000
vn 0.000000 1.000000 0.000000
vn 0.000000 1.000000 0.000000
vn 0.000000 1.000000 0.000000
vn 0.000001 0.000000 1.000000
vn 0.707107 0.000000 0.707106
vn 0.707107 0.000000 0.707106
vn 0.000001 0.000000 1.000000
vn 0.000000 -1.000000 -0.000000
vn 0.000000 -1.000000 -0.000000
vn 0.000000 -1.000000 -0.000000
vn 0.000000 -1.000000 -0.000000
vn 0.000000 0.000000 1.000000
vn 0.707107 0.000000 0.707106
vn 0.707107 0.000000 0.707106
vn 0.000000 0.000000 1.000000
s off
f 21/2/1 22/4/2 10/5/3 11/14/4
f 20/58/5 21/56/6 11/18/7 13/13/8
f 19/16/9 20/17/10 13/19/11 15/20/12
f 10/5/13 15/20/14 13/19/15 11/14/16
f 16/37/17 9/39/18 12/42/19 14/44/20
f 23/46/21 24/45/22 2/8/23 6/23/24
f 2/9/25 4/6/26 7/26/27 6/24/28
f 17/53/29 18/55/30 7/25/31 4/7/32
f 3/11/33 1/1/34 5/32/35 8/27/36
f 22/50/37 23/49/38 6/35/39 10/38/40
f 7/34/41 18/54/42 19/57/43 15/51/44
f 6/36/45 7/33/46 15/52/47 10/41/48
f 8/30/49 5/21/50 9/48/51 16/43/52
f 8/28/53 18/55/54 17/53/55 3/10/56
f 19/57/57 18/54/58 8/29/59 16/40/60
f 14/44/61 20/17/62 19/16/63 16/37/64
f 12/3/65 21/56/66 20/58/67 14/15/68
f 9/39/69 22/4/70 21/2/71 12/42/72
f 5/22/73 23/49/74 22/50/75 9/47/76
f 1/12/77 24/45/78 23/46/79 5/31/80
