# This file uses centimeters as units for non-parametric coordinates.

v -1.130150 0.000000 -0.360023
v -1.130151 0.000000 0.360023
v -1.130150 3.288293 -0.360023
v -1.130151 2.689819 0.360023
v 1.130146 3.288293 -0.360023
v 1.130146 2.689819 0.360023
v 1.130146 0.000000 -0.360023
v 1.130146 0.000000 0.360023
v 1.013214 0.768820 0.360023
v -1.013219 0.768820 0.360023
v 1.013214 2.689816 0.360023
v -1.013219 2.689816 0.360023
v 1.013214 0.768820 -0.247158
v -1.013219 0.768820 -0.247158
v 1.013214 3.288289 -0.247158
v -1.013219 3.288289 -0.247158
v 1.013214 1.490847 0.301292
v -1.013218 1.490847 0.301292
v 1.013214 1.490847 -0.247158
v -1.013219 1.490847 -0.247158
v 1.013214 1.554125 0.301292
v -1.013218 1.554125 0.301292
v 1.013214 1.554125 -0.247158
v -1.013219 1.554125 -0.247158
v 1.013214 2.251393 0.301292
v -1.013218 2.251393 0.301292
v 1.013214 2.251393 -0.247158
v -1.013219 2.251393 -0.247158
v 1.013214 2.314670 0.301292
v -1.013218 2.314670 0.301292
v 1.013214 2.314670 -0.247158
v -1.013219 2.314670 -0.247158
v 1.130150 3.288293 -0.247158
v -1.130150 3.288293 -0.247086
vt 0.380485 0.060182
vt 0.380485 0.060182
vt 0.380485 0.060182
vt 0.324058 0.060156
vt 0.380485 0.060182
vt 0.324058 0.060156
vt 0.380485 0.060182
vt 0.380485 0.060182
vt 0.380485 0.060182
vt 0.380485 0.060182
vt 0.380485 0.060182
vt 0.380485 0.060182
vt 0.422111 0.060208
vt 0.324058 0.060156
vt 0.324058 0.060156
vt 0.361059 0.060156
vt 0.324058 0.060156
vt 0.324058 0.060156
vt 0.422111 0.060208
vt 0.380485 0.060182
vt 0.380485 0.060182
vt 0.380485 0.060182
vt 0.327758 0.060208
vt 0.327758 0.060208
vt 0.327758 0.060208
vt 0.327758 0.060208
vt 0.380485 0.060182
vt 0.380485 0.060182
vt 0.380485 0.060182
vt 0.380485 0.060182
vt 0.422111 0.060208
vt 0.380485 0.060182
vt 0.380485 0.060182
vt 0.380485 0.060182
vt 0.327758 0.060208
vt 0.327758 0.060208
vt 0.327758 0.060208
vt 0.327758 0.060208
vt 0.380485 0.060182
vt 0.380485 0.060182
vt 0.380485 0.060182
vt 0.380485 0.060182
vt 0.380485 0.060182
vt 0.422111 0.060208
vt 0.422111 0.060208
vt 0.422111 0.060208
vt 0.380485 0.060182
vt 0.422111 0.060208
vt 0.422111 0.060208
vt 0.422111 0.060208
vt 0.422111 0.060208
vt 0.422111 0.060208
vt 0.380485 0.060182
vt 0.422111 0.060208
vt 0.324058 0.060156
vt 0.324058 0.060156
vt 0.324058 0.060156
vt 0.380485 0.060182
vt 0.324058 0.060156
vt 0.361059 0.060156
vt 0.380485 0.060182
vt 0.361059 0.060156
vt 0.361059 0.060156
vt 0.324058 0.060156
vt 0.324058 0.060156
vt 0.380485 0.060182
vt 0.380485 0.060182
vt 0.324058 0.060156
vt 0.324058 0.060156
vt 0.324058 0.060156
vt 0.324058 0.060156
vt 0.380485 0.060182
vt 0.324058 0.060156
vt 0.491830 0.060118
vt 0.491831 0.060118
vt 0.324058 0.060156
vt 0.457341 0.059843
vt 0.457341 0.059843
vt 0.457341 0.059843
vt 0.457341 0.059843
vt 0.457341 0.059843
vt 0.457341 0.059843
vt 0.457341 0.059843
vt 0.457341 0.059843
vt 0.491831 0.060118
vt 0.491830 0.060118
vt 0.491830 0.060118
vt 0.491831 0.060118
vt 0.491831 0.060118
vt 0.491830 0.060118
vt 0.491830 0.060118
vt 0.491831 0.060118
vt 0.380485 0.060182
vt 0.380485 0.060182
vt 0.380485 0.060182
vt 0.380485 0.060182
vt 0.380485 0.060182
vt 0.380485 0.060182
vt 0.380485 0.060182
vt 0.380485 0.060182
vt 0.380485 0.060182
vt 0.380485 0.060182
vt 0.380485 0.060182
vt 0.380485 0.060182
vt 0.380485 0.060182
vt 0.380485 0.060182
vt 0.380485 0.060182
vt 0.380485 0.060182
vt 0.380485 0.060182
vt 0.380485 0.060182
vt 0.380485 0.060182
vt 0.380485 0.060182
vn -1.000000 0.000000 -0.000001
vn -1.000000 0.000000 -0.000001
vn -1.000000 0.000000 -0.000001
vn -1.000000 0.000000 -0.000001
vn -1.000000 0.000000 -0.000001
vn 1.000000 -0.000001 -0.000001
vn 1.000000 -0.000001 -0.000001
vn 1.000000 -0.000001 -0.000001
vn 1.000000 -0.000001 -0.000001
vn 1.000000 -0.000001 -0.000001
vn 0.000000 -1.000000 0.000000
vn 0.000000 -1.000000 0.000000
vn 0.000000 -1.000000 0.000000
vn 0.000000 -1.000000 0.000000
vn 0.000000 0.000000 1.000000
vn 0.000000 0.000000 1.000000
vn 0.000000 0.000000 1.000000
vn 0.000000 0.000000 1.000000
vn 0.000000 0.000000 -1.000000
vn 0.000000 0.000000 -1.000000
vn 0.000000 0.000000 -1.000000
vn 0.000000 0.000000 -1.000000
vn 0.000000 0.000000 1.000000
vn 0.000000 0.000000 1.000000
vn 0.000000 0.000000 1.000000
vn 0.000000 0.000000 1.000000
vn 0.000000 0.000000 1.000000
vn 0.000000 0.000000 1.000000
vn 0.000000 0.000000 1.000000
vn 0.000000 0.000000 1.000000
vn -0.000000 0.000000 1.000000
vn -0.000000 0.000000 1.000000
vn -0.000000 0.000000 1.000000
vn -0.000000 0.000000 1.000000
vn 0.000000 1.000000 0.000000
vn 0.000000 1.000000 0.000000
vn 0.000000 1.000000 0.000000
vn 0.000000 1.000000 0.000000
vn -1.000000 0.000000 0.000000
vn -1.000000 0.000000 0.000000
vn -1.000000 0.000000 0.000000
vn -1.000000 0.000000 0.000000
vn 1.000000 0.000000 0.000000
vn 1.000000 0.000000 0.000000
vn 1.000000 0.000000 0.000000
vn 1.000000 0.000000 0.000000
vn 0.000000 1.000000 0.000000
vn 0.000000 1.000000 0.000000
vn 0.000000 1.000000 0.000000
vn 0.000000 1.000000 0.000000
vn 0.000000 -1.000000 0.000000
vn 0.000000 -1.000000 0.000000
vn 0.000000 -1.000000 0.000000
vn 0.000000 -1.000000 0.000000
vn 0.000000 0.000000 1.000000
vn 0.000000 0.000000 1.000000
vn 0.000000 0.000000 1.000000
vn 0.000000 0.000000 1.000000
vn 1.000000 0.000000 0.000000
vn 1.000000 0.000000 0.000000
vn 1.000000 0.000000 0.000000
vn 1.000000 0.000000 0.000000
vn 0.000000 0.000000 -1.000000
vn 0.000000 0.000000 -1.000000
vn 0.000000 0.000000 -1.000000
vn 0.000000 0.000000 -1.000000
vn -1.000000 0.000000 0.000002
vn -1.000000 0.000000 0.000002
vn -1.000000 0.000000 0.000002
vn -1.000000 0.000000 0.000002
vn 0.000000 1.000000 -0.000000
vn 0.000000 1.000000 -0.000000
vn 0.000000 1.000000 -0.000000
vn 0.000000 1.000000 -0.000000
vn 0.000000 -1.000000 0.000000
vn 0.000000 -1.000000 0.000000
vn 0.000000 -1.000000 0.000000
vn 0.000000 -1.000000 0.000000
vn 0.000000 0.000000 1.000000
vn 0.000000 0.000000 1.000000
vn 0.000000 0.000000 1.000000
vn 0.000000 0.000000 1.000000
vn 1.000000 0.000000 0.000000
vn 1.000000 0.000000 0.000000
vn 1.000000 0.000000 0.000000
vn 1.000000 0.000000 0.000000
vn 0.000000 0.000000 -1.000000
vn 0.000000 0.000000 -1.000000
vn 0.000000 0.000000 -1.000000
vn 0.000000 0.000000 -1.000000
vn -1.000000 0.000000 0.000002
vn -1.000000 0.000000 0.000002
vn -1.000000 0.000000 0.000002
vn -1.000000 0.000000 0.000002
vn 0.000240 0.712174 0.702003
vn 0.000240 0.712174 0.702003
vn 0.000240 0.712174 0.702003
vn 0.000240 0.712174 0.702003
vn 0.000000 1.000000 0.000032
vn 0.000000 1.000000 0.000032
vn 0.000000 1.000000 0.000032
vn 0.000000 1.000000 0.000032
vn -0.000031 1.000000 -0.000000
vn -0.000031 1.000000 -0.000000
vn -0.000031 1.000000 -0.000000
vn -0.000023 0.712195 0.701981
vn -0.000023 0.712195 0.701981
vn -0.000023 0.712195 0.701981
vn -0.000023 0.712195 0.701981
vn 0.000031 1.000000 0.000000
vn 0.000031 1.000000 0.000000
vn 0.000031 1.000000 0.000000
s off
f 1/71/1 2/69/2 4/70/3 34/76/4 3/56/5
f 5/4/6 33/73/7 6/55/8 8/6/9 7/68/10
f 7/5/11 8/67/12 2/8/13 1/7/14
f 14/16/15 13/63/16 15/62/17 16/60/18
f 7/11/19 1/1/20 3/72/21 5/12/22
f 2/2/23 8/112/24 9/110/25 10/53/26
f 8/9/27 6/10/28 11/58/29 9/66/30
f 4/3/31 2/111/32 10/109/33 12/61/34
f 10/13/35 9/54/36 13/51/37 14/52/38
f 9/14/39 11/64/40 15/57/41 13/17/42
f 12/15/43 10/65/44 14/59/45 16/18/46
f 22/19/47 21/50/48 23/49/49 24/48/50
f 18/23/51 20/24/52 19/25/53 17/26/54
f 18/27/55 17/108/56 21/105/57 22/47/58
f 17/28/59 19/106/60 23/103/61 21/20/62
f 19/29/63 20/104/64 24/102/65 23/21/66
f 20/30/67 18/107/68 22/101/69 24/22/70
f 30/31/71 29/46/72 31/45/73 32/44/74
f 26/35/75 28/36/76 27/37/77 25/38/78
f 26/39/79 25/100/80 29/97/81 30/43/82
f 25/40/83 27/98/84 31/95/85 29/32/86
f 27/41/87 28/96/88 32/94/89 31/33/90
f 28/42/91 26/99/92 30/93/93 32/34/94
f 16/77/95 34/78/96 4/79/97 12/80/98
f 5/74/99 3/92/100 16/89/101 15/86/102
f 5/91/103 15/90/104 33/87/105
f 33/81/106 15/82/107 11/83/108 6/84/109
f 16/85/110 3/75/111 34/88/112
