# This file uses centimeters as units for non-parametric coordinates.

v -0.617704 0.000000 0.285728
v -0.017519 0.000000 0.285728
v -0.617704 0.600187 0.285728
v -0.017519 0.600187 0.285728
v -0.617704 0.600187 0.025965
v -0.017519 0.600187 0.025965
v -0.617704 0.000000 0.025965
v -0.017519 0.000000 0.025965
v -0.617704 0.294178 0.285728
v -0.017519 0.294178 0.285728
v -0.017519 0.294178 0.025965
v -0.617706 0.294178 0.025965
v -0.017519 0.472697 0.025965
v -0.017519 0.472697 0.285728
v -0.617704 0.472697 0.285728
v -0.617706 0.472697 0.025965
v -0.617704 0.223512 0.285728
v -0.017519 0.223512 0.285728
v -0.017519 0.223512 0.025965
v -0.617706 0.223512 0.025965
v 0.013474 0.000000 0.292273
v 0.613586 0.000000 0.301796
v 0.013474 0.600187 0.292273
v 0.613586 0.600187 0.301796
v 0.017593 0.600187 0.032543
v 0.617706 0.600187 0.042065
v 0.017593 0.000000 0.032543
v 0.617706 0.000000 0.042065
v 0.013474 0.294178 0.292273
v 0.613586 0.294178 0.301796
v 0.617706 0.294178 0.042065
v 0.017593 0.294178 0.032543
v 0.617706 0.472697 0.042065
v 0.613586 0.472697 0.301796
v 0.013474 0.472697 0.292273
v 0.017593 0.472697 0.032543
v 0.013474 0.223512 0.292273
v 0.613586 0.223512 0.301796
v 0.617706 0.223512 0.042065
v 0.017593 0.223512 0.032543
v -0.617704 0.000000 -0.042034
v -0.017519 0.000000 -0.042034
v -0.617704 0.600187 -0.042034
v -0.017519 0.600187 -0.042034
v -0.617704 0.600187 -0.301798
v -0.017519 0.600187 -0.301798
v -0.617704 0.000000 -0.301798
v -0.017519 0.000000 -0.301798
v -0.617704 0.294178 -0.042034
v -0.017519 0.294178 -0.042034
v -0.017519 0.294178 -0.301798
v -0.617706 0.294178 -0.301798
v -0.017519 0.472697 -0.301798
v -0.017519 0.472697 -0.042034
v -0.617704 0.472697 -0.042034
v -0.617706 0.472697 -0.301798
v -0.617704 0.223512 -0.042034
v -0.017519 0.223512 -0.042034
v -0.017519 0.223512 -0.301798
v -0.617706 0.223512 -0.301798
vt 0.235629 0.422626
vt 0.260356 0.422626
vt 0.295680 0.422626
vt 0.235629 0.422626
vt 0.260356 0.422626
vt 0.295680 0.422626
vt 0.201483 0.422626
vt 0.260356 0.422626
vt 0.201483 0.422626
vt 0.201483 0.422626
vt 0.235629 0.422626
vt 0.235629 0.422626
vt 0.235629 0.422626
vt 0.235629 0.422626
vt 0.295680 0.422626
vt 0.260356 0.422626
vt 0.260356 0.422626
vt 0.295680 0.422626
vt 0.201483 0.422626
vt 0.260356 0.422626
vt 0.235629 0.422626
vt 0.260356 0.422626
vt 0.260356 0.422626
vt 0.235629 0.422626
vt 0.334212 0.477017
vt 0.358939 0.477017
vt 0.258656 0.220361
vt 0.233929 0.220361
vt 0.358939 0.477017
vt 0.233929 0.220361
vt 0.334212 0.477017
vt 0.258656 0.220361
vt 0.358939 0.477017
vt 0.334212 0.477017
vt 0.260356 0.422626
vt 0.235629 0.422626
vt 0.235629 0.422626
vt 0.260356 0.422626
vt 0.235629 0.422626
vt 0.260356 0.422626
vt 0.334212 0.477017
vt 0.358939 0.477017
vt 0.235629 0.422626
vt 0.260356 0.422626
vt 0.358939 0.477017
vt 0.334212 0.477017
vt 0.334212 0.477017
vt 0.358939 0.477017
vt 0.233929 0.220361
vt 0.358939 0.477017
vt 0.258656 0.220361
vt 0.334212 0.477017
vt 0.258656 0.220361
vt 0.233930 0.220361
vt 0.358939 0.477017
vt 0.334212 0.477017
vt 0.233930 0.220361
vt 0.258656 0.220361
vt 0.260356 0.422626
vt 0.235629 0.422626
vt 0.260356 0.422626
vt 0.235629 0.422626
vt 0.235629 0.422626
vt 0.260356 0.422626
vt 0.258656 0.220361
vt 0.233929 0.220361
vt 0.260356 0.422626
vt 0.235629 0.422626
vt 0.233929 0.220361
vt 0.258656 0.220361
vt 0.258656 0.220361
vt 0.233929 0.220361
vt 0.358939 0.477017
vt 0.358939 0.477017
vt 0.358939 0.477017
vt 0.358939 0.477017
vt 0.295680 0.422626
vt 0.295680 0.422626
vt 0.295680 0.422626
vt 0.295680 0.422626
vt 0.358939 0.477017
vt 0.358939 0.477017
vt 0.358939 0.477017
vt 0.358939 0.477017
vt 0.201483 0.422626
vt 0.201483 0.422626
vt 0.201483 0.422626
vt 0.201483 0.422626
vt 0.334212 0.477017
vt 0.334212 0.477017
vt 0.334212 0.477017
vt 0.334212 0.477017
vt 0.334212 0.477017
vt 0.334212 0.477017
vt 0.334212 0.477017
vt 0.334212 0.477017
vt 0.258656 0.220361
vt 0.258656 0.220361
vt 0.258656 0.220361
vt 0.258656 0.220361
vt 0.233929 0.220361
vt 0.233929 0.220361
vt 0.233929 0.220361
vt 0.233929 0.220361
vt 0.258656 0.220361
vt 0.258656 0.220361
vt 0.258656 0.220361
vt 0.258656 0.220361
vt 0.233929 0.220361
vt 0.233930 0.220361
vt 0.233930 0.220361
vt 0.233929 0.220361
vt 0.235629 0.422626
vt 0.235629 0.422626
vt 0.235629 0.422626
vt 0.235629 0.422626
vt 0.260356 0.422626
vt 0.260356 0.422626
vt 0.260356 0.422626
vt 0.260356 0.422626
vt 0.235629 0.422626
vt 0.235629 0.422626
vt 0.235629 0.422626
vt 0.235629 0.422626
vt 0.260356 0.422626
vt 0.260356 0.422626
vt 0.260356 0.422626
vt 0.260356 0.422626
vt 0.260356 0.422626
vt 0.260356 0.422626
vt 0.260356 0.422626
vt 0.260356 0.422626
vt 0.235629 0.422626
vt 0.235629 0.422626
vt 0.235629 0.422626
vt 0.235629 0.422626
vt 0.260356 0.422626
vt 0.260356 0.422626
vt 0.260356 0.422626
vt 0.260356 0.422626
vt 0.235629 0.422626
vt 0.235629 0.422626
vt 0.235629 0.422626
vt 0.235629 0.422626
vt 0.358939 0.477017
vt 0.358939 0.477017
vt 0.358939 0.477017
vt 0.358939 0.477017
vt 0.295680 0.422626
vt 0.295680 0.422626
vt 0.295680 0.422626
vt 0.295680 0.422626
vt 0.358939 0.477017
vt 0.358939 0.477017
vt 0.358939 0.477017
vt 0.358939 0.477017
vt 0.201483 0.422626
vt 0.201483 0.422626
vt 0.201483 0.422626
vt 0.201483 0.422626
vt 0.334212 0.477017
vt 0.334212 0.477017
vt 0.334212 0.477017
vt 0.334212 0.477017
vt 0.334212 0.477017
vt 0.334212 0.477017
vt 0.334212 0.477017
vt 0.334212 0.477017
vt 0.258656 0.220361
vt 0.258656 0.220361
vt 0.258656 0.220361
vt 0.258656 0.220361
vt 0.233929 0.220361
vt 0.233929 0.220361
vt 0.233929 0.220361
vt 0.233929 0.220361
vt 0.258656 0.220361
vt 0.258656 0.220361
vt 0.258656 0.220361
vt 0.258656 0.220361
vt 0.233929 0.220361
vt 0.233930 0.220361
vt 0.233930 0.220361
vt 0.233929 0.220361
vt 0.235629 0.422626
vt 0.235629 0.422626
vt 0.235629 0.422626
vt 0.235629 0.422626
vt 0.260356 0.422626
vt 0.260356 0.422626
vt 0.260356 0.422626
vt 0.260356 0.422626
vt 0.235629 0.422626
vt 0.235629 0.422626
vt 0.235629 0.422626
vt 0.235629 0.422626
vt 0.260356 0.422626
vt 0.260356 0.422626
vt 0.260356 0.422626
vt 0.260356 0.422626
vt 0.260356 0.422626
vt 0.260356 0.422626
vt 0.260356 0.422626
vt 0.260356 0.422626
vt 0.235629 0.422626
vt 0.235629 0.422626
vt 0.235629 0.422626
vt 0.235629 0.422626
vt 0.260356 0.422626
vt 0.260356 0.422626
vt 0.260356 0.422626
vt 0.260356 0.422626
vt 0.235629 0.422626
vt 0.235629 0.422626
vt 0.235629 0.422626
vt 0.235629 0.422626
vn 0.000000 0.000000 1.000000
vn 0.000000 0.000000 1.000000
vn 0.000000 0.000000 1.000000
vn 0.000000 0.000000 1.000000
vn 0.000000 1.000000 0.000000
vn 0.000000 1.000000 0.000000
vn 0.000000 1.000000 0.000000
vn 0.000000 1.000000 0.000000
vn 0.000000 0.000000 -1.000000
vn 0.000000 0.000000 -1.000000
vn 0.000000 0.000000 -1.000000
vn 0.000000 0.000000 -1.000000
vn 0.000000 -1.000000 0.000000
vn 0.000000 -1.000000 0.000000
vn 0.000000 -1.000000 0.000000
vn 0.000000 -1.000000 0.000000
vn 1.000000 0.000000 0.000000
vn 1.000000 0.000000 0.000000
vn 1.000000 0.000000 0.000000
vn 1.000000 0.000000 0.000000
vn -1.000000 0.000000 0.000007
vn -1.000000 0.000000 0.000007
vn -1.000000 0.000003 0.000006
vn -1.000000 0.000003 0.000006
vn 0.000000 0.000000 1.000000
vn 0.000000 0.000000 1.000000
vn 0.000000 0.000000 1.000000
vn 0.000000 0.000000 1.000000
vn 1.000000 0.000000 0.000000
vn 1.000000 0.000000 0.000000
vn 1.000000 0.000000 0.000000
vn 1.000000 0.000000 0.000000
vn 0.000000 0.000000 -1.000000
vn 0.000000 0.000000 -1.000000
vn 0.000000 0.000000 -1.000000
vn 0.000000 0.000000 -1.000000
vn -1.000000 -0.000003 0.000005
vn -1.000000 -0.000003 0.000005
vn -1.000000 0.000000 0.000007
vn -1.000000 0.000000 0.000007
vn 1.000000 0.000000 0.000000
vn 1.000000 0.000000 0.000000
vn 1.000000 0.000000 0.000000
vn 1.000000 0.000000 0.000000
vn 0.000000 0.000000 1.000000
vn 0.000000 0.000000 1.000000
vn 0.000000 0.000000 1.000000
vn 0.000000 0.000000 1.000000
vn -1.000000 0.000003 0.000006
vn -1.000000 0.000003 0.000006
vn -1.000000 0.000007 0.000004
vn -1.000000 0.000007 0.000004
vn 0.000000 0.000000 -1.000000
vn 0.000000 0.000000 -1.000000
vn 0.000000 0.000000 -1.000000
vn 0.000000 0.000000 -1.000000
vn 0.000000 0.000000 1.000000
vn 0.000000 0.000000 1.000000
vn 0.000000 0.000000 1.000000
vn 0.000000 0.000000 1.000000
vn 1.000000 0.000000 0.000000
vn 1.000000 0.000000 0.000000
vn 1.000000 0.000000 0.000000
vn 1.000000 0.000000 0.000000
vn 0.000000 0.000000 -1.000000
vn 0.000000 0.000000 -1.000000
vn 0.000000 0.000000 -1.000000
vn 0.000000 0.000000 -1.000000
vn -1.000000 -0.000004 0.000004
vn -1.000000 -0.000004 0.000004
vn -1.000000 -0.000003 0.000005
vn -1.000000 -0.000003 0.000005
vn -0.015867 0.000000 0.999874
vn -0.015867 0.000000 0.999874
vn -0.015867 0.000000 0.999874
vn -0.015867 0.000000 0.999874
vn 0.000000 1.000000 -0.000000
vn 0.000000 1.000000 -0.000000
vn 0.000000 1.000000 -0.000000
vn 0.000000 1.000000 -0.000000
vn 0.015864 0.000000 -0.999874
vn 0.015864 0.000000 -0.999874
vn 0.015864 0.000000 -0.999874
vn 0.015864 0.000000 -0.999874
vn 0.000000 -1.000000 0.000000
vn 0.000000 -1.000000 0.000000
vn 0.000000 -1.000000 0.000000
vn 0.000000 -1.000000 0.000000
vn 0.999874 0.000000 0.015860
vn 0.999874 0.000000 0.015860
vn 0.999874 0.000000 0.015860
vn 0.999874 0.000000 0.015860
vn -0.999874 0.000000 -0.015860
vn -0.999874 0.000000 -0.015860
vn -0.999874 0.000000 -0.015860
vn -0.999874 0.000000 -0.015860
vn -0.015867 0.000000 0.999874
vn -0.015867 0.000000 0.999874
vn -0.015867 0.000000 0.999874
vn -0.015867 0.000000 0.999874
vn 0.999874 0.000000 0.015860
vn 0.999874 0.000000 0.015860
vn 0.999874 0.000000 0.015860
vn 0.999874 0.000000 0.015860
vn 0.015864 0.000000 -0.999874
vn 0.015864 0.000000 -0.999874
vn 0.015864 0.000000 -0.999874
vn 0.015864 0.000000 -0.999874
vn -0.999874 0.000000 -0.015860
vn -0.999874 0.000000 -0.015860
vn -0.999874 0.000000 -0.015860
vn -0.999874 0.000000 -0.015860
vn 0.999874 0.000000 0.015860
vn 0.999874 0.000000 0.015860
vn 0.999874 0.000000 0.015860
vn 0.999874 0.000000 0.015860
vn -0.015867 0.000000 0.999874
vn -0.015867 0.000000 0.999874
vn -0.015867 0.000000 0.999874
vn -0.015867 0.000000 0.999874
vn -0.999874 0.000000 -0.015860
vn -0.999874 0.000000 -0.015860
vn -0.999874 0.000000 -0.015860
vn -0.999874 0.000000 -0.015860
vn 0.015864 0.000000 -0.999874
vn 0.015864 0.000000 -0.999874
vn 0.015864 0.000000 -0.999874
vn 0.015864 0.000000 -0.999874
vn -0.015867 0.000000 0.999874
vn -0.015867 0.000000 0.999874
vn -0.015867 0.000000 0.999874
vn -0.015867 0.000000 0.999874
vn 0.999874 0.000000 0.015860
vn 0.999874 0.000000 0.015860
vn 0.999874 0.000000 0.015860
vn 0.999874 0.000000 0.015860
vn 0.015864 0.000000 -0.999874
vn 0.015864 0.000000 -0.999874
vn 0.015864 0.000000 -0.999874
vn 0.015864 0.000000 -0.999874
vn -0.999874 0.000000 -0.015860
vn -0.999874 0.000000 -0.015860
vn -0.999874 0.000000 -0.015860
vn -0.999874 0.000000 -0.015860
vn 0.000000 0.000000 1.000000
vn 0.000000 0.000000 1.000000
vn 0.000000 0.000000 1.000000
vn 0.000000 0.000000 1.000000
vn 0.000000 1.000000 0.000000
vn 0.000000 1.000000 0.000000
vn 0.000000 1.000000 0.000000
vn 0.000000 1.000000 0.000000
vn 0.000000 0.000000 -1.000000
vn 0.000000 0.000000 -1.000000
vn 0.000000 0.000000 -1.000000
vn 0.000000 0.000000 -1.000000
vn 0.000000 -1.000000 0.000000
vn 0.000000 -1.000000 0.000000
vn 0.000000 -1.000000 0.000000
vn 0.000000 -1.000000 0.000000
vn 1.000000 0.000000 0.000000
vn 1.000000 0.000000 0.000000
vn 1.000000 0.000000 0.000000
vn 1.000000 0.000000 0.000000
vn -1.000000 0.000000 0.000007
vn -1.000000 0.000000 0.000007
vn -1.000000 0.000003 0.000006
vn -1.000000 0.000003 0.000006
vn 0.000000 0.000000 1.000000
vn 0.000000 0.000000 1.000000
vn 0.000000 0.000000 1.000000
vn 0.000000 0.000000 1.000000
vn 1.000000 0.000000 0.000000
vn 1.000000 0.000000 0.000000
vn 1.000000 0.000000 0.000000
vn 1.000000 0.000000 0.000000
vn 0.000000 0.000000 -1.000000
vn 0.000000 0.000000 -1.000000
vn 0.000000 0.000000 -1.000000
vn 0.000000 0.000000 -1.000000
vn -1.000000 -0.000003 0.000005
vn -1.000000 -0.000003 0.000005
vn -1.000000 0.000000 0.000007
vn -1.000000 0.000000 0.000007
vn 1.000000 0.000000 0.000000
vn 1.000000 0.000000 0.000000
vn 1.000000 0.000000 0.000000
vn 1.000000 0.000000 0.000000
vn 0.000000 0.000000 1.000000
vn 0.000000 0.000000 1.000000
vn 0.000000 0.000000 1.000000
vn 0.000000 0.000000 1.000000
vn -1.000000 0.000003 0.000006
vn -1.000000 0.000003 0.000006
vn -1.000000 0.000007 0.000004
vn -1.000000 0.000007 0.000004
vn 0.000000 0.000000 -1.000000
vn 0.000000 0.000000 -1.000000
vn 0.000000 0.000000 -1.000000
vn 0.000000 0.000000 -1.000000
vn 0.000000 0.000000 1.000000
vn 0.000000 0.000000 1.000000
vn 0.000000 0.000000 1.000000
vn 0.000000 0.000000 1.000000
vn 1.000000 0.000000 0.000000
vn 1.000000 0.000000 0.000000
vn 1.000000 0.000000 0.000000
vn 1.000000 0.000000 0.000000
vn 0.000000 0.000000 -1.000000
vn 0.000000 0.000000 -1.000000
vn 0.000000 0.000000 -1.000000
vn 0.000000 0.000000 -1.000000
vn -1.000000 -0.000004 0.000004
vn -1.000000 -0.000004 0.000004
vn -1.000000 -0.000003 0.000005
vn -1.000000 -0.000003 0.000005
s off
f 9/26/1 10/55/2 14/48/3 15/45/4
f 3/3/5 4/15/6 6/6/7 5/18/8
f 16/42/9 13/33/10 11/29/11 12/50/12
f 7/7/13 8/19/14 2/10/15 1/9/16
f 10/56/17 11/52/18 13/34/19 14/47/20
f 12/31/21 9/25/22 15/46/23 16/41/24
f 17/58/25 18/71/26 10/27/27 9/53/28
f 18/72/29 19/69/30 11/30/31 10/28/32
f 12/32/33 11/51/34 19/70/35 20/65/36
f 20/66/37 17/57/38 9/54/39 12/49/40
f 14/36/41 13/43/42 6/12/43 4/4/44
f 15/38/45 14/35/46 4/22/47 3/17/48
f 16/39/49 15/37/50 3/24/51 5/14/52
f 5/5/53 6/16/54 13/44/55 16/40/56
f 1/23/57 2/2/58 18/59/59 17/67/60
f 2/21/61 8/11/62 19/62/63 18/60/64
f 20/64/65 19/61/66 8/8/67 7/20/68
f 7/13/69 1/1/70 17/68/71 20/63/72
f 29/73/73 30/74/74 34/75/75 35/76/76
f 23/77/77 24/78/78 26/79/79 25/80/80
f 36/81/81 33/82/82 31/83/83 32/84/84
f 27/85/85 28/86/86 22/87/87 21/88/88
f 30/89/89 31/90/90 33/91/91 34/92/92
f 32/93/93 29/94/94 35/95/95 36/96/96
f 37/97/97 38/98/98 30/99/99 29/100/100
f 38/101/101 39/102/102 31/103/103 30/104/104
f 32/105/105 31/106/106 39/107/107 40/108/108
f 40/109/109 37/110/110 29/111/111 32/112/112
f 34/113/113 33/114/114 26/115/115 24/116/116
f 35/117/117 34/118/118 24/119/119 23/120/120
f 36/121/121 35/122/122 23/123/123 25/124/124
f 25/125/125 26/126/126 33/127/127 36/128/128
f 21/129/129 22/130/130 38/131/131 37/132/132
f 22/133/133 28/134/134 39/135/135 38/136/136
f 40/137/137 39/138/138 28/139/139 27/140/140
f 27/141/141 21/142/142 37/143/143 40/144/144
f 49/145/145 50/146/146 54/147/147 55/148/148
f 43/149/149 44/150/150 46/151/151 45/152/152
f 56/153/153 53/154/154 51/155/155 52/156/156
f 47/157/157 48/158/158 42/159/159 41/160/160
f 50/161/161 51/162/162 53/163/163 54/164/164
f 52/165/165 49/166/166 55/167/167 56/168/168
f 57/169/169 58/170/170 50/171/171 49/172/172
f 58/173/173 59/174/174 51/175/175 50/176/176
f 52/177/177 51/178/178 59/179/179 60/180/180
f 60/181/181 57/182/182 49/183/183 52/184/184
f 54/185/185 53/186/186 46/187/187 44/188/188
f 55/189/189 54/190/190 44/191/191 43/192/192
f 56/193/193 55/194/194 43/195/195 45/196/196
f 45/197/197 46/198/198 53/199/199 56/200/200
f 41/201/201 42/202/202 58/203/203 57/204/204
f 42/205/205 48/206/206 59/207/207 58/208/208
f 60/209/209 59/210/210 48/211/211 47/212/212
f 47/213/213 41/214/214 57/215/215 60/216/216
