# This file uses centimeters as units for non-parametric coordinates.

v -0.329323 0.000000 -0.329322
v -0.329323 0.000000 0.329322
v -0.329323 1.077904 -0.329322
v -0.329323 1.077904 0.329322
v 0.329323 1.077904 -0.329322
v 0.329323 1.077904 0.329322
v 0.329323 0.000000 -0.329322
v 0.329323 0.000000 0.329322
v -0.268351 1.077904 -0.268349
v -0.268351 1.077904 0.268348
v 0.268349 1.077904 0.268349
v 0.268349 1.077904 -0.268348
v -0.268351 0.345437 -0.268349
v -0.268351 0.345437 0.268348
v 0.268349 0.345437 0.268349
v 0.268349 0.345437 -0.268348
v 0.329323 0.927349 -0.329322
v 0.329323 0.927349 0.329322
v -0.329323 0.927350 0.329322
v -0.329323 0.927350 -0.329322
v -0.329323 0.146865 0.329322
v 0.329323 0.146865 0.329322
v 0.329323 0.146865 -0.329322
v -0.329323 0.146865 -0.329322
v 0.268349 0.927349 -0.268348
v -0.268351 0.927349 -0.268349
v -0.268351 0.927349 0.268348
v 0.268349 0.927349 0.268349
vt 0.291508 0.477440
vt 0.266972 0.477440
vt 0.325245 0.477440
vt 0.291508 0.477440
vt 0.266972 0.477440
vt 0.325245 0.477440
vt 0.229146 0.477440
vt 0.266972 0.477440
vt 0.229146 0.477440
vt 0.229146 0.477440
vt 0.291508 0.477440
vt 0.291508 0.477440
vt 0.291508 0.477440
vt 0.291508 0.477440
vt 0.325245 0.477440
vt 0.266972 0.477440
vt 0.266972 0.477440
vt 0.325245 0.477440
vt 0.229146 0.477440
vt 0.266972 0.477440
vt 0.291508 0.477440
vt 0.266972 0.477440
vt 0.266972 0.477440
vt 0.291508 0.477440
vt 0.231453 0.477440
vt 0.265883 0.477440
vt 0.231453 0.477440
vt 0.265883 0.477440
vt 0.231453 0.477440
vt 0.199397 0.477440
vt 0.164967 0.477440
vt 0.199397 0.477440
vt 0.164967 0.477440
vt 0.199397 0.477440
vt 0.164967 0.477440
vt 0.231453 0.477440
vt 0.199397 0.477440
vt 0.231453 0.477440
vt 0.325245 0.477440
vt 0.231453 0.477440
vt 0.164967 0.477440
vt 0.231453 0.477440
vt 0.325245 0.477440
vt 0.265883 0.477440
vt 0.325245 0.477440
vt 0.231453 0.477440
vt 0.325245 0.477440
vt 0.265883 0.477440
vt 0.227397 0.477440
vt 0.202861 0.477440
vt 0.266972 0.477440
vt 0.291508 0.477440
vt 0.202861 0.477440
vt 0.291508 0.477440
vt 0.227397 0.477440
vt 0.266972 0.477440
vt 0.202861 0.477440
vt 0.227397 0.477440
vt 0.266972 0.477440
vt 0.291508 0.477440
vt 0.291508 0.477440
vt 0.266972 0.477440
vt 0.291508 0.477440
vt 0.266972 0.477440
vt 0.227397 0.477440
vt 0.202861 0.477440
vt 0.291508 0.477440
vt 0.266972 0.477440
vt 0.202861 0.477440
vt 0.227397 0.477440
vt 0.227397 0.477440
vt 0.202861 0.477440
vt 0.291508 0.477440
vt 0.202861 0.477440
vt 0.266972 0.477440
vt 0.227397 0.477440
vt 0.266972 0.477440
vt 0.291508 0.477440
vt 0.202861 0.477440
vt 0.227397 0.477440
vt 0.164967 0.477440
vt 0.199397 0.477440
vt 0.265883 0.477440
vt 0.231453 0.477440
vt 0.231453 0.477440
vt 0.265883 0.477440
vt 0.265883 0.477440
vt 0.231453 0.477440
vt 0.199397 0.477440
vt 0.164967 0.477440
vt 0.265883 0.477440
vt 0.231453 0.477440
vt 0.164967 0.477440
vt 0.199397 0.477440
vt 0.199397 0.477440
vt 0.164967 0.477440
vn -1.000000 0.000000 -0.000000
vn -1.000000 0.000000 -0.000000
vn -1.000000 0.000000 -0.000000
vn -1.000000 0.000000 -0.000000
vn 0.000000 1.000000 0.000000
vn 0.000000 1.000000 0.000000
vn 0.000000 1.000000 0.000000
vn 0.000000 1.000000 0.000000
vn 1.000000 0.000000 0.000000
vn 1.000000 0.000000 0.000000
vn 1.000000 0.000000 0.000000
vn 1.000000 0.000000 0.000000
vn 0.000000 -1.000000 0.000000
vn 0.000000 -1.000000 0.000000
vn 0.000000 -1.000000 0.000000
vn 0.000000 -1.000000 0.000000
vn 0.000000 0.000000 1.000000
vn 0.000000 0.000000 1.000000
vn -0.000000 0.000000 1.000000
vn -0.000000 0.000000 1.000000
vn 0.000000 0.000000 -1.000000
vn 0.000000 0.000000 -1.000000
vn -0.000000 0.000000 -1.000000
vn -0.000000 0.000000 -1.000000
vn 0.000000 1.000000 0.000000
vn 0.000000 1.000000 0.000000
vn 0.000000 1.000000 0.000000
vn 0.000000 1.000000 0.000000
vn 0.000000 1.000000 -0.000001
vn 0.000000 1.000000 -0.000001
vn 0.000000 1.000000 -0.000001
vn 0.000000 1.000000 -0.000001
vn 0.000000 1.000000 0.000000
vn 0.000000 1.000000 0.000000
vn 0.000000 1.000000 0.000000
vn 0.000000 1.000000 0.000000
vn 0.000000 1.000000 0.000001
vn 0.000000 1.000000 0.000001
vn 0.000000 1.000000 0.000001
vn 0.000000 1.000000 0.000001
vn 1.000000 0.000000 0.000000
vn 1.000000 0.000000 0.000000
vn 1.000000 0.000000 0.000000
vn 1.000000 0.000000 0.000000
vn 0.000001 0.000000 -1.000000
vn 0.000001 0.000000 -1.000000
vn 0.000001 0.000000 -1.000000
vn 0.000001 0.000000 -1.000000
vn -1.000000 0.000000 -0.000000
vn -1.000000 0.000000 -0.000000
vn -1.000000 0.000000 -0.000000
vn -1.000000 0.000000 -0.000000
vn -0.000001 0.000000 1.000000
vn -0.000001 0.000000 1.000000
vn -0.000001 0.000000 1.000000
vn -0.000001 0.000000 1.000000
vn 1.000000 0.000000 0.000000
vn 1.000000 0.000000 0.000000
vn 1.000000 0.000000 0.000000
vn 1.000000 0.000000 0.000000
vn -0.000000 0.000000 1.000000
vn -0.000000 0.000000 1.000000
vn -0.000000 0.000000 1.000000
vn -0.000000 0.000000 1.000000
vn -1.000000 0.000000 -0.000000
vn -1.000000 0.000000 -0.000000
vn -1.000000 0.000000 0.000000
vn -1.000000 0.000000 0.000000
vn -0.000000 0.000000 -1.000000
vn -0.000000 0.000000 -1.000000
vn -0.000000 0.000000 -1.000000
vn -0.000000 0.000000 -1.000000
vn 0.000000 0.000000 1.000000
vn 0.000000 0.000000 1.000000
vn 0.000000 0.000000 1.000000
vn 0.000000 0.000000 1.000000
vn 1.000000 0.000000 0.000000
vn 1.000000 0.000000 0.000000
vn 1.000000 0.000000 0.000000
vn 1.000000 0.000000 0.000000
vn 0.000000 0.000000 -1.000000
vn 0.000000 0.000000 -1.000000
vn 0.000000 0.000000 -1.000000
vn 0.000000 0.000000 -1.000000
vn -1.000000 -0.000000 -0.000000
vn -1.000000 -0.000000 -0.000000
vn -1.000000 0.000000 -0.000000
vn -1.000000 0.000000 -0.000000
vn -0.000001 0.000000 1.000000
vn -0.000001 0.000000 1.000000
vn -0.000001 0.000000 1.000000
vn -0.000001 0.000000 1.000000
vn 1.000000 0.000000 0.000000
vn 1.000000 0.000000 0.000000
vn 1.000000 0.000000 0.000000
vn 1.000000 0.000000 0.000000
vn 0.000001 0.000000 -1.000000
vn 0.000001 0.000000 -1.000000
vn 0.000001 0.000000 -1.000000
vn 0.000001 0.000000 -1.000000
vn -1.000000 0.000000 -0.000000
vn -1.000000 0.000000 -0.000000
vn -1.000000 0.000000 -0.000000
vn -1.000000 0.000000 -0.000000
s off
f 24/66/1 21/57/2 19/53/3 20/74/4
f 13/29/5 14/42/6 15/38/7 16/36/8
f 17/50/9 18/79/10 22/72/11 23/69/12
f 7/7/13 8/19/14 2/10/15 1/9/16
f 21/58/17 22/71/18 18/80/19 19/76/20
f 23/70/21 24/65/22 20/55/23 17/49/24
f 3/3/25 4/15/26 10/45/27 9/47/28
f 4/15/29 6/6/30 11/43/31 10/45/32
f 6/6/33 5/18/34 12/39/35 11/43/36
f 5/18/37 3/3/38 9/47/39 12/39/40
f 26/96/41 27/93/42 14/41/43 13/33/44
f 27/94/45 28/89/46 15/37/47 14/30/48
f 28/90/49 25/81/50 16/35/51 15/31/52
f 25/82/53 26/95/54 13/34/55 16/32/56
f 5/5/57 6/16/58 18/51/59 17/77/60
f 19/54/61 18/52/62 6/12/63 4/4/64
f 20/56/65 19/75/66 4/22/67 3/17/68
f 17/78/69 20/73/70 3/24/71 5/14/72
f 2/21/73 8/11/74 22/60/75 21/67/76
f 23/62/77 22/59/78 8/8/79 7/20/80
f 7/13/81 1/1/82 24/63/83 23/61/84
f 1/23/85 2/2/86 21/68/87 24/64/88
f 12/28/89 9/48/90 26/83/91 25/91/92
f 9/25/93 10/46/94 27/85/95 26/84/96
f 10/26/97 11/44/98 28/87/99 27/86/100
f 11/27/101 12/40/102 25/92/103 28/88/104
