# This file uses centimeters as units for non-parametric coordinates.

v -0.852687 0.000000 0.063165
v 0.852688 0.000000 0.063165
v -0.852687 3.945254 0.063165
v 0.852688 3.945254 0.063165
v -0.852687 3.945254 -0.063165
v 0.852688 3.945254 -0.063165
v -0.852687 0.000000 -0.063165
v 0.852688 0.000000 -0.063165
v -0.759406 0.113254 0.063165
v 0.759407 0.113254 0.063165
v 0.759407 3.832001 0.063165
v -0.759406 3.832001 0.063165
v 0.633724 3.832001 0.063165
v -0.759406 0.296483 0.063165
v 0.759407 3.562682 0.063165
v -0.570703 0.113254 0.063165
v 0.242586 3.832001 0.063165
v -0.759406 1.360143 0.063165
v 0.368474 3.832001 0.063165
v -0.759406 1.044171 0.063165
vt 0.144169 0.061929
vt 0.168895 0.061929
vt 0.204219 0.061929
vt 0.144169 0.061929
vt 0.168895 0.061929
vt 0.204219 0.061929
vt 0.110022 0.061929
vt 0.168895 0.061929
vt 0.110022 0.061929
vt 0.110022 0.061929
vt 0.144169 0.061929
vt 0.144169 0.061929
vt 0.144169 0.061929
vt 0.144169 0.061929
vt 0.204219 0.061929
vt 0.168895 0.061929
vt 0.168895 0.061929
vt 0.204219 0.061929
vt 0.110022 0.061929
vt 0.168895 0.061929
vt 0.144169 0.061929
vt 0.168895 0.061929
vt 0.168895 0.061929
vt 0.144169 0.061929
vt 0.480162 0.061967
vt 0.168895 0.061929
vt 0.168895 0.061929
vt 0.168895 0.061929
vt 0.168895 0.061929
vt 0.168895 0.061929
vt 0.168895 0.061929
vt 0.420753 0.061967
vt 0.168895 0.061929
vt 0.480162 0.061968
vt 0.168895 0.061929
vt 0.168895 0.061929
vt 0.420753 0.061968
vt 0.168895 0.061929
vt 0.168895 0.061929
vt 0.168895 0.061929
vt 0.168895 0.061929
vt 0.480162 0.061968
vt 0.168895 0.061929
vt 0.480162 0.061967
vt 0.480162 0.061968
vt 0.168895 0.061929
vt 0.420753 0.061967
vt 0.168895 0.061929
vt 0.168895 0.061929
vt 0.420753 0.061968
vt 0.168895 0.061929
vt 0.420753 0.061968
vt 0.168895 0.061929
vt 0.480162 0.061968
vt 0.168895 0.061929
vt 0.420753 0.061968
vt 0.420753 0.061968
vt 0.480162 0.061968
vt 0.480162 0.061968
vt 0.480162 0.061968
vt 0.420753 0.061968
vt 0.480162 0.061967
vt 0.420753 0.061968
vt 0.420753 0.061967
vn 0.000000 0.000000 1.000000
vn 0.000000 0.000000 1.000000
vn 0.000000 0.000000 1.000000
vn 0.000000 1.000000 0.000000
vn 0.000000 1.000000 0.000000
vn 0.000000 1.000000 0.000000
vn 0.000000 1.000000 0.000000
vn 0.000000 0.000000 -1.000000
vn 0.000000 0.000000 -1.000000
vn 0.000000 0.000000 -1.000000
vn 0.000000 0.000000 -1.000000
vn 0.000000 -1.000000 0.000000
vn 0.000000 -1.000000 0.000000
vn 0.000000 -1.000000 0.000000
vn 0.000000 -1.000000 0.000000
vn 1.000000 0.000000 0.000000
vn 1.000000 0.000000 0.000000
vn 1.000000 0.000000 0.000000
vn 1.000000 0.000000 0.000000
vn -1.000000 0.000000 0.000000
vn -1.000000 0.000000 0.000000
vn -1.000000 0.000000 0.000000
vn -1.000000 0.000000 0.000000
vn 0.000000 0.000000 1.000000
vn 0.000000 0.000000 1.000000
vn 0.000000 0.000000 1.000000
vn 0.000000 0.000000 1.000000
vn 0.000000 0.000000 1.000000
vn 0.000000 0.000000 1.000000
vn 0.000000 0.000000 1.000000
vn 0.000000 0.000000 1.000000
vn 0.000000 0.000000 1.000000
vn 0.000000 0.000000 1.000000
vn 0.000000 0.000000 1.000000
vn 0.000000 0.000000 1.000000
vn 0.000000 0.000000 1.000000
vn 0.000000 0.000000 1.000000
vn 0.000000 0.000000 1.000000
vn 0.000000 0.000000 1.000000
vn 0.000000 0.000000 1.000000
vn 0.000000 0.000000 1.000000
vn 0.000000 0.000000 1.000000
vn 0.000000 0.000000 1.000000
vn 0.000000 0.000000 1.000000
vn 0.000000 0.000000 1.000000
vn 0.000000 0.000000 1.000000
vn 0.000000 0.000000 1.000000
vn 0.000000 0.000000 1.000000
vn 0.000000 0.000000 1.000000
vn 0.000000 0.000000 1.000000
vn 0.000000 0.000000 1.000000
vn 0.000000 0.000000 1.000000
vn 0.000000 0.000000 1.000000
vn 0.000000 0.000000 1.000000
vn 0.000000 0.000000 1.000000
vn 0.000000 0.000000 1.000000
vn 0.000000 0.000000 1.000000
vn 0.000000 0.000000 1.000000
vn 0.000000 0.000000 1.000000
vn 0.000000 0.000000 1.000000
vn 0.000000 0.000000 1.000000
vn 0.000000 0.000000 1.000000
vn 0.000000 0.000000 1.000000
vn 0.000000 0.000000 1.000000
s off
f 15/61/1 16/47/2 10/32/3
f 3/3/4 4/15/5 6/6/6 5/18/7
f 5/5/8 6/16/9 8/8/10 7/20/11
f 7/7/12 8/19/13 2/10/14 1/9/15
f 2/21/16 8/11/17 6/12/18 4/4/19
f 7/13/20 1/1/21 3/24/22 5/14/23
f 1/23/24 2/39/25 10/36/26 16/48/27 9/29/28
f 2/2/29 4/38/30 11/33/31 15/46/32 10/26/33
f 4/22/34 3/35/35 12/31/36 17/49/37 19/53/38 13/41/39 11/27/40
f 3/17/41 1/40/42 9/30/43 14/43/44 20/55/45 18/51/46 12/28/47
f 14/64/48 13/63/49 19/57/50 20/56/51
f 9/25/52 16/62/53 15/45/54 11/34/55 13/42/56 14/44/57
f 18/52/58 17/50/59 12/37/60
f 20/58/61 19/54/62 17/60/63 18/59/64
