# This file uses centimeters as units for non-parametric coordinates.

v 0.175182 0.000000 0.354771
v 0.488924 0.000000 0.368647
v 0.175182 0.694540 0.354771
v 0.488924 0.694540 0.368647
v 0.189058 0.694540 0.041031
v 0.502798 0.694540 0.054905
v 0.189058 0.000000 0.041031
v 0.502798 0.000000 0.054905
v 0.175182 0.493970 0.354771
v 0.488924 0.493970 0.368647
v 0.502798 0.493970 0.054905
v 0.189058 0.493970 0.041031
v 0.175182 0.167125 0.354771
v 0.488924 0.167125 0.368647
v 0.502798 0.167125 0.054905
v 0.189058 0.167125 0.041031
v -0.163820 0.000000 0.367439
v 0.149387 0.000000 0.344498
v -0.163820 0.694540 0.367439
v 0.149387 0.694540 0.344498
v -0.186762 0.694540 0.054230
v 0.126446 0.694540 0.031288
v -0.186762 0.000000 0.054230
v 0.126446 0.000000 0.031288
v -0.163820 0.493970 0.367439
v 0.149387 0.493970 0.344498
v 0.126446 0.493970 0.031288
v -0.186762 0.493970 0.054230
v -0.163822 0.167125 0.367439
v 0.149387 0.167125 0.344498
v 0.126446 0.167125 0.031288
v -0.186762 0.167125 0.054230
v -0.502798 0.000000 0.339115
v -0.188749 0.000000 0.339115
v -0.502798 0.694540 0.339115
v -0.188749 0.694540 0.339115
v -0.502798 0.694540 0.025066
v -0.188749 0.694540 0.025066
v -0.502798 0.000000 0.025066
v -0.188749 0.000000 0.025066
v -0.502798 0.493970 0.339115
v -0.188749 0.493970 0.339115
v -0.188749 0.493970 0.025066
v -0.502798 0.493970 0.025066
v -0.502798 0.167125 0.339115
v -0.188749 0.167125 0.339115
v -0.188749 0.167125 0.025066
v -0.502798 0.167125 0.025066
v 0.144045 0.000000 -0.054598
v 0.458092 0.000000 -0.054598
v 0.144045 0.694540 -0.054598
v 0.458092 0.694540 -0.054598
v 0.144045 0.694540 -0.368647
v 0.458092 0.694540 -0.368647
v 0.144045 0.000000 -0.368647
v 0.458092 0.000000 -0.368647
v 0.144045 0.493970 -0.054598
v 0.458092 0.493970 -0.054598
v 0.458092 0.493970 -0.368647
v 0.144045 0.493970 -0.368647
v 0.144045 0.167125 -0.054598
v 0.458092 0.167125 -0.054598
v 0.458092 0.167125 -0.368647
v 0.144045 0.167125 -0.368647
vt 0.271323 0.169370
vt 0.296050 0.169370
vt 0.331374 0.169370
vt 0.271323 0.169370
vt 0.296050 0.169370
vt 0.331374 0.169370
vt 0.237177 0.169370
vt 0.296050 0.169370
vt 0.237177 0.169370
vt 0.237176 0.169370
vt 0.271323 0.169370
vt 0.271323 0.169370
vt 0.271323 0.169370
vt 0.271323 0.169370
vt 0.331374 0.169370
vt 0.296050 0.169370
vt 0.296050 0.169370
vt 0.331374 0.169370
vt 0.237176 0.169370
vt 0.296050 0.169370
vt 0.271323 0.169370
vt 0.296050 0.169370
vt 0.296050 0.169370
vt 0.271323 0.169370
vt 0.361407 0.473617
vt 0.296050 0.169370
vt 0.386134 0.473617
vt 0.271323 0.169370
vt 0.386134 0.473617
vt 0.361407 0.473617
vt 0.361407 0.473617
vt 0.386134 0.473617
vt 0.361407 0.473617
vt 0.386134 0.473617
vt 0.296050 0.169370
vt 0.271323 0.169370
vt 0.296050 0.169370
vt 0.271323 0.169370
vt 0.271323 0.169370
vt 0.296050 0.169370
vt 0.386134 0.473617
vt 0.361407 0.473617
vt 0.296050 0.169370
vt 0.271323 0.169370
vt 0.361407 0.473617
vt 0.386134 0.473617
vt 0.386134 0.473617
vt 0.361407 0.473617
vt 0.296050 0.169370
vt 0.361407 0.473617
vt 0.271323 0.169370
vt 0.386134 0.473617
vt 0.296050 0.169370
vt 0.271323 0.169370
vt 0.271323 0.169370
vt 0.296050 0.169370
vt 0.296050 0.169370
vt 0.296050 0.169370
vt 0.296050 0.169370
vt 0.296050 0.169370
vt 0.331374 0.169370
vt 0.331374 0.169370
vt 0.331374 0.169370
vt 0.331374 0.169370
vt 0.296050 0.169370
vt 0.296050 0.169370
vt 0.296050 0.169370
vt 0.296050 0.169370
vt 0.237177 0.169370
vt 0.237176 0.169370
vt 0.237176 0.169370
vt 0.237177 0.169370
vt 0.271323 0.169370
vt 0.271323 0.169370
vt 0.271323 0.169370
vt 0.271323 0.169370
vt 0.271323 0.169370
vt 0.271323 0.169370
vt 0.271323 0.169370
vt 0.271323 0.169370
vt 0.386134 0.473617
vt 0.386134 0.473617
vt 0.386134 0.473617
vt 0.386134 0.473617
vt 0.361407 0.473617
vt 0.361407 0.473617
vt 0.361407 0.473617
vt 0.361407 0.473617
vt 0.386134 0.473617
vt 0.386134 0.473617
vt 0.386134 0.473617
vt 0.386134 0.473617
vt 0.361407 0.473617
vt 0.361407 0.473617
vt 0.361407 0.473617
vt 0.361407 0.473617
vt 0.296050 0.169370
vt 0.296050 0.169370
vt 0.296050 0.169370
vt 0.296050 0.169370
vt 0.271323 0.169370
vt 0.271323 0.169370
vt 0.271323 0.169370
vt 0.271323 0.169370
vt 0.296050 0.169370
vt 0.296050 0.169370
vt 0.296050 0.169370
vt 0.296050 0.169370
vt 0.271323 0.169370
vt 0.271323 0.169370
vt 0.271323 0.169370
vt 0.271323 0.169370
vt 0.296050 0.169370
vt 0.296050 0.169370
vt 0.296050 0.169370
vt 0.296050 0.169370
vt 0.331374 0.169370
vt 0.331374 0.169370
vt 0.331374 0.169370
vt 0.331374 0.169370
vt 0.296050 0.169370
vt 0.296050 0.169370
vt 0.296050 0.169370
vt 0.296050 0.169370
vt 0.237177 0.169370
vt 0.237176 0.169370
vt 0.237176 0.169370
vt 0.237177 0.169370
vt 0.271323 0.169370
vt 0.271323 0.169370
vt 0.271323 0.169370
vt 0.271323 0.169370
vt 0.271323 0.169370
vt 0.271323 0.169370
vt 0.271323 0.169370
vt 0.271323 0.169370
vt 0.386134 0.473617
vt 0.386134 0.473617
vt 0.386134 0.473617
vt 0.386134 0.473617
vt 0.361407 0.473617
vt 0.361407 0.473617
vt 0.361407 0.473617
vt 0.361407 0.473617
vt 0.386134 0.473617
vt 0.386134 0.473617
vt 0.386134 0.473617
vt 0.386134 0.473617
vt 0.361407 0.473617
vt 0.361407 0.473617
vt 0.361407 0.473617
vt 0.361407 0.473617
vt 0.296050 0.169370
vt 0.296050 0.169370
vt 0.296050 0.169370
vt 0.296050 0.169370
vt 0.271323 0.169370
vt 0.271323 0.169370
vt 0.271323 0.169370
vt 0.271323 0.169370
vt 0.296050 0.169370
vt 0.296050 0.169370
vt 0.296050 0.169370
vt 0.296050 0.169370
vt 0.271323 0.169370
vt 0.271323 0.169370
vt 0.271323 0.169370
vt 0.271323 0.169370
vt 0.296050 0.169370
vt 0.296050 0.169370
vt 0.296050 0.169370
vt 0.296050 0.169370
vt 0.331374 0.169370
vt 0.331374 0.169370
vt 0.331374 0.169370
vt 0.331374 0.169370
vt 0.296050 0.169370
vt 0.296050 0.169370
vt 0.296050 0.169370
vt 0.296050 0.169370
vt 0.237177 0.169370
vt 0.237176 0.169370
vt 0.237176 0.169370
vt 0.237177 0.169370
vt 0.271323 0.169370
vt 0.271323 0.169370
vt 0.271323 0.169370
vt 0.271323 0.169370
vt 0.271323 0.169370
vt 0.271323 0.169370
vt 0.271323 0.169370
vt 0.271323 0.169370
vt 0.386134 0.473617
vt 0.386134 0.473617
vt 0.386134 0.473617
vt 0.386134 0.473617
vt 0.361407 0.473617
vt 0.361407 0.473617
vt 0.361407 0.473617
vt 0.361407 0.473617
vt 0.386134 0.473617
vt 0.386134 0.473617
vt 0.386134 0.473617
vt 0.386134 0.473617
vt 0.361407 0.473617
vt 0.361407 0.473617
vt 0.361407 0.473617
vt 0.361407 0.473617
vt 0.296050 0.169370
vt 0.296050 0.169370
vt 0.296050 0.169370
vt 0.296050 0.169370
vt 0.271323 0.169370
vt 0.271323 0.169370
vt 0.271323 0.169370
vt 0.271323 0.169370
vt 0.296050 0.169370
vt 0.296050 0.169370
vt 0.296050 0.169370
vt 0.296050 0.169370
vt 0.271323 0.169370
vt 0.271323 0.169370
vt 0.271323 0.169370
vt 0.271323 0.169370
vn -0.044184 0.000000 0.999023
vn -0.044184 0.000000 0.999023
vn -0.044184 0.000000 0.999023
vn -0.044184 0.000000 0.999023
vn 0.000000 1.000000 -0.000000
vn 0.000000 1.000000 -0.000000
vn 0.000000 1.000000 -0.000000
vn 0.000000 1.000000 -0.000000
vn 0.044178 0.000000 -0.999024
vn 0.044178 0.000000 -0.999024
vn 0.044178 0.000000 -0.999024
vn 0.044178 0.000000 -0.999024
vn 0.000000 -1.000000 0.000000
vn 0.000000 -1.000000 0.000000
vn 0.000000 -1.000000 0.000000
vn 0.000000 -1.000000 0.000000
vn 0.999024 0.000000 0.044178
vn 0.999024 0.000000 0.044178
vn 0.999024 0.000000 0.044178
vn 0.999024 0.000000 0.044178
vn -0.999023 0.000000 -0.044184
vn -0.999023 0.000000 -0.044184
vn -0.999023 0.000000 -0.044184
vn -0.999023 0.000000 -0.044184
vn -0.044184 0.000000 0.999023
vn -0.044184 0.000000 0.999023
vn -0.044184 0.000000 0.999023
vn -0.044184 0.000000 0.999023
vn 0.999024 0.000000 0.044178
vn 0.999024 0.000000 0.044178
vn 0.999024 0.000000 0.044178
vn 0.999024 0.000000 0.044178
vn 0.044178 0.000000 -0.999024
vn 0.044178 0.000000 -0.999024
vn 0.044178 0.000000 -0.999024
vn 0.044178 0.000000 -0.999024
vn -0.999023 0.000000 -0.044184
vn -0.999023 0.000000 -0.044184
vn -0.999023 0.000000 -0.044184
vn -0.999023 0.000000 -0.044184
vn -0.044184 0.000000 0.999023
vn -0.044184 0.000000 0.999023
vn -0.044184 0.000000 0.999023
vn -0.044184 0.000000 0.999023
vn 0.999024 0.000000 0.044178
vn 0.999024 0.000000 0.044178
vn 0.999024 0.000000 0.044178
vn 0.999024 0.000000 0.044178
vn 0.044178 0.000000 -0.999024
vn 0.044178 0.000000 -0.999024
vn 0.044178 0.000000 -0.999024
vn 0.044178 0.000000 -0.999024
vn -0.999023 0.000000 -0.044184
vn -0.999023 0.000000 -0.044184
vn -0.999023 0.000000 -0.044184
vn -0.999023 0.000000 -0.044184
vn 0.073051 -0.000000 0.997328
vn 0.073051 -0.000000 0.997328
vn 0.073051 0.000000 0.997328
vn 0.073051 0.000000 0.997328
vn 0.000000 1.000000 -0.000000
vn 0.000000 1.000000 -0.000000
vn 0.000000 1.000000 -0.000000
vn 0.000000 1.000000 -0.000000
vn -0.073052 0.000000 -0.997328
vn -0.073052 0.000000 -0.997328
vn -0.073052 0.000000 -0.997328
vn -0.073052 0.000000 -0.997328
vn 0.000000 -1.000000 0.000000
vn 0.000000 -1.000000 0.000000
vn 0.000000 -1.000000 0.000000
vn 0.000000 -1.000000 0.000000
vn 0.997328 0.000000 -0.073051
vn 0.997328 0.000000 -0.073051
vn 0.997328 0.000000 -0.073051
vn 0.997328 0.000000 -0.073051
vn -0.997328 0.000002 0.073049
vn -0.997328 0.000002 0.073049
vn -0.997328 0.000000 0.073051
vn -0.997328 0.000000 0.073051
vn 0.073051 -0.000000 0.997328
vn 0.073051 -0.000000 0.997328
vn 0.073051 -0.000000 0.997328
vn 0.073051 -0.000000 0.997328
vn 0.997328 0.000000 -0.073051
vn 0.997328 0.000000 -0.073051
vn 0.997328 0.000000 -0.073051
vn 0.997328 0.000000 -0.073051
vn -0.073052 0.000000 -0.997328
vn -0.073052 0.000000 -0.997328
vn -0.073052 0.000000 -0.997328
vn -0.073052 0.000000 -0.997328
vn -0.997328 0.000000 0.073048
vn -0.997328 -0.000000 0.073048
vn -0.997328 0.000002 0.073049
vn -0.997328 0.000002 0.073049
vn 0.073051 0.000000 0.997328
vn 0.073051 0.000000 0.997328
vn 0.073051 -0.000000 0.997328
vn 0.073051 -0.000000 0.997328
vn 0.997328 0.000000 -0.073051
vn 0.997328 0.000000 -0.073051
vn 0.997328 0.000000 -0.073051
vn 0.997328 0.000000 -0.073051
vn -0.073052 0.000000 -0.997328
vn -0.073052 0.000000 -0.997328
vn -0.073052 0.000000 -0.997328
vn -0.073052 0.000000 -0.997328
vn -0.997328 -0.000006 0.073048
vn -0.997328 -0.000006 0.073048
vn -0.997328 -0.000000 0.073048
vn -0.997328 0.000000 0.073048
vn 0.000000 0.000000 1.000000
vn 0.000000 0.000000 1.000000
vn 0.000000 0.000000 1.000000
vn 0.000000 0.000000 1.000000
vn 0.000000 1.000000 0.000000
vn 0.000000 1.000000 0.000000
vn 0.000000 1.000000 0.000000
vn 0.000000 1.000000 0.000000
vn 0.000000 0.000000 -1.000000
vn 0.000000 0.000000 -1.000000
vn 0.000000 0.000000 -1.000000
vn 0.000000 0.000000 -1.000000
vn 0.000000 -1.000000 0.000000
vn 0.000000 -1.000000 0.000000
vn 0.000000 -1.000000 0.000000
vn 0.000000 -1.000000 0.000000
vn 1.000000 0.000000 0.000000
vn 1.000000 0.000000 0.000000
vn 1.000000 0.000000 0.000000
vn 1.000000 0.000000 0.000000
vn -1.000000 0.000000 0.000000
vn -1.000000 0.000000 0.000000
vn -1.000000 0.000000 0.000000
vn -1.000000 0.000000 0.000000
vn 0.000000 0.000000 1.000000
vn 0.000000 0.000000 1.000000
vn 0.000000 0.000000 1.000000
vn 0.000000 0.000000 1.000000
vn 1.000000 0.000000 0.000000
vn 1.000000 0.000000 0.000000
vn 1.000000 0.000000 0.000000
vn 1.000000 0.000000 0.000000
vn 0.000000 0.000000 -1.000000
vn 0.000000 0.000000 -1.000000
vn 0.000000 0.000000 -1.000000
vn 0.000000 0.000000 -1.000000
vn -1.000000 0.000000 0.000000
vn -1.000000 0.000000 0.000000
vn -1.000000 0.000000 0.000000
vn -1.000000 0.000000 0.000000
vn 0.000000 0.000000 1.000000
vn 0.000000 0.000000 1.000000
vn 0.000000 0.000000 1.000000
vn 0.000000 0.000000 1.000000
vn 1.000000 0.000000 0.000000
vn 1.000000 0.000000 0.000000
vn 1.000000 0.000000 0.000000
vn 1.000000 0.000000 0.000000
vn 0.000000 0.000000 -1.000000
vn 0.000000 0.000000 -1.000000
vn 0.000000 0.000000 -1.000000
vn 0.000000 0.000000 -1.000000
vn -1.000000 0.000000 0.000000
vn -1.000000 0.000000 0.000000
vn -1.000000 0.000000 0.000000
vn -1.000000 0.000000 0.000000
vn 0.000000 0.000000 1.000000
vn 0.000000 0.000000 1.000000
vn 0.000000 0.000000 1.000000
vn 0.000000 0.000000 1.000000
vn 0.000000 1.000000 0.000000
vn 0.000000 1.000000 0.000000
vn 0.000000 1.000000 0.000000
vn 0.000000 1.000000 0.000000
vn 0.000000 0.000000 -1.000000
vn 0.000000 0.000000 -1.000000
vn 0.000000 0.000000 -1.000000
vn 0.000000 0.000000 -1.000000
vn 0.000000 -1.000000 0.000000
vn 0.000000 -1.000000 0.000000
vn 0.000000 -1.000000 0.000000
vn 0.000000 -1.000000 0.000000
vn 1.000000 0.000000 0.000000
vn 1.000000 0.000000 0.000000
vn 1.000000 0.000000 0.000000
vn 1.000000 0.000000 0.000000
vn -1.000000 0.000000 0.000000
vn -1.000000 0.000000 0.000000
vn -1.000000 0.000000 0.000000
vn -1.000000 0.000000 0.000000
vn 0.000000 0.000000 1.000000
vn 0.000000 0.000000 1.000000
vn 0.000000 0.000000 1.000000
vn 0.000000 0.000000 1.000000
vn 1.000000 0.000000 0.000000
vn 1.000000 0.000000 0.000000
vn 1.000000 0.000000 0.000000
vn 1.000000 0.000000 0.000000
vn 0.000000 0.000000 -1.000000
vn 0.000000 0.000000 -1.000000
vn 0.000000 0.000000 -1.000000
vn 0.000000 0.000000 -1.000000
vn -1.000000 0.000000 0.000000
vn -1.000000 0.000000 0.000000
vn -1.000000 0.000000 0.000000
vn -1.000000 0.000000 0.000000
vn 0.000000 0.000000 1.000000
vn 0.000000 0.000000 1.000000
vn 0.000000 0.000000 1.000000
vn 0.000000 0.000000 1.000000
vn 1.000000 0.000000 0.000000
vn 1.000000 0.000000 0.000000
vn 1.000000 0.000000 0.000000
vn 1.000000 0.000000 0.000000
vn 0.000000 0.000000 -1.000000
vn 0.000000 0.000000 -1.000000
vn 0.000000 0.000000 -1.000000
vn 0.000000 0.000000 -1.000000
vn -1.000000 0.000000 0.000000
vn -1.000000 0.000000 0.000000
vn -1.000000 0.000000 0.000000
vn -1.000000 0.000000 0.000000
s off
f 9/26/1 10/49/2 4/22/3 3/17/4
f 3/3/5 4/15/6 6/6/7 5/18/8
f 5/5/9 6/16/10 11/56/11 12/53/12
f 7/7/13 8/19/14 2/10/15 1/9/16
f 10/28/17 11/55/18 6/12/19 4/4/20
f 12/54/21 9/51/22 3/24/23 5/14/24
f 13/34/25 14/47/26 10/27/27 9/52/28
f 14/48/29 15/45/30 11/30/31 10/50/32
f 12/32/33 11/29/34 15/46/35 16/41/36
f 16/42/37 13/33/38 9/25/39 12/31/40
f 1/23/41 2/2/42 14/35/43 13/43/44
f 2/21/45 8/11/46 15/38/47 14/36/48
f 16/40/49 15/37/50 8/8/51 7/20/52
f 7/13/53 1/1/54 13/44/55 16/39/56
f 25/57/57 26/58/58 20/59/59 19/60/60
f 19/61/61 20/62/62 22/63/63 21/64/64
f 21/65/65 22/66/66 27/67/67 28/68/68
f 23/69/69 24/70/70 18/71/71 17/72/72
f 26/73/73 27/74/74 22/75/75 20/76/76
f 28/77/77 25/78/78 19/79/79 21/80/80
f 29/81/81 30/82/82 26/83/83 25/84/84
f 30/85/85 31/86/86 27/87/87 26/88/88
f 28/89/89 27/90/90 31/91/91 32/92/92
f 32/93/93 29/94/94 25/95/95 28/96/96
f 17/97/97 18/98/98 30/99/99 29/100/100
f 18/101/101 24/102/102 31/103/103 30/104/104
f 32/105/105 31/106/106 24/107/107 23/108/108
f 23/109/109 17/110/110 29/111/111 32/112/112
f 41/113/113 42/114/114 36/115/115 35/116/116
f 35/117/117 36/118/118 38/119/119 37/120/120
f 37/121/121 38/122/122 43/123/123 44/124/124
f 39/125/125 40/126/126 34/127/127 33/128/128
f 42/129/129 43/130/130 38/131/131 36/132/132
f 44/133/133 41/134/134 35/135/135 37/136/136
f 45/137/137 46/138/138 42/139/139 41/140/140
f 46/141/141 47/142/142 43/143/143 42/144/144
f 44/145/145 43/146/146 47/147/147 48/148/148
f 48/149/149 45/150/150 41/151/151 44/152/152
f 33/153/153 34/154/154 46/155/155 45/156/156
f 34/157/157 40/158/158 47/159/159 46/160/160
f 48/161/161 47/162/162 40/163/163 39/164/164
f 39/165/165 33/166/166 45/167/167 48/168/168
f 57/169/169 58/170/170 52/171/171 51/172/172
f 51/173/173 52/174/174 54/175/175 53/176/176
f 53/177/177 54/178/178 59/179/179 60/180/180
f 55/181/181 56/182/182 50/183/183 49/184/184
f 58/185/185 59/186/186 54/187/187 52/188/188
f 60/189/189 57/190/190 51/191/191 53/192/192
f 61/193/193 62/194/194 58/195/195 57/196/196
f 62/197/197 63/198/198 59/199/199 58/200/200
f 60/201/201 59/202/202 63/203/203 64/204/204
f 64/205/205 61/206/206 57/207/207 60/208/208
f 49/209/209 50/210/210 62/211/211 61/212/212
f 50/213/213 56/214/214 63/215/215 62/216/216
f 64/217/217 63/218/218 56/219/219 55/220/220
f 55/221/221 49/222/222 61/223/223 64/224/224
