# This file uses centimeters as units for non-parametric coordinates.

v -1.500000 0.078154 0.645299
v 1.500000 0.078154 0.645299
v -1.500000 1.476313 0.645299
v 1.500000 1.476313 0.645299
v -1.500000 1.476313 -0.645299
v 1.500000 1.476313 -0.645299
v -1.500000 0.078154 -0.645299
v 1.500000 0.078154 -0.645299
v -0.016091 0.078154 0.645299
v 0.016093 0.078154 0.645299
v -1.500000 1.351671 0.645299
v -1.500000 1.351671 -0.645299
v 1.500000 1.351671 -0.645299
v 1.500000 1.351671 0.645299
v 0.016093 1.351671 0.645299
v -0.016091 1.351671 0.645299
v -0.350643 1.035249 0.645299
v -0.093891 1.035249 0.645299
v -0.093891 1.096954 0.645299
v -0.350643 1.096954 0.645299
v 0.093893 1.035249 0.645299
v 0.093893 1.096954 0.645299
v 0.350645 1.035249 0.645299
v 0.350645 1.096954 0.645299
v 0.000000 0.000000 0.645299
v 1.500000 0.000000 -0.645299
v -1.500000 0.000000 -0.645299
v 1.500000 0.000000 0.645299
v -1.500000 0.000000 0.645299
v 1.472142 1.351671 0.645299
v 1.472164 0.078154 0.645299
v -1.467997 1.351671 0.645299
v -1.467945 0.078154 0.645299
vt 0.164835 0.481137
vt 0.224976 0.487820
vt 0.297370 0.393152
vt 0.297370 0.393152
vt 0.297370 0.393152
vt 0.297370 0.393152
vt 0.224976 0.487820
vt 0.164835 0.481138
vt 0.297370 0.393152
vt 0.297370 0.393152
vt 0.164835 0.481138
vt 0.224976 0.487820
vt 0.297370 0.393152
vt 0.297370 0.393152
vt 0.297370 0.393152
vt 0.297370 0.393152
vt 0.224976 0.487820
vt 0.164835 0.481137
vt 0.224976 0.487820
vt 0.224976 0.487820
vt 0.224976 0.487820
vt 0.224976 0.487820
vt 0.224976 0.487820
vt 0.224976 0.487820
vt 0.224976 0.487820
vt 0.224976 0.487820
vt 0.224976 0.487820
vt 0.224976 0.487820
vt 0.224976 0.487820
vt 0.224976 0.487820
vt 0.311848 0.477796
vt 0.311848 0.477796
vt 0.311848 0.477796
vt 0.311848 0.477796
vt 0.311848 0.477796
vt 0.311848 0.477796
vt 0.311848 0.477796
vt 0.311848 0.477796
vt 0.231659 0.394265
vt 0.231659 0.394265
vt 0.231659 0.394265
vt 0.231659 0.394265
vt 0.231659 0.394265
vt 0.231659 0.394265
vt 0.231659 0.394265
vt 0.231659 0.394265
vt 0.207156 0.483365
vt 0.207156 0.483365
vt 0.207156 0.483365
vt 0.207156 0.483365
vt 0.207156 0.483365
vt 0.207156 0.483365
vt 0.207156 0.483365
vt 0.207156 0.483365
vt 0.366422 0.396493
vt 0.366422 0.396493
vt 0.366422 0.396493
vt 0.366422 0.396493
vt 0.175972 0.482251
vt 0.175972 0.482251
vt 0.175972 0.482251
vt 0.175972 0.482251
vt 0.167062 0.480024
vt 0.167062 0.480024
vt 0.167062 0.480024
vt 0.167062 0.480024
vt 0.167062 0.480024
vt 0.167062 0.480024
vt 0.167062 0.480024
vt 0.167062 0.480024
vt 0.167062 0.480024
vt 0.167062 0.480024
vt 0.167062 0.480024
vt 0.224976 0.487820
vt 0.297370 0.393152
vt 0.224976 0.487820
vt 0.167062 0.480024
vt 0.224976 0.487820
vt 0.297370 0.393152
vt 0.224976 0.487820
vt 0.167062 0.480024
vt 0.164835 0.481138
vt 0.164835 0.481137
vt 0.164835 0.481137
vt 0.164835 0.481138
vn 1.000000 0.000000 0.000000
vn 1.000000 0.000000 0.000000
vn 1.000000 0.000000 0.000000
vn 1.000000 0.000000 0.000000
vn -1.000000 0.000000 0.000000
vn -1.000000 0.000000 0.000000
vn -1.000000 0.000000 0.000000
vn -1.000000 0.000000 0.000000
vn 0.000000 0.000000 1.000000
vn 0.000000 0.000000 1.000000
vn 0.000000 0.000000 1.000000
vn 0.000000 0.000000 1.000000
vn 0.000000 1.000000 0.000000
vn 0.000000 1.000000 0.000000
vn 0.000000 1.000000 0.000000
vn 0.000000 1.000000 0.000000
vn 0.000000 0.000000 -1.000000
vn 0.000000 0.000000 -1.000000
vn 0.000000 0.000000 -1.000000
vn 0.000000 0.000000 -1.000000
vn 0.000000 -1.000000 0.000000
vn 0.000000 -1.000000 0.000000
vn 0.000000 -1.000000 0.000000
vn 0.000000 0.000000 1.000000
vn 0.000000 0.000000 1.000000
vn 0.000000 0.000000 1.000000
vn 0.000000 0.000000 1.000000
vn 0.000000 -1.000000 0.000000
vn 0.000000 -1.000000 0.000000
vn 0.000000 -1.000000 0.000000
vn 0.000000 0.000000 1.000000
vn 0.000000 0.000000 1.000000
vn 0.000000 0.000000 1.000000
vn 0.000000 0.000000 1.000000
vn -1.000000 0.000000 0.000000
vn -1.000000 0.000000 0.000000
vn -1.000000 0.000000 0.000000
vn -1.000000 0.000000 0.000000
vn 0.000000 0.000000 -1.000000
vn 0.000000 0.000000 -1.000000
vn 0.000000 0.000000 -1.000000
vn 0.000000 0.000000 -1.000000
vn 1.000000 0.000000 0.000000
vn 1.000000 0.000000 0.000000
vn 1.000000 0.000000 0.000000
vn 1.000000 0.000000 0.000000
vn 0.000000 0.000000 1.000000
vn 0.000000 0.000000 1.000000
vn 0.000000 0.000000 1.000000
vn 0.000000 0.000000 1.000000
vn 0.000000 0.000000 1.000000
vn 0.000000 0.000000 1.000000
vn 0.000000 -1.000000 0.000000
vn 0.000000 -1.000000 0.000000
vn 0.000000 -1.000000 0.000000
vn 0.000000 0.000000 1.000000
vn 0.000000 0.000000 1.000000
vn 0.000000 0.000000 1.000000
vn 0.000000 0.000000 1.000000
vn 0.000000 0.000000 1.000000
vn 0.000000 0.000000 1.000000
vn 0.000000 0.000000 1.000000
vn 0.000000 0.000000 1.000000
vn 0.000000 0.000000 1.000000
vn 0.000000 0.000000 1.000000
vn 0.000000 0.000000 1.000000
vn 0.000000 0.000000 1.000000
vn 0.000000 0.000000 1.000000
vn 0.000000 0.000000 1.000000
vn 0.000000 0.000000 1.000000
vn 0.000000 0.000000 1.000000
vn 0.000001 0.000000 1.000000
vn 0.000001 0.000000 1.000000
vn 0.000001 0.000000 1.000000
vn 0.000001 0.000000 1.000000
vn 0.000000 0.000000 1.000000
vn 0.000000 0.000000 1.000000
vn 0.000000 0.000000 1.000000
vn 0.000000 0.000000 1.000000
vn 0.000000 0.000000 1.000000
vn 0.000000 0.000000 1.000000
vn 0.000000 0.000000 1.000000
vn 0.000000 0.000000 -1.000000
vn 0.000000 0.000000 -1.000000
vn 0.000000 0.000000 -1.000000
vn 0.000000 0.000000 -1.000000
vn 1.000000 0.000000 0.000000
vn 1.000000 0.000000 0.000000
vn 1.000000 0.000000 0.000000
vn 1.000000 0.000000 0.000000
vn 0.000000 0.000000 1.000000
vn 0.000000 0.000000 1.000000
vn 0.000000 0.000000 1.000000
vn 0.000000 0.000000 1.000000
vn 0.000000 0.000000 1.000000
vn 0.000000 0.000000 1.000000
vn 0.000000 0.000000 1.000000
vn -1.000000 0.000000 0.000000
vn -1.000000 0.000000 0.000000
vn -1.000000 0.000000 0.000000
vn -1.000000 0.000000 0.000000
vn 0.000000 0.000000 1.000000
vn 0.000000 0.000000 1.000000
vn 0.000000 0.000000 1.000000
vn 0.000000 0.000000 1.000000
vn 0.000000 0.000000 1.000000
vn 0.000000 0.000000 1.000000
vn 0.000000 0.000000 1.000000
vn 0.000000 0.000000 1.000000
vn 0.000000 0.000000 1.000000
vn 0.000000 0.000000 1.000000
vn 0.000000 0.000000 1.000000
vn 0.000000 0.000000 1.000000
vn 0.000000 0.000000 1.000000
vn 0.000000 0.000000 1.000000
vn 0.000000 0.000000 1.000000
vn 0.000000 0.000000 1.000000
vn 0.000000 0.000000 1.000000
vn 0.000000 0.000000 1.000000
vn 0.000000 0.000000 1.000000
vn 0.000000 0.000000 1.000000
vn 0.000000 0.000000 1.000000
vn 0.000000 0.000000 1.000000
vn 0.000000 0.000000 1.000000
vn 0.000000 0.000000 1.000000
vn 0.000000 0.000000 1.000000
vn 0.000000 0.000000 1.000000
vn 0.000000 0.000000 1.000000
vn 0.000000 0.000000 1.000000
vn 0.000000 0.000000 1.000000
vn 0.000000 0.000000 1.000000
vn 0.000000 0.000000 1.000000
vn 0.000000 0.000000 1.000000
vn 0.000000 0.000000 1.000000
s off
f 2/47/1 8/48/2 13/49/3 14/50/4
f 11/51/5 12/52/6 7/53/7 1/54/8
f 15/59/9 16/60/10 9/61/11 10/62/12
f 4/55/13 6/56/14 5/57/15 3/58/16
f 8/2/17 7/17/18 12/12/19 13/7/20
f 26/71/21 25/69/22 27/70/23
f 17/31/24 18/32/25 19/33/26 20/34/27
f 25/69/28 26/71/29 28/72/30
f 22/35/31 21/36/32 23/37/33 24/38/34
f 3/39/35 5/40/36 12/41/37 11/42/38
f 5/15/39 6/14/40 13/3/41 12/6/42
f 14/43/43 13/44/44 6/45/45 4/46/46
f 3/16/47 32/79/48 16/10/49
f 4/13/50 30/75/51 14/4/52
f 27/70/53 25/69/54 29/73/55
f 33/80/56 9/21/57 18/24/58 17/23/59
f 9/21/60 16/20/61 19/25/62 18/24/63
f 16/20/64 32/78/65 20/26/66 19/25/67
f 32/78/68 33/80/69 17/23/70 20/26/71
f 15/19/72 10/22/73 21/28/74 22/27/75
f 2/1/76 14/8/77 30/11/78 31/18/79
f 10/64/80 9/65/81 25/69/82
f 7/66/83 8/63/84 26/71/85 27/70/86
f 8/63/87 2/67/88 28/72/89 26/71/90
f 2/67/91 31/77/92 28/72/93
f 9/65/94 33/81/95 29/73/96 25/69/97
f 1/68/98 7/66/99 27/70/100 29/73/101
f 4/13/102 3/16/103 16/10/104 15/9/105
f 30/75/106 4/13/107 15/9/108
f 30/74/109 15/19/110 22/27/111 24/30/112
f 31/76/113 30/74/114 24/30/115 23/29/116
f 10/22/117 31/76/118 23/29/119 21/28/120
f 28/72/121 31/77/122 10/64/123 25/69/124
f 11/5/125 32/79/126 3/16/127
f 11/82/128 1/83/129 33/84/130 32/85/131
f 29/73/132 33/81/133 1/68/134
