# This file uses centimeters as units for non-parametric coordinates.

v 0.000000 0.000000 1.000000
v 0.000000 0.000000 0.000000
v 0.000000 1.302266 0.000000
v 0.000000 1.302266 1.000000
v 0.000000 1.302266 -0.330122
v 0.000000 1.476236 -0.330122
v 0.000000 1.476236 1.330122
v 0.000000 1.302266 1.330122
v 0.382774 1.170323 0.000000
v 0.382958 0.000000 0.000000
v 0.382774 1.170323 0.764504
v 0.382958 0.000000 0.764504
v 0.382836 0.905204 0.764504
v 0.382836 0.905204 0.000000
v 0.000000 0.906391 0.000000
v 0.000000 0.906391 1.000000
v 0.382903 0.433690 0.764504
v 0.382903 0.433690 0.000000
v 0.000000 0.433726 0.000000
v 0.000000 0.433726 1.000000
v 4.000000 0.000000 1.000000
v 4.000000 0.000000 0.000000
v 4.000000 0.433726 0.000000
v 4.000000 0.433726 1.000000
v 4.000000 1.476236 -0.330122
v 4.000000 1.476236 1.330122
v 4.000000 1.302266 1.330122
v 4.000000 1.302266 -0.330122
v 3.617097 0.433690 0.764504
v 3.617043 0.000000 0.764504
v 4.000000 1.302266 1.000000
v 4.000000 1.302266 0.000000
v 3.617226 1.170323 0.000000
v 3.617043 0.000000 0.000000
v 3.617097 0.433690 0.000000
v 3.617226 1.170323 0.764504
v 3.617164 0.905204 0.764504
v 3.617164 0.905204 0.000000
v 4.000000 0.906391 0.000000
v 4.000000 0.906391 1.000000
v 0.513430 1.476236 -0.330122
v 0.513430 1.476236 0.865037
v 3.486570 1.476236 0.865037
v 3.486570 1.476236 -0.330122
v 0.841996 2.688324 -0.330122
v 0.841996 2.688324 0.474185
v 3.158004 2.688324 0.474185
v 3.158004 2.688324 -0.330122
v 0.626594 1.536971 0.845453
v 3.373406 1.536971 0.845453
v 3.082424 2.627589 0.493769
v 0.917576 2.627589 0.493769
v 0.601708 1.538900 -0.330122
v 3.398292 1.538900 -0.330122
v 0.893689 2.614130 -0.330122
v 3.106311 2.614130 -0.330122
v 3.216433 2.125316 0.655733
v 0.783567 2.125316 0.655733
v 0.759220 2.118944 -0.330122
v 3.240780 2.118944 -0.330122
v 3.239686 2.038160 0.683837
v 0.760314 2.038160 0.683837
v 0.735888 2.033019 -0.330122
v 3.264112 2.033019 -0.330122
vt 0.225189 0.086150
vt 0.225189 0.086150
vt 0.225189 0.086150
vt 0.225189 0.086150
vt 0.291852 0.062340
vt 0.291852 0.062340
vt 0.291852 0.062340
vt 0.291852 0.062340
vt 0.195858 0.062443
vt 0.195858 0.062443
vt 0.195858 0.062443
vt 0.195858 0.062443
vt 0.272043 0.086116
vt 0.272043 0.086116
vt 0.272043 0.086116
vt 0.272043 0.086116
vt 0.225189 0.086150
vt 0.225189 0.086150
vt 0.225189 0.086150
vt 0.225189 0.086150
vt 0.198904 0.086771
vt 0.198904 0.086771
vt 0.198904 0.086771
vt 0.198904 0.086771
vt 0.198904 0.086771
vt 0.198904 0.086771
vt 0.225189 0.086150
vt 0.225189 0.086150
vt 0.225189 0.086150
vt 0.225189 0.086150
vt 0.272043 0.086116
vt 0.272043 0.086116
vt 0.272043 0.084026
vt 0.272043 0.086116
vt 0.225189 0.086150
vt 0.225189 0.086150
vt 0.225189 0.086150
vt 0.225189 0.086150
vt 0.322325 0.086533
vt 0.322325 0.086533
vt 0.322325 0.086533
vt 0.322325 0.086533
vt 0.350895 0.086540
vt 0.350895 0.086540
vt 0.350895 0.086540
vt 0.350895 0.086540
vt 0.300612 0.086588
vt 0.300612 0.086588
vt 0.300612 0.086588
vt 0.300612 0.086588
vt 0.225189 0.086150
vt 0.225189 0.086150
vt 0.225189 0.086150
vt 0.225189 0.086150
vt 0.291852 0.062340
vt 0.291852 0.062340
vt 0.291852 0.062340
vt 0.291852 0.062340
vt 0.448413 0.062397
vt 0.448413 0.062397
vt 0.448413 0.062397
vt 0.448413 0.062397
vt 0.385560 0.062409
vt 0.385560 0.062409
vt 0.385560 0.062409
vt 0.385560 0.062409
vt 0.272043 0.086116
vt 0.272043 0.086116
vt 0.272043 0.086116
vt 0.272043 0.086116
vt 0.272043 0.086116
vt 0.272043 0.086116
vt 0.272043 0.086116
vt 0.272043 0.086116
vt 0.195858 0.062443
vt 0.195858 0.062443
vt 0.385560 0.062409
vt 0.385560 0.062409
vt 0.385560 0.062409
vt 0.385560 0.062409
vt 0.195858 0.062443
vt 0.195858 0.062443
vt 0.272043 0.086116
vt 0.272043 0.084026
vt 0.272043 0.086116
vt 0.272043 0.086116
vt 0.272043 0.086116
vt 0.272043 0.086116
vt 0.225189 0.086150
vt 0.225189 0.086150
vt 0.225189 0.086150
vt 0.225189 0.086150
vt 0.198904 0.086771
vt 0.198904 0.086771
vt 0.272043 0.086116
vt 0.272043 0.086116
vt 0.272043 0.086116
vt 0.272043 0.086116
vt 0.225189 0.086150
vt 0.225189 0.086150
vt 0.225189 0.086150
vt 0.225189 0.086150
vt 0.272043 0.086116
vt 0.272043 0.086116
vt 0.225189 0.086150
vt 0.225189 0.086150
vt 0.225189 0.086150
vt 0.225189 0.086150
vt 0.272043 0.086116
vt 0.272043 0.086116
vt 0.272043 0.086116
vt 0.272043 0.086116
vt 0.350895 0.086540
vt 0.350895 0.086540
vt 0.350895 0.086540
vt 0.350895 0.086540
vt 0.322325 0.086533
vt 0.322325 0.086533
vt 0.322325 0.086533
vt 0.322325 0.086533
vt 0.350895 0.086540
vt 0.350895 0.086540
vt 0.350895 0.086540
vt 0.350895 0.086540
vt 0.300612 0.086588
vt 0.300612 0.086588
vt 0.300612 0.086588
vt 0.300612 0.086588
vt 0.353180 0.086554
vt 0.353180 0.086554
vt 0.353180 0.086554
vt 0.353180 0.086554
vt 0.448413 0.062397
vt 0.448413 0.062397
vt 0.448413 0.062397
vt 0.448413 0.062397
vt 0.385560 0.062409
vt 0.385560 0.062409
vt 0.205396 0.085886
vt 0.205396 0.085886
vt 0.205396 0.085886
vt 0.205396 0.085886
vt 0.448413 0.062397
vt 0.448413 0.062397
vt 0.448413 0.062397
vt 0.448413 0.062397
vt 0.448413 0.062397
vt 0.448413 0.062397
vt 0.448413 0.062397
vt 0.448413 0.062397
vt 0.448413 0.062397
vt 0.448413 0.062397
vt 0.448413 0.062397
vt 0.448413 0.062397
vt 0.448413 0.062397
vt 0.448413 0.062397
vt 0.448413 0.062397
vt 0.448413 0.062397
vt 0.448413 0.062397
vt 0.448413 0.062397
vt 0.448413 0.062397
vt 0.448413 0.062397
vt 0.375332 0.076848
vt 0.375332 0.076848
vt 0.375332 0.076848
vt 0.375332 0.076848
vt 0.263236 0.062452
vt 0.263236 0.062452
vt 0.263236 0.062452
vt 0.263236 0.062452
vt 0.263236 0.062452
vt 0.263236 0.062452
vt 0.263236 0.062452
vt 0.263236 0.062452
vt 0.336743 0.062430
vt 0.336743 0.062430
vt 0.336743 0.062430
vt 0.336743 0.062430
vt 0.320037 0.062452
vt 0.320037 0.062452
vt 0.320037 0.062452
vt 0.320037 0.062452
vt 0.263236 0.062452
vt 0.263236 0.062452
vt 0.263236 0.062452
vt 0.263236 0.062452
vt 0.263236 0.062452
vt 0.263236 0.062452
vt 0.263236 0.062452
vt 0.263236 0.062452
vt 0.300711 0.082417
vt 0.300711 0.082417
vt 0.300711 0.082417
vt 0.300711 0.082417
vt 0.360853 0.084645
vt 0.360853 0.084645
vt 0.360853 0.084645
vt 0.360853 0.084645
vt 0.478189 0.062397
vt 0.478189 0.062397
vt 0.478189 0.062397
vt 0.478189 0.062397
vt 0.386862 0.062441
vt 0.386862 0.062441
vt 0.386862 0.062441
vt 0.386862 0.062441
vt 0.386862 0.062441
vt 0.386862 0.062441
vt 0.386862 0.062441
vt 0.386862 0.062441
vt 0.304052 0.077962
vt 0.304052 0.077962
vt 0.304052 0.077962
vt 0.304052 0.077962
vt 0.272043 0.086116
vt 0.272043 0.084026
vt 0.272043 0.086116
vt 0.272043 0.084026
vn -1.000000 0.000000 0.000000
vn -1.000000 0.000000 0.000000
vn -1.000000 0.000000 0.000000
vn -1.000000 0.000000 0.000000
vn -1.000000 0.000000 0.000000
vn -1.000000 0.000000 0.000000
vn -1.000000 0.000000 0.000000
vn -1.000000 0.000000 0.000000
vn 0.000000 0.000000 -1.000000
vn 0.000000 0.000000 -1.000000
vn 0.000000 0.000000 -1.000000
vn 0.000000 0.000000 -1.000000
vn 1.000000 0.000128 0.000000
vn 1.000000 0.000128 0.000000
vn 1.000000 0.000128 0.000000
vn 1.000000 0.000128 0.000000
vn 0.000000 -1.000000 0.000000
vn 0.000000 -1.000000 0.000000
vn 0.000000 -1.000000 0.000000
vn 0.000000 -1.000000 0.000000
vn 0.000000 -1.000000 0.000000
vn 0.000000 -1.000000 0.000000
vn 0.000000 -1.000000 0.000000
vn 0.000000 -1.000000 0.000000
vn 1.000000 0.000234 0.000000
vn 1.000000 0.000234 0.000000
vn 1.000000 0.000234 0.000000
vn 1.000000 0.000234 0.000000
vn 0.000000 0.000000 -1.000000
vn 0.000000 0.000000 -1.000000
vn 0.000000 0.000000 -1.000000
vn 0.000000 0.000000 -1.000000
vn -1.000000 0.000000 0.000000
vn -1.000000 0.000000 0.000000
vn -1.000000 0.000000 0.000000
vn -1.000000 0.000000 0.000000
vn 1.000000 0.000142 0.000000
vn 1.000000 0.000142 0.000000
vn 1.000000 0.000142 0.000000
vn 1.000000 0.000142 0.000000
vn 0.000000 0.000000 -1.000000
vn 0.000000 0.000000 -1.000000
vn 0.000000 0.000000 -1.000000
vn 0.000000 0.000000 -1.000000
vn -1.000000 0.000000 0.000000
vn -1.000000 0.000000 0.000000
vn -1.000000 0.000000 0.000000
vn -1.000000 0.000000 0.000000
vn 1.000000 0.000000 0.000000
vn 1.000000 0.000000 0.000000
vn 1.000000 0.000000 0.000000
vn 1.000000 0.000000 0.000000
vn 1.000000 0.000000 0.000000
vn 1.000000 0.000000 0.000000
vn 1.000000 0.000000 0.000000
vn 1.000000 0.000000 0.000000
vn 0.000000 1.000000 0.000000
vn 0.000000 1.000000 0.000000
vn 0.000000 1.000000 0.000000
vn 0.000000 1.000000 0.000000
vn 0.000000 0.000000 -1.000000
vn 0.000000 0.000000 -1.000000
vn 0.000000 0.000000 -1.000000
vn 0.000000 0.000000 -1.000000
vn 0.000000 0.000000 -1.000000
vn 0.000000 0.000000 -1.000000
vn 0.000000 0.000000 -1.000000
vn 0.000000 0.000000 1.000000
vn 0.000000 0.000000 1.000000
vn 0.000000 0.000000 1.000000
vn 0.000000 0.000000 1.000000
vn 0.000000 -1.000000 0.000000
vn 0.000000 -1.000000 0.000000
vn 0.000000 -1.000000 0.000000
vn 0.000000 -1.000000 0.000000
vn 0.000000 0.000000 1.000000
vn 0.000000 0.000000 1.000000
vn 0.000000 0.000000 1.000000
vn 0.000000 0.000000 1.000000
vn 0.000000 -1.000000 0.000000
vn 0.000000 -1.000000 0.000000
vn 0.000000 -1.000000 0.000000
vn 0.000000 -1.000000 0.000000
vn 0.000000 0.000000 -1.000000
vn 0.000000 0.000000 -1.000000
vn 0.000000 0.000000 -1.000000
vn 0.000000 0.000000 -1.000000
vn 0.000000 0.000000 -1.000000
vn 0.000000 0.000000 -1.000000
vn 0.000000 0.000000 -1.000000
vn 0.000000 0.000000 -1.000000
vn -1.000000 0.000126 0.000000
vn -1.000000 0.000126 0.000000
vn -1.000000 0.000126 0.000000
vn -1.000000 0.000126 0.000000
vn 0.000000 -1.000000 0.000000
vn 0.000000 -1.000000 0.000000
vn 0.000000 -1.000000 0.000000
vn 0.000000 -1.000000 0.000000
vn 0.000000 0.000000 -1.000000
vn 0.000000 0.000000 -1.000000
vn 0.000000 0.000000 -1.000000
vn 0.000000 0.000000 -1.000000
vn -1.000000 0.000234 0.000000
vn -1.000000 0.000234 0.000000
vn -1.000000 0.000234 0.000000
vn -1.000000 0.000234 0.000000
vn 0.000000 0.000000 -1.000000
vn 0.000000 0.000000 -1.000000
vn 0.000000 0.000000 -1.000000
vn 0.000000 0.000000 -1.000000
vn 1.000000 0.000000 0.000000
vn 1.000000 0.000000 0.000000
vn 1.000000 0.000000 0.000000
vn 1.000000 0.000000 0.000000
vn 0.000000 0.000000 1.000000
vn 0.000000 0.000000 1.000000
vn 0.000000 0.000000 1.000000
vn 0.000000 0.000000 1.000000
vn 0.000000 0.000000 -1.000000
vn 0.000000 0.000000 -1.000000
vn 0.000000 0.000000 -1.000000
vn 0.000000 0.000000 -1.000000
vn -1.000000 0.000142 0.000000
vn -1.000000 0.000142 0.000000
vn -1.000000 0.000142 0.000000
vn -1.000000 0.000142 0.000000
vn 0.000000 0.000000 -1.000000
vn 0.000000 0.000000 -1.000000
vn 0.000000 0.000000 -1.000000
vn 0.000000 0.000000 -1.000000
vn 1.000000 0.000000 0.000000
vn 1.000000 0.000000 0.000000
vn 1.000000 0.000000 0.000000
vn 1.000000 0.000000 0.000000
vn 0.000000 0.000000 1.000000
vn 0.000000 0.000000 1.000000
vn 0.000000 0.000000 1.000000
vn 0.000000 0.000000 1.000000
vn 0.000000 1.000000 0.000000
vn 0.000000 1.000000 0.000000
vn 0.000000 1.000000 0.000000
vn 0.000000 1.000000 0.000000
vn 0.000000 1.000000 -0.000000
vn 0.000000 1.000000 -0.000000
vn 0.000000 1.000000 -0.000000
vn 0.000000 1.000000 -0.000000
vn 0.000000 1.000000 0.000000
vn 0.000000 1.000000 0.000000
vn 0.000000 1.000000 0.000000
vn 0.000000 1.000000 0.000000
vn 0.000000 0.000000 -1.000000
vn 0.000000 0.000000 -1.000000
vn 0.000000 0.000000 -1.000000
vn 0.000000 0.000000 -1.000000
vn 0.000000 0.000000 -1.000000
vn 0.000000 0.000000 -1.000000
vn 0.000000 0.000000 -1.000000
vn 0.000000 -1.000000 0.000000
vn 0.000000 -1.000000 0.000000
vn 0.000000 -1.000000 0.000000
vn 0.000000 -1.000000 0.000000
vn 0.000000 0.306898 0.951743
vn 0.000000 0.306898 0.951743
vn 0.000000 0.306898 0.951743
vn 0.000000 0.306898 0.951743
vn -0.000005 0.306901 0.951742
vn -0.000005 0.306901 0.951742
vn -0.000005 0.306901 0.951742
vn -0.000005 0.306901 0.951742
vn 0.000000 0.306898 0.951742
vn 0.000000 0.306898 0.951742
vn 0.000000 0.306898 0.951742
vn 0.000000 0.306898 0.951742
vn -0.000004 0.306902 0.951741
vn -0.000004 0.306902 0.951741
vn -0.000004 0.306902 0.951741
vn -0.965168 0.261633 0.000000
vn -0.965168 0.261633 0.000000
vn -0.965168 0.261633 0.000000
vn -0.965168 0.261633 0.000000
vn 0.965168 0.261632 0.000000
vn 0.965168 0.261632 0.000000
vn 0.965168 0.261632 0.000000
vn 0.965168 0.261632 0.000000
vn 0.000000 0.000000 -1.000000
vn 0.000000 0.000000 -1.000000
vn 0.000000 0.000000 -1.000000
vn 0.000000 0.000000 -1.000000
vn 0.000000 0.000000 -1.000000
vn 0.000000 0.000000 -1.000000
vn 0.000000 0.000000 -1.000000
vn 0.000000 0.000000 -1.000000
vn 0.000000 0.000000 -1.000000
vn 0.000000 0.000000 -1.000000
vn 0.000000 0.000000 -1.000000
vn 0.000000 0.000000 -1.000000
vn 0.000000 0.000000 -1.000000
vn 0.000000 0.000000 -1.000000
vn 0.000000 0.000000 -1.000000
vn 0.000000 0.000000 -1.000000
vn 0.000000 0.000000 -1.000000
vn 0.000000 0.000000 -1.000000
vn -0.000001 0.306902 0.951741
vn -0.000001 0.306902 0.951741
vn -0.000001 0.306902 0.951741
vn 0.000000 0.306900 0.951742
vn 0.000000 0.306900 0.951742
vn 0.000000 0.306900 0.951742
vn 0.000000 0.306900 0.951742
vn 0.000000 0.000000 -1.000000
vn 0.000000 0.000000 -1.000000
vn 0.000000 0.000000 -1.000000
vn 0.000000 0.000000 -1.000000
vn 0.000000 0.999979 -0.006463
vn 0.000000 0.999979 -0.006463
vn 0.000000 0.999979 -0.006463
vn 0.000000 0.999979 -0.006463
vn 0.964445 -0.263297 -0.022820
vn 0.964445 -0.263297 -0.022820
vn 0.964445 -0.263297 -0.022820
vn 0.964445 -0.263297 -0.022820
vn 0.964538 -0.263082 -0.021337
vn 0.964538 -0.263082 -0.021337
vn 0.964538 -0.263082 -0.021337
vn 0.964538 -0.263082 -0.021337
vn 0.000000 0.999999 0.001641
vn 0.000000 0.999999 0.001641
vn 0.000000 0.999999 0.001641
vn 0.000000 0.999999 0.001641
vn 0.000000 -0.999867 0.016333
vn 0.000000 -0.999867 0.016333
vn 0.000000 -0.999867 0.016333
vn 0.000000 -0.999867 0.016333
vn -0.964445 -0.263296 -0.022820
vn -0.964445 -0.263296 -0.022820
vn -0.964445 -0.263296 -0.022820
vn -0.964445 -0.263296 -0.022820
vn -0.964538 -0.263082 -0.021337
vn -0.964538 -0.263082 -0.021337
vn -0.964538 -0.263082 -0.021337
vn -0.964538 -0.263082 -0.021337
vn 0.000000 -0.999987 0.005071
vn 0.000000 -0.999987 0.005071
vn 0.000000 -0.999987 0.005071
vn 0.000000 -0.999987 0.005071
vn 0.000004 0.306901 0.951741
vn 0.000004 0.306901 0.951741
vn 0.000004 0.306901 0.951741
vn 0.000001 0.306900 0.951742
vn 0.000001 0.306900 0.951742
vn 0.000001 0.306900 0.951742
vn 0.000005 0.306900 0.951742
vn 0.000005 0.306900 0.951742
vn 0.000005 0.306900 0.951742
vn 0.000005 0.306900 0.951742
vn 0.000000 0.000000 -1.000000
vn 0.000000 0.000000 -1.000000
vn 0.000000 0.000000 -1.000000
vn -0.000000 0.000000 -1.000000
vn -0.000000 0.000000 -1.000000
vn -0.000000 0.000000 -1.000000
vn 0.000000 0.000000 -1.000000
vn 0.000000 0.000000 -1.000000
vn 0.000000 0.000000 -1.000000
vn 0.000000 0.000000 -1.000000
s off
f 1/1/1 20/4/2 19/3/3 2/2/4
f 6/5/5 5/8/6 8/7/7 7/6/8
f 10/13/9 2/16/10 19/15/11 18/14/12
f 18/17/13 17/20/14 12/19/15 10/18/16
f 12/21/17 30/24/18 21/23/19 1/22/20
f 12/21/21 1/22/22 2/26/23 10/25/24
f 9/27/25 11/30/26 13/29/27 14/28/28
f 15/31/29 3/34/30 9/217/31 14/32/32
f 16/35/33 4/38/34 3/37/35 15/36/36
f 14/39/37 13/42/38 17/41/39 18/40/40
f 19/43/41 15/46/42 14/45/43 18/44/44
f 20/47/45 16/50/46 15/49/47 19/48/48
f 21/51/49 22/54/50 23/53/51 24/52/52
f 25/55/53 26/58/54 27/57/55 28/56/56
f 45/199/57 46/200/58 47/201/59 48/202/60
f 28/64/61 44/137/62 25/65/63
f 12/67/64 17/70/65 29/69/66 30/68/67
f 20/71/68 1/74/69 21/73/70 24/72/71
f 8/10/72 4/11/73 31/76/74 27/75/75
f 7/77/76 8/80/77 27/79/78 26/78/79
f 3/12/80 5/9/81 28/81/82 32/82/83
f 9/33/84 3/218/85 32/84/86 33/216/87
f 34/85/88 35/88/89 23/87/90 22/86/91
f 35/89/92 34/92/93 30/91/94 29/90/95
f 30/24/96 34/94/97 22/93/98 21/23/99
f 13/95/100 11/98/101 36/97/102 37/96/103
f 33/99/104 38/102/105 37/101/106 36/100/107
f 39/103/108 38/104/109 33/83/110 32/215/111
f 40/105/112 39/108/113 32/107/114 31/106/115
f 4/109/116 16/112/117 40/111/118 31/110/119
f 17/113/120 13/116/121 37/115/122 29/114/123
f 38/117/124 35/120/125 29/119/126 37/118/127
f 23/121/128 35/124/129 38/123/130 39/122/131
f 24/125/132 23/128/133 39/127/134 40/126/135
f 16/129/136 20/132/137 24/131/138 40/130/139
f 6/59/140 7/62/141 42/134/142 41/133/143
f 7/62/144 26/61/145 43/135/146 42/134/147
f 26/61/148 25/60/149 44/136/150 43/135/151
f 5/63/152 41/138/153 44/137/154 28/64/155
f 5/63/156 6/66/157 41/138/158
f 36/139/159 11/140/160 9/141/161 33/142/162
f 42/134/163 43/135/164 50/148/165 49/147/166
f 57/155/167 61/159/168 43/135/169 47/145/170
f 47/145/171 46/144/172 52/150/173 51/149/174
f 42/134/175 49/147/176 62/160/177
f 41/203/178 42/204/179 46/205/180 45/206/181
f 47/207/182 43/208/183 44/209/184 48/210/185
f 44/136/186 41/133/187 53/152/188 54/151/189
f 63/161/190 41/133/191 45/143/192 59/157/193
f 45/143/194 48/146/195 56/154/196 55/153/197
f 64/162/198 44/136/199 54/151/200
f 59/157/201 45/143/202 55/153/203
f 57/155/204 47/145/205 51/149/206
f 58/195/207 62/196/208 61/197/209 57/198/210
f 60/211/211 64/212/212 63/213/213 59/214/214
f 58/163/215 57/164/216 60/165/217 59/166/218
f 52/167/219 58/168/220 59/169/221 55/170/222
f 62/171/223 49/172/224 53/173/225 63/174/226
f 49/175/227 50/176/228 54/177/229 53/178/230
f 51/179/231 52/180/232 55/181/233 56/182/234
f 56/183/235 60/184/236 57/185/237 51/186/238
f 64/187/239 54/188/240 50/189/241 61/190/242
f 63/191/243 64/192/244 61/193/245 62/194/246
f 50/148/247 43/135/248 61/159/249
f 46/144/250 58/156/251 52/150/252
f 42/134/253 62/160/254 58/156/255 46/144/256
f 41/133/257 63/161/258 53/152/259
f 48/146/260 60/158/261 56/154/262
f 48/146/263 44/136/264 64/162/265 60/158/266
