# This file uses centimeters as units for non-parametric coordinates.

v 0.527447 0.000000 -0.221395
v 0.256273 0.000000 -0.221395
v 0.527447 0.551077 -0.221395
v 0.256273 0.551077 -0.221395
v 0.527447 0.551077 -0.015818
v 0.256273 0.551077 -0.015818
v 0.527447 0.000000 -0.015818
v 0.256273 0.000000 -0.015818
v 0.527447 0.402059 -0.221395
v 0.256273 0.402059 -0.221395
v 0.256273 0.402059 -0.015818
v 0.527447 0.402059 -0.015818
v 0.467289 0.258419 -0.221395
v 0.316431 0.258419 -0.221395
v 0.316431 0.328777 -0.221395
v 0.467289 0.328777 -0.221395
v 0.246496 0.000000 -0.221395
v -0.024677 0.000000 -0.221395
v 0.246496 0.551077 -0.221395
v -0.024677 0.551077 -0.221395
v 0.246496 0.551077 -0.015818
v -0.024677 0.551077 -0.015818
v 0.246496 0.000000 -0.015818
v -0.024677 0.000000 -0.015818
v 0.246496 0.402059 -0.221395
v -0.024677 0.402059 -0.221395
v -0.024677 0.402059 -0.015818
v 0.246496 0.402059 -0.015818
v 0.186340 0.258419 -0.221395
v 0.035482 0.258419 -0.221395
v 0.035482 0.328777 -0.221395
v 0.186340 0.328777 -0.221395
v -0.256271 0.000000 -0.221395
v -0.527447 0.000000 -0.221395
v -0.256271 0.551077 -0.221395
v -0.527447 0.551077 -0.221395
v -0.256271 0.551077 -0.015818
v -0.527447 0.551077 -0.015818
v -0.256271 0.000000 -0.015818
v -0.527447 0.000000 -0.015818
v -0.256271 0.402059 -0.221395
v -0.527447 0.402059 -0.221395
v -0.527447 0.402059 -0.015818
v -0.256271 0.402059 -0.015818
v -0.316429 0.258419 -0.221395
v -0.467285 0.258419 -0.221395
v -0.467285 0.328777 -0.221395
v -0.316429 0.328777 -0.221395
v 0.072794 0.000000 0.015816
v -0.198381 0.000000 0.015816
v 0.072794 0.551077 0.015816
v -0.198381 0.551077 0.015816
v 0.072794 0.551077 0.221394
v -0.198381 0.551077 0.221394
v 0.072794 0.000000 0.221394
v -0.198381 0.000000 0.221394
v 0.072794 0.402059 0.015816
v -0.198381 0.402059 0.015816
v -0.198381 0.402059 0.221394
v 0.072794 0.402059 0.221394
v 0.012634 0.258419 0.015816
v -0.138224 0.258419 0.015816
v -0.138224 0.328777 0.015816
v 0.012634 0.328777 0.015816
v 0.520613 0.000000 0.015816
v 0.249439 0.000000 0.015816
v 0.520613 0.551077 0.015816
v 0.249439 0.551077 0.015816
v 0.520613 0.551077 0.221394
v 0.249439 0.551077 0.221394
v 0.520613 0.000000 0.221394
v 0.249439 0.000000 0.221394
v 0.520613 0.402059 0.015816
v 0.249439 0.402059 0.015816
v 0.249439 0.402059 0.221394
v 0.520613 0.402059 0.221394
v 0.460453 0.258419 0.015816
v 0.309597 0.258419 0.015816
v 0.309597 0.328777 0.015816
v 0.460453 0.328777 0.015816
v -0.215729 0.000000 0.015816
v -0.486902 0.000000 0.015816
v -0.215729 0.551077 0.015816
v -0.486902 0.551077 0.015816
v -0.215729 0.551077 0.221394
v -0.486902 0.551077 0.221394
v -0.215729 0.000000 0.221394
v -0.486902 0.000000 0.221394
v -0.215729 0.402059 0.015816
v -0.486902 0.402059 0.015816
v -0.486902 0.402059 0.221394
v -0.215729 0.402059 0.221394
v -0.275887 0.258419 0.015816
v -0.426744 0.258419 0.015816
v -0.426744 0.328777 0.015816
v -0.275887 0.328777 0.015816
vt 0.267155 0.011021
vt 0.267155 0.011021
vt 0.267155 0.011021
vt 0.267155 0.011021
vt 0.302479 0.011021
vt 0.302479 0.011021
vt 0.302479 0.011021
vt 0.302479 0.011021
vt 0.267155 0.011021
vt 0.267155 0.011021
vt 0.267155 0.011021
vt 0.267155 0.011021
vt 0.325561 0.475317
vt 0.325561 0.475317
vt 0.325561 0.475317
vt 0.325561 0.475317
vt 0.242428 0.011021
vt 0.242428 0.011021
vt 0.242428 0.011021
vt 0.242428 0.011021
vt 0.242428 0.011021
vt 0.242428 0.011021
vt 0.242428 0.011021
vt 0.242428 0.011021
vt 0.264544 0.168323
vt 0.264544 0.168323
vt 0.264544 0.168323
vt 0.264544 0.168323
vt 0.359708 0.475317
vt 0.359707 0.475317
vt 0.359707 0.475317
vt 0.359708 0.475317
vt 0.384434 0.475317
vt 0.384434 0.475317
vt 0.384434 0.475317
vt 0.384434 0.475317
vt 0.359708 0.475317
vt 0.359708 0.475317
vt 0.359708 0.475317
vt 0.359708 0.475317
vt 0.384434 0.475317
vt 0.384434 0.475317
vt 0.384434 0.475317
vt 0.384434 0.475317
vt 0.384434 0.475317
vt 0.384434 0.475317
vt 0.384434 0.475317
vt 0.384434 0.475317
vt 0.267155 0.011021
vt 0.267155 0.011021
vt 0.267155 0.011021
vt 0.267155 0.011021
vt 0.302479 0.011021
vt 0.302479 0.011021
vt 0.302479 0.011021
vt 0.302479 0.011021
vt 0.267155 0.011021
vt 0.267155 0.011021
vt 0.267155 0.011021
vt 0.267155 0.011021
vt 0.325561 0.475317
vt 0.325561 0.475317
vt 0.325561 0.475317
vt 0.325561 0.475317
vt 0.242428 0.011021
vt 0.242428 0.011021
vt 0.242428 0.011021
vt 0.242428 0.011021
vt 0.242428 0.011021
vt 0.242428 0.011021
vt 0.242428 0.011021
vt 0.242428 0.011021
vt 0.264544 0.168323
vt 0.264544 0.168323
vt 0.264544 0.168323
vt 0.264544 0.168323
vt 0.359708 0.475317
vt 0.359707 0.475317
vt 0.359707 0.475317
vt 0.359708 0.475317
vt 0.384434 0.475317
vt 0.384434 0.475317
vt 0.384434 0.475317
vt 0.384434 0.475317
vt 0.359708 0.475317
vt 0.359708 0.475317
vt 0.359708 0.475317
vt 0.359708 0.475317
vt 0.384434 0.475317
vt 0.384434 0.475317
vt 0.384434 0.475317
vt 0.384434 0.475317
vt 0.384434 0.475317
vt 0.384434 0.475317
vt 0.384434 0.475317
vt 0.384434 0.475317
vt 0.267155 0.011021
vt 0.267155 0.011021
vt 0.267155 0.011021
vt 0.267155 0.011021
vt 0.302479 0.011021
vt 0.302479 0.011021
vt 0.302479 0.011021
vt 0.302479 0.011021
vt 0.267155 0.011021
vt 0.267155 0.011021
vt 0.267155 0.011021
vt 0.267155 0.011021
vt 0.325561 0.475317
vt 0.325561 0.475317
vt 0.325561 0.475317
vt 0.325561 0.475317
vt 0.242428 0.011021
vt 0.242428 0.011021
vt 0.242428 0.011021
vt 0.242428 0.011021
vt 0.242428 0.011021
vt 0.242428 0.011021
vt 0.242428 0.011021
vt 0.242428 0.011021
vt 0.264544 0.168323
vt 0.264544 0.168323
vt 0.264544 0.168323
vt 0.264544 0.168323
vt 0.359708 0.475317
vt 0.359707 0.475317
vt 0.359707 0.475317
vt 0.359708 0.475317
vt 0.384434 0.475317
vt 0.384434 0.475317
vt 0.384434 0.475317
vt 0.384434 0.475317
vt 0.359708 0.475317
vt 0.359708 0.475317
vt 0.359708 0.475317
vt 0.359708 0.475317
vt 0.384434 0.475317
vt 0.384434 0.475317
vt 0.384434 0.475317
vt 0.384434 0.475317
vt 0.384434 0.475317
vt 0.384434 0.475317
vt 0.384434 0.475317
vt 0.384434 0.475317
vt 0.267155 0.011021
vt 0.267155 0.011021
vt 0.267155 0.011021
vt 0.267155 0.011021
vt 0.302479 0.011021
vt 0.302479 0.011021
vt 0.302479 0.011021
vt 0.302479 0.011021
vt 0.267155 0.011021
vt 0.267155 0.011021
vt 0.267155 0.011021
vt 0.267155 0.011021
vt 0.325561 0.475317
vt 0.325561 0.475317
vt 0.325561 0.475317
vt 0.325561 0.475317
vt 0.242428 0.011021
vt 0.242428 0.011021
vt 0.242428 0.011021
vt 0.242428 0.011021
vt 0.242428 0.011021
vt 0.242428 0.011021
vt 0.242428 0.011021
vt 0.242428 0.011021
vt 0.264544 0.168323
vt 0.264544 0.168323
vt 0.264544 0.168323
vt 0.264544 0.168323
vt 0.359708 0.475317
vt 0.359707 0.475317
vt 0.359707 0.475317
vt 0.359708 0.475317
vt 0.384434 0.475317
vt 0.384434 0.475317
vt 0.384434 0.475317
vt 0.384434 0.475317
vt 0.359708 0.475317
vt 0.359708 0.475317
vt 0.359708 0.475317
vt 0.359708 0.475317
vt 0.384434 0.475317
vt 0.384434 0.475317
vt 0.384434 0.475317
vt 0.384434 0.475317
vt 0.384434 0.475317
vt 0.384434 0.475317
vt 0.384434 0.475317
vt 0.384434 0.475317
vt 0.267155 0.011021
vt 0.267155 0.011021
vt 0.267155 0.011021
vt 0.267155 0.011021
vt 0.302479 0.011021
vt 0.302479 0.011021
vt 0.302479 0.011021
vt 0.302479 0.011021
vt 0.267155 0.011021
vt 0.267155 0.011021
vt 0.267155 0.011021
vt 0.267155 0.011021
vt 0.325561 0.475317
vt 0.325561 0.475317
vt 0.325561 0.475317
vt 0.325561 0.475317
vt 0.242428 0.011021
vt 0.242428 0.011021
vt 0.242428 0.011021
vt 0.242428 0.011021
vt 0.242428 0.011021
vt 0.242428 0.011021
vt 0.242428 0.011021
vt 0.242428 0.011021
vt 0.264544 0.168323
vt 0.264544 0.168323
vt 0.264544 0.168323
vt 0.264544 0.168323
vt 0.359708 0.475317
vt 0.359707 0.475317
vt 0.359707 0.475317
vt 0.359708 0.475317
vt 0.384434 0.475317
vt 0.384434 0.475317
vt 0.384434 0.475317
vt 0.384434 0.475317
vt 0.359708 0.475317
vt 0.359708 0.475317
vt 0.359708 0.475317
vt 0.359708 0.475317
vt 0.384434 0.475317
vt 0.384434 0.475317
vt 0.384434 0.475317
vt 0.384434 0.475317
vt 0.384434 0.475317
vt 0.384434 0.475317
vt 0.384434 0.475317
vt 0.384434 0.475317
vt 0.267155 0.011021
vt 0.267155 0.011021
vt 0.267155 0.011021
vt 0.267155 0.011021
vt 0.302479 0.011021
vt 0.302479 0.011021
vt 0.302479 0.011021
vt 0.302479 0.011021
vt 0.267155 0.011021
vt 0.267155 0.011021
vt 0.267155 0.011021
vt 0.267155 0.011021
vt 0.325561 0.475317
vt 0.325561 0.475317
vt 0.325561 0.475317
vt 0.325561 0.475317
vt 0.242428 0.011021
vt 0.242428 0.011021
vt 0.242428 0.011021
vt 0.242428 0.011021
vt 0.242428 0.011021
vt 0.242428 0.011021
vt 0.242428 0.011021
vt 0.242428 0.011021
vt 0.264544 0.168323
vt 0.264544 0.168323
vt 0.264544 0.168323
vt 0.264544 0.168323
vt 0.359708 0.475317
vt 0.359707 0.475317
vt 0.359707 0.475317
vt 0.359708 0.475317
vt 0.384434 0.475317
vt 0.384434 0.475317
vt 0.384434 0.475317
vt 0.384434 0.475317
vt 0.359708 0.475317
vt 0.359708 0.475317
vt 0.359708 0.475317
vt 0.359708 0.475317
vt 0.384434 0.475317
vt 0.384434 0.475317
vt 0.384434 0.475317
vt 0.384434 0.475317
vt 0.384434 0.475317
vt 0.384434 0.475317
vt 0.384434 0.475317
vt 0.384434 0.475317
vn 0.000000 0.000000 -1.000000
vn 0.000000 0.000000 -1.000000
vn 0.000000 0.000000 -1.000000
vn 0.000000 0.000000 -1.000000
vn 0.000000 1.000000 0.000000
vn 0.000000 1.000000 0.000000
vn 0.000000 1.000000 0.000000
vn 0.000000 1.000000 0.000000
vn 0.000000 0.000000 1.000000
vn 0.000000 0.000000 1.000000
vn 0.000000 0.000000 1.000000
vn 0.000000 0.000000 1.000000
vn 0.000000 -1.000000 0.000000
vn 0.000000 -1.000000 0.000000
vn 0.000000 -1.000000 0.000000
vn 0.000000 -1.000000 0.000000
vn -1.000000 0.000000 0.000000
vn -1.000000 0.000000 0.000000
vn -1.000000 0.000000 0.000000
vn -1.000000 0.000000 0.000000
vn 1.000000 0.000000 0.000000
vn 1.000000 0.000000 0.000000
vn 1.000000 0.000000 0.000000
vn 1.000000 0.000000 0.000000
vn 0.000000 0.000000 -1.000000
vn 0.000000 0.000000 -1.000000
vn 0.000000 0.000000 -1.000000
vn 0.000000 0.000000 -1.000000
vn -1.000000 0.000000 0.000000
vn -1.000000 0.000000 0.000000
vn -1.000000 0.000000 0.000000
vn -1.000000 0.000000 0.000000
vn 0.000000 0.000000 1.000000
vn 0.000000 0.000000 1.000000
vn 0.000000 0.000000 1.000000
vn 0.000000 0.000000 1.000000
vn 1.000000 0.000000 0.000000
vn 1.000000 0.000000 0.000000
vn 1.000000 0.000000 0.000000
vn 1.000000 0.000000 0.000000
vn 0.000000 0.000000 -1.000000
vn 0.000000 0.000000 -1.000000
vn 0.000000 0.000000 -1.000000
vn 0.000000 0.000000 -1.000000
vn 0.000000 0.000000 -1.000000
vn 0.000000 0.000000 -1.000000
vn 0.000000 0.000000 -1.000000
vn 0.000000 0.000000 -1.000000
vn 0.000000 0.000000 -1.000000
vn 0.000000 0.000000 -1.000000
vn 0.000000 0.000000 -1.000000
vn 0.000000 0.000000 -1.000000
vn -0.000000 0.000000 -1.000000
vn -0.000000 0.000000 -1.000000
vn -0.000000 0.000000 -1.000000
vn -0.000000 0.000000 -1.000000
vn 0.000000 0.000000 -1.000000
vn 0.000000 0.000000 -1.000000
vn 0.000000 0.000000 -1.000000
vn 0.000000 0.000000 -1.000000
vn 0.000000 1.000000 0.000000
vn 0.000000 1.000000 0.000000
vn 0.000000 1.000000 0.000000
vn 0.000000 1.000000 0.000000
vn 0.000000 0.000000 1.000000
vn 0.000000 0.000000 1.000000
vn 0.000000 0.000000 1.000000
vn 0.000000 0.000000 1.000000
vn 0.000000 -1.000000 0.000000
vn 0.000000 -1.000000 0.000000
vn 0.000000 -1.000000 0.000000
vn 0.000000 -1.000000 0.000000
vn -1.000000 0.000000 0.000000
vn -1.000000 0.000000 0.000000
vn -1.000000 0.000000 0.000000
vn -1.000000 0.000000 0.000000
vn 1.000000 0.000000 0.000000
vn 1.000000 0.000000 0.000000
vn 1.000000 0.000000 0.000000
vn 1.000000 0.000000 0.000000
vn 0.000000 0.000000 -1.000000
vn 0.000000 0.000000 -1.000000
vn 0.000000 0.000000 -1.000000
vn 0.000000 0.000000 -1.000000
vn -1.000000 0.000000 0.000000
vn -1.000000 0.000000 0.000000
vn -1.000000 0.000000 0.000000
vn -1.000000 0.000000 0.000000
vn 0.000000 0.000000 1.000000
vn 0.000000 0.000000 1.000000
vn 0.000000 0.000000 1.000000
vn 0.000000 0.000000 1.000000
vn 1.000000 0.000000 0.000000
vn 1.000000 0.000000 0.000000
vn 1.000000 0.000000 0.000000
vn 1.000000 0.000000 0.000000
vn 0.000000 0.000000 -1.000000
vn 0.000000 0.000000 -1.000000
vn 0.000000 0.000000 -1.000000
vn 0.000000 0.000000 -1.000000
vn 0.000000 0.000000 -1.000000
vn 0.000000 0.000000 -1.000000
vn 0.000000 0.000000 -1.000000
vn 0.000000 0.000000 -1.000000
vn 0.000000 0.000000 -1.000000
vn 0.000000 0.000000 -1.000000
vn 0.000000 0.000000 -1.000000
vn 0.000000 0.000000 -1.000000
vn -0.000000 0.000000 -1.000000
vn -0.000000 0.000000 -1.000000
vn -0.000000 0.000000 -1.000000
vn -0.000000 0.000000 -1.000000
vn 0.000000 0.000000 -1.000000
vn 0.000000 0.000000 -1.000000
vn 0.000000 0.000000 -1.000000
vn 0.000000 0.000000 -1.000000
vn 0.000000 1.000000 0.000000
vn 0.000000 1.000000 0.000000
vn 0.000000 1.000000 0.000000
vn 0.000000 1.000000 0.000000
vn 0.000000 0.000000 1.000000
vn 0.000000 0.000000 1.000000
vn 0.000000 0.000000 1.000000
vn 0.000000 0.000000 1.000000
vn 0.000000 -1.000000 0.000000
vn 0.000000 -1.000000 0.000000
vn 0.000000 -1.000000 0.000000
vn 0.000000 -1.000000 0.000000
vn -1.000000 0.000000 0.000000
vn -1.000000 0.000000 0.000000
vn -1.000000 0.000000 0.000000
vn -1.000000 0.000000 0.000000
vn 1.000000 0.000000 0.000000
vn 1.000000 0.000000 0.000000
vn 1.000000 0.000000 0.000000
vn 1.000000 0.000000 0.000000
vn 0.000000 0.000000 -1.000000
vn 0.000000 0.000000 -1.000000
vn 0.000000 0.000000 -1.000000
vn 0.000000 0.000000 -1.000000
vn -1.000000 0.000000 0.000000
vn -1.000000 0.000000 0.000000
vn -1.000000 0.000000 0.000000
vn -1.000000 0.000000 0.000000
vn 0.000000 0.000000 1.000000
vn 0.000000 0.000000 1.000000
vn 0.000000 0.000000 1.000000
vn 0.000000 0.000000 1.000000
vn 1.000000 0.000000 0.000000
vn 1.000000 0.000000 0.000000
vn 1.000000 0.000000 0.000000
vn 1.000000 0.000000 0.000000
vn 0.000000 0.000000 -1.000000
vn 0.000000 0.000000 -1.000000
vn 0.000000 0.000000 -1.000000
vn 0.000000 0.000000 -1.000000
vn 0.000000 0.000000 -1.000000
vn 0.000000 0.000000 -1.000000
vn 0.000000 0.000000 -1.000000
vn 0.000000 0.000000 -1.000000
vn 0.000000 0.000000 -1.000000
vn 0.000000 0.000000 -1.000000
vn 0.000000 0.000000 -1.000000
vn 0.000000 0.000000 -1.000000
vn -0.000000 0.000000 -1.000000
vn -0.000000 0.000000 -1.000000
vn -0.000000 0.000000 -1.000000
vn -0.000000 0.000000 -1.000000
vn 0.000000 0.000000 -1.000000
vn 0.000000 0.000000 -1.000000
vn 0.000000 0.000000 -1.000000
vn 0.000000 0.000000 -1.000000
vn 0.000000 1.000000 0.000000
vn 0.000000 1.000000 0.000000
vn 0.000000 1.000000 0.000000
vn 0.000000 1.000000 0.000000
vn 0.000000 0.000000 1.000000
vn 0.000000 0.000000 1.000000
vn 0.000000 0.000000 1.000000
vn 0.000000 0.000000 1.000000
vn 0.000000 -1.000000 0.000000
vn 0.000000 -1.000000 0.000000
vn 0.000000 -1.000000 0.000000
vn 0.000000 -1.000000 0.000000
vn -1.000000 0.000000 0.000000
vn -1.000000 0.000000 0.000000
vn -1.000000 0.000000 0.000000
vn -1.000000 0.000000 0.000000
vn 1.000000 0.000000 0.000000
vn 1.000000 0.000000 0.000000
vn 1.000000 0.000000 0.000000
vn 1.000000 0.000000 0.000000
vn 0.000000 0.000000 -1.000000
vn 0.000000 0.000000 -1.000000
vn 0.000000 0.000000 -1.000000
vn 0.000000 0.000000 -1.000000
vn -1.000000 0.000000 0.000000
vn -1.000000 0.000000 0.000000
vn -1.000000 0.000000 0.000000
vn -1.000000 0.000000 0.000000
vn 0.000000 0.000000 1.000000
vn 0.000000 0.000000 1.000000
vn 0.000000 0.000000 1.000000
vn 0.000000 0.000000 1.000000
vn 1.000000 0.000000 0.000000
vn 1.000000 0.000000 0.000000
vn 1.000000 0.000000 0.000000
vn 1.000000 0.000000 0.000000
vn 0.000000 0.000000 -1.000000
vn 0.000000 0.000000 -1.000000
vn 0.000000 0.000000 -1.000000
vn 0.000000 0.000000 -1.000000
vn 0.000000 0.000000 -1.000000
vn 0.000000 0.000000 -1.000000
vn 0.000000 0.000000 -1.000000
vn 0.000000 0.000000 -1.000000
vn 0.000000 0.000000 -1.000000
vn 0.000000 0.000000 -1.000000
vn 0.000000 0.000000 -1.000000
vn 0.000000 0.000000 -1.000000
vn 0.000000 0.000000 -1.000000
vn 0.000000 0.000000 -1.000000
vn 0.000000 0.000000 -1.000000
vn 0.000000 0.000000 -1.000000
vn 0.000000 0.000000 -1.000000
vn 0.000000 0.000000 -1.000000
vn 0.000000 0.000000 -1.000000
vn 0.000000 0.000000 -1.000000
vn 0.000000 1.000000 0.000000
vn 0.000000 1.000000 0.000000
vn 0.000000 1.000000 0.000000
vn 0.000000 1.000000 0.000000
vn 0.000000 0.000000 1.000000
vn 0.000000 0.000000 1.000000
vn 0.000000 0.000000 1.000000
vn 0.000000 0.000000 1.000000
vn 0.000000 -1.000000 0.000000
vn 0.000000 -1.000000 0.000000
vn 0.000000 -1.000000 0.000000
vn 0.000000 -1.000000 0.000000
vn -1.000000 0.000000 0.000000
vn -1.000000 0.000000 0.000000
vn -1.000000 0.000000 0.000000
vn -1.000000 0.000000 0.000000
vn 1.000000 0.000000 0.000000
vn 1.000000 0.000000 0.000000
vn 1.000000 0.000000 0.000000
vn 1.000000 0.000000 0.000000
vn 0.000000 0.000000 -1.000000
vn 0.000000 0.000000 -1.000000
vn 0.000000 0.000000 -1.000000
vn 0.000000 0.000000 -1.000000
vn -1.000000 0.000000 0.000000
vn -1.000000 0.000000 0.000000
vn -1.000000 0.000000 0.000000
vn -1.000000 0.000000 0.000000
vn 0.000000 0.000000 1.000000
vn 0.000000 0.000000 1.000000
vn 0.000000 0.000000 1.000000
vn 0.000000 0.000000 1.000000
vn 1.000000 0.000000 0.000000
vn 1.000000 0.000000 0.000000
vn 1.000000 0.000000 0.000000
vn 1.000000 0.000000 0.000000
vn 0.000000 0.000000 -1.000000
vn 0.000000 0.000000 -1.000000
vn 0.000000 0.000000 -1.000000
vn 0.000000 0.000000 -1.000000
vn 0.000000 0.000000 -1.000000
vn 0.000000 0.000000 -1.000000
vn 0.000000 0.000000 -1.000000
vn 0.000000 0.000000 -1.000000
vn 0.000000 0.000000 -1.000000
vn 0.000000 0.000000 -1.000000
vn 0.000000 0.000000 -1.000000
vn 0.000000 0.000000 -1.000000
vn 0.000000 0.000000 -1.000000
vn 0.000000 0.000000 -1.000000
vn 0.000000 0.000000 -1.000000
vn 0.000000 0.000000 -1.000000
vn 0.000000 0.000000 -1.000000
vn 0.000000 0.000000 -1.000000
vn 0.000000 0.000000 -1.000000
vn 0.000000 0.000000 -1.000000
vn 0.000000 1.000000 0.000000
vn 0.000000 1.000000 0.000000
vn 0.000000 1.000000 0.000000
vn 0.000000 1.000000 0.000000
vn 0.000000 0.000000 1.000000
vn 0.000000 0.000000 1.000000
vn 0.000000 0.000000 1.000000
vn 0.000000 0.000000 1.000000
vn 0.000000 -1.000000 0.000000
vn 0.000000 -1.000000 0.000000
vn 0.000000 -1.000000 0.000000
vn 0.000000 -1.000000 0.000000
vn -1.000000 0.000000 0.000000
vn -1.000000 0.000000 0.000000
vn -1.000000 0.000000 0.000000
vn -1.000000 0.000000 0.000000
vn 1.000000 0.000000 0.000000
vn 1.000000 0.000000 0.000000
vn 1.000000 0.000000 0.000000
vn 1.000000 0.000000 0.000000
vn 0.000000 0.000000 -1.000000
vn 0.000000 0.000000 -1.000000
vn 0.000000 0.000000 -1.000000
vn 0.000000 0.000000 -1.000000
vn -1.000000 0.000000 0.000000
vn -1.000000 0.000000 0.000000
vn -1.000000 0.000000 0.000000
vn -1.000000 0.000000 0.000000
vn 0.000000 0.000000 1.000000
vn 0.000000 0.000000 1.000000
vn 0.000000 0.000000 1.000000
vn 0.000000 0.000000 1.000000
vn 1.000000 0.000000 0.000000
vn 1.000000 0.000000 0.000000
vn 1.000000 0.000000 0.000000
vn 1.000000 0.000000 0.000000
vn 0.000000 0.000000 -1.000000
vn 0.000000 0.000000 -1.000000
vn 0.000000 0.000000 -1.000000
vn 0.000000 0.000000 -1.000000
vn 0.000000 0.000000 -1.000000
vn 0.000000 0.000000 -1.000000
vn 0.000000 0.000000 -1.000000
vn 0.000000 0.000000 -1.000000
vn 0.000000 0.000000 -1.000000
vn 0.000000 0.000000 -1.000000
vn 0.000000 0.000000 -1.000000
vn 0.000000 0.000000 -1.000000
vn 0.000000 0.000000 -1.000000
vn 0.000000 0.000000 -1.000000
vn 0.000000 0.000000 -1.000000
vn 0.000000 0.000000 -1.000000
s off
f 9/1/1 10/2/2 4/3/3 3/4/4
f 3/5/5 4/6/6 6/7/7 5/8/8
f 5/9/9 6/10/10 11/11/11 12/12/12
f 7/13/13 8/14/14 2/15/15 1/16/16
f 10/17/17 11/18/18 6/19/19 4/20/20
f 12/21/21 9/22/22 3/23/23 5/24/24
f 13/25/25 14/26/26 15/27/27 16/28/28
f 2/29/29 8/30/30 11/31/31 10/32/32
f 12/33/33 11/34/34 8/35/35 7/36/36
f 7/37/37 1/38/38 9/39/39 12/40/40
f 1/41/41 2/42/42 14/43/43 13/44/44
f 2/42/45 10/45/46 15/46/47 14/43/48
f 10/45/49 9/47/50 16/48/51 15/46/52
f 9/47/53 1/41/54 13/44/55 16/48/56
f 25/49/57 26/50/58 20/51/59 19/52/60
f 19/53/61 20/54/62 22/55/63 21/56/64
f 21/57/65 22/58/66 27/59/67 28/60/68
f 23/61/69 24/62/70 18/63/71 17/64/72
f 26/65/73 27/66/74 22/67/75 20/68/76
f 28/69/77 25/70/78 19/71/79 21/72/80
f 29/73/81 30/74/82 31/75/83 32/76/84
f 18/77/85 24/78/86 27/79/87 26/80/88
f 28/81/89 27/82/90 24/83/91 23/84/92
f 23/85/93 17/86/94 25/87/95 28/88/96
f 17/89/97 18/90/98 30/91/99 29/92/100
f 18/90/101 26/93/102 31/94/103 30/91/104
f 26/93/105 25/95/106 32/96/107 31/94/108
f 25/95/109 17/89/110 29/92/111 32/96/112
f 41/97/113 42/98/114 36/99/115 35/100/116
f 35/101/117 36/102/118 38/103/119 37/104/120
f 37/105/121 38/106/122 43/107/123 44/108/124
f 39/109/125 40/110/126 34/111/127 33/112/128
f 42/113/129 43/114/130 38/115/131 36/116/132
f 44/117/133 41/118/134 35/119/135 37/120/136
f 45/121/137 46/122/138 47/123/139 48/124/140
f 34/125/141 40/126/142 43/127/143 42/128/144
f 44/129/145 43/130/146 40/131/147 39/132/148
f 39/133/149 33/134/150 41/135/151 44/136/152
f 33/137/153 34/138/154 46/139/155 45/140/156
f 34/138/157 42/141/158 47/142/159 46/139/160
f 42/141/161 41/143/162 48/144/163 47/142/164
f 41/143/165 33/137/166 45/140/167 48/144/168
f 57/145/169 58/146/170 52/147/171 51/148/172
f 51/149/173 52/150/174 54/151/175 53/152/176
f 53/153/177 54/154/178 59/155/179 60/156/180
f 55/157/181 56/158/182 50/159/183 49/160/184
f 58/161/185 59/162/186 54/163/187 52/164/188
f 60/165/189 57/166/190 51/167/191 53/168/192
f 61/169/193 62/170/194 63/171/195 64/172/196
f 50/173/197 56/174/198 59/175/199 58/176/200
f 60/177/201 59/178/202 56/179/203 55/180/204
f 55/181/205 49/182/206 57/183/207 60/184/208
f 49/185/209 50/186/210 62/187/211 61/188/212
f 50/186/213 58/189/214 63/190/215 62/187/216
f 58/189/217 57/191/218 64/192/219 63/190/220
f 57/191/221 49/185/222 61/188/223 64/192/224
f 73/193/225 74/194/226 68/195/227 67/196/228
f 67/197/229 68/198/230 70/199/231 69/200/232
f 69/201/233 70/202/234 75/203/235 76/204/236
f 71/205/237 72/206/238 66/207/239 65/208/240
f 74/209/241 75/210/242 70/211/243 68/212/244
f 76/213/245 73/214/246 67/215/247 69/216/248
f 77/217/249 78/218/250 79/219/251 80/220/252
f 66/221/253 72/222/254 75/223/255 74/224/256
f 76/225/257 75/226/258 72/227/259 71/228/260
f 71/229/261 65/230/262 73/231/263 76/232/264
f 65/233/265 66/234/266 78/235/267 77/236/268
f 66/234/269 74/237/270 79/238/271 78/235/272
f 74/237/273 73/239/274 80/240/275 79/238/276
f 73/239/277 65/233/278 77/236/279 80/240/280
f 89/241/281 90/242/282 84/243/283 83/244/284
f 83/245/285 84/246/286 86/247/287 85/248/288
f 85/249/289 86/250/290 91/251/291 92/252/292
f 87/253/293 88/254/294 82/255/295 81/256/296
f 90/257/297 91/258/298 86/259/299 84/260/300
f 92/261/301 89/262/302 83/263/303 85/264/304
f 93/265/305 94/266/306 95/267/307 96/268/308
f 82/269/309 88/270/310 91/271/311 90/272/312
f 92/273/313 91/274/314 88/275/315 87/276/316
f 87/277/317 81/278/318 89/279/319 92/280/320
f 81/281/321 82/282/322 94/283/323 93/284/324
f 82/282/325 90/285/326 95/286/327 94/283/328
f 90/285/329 89/287/330 96/288/331 95/286/332
f 89/287/333 81/281/334 93/284/335 96/288/336
