# This file uses centimeters as units for non-parametric coordinates.

v 0.000000 0.000000 1.000000
v 0.000000 0.000000 0.000000
v 0.000000 1.302266 0.000000
v 0.000000 1.302266 1.000000
v 0.000000 1.302266 -0.330122
v 0.000000 1.476236 -0.330122
v 0.000000 1.476236 1.330122
v 0.000000 1.302266 1.330122
v 0.382774 1.170323 0.000000
v 0.382959 0.000000 0.000000
v 0.382774 1.170323 0.764504
v 0.382959 0.000000 0.764504
v 0.382837 0.905204 0.764504
v 0.382837 0.905204 0.000000
v 0.000000 0.906391 0.000000
v 0.000000 0.906391 1.000000
v 0.382902 0.433690 0.764504
v 0.382902 0.433690 0.000000
v 0.000000 0.433726 0.000000
v 0.000000 0.433726 1.000000
v 4.000000 0.000000 1.000000
v 4.000000 0.000000 0.000000
v 4.000000 0.433726 0.000000
v 4.000000 0.433726 1.000000
v 4.000000 1.476236 -0.330122
v 4.000000 1.476236 1.330122
v 4.000000 1.302266 1.330122
v 4.000000 1.302266 -0.330122
v 3.617098 0.433690 0.764504
v 3.617043 0.000000 0.764504
v 4.000000 1.302266 1.000000
v 4.000000 1.302266 0.000000
v 3.617226 1.170323 0.000000
v 3.617043 0.000000 0.000000
v 3.617098 0.433690 0.000000
v 3.617226 1.170323 0.764504
v 3.617163 0.905204 0.764504
v 3.617163 0.905204 0.000000
v 4.000000 0.906391 0.000000
v 4.000000 0.906391 1.000000
v 1.483187 1.476236 -0.169954
v 1.483187 1.476236 0.733024
v 2.768812 1.476236 0.733024
v 2.768812 1.476236 -0.169954
vt 0.225189 0.085683
vt 0.225189 0.085683
vt 0.225189 0.085683
vt 0.225189 0.085683
vt 0.296581 0.061097
vt 0.296581 0.061097
vt 0.296581 0.061097
vt 0.296581 0.061097
vt 0.200587 0.061287
vt 0.200587 0.061287
vt 0.200587 0.061287
vt 0.200587 0.061287
vt 0.272043 0.085569
vt 0.272043 0.085569
vt 0.272043 0.085569
vt 0.272043 0.085569
vt 0.225189 0.085683
vt 0.225189 0.085683
vt 0.225189 0.085683
vt 0.225189 0.085683
vt 0.175541 0.086826
vt 0.175541 0.086826
vt 0.175541 0.086826
vt 0.175541 0.086826
vt 0.175541 0.086826
vt 0.175541 0.086826
vt 0.225189 0.085683
vt 0.225189 0.085683
vt 0.225189 0.085683
vt 0.225189 0.085683
vt 0.272043 0.085569
vt 0.272043 0.085569
vt 0.274963 0.083971
vt 0.272043 0.085569
vt 0.225189 0.085683
vt 0.225189 0.085683
vt 0.225189 0.085683
vt 0.225189 0.085683
vt 0.322325 0.086953
vt 0.322325 0.086953
vt 0.322325 0.086953
vt 0.322325 0.086953
vt 0.350895 0.086976
vt 0.350895 0.086976
vt 0.350895 0.086976
vt 0.350895 0.086976
vt 0.300612 0.087134
vt 0.300612 0.087134
vt 0.300612 0.087134
vt 0.300612 0.087134
vt 0.225189 0.085683
vt 0.225189 0.085683
vt 0.225189 0.085683
vt 0.225189 0.085683
vt 0.296581 0.061097
vt 0.296581 0.061097
vt 0.296581 0.061097
vt 0.296581 0.061097
vt 0.453142 0.061203
vt 0.453142 0.061203
vt 0.453142 0.061203
vt 0.453142 0.061203
vt 0.390289 0.061224
vt 0.390289 0.061224
vt 0.390289 0.061224
vt 0.390289 0.061224
vt 0.272043 0.085569
vt 0.272043 0.085569
vt 0.272043 0.085569
vt 0.272043 0.085569
vt 0.272043 0.085569
vt 0.272043 0.085569
vt 0.272043 0.085569
vt 0.272043 0.085569
vt 0.200587 0.061287
vt 0.200587 0.061287
vt 0.390289 0.061224
vt 0.390289 0.061224
vt 0.390289 0.061224
vt 0.390289 0.061224
vt 0.200587 0.061287
vt 0.200587 0.061287
vt 0.272043 0.085569
vt 0.274963 0.083971
vt 0.272043 0.085569
vt 0.272043 0.085569
vt 0.272043 0.085569
vt 0.272043 0.085569
vt 0.175541 0.086826
vt 0.175541 0.086826
vt 0.175541 0.086826
vt 0.175541 0.086826
vt 0.225189 0.085683
vt 0.225189 0.085683
vt 0.225189 0.085683
vt 0.225189 0.085683
vt 0.175541 0.086826
vt 0.175541 0.086826
vt 0.272043 0.085569
vt 0.272043 0.085569
vt 0.272043 0.085569
vt 0.272043 0.085569
vt 0.225189 0.085683
vt 0.225189 0.085683
vt 0.225189 0.085683
vt 0.225189 0.085683
vt 0.272043 0.085569
vt 0.272043 0.085569
vt 0.225189 0.085683
vt 0.225189 0.085683
vt 0.225189 0.085683
vt 0.225189 0.085683
vt 0.272043 0.085569
vt 0.272043 0.085569
vt 0.272043 0.085569
vt 0.272043 0.085569
vt 0.350895 0.086976
vt 0.350895 0.086976
vt 0.350895 0.086976
vt 0.350895 0.086976
vt 0.322325 0.086953
vt 0.322325 0.086953
vt 0.322325 0.086953
vt 0.322325 0.086953
vt 0.350895 0.086976
vt 0.350895 0.086976
vt 0.350895 0.086976
vt 0.350895 0.086976
vt 0.300612 0.087134
vt 0.300612 0.087134
vt 0.300612 0.087134
vt 0.300612 0.087134
vt 0.353180 0.087021
vt 0.353180 0.087021
vt 0.353180 0.087021
vt 0.353180 0.087021
vt 0.272043 0.085569
vt 0.274963 0.083971
vt 0.272043 0.085569
vt 0.274963 0.083971
vt 0.453142 0.061203
vt 0.453142 0.061203
vt 0.453142 0.061203
vt 0.453142 0.061203
vt 0.298370 0.089216
vt 0.298370 0.089216
vt 0.298370 0.089216
vt 0.298370 0.089216
vn -1.000000 0.000000 0.000000
vn -1.000000 0.000000 0.000000
vn -1.000000 0.000000 0.000000
vn -1.000000 0.000000 0.000000
vn -1.000000 0.000000 0.000000
vn -1.000000 0.000000 0.000000
vn -1.000000 0.000000 0.000000
vn -1.000000 0.000000 0.000000
vn 0.000000 0.000000 -1.000000
vn 0.000000 0.000000 -1.000000
vn 0.000000 0.000000 -1.000000
vn 0.000000 0.000000 -1.000000
vn 1.000000 0.000132 0.000000
vn 1.000000 0.000132 0.000000
vn 1.000000 0.000132 0.000000
vn 1.000000 0.000132 0.000000
vn 0.000000 -1.000000 0.000000
vn 0.000000 -1.000000 0.000000
vn 0.000000 -1.000000 0.000000
vn 0.000000 -1.000000 0.000000
vn 0.000000 -1.000000 0.000000
vn 0.000000 -1.000000 0.000000
vn 0.000000 -1.000000 0.000000
vn 0.000000 -1.000000 0.000000
vn 1.000000 0.000237 0.000000
vn 1.000000 0.000237 0.000000
vn 1.000000 0.000237 0.000000
vn 1.000000 0.000237 0.000000
vn 0.000000 0.000000 -1.000000
vn 0.000000 0.000000 -1.000000
vn 0.000000 0.000000 -1.000000
vn 0.000000 0.000000 -1.000000
vn -1.000000 0.000000 0.000000
vn -1.000000 0.000000 0.000000
vn -1.000000 0.000000 0.000000
vn -1.000000 0.000000 0.000000
vn 1.000000 0.000138 0.000000
vn 1.000000 0.000138 0.000000
vn 1.000000 0.000138 0.000000
vn 1.000000 0.000138 0.000000
vn 0.000000 0.000000 -1.000000
vn 0.000000 0.000000 -1.000000
vn 0.000000 0.000000 -1.000000
vn 0.000000 0.000000 -1.000000
vn -1.000000 0.000000 0.000000
vn -1.000000 0.000000 0.000000
vn -1.000000 0.000000 0.000000
vn -1.000000 0.000000 0.000000
vn 1.000000 0.000000 0.000000
vn 1.000000 0.000000 0.000000
vn 1.000000 0.000000 0.000000
vn 1.000000 0.000000 0.000000
vn 1.000000 0.000000 0.000000
vn 1.000000 0.000000 0.000000
vn 1.000000 0.000000 0.000000
vn 1.000000 0.000000 0.000000
vn 0.000000 1.000000 0.000000
vn 0.000000 1.000000 0.000000
vn 0.000000 1.000000 0.000000
vn 0.000000 1.000000 0.000000
vn 0.000000 0.000000 -1.000000
vn 0.000000 0.000000 -1.000000
vn 0.000000 0.000000 -1.000000
vn 0.000000 0.000000 -1.000000
vn 0.000000 0.000000 -1.000000
vn 0.000000 0.000000 -1.000000
vn 0.000000 0.000000 -1.000000
vn 0.000000 0.000000 -1.000000
vn 0.000000 0.000000 1.000000
vn 0.000000 0.000000 1.000000
vn 0.000000 0.000000 1.000000
vn 0.000000 0.000000 1.000000
vn 0.000000 -1.000000 0.000000
vn 0.000000 -1.000000 0.000000
vn 0.000000 -1.000000 0.000000
vn 0.000000 -1.000000 0.000000
vn 0.000000 0.000000 1.000000
vn 0.000000 0.000000 1.000000
vn 0.000000 0.000000 1.000000
vn 0.000000 0.000000 1.000000
vn 0.000000 -1.000000 0.000000
vn 0.000000 -1.000000 0.000000
vn 0.000000 -1.000000 0.000000
vn 0.000000 -1.000000 0.000000
vn 0.000000 0.000000 -1.000000
vn 0.000000 0.000000 -1.000000
vn 0.000000 0.000000 -1.000000
vn 0.000000 0.000000 -1.000000
vn 0.000000 0.000000 -1.000000
vn 0.000000 0.000000 -1.000000
vn 0.000000 0.000000 -1.000000
vn 0.000000 0.000000 -1.000000
vn 0.000000 -1.000000 0.000000
vn 0.000000 -1.000000 0.000000
vn 0.000000 -1.000000 0.000000
vn 0.000000 -1.000000 0.000000
vn -1.000000 0.000128 0.000000
vn -1.000000 0.000128 0.000000
vn -1.000000 0.000128 0.000000
vn -1.000000 0.000128 0.000000
vn 0.000000 -1.000000 0.000000
vn 0.000000 -1.000000 0.000000
vn 0.000000 -1.000000 0.000000
vn 0.000000 -1.000000 0.000000
vn 0.000000 0.000000 -1.000000
vn 0.000000 0.000000 -1.000000
vn 0.000000 0.000000 -1.000000
vn 0.000000 0.000000 -1.000000
vn -1.000000 0.000238 0.000000
vn -1.000000 0.000238 0.000000
vn -1.000000 0.000238 0.000000
vn -1.000000 0.000238 0.000000
vn 0.000000 0.000000 -1.000000
vn 0.000000 0.000000 -1.000000
vn 0.000000 0.000000 -1.000000
vn 0.000000 0.000000 -1.000000
vn 1.000000 0.000000 0.000000
vn 1.000000 0.000000 0.000000
vn 1.000000 0.000000 0.000000
vn 1.000000 0.000000 0.000000
vn 0.000000 0.000000 1.000000
vn 0.000000 0.000000 1.000000
vn 0.000000 0.000000 1.000000
vn 0.000000 0.000000 1.000000
vn 0.000000 0.000000 -1.000000
vn 0.000000 0.000000 -1.000000
vn 0.000000 0.000000 -1.000000
vn 0.000000 0.000000 -1.000000
vn -1.000000 0.000138 0.000000
vn -1.000000 0.000138 0.000000
vn -1.000000 0.000138 0.000000
vn -1.000000 0.000138 0.000000
vn 0.000000 0.000000 -1.000000
vn 0.000000 0.000000 -1.000000
vn 0.000000 0.000000 -1.000000
vn 0.000000 0.000000 -1.000000
vn 1.000000 0.000000 0.000000
vn 1.000000 0.000000 0.000000
vn 1.000000 0.000000 0.000000
vn 1.000000 0.000000 0.000000
vn 0.000000 0.000000 1.000000
vn 0.000000 0.000000 1.000000
vn 0.000000 0.000000 1.000000
vn 0.000000 0.000000 1.000000
vn 0.000000 1.000000 0.000000
vn 0.000000 1.000000 0.000000
vn 0.000000 1.000000 0.000000
vn 0.000000 1.000000 0.000000
vn 0.000000 1.000000 -0.000000
vn 0.000000 1.000000 -0.000000
vn 0.000000 1.000000 -0.000000
vn 0.000000 1.000000 -0.000000
vn 0.000000 1.000000 0.000000
vn 0.000000 1.000000 0.000000
vn 0.000000 1.000000 0.000000
vn 0.000000 1.000000 0.000000
vn 0.000000 1.000000 0.000000
vn 0.000000 1.000000 0.000000
vn 0.000000 1.000000 0.000000
vn 0.000000 1.000000 0.000000
s off
f 1/1/1 20/4/2 19/3/3 2/2/4
f 6/5/5 5/8/6 8/7/7 7/6/8
f 10/13/9 2/16/10 19/15/11 18/14/12
f 18/17/13 17/20/14 12/19/15 10/18/16
f 12/21/17 30/24/18 21/23/19 1/22/20
f 12/21/21 1/22/22 2/26/23 10/25/24
f 9/27/25 11/30/26 13/29/27 14/28/28
f 15/31/29 3/34/30 9/139/31 14/32/32
f 16/35/33 4/38/34 3/37/35 15/36/36
f 14/39/37 13/42/38 17/41/39 18/40/40
f 19/43/41 15/46/42 14/45/43 18/44/44
f 20/47/45 16/50/46 15/49/47 19/48/48
f 21/51/49 22/54/50 23/53/51 24/52/52
f 25/55/53 26/58/54 27/57/55 28/56/56
f 41/145/57 42/146/58 43/147/59 44/148/60
f 5/63/61 6/66/62 25/65/63 28/64/64
f 12/67/65 17/70/66 29/69/67 30/68/68
f 20/71/69 1/74/70 21/73/71 24/72/72
f 8/10/73 4/11/74 31/76/75 27/75/76
f 7/77/77 8/80/78 27/79/79 26/78/80
f 3/12/81 5/9/82 28/81/83 32/82/84
f 9/33/85 3/140/86 32/84/87 33/138/88
f 34/85/89 35/88/90 23/87/91 22/86/92
f 11/89/93 9/92/94 33/91/95 36/90/96
f 35/93/97 34/96/98 30/95/99 29/94/100
f 30/24/101 34/98/102 22/97/103 21/23/104
f 13/99/105 11/102/106 36/101/107 37/100/108
f 33/103/109 38/106/110 37/105/111 36/104/112
f 39/107/113 38/108/114 33/83/115 32/137/116
f 40/109/117 39/112/118 32/111/119 31/110/120
f 4/113/121 16/116/122 40/115/123 31/114/124
f 17/117/125 13/120/126 37/119/127 29/118/128
f 38/121/129 35/124/130 29/123/131 37/122/132
f 23/125/133 35/128/134 38/127/135 39/126/136
f 24/129/137 23/132/138 39/131/139 40/130/140
f 16/133/141 20/136/142 24/135/143 40/134/144
f 6/59/145 7/62/146 42/142/147 41/141/148
f 7/62/149 26/61/150 43/143/151 42/142/152
f 26/61/153 25/60/154 44/144/155 43/143/156
f 25/60/157 6/59/158 41/141/159 44/144/160
