# This file uses centimeters as units for non-parametric coordinates.

v 0.000000 0.000000 1.000000
v 0.000000 0.000000 0.000000
v 0.000000 1.302266 0.000000
v 0.000000 1.302266 1.000000
v 0.000000 1.302266 -0.330122
v 0.000000 1.476236 -0.330122
v 0.000000 1.476236 1.330122
v 0.000000 1.302266 1.330122
v 0.382774 1.170323 0.000000
v 0.382958 0.000000 0.000000
v 0.382774 1.170323 0.764504
v 0.382958 0.000000 0.764504
v 0.382836 0.905204 0.764504
v 0.382836 0.905204 0.000000
v 0.000000 0.906391 0.000000
v 0.000000 0.906391 1.000000
v 0.382903 0.433690 0.764504
v 0.382903 0.433690 0.000000
v 0.000000 0.433726 0.000000
v 0.000000 0.433726 1.000000
v 3.306348 0.000000 -2.329950
v 2.306435 0.000000 -2.329950
v 2.306435 0.433726 -2.329950
v 3.306348 0.433726 -2.329950
v 1.973736 1.476236 -2.329951
v 3.633837 1.476236 -2.329950
v 3.633837 1.302266 -2.329950
v 1.973736 1.302266 -2.329950
v 3.073297 0.433690 -1.961453
v 3.073298 0.000000 -1.961398
v 3.306348 1.302266 -2.329950
v 2.306435 1.302266 -2.329950
v 2.308856 1.170323 -1.951543
v 2.308858 0.000000 -1.951361
v 2.308857 0.433690 -1.951415
v 3.073295 1.170323 -1.961583
v 3.073295 0.905204 -1.961521
v 2.308857 0.905204 -1.951482
v 2.306435 0.906391 -2.329950
v 3.306348 0.906391 -2.329950
v 3.094532 0.000000 0.764504
v 3.330008 0.000000 1.000000
v 3.330008 0.433726 1.000000
v 3.330008 0.906391 1.000000
v 3.330008 1.302266 1.000000
v 3.660101 1.302266 1.330122
v 3.660101 1.476236 1.330122
v 2.000000 1.476236 -0.330122
v 2.000000 1.302266 -0.330122
v 2.330093 1.302266 0.000000
v 2.330093 1.170323 0.000000
v 3.094532 1.170323 0.764504
v 3.094532 0.905204 0.764504
v 3.094532 0.433690 0.764504
vt 0.225189 0.171404
vt 0.225189 0.171404
vt 0.225189 0.171404
vt 0.225189 0.171404
vt 0.296581 0.061097
vt 0.296581 0.061097
vt 0.296581 0.061097
vt 0.296581 0.061097
vt 0.200587 0.061287
vt 0.200587 0.061287
vt 0.200587 0.061287
vt 0.200587 0.061287
vt 0.272043 0.171372
vt 0.272043 0.171372
vt 0.272043 0.171372
vt 0.272043 0.171372
vt 0.225189 0.171404
vt 0.225189 0.171404
vt 0.225189 0.171404
vt 0.225189 0.171404
vt 0.175541 0.171734
vt 0.175541 0.171734
vt 0.175541 0.171734
vt 0.175541 0.171734
vt 0.175541 0.171734
vt 0.175541 0.171734
vt 0.225189 0.171404
vt 0.225189 0.171404
vt 0.225189 0.171404
vt 0.225189 0.171404
vt 0.272043 0.171372
vt 0.272043 0.171372
vt 0.274963 0.170911
vt 0.272043 0.171372
vt 0.225189 0.171404
vt 0.225189 0.171404
vt 0.225189 0.171404
vt 0.225189 0.171404
vt 0.322325 0.171771
vt 0.322325 0.171771
vt 0.322325 0.171771
vt 0.322325 0.171771
vt 0.350895 0.171777
vt 0.350895 0.171777
vt 0.350895 0.171777
vt 0.350895 0.171777
vt 0.300612 0.171823
vt 0.300612 0.171823
vt 0.300612 0.171823
vt 0.300612 0.171823
vt 0.225189 0.171404
vt 0.225189 0.171404
vt 0.225189 0.171404
vt 0.225189 0.171404
vt 0.296581 0.061097
vt 0.296581 0.061097
vt 0.296581 0.061097
vt 0.296581 0.061097
vt 0.453142 0.061203
vt 0.453142 0.061203
vt 0.453142 0.061203
vt 0.453142 0.061203
vt 0.390289 0.061224
vt 0.390289 0.061224
vt 0.390289 0.061224
vt 0.390289 0.061224
vt 0.272043 0.171372
vt 0.272043 0.171372
vt 0.272043 0.171372
vt 0.272043 0.171372
vt 0.272043 0.171372
vt 0.272043 0.171372
vt 0.272043 0.171372
vt 0.272043 0.171372
vt 0.200587 0.061287
vt 0.200587 0.061287
vt 0.390289 0.061224
vt 0.390289 0.061224
vt 0.390289 0.061224
vt 0.390289 0.061224
vt 0.200587 0.061287
vt 0.200587 0.061287
vt 0.272043 0.171372
vt 0.274963 0.170911
vt 0.272043 0.171372
vt 0.272043 0.171372
vt 0.272043 0.171372
vt 0.272043 0.171372
vt 0.175541 0.171734
vt 0.175541 0.171734
vt 0.175541 0.171734
vt 0.175541 0.171734
vt 0.225189 0.171404
vt 0.225189 0.171404
vt 0.225189 0.171404
vt 0.225189 0.171404
vt 0.175541 0.171734
vt 0.175541 0.171734
vt 0.272043 0.171372
vt 0.272043 0.171372
vt 0.272043 0.171372
vt 0.272043 0.171372
vt 0.225189 0.171404
vt 0.225189 0.171404
vt 0.225189 0.171404
vt 0.225189 0.171404
vt 0.272043 0.171372
vt 0.272043 0.171372
vt 0.225189 0.171404
vt 0.225189 0.171404
vt 0.225189 0.171404
vt 0.225189 0.171404
vt 0.272043 0.171372
vt 0.272043 0.171372
vt 0.272043 0.171372
vt 0.272043 0.171372
vt 0.350895 0.171777
vt 0.350895 0.171777
vt 0.350895 0.171777
vt 0.350895 0.171777
vt 0.322325 0.171771
vt 0.322325 0.171771
vt 0.322325 0.171771
vt 0.322325 0.171771
vt 0.350895 0.171777
vt 0.350895 0.171777
vt 0.350895 0.171777
vt 0.350895 0.171777
vt 0.300612 0.171823
vt 0.300612 0.171823
vt 0.300612 0.171823
vt 0.300612 0.171823
vt 0.353180 0.171790
vt 0.353180 0.171790
vt 0.353180 0.171790
vt 0.353180 0.171790
vt 0.272043 0.171372
vt 0.274963 0.170911
vt 0.272043 0.171372
vt 0.274963 0.170911
vt 0.175541 0.171734
vt 0.272043 0.171372
vt 0.272043 0.171372
vt 0.175541 0.171734
vt 0.272043 0.171372
vt 0.353180 0.171790
vt 0.353180 0.171790
vt 0.272043 0.171372
vt 0.272043 0.171372
vt 0.200587 0.061287
vt 0.390289 0.061224
vt 0.200587 0.061287
vt 0.453142 0.061203
vt 0.390289 0.061224
vt 0.390289 0.061224
vt 0.453142 0.061203
vt 0.200587 0.061287
vt 0.390289 0.061224
vt 0.274963 0.170911
vt 0.200587 0.061287
vt 0.175541 0.171734
vt 0.274963 0.170911
vt 0.272043 0.171372
vt 0.175541 0.171734
vt 0.350895 0.171777
vt 0.272043 0.171372
vt 0.272043 0.171372
vt 0.350895 0.171777
vn -1.000000 0.000000 0.000000
vn -1.000000 0.000000 0.000000
vn -1.000000 0.000000 0.000000
vn -1.000000 0.000000 0.000000
vn -1.000000 0.000000 0.000000
vn -1.000000 0.000000 0.000000
vn -1.000000 0.000000 0.000000
vn -1.000000 0.000000 0.000000
vn 0.000000 0.000000 -1.000000
vn 0.000000 0.000000 -1.000000
vn 0.000000 0.000000 -1.000000
vn 0.000000 0.000000 -1.000000
vn 1.000000 0.000128 0.000000
vn 1.000000 0.000128 0.000000
vn 1.000000 0.000128 0.000000
vn 1.000000 0.000128 0.000000
vn 0.000000 -1.000000 0.000000
vn 0.000000 -1.000000 0.000000
vn 0.000000 -1.000000 0.000000
vn 0.000000 -1.000000 0.000000
vn 0.000000 -1.000000 0.000000
vn 0.000000 -1.000000 0.000000
vn 0.000000 -1.000000 0.000000
vn 0.000000 -1.000000 0.000000
vn 1.000000 0.000234 0.000000
vn 1.000000 0.000234 0.000000
vn 1.000000 0.000234 0.000000
vn 1.000000 0.000234 0.000000
vn 0.000000 0.000000 -1.000000
vn 0.000000 0.000000 -1.000000
vn 0.000000 0.000000 -1.000000
vn 0.000000 0.000000 -1.000000
vn -1.000000 0.000000 0.000000
vn -1.000000 0.000000 0.000000
vn -1.000000 0.000000 0.000000
vn -1.000000 0.000000 0.000000
vn 1.000000 0.000142 0.000000
vn 1.000000 0.000142 0.000000
vn 1.000000 0.000142 0.000000
vn 1.000000 0.000142 0.000000
vn 0.000000 0.000000 -1.000000
vn 0.000000 0.000000 -1.000000
vn 0.000000 0.000000 -1.000000
vn 0.000000 0.000000 -1.000000
vn -1.000000 0.000000 0.000000
vn -1.000000 0.000000 0.000000
vn -1.000000 0.000000 0.000000
vn -1.000000 0.000000 0.000000
vn 0.000000 0.000000 -1.000000
vn 0.000000 0.000000 -1.000000
vn 0.000000 0.000000 -1.000000
vn 0.000000 0.000000 -1.000000
vn 0.000000 0.000000 -1.000000
vn 0.000000 0.000000 -1.000000
vn 0.000000 0.000000 -1.000000
vn 0.000000 0.000000 -1.000000
vn 0.000000 1.000000 0.000000
vn 0.000000 1.000000 0.000000
vn 0.000000 1.000000 0.000000
vn 0.000000 1.000000 0.000000
vn 0.000000 0.000000 -1.000000
vn 0.000000 0.000000 -1.000000
vn 0.000000 0.000000 -1.000000
vn 0.000000 0.000000 -1.000000
vn 0.000000 0.000000 -1.000000
vn 0.000000 0.000000 -1.000000
vn 0.000000 0.000000 -1.000000
vn 0.000000 0.000000 -1.000000
vn 0.000000 0.000000 1.000000
vn 0.000000 0.000000 1.000000
vn 0.000000 0.000000 1.000000
vn 0.000000 0.000000 1.000000
vn 0.000000 -1.000000 -0.000000
vn 0.000000 -1.000000 -0.000000
vn 0.000000 -1.000000 -0.000000
vn 0.000000 -1.000000 -0.000000
vn 0.000000 0.000000 1.000000
vn 0.000000 0.000000 1.000000
vn 0.000000 0.000000 1.000000
vn 0.000000 0.000000 1.000000
vn 0.000000 -1.000000 0.000000
vn 0.000000 -1.000000 0.000000
vn 0.000000 -1.000000 0.000000
vn 0.000000 -1.000000 0.000000
vn 0.000000 0.000000 -1.000000
vn 0.000000 0.000000 -1.000000
vn 0.000000 0.000000 -1.000000
vn 0.000000 0.000000 -1.000000
vn -0.999979 -0.000001 0.006400
vn -0.999980 -0.000001 0.006400
vn -0.999980 -0.000001 0.006400
vn -0.999980 -0.000001 0.006400
vn 0.000000 -1.000000 0.000000
vn 0.000000 -1.000000 0.000000
vn 0.000000 -1.000000 0.000000
vn 0.000000 -1.000000 0.000000
vn 0.013130 0.000126 0.999914
vn 0.013130 0.000126 0.999914
vn 0.013130 0.000126 0.999914
vn 0.013130 0.000126 0.999914
vn 0.000000 -1.000000 0.000000
vn 0.000000 -1.000000 0.000000
vn 0.000000 -1.000000 0.000000
vn 0.000000 -1.000000 0.000000
vn 0.000000 0.000000 -1.000000
vn 0.000000 0.000000 -1.000000
vn 0.000000 0.000000 -1.000000
vn 0.000000 0.000000 -1.000000
vn 0.013133 0.000232 0.999914
vn 0.013133 0.000232 0.999914
vn 0.013133 0.000232 0.999914
vn 0.013133 0.000232 0.999914
vn -0.999979 -0.000001 0.006399
vn -0.999980 -0.000001 0.006399
vn -0.999979 -0.000001 0.006399
vn -0.999980 -0.000001 0.006399
vn 0.000000 0.000000 -1.000000
vn 0.000000 0.000000 -1.000000
vn 0.000000 0.000000 -1.000000
vn 0.000000 0.000000 -1.000000
vn 0.000000 0.000000 1.000000
vn 0.000000 0.000000 1.000000
vn 0.000000 0.000000 1.000000
vn 0.000000 0.000000 1.000000
vn 0.000000 0.000000 -1.000000
vn 0.000000 0.000000 -1.000000
vn 0.000000 0.000000 -1.000000
vn 0.000000 0.000000 -1.000000
vn 0.013131 0.000143 0.999914
vn 0.013131 0.000143 0.999914
vn 0.013131 0.000143 0.999914
vn 0.013131 0.000143 0.999914
vn -0.999979 0.000001 0.006400
vn -0.999979 0.000001 0.006400
vn -0.999980 0.000001 0.006400
vn -0.999980 0.000001 0.006400
vn 0.000000 0.000000 -1.000000
vn 0.000000 0.000000 -1.000000
vn 0.000000 0.000000 -1.000000
vn 0.000000 0.000000 -1.000000
vn 0.000000 0.000000 1.000000
vn 0.000000 0.000000 1.000000
vn 0.000000 0.000000 1.000000
vn 0.000000 0.000000 1.000000
vn 0.000000 -1.000000 0.000000
vn 0.000000 -1.000000 0.000000
vn 0.000000 -1.000000 0.000000
vn 0.000000 -1.000000 0.000000
vn 0.999975 0.000000 -0.007105
vn 0.999975 0.000000 -0.007105
vn 0.999975 0.000000 -0.007105
vn 0.999975 0.000000 -0.007105
vn 0.999975 0.000000 -0.007105
vn 0.999975 0.000000 -0.007105
vn 0.999975 0.000000 -0.007105
vn 0.999975 0.000000 -0.007105
vn 0.999975 0.000000 -0.007105
vn 0.999975 0.000000 -0.007105
vn 0.999975 0.000000 -0.007105
vn 0.999975 0.000000 -0.007105
vn 0.000000 -1.000000 0.000000
vn 0.000000 -1.000000 0.000000
vn 0.000000 -1.000000 0.000000
vn 0.000000 -1.000000 0.000000
vn 0.999974 -0.000001 -0.007176
vn 0.999974 -0.000001 -0.007176
vn 0.999974 -0.000001 -0.007176
vn 0.999974 -0.000001 -0.007176
vn 0.000000 1.000000 -0.000000
vn 0.000000 1.000000 -0.000000
vn 0.000000 1.000000 -0.000000
vn 0.000000 1.000000 -0.000000
vn -0.999914 0.000000 0.013132
vn -0.999914 0.000000 0.013132
vn -0.999914 0.000000 0.013132
vn -0.999914 0.000000 0.013132
vn 0.000000 -1.000000 -0.000000
vn 0.000000 -1.000000 -0.000000
vn 0.000000 -1.000000 -0.000000
vn 0.000000 -1.000000 -0.000000
vn -0.999928 0.005861 0.010485
vn -0.999928 0.005861 0.010485
vn -0.999928 0.005861 0.010485
vn -0.999928 0.005861 0.010485
vn 0.000000 -1.000000 0.000000
vn 0.000000 -1.000000 0.000000
vn 0.000000 -1.000000 0.000000
vn 0.000000 -1.000000 0.000000
vn -0.999970 0.000000 0.007790
vn -0.999970 0.000000 0.007790
vn -0.999970 0.000000 0.007790
vn -0.999970 0.000000 0.007790
vn -0.999970 -0.000001 0.007790
vn -0.999970 -0.000001 0.007790
vn -0.999970 -0.000001 0.007790
vn -0.999970 -0.000001 0.007790
vn -0.999970 -0.000001 0.007790
vn -0.999970 -0.000001 0.007790
vn -0.999970 -0.000001 0.007790
vn -0.999970 -0.000001 0.007790
s off
f 1/1/1 20/4/2 19/3/3 2/2/4
f 6/5/5 5/8/6 8/7/7 7/6/8
f 10/13/9 2/16/10 19/15/11 18/14/12
f 18/17/13 17/20/14 12/19/15 10/18/16
f 12/21/17 41/141/18 42/144/19 1/22/20
f 12/21/21 1/22/22 2/26/23 10/25/24
f 9/27/25 11/30/26 13/29/27 14/28/28
f 15/31/29 3/34/30 9/139/31 14/32/32
f 16/35/33 4/38/34 3/37/35 15/36/36
f 14/39/37 13/42/38 17/41/39 18/40/40
f 19/43/41 15/46/42 14/45/43 18/44/44
f 20/47/45 16/50/46 15/49/47 19/48/48
f 21/51/49 22/54/50 23/53/51 24/52/52
f 25/55/53 26/58/54 27/57/55 28/56/56
f 6/59/57 7/62/58 47/153/59 48/156/60
f 5/63/61 6/66/62 48/155/63 49/158/64
f 12/67/65 17/70/66 54/167/67 41/142/68
f 20/71/69 1/74/70 42/143/71 43/145/72
f 8/10/73 4/11/74 45/150/75 46/152/76
f 7/77/77 8/80/78 46/151/79 47/154/80
f 3/12/81 5/9/82 49/157/83 50/160/84
f 9/33/85 3/140/86 50/159/87 51/162/88
f 34/85/89 35/88/90 23/87/91 22/86/92
f 11/89/93 9/92/94 51/161/95 52/164/96
f 35/93/97 34/96/98 30/95/99 29/94/100
f 30/24/101 34/98/102 22/97/103 21/23/104
f 13/99/105 11/102/106 52/163/107 53/166/108
f 33/103/109 38/106/110 37/105/111 36/104/112
f 39/107/113 38/108/114 33/83/115 32/137/116
f 40/109/117 39/112/118 32/111/119 31/110/120
f 4/113/121 16/116/122 44/148/123 45/149/124
f 17/117/125 13/120/126 53/165/127 54/168/128
f 38/121/129 35/124/130 29/123/131 37/122/132
f 23/125/133 35/128/134 38/127/135 39/126/136
f 24/129/137 23/132/138 39/131/139 40/130/140
f 16/133/141 20/136/142 43/146/143 44/147/144
f 42/144/145 41/141/146 30/24/147 21/23/148
f 43/145/149 42/143/150 21/73/151 24/72/152
f 44/147/153 43/146/154 24/135/155 40/134/156
f 45/149/157 44/148/158 40/115/159 31/114/160
f 46/152/161 45/150/162 31/76/163 27/75/164
f 47/154/165 46/151/166 27/79/167 26/78/168
f 48/156/169 47/153/170 26/61/171 25/60/172
f 49/158/173 48/155/174 25/65/175 28/64/176
f 50/160/177 49/157/178 28/81/179 32/82/180
f 51/162/181 50/159/182 32/84/183 33/138/184
f 52/164/185 51/161/186 33/91/187 36/90/188
f 53/166/189 52/163/190 36/101/191 37/100/192
f 54/168/193 53/165/194 37/119/195 29/118/196
f 41/142/197 54/167/198 29/69/199 30/68/200
