# This file uses centimeters as units for non-parametric coordinates.

v -1.104067 0.000000 0.730434
v 1.104067 0.000000 0.730434
v -1.104067 1.219026 0.730434
v 1.104067 1.219026 0.730434
v -1.104067 1.219026 -0.730434
v 1.104067 1.219026 -0.730434
v -1.104067 0.000000 -0.730434
v 1.104067 0.000000 -0.730434
v -0.670607 1.219026 0.272856
v 0.693840 1.219026 0.272856
v 0.693840 1.219026 -0.528215
v -0.670607 1.219026 -0.528215
v -0.670607 1.183848 -0.528215
v 0.693840 1.183848 -0.528215
v -0.670607 1.183848 0.272856
v 0.693840 1.183848 0.272856
v -0.664021 1.219026 0.641285
v 0.681118 1.219026 0.641285
v 0.681118 1.219026 0.362006
v -0.664021 1.219026 0.362006
v -0.574932 1.351943 0.641285
v 0.592026 1.351943 0.641285
v 0.592026 1.351943 0.452478
v -0.574932 1.351943 0.452478
v -1.104067 1.061501 -0.730434
v 1.104067 1.061501 -0.730434
v 1.104067 1.061501 0.730434
v -1.104067 1.061501 0.730434
v -0.853855 0.978330 -0.730434
v 0.853855 0.978330 -0.730434
v 0.853855 0.529264 -0.730434
v -0.853855 0.529264 -0.730434
v -0.801619 0.925530 -0.730434
v 0.801619 0.925530 -0.730434
v 0.801619 0.582064 -0.730434
v -0.801619 0.582064 -0.730434
v 0.024733 1.346664 0.583749
v 0.082752 1.346664 0.583749
v 0.024733 1.404685 0.583749
v 0.082752 1.404685 0.583749
v 0.024733 1.404685 0.525729
v 0.082752 1.404685 0.525729
v 0.024733 1.346664 0.525729
v 0.082752 1.346664 0.525729
v -0.093124 1.346664 0.602461
v 0.002319 1.346664 0.602461
v -0.093124 1.442108 0.602461
v 0.002319 1.442108 0.602461
v -0.093124 1.442108 0.507017
v 0.002319 1.442108 0.507017
v -0.093124 1.346664 0.507017
v 0.002319 1.346664 0.507017
vt 0.234313 0.473617
vt 0.234313 0.473617
vt 0.234313 0.473617
vt 0.234313 0.473617
vt 0.297898 0.087460
vt 0.297898 0.087460
vt 0.297898 0.087460
vt 0.297898 0.087460
vt 0.296050 0.473617
vt 0.296050 0.473617
vt 0.296050 0.473617
vt 0.296050 0.473617
vt 0.237177 0.473617
vt 0.237176 0.473617
vt 0.237176 0.473617
vt 0.237177 0.473617
vt 0.271323 0.473617
vt 0.271323 0.473617
vt 0.271323 0.473617
vt 0.271323 0.473617
vt 0.271323 0.473617
vt 0.271323 0.473617
vt 0.271323 0.473617
vt 0.271323 0.473617
vt 0.359216 0.087460
vt 0.359216 0.087460
vt 0.359216 0.087460
vt 0.359216 0.087460
vt 0.331374 0.087460
vt 0.331374 0.087460
vt 0.331374 0.087460
vt 0.331374 0.087460
vt 0.331374 0.087460
vt 0.331374 0.087460
vt 0.331374 0.087460
vt 0.331374 0.087460
vt 0.331374 0.087460
vt 0.331374 0.087460
vt 0.331374 0.087460
vt 0.331374 0.087460
vt 0.264423 0.087460
vt 0.264423 0.087460
vt 0.264423 0.087460
vt 0.264423 0.087460
vt 0.235209 0.087460
vt 0.235209 0.087460
vt 0.235209 0.087460
vt 0.235209 0.087460
vt 0.264423 0.087460
vt 0.264423 0.087460
vt 0.264423 0.087460
vt 0.264423 0.087460
vt 0.235208 0.087460
vt 0.235208 0.087460
vt 0.235208 0.087460
vt 0.235208 0.087460
vt 0.331374 0.087460
vt 0.331374 0.087460
vt 0.331374 0.087460
vt 0.331374 0.087460
vt 0.331374 0.087460
vt 0.331374 0.087460
vt 0.331374 0.087460
vt 0.331374 0.087460
vt 0.331374 0.087460
vt 0.331374 0.087460
vt 0.331374 0.087460
vt 0.331374 0.087460
vt 0.331374 0.087460
vt 0.331374 0.087460
vt 0.331374 0.087460
vt 0.331374 0.087460
vt 0.233321 0.085039
vt 0.233321 0.085039
vt 0.233321 0.085039
vt 0.233321 0.085039
vt 0.269637 0.087460
vt 0.269637 0.087460
vt 0.269637 0.087460
vt 0.269637 0.087460
vt 0.302321 0.087460
vt 0.302321 0.087460
vt 0.302321 0.087460
vt 0.302321 0.087460
vt 0.269637 0.087460
vt 0.269637 0.087460
vt 0.269637 0.087460
vt 0.269637 0.087460
vt 0.296050 0.087460
vt 0.296050 0.087460
vt 0.296050 0.087460
vt 0.296050 0.087460
vt 0.271323 0.087460
vt 0.271323 0.087460
vt 0.271323 0.087460
vt 0.271323 0.087460
vt 0.234313 0.087460
vt 0.234313 0.087460
vt 0.234313 0.087460
vt 0.234313 0.087460
vt 0.271323 0.087460
vt 0.271323 0.087460
vt 0.271323 0.087460
vt 0.271323 0.087460
vt 0.296050 0.473617
vt 0.296050 0.473617
vt 0.296050 0.473617
vt 0.296050 0.473617
vt 0.296050 0.473617
vt 0.296050 0.473617
vt 0.296050 0.473617
vt 0.296050 0.473617
vt 0.240366 0.473617
vt 0.240366 0.473617
vt 0.240366 0.473617
vt 0.240366 0.473617
vt 0.240366 0.473617
vt 0.240366 0.473617
vt 0.240366 0.473617
vt 0.240366 0.473617
vt 0.240366 0.473617
vt 0.240366 0.473617
vt 0.240366 0.473617
vt 0.240366 0.473617
vt 0.240366 0.473617
vt 0.240366 0.473617
vt 0.240366 0.473617
vt 0.240366 0.473617
vt 0.296050 0.170986
vt 0.296050 0.170986
vt 0.296050 0.170987
vt 0.296050 0.170987
vt 0.331374 0.170987
vt 0.331374 0.170987
vt 0.331374 0.170987
vt 0.331374 0.170987
vt 0.296050 0.170987
vt 0.296050 0.170987
vt 0.296050 0.170986
vt 0.296050 0.170986
vt 0.237177 0.170986
vt 0.237176 0.170986
vt 0.237176 0.170986
vt 0.237177 0.170986
vt 0.271323 0.170986
vt 0.271323 0.170986
vt 0.271323 0.170987
vt 0.271323 0.170987
vt 0.271323 0.170986
vt 0.271323 0.170986
vt 0.271323 0.170987
vt 0.271323 0.170987
vt 0.296050 0.473617
vt 0.296050 0.473617
vt 0.296050 0.473617
vt 0.296050 0.473617
vt 0.331374 0.473617
vt 0.331374 0.473617
vt 0.331374 0.473617
vt 0.331374 0.473617
vt 0.296050 0.473617
vt 0.296050 0.473617
vt 0.296050 0.473617
vt 0.296050 0.473617
vt 0.237177 0.473617
vt 0.237176 0.473617
vt 0.237176 0.473617
vt 0.237177 0.473617
vt 0.271323 0.473617
vt 0.271323 0.473617
vt 0.271323 0.473617
vt 0.271323 0.473617
vt 0.271323 0.473617
vt 0.271323 0.473617
vt 0.271323 0.473617
vt 0.271323 0.473617
vn 0.000000 0.000000 1.000000
vn 0.000000 0.000000 1.000000
vn 0.000000 0.000000 1.000000
vn 0.000000 0.000000 1.000000
vn 0.000000 1.000000 0.000000
vn 0.000000 1.000000 0.000000
vn 0.000000 1.000000 0.000000
vn 0.000000 1.000000 0.000000
vn 0.000000 0.000000 -1.000000
vn 0.000000 0.000000 -1.000000
vn 0.000000 0.000000 -1.000000
vn 0.000000 0.000000 -1.000000
vn 0.000000 -1.000000 0.000000
vn 0.000000 -1.000000 0.000000
vn 0.000000 -1.000000 0.000000
vn 0.000000 -1.000000 0.000000
vn 1.000000 0.000000 0.000000
vn 1.000000 0.000000 0.000000
vn 1.000000 0.000000 0.000000
vn 1.000000 0.000000 0.000000
vn -1.000000 0.000000 0.000000
vn -1.000000 0.000000 0.000000
vn -1.000000 0.000000 0.000000
vn -1.000000 0.000000 0.000000
vn 0.000000 1.000000 0.000000
vn 0.000000 1.000000 0.000000
vn 0.000000 1.000000 0.000000
vn 0.000000 1.000000 0.000000
vn 0.000000 1.000000 0.000000
vn 0.000000 1.000000 0.000000
vn 0.000000 1.000000 0.000000
vn 0.000000 1.000000 0.000000
vn 0.000000 1.000000 0.000000
vn 0.000000 1.000000 0.000000
vn 0.000000 1.000000 0.000000
vn 0.000000 1.000000 0.000000
vn 0.000000 1.000000 0.000000
vn 0.000000 1.000000 0.000000
vn 0.000000 1.000000 0.000000
vn 0.000000 1.000000 0.000000
vn 0.000000 0.000000 1.000000
vn 0.000000 0.000000 1.000000
vn 0.000000 0.000000 1.000000
vn 0.000000 0.000000 1.000000
vn 1.000000 0.000000 0.000000
vn 1.000000 0.000000 0.000000
vn 1.000000 0.000000 0.000000
vn 1.000000 0.000000 0.000000
vn 0.000000 0.000000 -1.000000
vn 0.000000 0.000000 -1.000000
vn 0.000000 0.000000 -1.000000
vn 0.000000 0.000000 -1.000000
vn -1.000000 0.000000 0.000000
vn -1.000000 0.000000 0.000000
vn -1.000000 0.000000 0.000000
vn -1.000000 0.000000 0.000000
vn 0.000000 1.000000 -0.000001
vn 0.000000 1.000000 -0.000001
vn 0.000000 1.000000 -0.000001
vn 0.000000 1.000000 -0.000001
vn 0.000000 1.000000 0.000000
vn 0.000000 1.000000 0.000000
vn 0.000000 1.000000 0.000000
vn 0.000000 1.000000 0.000000
vn 0.000000 1.000000 -0.000000
vn 0.000000 1.000000 -0.000000
vn 0.000000 1.000000 -0.000000
vn 0.000000 1.000000 -0.000000
vn 0.000000 1.000000 0.000000
vn 0.000000 1.000000 0.000000
vn 0.000000 1.000000 0.000000
vn 0.000000 1.000000 0.000000
vn 0.000000 0.000000 1.000000
vn 0.000000 0.000000 1.000000
vn 0.000000 0.000000 1.000000
vn 0.000000 0.000000 1.000000
vn 0.830661 0.556779 0.000000
vn 0.830661 0.556779 0.000000
vn 0.830661 0.556779 0.000000
vn 0.830661 0.556779 0.000000
vn 0.000000 0.562686 -0.826671
vn 0.000000 0.562686 -0.826671
vn 0.000000 0.562686 -0.826671
vn 0.000000 0.562686 -0.826671
vn -0.830672 0.556762 0.000000
vn -0.830672 0.556762 0.000000
vn -0.830672 0.556762 0.000000
vn -0.830672 0.556762 0.000000
vn 0.000000 0.000000 -1.000000
vn 0.000000 0.000000 -1.000000
vn 0.000000 0.000000 -1.000000
vn 0.000000 0.000000 -1.000000
vn 1.000000 0.000000 0.000000
vn 1.000000 0.000000 0.000000
vn 1.000000 0.000000 0.000000
vn 1.000000 0.000000 0.000000
vn 0.000000 0.000000 1.000000
vn 0.000000 0.000000 1.000000
vn 0.000000 0.000000 1.000000
vn 0.000000 0.000000 1.000000
vn -1.000000 0.000000 0.000000
vn -1.000000 0.000000 0.000000
vn -1.000000 0.000000 0.000000
vn -1.000000 0.000000 0.000000
vn 0.000000 0.000000 -1.000000
vn 0.000000 0.000000 -1.000000
vn 0.000000 0.000000 -1.000000
vn 0.000000 0.000000 -1.000000
vn 0.000000 0.000000 -1.000000
vn 0.000000 0.000000 -1.000000
vn 0.000000 0.000000 -1.000000
vn 0.000000 0.000000 -1.000000
vn 0.000000 0.000000 -1.000000
vn 0.000000 0.000000 -1.000000
vn 0.000000 0.000000 -1.000000
vn 0.000000 0.000000 -1.000000
vn -0.000000 0.000000 -1.000000
vn -0.000000 0.000000 -1.000000
vn -0.000000 0.000000 -1.000000
vn -0.000000 0.000000 -1.000000
vn 0.000000 0.000000 -1.000000
vn 0.000000 0.000000 -1.000000
vn 0.000000 0.000000 -1.000000
vn 0.000000 0.000000 -1.000000
vn 0.000000 0.000000 -1.000000
vn 0.000000 0.000000 -1.000000
vn 0.000000 0.000000 -1.000000
vn 0.000000 0.000000 -1.000000
vn 0.000000 0.000000 -1.000000
vn 0.000000 0.000000 -1.000000
vn 0.000000 0.000000 -1.000000
vn 0.000000 0.000000 -1.000000
vn 0.000000 0.000000 -1.000000
vn 0.000000 0.000000 -1.000000
vn 0.000000 0.000000 -1.000000
vn 0.000000 0.000000 -1.000000
vn 0.000000 0.000000 1.000000
vn 0.000000 0.000000 1.000000
vn 0.000000 0.000000 1.000000
vn 0.000000 0.000000 1.000000
vn 0.000000 1.000000 0.000000
vn 0.000000 1.000000 0.000000
vn 0.000000 1.000000 0.000000
vn 0.000000 1.000000 0.000000
vn 0.000000 0.000000 -1.000000
vn 0.000000 0.000000 -1.000000
vn 0.000000 0.000000 -1.000000
vn 0.000000 0.000000 -1.000000
vn 0.000000 -1.000000 0.000000
vn 0.000000 -1.000000 0.000000
vn 0.000000 -1.000000 0.000000
vn 0.000000 -1.000000 0.000000
vn 1.000000 0.000000 0.000000
vn 1.000000 0.000000 0.000000
vn 1.000000 0.000000 0.000000
vn 1.000000 0.000000 0.000000
vn -1.000000 0.000000 0.000000
vn -1.000000 0.000000 0.000000
vn -1.000000 0.000000 0.000000
vn -1.000000 0.000000 0.000000
vn 0.000000 0.000000 1.000000
vn 0.000000 0.000000 1.000000
vn 0.000000 0.000000 1.000000
vn 0.000000 0.000000 1.000000
vn 0.000000 1.000000 0.000000
vn 0.000000 1.000000 0.000000
vn 0.000000 1.000000 0.000000
vn 0.000000 1.000000 0.000000
vn 0.000000 0.000000 -1.000000
vn 0.000000 0.000000 -1.000000
vn 0.000000 0.000000 -1.000000
vn 0.000000 0.000000 -1.000000
vn 0.000000 -1.000000 0.000000
vn 0.000000 -1.000000 0.000000
vn 0.000000 -1.000000 0.000000
vn 0.000000 -1.000000 0.000000
vn 1.000000 0.000000 0.000000
vn 1.000000 0.000000 0.000000
vn 1.000000 0.000000 0.000000
vn 1.000000 0.000000 0.000000
vn -1.000000 0.000000 0.000000
vn -1.000000 0.000000 0.000000
vn -1.000000 0.000000 0.000000
vn -1.000000 0.000000 0.000000
s off
f 1/1/1 2/2/2 27/3/3 28/4/4
f 14/5/5 13/6/6 15/7/7 16/8/8
f 33/9/9 34/10/10 35/11/11 36/12/12
f 7/13/13 8/14/14 2/15/15 1/16/16
f 2/17/17 8/18/18 26/19/19 27/20/20
f 7/21/21 1/22/22 28/23/23 25/24/24
f 21/25/25 22/26/26 23/27/27 24/28/28
f 4/29/29 6/30/30 11/31/31 10/32/32
f 6/33/33 5/34/34 12/35/35 11/36/36
f 5/37/37 3/38/38 9/39/39 12/40/40
f 11/41/41 12/42/42 13/43/43 14/44/44
f 12/45/45 9/46/46 15/47/47 13/48/48
f 9/49/49 10/50/50 16/51/51 15/52/52
f 10/53/53 11/54/54 14/55/55 16/56/56
f 3/57/57 4/58/58 18/59/59 17/60/60
f 4/61/61 10/62/62 19/63/63 18/64/64
f 10/65/65 9/66/66 20/67/67 19/68/68
f 9/69/69 3/70/70 17/71/71 20/72/72
f 17/73/73 18/74/74 22/75/75 21/76/76
f 18/77/77 19/78/78 23/79/79 22/80/80
f 19/81/81 20/82/82 24/83/83 23/84/84
f 20/85/85 17/86/86 21/87/87 24/88/88
f 5/89/89 6/90/90 26/91/91 25/92/92
f 27/93/93 26/94/94 6/95/95 4/96/96
f 28/97/97 27/98/98 4/99/99 3/100/100
f 25/101/101 28/102/102 3/103/103 5/104/104
f 25/105/105 26/106/106 30/107/107 29/108/108
f 26/106/109 8/109/110 31/110/111 30/107/112
f 8/109/113 7/111/114 32/112/115 31/110/116
f 7/111/117 25/105/118 29/108/119 32/112/120
f 29/113/121 30/114/122 34/115/123 33/116/124
f 30/117/125 31/118/126 35/119/127 34/120/128
f 31/121/129 32/122/130 36/123/131 35/124/132
f 32/125/133 29/126/134 33/127/135 36/128/136
f 37/129/137 38/130/138 40/131/139 39/132/140
f 39/133/141 40/134/142 42/135/143 41/136/144
f 41/137/145 42/138/146 44/139/147 43/140/148
f 43/141/149 44/142/150 38/143/151 37/144/152
f 38/145/153 44/146/154 42/147/155 40/148/156
f 43/149/157 37/150/158 39/151/159 41/152/160
f 45/153/161 46/154/162 48/155/163 47/156/164
f 47/157/165 48/158/166 50/159/167 49/160/168
f 49/161/169 50/162/170 52/163/171 51/164/172
f 51/165/173 52/166/174 46/167/175 45/168/176
f 46/169/177 52/170/178 50/171/179 48/172/180
f 51/173/181 45/174/182 47/175/183 49/176/184
v -0.892233 1.243231 0.012182
v -0.870859 1.244174 0.058664
v -0.886311 1.293919 0.008431
v -0.864937 1.294862 0.054913
v -0.408800 1.210394 -0.283199
v -0.331454 1.213806 -0.114991
v -0.413311 1.171786 -0.280342
v -0.335965 1.175198 -0.112133
v -0.569957 1.195382 -0.208792
v -0.565446 1.233990 -0.211649
v -0.488100 1.237402 -0.043440
v -0.492610 1.198794 -0.040583
v -0.566301 1.200777 -0.130117
v -0.561791 1.239385 -0.132974
v -0.545509 1.240103 -0.097565
v -0.550020 1.201495 -0.094708
v -0.726523 1.224912 -0.056932
v -0.722013 1.263520 -0.059790
v -0.705731 1.264238 -0.024381
v -0.710242 1.225630 -0.021524
v -0.742406 1.220662 -0.056254
v -0.736484 1.271350 -0.060005
v -0.715110 1.272293 -0.013523
v -0.721032 1.221605 -0.009772
v -0.533367 1.231223 -0.198399
v -0.477229 1.233699 -0.076312
v -0.363535 1.216573 -0.128244
v -0.419673 1.214097 -0.250330
v -0.424184 1.175488 -0.247473
v -0.368046 1.177965 -0.125387
v -0.481740 1.195091 -0.073455
v -0.537878 1.192615 -0.195541
vt 0.172176 0.063259
vt 0.196903 0.063259
vt 0.232227 0.063259
vt 0.172176 0.063259
vt 0.261092 0.473617
vt 0.296416 0.473617
vt 0.291360 0.473617
vt 0.261092 0.473617
vt 0.227171 0.063259
vt 0.227171 0.063259
vt 0.236366 0.473617
vt 0.236366 0.473617
vt 0.236366 0.473617
vt 0.236366 0.473617
vt 0.232227 0.063259
vt 0.261092 0.473617
vt 0.196903 0.063259
vt 0.296416 0.473617
vt 0.291360 0.473617
vt 0.261092 0.473617
vt 0.172176 0.063259
vt 0.196903 0.063259
vt 0.196903 0.063259
vt 0.172176 0.063259
vt 0.236366 0.473617
vt 0.291360 0.473617
vt 0.236366 0.473617
vt 0.296416 0.473617
vt 0.296416 0.473617
vt 0.236366 0.473617
vt 0.291360 0.473617
vt 0.236366 0.473617
vt 0.236366 0.473617
vt 0.291360 0.473617
vt 0.236366 0.473617
vt 0.296416 0.473617
vt 0.296416 0.473617
vt 0.236366 0.473617
vt 0.291360 0.473617
vt 0.236366 0.473617
vt 0.236366 0.473617
vt 0.291360 0.473617
vt 0.172176 0.063259
vt 0.296416 0.473617
vt 0.232227 0.063259
vt 0.236366 0.473617
vt 0.227171 0.063259
vt 0.172176 0.063259
vt 0.172176 0.063259
vt 0.227171 0.063259
vt 0.172176 0.063259
vt 0.232227 0.063259
vt 0.232227 0.063259
vt 0.172176 0.063259
vt 0.227171 0.063259
vt 0.172176 0.063259
vt 0.172176 0.063259
vt 0.227171 0.063259
vt 0.172176 0.063259
vt 0.227171 0.063259
vt 0.232227 0.063259
vt 0.172176 0.063259
vt 0.172176 0.063259
vt 0.232227 0.063259
vt 0.296416 0.473617
vt 0.172176 0.063259
vt 0.236366 0.473617
vt 0.232227 0.063259
vt 0.236366 0.473617
vt 0.291360 0.473617
vt 0.172176 0.063259
vt 0.227171 0.063259
vt 0.296416 0.473617
vt 0.296416 0.473617
vt 0.296416 0.473617
vt 0.296416 0.473617
vt 0.291360 0.473617
vt 0.291360 0.473617
vt 0.291360 0.473617
vt 0.291360 0.473617
vt 0.322759 0.994643
vt 0.447628 0.994643
vt 0.447628 0.997161
vt 0.322759 0.997161
vt 0.322759 0.997161
vt 0.447628 0.997161
vt 0.447628 0.994643
vt 0.322759 0.994643
vt 0.291360 0.473617
vt 0.291360 0.473617
vt 0.291360 0.473617
vt 0.291360 0.473617
vt 0.291360 0.473617
vt 0.291360 0.473617
vt 0.291360 0.473617
vt 0.291360 0.473617
vt 0.291360 0.473617
vt 0.291360 0.473617
vt 0.291360 0.473617
vt 0.291360 0.473617
vn -0.901180 0.135752 0.411639
vn -0.901180 0.135752 0.411639
vn -0.901180 0.135752 0.411639
vn -0.901180 0.135752 0.411639
vn 0.115729 0.990572 -0.073307
vn 0.115729 0.990572 -0.073307
vn 0.115729 0.990572 -0.073307
vn 0.115729 0.990572 -0.073307
vn 0.901184 -0.135750 -0.411630
vn 0.901184 -0.135750 -0.411630
vn 0.901184 -0.135750 -0.411630
vn 0.901184 -0.135750 -0.411630
vn -0.115729 -0.990572 0.073308
vn -0.115729 -0.990572 0.073308
vn -0.115729 -0.990572 0.073308
vn -0.115729 -0.990572 0.073308
vn 0.417702 0.018428 0.908397
vn 0.417702 0.018428 0.908397
vn 0.417702 0.018428 0.908397
vn 0.417702 0.018428 0.908397
vn -0.417700 -0.018423 -0.908398
vn -0.417700 -0.018423 -0.908398
vn -0.417700 -0.018423 -0.908398
vn -0.417700 -0.018423 -0.908398
vn -0.992202 0.118722 0.037953
vn -0.992202 0.118722 0.037953
vn -0.992202 0.118722 0.037953
vn -0.992202 0.118722 0.037953
vn 0.115730 0.990572 -0.073305
vn 0.115730 0.990572 -0.073305
vn 0.115730 0.990572 -0.073308
vn 0.115730 0.990572 -0.073308
vn -0.676616 0.132650 0.724289
vn -0.676616 0.132650 0.724289
vn -0.676616 0.132650 0.724289
vn -0.676616 0.132650 0.724289
vn -0.115729 -0.990572 0.073306
vn -0.115729 -0.990572 0.073306
vn -0.115729 -0.990572 0.073306
vn -0.115729 -0.990572 0.073306
vn -0.417702 -0.018427 -0.908397
vn -0.417702 -0.018427 -0.908397
vn -0.417702 -0.018427 -0.908397
vn -0.417702 -0.018427 -0.908397
vn 0.115729 0.990572 -0.073303
vn 0.115729 0.990572 -0.073303
vn 0.115730 0.990572 -0.073305
vn 0.115730 0.990572 -0.073305
vn 0.417701 0.018422 0.908398
vn 0.417701 0.018422 0.908398
vn 0.417701 0.018422 0.908398
vn 0.417701 0.018422 0.908398
vn -0.115729 -0.990572 0.073306
vn -0.115729 -0.990572 0.073306
vn -0.115729 -0.990572 0.073305
vn -0.115729 -0.990572 0.073305
vn -0.023605 -0.071039 -0.997194
vn -0.023605 -0.071039 -0.997194
vn -0.023605 -0.071039 -0.997194
vn -0.023605 -0.071039 -0.997194
vn 0.465649 0.854172 -0.231433
vn 0.465649 0.854172 -0.231433
vn 0.465649 0.854172 -0.231433
vn 0.465649 0.854172 -0.231433
vn 0.742435 -0.037241 0.668882
vn 0.742435 -0.037241 0.668882
vn 0.742435 -0.037241 0.668882
vn 0.742435 -0.037241 0.668882
vn 0.253371 -0.962495 -0.096983
vn 0.253371 -0.962495 -0.096983
vn 0.253371 -0.962495 -0.096983
vn 0.253371 -0.962495 -0.096983
vn -0.417702 -0.018422 -0.908397
vn -0.417702 -0.018422 -0.908397
vn -0.417702 -0.018422 -0.908397
vn -0.417702 -0.018422 -0.908397
vn 0.115728 0.990572 -0.073309
vn 0.115728 0.990572 -0.073309
vn 0.115728 0.990572 -0.073309
vn 0.115728 0.990572 -0.073309
vn 0.417702 0.018425 0.908397
vn 0.417702 0.018425 0.908397
vn 0.417702 0.018425 0.908397
vn 0.417702 0.018425 0.908397
vn -0.115728 -0.990572 0.073306
vn -0.115728 -0.990572 0.073306
vn -0.115728 -0.990572 0.073306
vn -0.115728 -0.990572 0.073306
vn 0.115729 0.990572 -0.073305
vn 0.115729 0.990572 -0.073305
vn 0.115729 0.990572 -0.073305
vn 0.115729 0.990572 -0.073305
vn 0.115729 0.990572 -0.073309
vn 0.115729 0.990572 -0.073309
vn 0.115729 0.990572 -0.073309
vn 0.115729 0.990572 -0.073309
vn 0.115727 0.990572 -0.073306
vn 0.115727 0.990572 -0.073306
vn 0.115727 0.990572 -0.073306
vn 0.115727 0.990572 -0.073306
vn 0.115729 0.990572 -0.073305
vn 0.115729 0.990572 -0.073305
vn 0.115729 0.990572 -0.073305
vn 0.115729 0.990572 -0.073305
vn -0.115726 -0.990573 0.073303
vn -0.115726 -0.990573 0.073303
vn -0.115726 -0.990573 0.073303
vn -0.115726 -0.990573 0.073303
vn -0.115729 -0.990572 0.073309
vn -0.115728 -0.990572 0.073309
vn -0.115728 -0.990572 0.073309
vn -0.115729 -0.990572 0.073309
vn -0.115729 -0.990572 0.073310
vn -0.115729 -0.990572 0.073310
vn -0.115729 -0.990572 0.073310
vn -0.115729 -0.990572 0.073310
vn -0.115729 -0.990572 0.073306
vn -0.115729 -0.990572 0.073306
vn -0.115729 -0.990572 0.073306
vn -0.115729 -0.990572 0.073306
s off
f 53/199/185 54/178/186 56/198/187 55/193/188
f 77/257/189 78/258/190 79/259/191 80/260/192
f 57/181/193 58/192/194 60/184/195 59/196/196
f 81/261/197 82/262/198 83/263/199 84/264/200
f 63/206/201 64/208/202 60/187/203 58/188/204
f 59/189/205 61/201/206 62/203/207 57/190/208
f 62/203/209 61/201/210 65/209/211 66/211/212
f 66/212/213 67/213/214 63/205/215 62/204/216
f 67/214/217 68/216/218 64/208/219 63/206/220
f 61/268/221 64/271/222 68/275/223 65/210/224
f 66/211/225 65/209/226 69/217/227 70/243/228
f 70/220/229 71/241/230 67/213/231 66/212/232
f 71/222/233 72/245/234 68/216/235 67/214/236
f 65/276/237 68/215/238 72/246/239 69/218/240
f 70/219/241 69/247/242 73/225/243 74/239/244
f 74/240/245 75/237/246 71/221/247 70/244/248
f 75/238/249 76/233/250 72/224/251 71/242/252
f 69/248/253 72/223/254 76/234/255 73/226/256
f 74/227/257 73/235/258 53/177/259 55/200/260
f 55/179/261 56/191/262 75/229/263 74/228/264
f 54/197/265 76/232/266 75/230/267 56/180/268
f 73/236/269 76/231/270 54/186/271 53/185/272
f 62/204/273 63/205/274 78/250/275 77/249/276
f 63/205/277 58/182/278 79/251/279 78/250/280
f 58/182/281 57/194/282 80/252/283 79/251/284
f 57/194/285 62/204/286 77/249/287 80/252/288
f 59/183/289 60/273/290 82/270/291 81/253/292
f 60/195/293 64/272/294 83/267/295 82/254/296
f 64/207/297 61/269/298 84/266/299 83/255/300
f 61/202/301 59/274/302 81/265/303 84/256/304
