# This file uses centimeters as units for non-parametric coordinates.

v -0.781651 2.032420 0.419516
v 0.781651 2.032420 0.419516
v -0.320850 3.453332 0.266501
v 0.320850 3.453332 0.266501
v -0.320850 3.453849 -0.266501
v 0.320850 3.453849 -0.266501
v -0.781651 2.032420 -0.266501
v 0.781651 2.032420 -0.266501
v -0.320850 2.566551 0.266501
v 0.320850 2.566551 0.266501
v 0.320850 2.566551 -0.266501
v -0.320850 2.566551 -0.266501
v -0.781651 2.368478 0.419516
v 0.781651 2.368478 0.419516
v 0.781651 2.368478 -0.266501
v -0.781649 2.368478 -0.266501
v -0.320850 4.098141 -0.266501
v 0.320850 4.098141 -0.266501
v -0.674582 2.032420 -0.207681
v 0.674583 2.032420 -0.207681
v 0.674583 2.032420 0.362052
v -0.674582 2.032420 0.362052
vt 0.271323 0.085407
vt 0.296050 0.085407
vt 0.331374 0.085407
vt 0.271323 0.085407
vt 0.237177 0.085407
vt 0.237177 0.085407
vt 0.237176 0.085407
vt 0.271323 0.085407
vt 0.271323 0.085407
vt 0.271323 0.085407
vt 0.271323 0.085407
vt 0.271649 0.085407
vt 0.296050 0.085407
vt 0.271649 0.085407
vt 0.237176 0.085407
vt 0.271323 0.085407
vt 0.296050 0.085407
vt 0.296050 0.085407
vt 0.271323 0.085407
vt 0.329749 0.085407
vt 0.296050 0.085407
vt 0.354476 0.085407
vt 0.271323 0.085407
vt 0.329749 0.085407
vt 0.329749 0.085407
vt 0.329749 0.085407
vt 0.354476 0.085407
vt 0.296050 0.085407
vt 0.271323 0.085407
vt 0.271323 0.085407
vt 0.271323 0.085407
vt 0.271649 0.085407
vt 0.331374 0.085407
vt 0.271649 0.085407
vt 0.271649 0.085407
vt 0.331374 0.085407
vt 0.331374 0.085407
vt 0.271649 0.085407
vt 0.329749 0.085407
vt 0.296050 0.085407
vt 0.271323 0.085407
vt 0.329749 0.085407
vt 0.354476 0.085407
vt 0.329749 0.085407
vt 0.296050 0.085407
vt 0.329749 0.085407
vt 0.271323 0.085407
vt 0.354476 0.085407
vt 0.271323 0.085407
vt 0.271323 0.085407
vt 0.176154 0.085407
vt 0.237176 0.085407
vt 0.237176 0.085407
vt 0.237177 0.085407
vt 0.237177 0.085407
vt 0.176154 0.085407
vt 0.176153 0.085407
vt 0.176153 0.085407
vn 0.000000 0.000000 1.000000
vn 0.000000 0.000000 1.000000
vn 0.000000 0.000000 1.000000
vn 0.000000 0.000000 1.000000
vn 0.000000 -1.000000 0.000000
vn 0.000000 -1.000000 0.000000
vn 0.000000 -1.000000 0.000000
vn 0.000000 -1.000000 0.000000
vn 1.000000 0.000000 0.000000
vn 1.000000 0.000000 0.000000
vn 1.000000 0.000000 0.000000
vn 1.000000 0.000000 0.000000
vn -1.000000 0.000000 0.000000
vn -1.000000 0.000000 0.000000
vn -1.000000 0.000000 0.000000
vn -1.000000 0.000000 0.000000
vn 0.000000 0.611343 0.791366
vn 0.000000 0.611343 0.791366
vn 0.000000 0.611343 0.791366
vn 0.000000 0.611343 0.791366
vn 0.394909 0.918720 0.000000
vn 0.394909 0.918720 0.000000
vn 0.394909 0.918720 0.000000
vn 0.394909 0.918720 0.000000
vn -0.394910 0.918720 -0.000000
vn -0.394910 0.918720 -0.000000
vn -0.394910 0.918720 -0.000000
vn -0.394910 0.918720 -0.000000
vn 0.000000 0.000000 1.000000
vn 0.000000 0.000000 1.000000
vn 0.000000 0.000000 1.000000
vn 0.000000 0.000000 1.000000
vn 1.000000 0.000000 0.000000
vn 1.000000 0.000000 0.000000
vn 1.000000 0.000000 0.000000
vn 1.000000 0.000000 0.000000
vn -1.000000 0.000003 -0.000001
vn -1.000000 0.000003 -0.000001
vn -1.000000 0.000003 -0.000001
vn -1.000000 0.000003 -0.000001
vn 0.000000 0.637118 0.770766
vn 0.000000 0.637118 0.770766
vn 0.000000 0.637118 0.770766
vn 0.000000 0.637118 0.770766
vn 1.000000 0.000000 0.000000
vn 1.000000 0.000000 0.000000
vn 1.000000 0.000000 0.000000
vn -1.000000 0.000000 0.000000
vn -1.000000 0.000000 0.000000
vn -1.000000 0.000000 0.000000
vn 0.000000 -1.000000 0.000000
vn 0.000000 -1.000000 0.000000
vn 0.000000 -1.000000 0.000000
vn 0.000000 -1.000000 0.000000
vn 0.000000 -1.000000 0.000000
vn 0.000000 -1.000000 0.000000
vn 0.000000 -1.000000 0.000000
vn 0.000000 -1.000000 0.000000
vn 0.000000 -1.000000 0.000000
vn 0.000000 -1.000000 0.000000
vn 0.000000 -1.000000 0.000000
vn 0.000000 -1.000000 0.000000
vn 0.000000 -1.000000 0.000000
vn 0.000000 -1.000000 0.000000
vn 0.000000 -1.000000 0.000000
vn 0.000000 -1.000000 0.000000
s off
f 9/21/1 10/45/2 4/17/3 3/13/4
f 19/51/5 20/58/6 21/57/7 22/56/8
f 10/23/9 11/50/10 6/9/11 4/4/12
f 12/49/13 9/47/14 3/19/15 5/11/16
f 13/27/17 14/43/18 10/22/19 9/48/20
f 14/44/21 15/42/22 11/24/23 10/46/24
f 16/39/25 13/26/26 9/20/27 12/25/28
f 1/18/29 2/2/30 14/28/31 13/40/32
f 2/16/33 8/8/34 15/30/35 14/29/36
f 7/10/37 1/1/38 13/41/39 16/31/40
f 3/3/41 4/37/42 18/36/43 17/33/44
f 4/12/45 6/34/46 18/32/47
f 5/14/48 3/38/49 17/35/50
f 7/5/51 8/15/52 20/52/53 19/55/54
f 8/15/55 2/7/56 21/53/57 20/52/58
f 2/7/59 1/6/60 22/54/61 21/53/62
f 1/6/63 7/5/64 19/55/65 22/54/66
