# This file uses centimeters as units for non-parametric coordinates.

v -0.600421 0.000000 0.373847
v 0.600426 0.000000 0.373847
v -0.600421 0.057618 0.373847
v 0.600426 0.057618 0.373847
v -0.600421 0.057618 -0.373847
v 0.600426 0.057618 -0.373847
v -0.600421 0.000000 -0.373847
v 0.600426 0.000000 -0.373847
v -0.552966 0.057618 0.320248
v 0.552969 0.057618 0.320248
v 0.552969 0.057618 -0.320248
v -0.552966 0.057618 -0.320248
v -0.509086 0.026343 0.288664
v 0.509089 0.026343 0.288664
v 0.509089 0.026343 -0.288664
v -0.509086 0.026343 -0.288664
vt 0.209002 0.062036
vt 0.233728 0.062036
vt 0.269052 0.062036
vt 0.209002 0.062036
vt 0.233728 0.062036
vt 0.269052 0.062036
vt 0.174855 0.062036
vt 0.233728 0.062036
vt 0.174855 0.062036
vt 0.174855 0.062036
vt 0.209002 0.062036
vt 0.209002 0.062036
vt 0.209002 0.062036
vt 0.209002 0.062036
vt 0.269052 0.062036
vt 0.233728 0.062036
vt 0.233728 0.062036
vt 0.269052 0.062036
vt 0.174855 0.062036
vt 0.233728 0.062036
vt 0.209002 0.062036
vt 0.233728 0.062036
vt 0.233728 0.062036
vt 0.209002 0.062036
vt 0.231400 0.062036
vt 0.204134 0.062036
vt 0.231400 0.062036
vt 0.204134 0.062036
vt 0.269052 0.062036
vt 0.204134 0.062036
vt 0.231400 0.062036
vt 0.204134 0.062036
vt 0.231400 0.062036
vt 0.204134 0.062036
vt 0.231400 0.062036
vt 0.269052 0.062036
vt 0.204134 0.062036
vt 0.269052 0.062036
vt 0.269052 0.062036
vt 0.231400 0.062036
vt 0.231400 0.062036
vt 0.269052 0.062036
vt 0.269052 0.062036
vt 0.204134 0.062036
vt 0.269052 0.062036
vt 0.231400 0.062036
vt 0.269052 0.062036
vt 0.204134 0.062036
vt 0.269052 0.062036
vt 0.269052 0.062036
vt 0.269052 0.062036
vt 0.269052 0.062036
vt 0.269052 0.062036
vt 0.269052 0.062036
vt 0.269052 0.062036
vt 0.269052 0.062036
vn 0.000000 0.000000 1.000000
vn 0.000000 0.000000 1.000000
vn 0.000000 0.000000 1.000000
vn 0.000000 0.000000 1.000000
vn 0.000000 1.000000 0.000000
vn 0.000000 1.000000 0.000000
vn 0.000000 1.000000 0.000000
vn 0.000000 1.000000 0.000000
vn 0.000000 0.000000 -1.000000
vn 0.000000 0.000000 -1.000000
vn 0.000000 0.000000 -1.000000
vn 0.000000 0.000000 -1.000000
vn 0.000000 -1.000000 0.000000
vn 0.000000 -1.000000 0.000000
vn 0.000000 -1.000000 0.000000
vn 0.000000 -1.000000 0.000000
vn 1.000000 0.000000 0.000000
vn 1.000000 0.000000 0.000000
vn 1.000000 0.000000 0.000000
vn 1.000000 0.000000 0.000000
vn -1.000000 0.000000 0.000000
vn -1.000000 0.000000 0.000000
vn -1.000000 0.000000 0.000000
vn -1.000000 0.000000 0.000000
vn 0.000000 1.000000 0.000000
vn 0.000000 1.000000 0.000000
vn 0.000000 1.000000 0.000000
vn 0.000000 1.000000 0.000000
vn 0.000000 1.000000 0.000000
vn 0.000000 1.000000 0.000000
vn 0.000000 1.000000 0.000000
vn 0.000000 1.000000 0.000000
vn 0.000000 1.000000 -0.000000
vn 0.000000 1.000000 -0.000000
vn 0.000000 1.000000 -0.000000
vn 0.000000 1.000000 -0.000000
vn 0.000000 1.000000 0.000000
vn 0.000000 1.000000 0.000000
vn 0.000000 1.000000 0.000000
vn 0.000000 1.000000 0.000000
vn 0.000000 0.710575 -0.703622
vn 0.000000 0.710575 -0.703622
vn 0.000000 0.710575 -0.703622
vn 0.000000 0.710575 -0.703622
vn -0.580414 0.814322 0.000000
vn -0.580414 0.814322 0.000000
vn -0.580414 0.814322 0.000000
vn -0.580414 0.814322 0.000000
vn 0.000000 0.710575 0.703622
vn 0.000000 0.710575 0.703622
vn 0.000000 0.710575 0.703622
vn 0.000000 0.710575 0.703622
vn 0.580403 0.814330 0.000000
vn 0.580403 0.814330 0.000000
vn 0.580403 0.814330 0.000000
vn 0.580403 0.814330 0.000000
s off
f 1/23/1 2/2/2 4/22/3 3/17/4
f 13/29/5 14/42/6 15/38/7 16/36/8
f 5/5/9 6/16/10 8/8/11 7/20/12
f 7/7/13 8/19/14 2/10/15 1/9/16
f 2/21/17 8/11/18 6/12/19 4/4/20
f 7/13/21 1/1/22 3/24/23 5/14/24
f 3/3/25 4/55/26 10/51/27 9/47/28
f 4/15/29 6/54/30 11/50/31 10/45/32
f 6/6/33 5/53/34 12/49/35 11/43/36
f 5/18/37 3/56/38 9/52/39 12/39/40
f 9/25/41 10/46/42 14/41/43 13/33/44
f 10/26/45 11/44/46 15/37/47 14/30/48
f 11/27/49 12/40/50 16/35/51 15/31/52
f 12/28/53 9/48/54 13/34/55 16/32/56
