# This file uses centimeters as units for non-parametric coordinates.

v -0.500000 0.000000 0.035111
v 0.500000 0.000000 0.035111
v -0.500000 1.000000 0.035111
v 0.500000 1.000000 0.035111
v -0.500000 1.000000 -0.035111
v 0.500000 1.000000 -0.035111
v -0.500000 0.000000 -0.035111
v 0.500000 0.000000 -0.035111
v -0.345437 0.154563 0.035111
v 0.345437 0.154563 0.035111
v 0.345437 0.845437 0.035111
v -0.345437 0.845437 0.035111
v -0.318707 0.181294 0.035111
v 0.318707 0.181294 0.035111
v 0.318707 0.818706 0.035111
v -0.318707 0.818706 0.035111
v -0.318707 0.308776 0.035111
v 0.318707 0.308776 0.035111
v -0.143133 0.413448 0.035111
v 0.143133 0.413448 0.035111
v 0.143133 0.714035 0.035111
v -0.143133 0.714035 0.035111
vt 0.271323 0.170767
vt 0.296050 0.170767
vt 0.331374 0.170767
vt 0.271323 0.170767
vt 0.331374 0.170767
vt 0.237177 0.170767
vt 0.237177 0.170767
vt 0.237176 0.170767
vt 0.271323 0.170767
vt 0.271323 0.170767
vt 0.271323 0.170767
vt 0.271323 0.170767
vt 0.331374 0.170767
vt 0.296050 0.170767
vt 0.331374 0.170767
vt 0.237176 0.170767
vt 0.271323 0.170767
vt 0.296050 0.170767
vt 0.296050 0.170767
vt 0.271323 0.170767
vt 0.143677 0.063515
vt 0.296050 0.170767
vt 0.296050 0.170767
vt 0.296050 0.170767
vt 0.296050 0.170767
vt 0.296050 0.170767
vt 0.296050 0.170767
vt 0.143677 0.063515
vt 0.296050 0.170767
vt 0.143677 0.063515
vt 0.296050 0.170767
vt 0.296050 0.170767
vt 0.143677 0.063515
vt 0.296050 0.170767
vt 0.296050 0.170767
vt 0.296050 0.170767
vt 0.203561 0.061796
vt 0.143677 0.063515
vt 0.359631 0.061796
vt 0.359631 0.061796
vt 0.359631 0.061796
vt 0.359631 0.061796
vt 0.359631 0.061796
vt 0.359631 0.061796
vt 0.359631 0.061796
vt 0.359631 0.061796
vt 0.143677 0.063515
vt 0.143677 0.063515
vt 0.143677 0.063515
vt 0.143677 0.063515
vt 0.143677 0.063515
vt 0.143677 0.063515
vt 0.143677 0.063515
vt 0.143677 0.063515
vt 0.143677 0.063515
vt 0.143677 0.063515
vt 0.203561 0.061796
vt 0.143677 0.063515
vt 0.143677 0.063515
vt 0.143677 0.063515
vt 0.203561 0.061796
vt 0.203561 0.061796
vt 0.203561 0.061796
vt 0.203561 0.061796
vt 0.203561 0.061796
vt 0.203561 0.061796
vn 0.000000 0.000000 1.000000
vn 0.000000 0.000000 1.000000
vn 0.000000 0.000000 1.000000
vn 0.000000 0.000000 1.000000
vn 0.000000 1.000000 0.000000
vn 0.000000 1.000000 0.000000
vn 0.000000 1.000000 0.000000
vn 0.000000 1.000000 0.000000
vn 0.000000 -1.000000 0.000000
vn 0.000000 -1.000000 0.000000
vn 0.000000 -1.000000 0.000000
vn 0.000000 -1.000000 0.000000
vn 1.000000 0.000000 0.000000
vn 1.000000 0.000000 0.000000
vn 1.000000 0.000000 0.000000
vn 1.000000 0.000000 0.000000
vn -1.000000 0.000000 0.000000
vn -1.000000 0.000000 0.000000
vn -1.000000 0.000000 0.000000
vn -1.000000 0.000000 0.000000
vn 0.000000 0.000000 1.000000
vn 0.000000 0.000000 1.000000
vn 0.000000 0.000000 1.000000
vn 0.000000 0.000000 1.000000
vn -0.000000 0.000000 1.000000
vn -0.000000 0.000000 1.000000
vn -0.000000 0.000000 1.000000
vn -0.000000 0.000000 1.000000
vn 0.000000 0.000000 1.000000
vn 0.000000 0.000000 1.000000
vn 0.000000 0.000000 1.000000
vn 0.000000 0.000000 1.000000
vn 0.000000 0.000000 1.000000
vn 0.000000 0.000000 1.000000
vn 0.000000 0.000000 1.000000
vn 0.000000 0.000000 1.000000
vn 0.000000 0.000000 1.000000
vn 0.000000 0.000000 1.000000
vn 0.000000 0.000000 1.000000
vn 0.000000 0.000000 1.000000
vn -0.000000 0.000000 1.000000
vn -0.000000 0.000000 1.000000
vn -0.000000 0.000000 1.000000
vn -0.000000 0.000000 1.000000
vn -0.000000 0.000000 1.000000
vn 0.000000 0.000000 1.000000
vn 0.000000 0.000000 1.000000
vn 0.000000 0.000000 1.000000
vn 0.000000 0.000000 1.000000
vn -0.000000 0.000000 1.000000
vn -0.000000 0.000000 1.000000
vn -0.000000 0.000000 1.000000
vn -0.000000 0.000000 1.000000
vn -0.000000 0.000000 1.000000
vn 0.000000 0.000000 1.000000
vn 0.000000 0.000000 1.000000
vn 0.000000 0.000000 1.000000
vn 0.000000 0.000000 1.000000
vn 0.000000 0.000000 1.000000
vn 0.000000 0.000000 1.000000
vn 0.000000 0.000000 1.000000
vn 0.000000 0.000000 1.000000
vn -0.000000 0.000000 1.000000
vn -0.000000 0.000000 1.000000
vn -0.000000 0.000000 1.000000
vn -0.000000 0.000000 1.000000
vn 0.000000 0.000000 1.000000
vn 0.000000 0.000000 1.000000
vn 0.000000 0.000000 1.000000
vn 0.000000 0.000000 1.000000
vn -0.000000 0.000000 1.000000
vn -0.000000 0.000000 1.000000
vn -0.000000 0.000000 1.000000
vn -0.000000 0.000000 1.000000
s off
f 19/37/1 20/57/2 21/61/3 22/62/4
f 3/3/5 4/13/6 6/5/7 5/15/8
f 7/6/9 8/16/10 2/8/11 1/7/12
f 2/17/13 8/9/14 6/10/15 4/4/16
f 7/11/17 1/1/18 3/20/19 5/12/20
f 1/19/21 2/35/22 10/32/23 9/25/24
f 2/2/25 4/34/26 11/29/27 10/22/28
f 4/18/29 3/31/30 12/27/31 11/23/32
f 3/14/33 1/36/34 9/26/35 12/24/36
f 9/21/37 10/59/38 14/56/39 13/53/40
f 10/33/41 11/58/42 15/49/43 18/47/44 14/38/45
f 11/30/46 12/55/47 16/52/48 15/48/49
f 12/28/50 9/60/51 13/54/52 17/50/53 16/51/54
f 13/63/55 14/64/56 18/65/57 17/66/58
f 17/39/59 18/40/60 20/41/61 19/42/62
f 18/40/63 15/43/64 21/44/65 20/41/66
f 15/43/67 16/45/68 22/46/69 21/44/70
f 16/45/71 17/39/72 19/42/73 22/46/74
