# This file uses centimeters as units for non-parametric coordinates.

v -0.158066 0.798385 -0.254035
v 0.158066 0.798385 -0.254035
v -0.158066 1.017197 -0.254035
v 0.158066 1.017197 -0.254035
v -0.158066 1.017197 -0.472847
v 0.158066 1.017197 -0.472847
v -0.158066 0.798385 -0.472847
v 0.158066 0.798385 -0.472847
v 0.120208 1.001237 -0.292575
v -0.120208 1.001237 -0.292575
v -0.120208 0.852027 -0.441785
v 0.120208 0.852027 -0.441785
v 0.166084 0.822793 -0.040562
v -0.166084 0.822793 -0.040562
v -0.166084 0.639070 -0.118757
v 0.166084 0.639070 -0.118757
v 0.488960 0.965194 0.018405
v -0.488960 0.965194 0.018405
v -0.488960 0.236861 -0.283188
v 0.488960 0.236861 -0.283188
v 0.488960 0.922003 0.122708
v -0.488960 0.922003 0.122708
v -0.488960 0.193671 -0.178885
v 0.488960 0.193671 -0.178885
v 0.409985 0.863181 0.098353
v -0.409985 0.863181 0.098353
v -0.409985 0.252490 -0.154528
v 0.409985 0.252490 -0.154528
v 0.120208 1.827619 -0.292575
v -0.120208 1.827619 -0.292575
v -0.120208 1.827619 -0.441785
v 0.120208 1.827619 -0.441785
vt 0.271323 0.473617
vt 0.296050 0.473617
vt 0.331374 0.473617
vt 0.271323 0.473617
vt 0.296050 0.473617
vt 0.331374 0.473617
vt 0.237177 0.473617
vt 0.296050 0.473617
vt 0.237177 0.473617
vt 0.237176 0.473617
vt 0.271323 0.473617
vt 0.271323 0.473617
vt 0.271323 0.473617
vt 0.271323 0.473617
vt 0.331374 0.473617
vt 0.296050 0.473617
vt 0.296050 0.473617
vt 0.331374 0.473617
vt 0.237176 0.473617
vt 0.296050 0.473617
vt 0.271323 0.473617
vt 0.296050 0.473617
vt 0.296050 0.473617
vt 0.271323 0.473617
vt 0.171155 0.060225
vt 0.171155 0.060225
vt 0.171155 0.060225
vt 0.171155 0.060225
vt 0.176172 0.060501
vt 0.176172 0.060501
vt 0.176172 0.060501
vt 0.176172 0.060501
vt 0.176172 0.060501
vt 0.176172 0.060501
vt 0.176172 0.060501
vt 0.176172 0.060501
vt 0.137015 0.060225
vt 0.137015 0.060225
vt 0.137015 0.060225
vt 0.137015 0.060225
vt 0.137015 0.060225
vt 0.137015 0.060225
vt 0.137015 0.060225
vt 0.137015 0.060225
vt 0.137015 0.060225
vt 0.137015 0.060225
vt 0.232928 0.060498
vt 0.232928 0.060498
vt 0.232928 0.060498
vt 0.232928 0.060498
vt 0.206583 0.060501
vt 0.206583 0.060501
vt 0.206583 0.060501
vt 0.206583 0.060501
vt 0.206583 0.060501
vt 0.206583 0.060501
vt 0.206583 0.060501
vt 0.206583 0.060501
vt 0.167426 0.060225
vt 0.167426 0.060225
vt 0.167426 0.060225
vt 0.167426 0.060225
vt 0.137015 0.060225
vt 0.137015 0.060225
vt 0.167426 0.060225
vt 0.167426 0.060225
vt 0.167426 0.060225
vt 0.167426 0.060225
vt 0.167426 0.060225
vt 0.167426 0.060225
vt 0.167426 0.060225
vt 0.167426 0.060225
vt 0.108974 0.445720
vt 0.108974 0.445720
vt 0.108974 0.445720
vt 0.108974 0.445720
vt 0.167426 0.060225
vt 0.167426 0.060225
vt 0.167426 0.060225
vt 0.167426 0.060225
vt 0.214311 0.062642
vt 0.214311 0.062642
vt 0.214311 0.062642
vt 0.214311 0.062642
vt 0.180171 0.062642
vt 0.180171 0.062642
vt 0.180171 0.062642
vt 0.180171 0.062642
vt 0.180171 0.062642
vt 0.180171 0.062642
vt 0.180171 0.062642
vt 0.180171 0.062642
vt 0.214311 0.062642
vt 0.214311 0.062642
vt 0.214311 0.062642
vt 0.214311 0.062642
vn 0.000000 0.000000 1.000000
vn 0.000000 0.000000 1.000000
vn 0.000000 0.000000 1.000000
vn 0.000000 0.000000 1.000000
vn 0.000000 1.000000 0.000000
vn 0.000000 1.000000 0.000000
vn 0.000000 1.000000 0.000000
vn 0.000000 1.000000 0.000000
vn 0.000000 0.000000 -1.000000
vn 0.000000 0.000000 -1.000000
vn 0.000000 0.000000 -1.000000
vn 0.000000 0.000000 -1.000000
vn 0.000000 -1.000000 0.000000
vn 0.000000 -1.000000 0.000000
vn 0.000000 -1.000000 0.000000
vn 0.000000 -1.000000 0.000000
vn 1.000000 0.000000 0.000000
vn 1.000000 0.000000 0.000000
vn 1.000000 0.000000 0.000000
vn 1.000000 0.000000 0.000000
vn -1.000000 0.000000 0.000000
vn -1.000000 0.000000 0.000000
vn -1.000000 0.000000 0.000000
vn -1.000000 0.000000 0.000000
vn 0.000000 0.816125 0.577875
vn 0.000000 0.756538 -0.653950
vn 0.000000 0.756538 -0.653950
vn 0.000000 0.816125 0.577875
vn -0.991413 0.073758 -0.107986
vn -0.991413 0.073758 -0.107986
vn -0.991413 0.073758 -0.107986
vn -0.991413 0.073758 -0.107986
vn 0.991413 0.073758 -0.107986
vn 0.991413 0.073758 -0.107986
vn 0.991413 0.073758 -0.107986
vn 0.991413 0.073758 -0.107986
vn 0.000000 0.382587 -0.923919
vn 0.000000 0.756538 -0.653950
vn 0.000000 0.756538 -0.653950
vn 0.000000 0.382587 -0.923919
vn 0.000000 -0.834897 -0.550406
vn 0.000000 -0.834897 -0.550406
vn 0.000000 -0.834897 -0.550406
vn 0.000000 -0.834897 -0.550406
vn -0.003891 0.384409 -0.923155
vn -0.003891 0.384409 -0.923155
vn -0.003891 0.384409 -0.923155
vn -0.003891 0.384409 -0.923155
vn 0.003891 0.384409 -0.923155
vn 0.003891 0.384409 -0.923155
vn 0.003891 0.384409 -0.923155
vn 0.003891 0.384409 -0.923155
vn 0.000000 0.923920 0.382585
vn 0.000000 0.923920 0.382585
vn 0.000000 0.923920 0.382585
vn 0.000000 0.923920 0.382585
vn 0.000000 0.378418 -0.925635
vn 0.000000 0.378418 -0.925635
vn 0.000000 0.378418 -0.925635
vn 0.000000 0.378418 -0.925635
vn -1.000000 0.000000 0.000000
vn -1.000000 0.000000 0.000000
vn -1.000000 0.000000 0.000000
vn -1.000000 0.000000 0.000000
vn 1.000000 0.000000 0.000000
vn 1.000000 0.000000 0.000000
vn 1.000000 0.000000 0.000000
vn 1.000000 0.000000 0.000000
vn 0.000000 -0.382545 0.923937
vn 0.000000 -0.382545 0.923937
vn 0.000000 -0.382545 0.923937
vn 0.000000 -0.382545 0.923937
vn 0.000000 -0.923920 -0.382585
vn 0.000000 -0.923920 -0.382585
vn 0.000000 -0.923920 -0.382585
vn 0.000000 -0.923920 -0.382585
vn -0.000022 -0.382585 0.923920
vn -0.000022 -0.382585 0.923921
vn -0.000022 -0.382585 0.923920
vn -0.000022 -0.382585 0.923920
vn 0.000022 -0.382585 0.923920
vn 0.000022 -0.382585 0.923920
vn 0.000022 -0.382585 0.923920
vn 0.000022 -0.382585 0.923920
vn 0.000000 -0.382586 0.923920
vn 0.000000 -0.382586 0.923920
vn 0.000000 -0.382586 0.923920
vn 0.000000 -0.382586 0.923920
vn 0.000000 -0.382595 0.923916
vn 0.000000 -0.382595 0.923916
vn 0.000000 -0.382595 0.923916
vn 0.000000 -0.382595 0.923916
vn 0.000000 0.000000 1.000000
vn 0.000000 0.000000 1.000000
vn 0.000000 0.000000 1.000000
vn 0.000000 0.000000 1.000000
vn -1.000000 0.000000 0.000000
vn -1.000000 0.000000 0.000000
vn -1.000000 0.000000 0.000000
vn -1.000000 0.000000 0.000000
vn 1.000000 0.000000 0.000000
vn 1.000000 0.000000 0.000000
vn 1.000000 0.000000 0.000000
vn 1.000000 0.000000 0.000000
vn 0.000000 0.000000 -1.000000
vn 0.000000 0.000000 -1.000000
vn 0.000000 0.000000 -1.000000
vn 0.000000 0.000000 -1.000000
s off
f 1/23/1 2/2/2 4/22/3 3/17/4
f 3/3/5 4/15/6 6/6/7 5/18/8
f 5/5/9 6/16/10 8/8/11 7/20/12
f 7/7/13 8/19/14 2/10/15 1/9/16
f 2/21/17 8/11/18 6/12/19 4/4/20
f 7/13/21 1/1/22 3/24/23 5/14/24
f 10/25/25 14/26/26 13/27/27 9/28/28
f 11/29/29 15/30/30 14/31/31 10/32/32
f 9/33/33 13/34/34 16/35/35 12/36/36
f 17/37/37 13/38/38 14/39/39 18/40/40
f 12/41/41 16/42/42 15/43/43 11/44/44
f 18/40/45 14/39/46 15/43/47 19/45/48
f 20/46/49 16/42/50 13/38/51 17/37/52
f 21/47/53 17/48/54 18/49/55 22/50/56
f 19/45/57 15/43/58 16/42/59 20/46/60
f 22/51/61 18/52/62 19/53/63 23/54/64
f 21/55/65 24/56/66 20/57/67 17/58/68
f 22/59/69 26/60/70 25/61/71 21/62/72
f 23/63/73 19/45/74 20/46/75 24/64/76
f 23/65/77 27/66/78 26/67/79 22/68/80
f 21/69/81 25/70/82 28/71/83 24/72/84
f 27/73/85 28/74/86 25/75/87 26/76/88
f 24/77/89 28/78/90 27/79/91 23/80/92
f 10/81/93 9/82/94 29/83/95 30/84/96
f 11/85/97 10/86/98 30/87/99 31/88/100
f 9/89/101 12/90/102 32/91/103 29/92/104
f 12/93/105 11/94/106 31/95/107 32/96/108
