# This file uses centimeters as units for non-parametric coordinates.

v -0.159119 -0.094231 0.000000
v -0.031900 -0.031900 0.215923
v -0.159119 0.224007 0.000000
v -0.031900 0.031900 0.160586
v 0.159119 0.224007 0.000000
v 0.031900 0.031900 0.160586
v 0.159119 -0.094231 0.000000
v 0.031900 -0.031900 0.215923
v 0.159119 0.224007 0.050808
v -0.159119 0.224007 0.050808
v -0.159119 -0.094231 0.050808
v 0.159119 -0.094231 0.050808
v -0.031900 -0.031900 0.050808
v -0.031900 0.031900 0.050808
v 0.031900 0.031900 0.050808
v 0.031900 -0.031900 0.050808
v 0.049529 0.157710 0.231213
v -0.049530 0.157710 0.231213
v 0.049530 0.157710 0.145295
v -0.049530 0.157710 0.145295
v 0.031900 0.103342 0.160586
v -0.031900 0.103342 0.160586
v -0.031900 0.103342 0.215923
v 0.031900 0.103342 0.215923
v -0.049530 0.103342 0.231213
v -0.049530 0.103342 0.145295
v 0.049530 0.103342 0.145295
v 0.049529 0.103342 0.231213
vt 0.227154 0.478886
vt 0.262478 0.478886
vt 0.228395 0.478886
vt 0.227155 0.478886
vt 0.262478 0.478886
vt 0.168281 0.478886
vt 0.227154 0.478886
vt 0.168281 0.478886
vt 0.168281 0.478886
vt 0.228395 0.478886
vt 0.262478 0.478886
vt 0.227154 0.478886
vt 0.227155 0.478886
vt 0.262478 0.478886
vt 0.168281 0.478886
vt 0.227155 0.478886
vt 0.202428 0.478886
vt 0.227154 0.478886
vt 0.227155 0.478886
vt 0.227155 0.478886
vt 0.262478 0.478886
vt 0.262478 0.478886
vt 0.227155 0.478886
vt 0.227155 0.478886
vt 0.168281 0.478886
vt 0.168281 0.478886
vt 0.227155 0.478886
vt 0.227155 0.478886
vt 0.168281 0.478886
vt 0.262478 0.478886
vt 0.227155 0.478886
vt 0.227155 0.478886
vt 0.262478 0.478886
vt 0.168281 0.478886
vt 0.227155 0.478886
vt 0.195389 0.479360
vt 0.195389 0.479360
vt 0.195389 0.479360
vt 0.195389 0.479360
vt 0.195389 0.479360
vt 0.195389 0.479360
vt 0.195389 0.479360
vt 0.195389 0.479360
vt 0.195389 0.479360
vt 0.195389 0.479360
vt 0.195389 0.479360
vt 0.195389 0.479360
vt 0.195389 0.479360
vt 0.195389 0.479360
vt 0.195389 0.479360
vt 0.195389 0.479360
vt 0.202428 0.478886
vt 0.273838 0.478886
vt 0.224500 0.478886
vt 0.202428 0.478886
vt 0.224500 0.478886
vt 0.226447 0.478886
vt 0.228395 0.478886
vt 0.202428 0.478886
vt 0.224500 0.478886
vt 0.202428 0.478886
vt 0.224500 0.478886
vt 0.202428 0.478886
vt 0.202428 0.478886
vt 0.273838 0.478886
vt 0.273838 0.478886
vt 0.273838 0.478886
vt 0.224500 0.478886
vt 0.202428 0.478886
vt 0.202428 0.478886
vt 0.224500 0.478886
vt 0.224500 0.478886
vt 0.202428 0.478886
vt 0.202428 0.478886
vt 0.224500 0.478886
vt 0.224500 0.478886
vt 0.202428 0.478886
vt 0.202428 0.478886
vt 0.224500 0.478886
vt 0.224500 0.478886
vt 0.202428 0.478886
vt 0.202428 0.478886
vt 0.224500 0.478886
vt 0.224500 0.478886
vt 0.202428 0.478886
vt 0.224500 0.478886
vt 0.202428 0.478886
vt 0.202428 0.478886
vt 0.224500 0.478886
vt 0.224500 0.478886
vt 0.202428 0.478886
vt 0.202428 0.478886
vt 0.224500 0.478886
vt 0.202428 0.478886
vt 0.224500 0.478886
vt 0.224500 0.478886
vt 0.202428 0.478886
vt 0.202428 0.478886
vt 0.224500 0.478886
vt 0.202428 0.478886
vn 0.000000 0.000000 1.000000
vn 0.000000 0.000000 1.000000
vn 0.000000 0.000000 1.000000
vn 0.000000 0.000000 1.000000
vn 0.000000 0.000000 1.000000
vn 0.000000 0.000000 1.000000
vn 0.000000 0.000000 1.000000
vn 0.000000 0.000000 1.000000
vn 0.000000 0.000000 1.000000
vn 0.000000 0.000000 1.000000
vn 0.000000 0.000000 1.000000
vn 0.000000 0.000000 1.000000
vn 0.000000 -0.000000 1.000000
vn 0.000000 -0.000000 1.000000
vn 0.000000 -0.000000 1.000000
vn 0.000000 -0.000000 1.000000
vn 0.000000 1.000000 0.000000
vn 0.000000 1.000000 0.000000
vn 0.000000 1.000000 0.000000
vn 0.000000 1.000000 0.000000
vn 0.000000 1.000000 0.000000
vn 0.000000 1.000000 0.000000
vn 0.000000 1.000000 0.000000
vn 0.000000 1.000000 0.000000
vn -1.000000 0.000000 0.000000
vn -1.000000 0.000000 0.000000
vn -1.000000 0.000000 0.000000
vn -1.000000 0.000000 0.000000
vn 0.000000 -1.000000 0.000000
vn 0.000000 -1.000000 0.000000
vn 0.000000 -1.000000 0.000000
vn 0.000000 -1.000000 0.000000
vn 1.000000 0.000000 0.000000
vn 1.000000 0.000000 0.000000
vn 1.000000 0.000000 0.000000
vn 1.000000 0.000000 0.000000
vn -1.000000 0.000000 0.000000
vn -1.000000 0.000000 0.000000
vn -1.000000 0.000000 0.000000
vn -1.000000 0.000000 0.000000
vn 0.000000 1.000000 0.000000
vn 0.000000 1.000000 0.000000
vn 0.000000 1.000000 0.000000
vn 0.000000 1.000000 0.000000
vn 1.000000 -0.000000 0.000000
vn 1.000000 -0.000000 0.000000
vn 1.000000 -0.000000 0.000000
vn 1.000000 -0.000000 0.000000
vn 0.000000 -1.000000 -0.000000
vn 0.000000 -1.000000 -0.000000
vn 0.000000 -1.000000 -0.000000
vn 0.000000 -1.000000 -0.000000
vn 0.000000 0.000000 1.000000
vn 0.000000 0.000000 1.000000
vn 0.000000 -0.217626 0.976032
vn 0.000000 -0.217626 0.976032
vn 1.000000 0.000000 0.000000
vn 1.000000 0.000000 0.000000
vn 0.953315 -0.301978 0.000000
vn 0.953315 -0.301978 0.000000
vn -1.000000 0.000000 0.000000
vn -1.000000 0.000000 0.000000
vn -0.953315 -0.301978 0.000000
vn -0.953315 -0.301978 0.000000
vn 0.000000 -0.217626 0.976032
vn 0.000000 -0.217626 0.976032
vn 0.000000 -0.104581 0.994516
vn 0.000000 -0.104580 0.994516
vn 0.953315 -0.301978 0.000000
vn 0.953315 -0.301978 0.000000
vn 0.989607 -0.143800 0.000000
vn 0.989607 -0.143800 0.000000
vn 0.000000 -0.388869 -0.921293
vn 0.000000 -0.388869 -0.921293
vn 0.000000 -0.104580 -0.994516
vn 0.000000 -0.104580 -0.994516
vn -0.953315 -0.301978 0.000000
vn -0.953315 -0.301978 0.000000
vn -0.989607 -0.143800 0.000000
vn -0.989607 -0.143800 0.000000
vn 0.000000 0.000000 -1.000000
vn 0.000000 0.000000 -1.000000
vn 0.000000 -0.388869 -0.921293
vn 0.000000 -0.388869 -0.921293
vn -0.989607 -0.143800 0.000000
vn -0.989607 -0.143800 0.000000
vn -1.000000 0.000000 0.000000
vn -1.000000 0.000000 0.000000
vn 0.000000 -0.104580 -0.994516
vn 0.000000 -0.104580 -0.994516
vn 0.000000 0.000000 -1.000000
vn 0.000000 0.000000 -1.000000
vn 0.989607 -0.143800 0.000000
vn 0.989607 -0.143800 0.000000
vn 1.000000 0.000000 0.000000
vn 1.000000 0.000000 0.000000
vn 0.000000 -0.104580 0.994516
vn 0.000000 -0.104581 0.994516
vn 0.000000 0.000000 1.000000
vn 0.000000 0.000000 1.000000
s off
f 10/51/1 11/37/2 13/45/3 14/39/4
f 9/49/5 10/36/6 14/47/7 15/41/8
f 12/48/9 9/40/10 15/46/11 16/43/12
f 11/50/13 12/42/14 16/44/15 13/38/16
f 18/53/17 17/67/18 19/66/19 20/65/20
f 3/2/21 10/22/22 9/21/23 5/14/24
f 1/19/25 11/24/26 10/23/27 3/13/28
f 7/6/29 12/26/30 11/25/31 1/8/32
f 5/4/33 9/20/34 12/27/35 7/16/36
f 14/31/37 13/28/38 2/1/39 4/18/40
f 15/33/41 14/30/42 4/11/43 6/5/44
f 16/35/45 15/32/46 6/12/47 8/7/48
f 13/29/49 16/34/50 8/15/51 2/9/52
f 2/17/53 8/59/54 24/74/55 23/73/56
f 8/10/57 6/57/58 21/95/59 24/75/60
f 4/3/61 2/58/62 23/72/63 22/71/64
f 23/97/65 24/92/66 28/85/67 25/77/68
f 24/93/69 21/68/70 27/89/71 28/84/72
f 21/69/73 22/98/74 26/91/75 27/88/76
f 22/99/77 23/96/78 25/76/79 26/90/80
f 6/52/81 4/100/82 22/70/83 21/94/84
f 26/79/85 25/86/86 18/60/87 20/56/88
f 27/81/89 26/78/90 20/61/91 19/55/92
f 28/83/93 27/80/94 19/62/95 17/54/96
f 25/87/97 28/82/98 17/63/99 18/64/100
