# This file uses centimeters as units for non-parametric coordinates.

v -0.255003 0.000000 0.310267
v 0.255003 0.000000 0.310267
v -0.255003 0.000000 -0.310267
v 0.255003 0.000000 -0.310267
v -0.255003 0.278427 -0.310267
v -0.255003 0.278427 0.310267
v 0.255003 0.278427 0.310267
v 0.255003 0.278427 -0.310267
v -0.269423 0.278427 0.327813
v 0.269423 0.278427 0.327813
v 0.269423 0.332709 0.327813
v -0.269423 0.332709 0.327813
v 0.269423 0.332709 -0.327813
v -0.269423 0.332709 -0.327813
v 0.269423 0.278427 -0.327813
v -0.269423 0.278427 -0.327813
vt 0.167851 0.182188
vt 0.135025 0.182188
vt 0.227290 0.182188
vt 0.292286 0.182188
vt 0.227290 0.182188
vt 0.260116 0.182188
vt 0.167851 0.182188
vt 0.135024 0.182188
vt 0.200677 0.182188
vt 0.135025 0.182188
vt 0.200677 0.182188
vt 0.167851 0.182188
vt 0.200677 0.182188
vt 0.167851 0.182188
vt 0.200677 0.182188
vt 0.135024 0.182188
vt 0.292286 0.182188
vt 0.260116 0.182188
vt 0.292286 0.182188
vt 0.227290 0.182188
vt 0.260116 0.182188
vt 0.292286 0.182188
vt 0.260116 0.182188
vt 0.227290 0.182188
vt 0.227290 0.182188
vt 0.200677 0.182188
vt 0.167851 0.182188
vt 0.200677 0.182188
vt 0.200677 0.182188
vt 0.227290 0.182188
vt 0.200677 0.182188
vt 0.167851 0.182188
vt 0.260116 0.182188
vt 0.260116 0.182188
vt 0.260116 0.182188
vt 0.260116 0.182188
vt 0.227290 0.182188
vt 0.227290 0.182188
vt 0.227290 0.182188
vt 0.227290 0.182188
vt 0.260116 0.182188
vt 0.167851 0.182188
vt 0.227290 0.182188
vt 0.260116 0.182188
vt 0.227290 0.182188
vt 0.260116 0.182188
vt 0.260116 0.182188
vt 0.167851 0.182188
vt 0.260116 0.182188
vt 0.227290 0.182188
vt 0.260116 0.182188
vt 0.227290 0.182188
vt 0.260116 0.182188
vt 0.227290 0.182188
vt 0.260116 0.182188
vt 0.227290 0.182188
vn 0.000000 0.000000 1.000000
vn 0.000000 0.000000 1.000000
vn 0.000000 0.000000 1.000000
vn 0.000000 0.000000 1.000000
vn 0.000000 1.000000 0.000000
vn 0.000000 1.000000 0.000000
vn 0.000000 1.000000 0.000000
vn 0.000000 1.000000 0.000000
vn 0.000000 0.000000 -1.000000
vn 0.000000 0.000000 -1.000000
vn 0.000000 0.000000 -1.000000
vn 0.000000 0.000000 -1.000000
vn 0.000000 -1.000000 0.000000
vn 0.000000 -1.000000 0.000000
vn 0.000000 -1.000000 0.000000
vn 0.000000 -1.000000 0.000000
vn 1.000000 0.000000 0.000000
vn 1.000000 0.000000 0.000000
vn 1.000000 0.000000 0.000000
vn 1.000000 0.000000 0.000000
vn -1.000000 0.000000 0.000000
vn -1.000000 0.000000 0.000000
vn -1.000000 0.000000 0.000000
vn -1.000000 0.000000 0.000000
vn -1.000000 0.000000 0.000000
vn -1.000000 0.000000 0.000000
vn -1.000000 0.000000 0.000000
vn -1.000000 0.000000 0.000000
vn 1.000000 0.000000 0.000000
vn 1.000000 0.000000 0.000000
vn 1.000000 0.000000 0.000000
vn 1.000000 0.000000 0.000000
vn 0.000000 -1.000000 -0.000001
vn 0.000000 -1.000000 -0.000001
vn 0.000000 -1.000000 -0.000001
vn 0.000000 -1.000000 -0.000001
vn 0.000000 -1.000000 0.000001
vn 0.000000 -1.000000 0.000001
vn 0.000000 -1.000000 0.000001
vn 0.000000 -1.000000 0.000001
vn 0.000000 -1.000000 0.000000
vn 0.000000 -1.000000 0.000000
vn 0.000000 -1.000000 0.000000
vn 0.000000 -1.000000 0.000000
vn 0.000000 -1.000000 0.000000
vn 0.000000 -1.000000 0.000000
vn 0.000000 -1.000000 0.000000
vn 0.000000 -1.000000 0.000000
vn 0.000000 0.000000 1.000000
vn 0.000000 0.000000 1.000000
vn 0.000000 0.000000 1.000000
vn 0.000000 0.000000 1.000000
vn 0.000000 0.000000 -1.000000
vn 0.000000 0.000000 -1.000000
vn 0.000000 0.000000 -1.000000
vn 0.000000 0.000000 -1.000000
s off
f 9/33/1 10/53/2 11/21/3 12/23/4
f 12/4/5 11/22/6 13/17/7 14/19/8
f 14/6/9 13/18/10 15/35/11 16/49/12
f 3/8/13 4/10/14 2/2/15 1/16/16
f 10/54/17 15/38/18 13/5/19 11/3/20
f 16/50/21 9/40/22 12/24/23 14/20/24
f 3/14/25 1/1/26 6/27/27 5/42/28
f 2/12/29 4/7/30 8/32/31 7/48/32
f 6/46/33 7/47/34 10/34/35 9/51/36
f 8/44/37 5/41/38 16/36/39 15/55/40
f 7/30/41 8/43/42 15/56/43 10/37/44
f 5/25/45 6/45/46 9/52/47 16/39/48
f 6/28/49 1/15/50 2/11/51 7/29/52
f 3/13/53 5/26/54 8/31/55 4/9/56
