# This file uses centimeters as units for non-parametric coordinates.

v 0.000000 0.000000 0.000000
v 4.000001 0.000000 0.000000
v 0.000000 0.000000 -2.999999
v 4.000001 0.000000 -2.999999
v 0.000000 0.861669 0.000000
v 4.000001 0.861669 0.000000
v 4.000001 2.274260 -2.999999
v 0.000000 2.274260 -2.999999
v 0.239980 0.953341 -0.194689
v 3.760022 0.953341 -0.194689
v 3.760022 2.182587 -2.805310
v 0.239980 2.182587 -2.805310
v 0.239980 0.461364 -0.194689
v 3.760022 0.461364 -0.194689
v 3.760022 1.690611 -2.805310
v 0.239980 1.690611 -2.805310
v 0.000000 0.339716 0.000000
v 0.000000 1.703875 -2.999999
v 4.000001 1.703875 -2.999999
v 4.000001 0.339716 0.000000
v 0.000000 0.168902 0.000000
v 0.000000 0.168902 -2.999999
v 4.000001 0.168902 -2.999999
v 4.000001 0.168902 0.000000
v 2.019406 3.580185 -2.923778
v 1.980596 3.580185 -2.923778
v 2.019406 3.852119 -2.923778
v 1.980596 3.852119 -2.923778
v 2.019406 3.852119 -2.967418
v 1.980596 3.852119 -2.967418
v 2.019406 3.580185 -2.967418
v 1.980596 3.580185 -2.967418
v 0.991097 -0.000004 -2.950748
v 1.078697 -0.000004 -2.950748
v 0.991096 3.862139 -2.950748
v 1.078697 3.862139 -2.950748
v 0.991096 3.862139 -3.049250
v 1.078697 3.862139 -3.049250
v 0.991097 -0.000004 -3.049250
v 1.078697 -0.000004 -3.049250
v 3.008904 -0.000004 -2.950748
v 2.921305 -0.000004 -2.950748
v 3.008905 3.862139 -2.950748
v 2.921305 3.862139 -2.950748
v 3.008905 3.862139 -3.049250
v 2.921305 3.862139 -3.049250
v 3.008904 -0.000004 -3.049250
v 2.921305 -0.000004 -3.049250
v 0.194865 3.788688 -2.922074
v 0.194865 3.934617 -2.922074
v 3.805137 3.788688 -2.922074
v 3.805137 3.934617 -2.922074
v 3.805137 3.788688 -3.077923
v 3.805137 3.934617 -3.077923
v 0.194865 3.788688 -3.077923
v 0.194865 3.934617 -3.077923
v 0.457255 2.543117 -2.912806
v 0.457255 3.666738 -2.912806
v 1.211287 2.543116 -2.912806
v 1.211287 3.666737 -2.912806
v 0.457255 2.543117 -2.874029
v 1.211287 2.543116 -2.874029
v 1.211287 3.666737 -2.874029
v 0.457255 3.666738 -2.874029
v 1.622985 2.543117 -2.912806
v 1.622985 3.666738 -2.912806
v 2.377017 2.543116 -2.912806
v 2.377017 3.666737 -2.912806
v 1.622985 2.543117 -2.874029
v 2.377017 2.543116 -2.874029
v 2.377017 3.666737 -2.874029
v 1.622985 3.666738 -2.874029
v 3.542747 2.543117 -2.912806
v 3.542747 3.666738 -2.912806
v 2.788715 2.543116 -2.912806
v 2.788715 3.666737 -2.912806
v 3.542747 2.543117 -2.874029
v 2.788715 2.543116 -2.874029
v 2.788715 3.666737 -2.874029
v 3.542747 3.666738 -2.874029
v 1.393010 1.690611 -2.805310
v 2.606991 1.690611 -2.805310
v 1.393010 0.461364 -0.194689
v 2.606991 0.461364 -0.194689
v 1.335519 0.461364 -0.194688
v 1.449808 0.461364 -0.194688
v 1.335519 0.953341 -0.194688
v 1.449808 0.953341 -0.194688
v 1.335519 2.182587 -2.805310
v 1.449808 2.182587 -2.805310
v 1.335519 1.690611 -2.805309
v 1.449808 1.690611 -2.805309
v 2.520076 0.461364 -0.194688
v 2.634365 0.461364 -0.194688
v 2.520076 0.953341 -0.194688
v 2.634365 0.953341 -0.194688
v 2.520076 2.182587 -2.805310
v 2.634365 2.182587 -2.805310
v 2.520076 1.690611 -2.805309
v 2.634365 1.690611 -2.805309
vt 0.171581 0.089105
vt 0.171582 0.089105
vt 0.171582 0.089105
vt 0.171581 0.089105
vt 0.237562 0.087104
vt 0.237562 0.087104
vt 0.237562 0.087104
vt 0.237562 0.087104
vt 0.171581 0.089105
vt 0.171582 0.089105
vt 0.171582 0.089105
vt 0.171581 0.089105
vt 0.333422 0.087104
vt 0.333421 0.087104
vt 0.264951 0.087104
vt 0.333421 0.087104
vt 0.333422 0.087104
vt 0.237562 0.087104
vt 0.237562 0.087104
vt 0.264951 0.087104
vt 0.237562 0.087104
vt 0.264951 0.087104
vt 0.237562 0.087104
vt 0.264951 0.087104
vt 0.328754 0.061211
vt 0.328754 0.061211
vt 0.328754 0.061211
vt 0.328754 0.061211
vt 0.240365 0.061211
vt 0.240365 0.061211
vt 0.240365 0.061211
vt 0.240365 0.061211
vt 0.260303 0.062140
vt 0.260303 0.062140
vt 0.260303 0.062140
vt 0.260303 0.062140
vt 0.260303 0.062140
vt 0.260303 0.062140
vt 0.260303 0.062140
vt 0.260303 0.062140
vt 0.197978 0.081701
vt 0.197978 0.081701
vt 0.197978 0.081701
vt 0.197978 0.081701
vt 0.197978 0.081701
vt 0.197978 0.081701
vt 0.197978 0.081701
vt 0.197978 0.081701
vt 0.263959 0.086191
vt 0.263959 0.086191
vt 0.263959 0.086191
vt 0.263959 0.086191
vt 0.263959 0.086191
vt 0.263959 0.086191
vt 0.263959 0.086191
vt 0.263959 0.086191
vt 0.291347 0.086191
vt 0.291347 0.086191
vt 0.291347 0.086191
vt 0.291347 0.086191
vt 0.291347 0.086191
vt 0.291347 0.086191
vt 0.291347 0.086191
vt 0.291347 0.086191
vt 0.200955 0.081733
vt 0.200955 0.081733
vt 0.200955 0.081733
vt 0.200955 0.081733
vt 0.299718 0.086191
vt 0.299718 0.086191
vt 0.299718 0.086191
vt 0.299718 0.086191
vt 0.365699 0.086191
vt 0.365699 0.086191
vt 0.365699 0.086191
vt 0.365699 0.086191
vt 0.365699 0.086191
vt 0.365699 0.086191
vt 0.365699 0.086191
vt 0.365699 0.086191
vt 0.210960 0.081715
vt 0.210960 0.081715
vt 0.210960 0.081715
vt 0.210960 0.081715
vt 0.210960 0.081715
vt 0.210960 0.081715
vt 0.210960 0.081715
vt 0.210960 0.081715
vt 0.446999 0.081728
vt 0.447000 0.081728
vt 0.447000 0.081728
vt 0.446999 0.081728
vt 0.447000 0.081728
vt 0.446999 0.081728
vt 0.447000 0.081728
vt 0.446999 0.081728
vt 0.429297 0.081725
vt 0.429297 0.081725
vt 0.429297 0.081725
vt 0.429297 0.081725
vt 0.429297 0.081725
vt 0.429297 0.081725
vt 0.429297 0.081725
vt 0.429297 0.081725
vt 0.446999 0.081728
vt 0.446999 0.081728
vt 0.446999 0.081728
vt 0.446999 0.081728
vt 0.446999 0.081728
vt 0.446999 0.081728
vt 0.446999 0.081728
vt 0.446999 0.081728
vt 0.429297 0.081725
vt 0.429297 0.081725
vt 0.429297 0.081725
vt 0.429297 0.081725
vt 0.429297 0.081725
vt 0.429297 0.081725
vt 0.429297 0.081725
vt 0.429297 0.081725
vt 0.469423 0.081720
vt 0.469423 0.081720
vt 0.469423 0.081720
vt 0.469423 0.081720
vt 0.416314 0.081718
vt 0.416314 0.081718
vt 0.416314 0.081718
vt 0.416314 0.081718
vt 0.469423 0.081720
vt 0.469423 0.081720
vt 0.469423 0.081720
vt 0.469423 0.081720
vt 0.416314 0.081718
vt 0.416314 0.081718
vt 0.416314 0.081718
vt 0.416314 0.081718
vt 0.485946 0.081720
vt 0.485946 0.081720
vt 0.485946 0.081720
vt 0.485946 0.081720
vt 0.415134 0.081713
vt 0.415134 0.081713
vt 0.415134 0.081713
vt 0.415134 0.081713
vt 0.238104 0.081725
vt 0.238104 0.081725
vt 0.238104 0.081725
vt 0.238104 0.081725
vt 0.238104 0.081725
vt 0.238104 0.081725
vt 0.238104 0.081725
vt 0.238104 0.081725
vt 0.210960 0.081715
vt 0.210960 0.081715
vt 0.210960 0.081715
vt 0.210960 0.081715
vt 0.210960 0.081715
vt 0.210960 0.081715
vt 0.210960 0.081715
vt 0.210960 0.081715
vt 0.238104 0.081725
vt 0.238104 0.081725
vt 0.238104 0.081725
vt 0.238104 0.081725
vt 0.210960 0.081715
vt 0.210960 0.081715
vt 0.210960 0.081715
vt 0.210960 0.081715
vt 0.210960 0.081715
vt 0.210960 0.081715
vt 0.210960 0.081715
vt 0.210960 0.081715
vt 0.238104 0.081725
vt 0.238104 0.081725
vt 0.238104 0.081725
vt 0.238104 0.081725
vt 0.210960 0.081715
vt 0.210960 0.081715
vt 0.210960 0.081715
vt 0.210960 0.081715
vt 0.210960 0.081715
vt 0.210960 0.081715
vt 0.210960 0.081715
vt 0.210960 0.081715
vt 0.365699 0.086191
vt 0.365699 0.086191
vt 0.365699 0.086191
vt 0.365699 0.086191
vt 0.365699 0.086191
vt 0.365699 0.086191
vt 0.365699 0.086191
vt 0.365699 0.086191
vt 0.237562 0.087104
vt 0.299718 0.086191
vt 0.237562 0.087104
vt 0.299718 0.086191
vt 0.299718 0.086191
vt 0.237562 0.087104
vt 0.299718 0.086191
vt 0.237562 0.087104
vt 0.326644 0.086085
vt 0.326644 0.086085
vt 0.326644 0.086085
vt 0.326644 0.086085
vt 0.361968 0.086085
vt 0.361968 0.086085
vt 0.361968 0.086085
vt 0.361968 0.086085
vt 0.326644 0.086085
vt 0.326644 0.086085
vt 0.326644 0.086085
vt 0.326644 0.086085
vt 0.267771 0.086085
vt 0.267771 0.086085
vt 0.267771 0.086085
vt 0.267771 0.086085
vt 0.301918 0.086085
vt 0.301918 0.086085
vt 0.301918 0.086085
vt 0.301918 0.086085
vt 0.301918 0.086085
vt 0.301918 0.086085
vt 0.301918 0.086085
vt 0.301918 0.086085
vt 0.326644 0.086085
vt 0.326644 0.086085
vt 0.326644 0.086085
vt 0.326644 0.086085
vt 0.361968 0.086085
vt 0.361968 0.086085
vt 0.361968 0.086085
vt 0.361968 0.086085
vt 0.326644 0.086085
vt 0.326644 0.086085
vt 0.326644 0.086085
vt 0.326644 0.086085
vt 0.267771 0.086085
vt 0.267771 0.086085
vt 0.267771 0.086085
vt 0.267771 0.086085
vt 0.301918 0.086085
vt 0.301918 0.086085
vt 0.301918 0.086085
vt 0.301918 0.086085
vt 0.301918 0.086085
vt 0.301918 0.086085
vt 0.301918 0.086085
vt 0.301918 0.086085
vn 0.000000 0.000000 1.000000
vn 0.000000 0.000000 1.000000
vn 0.000000 0.000000 1.000000
vn 0.000000 0.000000 1.000000
vn 0.000000 0.904723 0.426001
vn 0.000000 0.904723 0.426001
vn 0.000000 0.904723 0.426001
vn 0.000000 0.904723 0.426001
vn 0.000000 0.000000 -1.000000
vn 0.000000 0.000000 -1.000000
vn 0.000000 0.000000 -1.000000
vn 0.000000 0.000000 -1.000000
vn 0.000000 -1.000000 0.000000
vn 0.000000 -1.000000 0.000000
vn 0.000000 -1.000000 0.000000
vn 0.000000 -1.000000 0.000000
vn 1.000000 0.000000 0.000000
vn 1.000000 0.000000 0.000000
vn 1.000000 0.000000 0.000000
vn 1.000000 0.000000 0.000000
vn -1.000000 0.000000 0.000000
vn -1.000000 0.000000 0.000000
vn -1.000000 0.000000 0.000000
vn -1.000000 0.000000 0.000000
vn 0.000000 0.000000 1.000000
vn 0.000000 0.000000 1.000000
vn 0.000000 0.000000 1.000000
vn 0.000000 0.000000 1.000000
vn 1.000000 0.000000 0.000000
vn 1.000000 0.000000 0.000000
vn 1.000000 0.000000 0.000000
vn 1.000000 0.000000 0.000000
vn 0.000000 0.904723 0.426000
vn 0.000000 0.904723 0.426000
vn 0.000000 0.904723 0.426000
vn 0.000000 0.904723 0.426000
vn -0.000002 0.904723 0.426001
vn -0.000002 0.904723 0.426001
vn -0.000002 0.904723 0.426001
vn -0.000002 0.904723 0.426001
vn 0.000000 0.904721 0.426004
vn 0.000000 0.904721 0.426004
vn 0.000000 0.904721 0.426004
vn 0.000000 0.904721 0.426004
vn 0.000002 0.904723 0.426001
vn 0.000002 0.904723 0.426001
vn 0.000002 0.904723 0.426001
vn 0.000002 0.904723 0.426001
vn 0.000000 0.000000 -1.000000
vn 0.000000 0.000000 -1.000000
vn 0.000000 0.000000 -1.000000
vn 0.000000 0.000000 -1.000000
vn 0.000000 0.000000 -1.000000
vn 0.000000 0.000000 -1.000000
vn -1.000000 0.000000 0.000000
vn -1.000000 0.000000 0.000000
vn -1.000000 0.000000 0.000000
vn -1.000000 0.000000 0.000000
vn 0.000000 0.000000 1.000000
vn 0.000000 0.000000 1.000000
vn 0.000000 0.000000 1.000000
vn 0.000000 0.000000 1.000000
vn 0.000000 0.000000 1.000000
vn 0.000000 0.000000 1.000000
vn 1.000000 0.000000 0.000000
vn 1.000000 0.000000 0.000000
vn 1.000000 0.000000 0.000000
vn 1.000000 0.000000 0.000000
vn -1.000000 0.000000 0.000000
vn -1.000000 0.000000 0.000000
vn -1.000000 0.000000 0.000000
vn -1.000000 0.000000 0.000000
vn 0.000000 0.000000 -1.000000
vn 0.000000 0.000000 -1.000000
vn 0.000000 0.000000 -1.000000
vn 0.000000 0.000000 -1.000000
vn 1.000000 0.000000 0.000000
vn 1.000000 0.000000 0.000000
vn 1.000000 0.000000 0.000000
vn 1.000000 0.000000 0.000000
vn 0.000000 0.000000 1.000000
vn 0.000000 0.000000 1.000000
vn 0.000000 0.000000 1.000000
vn 0.000000 0.000000 1.000000
vn -1.000000 0.000000 0.000000
vn -1.000000 0.000000 0.000000
vn -1.000000 0.000000 0.000000
vn -1.000000 0.000000 0.000000
vn 0.000000 0.000000 -1.000000
vn 0.000000 0.000000 -1.000000
vn 0.000000 0.000000 -1.000000
vn 0.000000 0.000000 -1.000000
vn 0.000000 0.000000 1.000000
vn 0.000000 0.000000 1.000000
vn 0.000000 0.000000 1.000000
vn 0.000000 0.000000 1.000000
vn 0.000000 1.000000 0.000000
vn 0.000000 1.000000 0.000000
vn 0.000000 1.000000 0.000000
vn 0.000000 1.000000 0.000000
vn 0.000000 0.000000 -1.000000
vn 0.000000 0.000000 -1.000000
vn 0.000000 0.000000 -1.000000
vn 0.000000 0.000000 -1.000000
vn 0.000000 -1.000000 0.000000
vn 0.000000 -1.000000 0.000000
vn 0.000000 -1.000000 0.000000
vn 0.000000 -1.000000 0.000000
vn -1.000000 0.000000 0.000000
vn -1.000000 0.000000 0.000000
vn -1.000000 0.000000 0.000000
vn -1.000000 0.000000 0.000000
vn 1.000000 0.000000 0.000000
vn 1.000000 0.000000 0.000000
vn 1.000000 0.000000 0.000000
vn 1.000000 0.000000 0.000000
vn 0.000000 0.000000 1.000000
vn 0.000000 0.000000 1.000000
vn 0.000000 0.000000 1.000000
vn 0.000000 0.000000 1.000000
vn 0.000000 1.000000 0.000000
vn 0.000000 1.000000 0.000000
vn 0.000000 1.000000 0.000000
vn 0.000000 1.000000 0.000000
vn 0.000000 0.000000 -1.000000
vn 0.000000 0.000000 -1.000000
vn 0.000000 0.000000 -1.000000
vn 0.000000 0.000000 -1.000000
vn 0.000000 -1.000000 0.000000
vn 0.000000 -1.000000 0.000000
vn 0.000000 -1.000000 0.000000
vn 0.000000 -1.000000 0.000000
vn 1.000000 0.000000 0.000000
vn 1.000000 0.000000 0.000000
vn 1.000000 0.000000 0.000000
vn 1.000000 0.000000 0.000000
vn -1.000000 -0.000000 0.000000
vn -1.000000 -0.000000 0.000000
vn -1.000000 -0.000000 0.000000
vn -1.000000 -0.000000 0.000000
vn 0.000000 0.000000 1.000000
vn 0.000000 0.000000 1.000000
vn 0.000000 0.000000 1.000000
vn 0.000000 0.000000 1.000000
vn 0.000000 1.000000 0.000000
vn 0.000000 1.000000 0.000000
vn 0.000000 1.000000 0.000000
vn 0.000000 1.000000 0.000000
vn 0.000000 0.000000 -1.000000
vn 0.000000 0.000000 -1.000000
vn 0.000000 0.000000 -1.000000
vn 0.000000 0.000000 -1.000000
vn 0.000000 -1.000000 0.000000
vn 0.000000 -1.000000 0.000000
vn 0.000000 -1.000000 0.000000
vn 0.000000 -1.000000 0.000000
vn -1.000000 0.000000 0.000000
vn -1.000000 0.000000 0.000000
vn -1.000000 0.000000 0.000000
vn -1.000000 0.000000 0.000000
vn 1.000000 -0.000000 0.000000
vn 1.000000 -0.000000 0.000000
vn 1.000000 -0.000000 0.000000
vn 1.000000 -0.000000 0.000000
vn 0.000000 0.000000 1.000000
vn 0.000000 0.000000 1.000000
vn 0.000000 0.000000 1.000000
vn 0.000000 0.000000 1.000000
vn 1.000000 0.000000 0.000000
vn 1.000000 0.000000 0.000000
vn 1.000000 0.000000 0.000000
vn 1.000000 0.000000 0.000000
vn 0.000000 0.000000 -1.000000
vn 0.000000 0.000000 -1.000000
vn 0.000000 0.000000 -1.000000
vn 0.000000 0.000000 -1.000000
vn -1.000000 0.000000 0.000000
vn -1.000000 0.000000 0.000000
vn -1.000000 0.000000 0.000000
vn -1.000000 0.000000 0.000000
vn 0.000000 1.000000 0.000000
vn 0.000000 1.000000 0.000000
vn 0.000000 1.000000 0.000000
vn 0.000000 1.000000 0.000000
vn 0.000000 -1.000000 0.000000
vn 0.000000 -1.000000 0.000000
vn 0.000000 -1.000000 0.000000
vn 0.000000 -1.000000 0.000000
vn 0.000000 0.000000 1.000000
vn 0.000000 0.000000 1.000000
vn 0.000000 0.000000 1.000000
vn 0.000000 0.000000 1.000000
vn -0.000000 0.000000 -1.000000
vn -0.000000 0.000000 -1.000000
vn -0.000000 0.000000 -1.000000
vn -0.000000 0.000000 -1.000000
vn -0.000001 -1.000000 0.000000
vn -0.000001 -1.000000 0.000000
vn -0.000001 -1.000000 0.000000
vn -0.000001 -1.000000 0.000000
vn 1.000000 0.000000 0.000000
vn 1.000000 0.000000 0.000000
vn 1.000000 0.000000 0.000000
vn 1.000000 0.000000 0.000000
vn 0.000001 1.000000 0.000000
vn 0.000001 1.000000 0.000000
vn 0.000001 1.000000 0.000000
vn 0.000001 1.000000 0.000000
vn -1.000000 0.000000 0.000000
vn -1.000000 0.000000 0.000000
vn -1.000000 0.000000 0.000000
vn -1.000000 0.000000 0.000000
vn 0.000000 0.000000 1.000000
vn 0.000000 0.000000 1.000000
vn 0.000000 0.000000 1.000000
vn 0.000000 0.000000 1.000000
vn -0.000000 0.000000 -1.000000
vn -0.000000 0.000000 -1.000000
vn -0.000000 0.000000 -1.000000
vn -0.000000 0.000000 -1.000000
vn -0.000001 -1.000000 0.000000
vn -0.000001 -1.000000 0.000000
vn -0.000001 -1.000000 0.000000
vn -0.000001 -1.000000 0.000000
vn 1.000000 0.000000 0.000000
vn 1.000000 0.000000 0.000000
vn 1.000000 0.000000 0.000000
vn 1.000000 0.000000 0.000000
vn 0.000001 1.000000 0.000000
vn 0.000001 1.000000 0.000000
vn 0.000001 1.000000 0.000000
vn 0.000001 1.000000 0.000000
vn -1.000000 0.000000 0.000000
vn -1.000000 0.000000 0.000000
vn -1.000000 0.000000 0.000000
vn -1.000000 0.000000 0.000000
vn -0.000000 0.000000 1.000000
vn -0.000000 0.000000 1.000000
vn -0.000000 0.000000 1.000000
vn -0.000000 0.000000 1.000000
vn 0.000000 0.000000 -1.000000
vn 0.000000 0.000000 -1.000000
vn 0.000000 0.000000 -1.000000
vn 0.000000 0.000000 -1.000000
vn 0.000001 -1.000000 0.000000
vn 0.000001 -1.000000 0.000000
vn 0.000001 -1.000000 0.000000
vn 0.000001 -1.000000 0.000000
vn -1.000000 0.000000 0.000000
vn -1.000000 0.000000 0.000000
vn -1.000000 0.000000 0.000000
vn -1.000000 0.000000 0.000000
vn -0.000001 1.000000 0.000000
vn -0.000001 1.000000 0.000000
vn -0.000001 1.000000 0.000000
vn -0.000001 1.000000 0.000000
vn 1.000000 0.000000 0.000000
vn 1.000000 0.000000 0.000000
vn 1.000000 0.000000 0.000000
vn 1.000000 0.000000 0.000000
vn 0.000000 0.904723 0.426001
vn 0.000000 0.904723 0.426001
vn 0.000000 0.904723 0.426001
vn 0.000000 0.904723 0.426001
vn 0.000000 0.904723 0.426001
vn 0.000000 0.904723 0.426001
vn 0.000000 0.904723 0.426001
vn 0.000000 0.904723 0.426001
vn 0.000000 0.000000 1.000000
vn 0.000000 0.000000 1.000000
vn 0.000000 0.000000 1.000000
vn 0.000000 0.000000 1.000000
vn 0.000000 0.904723 0.426001
vn 0.000000 0.904723 0.426001
vn 0.000000 0.904723 0.426001
vn 0.000000 0.904723 0.426001
vn 0.000000 -0.000001 -1.000000
vn 0.000000 -0.000001 -1.000000
vn 0.000000 -0.000001 -1.000000
vn 0.000000 -0.000001 -1.000000
vn 0.000000 -0.904723 -0.426001
vn 0.000000 -0.904723 -0.426001
vn 0.000000 -0.904723 -0.426001
vn 0.000000 -0.904723 -0.426001
vn 1.000000 0.000000 0.000000
vn 1.000000 0.000000 0.000000
vn 1.000000 0.000000 0.000000
vn 1.000000 0.000000 0.000000
vn -1.000000 0.000000 0.000000
vn -1.000000 0.000000 0.000000
vn -1.000000 0.000000 0.000000
vn -1.000000 0.000000 0.000000
vn 0.000000 0.000000 1.000000
vn 0.000000 0.000000 1.000000
vn 0.000000 0.000000 1.000000
vn 0.000000 0.000000 1.000000
vn 0.000000 0.904723 0.426001
vn 0.000000 0.904723 0.426001
vn 0.000000 0.904723 0.426001
vn 0.000000 0.904723 0.426001
vn 0.000000 -0.000001 -1.000000
vn 0.000000 -0.000001 -1.000000
vn 0.000000 -0.000001 -1.000000
vn 0.000000 -0.000001 -1.000000
vn 0.000000 -0.904723 -0.426001
vn 0.000000 -0.904723 -0.426001
vn 0.000000 -0.904723 -0.426001
vn 0.000000 -0.904723 -0.426001
vn 1.000000 0.000000 0.000000
vn 1.000000 0.000000 0.000000
vn 1.000000 0.000000 0.000000
vn 1.000000 0.000000 0.000000
vn -1.000000 -0.000000 0.000000
vn -1.000000 -0.000000 0.000000
vn -1.000000 -0.000000 0.000000
vn -1.000000 -0.000000 0.000000
s off
f 1/1/1 2/2/2 24/3/3 21/4/4
f 82/196/5 84/199/6 14/70/7 15/71/8
f 22/9/9 23/10/10 4/11/11 3/12/12
f 3/65/13 4/66/14 2/67/15 1/68/16
f 2/41/17 4/42/18 23/43/19 24/44/20
f 3/45/21 1/46/22 21/47/23 22/48/24
f 20/25/25 17/26/26 21/27/27 24/28/28
f 23/33/29 19/34/30 20/35/31 24/36/32
f 5/188/33 6/74/34 10/191/35 9/76/36
f 6/185/37 7/77/38 11/190/39 10/75/40
f 7/186/41 8/79/42 12/189/43 11/78/44
f 8/187/45 5/73/46 9/192/47 12/80/48
f 9/19/49 10/18/50 14/6/51 84/200/52 83/198/53 13/5/54
f 10/49/55 11/50/56 15/51/57 14/52/58
f 11/21/59 12/23/60 16/8/61 81/193/62 82/195/63 15/7/64
f 12/53/65 9/54/66 13/55/67 16/56/68
f 18/57/69 17/58/70 5/59/71 8/60/72
f 19/15/73 18/24/74 8/22/75 7/20/76
f 20/61/77 19/62/78 7/63/79 6/64/80
f 17/14/81 20/13/82 6/17/83 5/16/84
f 22/37/85 21/38/86 17/39/87 18/40/88
f 23/29/89 22/31/90 18/32/91 19/30/92
f 25/81/93 27/82/94 28/83/95 26/84/96
f 27/82/97 29/85/98 30/86/99 28/83/100
f 29/85/101 31/87/102 32/88/103 30/86/104
f 31/87/105 25/81/106 26/84/107 32/88/108
f 26/84/109 28/83/110 30/86/111 32/88/112
f 31/87/113 29/85/114 27/82/115 25/81/116
f 33/89/117 34/90/118 36/91/119 35/92/120
f 35/92/121 36/91/122 38/93/123 37/94/124
f 37/94/125 38/93/126 40/95/127 39/96/128
f 39/96/129 40/95/130 34/90/131 33/89/132
f 34/97/133 40/98/134 38/99/135 36/100/136
f 39/101/137 33/102/138 35/103/139 37/104/140
f 41/105/141 43/106/142 44/107/143 42/108/144
f 43/106/145 45/109/146 46/110/147 44/107/148
f 45/109/149 47/111/150 48/112/151 46/110/152
f 47/111/153 41/105/154 42/108/155 48/112/156
f 42/113/157 44/114/158 46/115/159 48/116/160
f 47/117/161 45/118/162 43/119/163 41/120/164
f 49/121/165 51/122/166 52/123/167 50/124/168
f 51/125/169 53/126/170 54/127/171 52/128/172
f 53/129/173 55/130/174 56/131/175 54/132/176
f 55/133/177 49/134/178 50/135/179 56/136/180
f 50/137/181 52/138/182 54/139/183 56/140/184
f 55/141/185 53/142/186 51/143/187 49/144/188
f 61/145/189 62/146/190 63/147/191 64/148/192
f 57/149/193 58/150/194 60/151/195 59/152/196
f 57/153/197 59/154/198 62/155/199 61/156/200
f 59/154/201 60/157/202 63/158/203 62/155/204
f 60/157/205 58/159/206 64/160/207 63/158/208
f 58/159/209 57/153/210 61/156/211 64/160/212
f 69/161/213 70/162/214 71/163/215 72/164/216
f 65/165/217 66/166/218 68/167/219 67/168/220
f 65/165/221 67/168/222 70/169/223 69/170/224
f 67/168/225 68/167/226 71/171/227 70/169/228
f 68/167/229 66/166/230 72/172/231 71/171/232
f 66/166/233 65/165/234 69/170/235 72/172/236
f 77/173/237 80/174/238 79/175/239 78/176/240
f 73/177/241 75/178/242 76/179/243 74/180/244
f 73/177/245 77/181/246 78/182/247 75/178/248
f 75/178/249 78/182/250 79/183/251 76/179/252
f 76/179/253 79/183/254 80/184/255 74/180/256
f 74/180/257 80/184/258 77/181/259 73/177/260
f 13/69/261 83/197/262 81/194/263 16/72/264
f 81/194/265 83/197/266 84/199/267 82/196/268
f 85/201/269 86/202/270 88/203/271 87/204/272
f 87/205/273 88/206/274 90/207/275 89/208/276
f 89/209/277 90/210/278 92/211/279 91/212/280
f 91/213/281 92/214/282 86/215/283 85/216/284
f 86/217/285 92/218/286 90/219/287 88/220/288
f 91/221/289 85/222/290 87/223/291 89/224/292
f 93/225/293 94/226/294 96/227/295 95/228/296
f 95/229/297 96/230/298 98/231/299 97/232/300
f 97/233/301 98/234/302 100/235/303 99/236/304
f 99/237/305 100/238/306 94/239/307 93/240/308
f 94/241/309 100/242/310 98/243/311 96/244/312
f 99/245/313 93/246/314 95/247/315 97/248/316
