# This file uses centimeters as units for non-parametric coordinates.

v 6.813644 3.497085 -3.083852
v 0.074455 3.497085 -3.083852
v 6.813644 3.641611 -3.083852
v 0.074455 3.641611 -3.083852
v 6.813644 3.641611 -0.081162
v 0.074455 3.641611 -0.081162
v 6.813644 3.497085 -0.081162
v 0.074455 3.497085 -0.081162
v 6.880696 0.529798 -3.302680
v 0.000000 0.529798 -3.302680
v 6.880696 0.529798 0.137668
v 0.000000 0.529798 0.137668
v 6.880696 0.373047 -3.302680
v 6.880696 0.373047 0.137668
v 0.000000 0.373047 0.137668
v 0.000000 0.373047 -3.302680
v 6.880696 0.373047 -3.165013
v 6.880696 0.373047 0.000001
v 0.000000 0.373047 0.000001
v 0.000000 0.373047 -3.165013
v 6.880696 -0.000000 -3.165013
v 6.880696 -0.000000 0.000001
v 0.000000 0.000000 0.000001
v 0.000000 0.000000 -3.165013
v 5.655837 0.426495 -1.777949
v 0.077770 0.426495 -1.777949
v 5.655837 4.276972 -1.694169
v 0.077770 4.276972 -1.694169
v 5.655837 4.276972 -1.470842
v 0.077770 4.276972 -1.470842
v 5.655837 0.426495 -1.387062
v 0.077770 0.426495 -1.387062
v 5.655837 3.669501 -1.777949
v 5.655837 3.669501 -1.387062
v 0.077770 3.669501 -1.387062
v 0.077770 3.669501 -1.777949
v 6.813637 2.459788 -3.083852
v 0.074455 2.459788 -3.083852
v 6.813637 2.604314 -3.083852
v 0.074455 2.604314 -3.083852
v 6.813637 2.604314 -0.081162
v 0.074455 2.604314 -0.081162
v 6.813637 2.459788 -0.081162
v 0.074455 2.459788 -0.081162
v 6.813637 1.422491 -3.083852
v 0.074455 1.422491 -3.083852
v 6.813637 1.567017 -3.083852
v 0.074455 1.567017 -3.083852
v 6.813637 1.567017 -0.081162
v 0.074455 1.567017 -0.081162
v 6.813637 1.422491 -0.081162
v 0.074455 1.422491 -0.081162
v 5.691508 0.426495 0.071825
v 5.691508 0.426495 -3.236837
v 5.691508 3.719274 0.071825
v 5.691508 3.719274 -3.236837
v 5.585867 3.719274 0.071825
v 5.585867 3.719274 -3.236837
v 5.585867 0.426495 0.071825
v 5.585867 0.426495 -3.236837
v 0.139168 0.426495 0.071825
v 0.139168 0.426495 -3.236837
v 0.139168 3.719188 0.071825
v 0.139168 3.719188 -3.236837
v 0.033526 3.719188 0.071825
v 0.033526 3.719188 -3.236837
v 0.033526 0.426495 0.071825
v 0.033526 0.426495 -3.236837
v 5.661020 3.641611 -3.083853
v 5.661020 3.641611 -0.081162
v 5.661020 3.497085 -0.081162
v 5.661020 3.497085 -3.083853
v 5.636057 2.604314 -3.083852
v 5.636057 2.604314 -0.081162
v 5.636057 2.459788 -0.081162
v 5.636057 2.459788 -3.083852
v 5.615796 1.567017 -3.083852
v 5.615796 1.567017 -0.081162
v 5.615796 1.422491 -0.081162
v 5.615796 1.422491 -3.083852
vt 0.395290 0.062654
vt 0.395290 0.062654
vt 0.467058 0.056958
vt 0.467058 0.056958
vt 0.467058 0.056958
vt 0.467058 0.056958
vt 0.395290 0.062654
vt 0.395290 0.062654
vt 0.330358 0.062654
vt 0.330358 0.062654
vt 0.330358 0.062654
vt 0.330358 0.062654
vt 0.467058 0.056958
vt 0.467058 0.056958
vt 0.467058 0.056958
vt 0.467058 0.056958
vt 0.330358 0.062654
vt 0.330358 0.062654
vt 0.330358 0.062654
vt 0.330358 0.062654
vt 0.402126 0.056958
vt 0.402126 0.056958
vt 0.402126 0.056958
vt 0.402126 0.056958
vt 0.467058 0.056958
vt 0.467058 0.056958
vt 0.467058 0.056958
vt 0.467058 0.056958
vt 0.360168 0.062472
vt 0.360168 0.062472
vt 0.360168 0.062472
vt 0.360168 0.062472
vt 0.360168 0.062472
vt 0.360168 0.062472
vt 0.360168 0.062472
vt 0.360168 0.062472
vt 0.229835 0.062488
vt 0.229836 0.062488
vt 0.229836 0.062488
vt 0.229835 0.062488
vt 0.229836 0.062488
vt 0.229835 0.062488
vt 0.229835 0.062488
vt 0.229836 0.062488
vt 0.367950 0.062854
vt 0.367950 0.062854
vt 0.367950 0.062854
vt 0.367950 0.062854
vt 0.367950 0.062854
vt 0.367950 0.062854
vt 0.367950 0.062854
vt 0.367950 0.062854
vt 0.272679 0.062471
vt 0.272679 0.062471
vt 0.272679 0.062471
vt 0.329285 0.062472
vt 0.329285 0.062472
vt 0.329285 0.062472
vt 0.272679 0.062471
vt 0.272679 0.062471
vt 0.272679 0.062471
vt 0.263147 0.062147
vt 0.263147 0.062147
vt 0.263147 0.062147
vt 0.263147 0.062147
vt 0.272679 0.062471
vt 0.272679 0.062471
vt 0.272679 0.062471
vt 0.272679 0.062471
vt 0.272679 0.062471
vt 0.467058 0.056958
vt 0.467058 0.056958
vt 0.467058 0.056958
vt 0.467058 0.056958
vt 0.467058 0.056958
vt 0.467058 0.056958
vt 0.467058 0.056958
vt 0.467058 0.056958
vt 0.467058 0.056958
vt 0.467058 0.056958
vt 0.467058 0.056958
vt 0.467058 0.056958
vt 0.256312 0.062654
vt 0.256312 0.062654
vt 0.467058 0.056958
vt 0.467058 0.056958
vt 0.467058 0.056958
vt 0.467058 0.056958
vt 0.256312 0.062654
vt 0.256312 0.062654
vt 0.256312 0.062654
vt 0.256312 0.062654
vt 0.467058 0.056958
vt 0.467058 0.056958
vt 0.467058 0.056958
vt 0.467058 0.056958
vt 0.256312 0.062654
vt 0.256312 0.062654
vt 0.297322 0.062501
vt 0.297322 0.062501
vt 0.297322 0.062501
vt 0.297322 0.062501
vt 0.297322 0.062501
vt 0.297322 0.062501
vt 0.297322 0.062501
vt 0.297322 0.062501
vt 0.297322 0.062501
vt 0.297322 0.062501
vt 0.297322 0.062501
vt 0.297322 0.062501
vt 0.297322 0.062501
vt 0.297322 0.062501
vt 0.297322 0.062501
vt 0.297322 0.062501
vt 0.297322 0.062501
vt 0.297322 0.062501
vt 0.297322 0.062501
vt 0.297322 0.062501
vt 0.297322 0.062501
vt 0.297322 0.062501
vt 0.297322 0.062501
vt 0.297322 0.062501
vt 0.263147 0.062147
vt 0.263147 0.062147
vt 0.263147 0.062147
vt 0.263147 0.062147
vt 0.359976 0.058097
vt 0.359976 0.058097
vt 0.359976 0.058097
vt 0.359976 0.058097
vt 0.359976 0.058097
vt 0.359976 0.058097
vt 0.359976 0.058097
vt 0.359976 0.058097
vt 0.424909 0.058097
vt 0.424909 0.058097
vt 0.424909 0.058097
vt 0.424909 0.058097
vt 0.424909 0.058097
vt 0.424909 0.058097
vt 0.424909 0.058097
vt 0.424909 0.058097
vt 0.424909 0.058097
vt 0.424909 0.058097
vt 0.424909 0.058097
vt 0.424909 0.058097
vt 0.424909 0.058097
vt 0.424909 0.058097
vt 0.424909 0.058097
vt 0.424909 0.058097
vt 0.321245 0.062654
vt 0.321245 0.062654
vt 0.321245 0.062654
vt 0.321245 0.062654
vt 0.321245 0.062654
vt 0.321245 0.062654
vt 0.321245 0.062654
vt 0.321245 0.062654
vt 0.321245 0.062654
vt 0.321245 0.062654
vt 0.321245 0.062654
vt 0.321245 0.062654
vt 0.321245 0.062654
vt 0.321245 0.062654
vt 0.321245 0.062654
vt 0.321245 0.062654
vt 0.467058 0.056958
vt 0.292766 0.062501
vt 0.292766 0.062501
vt 0.467058 0.056958
vt 0.395290 0.062654
vt 0.292766 0.062501
vt 0.292766 0.062501
vt 0.395290 0.062654
vt 0.467058 0.056958
vt 0.292766 0.062501
vt 0.292766 0.062501
vt 0.467058 0.056958
vt 0.467058 0.056958
vt 0.292766 0.062501
vt 0.292766 0.062501
vt 0.467058 0.056958
vt 0.467058 0.056958
vt 0.292766 0.062501
vt 0.292766 0.062501
vt 0.467058 0.056958
vt 0.467058 0.056958
vt 0.292766 0.062501
vt 0.292766 0.062501
vt 0.467058 0.056958
vt 0.357698 0.060376
vt 0.357698 0.060376
vt 0.357698 0.060376
vt 0.357698 0.060376
vt 0.357698 0.060376
vt 0.357698 0.060376
vt 0.357698 0.060376
vt 0.357698 0.060376
vt 0.357698 0.060376
vt 0.357698 0.060376
vt 0.357698 0.060376
vt 0.357698 0.060376
vt 0.357698 0.060376
vt 0.357698 0.060376
vt 0.357698 0.060376
vt 0.357698 0.060376
vt 0.357698 0.060376
vt 0.357698 0.060376
vt 0.357698 0.060376
vt 0.357698 0.060376
vt 0.357698 0.060376
vt 0.357698 0.060376
vt 0.357698 0.060376
vt 0.357698 0.060376
vt 0.292766 0.062501
vt 0.292766 0.062501
vt 0.292766 0.062501
vt 0.292766 0.062501
vt 0.292766 0.062501
vt 0.292766 0.062501
vt 0.292766 0.062501
vt 0.292766 0.062501
vt 0.292766 0.062501
vt 0.292766 0.062501
vt 0.292766 0.062501
vt 0.292766 0.062501
vn 0.000000 0.000000 -1.000000
vn -0.000000 0.000000 -1.000000
vn -0.000000 0.000000 -1.000000
vn 0.000000 0.000000 -1.000000
vn 0.000000 1.000000 0.000000
vn 0.000000 1.000000 0.000000
vn 0.000000 1.000000 0.000000
vn 0.000000 1.000000 0.000000
vn 0.000000 0.000000 1.000000
vn 0.000000 0.000000 1.000000
vn 0.000000 0.000000 1.000000
vn 0.000000 0.000000 1.000000
vn 0.000000 -1.000000 0.000000
vn 0.000000 -1.000000 0.000000
vn 0.000000 -1.000000 0.000000
vn 0.000000 -1.000000 0.000000
vn -1.000000 0.000000 0.000000
vn -1.000000 0.000000 0.000000
vn -1.000000 0.000000 0.000000
vn -1.000000 0.000000 0.000000
vn 1.000000 0.000000 0.000000
vn 1.000000 0.000000 0.000000
vn 1.000000 0.000000 0.000000
vn 1.000000 0.000000 0.000000
vn 0.000000 1.000000 0.000000
vn 0.000000 1.000000 0.000000
vn 0.000000 1.000000 0.000000
vn 0.000000 1.000000 0.000000
vn 0.000000 0.000000 1.000000
vn 0.000000 0.000000 1.000000
vn 0.000000 0.000000 1.000000
vn 0.000000 0.000000 1.000000
vn 0.000000 0.000000 -1.000000
vn 0.000000 0.000000 -1.000000
vn 0.000000 0.000000 -1.000000
vn 0.000000 0.000000 -1.000000
vn 0.000000 -1.000000 0.000000
vn 0.000000 -1.000000 0.000000
vn 0.000000 -1.000000 0.000000
vn 0.000000 -1.000000 0.000000
vn 0.000000 -1.000000 0.000000
vn 0.000000 -1.000000 0.000000
vn 0.000000 -1.000000 0.000000
vn 0.000000 -1.000000 0.000000
vn 0.000000 0.000000 1.000000
vn 0.000000 0.000000 1.000000
vn 0.000000 0.000000 1.000000
vn 0.000000 0.000000 1.000000
vn 0.000000 0.000000 -1.000000
vn 0.000000 0.000000 -1.000000
vn 0.000000 0.000000 -1.000000
vn 0.000000 0.000000 -1.000000
vn 1.000000 0.000000 0.000000
vn 1.000000 0.000000 0.000000
vn 1.000000 0.000000 0.000000
vn -1.000000 0.000000 0.000000
vn -1.000000 0.000000 0.000000
vn -1.000000 0.000000 0.000000
vn 1.000000 0.000000 0.000000
vn 1.000000 0.000000 0.000000
vn 1.000000 0.000000 0.000000
vn 1.000000 0.000000 0.000000
vn 1.000000 0.000000 0.000000
vn 1.000000 0.000000 0.000000
vn 1.000000 0.000000 0.000000
vn -1.000000 0.000000 0.000000
vn -1.000000 0.000000 0.000000
vn -1.000000 0.000000 0.000000
vn -1.000000 0.000000 0.000000
vn -1.000000 0.000000 0.000000
vn -1.000000 0.000000 0.000000
vn -1.000000 0.000000 0.000000
vn -1.000000 0.000000 0.000000
vn -1.000000 0.000000 0.000000
vn -1.000000 0.000000 0.000000
vn -1.000000 0.000000 0.000000
vn 1.000000 0.000000 0.000000
vn 1.000000 0.000000 0.000000
vn 1.000000 0.000000 0.000000
vn 1.000000 0.000000 0.000000
vn 0.000000 0.000000 -1.000000
vn 0.000000 0.000000 -1.000000
vn 0.000000 0.000000 -1.000000
vn 0.000000 0.000000 -1.000000
vn 0.000000 1.000000 0.000000
vn 0.000000 1.000000 0.000000
vn 0.000000 1.000000 0.000000
vn 0.000000 1.000000 0.000000
vn 0.000000 0.000000 1.000000
vn 0.000000 0.000000 1.000000
vn 0.000000 0.000000 1.000000
vn 0.000000 0.000000 1.000000
vn 0.000000 -1.000000 -0.000000
vn 0.000000 -1.000000 -0.000000
vn 0.000000 -1.000000 -0.000000
vn 0.000000 -1.000000 -0.000000
vn -1.000000 0.000000 0.000000
vn -1.000000 0.000000 0.000000
vn -1.000000 0.000000 0.000000
vn -1.000000 0.000000 0.000000
vn 1.000000 0.000000 0.000000
vn 1.000000 0.000000 0.000000
vn 1.000000 0.000000 0.000000
vn 1.000000 0.000000 0.000000
vn 1.000000 0.000000 0.000000
vn 1.000000 0.000000 0.000000
vn 1.000000 0.000000 0.000000
vn 1.000000 0.000000 0.000000
vn 0.000000 0.136623 0.990623
vn 0.000000 0.136623 0.990623
vn 0.000000 0.136623 0.990623
vn 0.000000 0.136623 0.990623
vn -1.000000 0.000000 0.000000
vn -1.000000 0.000000 0.000000
vn -1.000000 0.000000 0.000000
vn -1.000000 0.000000 0.000000
vn 0.000000 0.136623 -0.990623
vn 0.000000 0.136623 -0.990623
vn 0.000000 0.136623 -0.990623
vn 0.000000 0.136623 -0.990623
vn 0.000000 0.000000 -1.000000
vn 0.000000 0.000000 -1.000000
vn 0.000000 0.000000 -1.000000
vn 0.000000 0.000000 -1.000000
vn 0.000000 1.000000 0.000000
vn 0.000000 1.000000 0.000000
vn 0.000000 1.000000 0.000000
vn 0.000000 1.000000 0.000000
vn -0.000000 0.000000 1.000000
vn -0.000000 0.000000 1.000000
vn -0.000000 0.000000 1.000000
vn -0.000000 0.000000 1.000000
vn 0.000000 -1.000000 0.000000
vn 0.000000 -1.000000 0.000000
vn 0.000000 -1.000000 0.000000
vn 0.000000 -1.000000 0.000000
vn -1.000000 0.000000 0.000000
vn -1.000000 0.000000 0.000000
vn -1.000000 0.000000 0.000000
vn -1.000000 0.000000 0.000000
vn 1.000000 0.000000 0.000000
vn 1.000000 0.000000 0.000000
vn 1.000000 0.000000 0.000000
vn 1.000000 0.000000 0.000000
vn 0.000000 0.000000 -1.000000
vn 0.000000 0.000000 -1.000000
vn 0.000000 0.000000 -1.000000
vn 0.000000 0.000000 -1.000000
vn 0.000000 1.000000 0.000000
vn 0.000000 1.000000 0.000000
vn 0.000000 1.000000 0.000000
vn 0.000000 1.000000 0.000000
vn 0.000000 0.000000 1.000000
vn 0.000000 0.000000 1.000000
vn 0.000000 0.000000 1.000000
vn 0.000000 0.000000 1.000000
vn 0.000000 -1.000000 0.000000
vn 0.000000 -1.000000 0.000000
vn 0.000000 -1.000000 0.000000
vn 0.000000 -1.000000 0.000000
vn -1.000000 0.000000 0.000000
vn -1.000000 0.000000 0.000000
vn -1.000000 0.000000 0.000000
vn -1.000000 0.000000 0.000000
vn 1.000000 0.000000 0.000000
vn 1.000000 0.000000 0.000000
vn 1.000000 0.000000 0.000000
vn 1.000000 0.000000 0.000000
vn 1.000000 0.000000 0.000000
vn 1.000000 0.000000 0.000000
vn 1.000000 0.000000 0.000000
vn 1.000000 0.000000 0.000000
vn -1.000000 0.000000 0.000000
vn -1.000000 0.000000 0.000000
vn -1.000000 0.000000 0.000000
vn -1.000000 0.000000 0.000000
vn 0.000000 0.000000 -1.000000
vn 0.000000 0.000000 -1.000000
vn 0.000000 0.000000 -1.000000
vn 0.000000 0.000000 -1.000000
vn 0.000000 0.000000 1.000000
vn 0.000000 0.000000 1.000000
vn 0.000000 0.000000 1.000000
vn 0.000000 0.000000 1.000000
vn 0.000000 1.000000 0.000000
vn 0.000000 1.000000 0.000000
vn 0.000000 1.000000 0.000000
vn 0.000000 1.000000 0.000000
vn 1.000000 0.000000 0.000000
vn 1.000000 0.000000 0.000000
vn 1.000000 0.000000 0.000000
vn 1.000000 0.000000 0.000000
vn -1.000000 0.000000 0.000000
vn -1.000000 0.000000 0.000000
vn -1.000000 0.000000 0.000000
vn -1.000000 0.000000 0.000000
vn 0.000000 0.000000 -1.000000
vn 0.000000 0.000000 -1.000000
vn 0.000000 0.000000 -1.000000
vn 0.000000 0.000000 -1.000000
vn 0.000000 0.000000 1.000000
vn 0.000000 0.000000 1.000000
vn 0.000000 0.000000 1.000000
vn 0.000000 0.000000 1.000000
vn 0.000000 1.000000 0.000000
vn 0.000000 1.000000 0.000000
vn 0.000000 1.000000 0.000000
vn 0.000000 1.000000 0.000000
vn 0.000000 1.000000 0.000000
vn 0.000000 1.000000 0.000000
vn 0.000000 1.000000 0.000000
vn 0.000000 1.000000 0.000000
vn 0.000000 0.000000 1.000000
vn 0.000000 0.000000 1.000000
vn 0.000000 0.000000 1.000000
vn 0.000000 0.000000 1.000000
vn 0.000000 -1.000000 0.000000
vn 0.000000 -1.000000 0.000000
vn 0.000000 -1.000000 0.000000
vn 0.000000 -1.000000 0.000000
vn -0.000000 0.000000 -1.000000
vn -0.000000 0.000000 -1.000000
vn -0.000000 0.000000 -1.000000
vn -0.000000 0.000000 -1.000000
vn 0.000000 1.000000 0.000000
vn 0.000000 1.000000 0.000000
vn 0.000000 1.000000 0.000000
vn 0.000000 1.000000 0.000000
vn -0.000000 0.000000 1.000000
vn -0.000000 0.000000 1.000000
vn 0.000000 0.000000 1.000000
vn 0.000000 0.000000 1.000000
vn 0.000000 -1.000000 0.000000
vn 0.000000 -1.000000 0.000000
vn 0.000000 -1.000000 0.000000
vn 0.000000 -1.000000 0.000000
vn 0.000000 0.000000 -1.000000
vn 0.000000 0.000000 -1.000000
vn 0.000000 0.000000 -1.000000
vn 0.000000 0.000000 -1.000000
vn 0.000000 1.000000 0.000000
vn 0.000000 1.000000 0.000000
vn 0.000000 1.000000 0.000000
vn 0.000000 1.000000 0.000000
vn 0.000000 0.000000 1.000000
vn 0.000000 0.000000 1.000000
vn 0.000000 0.000000 1.000000
vn 0.000000 0.000000 1.000000
vn 0.000000 -1.000000 0.000000
vn 0.000000 -1.000000 0.000000
vn 0.000000 -1.000000 0.000000
vn 0.000000 -1.000000 0.000000
vn 0.000000 0.000000 -1.000000
vn 0.000000 0.000000 -1.000000
vn 0.000000 0.000000 -1.000000
vn 0.000000 0.000000 -1.000000
s off
f 1/191/1 72/192/2 69/193/3 3/194/4
f 3/3/5 69/167/6 70/170/7 5/6/8
f 5/195/9 70/196/10 71/197/11 7/198/12
f 7/8/13 71/171/14 72/174/15 1/1/16
f 2/100/17 8/105/18 6/104/19 4/101/20
f 7/106/21 1/99/22 3/102/23 5/103/24
f 9/13/25 10/14/26 12/15/27 11/16/28
f 11/29/29 12/30/30 15/31/31 14/32/32
f 13/33/33 16/34/34 10/35/35 9/36/36
f 14/37/37 15/38/38 19/39/39 18/40/40
f 16/41/41 13/42/42 17/43/43 20/44/44
f 18/45/45 19/46/46 23/47/47 22/48/48
f 20/49/49 17/50/50 21/51/51 24/52/52
f 9/53/53 17/54/54 13/55/55
f 20/56/56 10/57/57 16/58/58
f 11/59/59 14/60/60 18/61/61
f 17/62/62 18/63/63 22/64/64 21/65/65
f 19/123/66 20/124/67 24/125/68 23/126/69
f 12/66/70 19/67/71 15/68/72
f 12/66/73 10/69/74 20/70/75 19/67/76
f 11/59/77 18/61/78 17/54/79 9/53/80
f 25/9/81 26/10/82 36/11/83 33/12/84
f 27/21/85 28/22/86 30/23/87 29/24/88
f 34/17/89 35/18/90 32/19/91 31/20/92
f 31/20/93 32/19/94 26/10/95 25/9/96
f 26/10/97 32/19/98 35/18/99 36/11/100
f 34/17/101 31/20/102 25/9/103 33/12/104
f 29/83/105 34/84/106 33/89/107 27/90/108
f 29/127/109 30/128/110 35/129/111 34/130/112
f 36/91/113 35/92/114 30/97/115 28/98/116
f 33/131/117 36/132/118 28/133/119 27/134/120
f 37/199/121 76/200/122 73/201/123 39/202/124
f 39/25/125 73/175/126 74/178/127 41/28/128
f 41/203/129 74/204/130 75/205/131 43/206/132
f 43/71/133 75/179/134 76/182/135 37/74/136
f 38/108/137 44/113/138 42/112/139 40/109/140
f 43/114/141 37/107/142 39/110/143 41/111/144
f 45/207/145 80/208/146 77/209/147 47/210/148
f 47/75/149 77/183/150 78/186/151 49/78/152
f 49/211/153 78/212/154 79/213/155 51/214/156
f 51/79/157 79/187/158 80/190/159 45/82/160
f 46/116/161 52/121/162 50/120/163 48/117/164
f 51/122/165 45/115/166 47/118/167 49/119/168
f 53/151/169 54/152/170 56/153/171 55/154/172
f 57/155/173 58/156/174 60/157/175 59/158/176
f 54/135/177 60/136/178 58/137/179 56/138/180
f 59/139/181 53/140/182 55/141/183 57/142/184
f 55/85/185 56/86/186 58/87/187 57/88/188
f 61/159/189 62/160/190 64/161/191 63/162/192
f 65/163/193 66/164/194 68/165/195 67/166/196
f 62/143/197 68/144/198 66/145/199 64/146/200
f 67/147/201 61/148/202 63/149/203 65/150/204
f 63/93/205 64/94/206 66/95/207 65/96/208
f 70/170/209 69/167/210 4/4/211 6/5/212
f 71/168/213 70/169/214 6/172/215 8/173/216
f 72/174/217 71/171/218 8/7/219 2/2/220
f 4/176/221 69/177/222 72/180/223 2/181/224
f 74/178/225 73/175/226 40/26/227 42/27/228
f 75/184/229 74/185/230 42/188/231 44/189/232
f 76/182/233 75/179/234 44/72/235 38/73/236
f 40/215/237 73/216/238 76/217/239 38/218/240
f 78/186/241 77/183/242 48/76/243 50/77/244
f 79/219/245 78/220/246 50/221/247 52/222/248
f 80/190/249 79/187/250 52/80/251 46/81/252
f 48/223/253 77/224/254 80/225/255 46/226/256
