# This file uses centimeters as units for non-parametric coordinates.

v -0.229117 0.000000 0.183051
v -0.024568 0.000000 0.183051
v -0.229117 0.158069 0.183051
v -0.024568 0.158069 0.183051
v -0.229117 0.158069 -0.183052
v -0.024568 0.158069 -0.183052
v -0.229117 0.000000 -0.183052
v -0.024568 0.000000 -0.183052
v -0.229117 0.158069 -0.010794
v -0.024568 0.158069 -0.010794
v -0.229117 0.249575 -0.010794
v -0.024568 0.249575 -0.010794
v -0.024568 0.249575 -0.183052
v -0.229117 0.249575 -0.183052
v -0.193967 0.249575 -0.045618
v -0.059716 0.249575 -0.045618
v -0.059716 0.249575 -0.148829
v -0.193967 0.249575 -0.148829
v -0.193967 0.092587 -0.045618
v -0.059716 0.092587 -0.045618
v -0.059716 0.092587 -0.148829
v -0.193967 0.092587 -0.148829
v 0.024568 0.000000 0.183051
v 0.229117 0.000000 0.183051
v 0.024568 0.158069 0.183051
v 0.229117 0.158069 0.183051
v 0.024568 0.158069 -0.183052
v 0.229117 0.158069 -0.183052
v 0.024568 0.000000 -0.183052
v 0.229117 0.000000 -0.183052
v 0.024568 0.158069 -0.010794
v 0.229117 0.158069 -0.010794
v 0.024568 0.249575 -0.010794
v 0.229117 0.249575 -0.010794
v 0.229117 0.249575 -0.183052
v 0.024568 0.249575 -0.183052
v 0.059717 0.249575 -0.045618
v 0.193969 0.249575 -0.045618
v 0.193969 0.249575 -0.148829
v 0.059717 0.249575 -0.148829
v 0.059717 0.092587 -0.045618
v 0.193969 0.092587 -0.045618
v 0.193969 0.092587 -0.148829
v 0.059717 0.092587 -0.148829
vt 0.267141 0.401866
vt 0.234315 0.401866
vt 0.267141 0.401866
vt 0.332137 0.401866
vt 0.299967 0.401866
vt 0.267141 0.401866
vt 0.234315 0.401866
vt 0.299968 0.401866
vt 0.234315 0.401866
vt 0.299968 0.401866
vt 0.267141 0.401866
vt 0.299967 0.401866
vt 0.267141 0.401866
vt 0.299967 0.401866
vt 0.234315 0.401866
vt 0.299968 0.401866
vt 0.267141 0.401866
vt 0.299968 0.401866
vt 0.332137 0.401866
vt 0.299967 0.401866
vt 0.267141 0.401866
vt 0.332137 0.401866
vt 0.332137 0.401866
vt 0.332137 0.401866
vt 0.332137 0.401866
vt 0.332137 0.401866
vt 0.332137 0.401866
vt 0.332137 0.401866
vt 0.332137 0.401866
vt 0.332137 0.401866
vt 0.332137 0.401866
vt 0.142200 0.061345
vt 0.175992 0.061345
vt 0.206227 0.061345
vt 0.175992 0.061345
vt 0.269414 0.399702
vt 0.269414 0.399702
vt 0.269414 0.399702
vt 0.269414 0.399702
vt 0.269414 0.399702
vt 0.269414 0.399702
vt 0.298221 0.401561
vt 0.298221 0.401561
vt 0.298221 0.401561
vt 0.298221 0.401561
vt 0.298221 0.401561
vt 0.298221 0.401561
vt 0.298221 0.401561
vt 0.298221 0.401561
vt 0.206227 0.061345
vt 0.175992 0.061345
vt 0.206227 0.061345
vt 0.175992 0.061345
vt 0.267141 0.401866
vt 0.299967 0.401866
vt 0.299968 0.401866
vt 0.299968 0.401866
vt 0.299967 0.401866
vt 0.142200 0.061345
vt 0.175992 0.061345
vt 0.206227 0.061345
vt 0.175992 0.061345
vt 0.299967 0.401866
vt 0.299968 0.401866
vt 0.299968 0.401866
vt 0.299967 0.401866
vt 0.234315 0.401866
vt 0.234315 0.401866
vt 0.234315 0.401866
vt 0.234315 0.401866
vt 0.269414 0.399702
vt 0.267141 0.401866
vt 0.267141 0.401866
vt 0.267141 0.401866
vt 0.332137 0.401866
vt 0.332137 0.401866
vt 0.332137 0.401866
vt 0.332137 0.401866
vt 0.298221 0.401561
vt 0.298221 0.401561
vt 0.298221 0.401561
vt 0.298221 0.401561
vt 0.269414 0.399702
vt 0.269414 0.399702
vt 0.269414 0.399702
vt 0.267141 0.401866
vt 0.267141 0.401866
vt 0.298221 0.401561
vt 0.298221 0.401561
vt 0.298221 0.401561
vt 0.298221 0.401561
vt 0.332137 0.401866
vt 0.332137 0.401866
vt 0.332137 0.401866
vt 0.332137 0.401866
vt 0.332137 0.401866
vt 0.332137 0.401866
vt 0.332137 0.401866
vt 0.332137 0.401866
vt 0.206227 0.061345
vt 0.175992 0.061345
vt 0.206227 0.061345
vt 0.175992 0.061345
vt 0.267141 0.401866
vt 0.269414 0.399702
vt 0.269414 0.399702
vt 0.267141 0.401866
vt 0.267141 0.401866
vt 0.267141 0.401866
vt 0.267141 0.401866
vt 0.269414 0.399702
vt 0.267141 0.401866
vt 0.206227 0.061345
vt 0.175992 0.061345
vt 0.206227 0.061345
vt 0.142200 0.061345
vt 0.175992 0.061345
vt 0.142200 0.061345
vt 0.332137 0.401866
vt 0.206227 0.061345
vt 0.206227 0.061345
vt 0.142200 0.061345
vt 0.332137 0.401866
vt 0.175992 0.061345
vt 0.332137 0.401866
vt 0.206227 0.061345
vt 0.332137 0.401866
vt 0.175992 0.061345
vt 0.332137 0.401866
vt 0.332137 0.401866
vt 0.332137 0.401866
vt 0.332137 0.401866
vt 0.267141 0.401866
vt 0.267141 0.401866
vt 0.269414 0.399702
vt 0.267141 0.401866
vt 0.206227 0.061345
vt 0.175992 0.061345
vt 0.206227 0.061345
vt 0.142200 0.061345
vt 0.175992 0.061345
vt 0.142200 0.061345
vt 0.332137 0.401866
vt 0.206227 0.061345
vt 0.206227 0.061345
vt 0.142200 0.061345
vt 0.332137 0.401866
vt 0.175992 0.061345
vt 0.332137 0.401866
vt 0.206227 0.061345
vt 0.332137 0.401866
vt 0.175992 0.061345
vt 0.332137 0.401866
vt 0.332137 0.401866
vt 0.332137 0.401866
vt 0.332137 0.401866
vn 0.000000 0.000000 1.000000
vn 0.000000 0.000000 1.000000
vn 0.000000 0.000000 1.000000
vn 0.000000 0.000000 1.000000
vn 0.000000 1.000000 0.000000
vn 0.000000 1.000000 0.000000
vn 0.000000 1.000000 0.000000
vn 0.000000 1.000000 0.000000
vn 0.000000 0.000000 -1.000000
vn 0.000000 0.000000 -1.000000
vn 0.000000 0.000000 -1.000000
vn 0.000000 0.000000 -1.000000
vn 0.000000 -1.000000 0.000000
vn 0.000000 -1.000000 0.000000
vn 0.000000 -1.000000 0.000000
vn 0.000000 -1.000000 0.000000
vn -1.000000 0.000000 0.000000
vn -1.000000 0.000000 0.000000
vn -1.000000 0.000000 0.000000
vn -1.000000 0.000000 0.000000
vn 0.000000 1.000000 0.000000
vn 0.000000 1.000000 0.000000
vn 0.000000 1.000000 0.000000
vn 0.000000 1.000000 0.000000
vn 0.000000 0.000000 1.000000
vn 0.000000 0.000000 1.000000
vn 0.000000 0.000000 1.000000
vn 0.000000 0.000000 1.000000
vn 1.000000 0.000000 0.000000
vn 1.000000 0.000000 0.000000
vn 1.000000 0.000000 0.000000
vn 1.000000 0.000000 0.000000
vn 1.000000 0.000000 0.000000
vn 0.000000 0.000000 -1.000000
vn 0.000000 0.000000 -1.000000
vn 0.000000 0.000000 -1.000000
vn 0.000000 0.000000 -1.000000
vn 0.000000 1.000000 -0.000000
vn 0.000000 1.000000 -0.000000
vn 0.000000 1.000000 -0.000000
vn 0.000000 1.000000 -0.000000
vn 0.000000 1.000000 0.000000
vn 0.000000 1.000000 0.000000
vn 0.000000 1.000000 0.000000
vn 0.000000 1.000000 0.000000
vn 0.000000 1.000000 0.000000
vn 0.000000 1.000000 0.000000
vn 0.000000 1.000000 0.000000
vn 0.000000 1.000000 0.000000
vn 0.000000 1.000000 0.000000
vn 0.000000 1.000000 0.000000
vn 0.000000 1.000000 0.000000
vn 0.000000 1.000000 0.000000
vn 0.000000 0.000000 -1.000000
vn 0.000000 0.000000 -1.000000
vn 0.000000 0.000000 -1.000000
vn 0.000000 0.000000 -1.000000
vn -1.000000 0.000000 0.000000
vn -1.000000 0.000000 0.000000
vn -1.000000 0.000000 0.000000
vn -1.000000 0.000000 0.000000
vn 0.000000 0.000000 1.000000
vn 0.000000 0.000000 1.000000
vn 0.000000 0.000000 1.000000
vn 0.000000 0.000000 1.000000
vn 1.000000 0.000000 0.000000
vn 1.000000 0.000000 0.000000
vn 1.000000 0.000000 0.000000
vn 1.000000 0.000000 0.000000
vn -1.000000 0.000000 0.000000
vn -1.000000 0.000000 0.000000
vn -1.000000 0.000000 0.000000
vn -1.000000 0.000000 0.000000
vn -1.000000 0.000000 0.000000
vn 1.000000 0.000000 0.000000
vn 1.000000 0.000000 0.000000
vn 1.000000 0.000000 0.000000
vn 1.000000 0.000000 0.000000
vn 0.000000 0.000000 1.000000
vn 0.000000 0.000000 1.000000
vn 0.000000 0.000000 1.000000
vn 0.000000 0.000000 1.000000
vn 0.000000 1.000000 0.000000
vn 0.000000 1.000000 0.000000
vn 0.000000 1.000000 0.000000
vn 0.000000 1.000000 0.000000
vn 0.000000 0.000000 -1.000000
vn 0.000000 0.000000 -1.000000
vn 0.000000 0.000000 -1.000000
vn 0.000000 0.000000 -1.000000
vn 0.000000 -1.000000 0.000000
vn 0.000000 -1.000000 0.000000
vn 0.000000 -1.000000 0.000000
vn 0.000000 -1.000000 0.000000
vn -1.000000 -0.000000 0.000000
vn -1.000000 -0.000000 0.000000
vn -1.000000 -0.000000 0.000000
vn -1.000000 -0.000000 0.000000
vn 0.000000 1.000000 0.000000
vn 0.000000 1.000000 0.000000
vn 0.000000 1.000000 0.000000
vn 0.000000 1.000000 0.000000
vn 0.000000 0.000000 1.000000
vn 0.000000 0.000000 1.000000
vn 0.000000 0.000000 1.000000
vn 0.000000 0.000000 1.000000
vn 1.000000 0.000000 0.000000
vn 1.000000 0.000000 0.000000
vn 1.000000 0.000000 0.000000
vn 1.000000 0.000000 0.000000
vn 1.000000 0.000000 0.000000
vn 0.000000 0.000000 -1.000000
vn 0.000000 0.000000 -1.000000
vn 0.000000 0.000000 -1.000000
vn 0.000000 0.000000 -1.000000
vn 0.000000 1.000000 0.000000
vn 0.000000 1.000000 0.000000
vn 0.000000 1.000000 0.000000
vn 0.000000 1.000000 0.000000
vn 0.000000 1.000000 0.000000
vn 0.000000 1.000000 0.000000
vn 0.000000 1.000000 0.000000
vn 0.000000 1.000000 0.000000
vn 0.000000 1.000000 0.000000
vn 0.000000 1.000000 0.000000
vn 0.000000 1.000000 0.000000
vn 0.000000 1.000000 0.000000
vn 0.000000 1.000000 0.000000
vn 0.000000 1.000000 0.000000
vn 0.000000 1.000000 0.000000
vn 0.000000 1.000000 0.000000
vn 0.000000 0.000000 -1.000000
vn 0.000000 0.000000 -1.000000
vn 0.000000 0.000000 -1.000000
vn 0.000000 0.000000 -1.000000
vn -1.000000 0.000000 0.000000
vn -1.000000 0.000000 0.000000
vn -1.000000 0.000000 0.000000
vn -1.000000 0.000000 0.000000
vn 0.000000 0.000000 1.000000
vn 0.000000 0.000000 1.000000
vn 0.000000 0.000000 1.000000
vn 0.000000 0.000000 1.000000
vn 1.000000 0.000000 0.000000
vn 1.000000 0.000000 0.000000
vn 1.000000 0.000000 0.000000
vn 1.000000 0.000000 0.000000
vn -1.000000 0.000000 0.000000
vn -1.000000 -0.000000 0.000000
vn -1.000000 -0.000000 0.000000
vn -1.000000 0.000000 0.000000
vn -1.000000 0.000000 0.000000
vn 1.000000 0.000000 0.000000
vn 1.000000 0.000000 0.000000
vn 1.000000 0.000000 0.000000
vn 1.000000 0.000000 0.000000
s off
f 1/14/1 2/10/2 4/18/3 3/20/4
f 19/32/5 20/146/6 21/142/7 22/140/8
f 5/5/9 6/16/10 8/8/11 7/12/12
f 7/7/13 8/9/14 2/2/15 1/15/16
f 9/135/17 7/13/18 1/1/19 3/21/20
f 3/4/21 4/19/22 10/23/23 9/22/24
f 9/42/25 10/43/26 12/44/27 11/45/28
f 6/36/29 13/37/30 12/38/31 10/133/32 8/6/33
f 6/46/34 5/47/35 14/48/36 13/49/37
f 11/24/38 12/155/39 16/149/40 15/28/41
f 12/25/42 13/154/43 17/147/44 16/29/45
f 13/26/46 14/153/47 18/143/48 17/30/49
f 14/27/50 11/156/51 15/151/52 18/31/53
f 15/50/54 16/150/55 20/145/56 19/137/57
f 16/51/58 17/148/59 21/141/60 20/33/61
f 17/52/62 18/144/63 22/139/64 21/34/65
f 18/53/66 15/152/67 19/138/68 22/35/69
f 5/17/70 7/136/71 9/39/72 11/40/73 14/41/74
f 8/134/75 10/54/76 4/3/77 2/11/78
f 23/55/79 24/56/80 26/57/81 25/58/82
f 41/59/83 42/122/84 43/118/85 44/116/86
f 27/63/87 28/64/88 30/65/89 29/66/90
f 29/67/91 30/68/92 24/69/93 23/70/94
f 31/111/95 29/72/96 23/73/97 25/74/98
f 25/75/99 26/76/100 32/77/101 31/78/102
f 31/79/103 32/80/104 34/81/105 33/82/106
f 28/83/107 35/84/108 34/85/109 32/109/110 30/87/111
f 28/88/112 27/89/113 36/90/114 35/91/115
f 33/92/116 34/131/117 38/125/118 37/95/119
f 34/93/120 35/130/121 39/123/122 38/94/123
f 35/96/124 36/129/125 40/119/126 39/97/127
f 36/98/128 33/132/129 37/127/130 40/99/131
f 37/100/132 38/126/133 42/121/134 41/113/135
f 38/101/136 39/124/137 43/117/138 42/60/139
f 39/102/140 40/120/141 44/115/142 43/61/143
f 40/103/144 37/128/145 41/114/146 44/62/147
f 27/104/148 29/112/149 31/71/150 33/105/151 36/106/152
f 30/110/153 32/86/154 26/107/155 24/108/156
