# This file uses centimeters as units for non-parametric coordinates.

v -0.784141 0.000000 0.263961
v 0.784141 0.000000 0.263961
v -0.784141 0.692742 0.263961
v 0.784141 0.692742 0.263961
v -0.784141 0.692742 -0.263961
v 0.784141 0.692742 -0.263961
v -0.784141 0.000000 -0.263961
v 0.784141 0.000000 -0.263961
v -0.356413 0.692742 -0.263961
v -0.356413 0.692742 0.263961
v -0.356413 0.000000 0.263961
v -0.356413 0.000000 -0.263961
v 0.348701 0.000000 0.263961
v 0.348701 0.692742 0.263961
v 0.348701 0.692742 -0.263961
v 0.348701 0.000000 -0.263961
v -0.716295 0.066560 0.263961
v -0.424257 0.066560 0.263961
v -0.480758 0.626182 0.263961
v -0.655706 0.626182 0.263961
v 0.411204 0.066560 0.263961
v 0.467705 0.626182 0.263961
v 0.721637 0.066560 0.263961
v 0.661048 0.626182 0.263961
v -0.480758 0.458295 0.263961
v -0.655706 0.458295 0.263961
v 0.467705 0.458295 0.263961
v 0.661048 0.458295 0.263961
v -0.424257 0.342281 0.263961
v -0.716295 0.342281 0.263961
v 0.411204 0.342281 0.263961
v 0.721637 0.342281 0.263961
v -0.256819 0.594895 0.263961
v -0.256819 0.097847 0.263961
v 0.249106 0.097847 0.263961
v 0.249106 0.594895 0.263961
v -0.256819 0.197256 0.263961
v 0.249106 0.197256 0.263961
v -0.256819 0.478454 0.263961
v 0.249106 0.478454 0.263961
v -0.242401 0.582063 0.263961
v -0.242401 0.491286 0.263961
v 0.234689 0.491286 0.263961
v 0.234689 0.582063 0.263961
v -0.256819 0.451428 0.263961
v 0.249106 0.451428 0.263961
v -0.256819 0.236695 0.263961
v 0.249106 0.236695 0.263961
v 0.106632 0.388702 0.263961
v 0.203615 0.388702 0.263961
v 0.106632 0.299421 0.263961
v 0.203615 0.299421 0.263961
v 0.106632 0.388702 0.297112
v 0.203615 0.388702 0.297112
v 0.106632 0.299421 0.297112
v 0.203615 0.299421 0.297112
v -0.299763 0.692742 -0.034791
v -0.299763 0.692742 0.034791
v 0.292050 0.692742 0.034791
v 0.292050 0.692742 -0.034791
v -0.299763 0.785516 -0.034791
v -0.299763 0.785516 0.034791
v 0.292050 0.785516 0.034791
v 0.292050 0.785516 -0.034791
v -0.173505 0.388702 0.263961
v -0.173505 0.299421 0.263961
v -0.650324 0.135083 0.263961
v -0.490230 0.135083 0.263961
v -0.490230 0.273758 0.263961
v -0.650324 0.273758 0.263961
v 0.480808 0.273758 0.263961
v 0.652034 0.273758 0.263961
v 0.480808 0.135083 0.263961
v 0.652034 0.135083 0.263961
vt 0.230617 0.065154
vt 0.255344 0.065154
vt 0.290668 0.065154
vt 0.230617 0.065154
vt 0.255344 0.065154
vt 0.290668 0.065154
vt 0.196471 0.065154
vt 0.255344 0.065154
vt 0.196471 0.065154
vt 0.196470 0.065154
vt 0.230617 0.065154
vt 0.230617 0.065154
vt 0.230617 0.065154
vt 0.230617 0.065154
vt 0.290668 0.065154
vt 0.255344 0.065154
vt 0.255344 0.065154
vt 0.290668 0.065154
vt 0.196470 0.065154
vt 0.255344 0.065154
vt 0.230617 0.065154
vt 0.255344 0.065154
vt 0.255344 0.065154
vt 0.230617 0.065154
vt 0.296050 0.473617
vt 0.331374 0.473617
vt 0.290668 0.065154
vt 0.255344 0.065154
vt 0.255344 0.065154
vt 0.196471 0.065154
vt 0.196471 0.065154
vt 0.255344 0.065154
vt 0.296050 0.473617
vt 0.237176 0.473617
vt 0.290668 0.065154
vt 0.255344 0.065154
vt 0.255344 0.065154
vt 0.290668 0.065154
vt 0.196471 0.065154
vt 0.255344 0.065154
vt 0.296050 0.473617
vt 0.237176 0.473617
vt 0.255344 0.065154
vt 0.196471 0.065154
vt 0.331374 0.473617
vt 0.296050 0.473617
vt 0.296050 0.473617
vt 0.331374 0.473617
vt 0.237177 0.473617
vt 0.296050 0.473617
vt 0.290668 0.065154
vt 0.255344 0.065154
vt 0.296050 0.473617
vt 0.237177 0.473617
vt 0.331374 0.473617
vt 0.296050 0.473617
vt 0.206216 0.065154
vt 0.255344 0.065154
vt 0.255344 0.065154
vt 0.255344 0.065154
vt 0.255344 0.065154
vt 0.255344 0.065154
vt 0.255344 0.065154
vt 0.206216 0.065154
vt 0.206216 0.065154
vt 0.255344 0.065154
vt 0.255344 0.065154
vt 0.255344 0.065154
vt 0.255344 0.065154
vt 0.206216 0.065154
vt 0.206216 0.065154
vt 0.255344 0.065154
vt 0.255344 0.065154
vt 0.206216 0.065154
vt 0.206216 0.065154
vt 0.255344 0.065154
vt 0.206216 0.065154
vt 0.206216 0.065154
vt 0.206216 0.065154
vt 0.255344 0.065154
vt 0.206216 0.065154
vt 0.255344 0.065154
vt 0.206216 0.065154
vt 0.206216 0.065154
vt 0.206216 0.065154
vt 0.206216 0.065154
vt 0.255344 0.065154
vt 0.206216 0.065154
vt 0.239064 0.473617
vt 0.296050 0.473617
vt 0.296050 0.473617
vt 0.239064 0.473617
vt 0.296050 0.473617
vt 0.296050 0.473617
vt 0.988558 0.964955
vt 0.892015 0.964955
vt 0.892015 0.940321
vt 0.988558 0.940321
vt 0.239064 0.473617
vt 0.239064 0.473617
vt 0.239064 0.473617
vt 0.239064 0.473617
vt 0.239064 0.473617
vt 0.239064 0.473617
vt 0.164032 0.445280
vt 0.164032 0.445280
vt 0.164032 0.445280
vt 0.164032 0.445280
vt 0.239064 0.473617
vt 0.239064 0.473617
vt 0.239064 0.473617
vt 0.296050 0.473617
vt 0.239064 0.473617
vt 0.239064 0.473617
vt 0.296050 0.473617
vt 0.239064 0.473617
vt 0.296050 0.473617
vt 0.239064 0.473617
vt 0.296050 0.473617
vt 0.239064 0.473617
vt 0.264138 0.473617
vt 0.264138 0.473617
vt 0.296050 0.473617
vt 0.264138 0.473617
vt 0.264138 0.473617
vt 0.296050 0.473617
vt 0.296050 0.473617
vt 0.296050 0.473617
vt 0.264138 0.473617
vt 0.202594 0.473617
vt 0.169542 0.473617
vt 0.202594 0.473617
vt 0.232226 0.473617
vt 0.202594 0.473617
vt 0.169542 0.473617
vt 0.202594 0.473617
vt 0.264138 0.473617
vt 0.264138 0.473617
vt 0.264138 0.473617
vt 0.264138 0.473617
vt 0.169542 0.473617
vt 0.202594 0.473617
vt 0.264138 0.473617
vt 0.232226 0.473617
vt 0.202594 0.473617
vt 0.202594 0.473617
vt 0.202594 0.473617
vt 0.264138 0.473617
vt 0.232226 0.473617
vt 0.232226 0.473617
vt 0.169542 0.473617
vt 0.234506 0.473617
vt 0.268690 0.473617
vt 0.298322 0.473617
vt 0.268690 0.473617
vt 0.298322 0.473617
vt 0.331374 0.473617
vt 0.298322 0.473617
vt 0.268690 0.473617
vt 0.298322 0.473617
vt 0.268690 0.473617
vt 0.298322 0.473617
vt 0.268690 0.473617
vt 0.331374 0.473617
vt 0.298322 0.473617
vt 0.331374 0.473617
vt 0.331374 0.473617
vt 0.268690 0.473617
vt 0.268690 0.473617
vt 0.331374 0.473617
vt 0.331374 0.473617
vt 0.298322 0.473617
vt 0.331374 0.473617
vt 0.268690 0.473617
vt 0.331374 0.473617
vt 0.298322 0.473617
vt 0.264138 0.473617
vt 0.234506 0.473617
vt 0.234506 0.473617
vt 0.264138 0.473617
vt 0.264138 0.473617
vt 0.234506 0.473617
vt 0.173164 0.065154
vt 0.206216 0.065154
vt 0.206216 0.065154
vt 0.206216 0.065154
vt 0.173164 0.065154
vt 0.206216 0.065154
vt 0.206216 0.065154
vt 0.206216 0.065154
vt 0.173164 0.065154
vt 0.206216 0.065154
vt 0.173164 0.065154
vt 0.173164 0.065154
vt 0.206216 0.065154
vt 0.173164 0.065154
vt 0.173164 0.065154
vt 0.173164 0.065154
vn 0.000000 0.000000 1.000000
vn 0.000000 0.000000 1.000000
vn 0.000000 0.000000 1.000000
vn 0.000000 0.000000 1.000000
vn 0.000000 1.000000 0.000000
vn 0.000000 1.000000 0.000000
vn 0.000000 1.000000 0.000000
vn 0.000000 1.000000 0.000000
vn 0.000000 0.000000 -1.000000
vn 0.000000 0.000000 -1.000000
vn 0.000000 0.000000 -1.000000
vn 0.000000 0.000000 -1.000000
vn 0.000000 -1.000000 0.000000
vn 0.000000 -1.000000 0.000000
vn 0.000000 -1.000000 0.000000
vn 0.000000 -1.000000 0.000000
vn 1.000000 0.000000 0.000000
vn 1.000000 0.000000 0.000000
vn 1.000000 0.000000 0.000000
vn 1.000000 0.000000 0.000000
vn -1.000000 0.000000 0.000000
vn -1.000000 0.000000 0.000000
vn -1.000000 0.000000 0.000000
vn -1.000000 0.000000 0.000000
vn 0.000000 1.000000 0.000000
vn 0.000000 1.000000 0.000000
vn 0.000000 1.000000 0.000000
vn 0.000000 1.000000 0.000000
vn 0.000000 0.000000 1.000000
vn 0.000000 0.000000 1.000000
vn 0.000000 0.000000 1.000000
vn 0.000000 0.000000 1.000000
vn 0.000000 -1.000000 0.000000
vn 0.000000 -1.000000 0.000000
vn 0.000000 -1.000000 0.000000
vn 0.000000 -1.000000 0.000000
vn 0.000000 0.000000 -1.000000
vn 0.000000 0.000000 -1.000000
vn 0.000000 0.000000 -1.000000
vn 0.000000 0.000000 -1.000000
vn 0.000000 0.000000 1.000000
vn 0.000000 0.000000 1.000000
vn 0.000000 0.000000 1.000000
vn 0.000000 0.000000 1.000000
vn 0.000000 1.000000 0.000000
vn 0.000000 1.000000 0.000000
vn 0.000000 1.000000 0.000000
vn 0.000000 1.000000 0.000000
vn 0.000000 0.000000 -1.000000
vn 0.000000 0.000000 -1.000000
vn 0.000000 0.000000 -1.000000
vn 0.000000 0.000000 -1.000000
vn 0.000000 -1.000000 0.000000
vn 0.000000 -1.000000 0.000000
vn 0.000000 -1.000000 0.000000
vn 0.000000 -1.000000 0.000000
vn 0.000000 0.000000 1.000000
vn 0.000000 0.000000 1.000000
vn 0.000000 0.000000 1.000000
vn 0.000000 0.000000 1.000000
vn -0.000000 0.000000 1.000000
vn -0.000000 0.000000 1.000000
vn -0.000000 0.000000 1.000000
vn -0.000000 0.000000 1.000000
vn -0.000000 0.000000 1.000000
vn -0.000000 0.000000 1.000000
vn 0.000000 0.000000 1.000000
vn 0.000000 0.000000 1.000000
vn 0.000000 0.000000 1.000000
vn 0.000000 0.000000 1.000000
vn 0.000000 0.000000 1.000000
vn 0.000000 0.000000 1.000000
vn 0.000000 0.000000 1.000000
vn 0.000000 0.000000 1.000000
vn 0.000000 0.000000 1.000000
vn 0.000000 0.000000 1.000000
vn 0.000000 0.000000 1.000000
vn 0.000000 0.000000 1.000000
vn 0.000000 0.000000 1.000000
vn 0.000000 0.000000 1.000000
vn 0.000000 0.000000 1.000000
vn 0.000000 0.000000 1.000000
vn 0.000000 0.000000 1.000000
vn 0.000000 0.000000 1.000000
vn 0.000000 0.000000 1.000000
vn 0.000000 0.000000 1.000000
vn -0.000000 0.000000 1.000000
vn -0.000000 0.000000 1.000000
vn -0.000000 0.000000 1.000000
vn -0.000000 0.000000 1.000000
vn -0.000000 0.000000 1.000000
vn -0.000000 0.000000 1.000000
vn 0.000000 0.000000 1.000000
vn 0.000000 0.000000 1.000000
vn 0.000000 0.000000 1.000000
vn 0.000000 0.000000 1.000000
vn 0.000000 0.000000 1.000000
vn 0.000000 0.000000 1.000000
vn 0.000000 0.000000 1.000000
vn 0.000000 0.000000 1.000000
vn 0.000000 0.000000 1.000000
vn 0.000000 0.000000 1.000000
vn 0.000000 0.000000 1.000000
vn 0.000000 0.000000 1.000000
vn 0.000000 0.000000 1.000000
vn 0.000000 0.000000 1.000000
vn 0.000000 0.000000 1.000000
vn 0.000000 0.000000 1.000000
vn 0.000000 0.000000 1.000000
vn 0.000000 0.000000 1.000000
vn 0.000000 0.000000 1.000000
vn 0.000000 0.000000 1.000000
vn 0.000000 0.000000 1.000000
vn 0.000000 0.000000 1.000000
vn 0.000000 0.000000 1.000000
vn 0.000000 0.000000 1.000000
vn 0.000000 0.000000 1.000000
vn 0.000000 0.000000 1.000000
vn 0.000000 0.000000 1.000000
vn 0.000000 0.000000 1.000000
vn 0.000000 0.000000 1.000000
vn 0.000000 0.000000 1.000000
vn 0.000000 0.000000 1.000000
vn 0.000000 0.000000 1.000000
vn -0.000000 0.000000 1.000000
vn -0.000000 0.000000 1.000000
vn -0.000000 0.000000 1.000000
vn -0.000000 0.000000 1.000000
vn -0.000000 0.000000 1.000000
vn -0.000000 0.000000 1.000000
vn -0.000000 0.000000 1.000000
vn -0.000000 0.000000 1.000000
vn 0.000000 0.000000 1.000000
vn 0.000000 0.000000 1.000000
vn 0.000000 0.000000 1.000000
vn 0.000000 0.000000 1.000000
vn 0.000000 0.000000 1.000000
vn 0.000000 0.000000 1.000000
vn 0.000000 0.000000 1.000000
vn 0.000000 0.000000 1.000000
vn 0.000000 0.000000 1.000000
vn 0.000000 0.000000 1.000000
vn 0.000000 0.000000 1.000000
vn 0.000000 0.000000 1.000000
vn 0.000000 0.000000 1.000000
vn 0.000000 0.000000 1.000000
vn 0.000000 0.000000 1.000000
vn 0.000000 0.000000 1.000000
vn 0.000000 0.000000 1.000000
vn 0.000000 0.000000 1.000000
vn 0.000000 0.000000 1.000000
vn 0.000000 0.000000 1.000000
vn -0.000000 0.000000 1.000000
vn -0.000000 0.000000 1.000000
vn -0.000000 0.000000 1.000000
vn -0.000000 0.000000 1.000000
vn 0.000000 0.000000 1.000000
vn 0.000000 0.000000 1.000000
vn 0.000000 0.000000 1.000000
vn 0.000000 0.000000 1.000000
vn 0.000000 0.000000 1.000000
vn 0.000000 0.000000 1.000000
vn 0.000000 0.000000 1.000000
vn 0.000000 0.000000 1.000000
vn 0.000000 0.000000 1.000000
vn 0.000000 0.000000 1.000000
vn 0.000000 0.000000 1.000000
vn 0.000000 0.000000 1.000000
vn 0.000000 0.000000 1.000000
vn 0.000000 0.000000 1.000000
vn 0.000000 0.000000 1.000000
vn 0.000000 0.000000 1.000000
vn 0.000000 0.000000 1.000000
vn 0.000000 0.000000 1.000000
vn 0.000000 0.000000 1.000000
vn 0.000000 0.000000 1.000000
vn 0.000000 0.000000 1.000000
vn 0.000000 0.000000 1.000000
vn 0.000000 0.000000 1.000000
vn 0.000000 0.000000 1.000000
vn 0.000000 0.000000 1.000000
vn 0.000000 0.000000 1.000000
vn -0.000000 0.000000 1.000000
vn -0.000000 0.000000 1.000000
vn -0.000000 0.000000 1.000000
vn -0.000000 0.000000 1.000000
vn 0.000000 1.000000 0.000000
vn 0.000000 1.000000 0.000000
vn 0.000000 1.000000 0.000000
vn 0.000000 1.000000 0.000000
vn -1.000000 0.000000 0.000000
vn -1.000000 0.000000 0.000000
vn -1.000000 0.000000 0.000000
vn -1.000000 0.000000 0.000000
vn 0.000000 -1.000000 0.000000
vn 0.000000 -1.000000 0.000000
vn 0.000000 -1.000000 0.000000
vn 0.000000 -1.000000 0.000000
vn 1.000000 0.000000 0.000000
vn 1.000000 0.000000 0.000000
vn 1.000000 0.000000 0.000000
vn 1.000000 0.000000 0.000000
vn 0.000000 1.000000 0.000000
vn 0.000000 1.000000 0.000000
vn 0.000000 1.000000 0.000000
vn 0.000000 1.000000 0.000000
vn 0.000000 1.000000 0.000000
vn 0.000000 1.000000 0.000000
vn 0.000000 1.000000 0.000000
vn 0.000000 1.000000 0.000000
vn 0.000000 1.000000 0.000000
vn 0.000000 1.000000 0.000000
vn 0.000000 1.000000 0.000000
vn 0.000000 1.000000 0.000000
vn 0.000000 1.000000 0.000000
vn 0.000000 1.000000 0.000000
vn 0.000000 1.000000 0.000000
vn 0.000000 1.000000 0.000000
vn -1.000000 0.000000 0.000000
vn -1.000000 0.000000 0.000000
vn -1.000000 0.000000 0.000000
vn -1.000000 0.000000 0.000000
vn 0.000000 0.000000 1.000000
vn 0.000000 0.000000 1.000000
vn 0.000000 0.000000 1.000000
vn 0.000000 0.000000 1.000000
vn 1.000000 0.000000 0.000000
vn 1.000000 0.000000 0.000000
vn 1.000000 0.000000 0.000000
vn 1.000000 0.000000 0.000000
vn 0.000000 0.000000 -1.000000
vn 0.000000 0.000000 -1.000000
vn 0.000000 0.000000 -1.000000
vn 0.000000 0.000000 -1.000000
vn 0.000000 0.000000 1.000000
vn 0.000000 0.000000 1.000000
vn 0.000000 0.000000 1.000000
vn 0.000000 0.000000 1.000000
vn 0.000000 0.000000 1.000000
vn 0.000000 0.000000 1.000000
vn 0.000000 0.000000 1.000000
vn 0.000000 0.000000 1.000000
vn 0.000000 0.000000 1.000000
vn 0.000000 0.000000 1.000000
vn 0.000000 0.000000 1.000000
vn 0.000000 0.000000 1.000000
vn 0.000000 0.000000 1.000000
vn 0.000000 0.000000 1.000000
vn 0.000000 0.000000 1.000000
vn 0.000000 0.000000 1.000000
vn -0.000000 0.000000 1.000000
vn -0.000000 0.000000 1.000000
vn -0.000000 0.000000 1.000000
vn -0.000000 0.000000 1.000000
vn 0.000000 0.000000 1.000000
vn 0.000000 0.000000 1.000000
vn 0.000000 0.000000 1.000000
vn 0.000000 0.000000 1.000000
vn -0.000000 0.000000 1.000000
vn -0.000000 0.000000 1.000000
vn -0.000000 0.000000 1.000000
vn -0.000000 0.000000 1.000000
vn 0.000000 0.000000 1.000000
vn 0.000000 0.000000 1.000000
vn 0.000000 0.000000 1.000000
vn 0.000000 0.000000 1.000000
vn 0.000000 0.000000 1.000000
vn 0.000000 0.000000 1.000000
vn 0.000000 0.000000 1.000000
vn 0.000000 0.000000 1.000000
s off
f 41/105/1 42/106/2 43/107/3 44/108/4
f 61/157/5 62/170/6 63/166/7 64/164/8
f 12/50/9 9/25/10 15/46/11 16/41/12
f 11/54/13 12/49/14 16/42/15 13/34/16
f 2/21/17 8/11/18 6/12/19 4/4/20
f 7/13/21 1/1/22 3/24/23 5/14/24
f 3/3/25 10/27/26 9/51/27 5/18/28
f 67/183/29 68/198/30 69/197/31 70/196/32
f 7/7/33 12/31/34 11/30/35 1/9/36
f 5/5/37 9/52/38 12/32/39 7/20/40
f 22/81/41 27/78/42 28/79/43 24/64/44
f 15/38/45 14/35/46 4/15/47 6/6/48
f 16/40/49 15/37/50 6/16/51 8/8/52
f 13/44/53 16/39/54 8/19/55 2/10/56
f 1/23/57 11/29/58 18/58/59 17/87/60
f 11/29/61 10/28/62 19/59/63 25/82/64 29/69/65 18/58/66
f 10/28/67 3/17/68 20/60/69 19/59/70
f 3/17/71 1/23/72 17/87/73 30/76/74 26/66/75 20/60/76
f 14/36/77 13/43/78 21/62/79 31/73/80 27/67/81 22/61/82
f 13/43/83 2/2/84 23/63/85 21/62/86
f 2/2/87 4/22/88 24/80/89 28/68/90 32/72/91 23/63/92
f 4/22/93 14/36/94 22/61/95 24/80/96
f 26/83/97 25/65/98 19/88/99 20/84/100
f 28/68/101 27/67/102 31/73/103 32/72/104
f 30/76/105 29/69/106 25/82/107 26/66/108
f 72/187/109 71/194/110 73/193/111 74/191/112
f 10/56/113 11/53/114 34/90/115 37/93/116 47/123/117 45/128/118 39/117/119 33/119/120
f 11/53/121 13/33/122 35/91/123 34/90/124
f 13/33/125 14/47/126 36/112/127 40/115/128 46/127/129 48/126/130 38/94/131 35/91/132
f 14/47/133 10/56/134 33/119/135 36/112/136
f 38/95/137 37/96/138 34/97/139 35/98/140
f 40/115/141 39/117/142 45/128/143 46/127/144
f 33/89/145 39/118/146 42/114/147 41/101/148
f 39/99/149 40/116/150 43/111/151 42/102/152
f 40/100/153 36/113/154 44/110/155 43/103/156
f 36/92/157 33/120/158 41/109/159 44/104/160
f 54/133/161 53/144/162 55/149/163 56/150/164
f 48/126/165 47/123/166 37/93/167 38/94/168
f 46/122/169 45/121/170 65/177/171 49/148/172 50/139/173
f 65/179/174 66/178/175 51/152/176 49/182/177
f 47/125/178 48/124/179 52/143/180 51/181/181 66/180/182
f 48/124/183 46/122/184 50/139/185 52/143/186
f 50/129/187 49/140/188 53/137/189 54/138/190
f 49/130/191 51/146/192 55/145/193 53/134/194
f 51/131/195 52/151/196 56/141/197 55/135/198
f 52/132/199 50/147/200 54/142/201 56/136/202
f 9/26/203 10/55/204 58/173/205 57/175/206
f 10/55/207 14/48/208 59/171/209 58/173/210
f 14/48/211 15/45/212 60/167/213 59/171/214
f 15/45/215 9/26/216 57/175/217 60/167/218
f 57/153/219 58/174/220 62/169/221 61/161/222
f 58/154/223 59/172/224 63/165/225 62/158/226
f 59/155/227 60/168/228 64/163/229 63/159/230
f 60/156/231 57/176/232 61/162/233 64/160/234
f 45/121/235 47/125/236 66/180/237 65/177/238
f 17/57/239 18/77/240 68/184/241 67/195/242
f 18/77/243 29/75/244 69/185/245 68/184/246
f 29/75/247 30/70/248 70/186/249 69/185/250
f 30/70/251 17/57/252 67/195/253 70/186/254
f 32/74/255 31/71/256 71/188/257 72/192/258
f 31/71/259 21/86/260 73/189/261 71/188/262
f 21/86/263 23/85/264 74/190/265 73/189/266
f 23/85/267 32/74/268 72/192/269 74/190/270
