# This file uses centimeters as units for non-parametric coordinates.

v -2.087143 0.000000 0.423674
v 2.087143 0.000000 0.423674
v -2.204430 0.834691 0.500000
v 2.204430 0.834691 0.500000
v -2.204430 0.834691 -0.500000
v 2.204430 0.834691 -0.500000
v -2.087143 0.000000 -0.423674
v 2.087143 0.000000 -0.423674
v -2.087143 0.616151 -0.423674
v -2.087143 0.616151 0.423674
v 2.087143 0.616151 0.423674
v 2.087143 0.616151 -0.423674
v 2.204430 0.616151 0.500000
v -2.204430 0.616151 0.500000
v -2.204430 0.616151 -0.500000
v 2.204430 0.616151 -0.500000
vt 0.271323 0.473617
vt 0.296050 0.473617
vt 0.331374 0.181721
vt 0.271323 0.181721
vt 0.296050 0.181721
vt 0.331374 0.181721
vt 0.237177 0.473617
vt 0.296050 0.473617
vt 0.237177 0.473617
vt 0.237176 0.473617
vt 0.271323 0.473617
vt 0.271323 0.181721
vt 0.271323 0.473617
vt 0.271323 0.181721
vt 0.331374 0.181721
vt 0.296050 0.181721
vt 0.296050 0.181721
vt 0.331374 0.181721
vt 0.237176 0.473617
vt 0.296050 0.473617
vt 0.271323 0.473617
vt 0.296050 0.181721
vt 0.296050 0.473617
vt 0.271323 0.181721
vt 0.235461 0.182420
vt 0.296050 0.473617
vt 0.271323 0.473617
vt 0.296050 0.473617
vt 0.296050 0.473617
vt 0.271323 0.473617
vt 0.235461 0.182420
vt 0.271323 0.473617
vt 0.235461 0.182420
vt 0.235461 0.182420
vt 0.271323 0.181721
vt 0.296050 0.181721
vt 0.271323 0.181721
vt 0.296050 0.181721
vt 0.296050 0.181721
vt 0.271323 0.181721
vt 0.235461 0.182420
vt 0.235461 0.182420
vt 0.296050 0.181721
vt 0.271323 0.181721
vt 0.235461 0.182420
vt 0.235461 0.182420
vt 0.235461 0.182420
vt 0.235461 0.182420
vt 0.296050 0.473617
vt 0.235461 0.182420
vt 0.271323 0.473617
vt 0.235461 0.182420
vt 0.235461 0.182420
vt 0.235461 0.182420
vt 0.235461 0.182420
vt 0.235461 0.182420
vn 0.000000 -0.203583 0.979058
vn 0.000000 -0.203583 0.979058
vn 0.000000 -0.123898 0.992295
vn 0.000000 -0.123898 0.992295
vn 0.000000 1.000000 0.000000
vn 0.000000 1.000000 0.000000
vn 0.000000 1.000000 0.000000
vn 0.000000 1.000000 0.000000
vn 0.000000 -0.123898 -0.992295
vn 0.000000 -0.123898 -0.992295
vn 0.000000 -0.203583 -0.979058
vn 0.000000 -0.203583 -0.979058
vn 0.000000 -1.000000 0.000000
vn 0.000000 -1.000000 0.000000
vn 0.000000 -1.000000 0.000000
vn 0.000000 -1.000000 0.000000
vn 0.962032 -0.272937 0.000000
vn 0.962032 -0.272937 0.000000
vn 0.954166 -0.299278 0.000000
vn 0.954166 -0.299278 0.000000
vn -0.962032 -0.272937 0.000000
vn -0.962032 -0.272937 0.000000
vn -0.954166 -0.299278 0.000000
vn -0.954166 -0.299278 0.000000
vn -1.000000 0.000000 0.000000
vn -1.000000 0.000000 0.000000
vn -0.962032 -0.272937 0.000000
vn -0.962032 -0.272937 0.000000
vn 0.000000 0.000000 1.000000
vn 0.000000 0.000000 1.000000
vn 0.000000 -0.203583 0.979058
vn 0.000000 -0.203583 0.979058
vn 1.000000 0.000000 0.000000
vn 1.000000 0.000000 0.000000
vn 0.962032 -0.272937 0.000000
vn 0.962032 -0.272937 0.000000
vn 0.000000 -0.203583 -0.979058
vn 0.000000 -0.203583 -0.979058
vn 0.000000 0.000000 -1.000000
vn 0.000000 0.000000 -1.000000
vn 0.000000 -0.123898 0.992295
vn 0.000000 -0.123898 0.992295
vn 0.000000 0.000000 1.000000
vn 0.000000 0.000000 1.000000
vn -0.954166 -0.299278 0.000000
vn -0.954166 -0.299278 0.000000
vn -1.000000 0.000000 0.000000
vn -1.000000 0.000000 0.000000
vn 0.000000 0.000000 -1.000000
vn 0.000000 0.000000 -1.000000
vn 0.000000 -0.123898 -0.992295
vn 0.000000 -0.123898 -0.992295
vn 0.954166 -0.299278 0.000000
vn 0.954166 -0.299278 0.000000
vn 1.000000 0.000000 0.000000
vn 1.000000 0.000000 0.000000
s off
f 10/56/1 11/53/2 13/33/3 14/47/4
f 3/3/5 4/15/6 6/6/7 5/18/8
f 15/46/9 16/41/10 12/31/11 9/52/12
f 7/7/13 8/19/14 2/10/15 1/9/16
f 11/54/17 12/50/18 16/42/19 13/34/20
f 9/25/21 10/55/22 14/48/23 15/45/24
f 7/13/25 1/1/26 10/27/27 9/51/28
f 1/23/29 2/2/30 11/29/31 10/28/32
f 2/21/33 8/11/34 12/32/35 11/30/36
f 9/26/37 12/49/38 8/8/39 7/20/40
f 14/36/41 13/43/42 4/22/43 3/17/44
f 15/37/45 14/35/46 3/24/47 5/14/48
f 5/5/49 6/16/50 16/39/51 15/38/52
f 13/44/53 16/40/54 6/12/55 4/4/56
