# This file uses centimeters as units for non-parametric coordinates.

v -3.311937 0.185699 1.000000
v 3.311937 0.185699 1.000000
v -3.311937 0.388846 1.000000
v 3.311937 0.388846 1.000000
v -3.311937 0.388846 0.000000
v 3.311937 0.388846 0.000000
v -3.311937 0.185699 0.000000
v 3.311937 0.185699 0.000000
v -3.121820 0.185699 0.000000
v 3.121820 0.185699 0.000000
v 3.121820 0.185699 0.842392
v -3.121820 0.185699 0.842392
v -2.780962 0.185699 0.842392
v -2.780962 0.185699 0.000000
v 2.767538 0.185699 0.842392
v 2.767538 0.185699 0.000000
v 2.767538 0.049190 0.842392
v 2.767538 -0.388846 0.000000
v 3.121820 -0.388846 0.000000
v 3.121820 0.049190 0.842392
v -3.121820 -0.388846 0.000000
v -2.780962 -0.388846 0.000000
v -2.780962 0.049190 0.842392
v -3.121820 0.049190 0.842392
vt 0.271323 0.473617
vt 0.296050 0.473617
vt 0.331374 0.473617
vt 0.271323 0.473617
vt 0.331374 0.473617
vt 0.237177 0.473617
vt 0.237177 0.473617
vt 0.237176 0.473617
vt 0.271323 0.473617
vt 0.271323 0.473617
vt 0.271323 0.473617
vt 0.271323 0.473617
vt 0.331374 0.473617
vt 0.296050 0.473617
vt 0.331374 0.473617
vt 0.237176 0.473617
vt 0.271323 0.473617
vt 0.296050 0.473617
vt 0.296050 0.473617
vt 0.271323 0.473617
vt 0.206049 0.473617
vt 0.206049 0.473617
vt 0.206049 0.473617
vt 0.206049 0.473617
vt 0.206049 0.473617
vt 0.206049 0.473617
vt 0.172399 0.473617
vt 0.206049 0.473617
vt 0.206049 0.473617
vt 0.172399 0.473617
vt 0.206049 0.473617
vt 0.206049 0.473617
vt 0.206049 0.473617
vt 0.172399 0.473617
vt 0.172399 0.473617
vt 0.172399 0.473617
vt 0.206049 0.473617
vt 0.172399 0.473617
vt 0.172399 0.473617
vt 0.172399 0.473617
vt 0.206049 0.473617
vt 0.206049 0.473617
vt 0.206049 0.473617
vt 0.237177 0.473617
vt 0.206049 0.473617
vt 0.237177 0.473617
vt 0.206049 0.473617
vt 0.237177 0.473617
vt 0.237177 0.473617
vt 0.206049 0.473617
vt 0.206049 0.473617
vt 0.206049 0.473617
vt 0.237176 0.473617
vt 0.206049 0.473617
vt 0.206049 0.473617
vt 0.237176 0.473617
vt 0.237176 0.473617
vt 0.206049 0.473617
vt 0.237176 0.473617
vt 0.206049 0.473617
vn 0.000000 0.000000 1.000000
vn 0.000000 0.000000 1.000000
vn 0.000000 0.000000 1.000000
vn 0.000000 0.000000 1.000000
vn 0.000000 1.000000 0.000000
vn 0.000000 1.000000 0.000000
vn 0.000000 1.000000 0.000000
vn 0.000000 1.000000 0.000000
vn 0.000000 -0.887220 0.461346
vn 0.000000 -0.887220 0.461346
vn 0.000000 -0.887220 0.461346
vn 0.000000 -0.887220 0.461346
vn 1.000000 0.000000 0.000000
vn 1.000000 0.000000 0.000000
vn 1.000000 0.000000 0.000000
vn 1.000000 0.000000 0.000000
vn -1.000000 0.000000 0.000000
vn -1.000000 0.000000 0.000000
vn -1.000000 0.000000 0.000000
vn -1.000000 0.000000 0.000000
vn 0.000000 0.000000 -0.000000
vn 0.000000 0.000000 -0.000000
vn 0.000000 0.000000 -1.000000
vn 0.000000 0.000000 -1.000000
vn 0.000000 0.000000 -1.000000
vn 0.000000 0.000000 -1.000000
vn 0.000000 -1.000000 0.000000
vn 0.000000 -1.000000 0.000000
vn 0.000000 -1.000000 0.000000
vn 0.000000 -1.000000 0.000000
vn 0.000000 -1.000000 0.000000
vn 0.000000 -1.000000 0.000000
vn 0.000000 -1.000000 0.000000
vn 0.000000 -1.000000 0.000000
vn 0.000000 -1.000000 0.000000
vn 0.000000 -1.000000 0.000000
vn 0.000000 -1.000000 0.000000
vn 0.000000 -1.000000 0.000000
vn 0.000000 -1.000000 0.000000
vn 0.000000 -1.000000 0.000000
vn 0.000000 -0.887220 0.461346
vn 0.000000 -0.887220 0.461346
vn 0.000000 -0.887220 0.461346
vn 0.000000 -0.887220 0.461346
vn 0.000000 -1.000000 0.000000
vn 0.000000 -1.000000 0.000000
vn 0.000000 -1.000000 0.000000
vn 0.000000 -1.000000 0.000000
vn -1.000000 0.000000 0.000000
vn -1.000000 0.000000 0.000000
vn -1.000000 0.000000 0.000000
vn -1.000000 0.000000 0.000000
vn 1.000000 0.000000 0.000000
vn 1.000000 0.000000 0.000000
vn 1.000000 0.000000 0.000000
vn 1.000000 0.000000 0.000000
vn 0.000000 0.000000 1.000000
vn 0.000000 0.000000 1.000000
vn 0.000000 0.000000 1.000000
vn 0.000000 0.000000 1.000000
vn 1.000000 0.000000 0.000000
vn 1.000000 0.000000 0.000000
vn 1.000000 0.000000 0.000000
vn 1.000000 0.000000 0.000000
vn 0.000000 0.000000 1.000000
vn 0.000000 0.000000 1.000000
vn 0.000000 0.000000 1.000000
vn 0.000000 0.000000 1.000000
vn -1.000000 0.000000 0.000000
vn -1.000000 0.000000 0.000000
vn -1.000000 0.000000 0.000000
vn -1.000000 0.000000 0.000000
s off
f 1/19/1 2/2/2 4/18/3 3/14/4
f 3/3/5 4/13/6 6/5/7 5/15/8
f 17/27/9 18/40/10 19/39/11 20/38/12
f 2/17/13 8/9/14 6/10/15 4/4/16
f 7/11/17 1/1/18 3/20/19 5/12/20
f 7/6/21 8/16/22 10/56/23 16/57/24 14/48/25 9/49/26
f 8/16/27 2/8/28 11/53/29 10/56/30
f 2/8/31 1/7/32 12/44/33 13/46/34 15/59/35 11/53/36
f 1/7/37 7/6/38 9/49/39 12/44/40
f 21/30/41 22/36/42 23/35/43 24/34/44
f 13/46/45 14/48/46 16/57/47 15/59/48
f 15/26/49 16/58/50 18/55/51 17/37/52
f 10/21/53 11/54/54 20/52/55 19/28/56
f 11/22/57 15/60/58 17/51/59 20/29/60
f 14/25/61 13/47/62 23/43/63 22/31/64
f 13/24/65 12/45/66 24/42/67 23/32/68
f 12/23/69 9/50/70 21/41/71 24/33/72
