# This file uses centimeters as units for non-parametric coordinates.

v -1.017952 -0.372715 0.000000
v 1.017952 -0.372715 0.000000
v -1.017952 -0.372715 0.101776
v 1.017952 -0.372715 0.101776
v -1.017952 0.372715 0.101776
v 1.017952 0.372715 0.101776
v -1.017952 0.372715 0.000000
v 1.017952 0.372715 0.000000
v -0.882984 -0.299266 0.101776
v 0.882984 -0.299266 0.101776
v 0.882984 0.299266 0.101776
v -0.882984 0.299266 0.101776
vt 0.207478 0.011898
vt 0.232205 0.011898
vt 0.270355 0.012157
vt 0.207478 0.011898
vt 0.332336 0.011898
vt 0.270355 0.012157
vt 0.173331 0.011898
vt 0.332336 0.011898
vt 0.173331 0.011898
vt 0.173331 0.011898
vt 0.207478 0.011898
vt 0.207478 0.011898
vt 0.207478 0.011898
vt 0.207478 0.011898
vt 0.270355 0.012157
vt 0.332336 0.011898
vt 0.232205 0.011898
vt 0.270355 0.012157
vt 0.173331 0.011898
vt 0.332336 0.011898
vt 0.207478 0.011898
vt 0.232205 0.011898
vt 0.232205 0.011898
vt 0.207478 0.011898
vt 0.270355 0.012157
vt 0.270355 0.012157
vt 0.270355 0.012157
vt 0.270355 0.012157
vt 0.859241 0.229293
vt 0.993970 0.229293
vt 0.993970 0.275897
vt 0.859241 0.275897
vn 0.000000 -1.000000 -0.000000
vn 0.000000 -1.000000 -0.000000
vn 0.000000 -1.000000 -0.000000
vn 0.000000 -1.000000 -0.000000
vn 0.000000 0.000000 1.000000
vn 0.000000 0.000000 1.000000
vn 0.000000 0.000000 1.000000
vn 0.000000 0.000000 1.000000
vn 0.000000 1.000000 0.000000
vn 0.000000 1.000000 0.000000
vn 0.000000 1.000000 0.000000
vn 0.000000 1.000000 0.000000
vn 0.000000 0.000000 -1.000000
vn 0.000000 0.000000 -1.000000
vn 0.000000 0.000000 -1.000000
vn 0.000000 0.000000 -1.000000
vn 1.000000 0.000000 0.000000
vn 1.000000 0.000000 0.000000
vn 1.000000 0.000000 0.000000
vn 1.000000 0.000000 0.000000
vn -1.000000 0.000000 0.000000
vn -1.000000 0.000000 0.000000
vn -1.000000 0.000000 0.000000
vn -1.000000 0.000000 0.000000
vn 0.000000 0.000000 1.000000
vn 0.000000 0.000000 1.000000
vn 0.000000 0.000000 1.000000
vn 0.000000 0.000000 1.000000
vn -0.000000 0.000000 1.000000
vn -0.000000 0.000000 1.000000
vn -0.000000 0.000000 1.000000
vn -0.000000 0.000000 1.000000
vn 0.000000 -0.000001 1.000000
vn 0.000000 -0.000001 1.000000
vn 0.000000 -0.000001 1.000000
vn 0.000000 -0.000001 1.000000
vn 0.000000 0.000000 1.000000
vn 0.000000 0.000000 1.000000
vn 0.000000 0.000000 1.000000
vn 0.000000 0.000000 1.000000
s off
f 1/23/1 2/2/2 4/22/3 3/17/4
f 9/29/5 10/30/6 11/31/7 12/32/8
f 5/5/9 6/16/10 8/8/11 7/20/12
f 7/7/13 8/19/14 2/10/15 1/9/16
f 2/21/17 8/11/18 6/12/19 4/4/20
f 7/13/21 1/1/22 3/24/23 5/14/24
f 3/3/25 4/6/26 10/15/27 9/18/28
f 4/6/29 6/25/30 11/26/31 10/15/32
f 6/25/33 5/27/34 12/28/35 11/26/36
f 5/27/37 3/3/38 9/18/39 12/28/40
