# This file uses centimeters as units for non-parametric coordinates.

v -1.017952 -0.372715 0.000000
v 1.017952 -0.372715 0.000000
v -1.017952 -0.372715 0.101776
v 1.017952 -0.372715 0.101776
v -1.017952 0.372715 0.101776
v 1.017952 0.372715 0.101776
v -1.017952 0.372715 0.000000
v 1.017952 0.372715 0.000000
v -0.957684 -0.324583 0.101776
v 0.957684 -0.324583 0.101776
v 0.957684 0.324583 0.101776
v -0.957684 0.324583 0.101776
vt 0.234240 0.331466
vt 0.258967 0.331466
vt 0.297117 0.331725
vt 0.234240 0.331466
vt 0.359098 0.331466
vt 0.297117 0.331725
vt 0.200094 0.331466
vt 0.359098 0.331466
vt 0.200094 0.331466
vt 0.200093 0.331466
vt 0.234240 0.331466
vt 0.234240 0.331466
vt 0.234240 0.331466
vt 0.234240 0.331466
vt 0.297117 0.331725
vt 0.359098 0.331466
vt 0.258967 0.331466
vt 0.297117 0.331725
vt 0.200093 0.331466
vt 0.359098 0.331466
vt 0.234240 0.331466
vt 0.258967 0.331466
vt 0.258967 0.331466
vt 0.234240 0.331466
vt 0.297117 0.331725
vt 0.297117 0.331725
vt 0.297117 0.331725
vt 0.297117 0.331725
vt 0.796075 0.589405
vt 0.997410 0.589405
vt 0.997410 0.654926
vt 0.796075 0.654926
vn 0.000000 -1.000000 -0.000000
vn 0.000000 -1.000000 -0.000000
vn 0.000000 -1.000000 -0.000000
vn 0.000000 -1.000000 -0.000000
vn 0.000000 -0.000000 1.000000
vn 0.000000 -0.000000 1.000000
vn 0.000000 -0.000000 1.000000
vn 0.000000 -0.000000 1.000000
vn 0.000000 1.000000 0.000000
vn 0.000000 1.000000 0.000000
vn 0.000000 1.000000 0.000000
vn 0.000000 1.000000 0.000000
vn 0.000000 0.000000 -1.000000
vn 0.000000 0.000000 -1.000000
vn 0.000000 0.000000 -1.000000
vn 0.000000 0.000000 -1.000000
vn 1.000000 0.000000 0.000000
vn 1.000000 0.000000 0.000000
vn 1.000000 0.000000 0.000000
vn 1.000000 0.000000 0.000000
vn -1.000000 0.000000 0.000000
vn -1.000000 0.000000 0.000000
vn -1.000000 0.000000 0.000000
vn -1.000000 0.000000 0.000000
vn 0.000000 0.000000 1.000000
vn 0.000000 0.000000 1.000000
vn 0.000000 0.000000 1.000000
vn 0.000000 0.000000 1.000000
vn 0.000000 -0.000000 1.000000
vn 0.000000 -0.000000 1.000000
vn 0.000000 -0.000000 1.000000
vn 0.000000 -0.000000 1.000000
vn 0.000000 0.000000 1.000000
vn 0.000000 0.000000 1.000000
vn 0.000000 0.000000 1.000000
vn 0.000000 0.000000 1.000000
vn -0.000000 -0.000000 1.000000
vn -0.000000 -0.000000 1.000000
vn -0.000000 -0.000000 1.000000
vn -0.000000 -0.000000 1.000000
s off
f 1/23/1 2/2/2 4/22/3 3/17/4
f 9/29/5 10/30/6 11/31/7 12/32/8
f 5/5/9 6/16/10 8/8/11 7/20/12
f 7/7/13 8/19/14 2/10/15 1/9/16
f 2/21/17 8/11/18 6/12/19 4/4/20
f 7/13/21 1/1/22 3/24/23 5/14/24
f 3/3/25 4/6/26 10/15/27 9/18/28
f 4/6/29 6/25/30 11/26/31 10/15/32
f 6/25/33 5/27/34 12/28/35 11/26/36
f 5/27/37 3/3/38 9/18/39 12/28/40
