# This file uses centimeters as units for non-parametric coordinates.

v -0.406654 0.000000 0.406655
v 0.406654 0.000000 0.406655
v -0.406654 0.043097 0.406655
v 0.406654 0.043097 0.406655
v -0.406654 0.043097 -0.406655
v 0.406654 0.043097 -0.406655
v -0.406654 0.000000 -0.406655
v 0.406654 0.000000 -0.406655
v -0.364473 0.043097 0.364474
v 0.364475 0.043097 0.364474
v 0.364475 0.043097 -0.364474
v -0.364473 0.043097 -0.364474
v -0.300011 0.023230 0.300011
v 0.300011 0.023230 0.300011
v 0.300011 0.023230 -0.300011
v -0.300011 0.023230 -0.300011
vt 0.331760 0.479233
vt 0.331761 0.479233
vt 0.331761 0.479233
vt 0.331760 0.479233
vt 0.363930 0.479233
vt 0.363930 0.479233
vt 0.363930 0.479233
vt 0.363930 0.479233
vt 0.331760 0.479233
vt 0.331761 0.479233
vt 0.331761 0.479233
vt 0.331760 0.479233
vt 0.266108 0.479233
vt 0.266108 0.479233
vt 0.266108 0.479233
vt 0.266108 0.479233
vt 0.298934 0.479233
vt 0.298934 0.479233
vt 0.298934 0.479233
vt 0.298934 0.479233
vt 0.298934 0.479233
vt 0.298934 0.479233
vt 0.298934 0.479233
vt 0.298934 0.479233
vt 0.363930 0.479233
vt 0.363930 0.479233
vt 0.363930 0.479233
vt 0.363930 0.479233
vt 0.363930 0.479233
vt 0.363930 0.479233
vt 0.363930 0.479233
vt 0.363930 0.479233
vt 0.363930 0.479233
vt 0.363930 0.479233
vt 0.363930 0.479233
vt 0.363930 0.479233
vt 0.363930 0.479233
vt 0.363930 0.479233
vt 0.363930 0.479233
vt 0.363930 0.479233
vt 0.331529 0.479233
vt 0.331530 0.479233
vt 0.331530 0.479233
vt 0.331529 0.479233
vt 0.331530 0.479233
vt 0.331530 0.479233
vt 0.331530 0.479233
vt 0.331530 0.479233
vt 0.331530 0.479233
vt 0.331529 0.479233
vt 0.331529 0.479233
vt 0.331530 0.479233
vt 0.331529 0.479233
vt 0.331529 0.479233
vt 0.331529 0.479233
vt 0.331529 0.479233
vn 0.000000 0.000000 1.000000
vn 0.000000 0.000000 1.000000
vn 0.000000 0.000000 1.000000
vn 0.000000 0.000000 1.000000
vn 0.000000 1.000000 0.000000
vn 0.000000 1.000000 0.000000
vn 0.000000 1.000000 0.000000
vn 0.000000 1.000000 0.000000
vn 0.000000 0.000000 -1.000000
vn 0.000000 0.000000 -1.000000
vn 0.000000 0.000000 -1.000000
vn 0.000000 0.000000 -1.000000
vn 0.000000 -1.000000 0.000000
vn 0.000000 -1.000000 0.000000
vn 0.000000 -1.000000 0.000000
vn 0.000000 -1.000000 0.000000
vn 1.000000 0.000000 0.000000
vn 1.000000 0.000000 0.000000
vn 1.000000 0.000000 0.000000
vn 1.000000 0.000000 0.000000
vn -1.000000 0.000000 0.000000
vn -1.000000 0.000000 0.000000
vn -1.000000 0.000000 0.000000
vn -1.000000 0.000000 0.000000
vn 0.000000 1.000000 -0.000000
vn 0.000000 1.000000 -0.000000
vn 0.000000 1.000000 -0.000000
vn 0.000000 1.000000 -0.000000
vn 0.000000 1.000000 0.000000
vn 0.000000 1.000000 0.000000
vn 0.000000 1.000000 0.000000
vn 0.000000 1.000000 0.000000
vn 0.000000 1.000000 0.000000
vn 0.000000 1.000000 0.000000
vn 0.000000 1.000000 0.000000
vn 0.000000 1.000000 0.000000
vn 0.000000 1.000000 0.000000
vn 0.000000 1.000000 0.000000
vn 0.000000 1.000000 0.000000
vn 0.000000 1.000000 0.000000
vn 0.000000 0.955643 -0.294528
vn 0.000000 0.955643 -0.294528
vn 0.000000 0.955643 -0.294528
vn 0.000000 0.955643 -0.294528
vn -0.294520 0.955645 0.000000
vn -0.294520 0.955645 0.000000
vn -0.294520 0.955645 0.000000
vn -0.294520 0.955645 0.000000
vn 0.000000 0.955643 0.294527
vn 0.000000 0.955643 0.294527
vn 0.000000 0.955643 0.294527
vn 0.000000 0.955643 0.294527
vn 0.294528 0.955643 0.000000
vn 0.294528 0.955643 0.000000
vn 0.294528 0.955643 0.000000
vn 0.294528 0.955643 0.000000
s off
f 1/1/1 2/2/2 4/3/3 3/4/4
f 13/5/5 14/6/6 15/7/7 16/8/8
f 5/9/9 6/10/10 8/11/11 7/12/12
f 7/13/13 8/14/14 2/15/15 1/16/16
f 2/17/17 8/18/18 6/19/19 4/20/20
f 7/21/21 1/22/22 3/23/23 5/24/24
f 3/25/25 4/26/26 10/27/27 9/28/28
f 4/29/29 6/30/30 11/31/31 10/32/32
f 6/33/33 5/34/34 12/35/35 11/36/36
f 5/37/37 3/38/38 9/39/39 12/40/40
f 9/41/41 10/42/42 14/43/43 13/44/44
f 10/45/45 11/46/46 15/47/47 14/48/48
f 11/49/49 12/50/50 16/51/51 15/52/52
f 12/53/53 9/54/54 13/55/55 16/56/56
