# This file uses centimeters as units for non-parametric coordinates.

v 0.597393 0.000000 -0.653593
v -0.597393 0.000000 -0.653593
v 0.597393 2.572489 -0.653593
v -0.597393 2.572489 -0.653593
v 0.597393 2.572489 0.179135
v -0.597393 2.572489 0.179135
v 0.597393 0.000000 0.653593
v -0.597393 0.000000 0.653593
v 0.597393 1.541744 0.653593
v -0.597393 1.541744 0.653593
v -0.597393 1.541744 -0.653593
v 0.597393 1.541744 -0.653593
v 0.466216 2.459323 0.231226
v -0.466217 2.459323 0.231226
v -0.466217 1.654911 0.601502
v 0.466216 1.654911 0.601502
v 0.466216 2.459323 0.027422
v -0.466217 2.459323 0.027422
v -0.466217 1.654911 0.397698
v 0.466216 1.654911 0.397698
v 0.421720 1.372435 0.653593
v -0.421721 1.372435 0.653593
v -0.421721 1.021776 0.653593
v 0.421720 1.021776 0.653593
v 0.421720 1.372435 0.507100
v -0.421721 1.372435 0.507100
v -0.421721 1.021776 0.507100
v 0.421720 1.021776 0.507100
v 0.597393 1.541744 0.510262
v 0.597393 2.572489 0.047273
v -0.597393 2.572489 0.047273
v -0.597393 1.541744 0.510262
v 0.597393 0.866814 0.510262
v 0.597393 0.866814 0.653593
v -0.597393 0.866814 0.653593
v -0.597393 0.866814 0.510262
v 0.071759 2.340634 0.082055
v -0.387963 2.340634 0.082055
v -0.387963 1.773599 0.343065
v 0.071759 1.773599 0.343065
v 0.032654 2.303503 0.099146
v -0.348859 2.303503 0.099146
v -0.348859 1.810730 0.325974
v 0.032654 1.810730 0.325974
v 0.409051 2.258459 0.119881
v 0.409051 1.855775 0.305239
v 0.128925 2.258459 0.119881
v 0.128925 1.855775 0.305239
v 0.239254 1.153588 0.507100
v -0.239256 1.153588 0.507100
v -0.239256 1.073250 0.507100
v 0.239254 1.073250 0.507100
v 0.527138 0.050970 0.653593
v -0.527138 0.050970 0.653593
v 0.527138 0.815844 0.653593
v -0.527138 0.815844 0.653593
v 0.482174 0.096233 0.653593
v -0.482175 0.096233 0.653593
v 0.482174 0.770580 0.653593
v -0.482175 0.770580 0.653593
v 0.496593 2.572489 -0.350516
v -0.496594 2.572489 -0.350516
v -0.496594 2.572489 -0.037786
v 0.496593 2.572489 -0.037786
v 0.496593 3.122000 -0.350516
v -0.496594 3.122000 -0.350516
v -0.496594 3.122000 -0.037786
v 0.496593 3.122000 -0.037786
vt 0.267141 0.479233
vt 0.234315 0.479233
vt 0.267141 0.479233
vt 0.332137 0.479233
vt 0.267141 0.086823
vt 0.299967 0.086823
vt 0.267141 0.479233
vt 0.234315 0.479233
vt 0.299968 0.479233
vt 0.234315 0.479233
vt 0.299968 0.479233
vt 0.267141 0.479233
vt 0.299967 0.479233
vt 0.267141 0.479233
vt 0.299967 0.479233
vt 0.234315 0.479233
vt 0.332137 0.086823
vt 0.299968 0.086823
vt 0.332137 0.086823
vt 0.267141 0.086823
vt 0.299968 0.479233
vt 0.332137 0.479233
vt 0.299967 0.479233
vt 0.267141 0.479233
vt 0.267141 0.086823
vt 0.299967 0.086823
vt 0.299968 0.086823
vt 0.267141 0.086823
vt 0.299968 0.479233
vt 0.267141 0.479233
vt 0.267141 0.479233
vt 0.299967 0.479233
vt 0.240511 0.086823
vt 0.240512 0.086823
vt 0.329696 0.086823
vt 0.240511 0.086823
vt 0.299967 0.479233
vt 0.240512 0.086823
vt 0.329696 0.086823
vt 0.240511 0.086823
vt 0.234069 0.086823
vt 0.234069 0.086823
vt 0.299968 0.086823
vt 0.299967 0.086823
vt 0.229572 0.479233
vt 0.234069 0.086823
vt 0.330618 0.086823
vt 0.234069 0.086823
vt 0.267141 0.086823
vt 0.267141 0.479233
vt 0.332137 0.479233
vt 0.332137 0.479233
vt 0.267141 0.479233
vt 0.267141 0.479233
vt 0.267141 0.086823
vt 0.267141 0.086823
vt 0.299967 0.086823
vt 0.299968 0.086823
vt 0.267141 0.086823
vt 0.267141 0.479233
vt 0.299968 0.086823
vt 0.299968 0.479233
vt 0.267141 0.479233
vt 0.267141 0.086823
vt 0.299967 0.086823
vt 0.267141 0.479233
vt 0.299967 0.479233
vt 0.267141 0.479233
vt 0.234069 0.086823
vt 0.330618 0.086823
vt 0.299968 0.086823
vt 0.330618 0.086823
vt 0.234069 0.086823
vt 0.299967 0.086823
vt 0.267141 0.086823
vt 0.267141 0.479233
vt 0.267141 0.086823
vt 0.267141 0.086823
vt 0.332137 0.086823
vt 0.267141 0.086823
vt 0.267141 0.086823
vt 0.332137 0.086823
vt 0.299968 0.086823
vt 0.299967 0.086823
vt 0.299967 0.086823
vt 0.299967 0.086823
vt 0.299967 0.086823
vt 0.267141 0.086823
vt 0.234069 0.086823
vt 0.234069 0.086823
vt 0.330618 0.086823
vt 0.229572 0.479233
vt 0.234069 0.086823
vt 0.229572 0.479233
vt 0.234069 0.086823
vt 0.229572 0.479233
vt 0.299968 0.086823
vt 0.299968 0.086823
vt 0.234069 0.086823
vt 0.299967 0.086823
vt 0.299967 0.086823
vt 0.234069 0.086823
vt 0.267141 0.086823
vt 0.299968 0.086823
vt 0.299968 0.086823
vt 0.299968 0.086823
vt 0.240511 0.086823
vt 0.240511 0.086823
vt 0.329695 0.086823
vt 0.299967 0.479233
vt 0.240512 0.086823
vt 0.299968 0.479233
vt 0.299967 0.086823
vt 0.299967 0.086823
vt 0.329695 0.086823
vt 0.240512 0.086823
vt 0.299968 0.479233
vt 0.299968 0.086823
vt 0.299968 0.086823
vt 0.240512 0.086823
vt 0.299968 0.086823
vt 0.299968 0.086823
vt 0.240512 0.086823
vt 0.299967 0.086823
vt 0.299967 0.086823
vt 0.240511 0.086823
vt 0.299967 0.479233
vt 0.299968 0.479233
vt 0.299968 0.479233
vt 0.299967 0.479233
vt 0.109300 0.444763
vt 0.109299 0.444763
vt 0.109299 0.444763
vt 0.109300 0.444763
vt 0.172323 0.065434
vt 0.172323 0.065434
vt 0.172323 0.065434
vt 0.172323 0.065434
vt 0.172323 0.065434
vt 0.172323 0.065434
vt 0.172323 0.065434
vt 0.172323 0.065434
vt 0.172323 0.065434
vt 0.172323 0.065434
vt 0.172323 0.065434
vt 0.172323 0.065434
vt 0.172323 0.065434
vt 0.172323 0.065434
vt 0.172323 0.065434
vt 0.172323 0.065434
vt 0.299967 0.479233
vt 0.299967 0.479233
vt 0.299967 0.479233
vt 0.299967 0.479233
vt 0.894500 0.774335
vt 0.894500 0.974338
vt 0.794386 0.974338
vt 0.794386 0.774335
vt 0.229572 0.479233
vt 0.229572 0.479233
vt 0.229572 0.479233
vt 0.229572 0.479233
vt 0.141223 0.064646
vt 0.141223 0.064646
vt 0.141223 0.064646
vt 0.141223 0.064646
vt 0.229572 0.479233
vt 0.229572 0.479233
vt 0.229572 0.479233
vt 0.229572 0.479233
vt 0.229572 0.479233
vt 0.229572 0.479233
vt 0.229572 0.479233
vt 0.229572 0.479233
vt 0.237542 0.479233
vt 0.237541 0.479233
vt 0.237541 0.479233
vt 0.237542 0.479233
vt 0.299968 0.479233
vt 0.237541 0.479233
vt 0.237541 0.479233
vt 0.237542 0.479233
vt 0.237542 0.479233
vt 0.237542 0.479233
vt 0.237542 0.479233
vt 0.299968 0.479233
vt 0.237541 0.479233
vt 0.299967 0.479233
vt 0.299968 0.479233
vt 0.237542 0.479233
vt 0.237541 0.479233
vt 0.299967 0.479233
vt 0.299967 0.479233
vt 0.237541 0.479233
vt 0.299968 0.479233
vt 0.237542 0.479233
vt 0.299967 0.479233
vt 0.237541 0.479233
vt 0.332137 0.479233
vt 0.332137 0.479233
vt 0.332137 0.479233
vt 0.332137 0.479233
vt 0.203806 0.333032
vt 0.203806 0.333032
vt 0.237933 0.330165
vt 0.237933 0.330165
vt 0.887824 0.690906
vt 0.999037 0.690906
vt 0.999037 0.755888
vt 0.887824 0.755888
vt 0.358299 0.333031
vt 0.358299 0.333031
vt 0.358299 0.333031
vt 0.358299 0.333031
vt 0.237933 0.330165
vt 0.237933 0.330165
vt 0.237933 0.330165
vt 0.237933 0.330165
vt 0.237933 0.330165
vt 0.237933 0.330165
vt 0.203806 0.333032
vt 0.203806 0.333032
vn 0.000000 0.000000 -1.000000
vn 0.000000 0.000000 -1.000000
vn 0.000000 0.000000 -1.000000
vn 0.000000 0.000000 -1.000000
vn 0.000000 1.000000 0.000000
vn 0.000000 1.000000 0.000000
vn 0.000000 1.000000 0.000000
vn 0.000000 1.000000 0.000000
vn 0.000000 0.000000 1.000000
vn 0.000000 0.000000 1.000000
vn 0.000000 0.000000 1.000000
vn 0.000000 0.000000 1.000000
vn 0.000000 -1.000000 0.000000
vn 0.000000 -1.000000 0.000000
vn 0.000000 -1.000000 0.000000
vn 0.000000 -1.000000 0.000000
vn -1.000000 -0.000000 0.000000
vn -1.000000 -0.000000 0.000000
vn -1.000000 -0.000000 0.000000
vn -1.000000 -0.000000 0.000000
vn 1.000000 -0.000000 0.000000
vn 1.000000 -0.000000 0.000000
vn 1.000000 -0.000000 0.000000
vn 1.000000 -0.000000 0.000000
vn 0.000000 0.418137 0.908384
vn 0.000000 0.418137 0.908384
vn 0.000000 0.418137 0.908384
vn 0.000000 0.418137 0.908384
vn -1.000000 0.000000 0.000000
vn -1.000000 0.000000 0.000000
vn -1.000000 0.000000 0.000000
vn -1.000000 0.000000 0.000000
vn 0.000000 0.000000 -1.000000
vn 0.000000 0.000000 -1.000000
vn 0.000000 0.000000 -1.000000
vn 0.000000 0.000000 -1.000000
vn 1.000000 0.000000 0.000000
vn 1.000000 0.000000 0.000000
vn 1.000000 0.000000 0.000000
vn 1.000000 0.000000 0.000000
vn 0.000000 0.418135 0.908385
vn 0.000000 0.418135 0.908385
vn 0.000000 0.418135 0.908385
vn 0.000000 0.418135 0.908385
vn -0.000000 0.418135 0.908385
vn -0.000000 0.418135 0.908385
vn -0.000000 0.418135 0.908385
vn -0.000000 0.418135 0.908385
vn 0.000000 0.418134 0.908385
vn 0.000000 0.418134 0.908385
vn 0.000000 0.418134 0.908385
vn 0.000000 0.418134 0.908385
vn 0.000000 0.418135 0.908385
vn 0.000000 0.418135 0.908385
vn 0.000000 0.418135 0.908385
vn 0.000000 0.418135 0.908385
vn 0.000000 -1.000000 0.000000
vn 0.000000 -1.000000 0.000000
vn 0.000000 -1.000000 0.000000
vn 0.000000 -1.000000 0.000000
vn 1.000000 0.000000 0.000000
vn 1.000000 0.000000 0.000000
vn 1.000000 0.000000 0.000000
vn 1.000000 0.000000 0.000000
vn 0.000000 1.000000 0.000000
vn 0.000000 1.000000 0.000000
vn 0.000000 1.000000 0.000000
vn 0.000000 1.000000 0.000000
vn -1.000000 -0.000000 0.000000
vn -1.000000 -0.000000 0.000000
vn -1.000000 -0.000000 0.000000
vn -1.000000 -0.000000 0.000000
vn 0.000000 0.000000 1.000000
vn 0.000000 0.000000 1.000000
vn 0.000000 0.000000 1.000000
vn 0.000000 0.000000 1.000000
vn 0.000000 0.000000 1.000000
vn 0.000000 0.000000 1.000000
vn 0.000000 0.000000 1.000000
vn 0.000000 0.000000 1.000000
vn 0.000000 -1.000000 0.000000
vn 0.000000 -1.000000 0.000000
vn 0.000000 -1.000000 0.000000
vn 0.000000 -1.000000 0.000000
vn 1.000000 0.000000 0.000000
vn 1.000000 0.000000 0.000000
vn 1.000000 0.000000 0.000000
vn 1.000000 0.000000 0.000000
vn 0.000000 1.000000 0.000000
vn 0.000000 1.000000 0.000000
vn 0.000000 1.000000 0.000000
vn 0.000000 1.000000 0.000000
vn -1.000000 0.000000 0.000000
vn -1.000000 0.000000 0.000000
vn -1.000000 0.000000 0.000000
vn -1.000000 0.000000 0.000000
vn 1.000000 0.000000 0.000000
vn 1.000000 -0.000000 0.000000
vn 1.000000 -0.000000 0.000000
vn 1.000000 0.000000 0.000000
vn 1.000000 0.000000 0.000000
vn 1.000000 0.000000 0.000000
vn 1.000000 0.000000 0.000000
vn 1.000000 0.000000 0.000000
vn 0.000000 1.000000 0.000000
vn 0.000000 1.000000 0.000000
vn 0.000000 1.000000 0.000000
vn 0.000000 1.000000 0.000000
vn -1.000000 0.000000 0.000000
vn -1.000000 0.000000 0.000000
vn -1.000000 0.000000 0.000000
vn -1.000000 0.000000 0.000000
vn -1.000000 -0.000000 0.000000
vn -1.000000 -0.000000 0.000000
vn -1.000000 0.000000 0.000000
vn -1.000000 0.000000 0.000000
vn 1.000000 -0.000000 0.000000
vn 1.000000 -0.000000 0.000000
vn 1.000000 0.000000 0.000000
vn 1.000000 0.000000 0.000000
vn -0.000000 0.000000 1.000000
vn -0.000000 0.000000 1.000000
vn -0.000000 0.000000 1.000000
vn -0.000000 0.000000 1.000000
vn 0.000000 0.000000 1.000000
vn 0.000000 0.000000 1.000000
vn 0.000000 0.000000 1.000000
vn 0.000000 0.000000 1.000000
vn 0.000000 0.000000 1.000000
vn 0.000000 0.000000 1.000000
vn 0.000000 0.000000 1.000000
vn 0.000000 0.000000 1.000000
vn -1.000000 0.000000 0.000000
vn -1.000000 -0.000000 0.000000
vn -1.000000 -0.000000 0.000000
vn -1.000000 0.000000 0.000000
vn 0.000000 0.418132 0.908386
vn 0.000000 0.418132 0.908386
vn 0.000000 0.418132 0.908386
vn 0.000000 0.418132 0.908386
vn 0.000000 0.418135 0.908385
vn 0.000000 0.418135 0.908385
vn 0.000000 0.418135 0.908385
vn 0.000000 0.418135 0.908385
vn 0.000000 0.418133 0.908386
vn 0.000000 0.418133 0.908386
vn 0.000000 0.418133 0.908386
vn 0.000000 0.418133 0.908386
vn 0.000000 0.418136 0.908385
vn 0.000000 0.418136 0.908385
vn 0.000000 0.418136 0.908385
vn 0.000000 0.418136 0.908385
vn 0.000000 0.418131 0.908387
vn 0.000000 0.418131 0.908387
vn 0.000000 0.418131 0.908387
vn 0.000000 0.418131 0.908387
vn 0.000001 0.418136 0.908384
vn 0.000001 0.418136 0.908384
vn 0.000001 0.418136 0.908384
vn 0.000001 0.418136 0.908384
vn 0.000000 0.418132 0.908386
vn 0.000000 0.418132 0.908386
vn 0.000000 0.418132 0.908386
vn 0.000000 0.418132 0.908386
vn -0.000001 0.418136 0.908384
vn -0.000001 0.418136 0.908384
vn -0.000001 0.418136 0.908384
vn -0.000001 0.418136 0.908384
vn 0.000002 0.418135 0.908385
vn 0.000002 0.418135 0.908385
vn 0.000002 0.418135 0.908385
vn 0.000002 0.418135 0.908385
vn -0.000001 0.418135 0.908385
vn -0.000001 0.418135 0.908385
vn -0.000001 0.418135 0.908385
vn -0.000001 0.418135 0.908385
vn -0.000002 0.418136 0.908385
vn -0.000002 0.418136 0.908385
vn -0.000002 0.418136 0.908385
vn -0.000002 0.418136 0.908385
vn 0.000000 0.418134 0.908386
vn 0.000000 0.418134 0.908386
vn 0.000000 0.418134 0.908386
vn 0.000000 0.418134 0.908386
vn 0.000000 0.000000 1.000000
vn 0.000000 0.000000 1.000000
vn 0.000000 0.000000 1.000000
vn 0.000000 0.000000 1.000000
vn 0.000000 0.000000 1.000000
vn 0.000000 0.000000 1.000000
vn 0.000000 0.000000 1.000000
vn 0.000000 0.000000 1.000000
vn 0.000000 0.000000 1.000000
vn 0.000000 0.000000 1.000000
vn 0.000000 0.000000 1.000000
vn 0.000000 0.000000 1.000000
vn -0.000000 0.000000 1.000000
vn -0.000000 0.000000 1.000000
vn -0.000000 0.000000 1.000000
vn -0.000000 0.000000 1.000000
vn 0.000000 0.000000 1.000000
vn 0.000000 0.000000 1.000000
vn 0.000000 0.000000 1.000000
vn 0.000000 0.000000 1.000000
vn -0.000001 0.000000 1.000000
vn -0.000001 0.000000 1.000000
vn -0.000001 0.000000 1.000000
vn -0.000001 0.000000 1.000000
vn 0.000000 0.000000 1.000000
vn 0.000000 0.000000 1.000000
vn 0.000000 0.000000 1.000000
vn 0.000000 0.000000 1.000000
vn 0.000001 0.000000 1.000000
vn 0.000001 0.000000 1.000000
vn 0.000001 0.000000 1.000000
vn 0.000001 0.000000 1.000000
vn 0.000000 0.000000 1.000000
vn 0.000000 0.000000 1.000000
vn 0.000000 0.000000 1.000000
vn 0.000000 0.000000 1.000000
vn 0.000000 0.000000 1.000000
vn 0.000000 0.000000 1.000000
vn 0.000000 0.000000 1.000000
vn 0.000000 0.000000 1.000000
vn 0.000000 0.000000 1.000000
vn 0.000000 0.000000 1.000000
vn 0.000000 0.000000 1.000000
vn 0.000000 0.000000 1.000000
vn -0.000000 0.000000 1.000000
vn -0.000000 0.000000 1.000000
vn -0.000000 0.000000 1.000000
vn -0.000000 0.000000 1.000000
vn 0.000000 1.000000 -0.000000
vn 0.000000 1.000000 -0.000000
vn 0.000000 1.000000 -0.000000
vn 0.000000 1.000000 -0.000000
vn 0.000000 1.000000 0.000000
vn 0.000000 1.000000 0.000000
vn 0.000000 1.000000 0.000000
vn 0.000000 1.000000 0.000000
vn 0.000000 1.000000 0.000000
vn 0.000000 1.000000 0.000000
vn 0.000000 1.000000 0.000000
vn 0.000000 1.000000 0.000000
vn 0.000000 1.000000 0.000000
vn 0.000000 1.000000 0.000000
vn 0.000000 1.000000 0.000000
vn 0.000000 1.000000 0.000000
vn 0.000000 0.000000 -1.000000
vn 0.000000 0.000000 -1.000000
vn 0.000000 0.000000 -1.000000
vn 0.000000 0.000000 -1.000000
vn -1.000000 0.000000 0.000000
vn -1.000000 0.000000 0.000000
vn -1.000000 0.000000 0.000000
vn -1.000000 0.000000 0.000000
vn 0.000000 0.000000 1.000000
vn 0.000000 0.000000 1.000000
vn 0.000000 0.000000 1.000000
vn 0.000000 0.000000 1.000000
vn 1.000000 0.000000 0.000000
vn 1.000000 0.000000 0.000000
vn 1.000000 0.000000 0.000000
vn 1.000000 0.000000 0.000000
s off
f 1/15/1 2/11/2 11/29/3 12/32/4
f 30/82/5 31/79/6 6/17/7 5/19/8
f 49/163/9 50/164/10 51/165/11 52/166/12
f 7/8/13 8/10/14 2/2/15 1/16/16
f 35/63/17 36/60/18 2/12/19 8/7/20
f 7/14/21 1/1/22 33/68/23 34/66/24
f 41/131/25 42/132/26 43/133/27 44/134/28
f 31/80/29 32/77/30 10/103/31 6/5/32
f 12/32/33 11/29/34 4/21/35 3/23/36
f 9/88/37 29/75/38 30/81/39 5/20/40
f 5/84/41 6/18/42 14/122/43 13/124/44
f 6/83/45 10/104/46 15/119/47 14/121/48
f 10/105/49 9/86/50 16/114/51 15/118/52
f 9/87/53 5/6/54 13/125/55 16/113/56
f 13/33/57 14/123/58 18/116/59 17/107/60
f 14/34/61 15/120/62 19/111/63 18/38/64
f 15/35/65 16/115/66 20/109/67 19/39/68
f 16/36/69 13/126/70 17/108/71 20/40/72
f 9/85/73 10/106/74 22/98/75 21/100/76
f 58/179/77 57/192/78 59/188/79 60/186/80
f 21/41/81 22/99/82 26/95/83 25/89/84
f 22/42/85 23/69/86 27/93/87 26/46/88
f 23/70/89 24/72/90 28/91/91 27/47/92
f 24/73/93 21/102/94 25/90/95 28/48/96
f 29/76/97 33/68/98 1/1/99 12/31/100
f 30/50/101 29/76/102 12/31/103 3/24/104
f 65/211/105 66/212/106 67/213/107 68/214/108
f 11/30/109 32/54/110 31/53/111 4/3/112
f 2/12/113 36/60/114 32/54/115 11/30/116
f 34/56/117 33/55/118 29/49/119 9/25/120
f 34/65/121 9/26/122 21/101/123 24/74/124
f 35/61/125 34/57/126 24/44/127 23/71/128
f 10/27/129 35/58/130 23/43/131 22/97/132
f 32/78/133 36/64/134 35/59/135 10/28/136
f 17/37/137 18/117/138 38/128/139 37/127/140
f 18/117/141 19/112/142 39/129/143 38/128/144
f 19/112/145 20/110/146 40/130/147 39/129/148
f 46/155/149 45/156/150 47/157/151 48/158/152
f 37/135/153 38/149/154 42/147/155 41/138/156
f 38/136/157 39/148/158 43/145/159 42/137/160
f 39/139/161 40/146/162 44/144/163 43/140/164
f 40/141/165 37/150/166 41/143/167 44/142/168
f 20/110/169 17/37/170 45/152/171 46/151/172
f 17/37/173 37/127/174 47/153/175 45/152/176
f 37/127/177 40/130/178 48/154/179 47/153/180
f 40/130/181 20/110/182 46/151/183 48/154/184
f 25/45/185 26/173/186 50/171/187 49/159/188
f 26/96/189 27/172/190 51/169/191 50/160/192
f 27/94/193 28/170/194 52/168/195 51/161/196
f 28/92/197 25/174/198 49/167/199 52/162/200
f 8/9/201 7/13/202 53/197/203 54/195/204
f 7/13/205 34/67/206 55/193/207 53/197/208
f 34/67/209 35/62/210 56/189/211 55/193/212
f 35/62/213 8/9/214 54/195/215 56/189/216
f 54/175/217 53/198/218 57/191/219 58/183/220
f 53/176/221 55/194/222 59/187/223 57/180/224
f 55/177/225 56/190/226 60/185/227 59/181/228
f 56/178/229 54/196/230 58/184/231 60/182/232
f 3/4/233 4/22/234 62/200/235 61/199/236
f 4/22/237 31/52/238 63/201/239 62/200/240
f 31/52/241 30/51/242 64/202/243 63/201/244
f 30/51/245 3/4/246 61/199/247 64/202/248
f 61/203/249 62/204/250 66/221/251 65/222/252
f 62/205/253 63/206/254 67/215/255 66/216/256
f 63/207/257 64/208/258 68/209/259 67/210/260
f 64/217/261 61/218/262 65/219/263 68/220/264
