# This file uses centimeters as units for non-parametric coordinates.

v -0.051952 0.180426 0.268085
v 0.064534 0.180426 0.268085
v -0.051952 0.202155 0.295089
v 0.064534 0.202155 0.295089
v -0.051952 0.292909 0.222062
v 0.064534 0.292909 0.222062
v -0.051952 0.271181 0.195059
v 0.064534 0.271181 0.195059
v -0.034110 0.216056 0.283903
v 0.046691 0.216056 0.283903
v 0.046691 0.279008 0.233248
v -0.034110 0.279008 0.233248
v -0.016774 0.241895 0.288361
v 0.029356 0.241895 0.288361
v 0.029356 0.277834 0.259442
v -0.016774 0.277834 0.259442
v -0.115743 0.215145 0.248588
v -0.050758 0.215145 0.248588
v -0.115743 0.227267 0.263652
v -0.050758 0.227267 0.263652
v -0.115743 0.277896 0.222913
v -0.050758 0.277896 0.222913
v -0.115743 0.265774 0.207849
v -0.050758 0.265774 0.207849
v -0.105789 0.235022 0.257412
v -0.060712 0.235022 0.257412
v -0.060712 0.270141 0.229153
v -0.105789 0.270141 0.229153
v -0.096118 0.249437 0.259899
v -0.070383 0.249437 0.259899
v -0.070383 0.269486 0.243766
v -0.096118 0.269486 0.243766
v 0.062226 0.215145 0.248588
v 0.127210 0.215145 0.248588
v 0.062226 0.227267 0.263652
v 0.127210 0.227267 0.263652
v 0.062226 0.277896 0.222913
v 0.127210 0.277896 0.222913
v 0.062226 0.265774 0.207849
v 0.127210 0.265774 0.207849
v 0.072180 0.235022 0.257412
v 0.117256 0.235022 0.257412
v 0.117256 0.270141 0.229153
v 0.072180 0.270141 0.229153
v 0.081851 0.249437 0.259899
v 0.107585 0.249437 0.259899
v 0.107585 0.269486 0.243766
v 0.081851 0.269486 0.243766
v -0.242058 0.226270 0.218605
v 0.247196 0.226270 0.218605
v -0.242058 0.264427 0.218605
v 0.247196 0.264427 0.218605
v -0.242058 0.264427 -0.270649
v 0.247196 0.264427 -0.270649
v -0.242058 0.226270 -0.270649
v 0.247196 0.226270 -0.270649
v -0.201353 0.264427 0.177900
v 0.206491 0.264427 0.177900
v 0.206491 0.264427 -0.229943
v -0.201353 0.264427 -0.229943
v -0.201353 0.226270 -0.229943
v 0.206491 0.226270 -0.229943
v 0.206491 0.226270 0.177900
v -0.201353 0.226270 0.177900
v -0.268725 0.000000 0.242362
v 0.268725 0.000000 0.242362
v -0.167419 0.412403 0.141056
v 0.167420 0.412403 0.141056
v -0.167419 0.412403 -0.193783
v 0.167420 0.412403 -0.193783
v -0.268725 0.000000 -0.295089
v 0.268725 0.000000 -0.295089
v -0.167419 0.291451 0.141056
v 0.167420 0.291451 0.141056
v 0.167420 0.291451 -0.193783
v -0.167419 0.291451 -0.193783
v -0.268725 0.185541 0.242362
v 0.268725 0.185541 0.242362
v 0.268725 0.185541 -0.295089
v -0.268725 0.185541 -0.295089
vt 0.537758 0.604969
vt 0.537758 0.604969
vt 0.537758 0.604969
vt 0.537758 0.604969
vt 0.356783 0.167986
vt 0.356783 0.167986
vt 0.356783 0.167986
vt 0.356783 0.167986
vt 0.537758 0.604969
vt 0.537758 0.604969
vt 0.537758 0.604969
vt 0.537758 0.604969
vt 0.507557 0.604969
vt 0.507557 0.604969
vt 0.507557 0.604969
vt 0.507557 0.604969
vt 0.525073 0.604969
vt 0.525073 0.604969
vt 0.525073 0.604969
vt 0.525073 0.604969
vt 0.525073 0.604969
vt 0.525073 0.604969
vt 0.525073 0.604969
vt 0.525073 0.604969
vt 0.555878 0.604969
vt 0.555878 0.604969
vt 0.555878 0.604969
vt 0.555878 0.604969
vt 0.555878 0.604969
vt 0.555878 0.604969
vt 0.555878 0.604969
vt 0.555878 0.604969
vt 0.555878 0.604969
vt 0.555878 0.604969
vt 0.555878 0.604969
vt 0.555878 0.604969
vt 0.555878 0.604969
vt 0.555878 0.604969
vt 0.555878 0.604969
vt 0.555878 0.604969
vt 0.328694 0.167986
vt 0.328694 0.167986
vt 0.328694 0.167986
vt 0.328694 0.167986
vt 0.293324 0.167986
vt 0.293324 0.167986
vt 0.293324 0.167986
vt 0.293324 0.167986
vt 0.328694 0.167986
vt 0.328694 0.167986
vt 0.328694 0.167986
vt 0.328694 0.167986
vt 0.293324 0.167986
vt 0.293324 0.167986
vt 0.293324 0.167986
vt 0.293324 0.167986
vt 0.537758 0.604969
vt 0.537758 0.604969
vt 0.537758 0.604969
vt 0.537758 0.604969
vt 0.356783 0.167986
vt 0.356783 0.167986
vt 0.356783 0.167986
vt 0.356783 0.167986
vt 0.537758 0.604969
vt 0.537758 0.604969
vt 0.537758 0.604969
vt 0.537758 0.604969
vt 0.507557 0.604969
vt 0.507557 0.604969
vt 0.507557 0.604969
vt 0.507557 0.604969
vt 0.525073 0.604969
vt 0.525073 0.604969
vt 0.525073 0.604969
vt 0.525073 0.604969
vt 0.525073 0.604969
vt 0.525073 0.604969
vt 0.525073 0.604969
vt 0.525073 0.604969
vt 0.555878 0.604969
vt 0.555878 0.604969
vt 0.555878 0.604969
vt 0.555878 0.604969
vt 0.555878 0.604969
vt 0.555878 0.604969
vt 0.555878 0.604969
vt 0.555878 0.604969
vt 0.555878 0.604969
vt 0.555878 0.604969
vt 0.555878 0.604969
vt 0.555878 0.604969
vt 0.555878 0.604969
vt 0.555878 0.604969
vt 0.555878 0.604969
vt 0.555878 0.604969
vt 0.328694 0.167986
vt 0.328694 0.167986
vt 0.328694 0.167986
vt 0.328694 0.167986
vt 0.293324 0.167986
vt 0.293324 0.167986
vt 0.293324 0.167986
vt 0.293324 0.167986
vt 0.328694 0.167986
vt 0.328694 0.167986
vt 0.328694 0.167986
vt 0.328694 0.167986
vt 0.293324 0.167986
vt 0.293324 0.167986
vt 0.293324 0.167986
vt 0.293324 0.167986
vt 0.537758 0.604969
vt 0.537758 0.604969
vt 0.537758 0.604969
vt 0.537758 0.604969
vt 0.356783 0.167986
vt 0.356783 0.167986
vt 0.356783 0.167986
vt 0.356783 0.167986
vt 0.537758 0.604969
vt 0.537758 0.604969
vt 0.537758 0.604969
vt 0.537758 0.604969
vt 0.507557 0.604969
vt 0.507557 0.604969
vt 0.507557 0.604969
vt 0.507557 0.604969
vt 0.525073 0.604969
vt 0.525073 0.604969
vt 0.525073 0.604969
vt 0.525073 0.604969
vt 0.525073 0.604969
vt 0.525073 0.604969
vt 0.525073 0.604969
vt 0.525073 0.604969
vt 0.555878 0.604969
vt 0.555878 0.604969
vt 0.555878 0.604969
vt 0.555878 0.604969
vt 0.555878 0.604969
vt 0.555878 0.604969
vt 0.555878 0.604969
vt 0.555878 0.604969
vt 0.555878 0.604969
vt 0.555878 0.604969
vt 0.555878 0.604969
vt 0.555878 0.604969
vt 0.555878 0.604969
vt 0.555878 0.604969
vt 0.555878 0.604969
vt 0.555878 0.604969
vt 0.328694 0.167986
vt 0.328694 0.167986
vt 0.328694 0.167986
vt 0.328694 0.167986
vt 0.293324 0.167986
vt 0.293324 0.167986
vt 0.293324 0.167986
vt 0.293324 0.167986
vt 0.328694 0.167986
vt 0.328694 0.167986
vt 0.328694 0.167986
vt 0.328694 0.167986
vt 0.293324 0.167986
vt 0.293324 0.167986
vt 0.293324 0.167986
vt 0.293324 0.167986
vt 0.539767 0.605154
vt 0.539767 0.605154
vt 0.539767 0.605154
vt 0.539767 0.605154
vt 0.539767 0.605154
vt 0.539767 0.605154
vt 0.539767 0.605154
vt 0.539767 0.605154
vt 0.522928 0.605154
vt 0.522928 0.605154
vt 0.522928 0.605154
vt 0.522928 0.605154
vt 0.522928 0.605154
vt 0.522928 0.605154
vt 0.522928 0.605154
vt 0.522928 0.605154
vt 0.556270 0.605154
vt 0.556270 0.605154
vt 0.556270 0.605154
vt 0.556270 0.605154
vt 0.556270 0.605154
vt 0.556270 0.605154
vt 0.556270 0.605154
vt 0.556270 0.605154
vt 0.556270 0.605154
vt 0.556270 0.605154
vt 0.556270 0.605154
vt 0.556270 0.605154
vt 0.556270 0.605154
vt 0.556270 0.605154
vt 0.556270 0.605154
vt 0.556270 0.605154
vt 0.506089 0.605154
vt 0.506089 0.605154
vt 0.506089 0.605154
vt 0.506089 0.605154
vt 0.506089 0.605154
vt 0.506089 0.605154
vt 0.506089 0.605154
vt 0.506089 0.605154
vt 0.506089 0.605154
vt 0.506089 0.605154
vt 0.506089 0.605154
vt 0.506089 0.605154
vt 0.506089 0.605154
vt 0.506089 0.605154
vt 0.506089 0.605154
vt 0.506089 0.605154
vt 0.521245 0.605139
vt 0.521245 0.605139
vt 0.521245 0.605139
vt 0.521245 0.605139
vt 0.505753 0.605149
vt 0.505753 0.605149
vt 0.505753 0.605149
vt 0.505753 0.605149
vt 0.505753 0.605149
vt 0.505753 0.605149
vt 0.505753 0.605149
vt 0.505753 0.605149
vt 0.521245 0.605139
vt 0.521245 0.605139
vt 0.521245 0.605139
vt 0.521245 0.605139
vt 0.196481 0.062493
vt 0.196481 0.062493
vt 0.196481 0.062493
vt 0.196481 0.062493
vt 0.231805 0.062493
vt 0.231805 0.062493
vt 0.231805 0.062493
vt 0.231805 0.062493
vt 0.196481 0.062493
vt 0.196481 0.062493
vt 0.196481 0.062493
vt 0.196481 0.062493
vt 0.137608 0.062493
vt 0.137607 0.062493
vt 0.137607 0.062493
vt 0.137608 0.062493
vt 0.171754 0.062493
vt 0.171754 0.062493
vt 0.171754 0.062493
vt 0.171754 0.062493
vt 0.171754 0.062493
vt 0.171754 0.062493
vt 0.171754 0.062493
vt 0.171754 0.062493
vt 0.228600 0.062493
vt 0.228600 0.062493
vt 0.228600 0.062493
vt 0.228600 0.062493
vt 0.203873 0.062493
vt 0.203873 0.062493
vt 0.203873 0.062493
vt 0.203873 0.062493
vt 0.228600 0.062493
vt 0.228600 0.062493
vt 0.228600 0.062493
vt 0.228600 0.062493
vt 0.203873 0.062493
vt 0.203873 0.062493
vt 0.203873 0.062493
vt 0.203873 0.062493
vt 0.196481 0.062493
vt 0.196481 0.062493
vt 0.196481 0.062493
vt 0.196481 0.062493
vt 0.171754 0.062493
vt 0.171754 0.062493
vt 0.171754 0.062493
vt 0.171754 0.062493
vt 0.196481 0.062493
vt 0.196481 0.062493
vt 0.196481 0.062493
vt 0.196481 0.062493
vt 0.171754 0.062493
vt 0.171754 0.062493
vt 0.171754 0.062493
vt 0.171754 0.062493
vn 0.000000 -0.779093 0.626908
vn 0.000000 -0.779093 0.626908
vn 0.000000 -0.779093 0.626908
vn 0.000000 -0.779093 0.626908
vn 0.000000 0.626908 0.779094
vn 0.000000 0.626908 0.779094
vn 0.000000 0.626908 0.779094
vn 0.000000 0.626908 0.779094
vn 0.000000 0.779094 -0.626907
vn 0.000000 0.779094 -0.626907
vn 0.000000 0.779094 -0.626907
vn 0.000000 0.779094 -0.626907
vn 0.000000 -0.626907 -0.779094
vn 0.000000 -0.626907 -0.779094
vn 0.000000 -0.626907 -0.779094
vn 0.000000 -0.626907 -0.779094
vn 1.000000 0.000000 0.000000
vn 1.000000 0.000000 0.000000
vn 1.000000 0.000000 0.000000
vn 1.000000 0.000000 0.000000
vn -1.000000 -0.000000 0.000000
vn -1.000000 -0.000000 0.000000
vn -1.000000 -0.000000 0.000000
vn -1.000000 -0.000000 0.000000
vn 0.000000 0.626908 0.779093
vn 0.000000 0.626908 0.779093
vn 0.000000 0.626908 0.779093
vn 0.000000 0.626908 0.779093
vn 0.000002 0.626907 0.779094
vn 0.000002 0.626907 0.779094
vn 0.000002 0.626907 0.779094
vn 0.000002 0.626907 0.779094
vn 0.000000 0.626910 0.779092
vn 0.000000 0.626910 0.779092
vn 0.000000 0.626910 0.779091
vn 0.000000 0.626910 0.779092
vn -0.000002 0.626907 0.779094
vn -0.000002 0.626907 0.779094
vn -0.000002 0.626907 0.779094
vn -0.000002 0.626907 0.779094
vn 0.000000 -0.170022 0.985440
vn 0.000000 -0.170022 0.985440
vn 0.000000 -0.170022 0.985440
vn 0.000000 -0.170022 0.985440
vn 0.750243 0.414488 0.515108
vn 0.750243 0.414488 0.515108
vn 0.750243 0.414488 0.515108
vn 0.750243 0.414488 0.515108
vn 0.000000 0.998997 0.044773
vn 0.000000 0.998997 0.044773
vn 0.000000 0.998997 0.044773
vn 0.000000 0.998997 0.044773
vn -0.750243 0.414488 0.515108
vn -0.750243 0.414487 0.515108
vn -0.750243 0.414487 0.515108
vn -0.750243 0.414488 0.515107
vn 0.000000 -0.779093 0.626908
vn 0.000000 -0.779093 0.626908
vn 0.000000 -0.779093 0.626908
vn 0.000000 -0.779093 0.626908
vn 0.000000 0.626908 0.779093
vn 0.000000 0.626908 0.779093
vn 0.000000 0.626908 0.779093
vn 0.000000 0.626908 0.779093
vn 0.000000 0.779095 -0.626906
vn 0.000000 0.779095 -0.626906
vn 0.000000 0.779095 -0.626906
vn 0.000000 0.779095 -0.626906
vn 0.000000 -0.626907 -0.779094
vn 0.000000 -0.626907 -0.779094
vn 0.000000 -0.626907 -0.779094
vn 0.000000 -0.626907 -0.779094
vn 1.000000 -0.000000 0.000000
vn 1.000000 -0.000000 0.000000
vn 1.000000 -0.000000 0.000000
vn 1.000000 -0.000000 0.000000
vn -1.000000 -0.000000 0.000000
vn -1.000000 -0.000000 0.000000
vn -1.000000 -0.000000 0.000000
vn -1.000000 -0.000000 0.000000
vn 0.000000 0.626909 0.779092
vn 0.000000 0.626909 0.779092
vn 0.000000 0.626909 0.779092
vn 0.000000 0.626909 0.779092
vn 0.000002 0.626907 0.779094
vn 0.000002 0.626907 0.779094
vn 0.000002 0.626907 0.779094
vn 0.000002 0.626907 0.779094
vn 0.000000 0.626911 0.779091
vn 0.000000 0.626911 0.779091
vn 0.000000 0.626911 0.779091
vn 0.000000 0.626911 0.779091
vn -0.000002 0.626907 0.779094
vn -0.000002 0.626907 0.779094
vn -0.000002 0.626908 0.779094
vn -0.000002 0.626908 0.779094
vn 0.000000 -0.170024 0.985440
vn 0.000000 -0.170024 0.985440
vn 0.000000 -0.170024 0.985440
vn 0.000000 -0.170024 0.985440
vn 0.750258 0.414477 0.515095
vn 0.750258 0.414477 0.515095
vn 0.750258 0.414477 0.515095
vn 0.750258 0.414477 0.515095
vn 0.000000 0.998997 0.044774
vn 0.000000 0.998997 0.044774
vn 0.000000 0.998997 0.044774
vn 0.000000 0.998997 0.044774
vn -0.750258 0.414477 0.515095
vn -0.750257 0.414477 0.515095
vn -0.750257 0.414477 0.515095
vn -0.750257 0.414477 0.515095
vn 0.000000 -0.779093 0.626908
vn 0.000000 -0.779093 0.626908
vn 0.000000 -0.779093 0.626908
vn 0.000000 -0.779093 0.626908
vn 0.000000 0.626908 0.779093
vn 0.000000 0.626908 0.779093
vn 0.000000 0.626908 0.779093
vn 0.000000 0.626908 0.779093
vn 0.000000 0.779095 -0.626906
vn 0.000000 0.779095 -0.626906
vn 0.000000 0.779095 -0.626906
vn 0.000000 0.779095 -0.626906
vn 0.000000 -0.626907 -0.779094
vn 0.000000 -0.626907 -0.779094
vn 0.000000 -0.626907 -0.779094
vn 0.000000 -0.626907 -0.779094
vn 1.000000 0.000000 0.000000
vn 1.000000 0.000000 0.000000
vn 1.000000 0.000000 0.000000
vn 1.000000 0.000000 0.000000
vn -1.000000 0.000000 0.000000
vn -1.000000 0.000000 0.000000
vn -1.000000 0.000000 0.000000
vn -1.000000 0.000000 0.000000
vn 0.000000 0.626909 0.779092
vn 0.000000 0.626909 0.779092
vn 0.000000 0.626909 0.779092
vn 0.000000 0.626909 0.779092
vn 0.000002 0.626908 0.779094
vn 0.000002 0.626908 0.779094
vn 0.000002 0.626908 0.779094
vn 0.000002 0.626908 0.779094
vn 0.000000 0.626911 0.779091
vn 0.000000 0.626911 0.779091
vn 0.000000 0.626911 0.779091
vn 0.000000 0.626911 0.779091
vn -0.000002 0.626908 0.779094
vn -0.000002 0.626908 0.779094
vn -0.000002 0.626908 0.779094
vn -0.000002 0.626908 0.779094
vn 0.000000 -0.170024 0.985440
vn 0.000000 -0.170024 0.985440
vn 0.000000 -0.170024 0.985440
vn 0.000000 -0.170024 0.985440
vn 0.750242 0.414488 0.515109
vn 0.750242 0.414488 0.515109
vn 0.750242 0.414488 0.515109
vn 0.750242 0.414488 0.515109
vn 0.000000 0.998997 0.044774
vn 0.000000 0.998997 0.044774
vn 0.000000 0.998997 0.044774
vn 0.000000 0.998997 0.044774
vn -0.750258 0.414477 0.515095
vn -0.750258 0.414477 0.515095
vn -0.750258 0.414477 0.515095
vn -0.750258 0.414477 0.515095
vn 0.000000 0.000000 1.000000
vn 0.000000 0.000000 1.000000
vn 0.000000 0.000000 1.000000
vn 0.000000 0.000000 1.000000
vn 0.000000 0.000000 -1.000000
vn 0.000000 0.000000 -1.000000
vn 0.000000 0.000000 -1.000000
vn 0.000000 0.000000 -1.000000
vn 1.000000 0.000000 0.000000
vn 1.000000 0.000000 0.000000
vn 1.000000 0.000000 0.000000
vn 1.000000 0.000000 0.000000
vn -1.000000 0.000000 0.000000
vn -1.000000 0.000000 0.000000
vn -1.000000 0.000000 0.000000
vn -1.000000 0.000000 0.000000
vn 0.000000 1.000000 0.000000
vn 0.000000 1.000000 0.000000
vn 0.000000 1.000000 0.000000
vn 0.000000 1.000000 0.000000
vn 0.000000 1.000000 0.000000
vn 0.000000 1.000000 0.000000
vn 0.000000 1.000000 0.000000
vn 0.000000 1.000000 0.000000
vn 0.000000 1.000000 -0.000000
vn 0.000000 1.000000 -0.000000
vn 0.000000 1.000000 -0.000000
vn 0.000000 1.000000 -0.000000
vn 0.000000 1.000000 0.000000
vn 0.000000 1.000000 0.000000
vn 0.000000 1.000000 0.000000
vn 0.000000 1.000000 0.000000
vn 0.000000 -1.000000 0.000000
vn 0.000000 -1.000000 0.000000
vn 0.000000 -1.000000 0.000000
vn 0.000000 -1.000000 0.000000
vn 0.000000 -1.000000 0.000000
vn 0.000000 -1.000000 0.000000
vn 0.000000 -1.000000 0.000000
vn 0.000000 -1.000000 0.000000
vn 0.000000 -1.000000 -0.000000
vn 0.000000 -1.000000 -0.000000
vn 0.000000 -1.000000 -0.000000
vn 0.000000 -1.000000 -0.000000
vn 0.000000 -1.000000 0.000000
vn 0.000000 -1.000000 0.000000
vn 0.000000 -1.000000 0.000000
vn 0.000000 -1.000000 0.000000
vn 0.000000 0.000000 1.000000
vn 0.000000 0.000000 1.000000
vn 0.000000 0.000000 1.000000
vn 0.000000 0.000000 1.000000
vn 1.000000 0.000000 0.000000
vn 1.000000 0.000000 0.000000
vn 1.000000 0.000000 0.000000
vn 1.000000 0.000000 0.000000
vn -1.000000 0.000000 0.000000
vn -1.000000 0.000000 0.000000
vn -1.000000 0.000000 0.000000
vn -1.000000 0.000000 0.000000
vn 0.000000 0.000000 -1.000000
vn 0.000000 0.000000 -1.000000
vn 0.000000 0.000000 -1.000000
vn 0.000000 0.000000 -1.000000
vn 0.000000 0.000000 1.000000
vn 0.000000 0.000000 1.000000
vn 0.000000 0.000000 1.000000
vn 0.000000 0.000000 1.000000
vn 0.000000 1.000000 0.000000
vn 0.000000 1.000000 0.000000
vn 0.000000 1.000000 0.000000
vn 0.000000 1.000000 0.000000
vn 0.000000 0.000000 -1.000000
vn 0.000000 0.000000 -1.000000
vn 0.000000 0.000000 -1.000000
vn 0.000000 0.000000 -1.000000
vn 0.000000 -1.000000 0.000000
vn 0.000000 -1.000000 0.000000
vn 0.000000 -1.000000 0.000000
vn 0.000000 -1.000000 0.000000
vn 1.000000 0.000000 0.000000
vn 1.000000 0.000000 0.000000
vn 1.000000 0.000000 0.000000
vn 1.000000 0.000000 0.000000
vn -1.000000 0.000000 0.000000
vn -1.000000 0.000000 0.000000
vn -1.000000 0.000000 0.000000
vn -1.000000 0.000000 0.000000
vn 0.000000 0.691224 0.722640
vn 0.000000 0.691224 0.722640
vn 0.000000 0.691224 0.722640
vn 0.000000 0.691224 0.722640
vn 0.722642 0.691222 0.000000
vn 0.722642 0.691222 0.000000
vn 0.722642 0.691222 0.000000
vn 0.722642 0.691222 0.000000
vn 0.000000 0.691224 -0.722640
vn 0.000000 0.691224 -0.722640
vn 0.000000 0.691224 -0.722640
vn 0.000000 0.691224 -0.722640
vn -0.722639 0.691226 0.000000
vn -0.722639 0.691226 0.000000
vn -0.722639 0.691226 0.000000
vn -0.722639 0.691226 0.000000
vn 0.000000 0.000000 1.000000
vn 0.000000 0.000000 1.000000
vn 0.000000 0.000000 1.000000
vn 0.000000 0.000000 1.000000
vn 1.000000 0.000000 0.000000
vn 1.000000 0.000000 0.000000
vn 1.000000 0.000000 0.000000
vn 1.000000 0.000000 0.000000
vn 0.000000 0.000000 -1.000000
vn 0.000000 0.000000 -1.000000
vn 0.000000 0.000000 -1.000000
vn 0.000000 0.000000 -1.000000
vn -1.000000 0.000000 0.000000
vn -1.000000 0.000000 0.000000
vn -1.000000 0.000000 0.000000
vn -1.000000 0.000000 0.000000
s off
f 1/1/1 2/2/2 4/3/3 3/4/4
f 13/5/5 14/6/6 15/7/7 16/8/8
f 5/9/9 6/10/10 8/11/11 7/12/12
f 7/13/13 8/14/14 2/15/15 1/16/16
f 2/17/17 8/18/18 6/19/19 4/20/20
f 7/21/21 1/22/22 3/23/23 5/24/24
f 3/25/25 4/26/26 10/27/27 9/28/28
f 4/29/29 6/30/30 11/31/31 10/32/32
f 6/33/33 5/34/34 12/35/35 11/36/36
f 5/37/37 3/38/38 9/39/39 12/40/40
f 9/41/41 10/42/42 14/43/43 13/44/44
f 10/45/45 11/46/46 15/47/47 14/48/48
f 11/49/49 12/50/50 16/51/51 15/52/52
f 12/53/53 9/54/54 13/55/55 16/56/56
f 17/57/57 18/58/58 20/59/59 19/60/60
f 29/61/61 30/62/62 31/63/63 32/64/64
f 21/65/65 22/66/66 24/67/67 23/68/68
f 23/69/69 24/70/70 18/71/71 17/72/72
f 18/73/73 24/74/74 22/75/75 20/76/76
f 23/77/77 17/78/78 19/79/79 21/80/80
f 19/81/81 20/82/82 26/83/83 25/84/84
f 20/85/85 22/86/86 27/87/87 26/88/88
f 22/89/89 21/90/90 28/91/91 27/92/92
f 21/93/93 19/94/94 25/95/95 28/96/96
f 25/97/97 26/98/98 30/99/99 29/100/100
f 26/101/101 27/102/102 31/103/103 30/104/104
f 27/105/105 28/106/106 32/107/107 31/108/108
f 28/109/109 25/110/110 29/111/111 32/112/112
f 33/113/113 34/114/114 36/115/115 35/116/116
f 45/117/117 46/118/118 47/119/119 48/120/120
f 37/121/121 38/122/122 40/123/123 39/124/124
f 39/125/125 40/126/126 34/127/127 33/128/128
f 34/129/129 40/130/130 38/131/131 36/132/132
f 39/133/133 33/134/134 35/135/135 37/136/136
f 35/137/137 36/138/138 42/139/139 41/140/140
f 36/141/141 38/142/142 43/143/143 42/144/144
f 38/145/145 37/146/146 44/147/147 43/148/148
f 37/149/149 35/150/150 41/151/151 44/152/152
f 41/153/153 42/154/154 46/155/155 45/156/156
f 42/157/157 43/158/158 47/159/159 46/160/160
f 43/161/161 44/162/162 48/163/163 47/164/164
f 44/165/165 41/166/166 45/167/167 48/168/168
f 49/169/169 50/170/170 52/171/171 51/172/172
f 53/173/173 54/174/174 56/175/175 55/176/176
f 50/177/177 56/178/178 54/179/179 52/180/180
f 55/181/181 49/182/182 51/183/183 53/184/184
f 51/185/185 52/186/186 58/187/187 57/188/188
f 52/189/189 54/190/190 59/191/191 58/192/192
f 54/193/193 53/194/194 60/195/195 59/196/196
f 53/197/197 51/198/198 57/199/199 60/200/200
f 55/201/201 56/202/202 62/203/203 61/204/204
f 56/205/205 50/206/206 63/207/207 62/208/208
f 50/209/209 49/210/210 64/211/211 63/212/212
f 49/213/213 55/214/214 61/215/215 64/216/216
f 59/217/217 60/218/218 61/219/219 62/220/220
f 60/221/221 57/222/222 64/223/223 61/224/224
f 59/225/225 62/226/226 63/227/227 58/228/228
f 58/229/229 63/230/230 64/231/231 57/232/232
f 73/233/233 74/234/234 68/235/235 67/236/236
f 67/237/237 68/238/238 70/239/239 69/240/240
f 69/241/241 70/242/242 75/243/243 76/244/244
f 71/245/245 72/246/246 66/247/247 65/248/248
f 74/249/249 75/250/250 70/251/251 68/252/252
f 76/253/253 73/254/254 67/255/255 69/256/256
f 77/257/257 78/258/258 74/259/259 73/260/260
f 78/261/261 79/262/262 75/263/263 74/264/264
f 76/265/265 75/266/266 79/267/267 80/268/268
f 80/269/269 77/270/270 73/271/271 76/272/272
f 65/273/273 66/274/274 78/275/275 77/276/276
f 66/277/277 72/278/278 79/279/279 78/280/280
f 80/281/281 79/282/282 72/283/283 71/284/284
f 71/285/285 65/286/286 77/287/287 80/288/288
