# This file uses centimeters as units for non-parametric coordinates.

v -0.268725 0.000000 0.237654
v 0.268725 0.000000 0.237654
v -0.167420 0.412403 0.136349
v 0.167420 0.412403 0.136349
v -0.167420 0.412403 -0.198491
v 0.167420 0.412403 -0.198491
v -0.268725 0.000000 -0.299796
v 0.268725 0.000000 -0.299796
v -0.167420 0.291451 0.136349
v 0.167420 0.291451 0.136349
v 0.167420 0.291451 -0.198491
v -0.167420 0.291451 -0.198491
v -0.268725 0.185541 0.237654
v 0.268725 0.185541 0.237654
v 0.268725 0.185541 -0.299796
v -0.268725 0.185541 -0.299796
v -0.015301 0.076183 0.272805
v 0.027881 0.076183 0.272805
v -0.015301 0.076318 0.285652
v 0.027881 0.076318 0.285652
v -0.015301 0.119498 0.285196
v 0.027881 0.119498 0.285196
v -0.015301 0.119362 0.272348
v 0.027881 0.119362 0.272348
v -0.008687 0.082932 0.285582
v 0.021267 0.082932 0.285582
v 0.021267 0.112884 0.285266
v -0.008687 0.112884 0.285266
v -0.002260 0.089436 0.292806
v 0.014841 0.089436 0.292806
v 0.014841 0.106535 0.292626
v -0.002260 0.106535 0.292626
v -0.026154 0.117554 0.273764
v 0.038735 0.117554 0.273764
v -0.026154 0.121191 0.292726
v 0.038735 0.121191 0.292726
v -0.026154 0.184919 0.280503
v 0.038735 0.184919 0.280503
v -0.026154 0.181282 0.261541
v 0.038735 0.181282 0.261541
v -0.016215 0.130952 0.290853
v 0.028796 0.130952 0.290853
v 0.028796 0.175157 0.282375
v -0.016215 0.175157 0.282375
v -0.006558 0.142501 0.299796
v 0.019139 0.142501 0.299796
v 0.019139 0.167737 0.294956
v -0.006558 0.167737 0.294956
v -0.052279 0.167976 0.257273
v 0.064860 0.167976 0.257273
v -0.052279 0.185030 0.287669
v 0.064860 0.185030 0.287669
v -0.052279 0.287189 0.230355
v 0.064860 0.287189 0.230355
v -0.052279 0.270135 0.199958
v 0.064860 0.270135 0.199958
v -0.034337 0.200678 0.278890
v 0.046917 0.200678 0.278890
v 0.046917 0.271541 0.239134
v -0.034337 0.271541 0.239134
v -0.016904 0.225560 0.287613
v 0.029484 0.225560 0.287613
v 0.029484 0.266016 0.264915
v -0.016904 0.266016 0.264915
v -0.242059 0.226270 0.213897
v 0.247195 0.226270 0.213897
v -0.242059 0.264427 0.213897
v 0.247195 0.264427 0.213897
v -0.242059 0.264427 -0.275356
v 0.247195 0.264427 -0.275356
v -0.242059 0.226270 -0.275356
v 0.247195 0.226270 -0.275356
v -0.201353 0.264427 0.173192
v 0.206490 0.264427 0.173192
v 0.206490 0.264427 -0.234651
v -0.201353 0.264427 -0.234651
v -0.201353 0.226270 -0.234651
v 0.206490 0.226270 -0.234651
v 0.206490 0.226270 0.173192
v -0.201353 0.226270 0.173192
vt 0.171754 0.062493
vt 0.196481 0.062493
vt 0.231805 0.062493
vt 0.171754 0.062493
vt 0.196481 0.062493
vt 0.231805 0.062493
vt 0.137608 0.062493
vt 0.196481 0.062493
vt 0.137608 0.062493
vt 0.137607 0.062493
vt 0.171754 0.062493
vt 0.171754 0.062493
vt 0.171754 0.062493
vt 0.171754 0.062493
vt 0.231805 0.062493
vt 0.196481 0.062493
vt 0.196481 0.062493
vt 0.231805 0.062493
vt 0.137607 0.062493
vt 0.196481 0.062493
vt 0.171754 0.062493
vt 0.196481 0.062493
vt 0.196481 0.062493
vt 0.171754 0.062493
vt 0.203873 0.062493
vt 0.196481 0.062493
vt 0.228600 0.062493
vt 0.171754 0.062493
vt 0.228600 0.062493
vt 0.203873 0.062493
vt 0.203873 0.062493
vt 0.228600 0.062493
vt 0.203873 0.062493
vt 0.228600 0.062493
vt 0.196481 0.062493
vt 0.171754 0.062493
vt 0.196481 0.062493
vt 0.171754 0.062493
vt 0.171754 0.062493
vt 0.196481 0.062493
vt 0.228600 0.062493
vt 0.203873 0.062493
vt 0.196481 0.062493
vt 0.171754 0.062493
vt 0.203873 0.062493
vt 0.228600 0.062493
vt 0.228600 0.062493
vt 0.203873 0.062493
vt 0.196481 0.062493
vt 0.203873 0.062493
vt 0.171754 0.062493
vt 0.228600 0.062493
vt 0.196481 0.062493
vt 0.171754 0.062493
vt 0.171754 0.062493
vt 0.196481 0.062493
vt 0.387218 0.086073
vt 0.387218 0.086073
vt 0.387218 0.086073
vt 0.387218 0.086073
vt 0.356783 0.195749
vt 0.356783 0.195749
vt 0.356783 0.195749
vt 0.356783 0.195749
vt 0.387218 0.086073
vt 0.387218 0.086073
vt 0.387218 0.086073
vt 0.387218 0.086073
vt 0.331382 0.086073
vt 0.331382 0.086073
vt 0.331382 0.086073
vt 0.331382 0.086073
vt 0.363766 0.086073
vt 0.363766 0.086073
vt 0.363766 0.086073
vt 0.363766 0.086073
vt 0.363766 0.086073
vt 0.363766 0.086073
vt 0.363766 0.086073
vt 0.363766 0.086073
vt 0.420719 0.086073
vt 0.420719 0.086073
vt 0.420719 0.086073
vt 0.420719 0.086073
vt 0.420719 0.086073
vt 0.420719 0.086073
vt 0.420719 0.086073
vt 0.420719 0.086073
vt 0.420719 0.086073
vt 0.420719 0.086073
vt 0.420719 0.086073
vt 0.420719 0.086073
vt 0.420719 0.086073
vt 0.420719 0.086073
vt 0.420719 0.086073
vt 0.420719 0.086073
vt 0.328694 0.195749
vt 0.328694 0.195749
vt 0.328694 0.195749
vt 0.328694 0.195749
vt 0.293324 0.195749
vt 0.293324 0.195749
vt 0.293324 0.195749
vt 0.293324 0.195749
vt 0.328694 0.195749
vt 0.328694 0.195749
vt 0.328694 0.195749
vt 0.328694 0.195749
vt 0.293324 0.195749
vt 0.293324 0.195749
vt 0.293324 0.195749
vt 0.293324 0.195749
vt 0.387218 0.086073
vt 0.387218 0.086073
vt 0.387218 0.086073
vt 0.387218 0.086073
vt 0.356783 0.195749
vt 0.356783 0.195749
vt 0.356783 0.195749
vt 0.356783 0.195749
vt 0.387218 0.086073
vt 0.387218 0.086073
vt 0.387218 0.086073
vt 0.387218 0.086073
vt 0.331382 0.086073
vt 0.331382 0.086073
vt 0.331382 0.086073
vt 0.331382 0.086073
vt 0.363766 0.086073
vt 0.363766 0.086073
vt 0.363766 0.086073
vt 0.363766 0.086073
vt 0.363766 0.086073
vt 0.363766 0.086073
vt 0.363766 0.086073
vt 0.363766 0.086073
vt 0.420719 0.086073
vt 0.420719 0.086073
vt 0.420719 0.086073
vt 0.420719 0.086073
vt 0.420719 0.086073
vt 0.420719 0.086073
vt 0.420719 0.086073
vt 0.420719 0.086073
vt 0.420719 0.086073
vt 0.420719 0.086073
vt 0.420719 0.086073
vt 0.420719 0.086073
vt 0.420719 0.086073
vt 0.420719 0.086073
vt 0.420719 0.086073
vt 0.420719 0.086073
vt 0.328694 0.195749
vt 0.328694 0.195749
vt 0.328694 0.195749
vt 0.328694 0.195749
vt 0.293324 0.195749
vt 0.293324 0.195749
vt 0.293324 0.195749
vt 0.293324 0.195749
vt 0.328694 0.195749
vt 0.328694 0.195749
vt 0.328694 0.195749
vt 0.328694 0.195749
vt 0.293324 0.195749
vt 0.293324 0.195749
vt 0.293324 0.195749
vt 0.293324 0.195749
vt 0.387218 0.086073
vt 0.387218 0.086073
vt 0.387218 0.086073
vt 0.387218 0.086073
vt 0.356783 0.195749
vt 0.356783 0.195749
vt 0.356783 0.195749
vt 0.356783 0.195749
vt 0.387218 0.086073
vt 0.387218 0.086073
vt 0.387218 0.086073
vt 0.387218 0.086073
vt 0.331382 0.086073
vt 0.331382 0.086073
vt 0.331382 0.086073
vt 0.331382 0.086073
vt 0.363766 0.086073
vt 0.363766 0.086073
vt 0.363766 0.086073
vt 0.363766 0.086073
vt 0.363766 0.086073
vt 0.363766 0.086073
vt 0.363766 0.086073
vt 0.363766 0.086073
vt 0.420719 0.086073
vt 0.420719 0.086073
vt 0.420719 0.086073
vt 0.420719 0.086073
vt 0.420719 0.086073
vt 0.420719 0.086073
vt 0.420719 0.086073
vt 0.420719 0.086073
vt 0.420719 0.086073
vt 0.420719 0.086073
vt 0.420719 0.086073
vt 0.420719 0.086073
vt 0.420719 0.086073
vt 0.420719 0.086073
vt 0.420719 0.086073
vt 0.420719 0.086073
vt 0.328694 0.195749
vt 0.328694 0.195749
vt 0.328694 0.195749
vt 0.328694 0.195749
vt 0.293324 0.195749
vt 0.293324 0.195749
vt 0.293324 0.195749
vt 0.293324 0.195749
vt 0.328694 0.195749
vt 0.328694 0.195749
vt 0.328694 0.195749
vt 0.328694 0.195749
vt 0.293324 0.195749
vt 0.293324 0.195749
vt 0.293324 0.195749
vt 0.293324 0.195749
vt 0.390933 0.086257
vt 0.390933 0.086257
vt 0.390933 0.086257
vt 0.390933 0.086257
vt 0.390933 0.086257
vt 0.390933 0.086257
vt 0.390933 0.086257
vt 0.390933 0.086257
vt 0.359801 0.086257
vt 0.359801 0.086257
vt 0.359801 0.086257
vt 0.359801 0.086257
vt 0.359800 0.086257
vt 0.359800 0.086257
vt 0.359800 0.086257
vt 0.359800 0.086257
vt 0.421443 0.086257
vt 0.421443 0.086257
vt 0.421443 0.086257
vt 0.421443 0.086257
vt 0.421443 0.086257
vt 0.421443 0.086257
vt 0.421443 0.086257
vt 0.421443 0.086257
vt 0.421443 0.086257
vt 0.421443 0.086257
vt 0.421443 0.086257
vt 0.421443 0.086257
vt 0.421443 0.086257
vt 0.421443 0.086257
vt 0.421443 0.086257
vt 0.421443 0.086257
vt 0.328668 0.086257
vt 0.328668 0.086257
vt 0.328668 0.086257
vt 0.328668 0.086257
vt 0.328668 0.086257
vt 0.328668 0.086257
vt 0.328668 0.086257
vt 0.328668 0.086257
vt 0.328668 0.086257
vt 0.328668 0.086257
vt 0.328668 0.086257
vt 0.328668 0.086257
vt 0.328668 0.086257
vt 0.328668 0.086257
vt 0.328668 0.086257
vt 0.328668 0.086257
vt 0.356687 0.086243
vt 0.356687 0.086243
vt 0.356687 0.086243
vt 0.356687 0.086243
vt 0.328045 0.086252
vt 0.328045 0.086252
vt 0.328045 0.086252
vt 0.328045 0.086252
vt 0.328045 0.086252
vt 0.328045 0.086252
vt 0.328045 0.086252
vt 0.328045 0.086252
vt 0.356687 0.086243
vt 0.356687 0.086243
vt 0.356687 0.086243
vt 0.356687 0.086243
vn 0.000000 0.000000 1.000000
vn 0.000000 0.000000 1.000000
vn 0.000000 0.000000 1.000000
vn 0.000000 0.000000 1.000000
vn 0.000000 1.000000 0.000000
vn 0.000000 1.000000 0.000000
vn 0.000000 1.000000 0.000000
vn 0.000000 1.000000 0.000000
vn 0.000000 0.000000 -1.000000
vn 0.000000 0.000000 -1.000000
vn 0.000000 0.000000 -1.000000
vn 0.000000 0.000000 -1.000000
vn 0.000000 -1.000000 0.000000
vn 0.000000 -1.000000 0.000000
vn 0.000000 -1.000000 0.000000
vn 0.000000 -1.000000 0.000000
vn 1.000000 0.000000 0.000000
vn 1.000000 0.000000 0.000000
vn 1.000000 0.000000 0.000000
vn 1.000000 0.000000 0.000000
vn -1.000000 0.000000 0.000000
vn -1.000000 0.000000 0.000000
vn -1.000000 0.000000 0.000000
vn -1.000000 0.000000 0.000000
vn 0.000000 0.691224 0.722640
vn 0.000000 0.691224 0.722640
vn 0.000000 0.691224 0.722640
vn 0.000000 0.691224 0.722640
vn 0.722641 0.691224 0.000000
vn 0.722641 0.691224 0.000000
vn 0.722641 0.691224 0.000000
vn 0.722641 0.691224 0.000000
vn 0.000000 0.691224 -0.722640
vn 0.000000 0.691224 -0.722640
vn 0.000000 0.691224 -0.722640
vn 0.000000 0.691224 -0.722640
vn -0.722641 0.691224 0.000000
vn -0.722641 0.691224 0.000000
vn -0.722641 0.691224 0.000000
vn -0.722641 0.691224 0.000000
vn 0.000000 0.000000 1.000000
vn 0.000000 0.000000 1.000000
vn 0.000000 0.000000 1.000000
vn 0.000000 0.000000 1.000000
vn 1.000000 0.000000 0.000000
vn 1.000000 0.000000 0.000000
vn 1.000000 0.000000 0.000000
vn 1.000000 0.000000 0.000000
vn 0.000000 0.000000 -1.000000
vn 0.000000 0.000000 -1.000000
vn 0.000000 0.000000 -1.000000
vn 0.000000 0.000000 -1.000000
vn -1.000000 0.000000 0.000000
vn -1.000000 0.000000 0.000000
vn -1.000000 0.000000 0.000000
vn -1.000000 0.000000 0.000000
vn 0.000000 -0.999944 0.010558
vn 0.000000 -0.999944 0.010558
vn 0.000000 -0.999944 0.010558
vn 0.000000 -0.999944 0.010558
vn 0.000000 0.010572 0.999944
vn 0.000000 0.010572 0.999944
vn 0.000000 0.010572 0.999944
vn 0.000000 0.010572 0.999944
vn 0.000000 0.999944 -0.010568
vn 0.000000 0.999944 -0.010568
vn 0.000000 0.999944 -0.010568
vn 0.000000 0.999944 -0.010568
vn 0.000000 -0.010572 -0.999944
vn 0.000000 -0.010572 -0.999944
vn 0.000000 -0.010572 -0.999944
vn 0.000000 -0.010572 -0.999944
vn 1.000000 0.000000 0.000000
vn 1.000000 0.000000 0.000000
vn 1.000000 0.000000 0.000000
vn 1.000000 0.000000 0.000000
vn -1.000000 0.000000 0.000000
vn -1.000000 0.000000 0.000000
vn -1.000000 0.000000 0.000000
vn -1.000000 0.000000 0.000000
vn 0.000000 0.010570 0.999944
vn 0.000000 0.010570 0.999944
vn 0.000000 0.010570 0.999944
vn 0.000000 0.010570 0.999944
vn -0.000002 0.010572 0.999944
vn -0.000002 0.010572 0.999944
vn -0.000002 0.010572 0.999944
vn -0.000002 0.010572 0.999944
vn 0.000000 0.010570 0.999944
vn 0.000000 0.010570 0.999944
vn 0.000000 0.010570 0.999944
vn 0.000000 0.010570 0.999944
vn 0.000004 0.010572 0.999944
vn 0.000004 0.010572 0.999944
vn 0.000004 0.010572 0.999944
vn 0.000004 0.010572 0.999944
vn 0.000000 -0.743210 0.669059
vn 0.000000 -0.743210 0.669059
vn 0.000000 -0.743210 0.669059
vn 0.000000 -0.743210 0.669059
vn 0.750249 0.006990 0.661118
vn 0.750249 0.006990 0.661118
vn 0.750249 0.006990 0.661118
vn 0.750249 0.006990 0.661118
vn 0.000000 0.757193 0.653191
vn 0.000000 0.757193 0.653191
vn 0.000000 0.757193 0.653191
vn 0.000000 0.757193 0.653191
vn -0.750237 0.006990 0.661132
vn -0.750237 0.006990 0.661132
vn -0.750237 0.006990 0.661132
vn -0.750237 0.006990 0.661132
vn 0.000000 -0.982100 0.188359
vn 0.000000 -0.982100 0.188359
vn 0.000000 -0.982100 0.188359
vn 0.000000 -0.982100 0.188359
vn 0.000000 0.188362 0.982100
vn 0.000000 0.188362 0.982100
vn 0.000000 0.188362 0.982100
vn 0.000000 0.188362 0.982100
vn 0.000000 0.982100 -0.188363
vn 0.000000 0.982100 -0.188363
vn 0.000000 0.982100 -0.188363
vn 0.000000 0.982100 -0.188363
vn 0.000000 -0.188361 -0.982100
vn 0.000000 -0.188361 -0.982100
vn 0.000000 -0.188361 -0.982100
vn 0.000000 -0.188361 -0.982100
vn 1.000000 0.000000 0.000000
vn 1.000000 0.000000 0.000000
vn 1.000000 0.000000 0.000000
vn 1.000000 0.000000 0.000000
vn -1.000000 0.000000 0.000000
vn -1.000000 0.000000 0.000000
vn -1.000000 0.000000 0.000000
vn -1.000000 0.000000 0.000000
vn 0.000000 0.188358 0.982100
vn 0.000000 0.188358 0.982100
vn 0.000000 0.188358 0.982100
vn 0.000000 0.188358 0.982100
vn 0.000000 0.188361 0.982100
vn 0.000000 0.188361 0.982100
vn 0.000000 0.188361 0.982100
vn 0.000000 0.188361 0.982100
vn 0.000000 0.188361 0.982100
vn 0.000000 0.188361 0.982100
vn 0.000000 0.188361 0.982100
vn 0.000000 0.188361 0.982100
vn 0.000000 0.188361 0.982100
vn 0.000000 0.188361 0.982100
vn 0.000000 0.188361 0.982100
vn 0.000000 0.188361 0.982100
vn 0.000000 -0.612276 0.790644
vn 0.000000 -0.612276 0.790644
vn 0.000000 -0.612276 0.790644
vn 0.000000 -0.612276 0.790644
vn 0.750247 0.124537 0.649323
vn 0.750247 0.124537 0.649323
vn 0.750247 0.124537 0.649323
vn 0.750247 0.124537 0.649323
vn 0.000000 0.861352 0.508009
vn 0.000000 0.861352 0.508009
vn 0.000000 0.861352 0.508009
vn 0.000000 0.861352 0.508009
vn -0.750246 0.124537 0.649324
vn -0.750246 0.124537 0.649323
vn -0.750246 0.124537 0.649323
vn -0.750246 0.124537 0.649324
vn 0.000000 -0.872122 0.489289
vn 0.000000 -0.872122 0.489289
vn 0.000000 -0.872122 0.489289
vn 0.000000 -0.872122 0.489289
vn 0.000000 0.489290 0.872121
vn 0.000000 0.489290 0.872121
vn 0.000000 0.489290 0.872121
vn 0.000000 0.489290 0.872121
vn 0.000000 0.872122 -0.489288
vn 0.000000 0.872122 -0.489288
vn 0.000000 0.872122 -0.489288
vn 0.000000 0.872122 -0.489288
vn 0.000000 -0.489289 -0.872122
vn 0.000000 -0.489289 -0.872122
vn 0.000000 -0.489289 -0.872122
vn 0.000000 -0.489289 -0.872122
vn 1.000000 0.000000 0.000000
vn 1.000000 0.000000 0.000000
vn 1.000000 0.000000 0.000000
vn 1.000000 0.000000 0.000000
vn -1.000000 0.000000 0.000000
vn -1.000000 0.000000 0.000000
vn -1.000000 0.000000 0.000000
vn -1.000000 0.000000 0.000000
vn 0.000000 0.489286 0.872123
vn 0.000000 0.489287 0.872123
vn 0.000000 0.489287 0.872123
vn 0.000000 0.489287 0.872123
vn 0.000001 0.489289 0.872122
vn 0.000001 0.489289 0.872122
vn 0.000001 0.489289 0.872122
vn 0.000001 0.489289 0.872122
vn 0.000000 0.489290 0.872121
vn 0.000000 0.489290 0.872121
vn 0.000000 0.489290 0.872121
vn 0.000000 0.489290 0.872121
vn -0.000001 0.489289 0.872122
vn -0.000001 0.489289 0.872122
vn -0.000001 0.489289 0.872122
vn -0.000001 0.489289 0.872122
vn 0.000000 -0.330804 0.943699
vn 0.000000 -0.330804 0.943699
vn 0.000000 -0.330804 0.943699
vn 0.000000 -0.330804 0.943699
vn 0.750243 0.323500 0.576614
vn 0.750243 0.323500 0.576614
vn 0.750243 0.323500 0.576614
vn 0.750243 0.323500 0.576614
vn 0.000000 0.977803 0.209528
vn 0.000000 0.977803 0.209528
vn 0.000000 0.977803 0.209528
vn 0.000000 0.977803 0.209528
vn -0.750243 0.323500 0.576614
vn -0.750243 0.323500 0.576614
vn -0.750243 0.323500 0.576614
vn -0.750243 0.323500 0.576614
vn 0.000000 0.000000 1.000000
vn 0.000000 0.000000 1.000000
vn 0.000000 0.000000 1.000000
vn 0.000000 0.000000 1.000000
vn 0.000000 0.000000 -1.000000
vn 0.000000 0.000000 -1.000000
vn 0.000000 0.000000 -1.000000
vn 0.000000 0.000000 -1.000000
vn 1.000000 0.000000 0.000000
vn 1.000000 0.000000 0.000000
vn 1.000000 0.000000 0.000000
vn 1.000000 0.000000 0.000000
vn -1.000000 0.000000 0.000000
vn -1.000000 0.000000 0.000000
vn -1.000000 0.000000 0.000000
vn -1.000000 0.000000 0.000000
vn 0.000000 1.000000 0.000000
vn 0.000000 1.000000 0.000000
vn 0.000000 1.000000 0.000000
vn 0.000000 1.000000 0.000000
vn 0.000000 1.000000 0.000000
vn 0.000000 1.000000 0.000000
vn 0.000000 1.000000 0.000000
vn 0.000000 1.000000 0.000000
vn 0.000000 1.000000 -0.000000
vn 0.000000 1.000000 -0.000000
vn 0.000000 1.000000 -0.000000
vn 0.000000 1.000000 -0.000000
vn 0.000000 1.000000 0.000000
vn 0.000000 1.000000 0.000000
vn 0.000000 1.000000 0.000000
vn 0.000000 1.000000 0.000000
vn 0.000000 -1.000000 0.000000
vn 0.000000 -1.000000 0.000000
vn 0.000000 -1.000000 0.000000
vn 0.000000 -1.000000 0.000000
vn 0.000000 -1.000000 0.000000
vn 0.000000 -1.000000 0.000000
vn 0.000000 -1.000000 0.000000
vn 0.000000 -1.000000 0.000000
vn 0.000000 -1.000000 -0.000000
vn 0.000000 -1.000000 -0.000000
vn 0.000000 -1.000000 -0.000000
vn 0.000000 -1.000000 -0.000000
vn 0.000000 -1.000000 0.000000
vn 0.000000 -1.000000 0.000000
vn 0.000000 -1.000000 0.000000
vn 0.000000 -1.000000 0.000000
vn 0.000000 0.000000 1.000000
vn 0.000000 0.000000 1.000000
vn 0.000000 0.000000 1.000000
vn 0.000000 0.000000 1.000000
vn 1.000000 0.000000 0.000000
vn 1.000000 0.000000 0.000000
vn 1.000000 0.000000 0.000000
vn 1.000000 0.000000 0.000000
vn -1.000000 0.000000 0.000000
vn -1.000000 0.000000 0.000000
vn -1.000000 0.000000 0.000000
vn -1.000000 0.000000 0.000000
vn 0.000000 0.000000 -1.000000
vn 0.000000 0.000000 -1.000000
vn 0.000000 0.000000 -1.000000
vn 0.000000 0.000000 -1.000000
s off
f 9/26/1 10/49/2 4/22/3 3/17/4
f 3/3/5 4/15/6 6/6/7 5/18/8
f 5/5/9 6/16/10 11/56/11 12/53/12
f 7/7/13 8/19/14 2/10/15 1/9/16
f 10/28/17 11/55/18 6/12/19 4/4/20
f 12/54/21 9/51/22 3/24/23 5/14/24
f 13/34/25 14/47/26 10/27/27 9/52/28
f 14/48/29 15/45/30 11/30/31 10/50/32
f 12/32/33 11/29/34 15/46/35 16/41/36
f 16/42/37 13/33/38 9/25/39 12/31/40
f 1/23/41 2/2/42 14/35/43 13/43/44
f 2/21/45 8/11/46 15/38/47 14/36/48
f 16/40/49 15/37/50 8/8/51 7/20/52
f 7/13/53 1/1/54 13/44/55 16/39/56
f 17/57/57 18/58/58 20/59/59 19/60/60
f 29/61/61 30/62/62 31/63/63 32/64/64
f 21/65/65 22/66/66 24/67/67 23/68/68
f 23/69/69 24/70/70 18/71/71 17/72/72
f 18/73/73 24/74/74 22/75/75 20/76/76
f 23/77/77 17/78/78 19/79/79 21/80/80
f 19/81/81 20/82/82 26/83/83 25/84/84
f 20/85/85 22/86/86 27/87/87 26/88/88
f 22/89/89 21/90/90 28/91/91 27/92/92
f 21/93/93 19/94/94 25/95/95 28/96/96
f 25/97/97 26/98/98 30/99/99 29/100/100
f 26/101/101 27/102/102 31/103/103 30/104/104
f 27/105/105 28/106/106 32/107/107 31/108/108
f 28/109/109 25/110/110 29/111/111 32/112/112
f 33/113/113 34/114/114 36/115/115 35/116/116
f 45/117/117 46/118/118 47/119/119 48/120/120
f 37/121/121 38/122/122 40/123/123 39/124/124
f 39/125/125 40/126/126 34/127/127 33/128/128
f 34/129/129 40/130/130 38/131/131 36/132/132
f 39/133/133 33/134/134 35/135/135 37/136/136
f 35/137/137 36/138/138 42/139/139 41/140/140
f 36/141/141 38/142/142 43/143/143 42/144/144
f 38/145/145 37/146/146 44/147/147 43/148/148
f 37/149/149 35/150/150 41/151/151 44/152/152
f 41/153/153 42/154/154 46/155/155 45/156/156
f 42/157/157 43/158/158 47/159/159 46/160/160
f 43/161/161 44/162/162 48/163/163 47/164/164
f 44/165/165 41/166/166 45/167/167 48/168/168
f 49/169/169 50/170/170 52/171/171 51/172/172
f 61/173/173 62/174/174 63/175/175 64/176/176
f 53/177/177 54/178/178 56/179/179 55/180/180
f 55/181/181 56/182/182 50/183/183 49/184/184
f 50/185/185 56/186/186 54/187/187 52/188/188
f 55/189/189 49/190/190 51/191/191 53/192/192
f 51/193/193 52/194/194 58/195/195 57/196/196
f 52/197/197 54/198/198 59/199/199 58/200/200
f 54/201/201 53/202/202 60/203/203 59/204/204
f 53/205/205 51/206/206 57/207/207 60/208/208
f 57/209/209 58/210/210 62/211/211 61/212/212
f 58/213/213 59/214/214 63/215/215 62/216/216
f 59/217/217 60/218/218 64/219/219 63/220/220
f 60/221/221 57/222/222 61/223/223 64/224/224
f 65/225/225 66/226/226 68/227/227 67/228/228
f 69/229/229 70/230/230 72/231/231 71/232/232
f 66/233/233 72/234/234 70/235/235 68/236/236
f 71/237/237 65/238/238 67/239/239 69/240/240
f 67/241/241 68/242/242 74/243/243 73/244/244
f 68/245/245 70/246/246 75/247/247 74/248/248
f 70/249/249 69/250/250 76/251/251 75/252/252
f 69/253/253 67/254/254 73/255/255 76/256/256
f 71/257/257 72/258/258 78/259/259 77/260/260
f 72/261/261 66/262/262 79/263/263 78/264/264
f 66/265/265 65/266/266 80/267/267 79/268/268
f 65/269/269 71/270/270 77/271/271 80/272/272
f 75/273/273 76/274/274 77/275/275 78/276/276
f 76/277/277 73/278/278 80/279/279 77/280/280
f 75/281/281 78/282/282 79/283/283 74/284/284
f 74/285/285 79/286/286 80/287/287 73/288/288
