# This file uses centimeters as units for non-parametric coordinates.

v 0.023311 -0.000000 0.183051
v 0.227859 -0.000000 0.183051
v 0.023311 0.103856 0.183051
v 0.227859 0.103856 0.183051
v 0.023311 0.103856 -0.183051
v 0.227859 0.103856 -0.183051
v 0.023311 -0.000000 -0.183051
v 0.227859 -0.000000 -0.183051
v 0.046727 0.103856 0.036304
v 0.204442 0.103856 0.036304
v 0.204442 0.103856 -0.161680
v 0.046727 0.103856 -0.161680
v 0.046727 0.049606 0.036304
v 0.204442 0.049606 0.036304
v 0.204442 0.049606 -0.161680
v 0.046727 0.049606 -0.161680
v -0.227861 -0.000000 0.183051
v -0.023312 -0.000000 0.183051
v -0.227861 0.103856 0.183051
v -0.023312 0.103856 0.183051
v -0.227861 0.103856 -0.183051
v -0.023312 0.103856 -0.183051
v -0.227861 -0.000000 -0.183051
v -0.023312 -0.000000 -0.183051
v -0.204444 0.103856 0.036304
v -0.046729 0.103856 0.036304
v -0.046729 0.103856 -0.161680
v -0.204444 0.103856 -0.161680
v -0.204444 0.049606 0.036304
v -0.046729 0.049606 0.036304
v -0.046729 0.049606 -0.161680
v -0.204444 0.049606 -0.161680
vt 0.267141 0.182188
vt 0.234315 0.182188
vt 0.267141 0.182188
vt 0.332137 0.182188
vt 0.267141 0.182188
vt 0.299967 0.182188
vt 0.267141 0.182188
vt 0.234315 0.182188
vt 0.299968 0.182188
vt 0.234315 0.182188
vt 0.299968 0.182188
vt 0.267141 0.182188
vt 0.299967 0.182188
vt 0.267141 0.182188
vt 0.299967 0.182188
vt 0.234315 0.182188
vt 0.332137 0.182188
vt 0.299968 0.182188
vt 0.332137 0.182188
vt 0.267141 0.182188
vt 0.299968 0.182188
vt 0.332137 0.182188
vt 0.299967 0.182188
vt 0.267141 0.182188
vt 0.264178 0.182188
vt 0.240064 0.182188
vt 0.264179 0.182188
vt 0.240064 0.182188
vt 0.240064 0.182188
vt 0.240064 0.182188
vt 0.264179 0.182188
vt 0.240064 0.182188
vt 0.299967 0.182188
vt 0.299968 0.182188
vt 0.299968 0.182188
vt 0.299967 0.182188
vt 0.240064 0.182188
vt 0.240064 0.182188
vt 0.264179 0.182188
vt 0.240064 0.182188
vt 0.299967 0.182188
vt 0.299968 0.182188
vt 0.299968 0.182188
vt 0.299967 0.182188
vt 0.234315 0.182188
vt 0.234315 0.182188
vt 0.234315 0.182188
vt 0.234315 0.182188
vt 0.267141 0.182188
vt 0.267141 0.182188
vt 0.267141 0.182188
vt 0.267141 0.182188
vt 0.267141 0.182188
vt 0.267141 0.182188
vt 0.267141 0.182188
vt 0.267141 0.182188
vt 0.332137 0.182188
vt 0.332137 0.182188
vt 0.240064 0.182188
vt 0.264178 0.182188
vt 0.332137 0.182188
vt 0.264179 0.182188
vt 0.332137 0.182188
vt 0.240064 0.182188
vt 0.264178 0.182188
vt 0.240064 0.182188
vt 0.264178 0.182188
vt 0.240064 0.182188
vt 0.240064 0.182188
vt 0.240064 0.182188
vt 0.332137 0.182188
vt 0.332137 0.182188
vt 0.264178 0.182188
vt 0.264179 0.182188
vt 0.240064 0.182188
vt 0.332137 0.182188
vt 0.332137 0.182188
vt 0.240064 0.182188
vt 0.332137 0.182188
vt 0.332137 0.182188
vt 0.264179 0.182188
vt 0.332137 0.182188
vt 0.332137 0.182188
vt 0.240064 0.182188
vt 0.332137 0.182188
vt 0.332137 0.182188
vt 0.332137 0.182188
vt 0.332137 0.182188
vt 0.264178 0.182188
vt 0.240064 0.182188
vt 0.264178 0.182188
vt 0.240064 0.182188
vt 0.240064 0.182188
vt 0.240064 0.182188
vt 0.332137 0.182188
vt 0.332137 0.182188
vt 0.264178 0.182188
vt 0.264179 0.182188
vt 0.240064 0.182188
vt 0.332137 0.182188
vt 0.332137 0.182188
vt 0.240064 0.182188
vt 0.332137 0.182188
vt 0.332137 0.182188
vt 0.264179 0.182188
vt 0.332137 0.182188
vt 0.332137 0.182188
vt 0.240064 0.182188
vt 0.332137 0.182188
vt 0.332137 0.182188
vt 0.332137 0.182188
vt 0.332137 0.182188
vn 0.000000 0.000000 1.000000
vn 0.000000 0.000000 1.000000
vn 0.000000 0.000000 1.000000
vn 0.000000 0.000000 1.000000
vn 0.000000 1.000000 0.000000
vn 0.000000 1.000000 0.000000
vn 0.000000 1.000000 0.000000
vn 0.000000 1.000000 0.000000
vn 0.000000 0.000000 -1.000000
vn 0.000000 0.000000 -1.000000
vn 0.000000 0.000000 -1.000000
vn 0.000000 0.000000 -1.000000
vn 0.000000 -1.000000 0.000000
vn 0.000000 -1.000000 0.000000
vn 0.000000 -1.000000 0.000000
vn 0.000000 -1.000000 0.000000
vn 1.000000 0.000000 0.000000
vn 1.000000 0.000000 0.000000
vn 1.000000 0.000000 0.000000
vn 1.000000 0.000000 0.000000
vn -1.000000 0.000000 0.000000
vn -1.000000 0.000000 0.000000
vn -1.000000 0.000000 0.000000
vn -1.000000 0.000000 0.000000
vn 0.000000 1.000000 -0.000000
vn 0.000000 1.000000 -0.000000
vn 0.000000 1.000000 -0.000000
vn 0.000000 1.000000 -0.000000
vn 0.000000 1.000000 0.000000
vn 0.000000 1.000000 0.000000
vn 0.000000 1.000000 0.000000
vn 0.000000 1.000000 0.000000
vn 0.000000 1.000000 0.000000
vn 0.000000 1.000000 0.000000
vn 0.000000 1.000000 0.000000
vn 0.000000 1.000000 0.000000
vn 0.000000 1.000000 0.000000
vn 0.000000 1.000000 0.000000
vn 0.000000 1.000000 0.000000
vn 0.000000 1.000000 0.000000
vn 0.000000 0.000000 -1.000000
vn 0.000000 0.000000 -1.000000
vn 0.000000 0.000000 -1.000000
vn 0.000000 0.000000 -1.000000
vn -1.000000 0.000000 0.000000
vn -1.000000 0.000000 0.000000
vn -1.000000 0.000000 0.000000
vn -1.000000 0.000000 0.000000
vn 0.000000 0.000000 1.000000
vn 0.000000 0.000000 1.000000
vn 0.000000 0.000000 1.000000
vn 0.000000 0.000000 1.000000
vn 1.000000 0.000000 0.000000
vn 1.000000 0.000000 0.000000
vn 1.000000 0.000000 0.000000
vn 1.000000 0.000000 0.000000
vn 0.000000 0.000000 1.000000
vn 0.000000 0.000000 1.000000
vn 0.000000 0.000000 1.000000
vn 0.000000 0.000000 1.000000
vn 0.000000 1.000000 0.000000
vn 0.000000 1.000000 0.000000
vn 0.000000 1.000000 0.000000
vn 0.000000 1.000000 0.000000
vn 0.000000 0.000000 -1.000000
vn 0.000000 0.000000 -1.000000
vn 0.000000 0.000000 -1.000000
vn 0.000000 0.000000 -1.000000
vn 0.000000 -1.000000 0.000000
vn 0.000000 -1.000000 0.000000
vn 0.000000 -1.000000 0.000000
vn 0.000000 -1.000000 0.000000
vn 1.000000 0.000000 0.000000
vn 1.000000 0.000000 0.000000
vn 1.000000 0.000000 0.000000
vn 1.000000 0.000000 0.000000
vn -1.000000 0.000000 0.000000
vn -1.000000 0.000000 0.000000
vn -1.000000 0.000000 0.000000
vn -1.000000 0.000000 0.000000
vn 0.000000 1.000000 0.000000
vn 0.000000 1.000000 0.000000
vn 0.000000 1.000000 0.000000
vn 0.000000 1.000000 0.000000
vn 0.000000 1.000000 0.000000
vn 0.000000 1.000000 0.000000
vn 0.000000 1.000000 0.000000
vn 0.000000 1.000000 0.000000
vn 0.000000 1.000000 0.000000
vn 0.000000 1.000000 0.000000
vn 0.000000 1.000000 0.000000
vn 0.000000 1.000000 0.000000
vn 0.000000 1.000000 0.000000
vn 0.000000 1.000000 0.000000
vn 0.000000 1.000000 0.000000
vn 0.000000 1.000000 0.000000
vn 0.000000 0.000000 -1.000000
vn 0.000000 0.000000 -1.000000
vn 0.000000 0.000000 -1.000000
vn 0.000000 0.000000 -1.000000
vn -1.000000 0.000000 0.000000
vn -1.000000 0.000000 0.000000
vn -1.000000 0.000000 0.000000
vn -1.000000 0.000000 0.000000
vn 0.000000 0.000000 1.000000
vn 0.000000 0.000000 1.000000
vn 0.000000 0.000000 1.000000
vn 0.000000 0.000000 1.000000
vn 1.000000 0.000000 0.000000
vn 1.000000 0.000000 0.000000
vn 1.000000 0.000000 0.000000
vn 1.000000 0.000000 0.000000
s off
f 1/15/1 2/11/2 4/21/3 3/23/4
f 13/29/5 14/99/6 15/94/7 16/92/8
f 5/6/9 6/18/10 8/9/11 7/13/12
f 7/8/13 8/10/14 2/2/15 1/16/16
f 2/12/17 8/7/18 6/5/19 4/3/20
f 7/14/21 1/1/22 3/24/23 5/20/24
f 3/4/25 4/111/26 10/104/27 9/106/28
f 4/22/29 6/110/30 11/101/31 10/103/32
f 6/17/33 5/109/34 12/96/35 11/100/36
f 5/19/37 3/112/38 9/107/39 12/95/40
f 9/25/41 10/105/42 14/98/43 13/89/44
f 10/26/45 11/102/46 15/93/47 14/30/48
f 11/27/49 12/97/50 16/91/51 15/31/52
f 12/28/53 9/108/54 13/90/55 16/32/56
f 17/33/57 18/34/58 20/35/59 19/36/60
f 29/37/61 30/75/62 31/70/63 32/68/64
f 21/41/65 22/42/66 24/43/67 23/44/68
f 23/45/69 24/46/70 18/47/71 17/48/72
f 18/49/73 24/50/74 22/51/75 20/52/76
f 23/53/77 17/54/78 19/55/79 21/56/80
f 19/57/81 20/87/82 26/80/83 25/82/84
f 20/58/85 22/86/86 27/77/87 26/79/88
f 22/61/89 21/85/90 28/72/91 27/76/92
f 21/63/93 19/88/94 25/83/95 28/71/96
f 25/60/97 26/81/98 30/74/99 29/65/100
f 26/59/101 27/78/102 31/69/103 30/38/104
f 27/62/105 28/73/106 32/67/107 31/39/108
f 28/64/109 25/84/110 29/66/111 32/40/112
