# This file uses centimeters as units for non-parametric coordinates.

v 0.000005 0.000000 1.326409
v 5.110184 0.000000 1.326409
v 0.000005 1.229334 1.326409
v 5.110184 1.229334 1.326409
v 0.000005 1.229334 0.000000
v 5.110184 1.229334 0.000000
v 0.000005 0.000000 0.000000
v 5.110184 0.000000 0.000000
v 1.461016 1.147482 0.000000
v 4.993429 1.147482 0.000000
v 4.993429 0.099250 0.000000
v 1.461016 0.099250 0.000000
v 1.461016 1.147482 1.041219
v 4.993429 1.147482 1.041219
v 4.993429 0.099250 1.041219
v 1.461016 0.099250 1.041219
v 4.993423 0.707368 1.041220
v 4.993429 0.610122 1.041220
v 1.461016 0.707368 1.041220
v 1.461016 0.610122 1.041220
v 4.993429 0.610122 0.247088
v 4.993423 0.707368 0.247088
v 1.461016 0.707368 0.247088
v 1.461016 0.610122 0.247088
v 0.121519 1.058848 0.000000
v 0.121519 0.184990 0.000000
v 1.339491 1.058848 0.000000
v 1.339491 0.184990 0.000000
v 0.121519 1.058848 0.149884
v 0.121519 0.184990 0.149884
v 1.339491 1.058848 0.149884
v 1.339491 0.184990 0.149884
v 0.305574 0.926799 0.149884
v 0.305574 0.317039 0.149884
v 1.155445 0.926799 0.149884
v 1.155445 0.317039 0.149884
v 0.331872 0.902762 0.149884
v 0.331872 0.341076 0.149884
v 1.129148 0.902762 0.149884
v 1.129148 0.341076 0.149884
v 0.578849 0.849807 0.149884
v 0.578849 0.780720 0.149884
v 0.882176 0.849807 0.149884
v 0.882176 0.780720 0.149884
v 0.542717 0.266335 1.326409
v 4.567475 0.266335 1.326409
v 4.567475 0.962999 1.326409
v 0.542717 0.962999 1.326409
vt 0.076508 0.024048
vt 0.043682 0.024048
vt 0.076508 0.024048
vt 0.173925 0.024048
vt 0.076508 0.024048
vt 0.109334 0.024048
vt 0.076508 0.024048
vt 0.043682 0.024048
vt 0.109335 0.024048
vt 0.043682 0.024048
vt 0.109335 0.024048
vt 0.076508 0.024048
vt 0.109334 0.024048
vt 0.076508 0.024048
vt 0.109334 0.024048
vt 0.043682 0.024048
vt 0.173925 0.024048
vt 0.109335 0.024048
vt 0.173925 0.024048
vt 0.076508 0.024048
vt 0.109335 0.024048
vt 0.173925 0.024048
vt 0.109334 0.024048
vt 0.076508 0.024048
vt 0.081037 0.024048
vt 0.081037 0.024048
vt 0.134704 0.024048
vt 0.081037 0.024048
vt 0.052740 0.024048
vt 0.081037 0.024048
vt 0.052740 0.024048
vt 0.081037 0.024048
vt 0.081037 0.024048
vt 0.109335 0.024048
vt 0.134704 0.024048
vt 0.081037 0.024048
vt 0.081037 0.024048
vt 0.081037 0.024048
vt 0.081037 0.024048
vt 0.081037 0.024048
vt 0.134704 0.024048
vt 0.109335 0.024048
vt 0.109335 0.024048
vt 0.109334 0.024048
vt 0.134704 0.024048
vt 0.109334 0.024048
vt 0.052740 0.024048
vt 0.134704 0.024048
vt 0.134704 0.024048
vt 0.134704 0.024048
vt 0.134704 0.024048
vt 0.109335 0.024048
vt 0.052740 0.024048
vt 0.081037 0.024048
vt 0.052740 0.024048
vt 0.081037 0.024048
vt 0.052740 0.024048
vt 0.081037 0.024048
vt 0.081037 0.024048
vt 0.081037 0.024048
vt 0.109334 0.024048
vt 0.081037 0.024048
vt 0.052740 0.024048
vt 0.081037 0.024048
vt 0.109335 0.024048
vt 0.081037 0.024048
vt 0.109334 0.024048
vt 0.081037 0.024048
vt 0.109334 0.024048
vt 0.052740 0.024048
vt 0.082989 0.024048
vt 0.050789 0.024048
vt 0.082989 0.024048
vt 0.135680 0.024048
vt 0.082989 0.024048
vt 0.050789 0.024048
vt 0.082989 0.024048
vt 0.135680 0.024048
vt 0.044952 0.022737
vt 0.044952 0.022737
vt 0.044952 0.022737
vt 0.044952 0.022737
vt 0.044952 0.022737
vt 0.044952 0.022737
vt 0.044952 0.022737
vt 0.044952 0.022737
vt 0.358211 0.059899
vt 0.358211 0.059899
vt 0.358211 0.059899
vt 0.358211 0.059899
vt 0.172161 0.062247
vt 0.172161 0.062247
vt 0.172161 0.062247
vt 0.172161 0.062247
vt 0.172161 0.062247
vt 0.172161 0.062247
vt 0.172161 0.062247
vt 0.172161 0.062247
vt 0.172161 0.062247
vt 0.172161 0.062247
vt 0.172161 0.062247
vt 0.172161 0.062247
vt 0.358211 0.059899
vt 0.358211 0.059899
vt 0.358211 0.059899
vt 0.358211 0.059899
vt 0.135680 0.024048
vt 0.082989 0.024048
vt 0.109334 0.024048
vt 0.135680 0.024048
vt 0.050789 0.024048
vt 0.082989 0.024048
vt 0.109334 0.024048
vt 0.082989 0.024048
vt 0.109334 0.024048
vt 0.082989 0.024048
vt 0.044952 0.022737
vt 0.044952 0.022737
vt 0.044952 0.022737
vt 0.044952 0.022737
vt 0.044952 0.022737
vt 0.044952 0.022737
vt 0.044952 0.022737
vt 0.044952 0.022737
vt 0.050789 0.024048
vt 0.109334 0.024048
vt 0.172161 0.062247
vt 0.172161 0.062247
vt 0.172161 0.062247
vt 0.172161 0.062247
vt 0.172161 0.062247
vt 0.172161 0.062247
vt 0.172161 0.062247
vt 0.172161 0.062247
vt 0.075009 0.024048
vt 0.109335 0.024048
vt 0.109335 0.024048
vt 0.109334 0.024048
vt 0.109334 0.024048
vt 0.075009 0.024048
vt 0.075009 0.024048
vt 0.075009 0.024048
vn 0.000000 0.000000 1.000000
vn 0.000000 0.000000 1.000000
vn 0.000000 0.000000 1.000000
vn 0.000000 0.000000 1.000000
vn 0.000000 1.000000 0.000000
vn 0.000000 1.000000 0.000000
vn 0.000000 1.000000 0.000000
vn 0.000000 1.000000 0.000000
vn 0.000000 -0.000001 -1.000000
vn 0.000000 -0.000001 -1.000000
vn 0.000000 -0.000001 -1.000000
vn 0.000000 -0.000001 -1.000000
vn 0.000000 -1.000000 0.000000
vn 0.000000 -1.000000 0.000000
vn 0.000000 -1.000000 0.000000
vn 0.000000 -1.000000 0.000000
vn 1.000000 0.000000 0.000000
vn 1.000000 0.000000 0.000000
vn 1.000000 0.000000 0.000000
vn 1.000000 0.000000 0.000000
vn -1.000000 0.000000 0.000000
vn -1.000000 0.000000 0.000000
vn -1.000000 0.000000 0.000000
vn -1.000000 0.000000 0.000000
vn 0.000000 0.000000 -1.000000
vn 0.000000 0.000000 -1.000000
vn 0.000000 0.000000 -1.000000
vn 0.000000 0.000000 -1.000000
vn 0.000000 0.000000 -1.000000
vn 0.000000 0.000000 -1.000000
vn 0.000000 0.000000 -1.000000
vn 0.000000 0.000000 -1.000000
vn 0.000000 0.000000 -1.000000
vn 0.000000 0.000000 -1.000000
vn 0.000000 0.000000 -1.000000
vn 0.000000 0.000000 -1.000000
vn 0.000000 0.000000 -1.000000
vn 0.000000 0.000000 -1.000000
vn 0.000000 0.000000 -1.000000
vn 0.000000 0.000000 -1.000000
vn 0.000000 -1.000000 0.000000
vn 0.000000 -1.000000 0.000000
vn 0.000000 -1.000000 0.000000
vn 0.000000 -1.000000 0.000000
vn -1.000000 0.000005 -0.000002
vn -1.000000 0.000005 -0.000002
vn -1.000000 0.000005 -0.000002
vn -1.000000 0.000005 -0.000002
vn -1.000000 0.000005 -0.000002
vn -1.000000 0.000005 -0.000002
vn -1.000000 0.000005 -0.000002
vn -1.000000 0.000005 -0.000002
vn 0.000000 1.000000 0.000000
vn 0.000000 1.000000 0.000000
vn 0.000000 1.000000 0.000000
vn 0.000000 1.000000 0.000000
vn 1.000000 0.000000 0.000000
vn 1.000000 0.000000 0.000000
vn 1.000000 0.000000 0.000000
vn 1.000000 0.000000 0.000000
vn 1.000000 0.000000 0.000000
vn 1.000000 0.000000 0.000000
vn 1.000000 0.000000 0.000000
vn 1.000000 0.000000 0.000000
vn 0.000000 0.000001 -1.000000
vn 0.000000 0.000001 -1.000000
vn 0.000000 0.000001 -1.000000
vn 0.000000 0.000001 -1.000000
vn 0.000000 0.000000 -1.000000
vn 0.000000 0.000000 -1.000000
vn 0.000000 0.000000 -1.000000
vn 0.000000 0.000000 -1.000000
vn 0.000000 1.000000 0.000000
vn 0.000000 1.000000 0.000000
vn 0.000000 1.000000 0.000000
vn 0.000000 1.000000 0.000000
vn 0.000000 -1.000000 0.000000
vn 0.000000 -1.000000 0.000000
vn 0.000000 -1.000000 0.000000
vn 0.000000 -1.000000 0.000000
vn -0.000000 0.000000 -1.000000
vn -0.000000 0.000000 -1.000000
vn -0.000000 0.000000 -1.000000
vn -0.000000 0.000000 -1.000000
vn 0.000000 0.000000 -1.000000
vn 0.000000 0.000000 -1.000000
vn 0.000000 0.000000 -1.000000
vn 0.000000 0.000000 -1.000000
vn 0.000000 0.000000 -1.000000
vn 0.000000 0.000000 -1.000000
vn 0.000000 0.000000 -1.000000
vn 0.000000 0.000000 -1.000000
vn 0.000000 0.000000 -1.000000
vn 0.000000 0.000000 -1.000000
vn 0.000000 0.000000 -1.000000
vn 0.000000 0.000000 -1.000000
vn 1.000000 0.000000 0.000000
vn 1.000000 0.000000 0.000000
vn 1.000000 0.000000 0.000000
vn 1.000000 0.000000 0.000000
vn 0.000000 -1.000000 0.000000
vn 0.000000 -1.000000 0.000000
vn 0.000000 -1.000000 0.000000
vn 0.000000 -1.000000 0.000000
vn -1.000000 0.000000 0.000000
vn -1.000000 0.000000 0.000000
vn -1.000000 0.000000 0.000000
vn -1.000000 0.000000 0.000000
vn 0.000000 1.000000 0.000000
vn 0.000000 1.000000 0.000000
vn 0.000000 1.000000 0.000000
vn 0.000000 1.000000 0.000000
vn -0.000000 0.000000 -1.000000
vn -0.000000 0.000000 -1.000000
vn -0.000000 0.000000 -1.000000
vn -0.000000 0.000000 -1.000000
vn 0.000000 0.000000 -1.000000
vn 0.000000 0.000000 -1.000000
vn 0.000000 0.000000 -1.000000
vn 0.000000 0.000000 -1.000000
vn 0.000000 0.000000 -1.000000
vn 0.000000 0.000000 -1.000000
vn 0.000000 0.000000 -1.000000
vn 0.000000 0.000000 -1.000000
vn 0.000000 0.000000 -1.000000
vn 0.000000 0.000000 -1.000000
vn 0.000000 0.000000 -1.000000
vn 0.000000 0.000000 -1.000000
vn -0.000000 0.000000 -1.000000
vn -0.000000 0.000000 -1.000000
vn -0.000000 0.000000 -1.000000
vn -0.000000 0.000000 -1.000000
vn 0.000000 0.000000 -1.000000
vn 0.000000 0.000000 -1.000000
vn 0.000000 0.000000 -1.000000
vn 0.000000 0.000000 -1.000000
vn 0.000001 0.000000 -1.000000
vn 0.000001 0.000000 -1.000000
vn 0.000001 0.000000 -1.000000
vn 0.000001 0.000000 -1.000000
vn 0.000000 0.000000 -1.000000
vn 0.000000 0.000000 -1.000000
vn 0.000000 0.000000 -1.000000
vn 0.000000 0.000000 -1.000000
vn -0.000000 0.000000 -1.000000
vn -0.000000 0.000000 -1.000000
vn -0.000000 0.000000 -1.000000
vn -0.000000 0.000000 -1.000000
vn 0.000000 0.000000 -1.000000
vn 0.000000 0.000000 -1.000000
vn 0.000000 0.000000 -1.000000
vn 0.000000 0.000000 -1.000000
vn 0.000000 0.000000 -1.000000
vn 0.000000 0.000000 -1.000000
vn 0.000000 0.000000 -1.000000
vn 0.000000 0.000000 -1.000000
vn 0.000000 0.000000 -1.000000
vn 0.000000 0.000000 -1.000000
vn 0.000000 0.000000 -1.000000
vn 0.000000 0.000000 -1.000000
vn 0.000000 0.000000 1.000000
vn 0.000000 0.000000 1.000000
vn 0.000000 0.000000 1.000000
vn 0.000000 0.000000 1.000000
vn 0.000000 0.000000 1.000000
vn 0.000000 0.000000 1.000000
vn 0.000000 0.000000 1.000000
vn 0.000000 0.000000 1.000000
vn 0.000000 0.000000 1.000000
vn 0.000000 0.000000 1.000000
vn 0.000000 0.000000 1.000000
vn 0.000000 0.000000 1.000000
vn -0.000000 0.000000 1.000000
vn -0.000000 0.000000 1.000000
vn -0.000000 0.000000 1.000000
vn -0.000000 0.000000 1.000000
s off
f 45/135/1 46/142/2 47/141/3 48/140/4
f 3/4/5 4/22/6 6/17/7 5/19/8
f 13/29/9 14/63/10 17/55/11 19/47/12
f 7/8/13 8/10/14 2/2/15 1/16/16
f 2/12/17 8/7/18 6/5/19 4/3/20
f 7/14/21 1/1/22 3/24/23 5/20/24
f 5/6/25 6/18/26 10/65/27 9/67/28
f 6/18/29 8/9/30 11/52/31 10/65/32
f 8/9/33 7/13/34 12/61/35 11/52/36
f 42/91/37 41/92/38 43/93/39 44/94/40
f 9/25/41 10/66/42 14/62/43 13/59/44
f 10/26/45 11/64/46 15/58/47 18/56/48 21/37/49 22/38/50 17/33/51 14/30/52
f 11/27/53 12/51/54 16/49/55 15/50/56
f 12/28/57 9/68/58 13/60/59 19/54/60 23/39/61 24/40/62 20/36/63 16/32/64
f 20/53/65 18/70/66 15/31/67 16/57/68
f 23/46/69 22/42/70 21/43/71 24/44/72
f 19/35/73 17/48/74 22/45/75 23/41/76
f 18/34/77 20/69/78 24/44/79 21/43/80
f 7/13/81 5/6/82 25/126/83 26/115/84
f 5/6/85 9/67/86 27/113/87 25/126/88
f 9/67/89 12/61/90 28/109/91 27/113/92
f 12/61/93 7/13/94 26/115/95 28/109/96
f 26/71/97 25/116/98 29/114/99 30/75/100
f 25/72/101 27/125/102 31/111/103 29/76/104
f 27/73/105 28/112/106 32/108/107 31/77/108
f 28/74/109 26/110/110 30/107/111 32/78/112
f 30/79/113 29/124/114 33/121/115 34/82/116
f 29/80/117 31/122/118 35/119/119 33/81/120
f 31/83/121 32/120/122 36/118/123 35/84/124
f 32/85/125 30/123/126 34/117/127 36/86/128
f 34/95/129 33/134/130 37/131/131 38/98/132
f 33/96/133 35/132/134 39/129/135 37/97/136
f 35/99/137 36/130/138 40/128/139 39/100/140
f 36/101/141 34/133/142 38/127/143 40/102/144
f 38/87/145 37/88/146 41/89/147 42/90/148
f 37/88/149 39/103/150 43/104/151 41/89/152
f 39/103/153 40/105/154 44/106/155 43/104/156
f 40/105/157 38/87/158 42/90/159 44/106/160
f 1/15/161 2/11/162 46/136/163 45/139/164
f 2/11/165 4/21/166 47/137/167 46/136/168
f 4/21/169 3/23/170 48/138/171 47/137/172
f 3/23/173 1/15/174 45/139/175 48/138/176
