# This file uses centimeters as units for non-parametric coordinates.

v -0.018384 0.000000 0.343014
v 0.509597 0.000000 0.294834
v -0.018384 0.300745 0.343014
v 0.509597 0.300745 0.294834
v -0.045714 0.300745 0.043512
v 0.482266 0.300745 -0.004667
v -0.045714 0.000000 0.043512
v 0.482266 0.000000 -0.004667
v 0.043880 0.122165 0.337334
v 0.447334 0.122165 0.300518
v 0.447334 0.245909 0.300518
v 0.043880 0.245909 0.337334
v 0.070080 0.000000 -0.050140
v 0.600254 0.000000 -0.050140
v 0.070080 0.300745 -0.050140
v 0.600254 0.300745 -0.050140
v 0.070080 0.300745 -0.350887
v 0.600254 0.300745 -0.350887
v 0.070080 0.000000 -0.350887
v 0.600254 0.000000 -0.350887
v 0.132600 0.122165 -0.050140
v 0.537731 0.122165 -0.050140
v 0.537731 0.245909 -0.050140
v 0.132600 0.245909 -0.050140
v -0.594368 0.000000 -0.049673
v -0.064196 0.000000 -0.049673
v -0.594368 0.300745 -0.049673
v -0.064196 0.300745 -0.049673
v -0.594368 0.300745 -0.350418
v -0.064196 0.300745 -0.350418
v -0.594368 0.000000 -0.350418
v -0.064196 0.000000 -0.350418
v -0.531847 0.122165 -0.049673
v -0.126716 0.122165 -0.049673
v -0.126716 0.245909 -0.049673
v -0.531847 0.245909 -0.049673
v -0.600254 0.000000 0.350887
v -0.070082 0.000000 0.350887
v -0.600254 0.300745 0.350887
v -0.070082 0.300745 0.350887
v -0.600254 0.300745 0.050142
v -0.070082 0.300745 0.050142
v -0.600254 0.000000 0.050142
v -0.070082 0.000000 0.050142
v -0.537733 0.122165 0.350887
v -0.132602 0.122165 0.350887
v -0.132602 0.245909 0.350887
v -0.537733 0.245909 0.350887
v -0.596873 0.303865 0.266947
v -0.068241 0.303865 0.307335
v -0.596873 0.604610 0.266947
v -0.068241 0.604610 0.307335
v -0.573962 0.604610 -0.032927
v -0.045330 0.604610 0.007463
v -0.573962 0.303865 -0.032927
v -0.045330 0.303865 0.007463
v -0.534533 0.426030 0.271709
v -0.130579 0.426030 0.302572
v -0.130579 0.549774 0.302572
v -0.534533 0.549774 0.271709
v -0.003744 0.303865 -0.050140
v 0.526428 0.303865 -0.050140
v -0.003744 0.604610 -0.050140
v 0.526428 0.604610 -0.050140
v -0.003744 0.604610 -0.350887
v 0.526428 0.604610 -0.350887
v -0.003744 0.303865 -0.350887
v 0.526428 0.303865 -0.350887
v 0.058777 0.426030 -0.050140
v 0.463908 0.426030 -0.050140
v 0.463908 0.549774 -0.050140
v 0.058777 0.549774 -0.050140
v -0.594368 0.303865 -0.049673
v -0.064196 0.303865 -0.049673
v -0.594368 0.604610 -0.049673
v -0.064196 0.604610 -0.049673
v -0.594368 0.604610 -0.350418
v -0.064196 0.604610 -0.350418
v -0.594368 0.303865 -0.350418
v -0.064196 0.303865 -0.350418
v -0.531847 0.426030 -0.049673
v -0.126716 0.426030 -0.049673
v -0.126716 0.549774 -0.049673
v -0.531847 0.549774 -0.049673
v 0.044025 0.303865 0.314180
v 0.569922 0.303865 0.246981
v 0.044025 0.604610 0.314180
v 0.569922 0.604610 0.246981
v 0.005906 0.604610 0.015860
v 0.531802 0.604610 -0.051340
v 0.005906 0.303865 0.015860
v 0.531802 0.303865 -0.051340
v 0.106042 0.426030 0.306253
v 0.507905 0.426030 0.254906
v 0.507905 0.549774 0.254906
v 0.106042 0.549774 0.306253
vt 0.363127 0.477669
vt 0.363127 0.477669
vt 0.363127 0.477669
vt 0.363127 0.477669
vt 0.331374 0.198351
vt 0.331374 0.198351
vt 0.331374 0.198351
vt 0.331374 0.198351
vt 0.296050 0.198351
vt 0.296050 0.198351
vt 0.296050 0.198351
vt 0.296050 0.198351
vt 0.237177 0.198351
vt 0.237176 0.198351
vt 0.237176 0.198351
vt 0.237177 0.198351
vt 0.271323 0.198351
vt 0.271323 0.198351
vt 0.271323 0.198351
vt 0.271323 0.198351
vt 0.271323 0.198351
vt 0.271323 0.198351
vt 0.271323 0.198351
vt 0.271323 0.198351
vt 0.296050 0.198351
vt 0.296050 0.198351
vt 0.296050 0.198351
vt 0.296050 0.198351
vt 0.296050 0.198351
vt 0.296050 0.198351
vt 0.296050 0.198351
vt 0.296050 0.198351
vt 0.363127 0.477669
vt 0.363127 0.477669
vt 0.363127 0.477669
vt 0.363127 0.477669
vt 0.331374 0.198351
vt 0.331374 0.198351
vt 0.331374 0.198351
vt 0.331374 0.198351
vt 0.296050 0.198351
vt 0.296050 0.198351
vt 0.296050 0.198351
vt 0.296050 0.198351
vt 0.237177 0.198351
vt 0.237176 0.198351
vt 0.237176 0.198351
vt 0.237177 0.198351
vt 0.271323 0.198351
vt 0.271323 0.198351
vt 0.271323 0.198351
vt 0.271323 0.198351
vt 0.271323 0.198351
vt 0.271323 0.198351
vt 0.271323 0.198351
vt 0.271323 0.198351
vt 0.296050 0.198351
vt 0.296050 0.198351
vt 0.296050 0.198351
vt 0.296050 0.198351
vt 0.296050 0.198351
vt 0.296050 0.198351
vt 0.296050 0.198351
vt 0.296050 0.198351
vt 0.363127 0.477669
vt 0.363127 0.477669
vt 0.363127 0.477669
vt 0.363127 0.477669
vt 0.331374 0.198351
vt 0.331374 0.198351
vt 0.331374 0.198351
vt 0.331374 0.198351
vt 0.296050 0.198351
vt 0.296050 0.198351
vt 0.296050 0.198351
vt 0.296050 0.198351
vt 0.237177 0.198351
vt 0.237176 0.198351
vt 0.237176 0.198351
vt 0.237177 0.198351
vt 0.271323 0.198351
vt 0.271323 0.198351
vt 0.271323 0.198351
vt 0.271323 0.198351
vt 0.271323 0.198351
vt 0.271323 0.198351
vt 0.271323 0.198351
vt 0.271323 0.198351
vt 0.296050 0.198351
vt 0.296050 0.198351
vt 0.296050 0.198351
vt 0.296050 0.198351
vt 0.296050 0.198351
vt 0.296050 0.198351
vt 0.296050 0.198351
vt 0.296050 0.198351
vt 0.363127 0.477669
vt 0.363127 0.477669
vt 0.363127 0.477669
vt 0.363127 0.477669
vt 0.331374 0.198351
vt 0.331374 0.198351
vt 0.331374 0.198351
vt 0.331374 0.198351
vt 0.296050 0.198351
vt 0.296050 0.198351
vt 0.296050 0.198351
vt 0.296050 0.198351
vt 0.237177 0.198351
vt 0.237176 0.198351
vt 0.237176 0.198351
vt 0.237177 0.198351
vt 0.271323 0.198351
vt 0.271323 0.198351
vt 0.271323 0.198351
vt 0.271323 0.198351
vt 0.271323 0.198351
vt 0.271323 0.198351
vt 0.271323 0.198351
vt 0.271323 0.198351
vt 0.296050 0.198351
vt 0.296050 0.198351
vt 0.296050 0.198351
vt 0.296050 0.198351
vt 0.296050 0.198351
vt 0.296050 0.198351
vt 0.296050 0.198351
vt 0.296050 0.198351
vt 0.363127 0.477669
vt 0.363127 0.477669
vt 0.363127 0.477669
vt 0.363127 0.477669
vt 0.331374 0.198351
vt 0.331374 0.198351
vt 0.331374 0.198351
vt 0.331374 0.198351
vt 0.296050 0.198351
vt 0.296050 0.198351
vt 0.296050 0.198351
vt 0.296050 0.198351
vt 0.237177 0.198351
vt 0.237176 0.198351
vt 0.237176 0.198351
vt 0.237177 0.198351
vt 0.271323 0.198351
vt 0.271323 0.198351
vt 0.271323 0.198351
vt 0.271323 0.198351
vt 0.271323 0.198351
vt 0.271323 0.198351
vt 0.271323 0.198351
vt 0.271323 0.198351
vt 0.296050 0.198351
vt 0.296050 0.198351
vt 0.296050 0.198351
vt 0.296050 0.198351
vt 0.296050 0.198351
vt 0.296050 0.198351
vt 0.296050 0.198351
vt 0.296050 0.198351
vt 0.363127 0.477669
vt 0.363127 0.477669
vt 0.363127 0.477669
vt 0.363127 0.477669
vt 0.331374 0.198351
vt 0.331374 0.198351
vt 0.331374 0.198351
vt 0.331374 0.198351
vt 0.296050 0.198351
vt 0.296050 0.198351
vt 0.296050 0.198351
vt 0.296050 0.198351
vt 0.237177 0.198351
vt 0.237176 0.198351
vt 0.237176 0.198351
vt 0.237177 0.198351
vt 0.271323 0.198351
vt 0.271323 0.198351
vt 0.271323 0.198351
vt 0.271323 0.198351
vt 0.271323 0.198351
vt 0.271323 0.198351
vt 0.271323 0.198351
vt 0.271323 0.198351
vt 0.296050 0.198351
vt 0.296050 0.198351
vt 0.296050 0.198351
vt 0.296050 0.198351
vt 0.296050 0.198351
vt 0.296050 0.198351
vt 0.296050 0.198351
vt 0.296050 0.198351
vt 0.363127 0.477669
vt 0.363127 0.477669
vt 0.363127 0.477669
vt 0.363127 0.477669
vt 0.331374 0.198351
vt 0.331374 0.198351
vt 0.331374 0.198351
vt 0.331374 0.198351
vt 0.296050 0.198351
vt 0.296050 0.198351
vt 0.296050 0.198351
vt 0.296050 0.198351
vt 0.237177 0.198351
vt 0.237176 0.198351
vt 0.237176 0.198351
vt 0.237177 0.198351
vt 0.271323 0.198351
vt 0.271323 0.198351
vt 0.271323 0.198351
vt 0.271323 0.198351
vt 0.271323 0.198351
vt 0.271323 0.198351
vt 0.271323 0.198351
vt 0.271323 0.198351
vt 0.296050 0.198351
vt 0.296050 0.198351
vt 0.296050 0.198351
vt 0.296050 0.198351
vt 0.296050 0.198351
vt 0.296050 0.198351
vt 0.296050 0.198351
vt 0.296050 0.198351
vt 0.363127 0.477669
vt 0.363127 0.477669
vt 0.363127 0.477669
vt 0.363127 0.477669
vt 0.331374 0.198351
vt 0.331374 0.198351
vt 0.331374 0.198351
vt 0.331374 0.198351
vt 0.296050 0.198351
vt 0.296050 0.198351
vt 0.296050 0.198351
vt 0.296050 0.198351
vt 0.237177 0.198351
vt 0.237176 0.198351
vt 0.237176 0.198351
vt 0.237177 0.198351
vt 0.271323 0.198351
vt 0.271323 0.198351
vt 0.271323 0.198351
vt 0.271323 0.198351
vt 0.271323 0.198351
vt 0.271323 0.198351
vt 0.271323 0.198351
vt 0.271323 0.198351
vt 0.296050 0.198351
vt 0.296050 0.198351
vt 0.296050 0.198351
vt 0.296050 0.198351
vt 0.296050 0.198351
vt 0.296050 0.198351
vt 0.296050 0.198351
vt 0.296050 0.198351
vn 0.090874 0.000000 0.995862
vn 0.090874 0.000000 0.995862
vn 0.090874 0.000000 0.995862
vn 0.090874 0.000000 0.995862
vn 0.000000 1.000000 0.000000
vn 0.000000 1.000000 0.000000
vn 0.000000 1.000000 0.000000
vn 0.000000 1.000000 0.000000
vn -0.090875 0.000000 -0.995862
vn -0.090875 0.000000 -0.995862
vn -0.090875 0.000000 -0.995862
vn -0.090875 0.000000 -0.995862
vn 0.000000 -1.000000 0.000000
vn 0.000000 -1.000000 0.000000
vn 0.000000 -1.000000 0.000000
vn 0.000000 -1.000000 0.000000
vn 0.995862 0.000000 -0.090875
vn 0.995862 0.000000 -0.090875
vn 0.995862 0.000000 -0.090875
vn 0.995862 0.000000 -0.090875
vn -0.995862 0.000000 0.090875
vn -0.995862 0.000000 0.090875
vn -0.995862 0.000000 0.090875
vn -0.995862 0.000000 0.090875
vn 0.090874 -0.000016 0.995862
vn 0.090874 -0.000016 0.995862
vn 0.090874 -0.000016 0.995862
vn 0.090874 -0.000016 0.995862
vn 0.090911 0.000000 0.995859
vn 0.090911 0.000000 0.995859
vn 0.090911 0.000000 0.995859
vn 0.090911 0.000000 0.995859
vn 0.090874 0.000035 0.995862
vn 0.090874 0.000035 0.995862
vn 0.090874 0.000035 0.995862
vn 0.090874 0.000035 0.995862
vn 0.090850 0.000000 0.995865
vn 0.090850 0.000000 0.995865
vn 0.090850 0.000000 0.995865
vn 0.090850 0.000000 0.995865
vn 0.000000 0.000000 1.000000
vn 0.000000 0.000000 1.000000
vn 0.000000 0.000000 1.000000
vn 0.000000 0.000000 1.000000
vn 0.000000 1.000000 0.000000
vn 0.000000 1.000000 0.000000
vn 0.000000 1.000000 0.000000
vn 0.000000 1.000000 0.000000
vn 0.000000 0.000000 -1.000000
vn 0.000000 0.000000 -1.000000
vn 0.000000 0.000000 -1.000000
vn 0.000000 0.000000 -1.000000
vn 0.000000 -1.000000 0.000000
vn 0.000000 -1.000000 0.000000
vn 0.000000 -1.000000 0.000000
vn 0.000000 -1.000000 0.000000
vn 1.000000 0.000000 0.000000
vn 1.000000 0.000000 0.000000
vn 1.000000 0.000000 0.000000
vn 1.000000 0.000000 0.000000
vn -1.000000 0.000000 0.000000
vn -1.000000 0.000000 0.000000
vn -1.000000 0.000000 0.000000
vn -1.000000 0.000000 0.000000
vn 0.000000 0.000000 1.000000
vn 0.000000 0.000000 1.000000
vn 0.000000 0.000000 1.000000
vn 0.000000 0.000000 1.000000
vn 0.000000 0.000000 1.000000
vn 0.000000 0.000000 1.000000
vn 0.000000 0.000000 1.000000
vn 0.000000 0.000000 1.000000
vn 0.000000 0.000000 1.000000
vn 0.000000 0.000000 1.000000
vn 0.000000 0.000000 1.000000
vn 0.000000 0.000000 1.000000
vn -0.000000 0.000000 1.000000
vn -0.000000 0.000000 1.000000
vn -0.000000 0.000000 1.000000
vn -0.000000 0.000000 1.000000
vn 0.000000 0.000000 1.000000
vn 0.000000 0.000000 1.000000
vn 0.000000 0.000000 1.000000
vn 0.000000 0.000000 1.000000
vn 0.000000 1.000000 0.000000
vn 0.000000 1.000000 0.000000
vn 0.000000 1.000000 0.000000
vn 0.000000 1.000000 0.000000
vn 0.000000 0.000000 -1.000000
vn 0.000000 0.000000 -1.000000
vn 0.000000 0.000000 -1.000000
vn 0.000000 0.000000 -1.000000
vn 0.000000 -1.000000 0.000000
vn 0.000000 -1.000000 0.000000
vn 0.000000 -1.000000 0.000000
vn 0.000000 -1.000000 0.000000
vn 1.000000 0.000000 0.000000
vn 1.000000 0.000000 0.000000
vn 1.000000 0.000000 0.000000
vn 1.000000 0.000000 0.000000
vn -1.000000 0.000000 0.000000
vn -1.000000 0.000000 0.000000
vn -1.000000 0.000000 0.000000
vn -1.000000 0.000000 0.000000
vn 0.000000 0.000000 1.000000
vn 0.000000 0.000000 1.000000
vn 0.000000 0.000000 1.000000
vn 0.000000 0.000000 1.000000
vn 0.000000 0.000000 1.000000
vn 0.000000 0.000000 1.000000
vn 0.000000 0.000000 1.000000
vn 0.000000 0.000000 1.000000
vn 0.000000 0.000000 1.000000
vn 0.000000 0.000000 1.000000
vn 0.000000 0.000000 1.000000
vn 0.000000 0.000000 1.000000
vn 0.000000 0.000000 1.000000
vn 0.000000 0.000000 1.000000
vn 0.000000 0.000000 1.000000
vn 0.000000 0.000000 1.000000
vn 0.000000 0.000000 1.000000
vn 0.000000 0.000000 1.000000
vn 0.000000 0.000000 1.000000
vn 0.000000 0.000000 1.000000
vn 0.000000 1.000000 0.000000
vn 0.000000 1.000000 0.000000
vn 0.000000 1.000000 0.000000
vn 0.000000 1.000000 0.000000
vn 0.000000 0.000000 -1.000000
vn 0.000000 0.000000 -1.000000
vn 0.000000 0.000000 -1.000000
vn 0.000000 0.000000 -1.000000
vn 0.000000 -1.000000 0.000000
vn 0.000000 -1.000000 0.000000
vn 0.000000 -1.000000 0.000000
vn 0.000000 -1.000000 0.000000
vn 1.000000 0.000000 0.000000
vn 1.000000 0.000000 0.000000
vn 1.000000 0.000000 0.000000
vn 1.000000 0.000000 0.000000
vn -1.000000 0.000000 0.000000
vn -1.000000 0.000000 0.000000
vn -1.000000 0.000000 0.000000
vn -1.000000 0.000000 0.000000
vn 0.000000 0.000000 1.000000
vn 0.000000 0.000000 1.000000
vn 0.000000 0.000000 1.000000
vn 0.000000 0.000000 1.000000
vn 0.000000 0.000000 1.000000
vn 0.000000 0.000000 1.000000
vn 0.000000 0.000000 1.000000
vn 0.000000 0.000000 1.000000
vn 0.000000 0.000000 1.000000
vn 0.000000 0.000000 1.000000
vn 0.000000 0.000000 1.000000
vn 0.000000 0.000000 1.000000
vn -0.000000 0.000000 1.000000
vn -0.000000 0.000000 1.000000
vn -0.000000 0.000000 1.000000
vn -0.000000 0.000000 1.000000
vn -0.076180 0.000000 0.997094
vn -0.076180 0.000000 0.997094
vn -0.076180 0.000000 0.997094
vn -0.076180 0.000000 0.997094
vn 0.000000 1.000000 0.000000
vn 0.000000 1.000000 0.000000
vn 0.000000 1.000000 0.000000
vn 0.000000 1.000000 0.000000
vn 0.076183 0.000000 -0.997094
vn 0.076183 0.000000 -0.997094
vn 0.076183 0.000000 -0.997094
vn 0.076183 0.000000 -0.997094
vn 0.000000 -1.000000 0.000000
vn 0.000000 -1.000000 0.000000
vn 0.000000 -1.000000 0.000000
vn 0.000000 -1.000000 0.000000
vn 0.997094 0.000000 0.076181
vn 0.997094 0.000000 0.076181
vn 0.997094 0.000000 0.076181
vn 0.997094 0.000000 0.076181
vn -0.997094 0.000000 -0.076180
vn -0.997094 0.000000 -0.076180
vn -0.997094 0.000000 -0.076180
vn -0.997094 0.000000 -0.076180
vn -0.076179 0.000001 0.997094
vn -0.076179 0.000001 0.997094
vn -0.076179 0.000001 0.997094
vn -0.076179 0.000001 0.997094
vn -0.076178 0.000000 0.997094
vn -0.076178 0.000000 0.997094
vn -0.076178 0.000000 0.997094
vn -0.076178 0.000000 0.997094
vn -0.076180 -0.000001 0.997094
vn -0.076180 -0.000001 0.997094
vn -0.076180 -0.000001 0.997094
vn -0.076180 -0.000001 0.997094
vn -0.076176 0.000000 0.997094
vn -0.076176 0.000000 0.997094
vn -0.076176 0.000000 0.997094
vn -0.076176 0.000000 0.997094
vn 0.000000 0.000000 1.000000
vn 0.000000 0.000000 1.000000
vn 0.000000 0.000000 1.000000
vn 0.000000 0.000000 1.000000
vn 0.000000 1.000000 0.000000
vn 0.000000 1.000000 0.000000
vn 0.000000 1.000000 0.000000
vn 0.000000 1.000000 0.000000
vn 0.000000 0.000000 -1.000000
vn 0.000000 0.000000 -1.000000
vn 0.000000 0.000000 -1.000000
vn 0.000000 0.000000 -1.000000
vn 0.000000 -1.000000 0.000000
vn 0.000000 -1.000000 0.000000
vn 0.000000 -1.000000 0.000000
vn 0.000000 -1.000000 0.000000
vn 1.000000 0.000000 0.000000
vn 1.000000 0.000000 0.000000
vn 1.000000 0.000000 0.000000
vn 1.000000 0.000000 0.000000
vn -1.000000 0.000000 0.000000
vn -1.000000 0.000000 0.000000
vn -1.000000 0.000000 0.000000
vn -1.000000 0.000000 0.000000
vn 0.000000 0.000000 1.000000
vn 0.000000 0.000000 1.000000
vn 0.000000 0.000000 1.000000
vn 0.000000 0.000000 1.000000
vn 0.000000 0.000000 1.000000
vn 0.000000 0.000000 1.000000
vn 0.000000 0.000000 1.000000
vn 0.000000 0.000000 1.000000
vn 0.000000 0.000000 1.000000
vn 0.000000 0.000000 1.000000
vn 0.000000 0.000000 1.000000
vn 0.000000 0.000000 1.000000
vn -0.000000 0.000000 1.000000
vn -0.000000 0.000000 1.000000
vn -0.000000 0.000000 1.000000
vn -0.000000 0.000000 1.000000
vn 0.000000 0.000000 1.000000
vn 0.000000 0.000000 1.000000
vn 0.000000 0.000000 1.000000
vn 0.000000 0.000000 1.000000
vn 0.000000 1.000000 0.000000
vn 0.000000 1.000000 0.000000
vn 0.000000 1.000000 0.000000
vn 0.000000 1.000000 0.000000
vn 0.000000 0.000000 -1.000000
vn 0.000000 0.000000 -1.000000
vn 0.000000 0.000000 -1.000000
vn 0.000000 0.000000 -1.000000
vn 0.000000 -1.000000 0.000000
vn 0.000000 -1.000000 0.000000
vn 0.000000 -1.000000 0.000000
vn 0.000000 -1.000000 0.000000
vn 1.000000 0.000000 0.000000
vn 1.000000 0.000000 0.000000
vn 1.000000 0.000000 0.000000
vn 1.000000 0.000000 0.000000
vn -1.000000 0.000000 0.000000
vn -1.000000 0.000000 0.000000
vn -1.000000 0.000000 0.000000
vn -1.000000 0.000000 0.000000
vn 0.000000 0.000000 1.000000
vn 0.000000 0.000000 1.000000
vn 0.000000 0.000000 1.000000
vn 0.000000 0.000000 1.000000
vn 0.000000 0.000000 1.000000
vn 0.000000 0.000000 1.000000
vn 0.000000 0.000000 1.000000
vn 0.000000 0.000000 1.000000
vn 0.000000 0.000000 1.000000
vn 0.000000 0.000000 1.000000
vn 0.000000 0.000000 1.000000
vn 0.000000 0.000000 1.000000
vn -0.000000 0.000000 1.000000
vn -0.000000 0.000000 1.000000
vn -0.000000 0.000000 1.000000
vn -0.000000 0.000000 1.000000
vn 0.126744 0.000000 0.991935
vn 0.126744 0.000000 0.991935
vn 0.126744 0.000000 0.991935
vn 0.126744 0.000000 0.991935
vn 0.000000 1.000000 0.000000
vn 0.000000 1.000000 0.000000
vn 0.000000 1.000000 0.000000
vn 0.000000 1.000000 0.000000
vn -0.126751 0.000000 -0.991935
vn -0.126751 0.000000 -0.991935
vn -0.126751 0.000000 -0.991935
vn -0.126751 0.000000 -0.991935
vn 0.000000 -1.000000 0.000000
vn 0.000000 -1.000000 0.000000
vn 0.000000 -1.000000 0.000000
vn 0.000000 -1.000000 0.000000
vn 0.991935 0.000000 -0.126751
vn 0.991935 0.000000 -0.126751
vn 0.991935 0.000000 -0.126751
vn 0.991935 0.000000 -0.126751
vn -0.991935 0.000000 0.126746
vn -0.991935 0.000000 0.126746
vn -0.991935 0.000000 0.126746
vn -0.991935 0.000000 0.126746
vn 0.126748 0.000007 0.991935
vn 0.126748 0.000007 0.991935
vn 0.126748 0.000007 0.991935
vn 0.126748 0.000007 0.991935
vn 0.126759 0.000000 0.991934
vn 0.126759 0.000000 0.991934
vn 0.126759 0.000000 0.991934
vn 0.126759 0.000000 0.991934
vn 0.126747 -0.000016 0.991935
vn 0.126747 -0.000016 0.991935
vn 0.126747 -0.000016 0.991935
vn 0.126747 -0.000016 0.991935
vn 0.126786 0.000000 0.991930
vn 0.126786 0.000000 0.991930
vn 0.126786 0.000000 0.991930
vn 0.126786 0.000000 0.991930
s off
f 9/1/1 10/2/2 11/3/3 12/4/4
f 3/5/5 4/6/6 6/7/7 5/8/8
f 5/9/9 6/10/10 8/11/11 7/12/12
f 7/13/13 8/14/14 2/15/15 1/16/16
f 2/17/17 8/18/18 6/19/19 4/20/20
f 7/21/21 1/22/22 3/23/23 5/24/24
f 1/25/25 2/26/26 10/27/27 9/28/28
f 2/26/29 4/29/30 11/30/31 10/27/32
f 4/29/33 3/31/34 12/32/35 11/30/36
f 3/31/37 1/25/38 9/28/39 12/32/40
f 21/33/41 22/34/42 23/35/43 24/36/44
f 15/37/45 16/38/46 18/39/47 17/40/48
f 17/41/49 18/42/50 20/43/51 19/44/52
f 19/45/53 20/46/54 14/47/55 13/48/56
f 14/49/57 20/50/58 18/51/59 16/52/60
f 19/53/61 13/54/62 15/55/63 17/56/64
f 13/57/65 14/58/66 22/59/67 21/60/68
f 14/58/69 16/61/70 23/62/71 22/59/72
f 16/61/73 15/63/74 24/64/75 23/62/76
f 15/63/77 13/57/78 21/60/79 24/64/80
f 33/65/81 34/66/82 35/67/83 36/68/84
f 27/69/85 28/70/86 30/71/87 29/72/88
f 29/73/89 30/74/90 32/75/91 31/76/92
f 31/77/93 32/78/94 26/79/95 25/80/96
f 26/81/97 32/82/98 30/83/99 28/84/100
f 31/85/101 25/86/102 27/87/103 29/88/104
f 25/89/105 26/90/106 34/91/107 33/92/108
f 26/90/109 28/93/110 35/94/111 34/91/112
f 28/93/113 27/95/114 36/96/115 35/94/116
f 27/95/117 25/89/118 33/92/119 36/96/120
f 45/97/121 46/98/122 47/99/123 48/100/124
f 39/101/125 40/102/126 42/103/127 41/104/128
f 41/105/129 42/106/130 44/107/131 43/108/132
f 43/109/133 44/110/134 38/111/135 37/112/136
f 38/113/137 44/114/138 42/115/139 40/116/140
f 43/117/141 37/118/142 39/119/143 41/120/144
f 37/121/145 38/122/146 46/123/147 45/124/148
f 38/122/149 40/125/150 47/126/151 46/123/152
f 40/125/153 39/127/154 48/128/155 47/126/156
f 39/127/157 37/121/158 45/124/159 48/128/160
f 57/129/161 58/130/162 59/131/163 60/132/164
f 51/133/165 52/134/166 54/135/167 53/136/168
f 53/137/169 54/138/170 56/139/171 55/140/172
f 55/141/173 56/142/174 50/143/175 49/144/176
f 50/145/177 56/146/178 54/147/179 52/148/180
f 55/149/181 49/150/182 51/151/183 53/152/184
f 49/153/185 50/154/186 58/155/187 57/156/188
f 50/154/189 52/157/190 59/158/191 58/155/192
f 52/157/193 51/159/194 60/160/195 59/158/196
f 51/159/197 49/153/198 57/156/199 60/160/200
f 69/161/201 70/162/202 71/163/203 72/164/204
f 63/165/205 64/166/206 66/167/207 65/168/208
f 65/169/209 66/170/210 68/171/211 67/172/212
f 67/173/213 68/174/214 62/175/215 61/176/216
f 62/177/217 68/178/218 66/179/219 64/180/220
f 67/181/221 61/182/222 63/183/223 65/184/224
f 61/185/225 62/186/226 70/187/227 69/188/228
f 62/186/229 64/189/230 71/190/231 70/187/232
f 64/189/233 63/191/234 72/192/235 71/190/236
f 63/191/237 61/185/238 69/188/239 72/192/240
f 81/193/241 82/194/242 83/195/243 84/196/244
f 75/197/245 76/198/246 78/199/247 77/200/248
f 77/201/249 78/202/250 80/203/251 79/204/252
f 79/205/253 80/206/254 74/207/255 73/208/256
f 74/209/257 80/210/258 78/211/259 76/212/260
f 79/213/261 73/214/262 75/215/263 77/216/264
f 73/217/265 74/218/266 82/219/267 81/220/268
f 74/218/269 76/221/270 83/222/271 82/219/272
f 76/221/273 75/223/274 84/224/275 83/222/276
f 75/223/277 73/217/278 81/220/279 84/224/280
f 93/225/281 94/226/282 95/227/283 96/228/284
f 87/229/285 88/230/286 90/231/287 89/232/288
f 89/233/289 90/234/290 92/235/291 91/236/292
f 91/237/293 92/238/294 86/239/295 85/240/296
f 86/241/297 92/242/298 90/243/299 88/244/300
f 91/245/301 85/246/302 87/247/303 89/248/304
f 85/249/305 86/250/306 94/251/307 93/252/308
f 86/250/309 88/253/310 95/254/311 94/251/312
f 88/253/313 87/255/314 96/256/315 95/254/316
f 87/255/317 85/249/318 93/252/319 96/256/320
