# This file uses centimeters as units for non-parametric coordinates.

v 0.434716 1.064221 0.119193
v 0.434716 0.449421 -0.484004
v 0.434716 1.135774 0.046263
v 0.434716 0.520975 -0.556935
v -0.429033 1.135774 0.046263
v -0.429033 0.520975 -0.556935
v -0.429033 1.064221 0.119193
v -0.429033 0.449421 -0.484004
v 0.371053 1.090460 0.001804
v 0.371053 0.566289 -0.512476
v -0.365371 0.566289 -0.512476
v -0.365371 1.090460 0.001804
v -0.223982 0.918269 -0.024004
v -0.223982 0.595373 -0.340807
v 0.229664 0.595373 -0.340807
v 0.229664 0.918269 -0.024004
v -0.223982 0.680925 0.217905
v -0.223982 0.358030 -0.098898
v 0.229664 0.358030 -0.098898
v 0.229664 0.680925 0.217905
v -0.434716 0.000000 0.556935
v 0.432658 0.000000 0.556935
v -0.434716 0.000000 -0.310440
v 0.432658 0.000000 -0.310440
v -0.434716 0.129236 -0.310440
v 0.432658 0.129236 -0.310440
v 0.432658 0.129236 0.556935
v -0.434716 0.129236 0.556935
v -0.346073 0.687084 0.252391
v 0.344013 0.687084 0.252391
v 0.344013 0.687084 -0.221796
v -0.346073 0.687084 -0.221796
v 0.344013 0.129236 -0.221796
v -0.346073 0.129236 -0.221796
v 0.344013 0.129236 0.468291
v -0.346073 0.129236 0.468291
vt 0.267141 0.063435
vt 0.140599 0.063435
vt 0.173425 0.063435
vt 0.238421 0.063435
vt 0.173425 0.063435
vt 0.206251 0.063435
vt 0.173425 0.063435
vt 0.140599 0.063435
vt 0.206251 0.063435
vt 0.140599 0.063435
vt 0.206251 0.063435
vt 0.173425 0.063435
vt 0.206251 0.063435
vt 0.267141 0.063435
vt 0.206251 0.063435
vt 0.140599 0.063435
vt 0.238421 0.063435
vt 0.206251 0.063435
vt 0.238421 0.063435
vt 0.267141 0.063435
vt 0.206251 0.063435
vt 0.238421 0.063435
vt 0.206251 0.063435
vt 0.267141 0.063435
vt 0.238421 0.063435
vt 0.238421 0.063435
vt 0.238421 0.063435
vt 0.238421 0.063435
vt 0.786521 0.979129
vt 0.786521 0.768581
vt 0.997069 0.768581
vt 0.997069 0.979129
vt 0.171837 0.063435
vt 0.140599 0.063435
vt 0.171838 0.063435
vt 0.234315 0.063435
vt 0.140599 0.063435
vt 0.140599 0.063435
vt 0.171838 0.063435
vt 0.234315 0.063435
vt 0.234315 0.063435
vt 0.171837 0.063435
vt 0.140599 0.063435
vt 0.234315 0.063435
vt 0.140599 0.063435
vt 0.140599 0.063435
vt 0.171837 0.063435
vt 0.140599 0.063435
vt 0.171837 0.063435
vt 0.171838 0.063435
vt 0.171838 0.063435
vt 0.140599 0.063435
vt 0.204506 0.061735
vt 0.204507 0.061735
vt 0.204507 0.061735
vt 0.204506 0.061735
vt 0.268992 0.061735
vt 0.268992 0.061735
vt 0.268992 0.061735
vt 0.268992 0.061735
vt 0.204506 0.061735
vt 0.204507 0.061735
vt 0.204507 0.061735
vt 0.204506 0.061735
vt 0.138854 0.061735
vt 0.138854 0.061735
vt 0.138854 0.061735
vt 0.138854 0.061735
vt 0.171680 0.061735
vt 0.171680 0.061735
vt 0.171680 0.061735
vt 0.171680 0.061735
vt 0.171680 0.061735
vt 0.171680 0.061735
vt 0.171680 0.061735
vt 0.171680 0.061735
vt 0.204506 0.061735
vt 0.204507 0.061735
vt 0.204507 0.061735
vt 0.204506 0.061735
vt 0.171680 0.061735
vt 0.171680 0.061735
vt 0.171680 0.061735
vt 0.171680 0.061735
vt 0.204506 0.061735
vt 0.204507 0.061735
vt 0.204507 0.061735
vt 0.204506 0.061735
vt 0.171680 0.061735
vt 0.171680 0.061735
vt 0.171680 0.061735
vt 0.171680 0.061735
vt 0.268544 0.061616
vt 0.268544 0.061616
vt 0.268544 0.061616
vt 0.268544 0.061616
vt 0.268544 0.061616
vt 0.268544 0.061616
vt 0.268544 0.061616
vt 0.268544 0.061616
vn 1.000000 0.000000 0.000000
vn 1.000000 0.000000 0.000000
vn 1.000000 0.000000 0.000000
vn 1.000000 0.000000 0.000000
vn 0.000000 0.700340 -0.713810
vn 0.000000 0.700340 -0.713810
vn 0.000000 0.700340 -0.713810
vn 0.000000 0.700340 -0.713810
vn -1.000000 0.000000 0.000000
vn -1.000000 0.000000 0.000000
vn -1.000000 0.000000 0.000000
vn -1.000000 0.000000 0.000000
vn 0.000000 -0.700340 0.713809
vn 0.000000 -0.700340 0.713809
vn 0.000000 -0.700340 0.713809
vn 0.000000 -0.700340 0.713809
vn 0.000000 -0.713811 -0.700339
vn 0.000000 -0.713811 -0.700339
vn 0.000000 -0.713811 -0.700339
vn 0.000000 -0.713811 -0.700339
vn 0.000000 0.713812 0.700337
vn 0.000000 0.713812 0.700337
vn 0.000000 0.713812 0.700337
vn 0.000000 0.713812 0.700337
vn 0.000001 0.700340 -0.713810
vn 0.000001 0.700340 -0.713810
vn 0.000001 0.700340 -0.713810
vn 0.000001 0.700340 -0.713810
vn 0.000000 0.700338 -0.713811
vn 0.000000 0.700338 -0.713811
vn 0.000000 0.700338 -0.713811
vn 0.000000 0.700338 -0.713811
vn -0.000000 0.700340 -0.713810
vn -0.000000 0.700340 -0.713810
vn -0.000000 0.700340 -0.713810
vn -0.000000 0.700340 -0.713810
vn 0.000000 0.700339 -0.713810
vn 0.000000 0.700339 -0.713810
vn 0.000000 0.700339 -0.713810
vn 0.000000 0.700339 -0.713810
vn -0.000001 -0.700339 0.713810
vn -0.000001 -0.700339 0.713810
vn -0.000001 -0.700339 0.713810
vn -0.000001 -0.700339 0.713810
vn 0.000000 -0.700339 0.713810
vn 0.000000 -0.700339 0.713810
vn 0.000000 -0.700339 0.713810
vn 0.000000 -0.700339 0.713810
vn 0.000001 -0.700339 0.713810
vn 0.000001 -0.700339 0.713810
vn 0.000001 -0.700339 0.713810
vn 0.000001 -0.700339 0.713810
vn 0.000000 -0.700338 0.713812
vn 0.000000 -0.700338 0.713812
vn 0.000000 -0.700338 0.713812
vn 0.000000 -0.700338 0.713812
vn -1.000000 -0.000000 0.000000
vn -1.000000 -0.000000 0.000000
vn -1.000000 -0.000000 0.000000
vn -1.000000 -0.000000 0.000000
vn 0.000000 -0.713810 -0.700340
vn 0.000000 -0.713810 -0.700340
vn 0.000000 -0.713810 -0.700340
vn 0.000000 -0.713810 -0.700340
vn 1.000000 -0.000000 0.000000
vn 1.000000 -0.000000 0.000000
vn 1.000000 -0.000000 0.000000
vn 1.000000 -0.000000 0.000000
vn 0.000000 0.713809 0.700340
vn 0.000000 0.713809 0.700340
vn 0.000000 0.713809 0.700340
vn 0.000000 0.713809 0.700340
vn 0.000000 0.000000 1.000000
vn 0.000000 0.000000 1.000000
vn 0.000000 0.000000 1.000000
vn 0.000000 0.000000 1.000000
vn 0.000000 1.000000 0.000000
vn 0.000000 1.000000 0.000000
vn 0.000000 1.000000 0.000000
vn 0.000000 1.000000 0.000000
vn 0.000000 0.000000 -1.000000
vn 0.000000 0.000000 -1.000000
vn 0.000000 0.000000 -1.000000
vn 0.000000 0.000000 -1.000000
vn 0.000000 -1.000000 0.000000
vn 0.000000 -1.000000 0.000000
vn 0.000000 -1.000000 0.000000
vn 0.000000 -1.000000 0.000000
vn 1.000000 0.000000 0.000000
vn 1.000000 0.000000 0.000000
vn 1.000000 0.000000 0.000000
vn 1.000000 0.000000 0.000000
vn -1.000000 0.000000 0.000000
vn -1.000000 0.000000 0.000000
vn -1.000000 0.000000 0.000000
vn -1.000000 0.000000 0.000000
vn 0.000000 0.000000 -1.000000
vn 0.000000 0.000000 -1.000000
vn 0.000000 0.000000 -1.000000
vn 0.000000 0.000000 -1.000000
vn 1.000000 0.000000 0.000000
vn 1.000000 0.000000 0.000000
vn 1.000000 0.000000 0.000000
vn 1.000000 0.000000 0.000000
vn 0.000000 0.360934 0.932591
vn 0.000000 0.360934 0.932591
vn 0.000000 0.360934 0.932591
vn 0.000000 0.360934 0.932591
vn -1.000000 0.000000 0.000000
vn -1.000000 0.000000 0.000000
vn -1.000000 0.000000 0.000000
vn -1.000000 0.000000 0.000000
vn 0.000000 1.000000 -0.000000
vn 0.000000 1.000000 -0.000000
vn 0.000000 1.000000 -0.000000
vn 0.000000 1.000000 -0.000000
vn 0.000000 1.000000 0.000000
vn 0.000000 1.000000 0.000000
vn 0.000000 1.000000 0.000000
vn 0.000000 1.000000 0.000000
vn 0.000000 1.000000 -0.000000
vn 0.000000 1.000000 -0.000000
vn 0.000000 1.000000 -0.000000
vn 0.000000 1.000000 -0.000000
vn 0.000000 1.000000 0.000000
vn 0.000000 1.000000 0.000000
vn 0.000000 1.000000 0.000000
vn 0.000000 1.000000 0.000000
s off
f 1/15/1 2/11/2 4/21/3 3/23/4
f 9/29/5 10/30/6 11/31/7 12/32/8
f 5/6/9 6/18/10 8/9/11 7/13/12
f 17/37/13 18/38/14 19/46/15 20/45/16
f 2/12/17 8/7/18 6/5/19 4/3/20
f 7/14/21 1/1/22 3/24/23 5/20/24
f 3/4/25 4/22/26 10/26/27 9/25/28
f 4/22/29 6/17/30 11/27/31 10/26/32
f 6/17/33 5/19/34 12/28/35 11/27/36
f 5/19/37 3/4/38 9/25/39 12/28/40
f 7/8/41 8/10/42 14/34/43 13/52/44
f 8/10/45 2/2/46 15/48/47 14/34/48
f 2/2/49 1/16/50 16/43/51 15/48/52
f 1/16/53 7/8/54 13/52/55 16/43/56
f 13/33/57 14/51/58 18/50/59 17/49/60
f 14/34/61 15/48/62 19/46/63 18/38/64
f 15/35/65 16/47/66 20/42/67 19/39/68
f 16/36/69 13/44/70 17/41/71 20/40/72
f 21/53/73 22/54/74 27/55/75 28/56/76
f 29/57/77 30/58/78 31/59/79 32/60/80
f 25/61/81 26/62/82 24/63/83 23/64/84
f 23/65/85 24/66/86 22/67/87 21/68/88
f 22/69/89 24/70/90 26/71/91 27/72/92
f 23/73/93 21/74/94 28/75/95 25/76/96
f 32/77/97 31/78/98 33/79/99 34/80/100
f 35/81/101 33/82/102 31/83/103 30/84/104
f 36/85/105 35/86/106 30/87/107 29/88/108
f 34/89/109 36/90/110 29/91/111 32/92/112
f 26/93/113 25/94/114 34/95/115 33/96/116
f 27/97/117 26/93/118 33/96/119 35/98/120
f 28/99/121 27/97/122 35/98/123 36/100/124
f 25/94/125 28/99/126 36/100/127 34/95/128
