# This file uses centimeters as units for non-parametric coordinates.

v -0.500000 0.000000 0.035111
v 0.500000 0.000000 0.035111
v -0.500000 1.000000 0.035111
v 0.500000 1.000000 0.035111
v -0.500000 1.000000 -0.035111
v 0.500000 1.000000 -0.035111
v -0.500000 0.000000 -0.035111
v 0.500000 0.000000 -0.035111
v -0.427718 0.072282 0.035111
v 0.427718 0.072282 0.035111
v 0.427718 0.927718 0.035111
v -0.427718 0.927718 0.035111
v -0.427718 0.585544 0.035111
v 0.427718 0.585544 0.035111
v 0.085544 0.927718 0.035111
v 0.085544 0.585544 0.035111
v 0.085544 0.072282 0.035111
v -0.427718 0.280833 0.035111
v 0.085544 0.280833 0.035111
v 0.427718 0.280833 0.035111
v 0.020499 0.927718 0.035111
v 0.020499 0.585544 0.035111
v 0.020499 0.280833 0.035111
v 0.020499 0.072282 0.035111
v -0.427718 0.536696 0.035111
v 0.020499 0.536696 0.035111
v 0.085544 0.536696 0.035111
v 0.427718 0.536696 0.035111
v -0.209083 0.927718 0.035111
v -0.209083 0.585544 0.035111
v -0.209083 0.536696 0.035111
v -0.209083 0.280833 0.035111
v -0.209083 0.072282 0.035111
vt 0.271323 0.353653
vt 0.296050 0.353653
vt 0.331374 0.353653
vt 0.271323 0.353653
vt 0.331374 0.353653
vt 0.237177 0.353653
vt 0.237177 0.353653
vt 0.237176 0.353653
vt 0.271323 0.353653
vt 0.271323 0.353653
vt 0.271323 0.353653
vt 0.271323 0.353653
vt 0.331374 0.353653
vt 0.296050 0.353653
vt 0.331374 0.353653
vt 0.237176 0.353653
vt 0.271323 0.353653
vt 0.296050 0.353653
vt 0.296050 0.353653
vt 0.271323 0.353653
vt 0.296050 0.182049
vt 0.296050 0.353653
vt 0.296050 0.353653
vt 0.296050 0.353653
vt 0.296050 0.353653
vt 0.296050 0.353653
vt 0.296050 0.353653
vt 0.296050 0.374112
vt 0.296050 0.353653
vt 0.296050 0.153202
vt 0.296050 0.353653
vt 0.296050 0.353653
vt 0.296050 0.182049
vt 0.296050 0.353653
vt 0.296050 0.353653
vt 0.296050 0.353653
vt 0.296050 0.353653
vt 0.296050 0.374112
vt 0.296050 0.218395
vt 0.296050 0.353653
vt 0.296050 0.353653
vt 0.296050 0.153202
vt 0.296050 0.196799
vt 0.296050 0.196799
vt 0.296050 0.353653
vt 0.296050 0.353653
vt 0.296050 0.182049
vt 0.296050 0.153202
vt 0.296050 0.153202
vt 0.296050 0.353653
vt 0.296050 0.353653
vt 0.296050 0.196799
vt 0.296050 0.133231
vt 0.296050 0.133231
vt 0.296050 0.182049
vt 0.296050 0.353653
vt 0.296050 0.353653
vt 0.296050 0.374112
vt 0.296050 0.218395
vt 0.296050 0.153202
vt 0.296050 0.218395
vt 0.296050 0.353653
vt 0.296050 0.353653
vt 0.296050 0.374112
vt 0.296050 0.218395
vt 0.296050 0.374112
vt 0.296050 0.182049
vt 0.296050 0.182049
vt 0.296050 0.353653
vt 0.296050 0.374112
vt 0.296050 0.218395
vt 0.296050 0.218395
vt 0.296050 0.218395
vt 0.296050 0.218395
vt 0.296050 0.196799
vt 0.296050 0.218395
vt 0.296050 0.218395
vt 0.296050 0.218395
vt 0.296050 0.218395
vt 0.296050 0.153202
vt 0.296050 0.218395
vt 0.296050 0.153202
vt 0.296050 0.218395
vt 0.296050 0.218395
vt 0.296050 0.218395
vt 0.296050 0.133231
vt 0.296050 0.196799
vt 0.296050 0.196799
vt 0.296050 0.196799
vt 0.296050 0.196799
vt 0.296050 0.196799
vt 0.296050 0.196799
vt 0.296050 0.133231
vt 0.296050 0.196799
vt 0.296050 0.182049
vt 0.296050 0.153202
vt 0.296050 0.196799
vt 0.296050 0.133231
vt 0.296050 0.374112
vt 0.296050 0.133231
vt 0.296050 0.133231
vt 0.296050 0.374112
vt 0.296050 0.133231
vt 0.296050 0.182049
vt 0.296050 0.182049
vt 0.296050 0.182049
vt 0.296050 0.182049
vt 0.296050 0.182049
vn -0.000000 0.000000 1.000000
vn -0.000000 0.000000 1.000000
vn -0.000000 0.000000 1.000000
vn -0.000000 0.000000 1.000000
vn 0.000000 1.000000 0.000000
vn 0.000000 1.000000 0.000000
vn 0.000000 1.000000 0.000000
vn 0.000000 1.000000 0.000000
vn 0.000000 -1.000000 0.000000
vn 0.000000 -1.000000 0.000000
vn 0.000000 -1.000000 0.000000
vn 0.000000 -1.000000 0.000000
vn 1.000000 0.000000 0.000000
vn 1.000000 0.000000 0.000000
vn 1.000000 0.000000 0.000000
vn 1.000000 0.000000 0.000000
vn -1.000000 0.000000 0.000000
vn -1.000000 0.000000 0.000000
vn -1.000000 0.000000 0.000000
vn -1.000000 0.000000 0.000000
vn 0.000000 0.000000 1.000000
vn 0.000000 0.000000 1.000000
vn 0.000000 0.000000 1.000000
vn 0.000000 0.000000 1.000000
vn 0.000000 0.000000 1.000000
vn 0.000000 0.000000 1.000000
vn 0.000000 0.000000 1.000000
vn 0.000000 0.000000 1.000000
vn 0.000000 0.000000 1.000000
vn 0.000000 0.000000 1.000000
vn 0.000000 0.000000 1.000000
vn 0.000000 0.000000 1.000000
vn 0.000000 0.000000 1.000000
vn 0.000000 0.000000 1.000000
vn 0.000000 0.000000 1.000000
vn 0.000000 0.000000 1.000000
vn 0.000000 0.000000 1.000000
vn 0.000000 0.000000 1.000000
vn 0.000000 0.000000 1.000000
vn 0.000000 0.000000 1.000000
vn 0.000000 0.000000 1.000000
vn -0.000000 0.000000 1.000000
vn -0.000000 0.000000 1.000000
vn -0.000000 0.000000 1.000000
vn -0.000000 0.000000 1.000000
vn -0.000000 0.000000 1.000000
vn -0.000000 0.000000 1.000000
vn -0.000000 0.000000 1.000000
vn -0.000000 0.000000 1.000000
vn 0.000000 0.000000 1.000000
vn 0.000000 0.000000 1.000000
vn -0.000000 0.000000 1.000000
vn 0.000000 0.000000 1.000000
vn 0.000000 0.000000 1.000000
vn -0.000000 0.000000 1.000000
vn -0.000000 0.000000 1.000000
vn 0.000000 0.000000 1.000000
vn 0.000000 0.000000 1.000000
vn 0.000000 0.000000 1.000000
vn -0.000000 0.000000 1.000000
vn 0.000000 0.000000 1.000000
vn 0.000000 0.000000 1.000000
vn 0.000000 0.000000 1.000000
vn 0.000000 0.000000 1.000000
vn 0.000000 0.000000 1.000000
vn 0.000000 0.000000 1.000000
vn 0.000000 0.000000 1.000000
vn 0.000000 0.000000 1.000000
vn 0.000000 0.000000 1.000000
vn 0.000000 0.000000 1.000000
vn 0.000000 0.000000 1.000000
vn 0.000000 0.000000 1.000000
vn 0.000000 0.000000 1.000000
vn 0.000000 0.000000 1.000000
vn 0.000000 0.000000 1.000000
vn 0.000000 0.000000 1.000000
vn 0.000000 0.000000 1.000000
vn 0.000000 0.000000 1.000000
vn 0.000000 0.000000 1.000000
vn 0.000000 0.000000 1.000000
vn 0.000000 0.000000 1.000000
vn 0.000000 0.000000 1.000000
vn 0.000000 0.000000 1.000000
vn 0.000000 0.000000 1.000000
vn 0.000000 0.000000 1.000000
vn 0.000000 0.000000 1.000000
vn 0.000000 0.000000 1.000000
vn 0.000000 0.000000 1.000000
vn 0.000000 0.000000 1.000000
vn 0.000000 0.000000 1.000000
vn 0.000000 0.000000 1.000000
vn 0.000000 0.000000 1.000000
vn 0.000000 0.000000 1.000000
vn 0.000000 0.000000 1.000000
vn 0.000000 0.000000 1.000000
vn 0.000000 0.000000 1.000000
vn 0.000000 0.000000 1.000000
vn 0.000000 0.000000 1.000000
vn 0.000000 0.000000 1.000000
vn 0.000000 0.000000 1.000000
vn 0.000000 0.000000 1.000000
vn 0.000000 0.000000 1.000000
vn 0.000000 0.000000 1.000000
vn 0.000000 0.000000 1.000000
vn 0.000000 0.000000 1.000000
vn 0.000000 0.000000 1.000000
vn 0.000000 0.000000 1.000000
vn 0.000000 0.000000 1.000000
s off
f 15/42/1 16/96/2 14/82/3 11/30/4
f 3/3/5 4/13/6 6/5/7 5/15/8
f 7/6/9 8/16/10 2/8/11 1/7/12
f 2/17/13 8/9/14 6/10/15 4/4/16
f 7/11/17 1/1/18 3/20/19 5/12/20
f 1/19/21 2/35/22 10/32/23 17/45/24 24/56/25 33/69/26 9/25/27
f 2/2/28 4/34/29 11/29/30 14/40/31 28/62/32 20/50/33 10/22/34
f 4/18/35 3/31/36 12/27/37 29/63/38 21/51/39 15/41/40 11/23/41
f 3/14/42 1/36/43 9/26/44 18/46/45 25/57/46 13/37/47 12/24/48
f 16/84/49 27/79/50 28/61/51 14/39/52
f 21/52/53 22/94/54 16/43/55 15/97/56
f 22/76/57 26/74/58 27/78/59 16/85/60
f 23/91/61 24/92/62 17/44/63 19/88/64
f 20/108/65 19/107/66 17/95/67 10/33/68
f 29/100/69 30/101/70 22/53/71 21/93/72
f 30/71/73 31/73/74 26/59/75 22/77/76
f 32/104/77 33/68/78 24/55/79 23/106/80
f 31/98/81 32/103/82 23/54/83 26/86/84
f 27/87/85 26/75/86 23/90/87 19/89/88
f 28/80/89 27/60/90 19/48/91 20/49/92
f 13/38/93 30/70/94 29/64/95 12/28/96
f 25/81/97 31/72/98 30/65/99 13/83/100
f 18/102/101 32/99/102 31/66/103 25/58/104
f 9/21/105 33/105/106 32/67/107 18/47/108
