# This file uses centimeters as units for non-parametric coordinates.

v 0.022312 0.000000 0.182591
v 0.233049 0.000000 0.182591
v 0.022312 0.045948 0.182591
v 0.233049 0.045948 0.182591
v 0.022312 0.045948 -0.182591
v 0.233049 0.045948 -0.182591
v 0.022312 0.000000 -0.182591
v 0.233049 0.000000 -0.182591
v 0.093019 0.045948 0.134896
v 0.162343 0.045948 0.134896
v 0.148491 0.045948 0.110291
v 0.214205 0.045948 -0.046099
v 0.191683 0.045948 -0.046099
v 0.108977 0.045948 0.110291
v 0.041157 0.045948 -0.046099
v 0.068937 0.045948 -0.046099
v 0.093019 0.080079 0.134896
v 0.162343 0.080079 0.134896
v 0.148491 0.080079 0.110291
v 0.108977 0.080079 0.110291
v 0.068937 0.080080 -0.046099
v 0.041157 0.080079 -0.046099
v 0.191683 0.080080 -0.046099
v 0.214205 0.080079 -0.046099
v -0.233049 0.000000 0.182591
v -0.022312 0.000000 0.182591
v -0.233049 0.045948 0.182591
v -0.022312 0.045948 0.182591
v -0.233049 0.045948 -0.182591
v -0.022312 0.045948 -0.182591
v -0.233049 0.000000 -0.182591
v -0.022312 0.000000 -0.182591
v -0.162342 0.045948 0.134896
v -0.093019 0.045948 0.134896
v -0.106871 0.045948 0.110291
v -0.041157 0.045948 -0.046099
v -0.063679 0.045948 -0.046099
v -0.146384 0.045948 0.110291
v -0.214205 0.045948 -0.046099
v -0.186424 0.045948 -0.046099
v -0.162342 0.080079 0.134896
v -0.093019 0.080079 0.134896
v -0.106871 0.080079 0.110291
v -0.146384 0.080079 0.110291
v -0.186424 0.080080 -0.046099
v -0.214205 0.080079 -0.046099
v -0.063679 0.080080 -0.046099
v -0.041157 0.080079 -0.046099
vt 0.267141 0.197534
vt 0.234315 0.197534
vt 0.267141 0.197534
vt 0.332137 0.197534
vt 0.267141 0.197534
vt 0.299967 0.197534
vt 0.267141 0.197534
vt 0.234315 0.197534
vt 0.299968 0.197534
vt 0.234315 0.197534
vt 0.299968 0.197534
vt 0.267141 0.197534
vt 0.299967 0.197534
vt 0.267141 0.197534
vt 0.299967 0.197534
vt 0.234315 0.197534
vt 0.332137 0.197534
vt 0.299968 0.197534
vt 0.332137 0.197534
vt 0.267141 0.197534
vt 0.299968 0.197534
vt 0.332137 0.197534
vt 0.299967 0.197534
vt 0.267141 0.197534
vt 0.332137 0.197534
vt 0.332137 0.197534
vt 0.332137 0.197534
vt 0.332137 0.197534
vt 0.332137 0.197534
vt 0.332137 0.197534
vt 0.332137 0.197534
vt 0.332137 0.197534
vt 0.235680 0.063870
vt 0.235680 0.063870
vt 0.235680 0.063870
vt 0.235680 0.063870
vt 0.235680 0.063870
vt 0.235680 0.063870
vt 0.235680 0.063870
vt 0.235680 0.063870
vt 0.235680 0.063870
vt 0.168311 0.059848
vt 0.168311 0.059848
vt 0.144151 0.059848
vt 0.144151 0.059848
vt 0.168311 0.059848
vt 0.144151 0.059848
vt 0.144151 0.059848
vt 0.168311 0.059848
vt 0.168311 0.059848
vt 0.168311 0.059848
vt 0.144151 0.059848
vt 0.144151 0.059848
vt 0.168311 0.059848
vt 0.144151 0.059848
vt 0.144151 0.059848
vt 0.168311 0.059848
vt 0.168311 0.059848
vt 0.144151 0.059848
vt 0.144151 0.059848
vt 0.168311 0.059848
vt 0.144151 0.059848
vt 0.168311 0.059848
vt 0.168311 0.059848
vt 0.144151 0.059848
vt 0.168311 0.059848
vt 0.144151 0.059848
vt 0.168311 0.059848
vt 0.144151 0.059848
vt 0.168311 0.059848
vt 0.168311 0.059848
vt 0.235680 0.063870
vt 0.235680 0.063870
vt 0.144151 0.059848
vt 0.235680 0.063870
vt 0.144151 0.059848
vt 0.299967 0.197534
vt 0.299968 0.197534
vt 0.299968 0.197534
vt 0.299967 0.197534
vt 0.235680 0.063870
vt 0.235680 0.063870
vt 0.235680 0.063870
vt 0.235680 0.063870
vt 0.299967 0.197534
vt 0.299968 0.197534
vt 0.299968 0.197534
vt 0.299967 0.197534
vt 0.234315 0.197534
vt 0.234315 0.197534
vt 0.234315 0.197534
vt 0.234315 0.197534
vt 0.267141 0.197534
vt 0.267141 0.197534
vt 0.267141 0.197534
vt 0.267141 0.197534
vt 0.267141 0.197534
vt 0.267141 0.197534
vt 0.267141 0.197534
vt 0.267141 0.197534
vt 0.332137 0.197534
vt 0.332137 0.197534
vt 0.332137 0.197534
vt 0.332137 0.197534
vt 0.332137 0.197534
vt 0.332137 0.197534
vt 0.235680 0.063870
vt 0.235680 0.063870
vt 0.235680 0.063870
vt 0.235680 0.063870
vt 0.332137 0.197534
vt 0.332137 0.197534
vt 0.235680 0.063870
vt 0.235680 0.063870
vt 0.235680 0.063870
vt 0.235680 0.063870
vt 0.332137 0.197534
vt 0.332137 0.197534
vt 0.332137 0.197534
vt 0.332137 0.197534
vt 0.168311 0.059848
vt 0.168311 0.059848
vt 0.168311 0.059848
vt 0.168311 0.059848
vt 0.168311 0.059848
vt 0.168311 0.059848
vt 0.168311 0.059848
vt 0.168311 0.059848
vt 0.144151 0.059848
vt 0.144151 0.059848
vt 0.144151 0.059848
vt 0.144151 0.059848
vt 0.168311 0.059848
vt 0.168311 0.059848
vt 0.168311 0.059848
vt 0.168311 0.059848
vt 0.144151 0.059848
vt 0.144151 0.059848
vt 0.144151 0.059848
vt 0.144151 0.059848
vt 0.168311 0.059848
vt 0.168311 0.059848
vt 0.168311 0.059848
vt 0.168311 0.059848
vt 0.144151 0.059848
vt 0.144151 0.059848
vt 0.144151 0.059848
vt 0.144151 0.059848
vt 0.144151 0.059848
vt 0.144151 0.059848
vt 0.144151 0.059848
vt 0.144151 0.059848
vn 0.000000 0.000000 1.000000
vn 0.000000 0.000000 1.000000
vn 0.000000 0.000000 1.000000
vn 0.000000 0.000000 1.000000
vn 0.000000 1.000000 0.000000
vn 0.000000 1.000000 0.000000
vn 0.000000 1.000000 0.000000
vn 0.000000 1.000000 0.000000
vn 0.000000 0.000000 -1.000000
vn 0.000000 0.000000 -1.000000
vn 0.000000 0.000000 -1.000000
vn 0.000000 0.000000 -1.000000
vn 0.000000 -1.000000 0.000000
vn 0.000000 -1.000000 0.000000
vn 0.000000 -1.000000 0.000000
vn 0.000000 -1.000000 0.000000
vn 1.000000 0.000000 0.000000
vn 1.000000 0.000000 0.000000
vn 1.000000 0.000000 0.000000
vn 1.000000 0.000000 0.000000
vn -1.000000 0.000000 0.000000
vn -1.000000 0.000000 0.000000
vn -1.000000 0.000000 0.000000
vn -1.000000 0.000000 0.000000
vn 0.000000 1.000000 0.000000
vn 0.000000 1.000000 0.000000
vn 0.000000 1.000000 0.000000
vn 0.000000 1.000000 0.000000
vn 0.000000 1.000000 0.000000
vn 0.000000 1.000000 0.000000
vn 0.000000 1.000000 0.000000
vn 0.000000 1.000000 0.000000
vn -0.000000 1.000000 0.000000
vn -0.000000 1.000000 0.000000
vn -0.000000 1.000000 0.000000
vn -0.000000 1.000000 0.000000
vn 0.000000 1.000000 0.000000
vn 0.000000 1.000000 0.000000
vn 0.000000 1.000000 0.000000
vn 0.000000 1.000000 0.000000
vn 0.000000 1.000000 0.000000
vn 0.000000 1.000000 0.000000
vn 0.000000 1.000000 0.000000
vn 0.000000 1.000000 0.000000
vn 0.000000 1.000000 -0.000000
vn 0.000000 1.000000 -0.000000
vn 0.000000 1.000000 -0.000000
vn 0.000000 1.000000 -0.000000
vn 0.000000 1.000000 -0.000000
vn 0.000000 1.000000 -0.000000
vn 0.000000 1.000000 -0.000000
vn 0.000000 1.000000 -0.000000
vn 0.000000 0.000000 1.000000
vn 0.000000 0.000000 1.000000
vn 0.000000 0.000000 1.000000
vn 0.000000 0.000000 1.000000
vn 0.000000 0.000000 -1.000000
vn 0.000000 0.000000 -1.000000
vn 0.000000 0.000000 -1.000000
vn 0.000000 0.000000 -1.000000
vn 0.968753 0.000000 -0.248026
vn 0.968753 0.000000 -0.248026
vn 0.968753 0.000000 -0.248026
vn 0.968753 0.000000 -0.248026
vn 0.000000 0.000000 -1.000000
vn 0.000000 0.000000 -1.000000
vn 0.000000 0.000000 -1.000000
vn 0.000000 0.000000 -1.000000
vn -0.961313 0.000000 0.275457
vn -0.961313 0.000000 0.275457
vn -0.961313 0.000000 0.275457
vn -0.961313 0.000000 0.275457
vn 0.000000 0.000000 -1.000000
vn 0.000000 0.000000 -1.000000
vn 0.000000 0.000000 -1.000000
vn 0.000000 0.000000 -1.000000
vn -0.963914 0.000000 -0.266214
vn -0.963914 0.000000 -0.266214
vn -0.963914 0.000000 -0.266214
vn -0.963914 0.000000 -0.266214
vn 0.961315 0.000000 0.275452
vn 0.961315 0.000000 0.275452
vn 0.961315 0.000000 0.275452
vn 0.961315 0.000000 0.275452
vn 0.000000 0.000000 1.000000
vn 0.000000 0.000000 1.000000
vn 0.000000 0.000000 1.000000
vn 0.000000 0.000000 1.000000
vn 0.000000 1.000000 0.000000
vn 0.000000 1.000000 0.000000
vn 0.000000 1.000000 0.000000
vn 0.000000 1.000000 0.000000
vn 0.000000 0.000000 -1.000000
vn 0.000000 0.000000 -1.000000
vn 0.000000 0.000000 -1.000000
vn 0.000000 0.000000 -1.000000
vn 0.000000 -1.000000 0.000000
vn 0.000000 -1.000000 0.000000
vn 0.000000 -1.000000 0.000000
vn 0.000000 -1.000000 0.000000
vn 1.000000 0.000000 0.000000
vn 1.000000 0.000000 0.000000
vn 1.000000 0.000000 0.000000
vn 1.000000 0.000000 0.000000
vn -1.000000 0.000000 0.000000
vn -1.000000 0.000000 0.000000
vn -1.000000 0.000000 0.000000
vn -1.000000 0.000000 0.000000
vn 0.000000 1.000000 0.000000
vn 0.000000 1.000000 0.000000
vn 0.000000 1.000000 0.000000
vn 0.000000 1.000000 0.000000
vn 0.000000 1.000000 0.000000
vn 0.000000 1.000000 0.000000
vn 0.000000 1.000000 0.000000
vn 0.000000 1.000000 0.000000
vn -0.000000 1.000000 0.000000
vn -0.000000 1.000000 0.000000
vn -0.000000 1.000000 0.000000
vn -0.000000 1.000000 0.000000
vn 0.000000 1.000000 0.000000
vn 0.000000 1.000000 0.000000
vn 0.000000 1.000000 0.000000
vn 0.000000 1.000000 0.000000
vn 0.000000 1.000000 0.000000
vn 0.000000 1.000000 0.000000
vn 0.000000 1.000000 0.000000
vn 0.000000 1.000000 0.000000
vn 0.000000 1.000000 -0.000000
vn 0.000000 1.000000 -0.000000
vn 0.000000 1.000000 -0.000000
vn 0.000000 1.000000 -0.000000
vn 0.000000 1.000000 -0.000000
vn 0.000000 1.000000 -0.000000
vn 0.000000 1.000000 -0.000000
vn 0.000000 1.000000 -0.000000
vn 0.000000 0.000000 1.000000
vn 0.000000 0.000000 1.000000
vn 0.000000 0.000000 1.000000
vn 0.000000 0.000000 1.000000
vn 0.000000 0.000000 -1.000000
vn 0.000000 0.000000 -1.000000
vn 0.000000 0.000000 -1.000000
vn 0.000000 0.000000 -1.000000
vn 0.968753 0.000000 -0.248026
vn 0.968753 0.000000 -0.248026
vn 0.968753 0.000000 -0.248026
vn 0.968753 0.000000 -0.248026
vn 0.000000 0.000000 -1.000000
vn 0.000000 0.000000 -1.000000
vn 0.000000 0.000000 -1.000000
vn 0.000000 0.000000 -1.000000
vn -0.961313 0.000000 0.275457
vn -0.961313 0.000000 0.275457
vn -0.961313 0.000000 0.275457
vn -0.961313 0.000000 0.275457
vn 0.000000 0.000000 -1.000000
vn 0.000000 0.000000 -1.000000
vn 0.000000 0.000000 -1.000000
vn 0.000000 0.000000 -1.000000
vn -0.963914 0.000000 -0.266214
vn -0.963914 0.000000 -0.266214
vn -0.963914 0.000000 -0.266214
vn -0.963914 0.000000 -0.266214
vn 0.961315 0.000000 0.275452
vn 0.961315 0.000000 0.275452
vn 0.961315 0.000000 0.275452
vn 0.961315 0.000000 0.275452
s off
f 1/15/1 2/11/2 4/21/3 3/23/4
f 17/33/5 18/34/6 19/73/7 20/36/8
f 5/6/9 6/18/10 8/9/11 7/13/12
f 7/8/13 8/10/14 2/2/15 1/16/16
f 2/12/17 8/7/18 6/5/19 4/3/20
f 7/14/21 1/1/22 3/24/23 5/20/24
f 3/4/25 4/22/26 10/26/27 9/25/28
f 4/22/29 6/17/30 12/28/31 10/26/32
f 20/75/33 21/38/34 22/39/35 17/37/36
f 5/19/37 3/4/38 9/25/39 15/31/40
f 24/40/41 23/41/42 19/35/43 18/72/44
f 6/17/45 5/19/46 15/31/47 16/32/48 14/30/49 11/27/50 13/29/51 12/28/52
f 9/42/53 10/71/54 18/70/55 17/43/56
f 11/46/57 14/68/58 20/66/59 19/49/60
f 14/47/61 16/65/62 21/62/63 20/48/64
f 16/50/65 15/64/66 22/63/67 21/51/68
f 15/52/69 9/76/70 17/74/71 22/53/72
f 12/54/73 13/61/74 23/58/75 24/57/76
f 13/55/77 11/69/78 19/67/79 23/56/80
f 10/44/81 12/60/82 24/59/83 18/45/84
f 25/77/85 26/78/86 28/79/87 27/80/88
f 41/81/89 42/82/90 43/83/91 44/84/92
f 29/85/93 30/86/94 32/87/95 31/88/96
f 31/89/97 32/90/98 26/91/99 25/92/100
f 26/93/101 32/94/102 30/95/103 28/96/104
f 31/97/105 25/98/106 27/99/107 29/100/108
f 27/101/109 28/102/110 34/103/111 33/104/112
f 28/102/113 30/105/114 36/106/115 34/103/116
f 44/107/117 45/108/118 46/109/119 41/110/120
f 29/111/121 27/101/122 33/104/123 39/112/124
f 48/113/125 47/114/126 43/115/127 42/116/128
f 30/105/129 29/111/130 39/112/131 40/117/132 38/118/133 35/119/134 37/120/135 36/106/136
f 33/121/137 34/122/138 42/123/139 41/124/140
f 35/125/141 38/126/142 44/127/143 43/128/144
f 38/129/145 40/130/146 45/131/147 44/132/148
f 40/133/149 39/134/150 46/135/151 45/136/152
f 39/137/153 33/138/154 41/139/155 46/140/156
f 36/141/157 37/142/158 47/143/159 48/144/160
f 37/145/161 35/146/162 43/147/163 47/148/164
f 34/149/165 36/150/166 48/151/167 42/152/168
