# This file uses centimeters as units for non-parametric coordinates.

v -2.141836 1.075365 -0.537682
v -2.141836 1.075365 0.537683
v -1.791671 1.075365 -0.537682
v -1.791671 1.075365 0.537683
v -1.791671 0.000000 -0.537682
v -1.791671 0.000000 0.537683
v -2.141836 0.000000 -0.537682
v -2.141836 0.000000 0.537683
v -1.791671 0.899735 -0.362051
v -1.791671 0.899735 0.362053
v -1.791671 0.175630 0.362053
v -1.791671 0.175630 -0.362051
v -2.141836 0.175630 -0.362051
v -2.141836 0.175630 0.362053
v -2.141836 0.899735 0.362053
v -2.141836 0.899735 -0.362051
v 2.124073 1.075365 0.537682
v 2.124073 1.075365 -0.537683
v 1.773908 1.075365 0.537682
v 1.773908 1.075365 -0.537683
v 1.773908 0.000000 0.537682
v 1.773908 0.000000 -0.537683
v 2.124073 0.000000 0.537682
v 2.124073 0.000000 -0.537683
v 1.773908 0.899735 0.362051
v 1.773908 0.899735 -0.362053
v 1.773908 0.175630 -0.362053
v 1.773908 0.175630 0.362051
v 2.124073 0.175630 0.362051
v 2.124073 0.175630 -0.362053
v 2.124073 0.899735 -0.362053
v 2.124073 0.899735 0.362051
v -2.087143 0.639681 0.431756
v 2.087143 0.639681 0.431756
v -2.204430 1.024904 0.508082
v 2.204430 1.024904 0.508082
v -2.204430 1.024904 -0.491918
v 2.204430 1.024904 -0.491918
v -2.087143 0.639681 -0.415592
v 2.087143 0.639681 -0.415592
v -2.087143 0.806364 -0.415592
v -2.087143 0.806364 0.431756
v 2.087143 0.806364 0.431756
v 2.087143 0.806364 -0.415592
v 2.204430 0.806364 0.508082
v -2.204430 0.806364 0.508082
v -2.204430 0.806364 -0.491918
v 2.204430 0.806364 -0.491918
vt 0.267141 0.477412
vt 0.302936 0.474986
vt 0.267141 0.477412
vt 0.302936 0.474986
vt 0.267141 0.477412
vt 0.231012 0.478981
vt 0.267141 0.477412
vt 0.302936 0.474986
vt 0.231012 0.478981
vt 0.302936 0.474986
vt 0.320946 0.477412
vt 0.267141 0.477412
vt 0.231012 0.478981
vt 0.267141 0.477412
vt 0.320945 0.477412
vt 0.302936 0.474986
vt 0.302936 0.474986
vt 0.231012 0.478981
vt 0.302936 0.474986
vt 0.267141 0.477412
vt 0.320946 0.477412
vt 0.302936 0.474986
vt 0.320945 0.477412
vt 0.267141 0.477412
vt 0.302936 0.474986
vt 0.302936 0.474986
vt 0.302936 0.474986
vt 0.302936 0.474986
vt 0.302936 0.474986
vt 0.302936 0.474986
vt 0.302936 0.474986
vt 0.302936 0.474986
vt 0.206038 0.478981
vt 0.233659 0.477313
vt 0.263859 0.477115
vt 0.233659 0.477313
vt 0.263859 0.477115
vt 0.233659 0.477313
vt 0.206038 0.478981
vt 0.233659 0.477313
vt 0.206038 0.478981
vt 0.233659 0.477313
vt 0.263859 0.477115
vt 0.233659 0.477313
vt 0.263859 0.477115
vt 0.233659 0.477313
vt 0.206038 0.478981
vt 0.233659 0.477313
vt 0.320945 0.477412
vt 0.320946 0.477412
vt 0.320946 0.477412
vt 0.320945 0.477412
vt 0.231012 0.478981
vt 0.231012 0.478981
vt 0.231012 0.478981
vt 0.231012 0.478981
vt 0.267141 0.477412
vt 0.267141 0.477412
vt 0.267141 0.477412
vt 0.267141 0.477412
vt 0.267141 0.477412
vt 0.267141 0.477412
vt 0.267141 0.477412
vt 0.267141 0.477412
vt 0.302936 0.474986
vt 0.302936 0.474986
vt 0.302936 0.474986
vt 0.302936 0.474986
vt 0.302936 0.474986
vt 0.302936 0.474986
vt 0.302936 0.474986
vt 0.302936 0.474986
vt 0.302936 0.474986
vt 0.302936 0.474986
vt 0.302936 0.474986
vt 0.302936 0.474986
vt 0.302936 0.474986
vt 0.302936 0.474986
vt 0.302936 0.474986
vt 0.302936 0.474986
vt 0.263859 0.477115
vt 0.263859 0.477115
vt 0.263859 0.477115
vt 0.263859 0.477115
vt 0.233659 0.477313
vt 0.233659 0.477313
vt 0.233659 0.477313
vt 0.233659 0.477313
vt 0.233659 0.477313
vt 0.233659 0.477313
vt 0.233659 0.477313
vt 0.233659 0.477313
vt 0.206038 0.478981
vt 0.206038 0.478981
vt 0.206038 0.478981
vt 0.206038 0.478981
vt 0.168985 0.182420
vt 0.168985 0.182420
vt 0.168985 0.182420
vt 0.168985 0.182420
vt 0.331374 0.181721
vt 0.331374 0.181721
vt 0.331374 0.181721
vt 0.331374 0.181721
vt 0.168985 0.182420
vt 0.168985 0.182420
vt 0.168985 0.182420
vt 0.168985 0.182420
vt 0.237177 0.473617
vt 0.237176 0.473617
vt 0.237176 0.473617
vt 0.237177 0.473617
vt 0.168985 0.182420
vt 0.168985 0.182420
vt 0.168985 0.182420
vt 0.168985 0.182420
vt 0.168985 0.182420
vt 0.168985 0.182420
vt 0.168985 0.182420
vt 0.168985 0.182420
vt 0.271323 0.473617
vt 0.271323 0.473617
vt 0.271323 0.473617
vt 0.271323 0.473617
vt 0.296050 0.473617
vt 0.296050 0.473617
vt 0.296050 0.473617
vt 0.296050 0.473617
vt 0.271323 0.473617
vt 0.271323 0.473617
vt 0.271323 0.473617
vt 0.271323 0.473617
vt 0.296050 0.473617
vt 0.296050 0.473617
vt 0.296050 0.473617
vt 0.296050 0.473617
vt 0.229574 0.181721
vt 0.229574 0.181721
vt 0.229574 0.181721
vt 0.229574 0.181721
vt 0.204847 0.181721
vt 0.204847 0.181721
vt 0.204847 0.181721
vt 0.204847 0.181721
vt 0.229574 0.181721
vt 0.229574 0.181721
vt 0.229574 0.181721
vt 0.229574 0.181721
vt 0.204847 0.181721
vt 0.204847 0.181721
vt 0.204847 0.181721
vt 0.204847 0.181721
vn 0.000000 1.000000 0.000000
vn 0.000000 1.000000 0.000000
vn 0.000000 1.000000 0.000000
vn 0.000000 1.000000 0.000000
vn 0.000000 -1.000000 0.000000
vn 0.000000 -1.000000 0.000000
vn 0.000000 -1.000000 0.000000
vn 0.000000 -1.000000 0.000000
vn 0.000000 0.000000 1.000000
vn 0.000000 0.000000 1.000000
vn 0.000000 0.000000 1.000000
vn 0.000000 0.000000 1.000000
vn 0.000000 0.000000 -1.000000
vn 0.000000 0.000000 -1.000000
vn 0.000000 0.000000 -1.000000
vn 0.000000 0.000000 -1.000000
vn 1.000000 0.000000 0.000000
vn 1.000000 0.000000 0.000000
vn 1.000000 0.000000 0.000000
vn 1.000000 0.000000 0.000000
vn 1.000000 0.000000 0.000000
vn 1.000000 0.000000 0.000000
vn 1.000000 0.000000 0.000000
vn 1.000000 0.000000 0.000000
vn 1.000000 -0.000000 0.000000
vn 1.000000 -0.000000 0.000000
vn 1.000000 -0.000000 0.000000
vn 1.000000 -0.000000 0.000000
vn 1.000000 0.000000 0.000000
vn 1.000000 0.000000 0.000000
vn 1.000000 0.000000 0.000000
vn 1.000000 0.000000 0.000000
vn -1.000000 0.000000 0.000000
vn -1.000000 0.000000 0.000000
vn -1.000000 0.000000 0.000000
vn -1.000000 0.000000 0.000000
vn -1.000000 0.000000 0.000000
vn -1.000000 0.000000 0.000000
vn -1.000000 0.000000 0.000000
vn -1.000000 0.000000 0.000000
vn -1.000000 0.000000 0.000000
vn -1.000000 0.000000 0.000000
vn -1.000000 0.000000 0.000000
vn -1.000000 0.000000 0.000000
vn -1.000000 0.000000 0.000000
vn -1.000000 0.000000 0.000000
vn -1.000000 0.000000 0.000000
vn -1.000000 0.000000 0.000000
vn 0.000000 1.000000 0.000000
vn 0.000000 1.000000 0.000000
vn 0.000000 1.000000 0.000000
vn 0.000000 1.000000 0.000000
vn 0.000000 0.000000 1.000000
vn 0.000000 0.000000 1.000000
vn 0.000000 0.000000 1.000000
vn 0.000000 0.000000 1.000000
vn 0.000000 0.000000 -1.000000
vn 0.000000 0.000000 -1.000000
vn 0.000000 0.000000 -1.000000
vn 0.000000 0.000000 -1.000000
vn 0.000000 -1.000000 0.000000
vn 0.000000 -1.000000 0.000000
vn 0.000000 -1.000000 0.000000
vn 0.000000 -1.000000 0.000000
vn 0.000000 1.000000 0.000000
vn 0.000000 1.000000 0.000000
vn 0.000000 1.000000 0.000000
vn 0.000000 1.000000 0.000000
vn 0.000000 -1.000000 0.000000
vn 0.000000 -1.000000 0.000000
vn 0.000000 -1.000000 0.000000
vn 0.000000 -1.000000 0.000000
vn 0.000000 0.000000 -1.000000
vn 0.000000 0.000000 -1.000000
vn 0.000000 0.000000 -1.000000
vn 0.000000 0.000000 -1.000000
vn 0.000000 0.000000 1.000000
vn 0.000000 0.000000 1.000000
vn 0.000000 0.000000 1.000000
vn 0.000000 0.000000 1.000000
vn -1.000000 0.000000 0.000000
vn -1.000000 0.000000 0.000000
vn -1.000000 0.000000 0.000000
vn -1.000000 0.000000 0.000000
vn -1.000000 0.000000 0.000000
vn -1.000000 0.000000 0.000000
vn -1.000000 0.000000 0.000000
vn -1.000000 0.000000 0.000000
vn -1.000000 -0.000000 0.000000
vn -1.000000 -0.000000 0.000000
vn -1.000000 -0.000000 0.000000
vn -1.000000 -0.000000 0.000000
vn -1.000000 0.000000 0.000000
vn -1.000000 0.000000 0.000000
vn -1.000000 0.000000 0.000000
vn -1.000000 0.000000 0.000000
vn 1.000000 0.000000 0.000000
vn 1.000000 0.000000 0.000000
vn 1.000000 0.000000 0.000000
vn 1.000000 0.000000 0.000000
vn 1.000000 0.000000 0.000000
vn 1.000000 0.000000 0.000000
vn 1.000000 0.000000 0.000000
vn 1.000000 0.000000 0.000000
vn 1.000000 0.000000 0.000000
vn 1.000000 0.000000 0.000000
vn 1.000000 0.000000 0.000000
vn 1.000000 0.000000 0.000000
vn 1.000000 0.000000 0.000000
vn 1.000000 0.000000 0.000000
vn 1.000000 0.000000 0.000000
vn 1.000000 0.000000 0.000000
vn 0.000000 1.000000 0.000000
vn 0.000000 1.000000 0.000000
vn 0.000000 1.000000 0.000000
vn 0.000000 1.000000 0.000000
vn 0.000000 0.000000 -1.000000
vn 0.000000 0.000000 -1.000000
vn 0.000000 0.000000 -1.000000
vn 0.000000 0.000000 -1.000000
vn 0.000000 0.000000 1.000000
vn 0.000000 0.000000 1.000000
vn 0.000000 0.000000 1.000000
vn 0.000000 0.000000 1.000000
vn 0.000000 -1.000000 0.000000
vn 0.000000 -1.000000 0.000000
vn 0.000000 -1.000000 0.000000
vn 0.000000 -1.000000 0.000000
vn 0.000000 -0.609422 0.792846
vn 0.000000 -0.609422 0.792846
vn 0.000000 -0.123898 0.992295
vn 0.000000 -0.123898 0.992295
vn 0.000000 1.000000 0.000000
vn 0.000000 1.000000 0.000000
vn 0.000000 1.000000 0.000000
vn 0.000000 1.000000 0.000000
vn 0.000000 -0.123898 -0.992295
vn 0.000000 -0.123898 -0.992295
vn 0.000000 -0.609422 -0.792846
vn 0.000000 -0.609422 -0.792846
vn 0.000000 -1.000000 0.000000
vn 0.000000 -1.000000 0.000000
vn 0.000000 -1.000000 0.000000
vn 0.000000 -1.000000 0.000000
vn 0.690088 -0.723725 0.000000
vn 0.690088 -0.723725 0.000000
vn 0.954166 -0.299278 0.000000
vn 0.954166 -0.299278 0.000000
vn -0.690088 -0.723725 0.000000
vn -0.690088 -0.723725 0.000000
vn -0.954166 -0.299278 0.000000
vn -0.954166 -0.299278 0.000000
vn -1.000000 0.000000 0.000000
vn -1.000000 0.000000 0.000000
vn -0.690088 -0.723725 0.000000
vn -0.690088 -0.723725 0.000000
vn 0.000000 0.000000 1.000000
vn 0.000000 0.000000 1.000000
vn 0.000000 -0.609422 0.792846
vn 0.000000 -0.609422 0.792846
vn 1.000000 0.000000 0.000000
vn 1.000000 0.000000 0.000000
vn 0.690088 -0.723725 0.000000
vn 0.690088 -0.723725 0.000000
vn 0.000000 -0.609422 -0.792846
vn 0.000000 -0.609422 -0.792846
vn 0.000000 0.000000 -1.000000
vn 0.000000 0.000000 -1.000000
vn 0.000000 -0.123898 0.992295
vn 0.000000 -0.123898 0.992295
vn 0.000000 0.000000 1.000000
vn 0.000000 0.000000 1.000000
vn -0.954166 -0.299278 0.000000
vn -0.954166 -0.299278 0.000000
vn -1.000000 0.000000 0.000000
vn -1.000000 0.000000 0.000000
vn 0.000000 0.000000 -1.000000
vn 0.000000 0.000000 -1.000000
vn 0.000000 -0.123898 -0.992295
vn 0.000000 -0.123898 -0.992295
vn 0.954166 -0.299278 0.000000
vn 0.954166 -0.299278 0.000000
vn 1.000000 0.000000 0.000000
vn 1.000000 0.000000 0.000000
s off
f 1/15/1 2/11/2 4/21/3 3/23/4
f 5/6/5 6/9/6 8/13/7 7/18/8
f 2/12/9 8/7/10 6/5/11 4/3/12
f 7/14/13 1/1/14 3/24/15 5/20/16
f 3/2/17 4/4/18 10/8/19 9/10/20
f 4/4/21 6/16/22 11/17/23 10/8/24
f 6/16/25 5/19/26 12/22/27 11/17/28
f 5/19/29 3/2/30 9/10/31 12/22/32
f 7/25/33 8/26/34 14/27/35 13/28/36
f 8/26/37 2/29/38 15/30/39 14/27/40
f 2/29/41 1/31/42 16/32/43 15/30/44
f 1/31/45 7/25/46 13/28/47 16/32/48
f 11/35/49 12/45/50 13/37/51 14/43/52
f 12/36/53 9/48/54 16/40/55 13/44/56
f 11/46/57 14/38/58 15/42/59 10/34/60
f 10/33/61 15/39/62 16/41/63 9/47/64
f 17/49/65 18/50/66 20/51/67 19/52/68
f 21/53/69 22/54/70 24/55/71 23/56/72
f 18/57/73 24/58/74 22/59/75 20/60/76
f 23/61/77 17/62/78 19/63/79 21/64/80
f 19/65/81 20/66/82 26/67/83 25/68/84
f 20/66/85 22/69/86 27/70/87 26/67/88
f 22/69/89 21/71/90 28/72/91 27/70/92
f 21/71/93 19/65/94 25/68/95 28/72/96
f 23/73/97 24/74/98 30/75/99 29/76/100
f 24/74/101 18/77/102 31/78/103 30/75/104
f 18/77/105 17/79/106 32/80/107 31/78/108
f 17/79/109 23/73/110 29/76/111 32/80/112
f 27/81/113 28/82/114 29/83/115 30/84/116
f 28/85/117 25/86/118 32/87/119 29/88/120
f 27/89/121 30/90/122 31/91/123 26/92/124
f 26/93/125 31/94/126 32/95/127 25/96/128
f 42/97/129 43/98/130 45/99/131 46/100/132
f 35/101/133 36/102/134 38/103/135 37/104/136
f 47/105/137 48/106/138 44/107/139 41/108/140
f 39/109/141 40/110/142 34/111/143 33/112/144
f 43/113/145 44/114/146 48/115/147 45/116/148
f 41/117/149 42/118/150 46/119/151 47/120/152
f 39/121/153 33/122/154 42/123/155 41/124/156
f 33/125/157 34/126/158 43/127/159 42/128/160
f 34/129/161 40/130/162 44/131/163 43/132/164
f 41/133/165 44/134/166 40/135/167 39/136/168
f 46/137/169 45/138/170 36/139/171 35/140/172
f 47/141/173 46/142/174 35/143/175 37/144/176
f 37/145/177 38/146/178 48/147/179 47/148/180
f 45/149/181 48/150/182 38/151/183 36/152/184
