# This file uses centimeters as units for non-parametric coordinates.

v -0.152884 -0.354074 0.118970
v 0.152884 -0.354074 0.118970
v -0.152884 -0.064261 0.021486
v 0.152884 -0.064261 0.021486
v -0.152884 -0.074045 -0.007601
v 0.152884 -0.074045 -0.007601
v -0.152884 -0.363858 0.089883
v 0.152884 -0.363858 0.089883
v -0.122127 -0.324922 0.109164
v 0.030145 -0.324922 0.109164
v 0.122127 -0.093413 0.031292
v -0.122127 -0.093413 0.031292
v -0.122127 -0.127895 0.042891
v 0.122127 -0.127895 0.042891
v -0.122127 -0.148252 0.049738
v 0.122127 -0.148252 0.049738
v -0.122127 -0.189613 0.063650
v 0.122127 -0.189613 0.063650
v -0.122127 -0.212135 0.071226
v 0.122127 -0.212135 0.071226
v -0.122127 -0.257103 0.086352
v 0.122127 -0.257103 0.086352
v -0.122127 -0.282345 0.094843
v 0.030145 -0.282345 0.094843
v -0.152884 -0.005687 0.026761
v 0.152884 -0.005687 0.026761
v 0.152884 -0.000000 0.000000
v -0.152884 -0.000000 0.000000
vt 0.306638 0.473617
vt 0.331365 0.473617
vt 0.330203 0.473617
vt 0.306638 0.473617
vt 0.331365 0.473617
vt 0.330203 0.473617
vt 0.235411 0.473617
vt 0.331365 0.473617
vt 0.235411 0.473617
vt 0.235411 0.473617
vt 0.306638 0.473617
vt 0.306638 0.473617
vt 0.306638 0.473617
vt 0.306638 0.473617
vt 0.294888 0.473617
vt 0.331365 0.473617
vt 0.331365 0.473617
vt 0.294889 0.473617
vt 0.235411 0.473617
vt 0.331365 0.473617
vt 0.306638 0.473617
vt 0.331365 0.473617
vt 0.331365 0.473617
vt 0.306638 0.473617
vt 0.234223 0.473617
vt 0.331365 0.473617
vt 0.234223 0.473617
vt 0.331365 0.473617
vt 0.331365 0.473617
vt 0.331365 0.473617
vt 0.331365 0.473617
vt 0.234223 0.473617
vt 0.331365 0.473617
vt 0.331365 0.473617
vt 0.331365 0.473617
vt 0.234223 0.473617
vt 0.331365 0.473617
vt 0.331365 0.473617
vt 0.234223 0.473617
vt 0.331365 0.473617
vt 0.331365 0.473617
vt 0.234223 0.473617
vt 0.234223 0.473617
vt 0.234223 0.473617
vt 0.331365 0.473617
vt 0.234223 0.473617
vt 0.234223 0.473617
vt 0.234223 0.473617
vt 0.331365 0.473617
vt 0.234223 0.473617
vt 0.234223 0.473617
vt 0.234223 0.473617
vt 0.331365 0.473617
vt 0.234223 0.473617
vt 0.331365 0.473617
vt 0.234223 0.473617
vt 0.366689 0.473617
vt 0.294888 0.473617
vt 0.330203 0.473617
vt 0.294889 0.473617
vt 0.330203 0.473617
vt 0.294888 0.473617
vt 0.330203 0.473617
vt 0.294888 0.473617
vt 0.330203 0.473617
vt 0.330203 0.473617
vt 0.330203 0.473617
vt 0.294889 0.473617
vt 0.294889 0.473617
vt 0.366689 0.473617
vt 0.366689 0.473617
vt 0.366689 0.473617
vn 0.000000 0.318816 0.947817
vn 0.000000 0.318816 0.947817
vn 0.000000 0.318816 0.947817
vn 0.000000 0.318816 0.947817
vn 0.000000 0.978161 0.207851
vn 0.000000 0.978161 0.207851
vn 0.000000 0.978161 0.207851
vn 0.000000 0.978161 0.207851
vn 0.000000 -0.318816 -0.947817
vn 0.000000 -0.318816 -0.947817
vn 0.000000 -0.318816 -0.947817
vn 0.000000 -0.318816 -0.947817
vn 0.000000 -0.947817 0.318815
vn 0.000000 -0.947817 0.318815
vn 0.000000 -0.947817 0.318815
vn 0.000000 -0.947817 0.318815
vn 1.000000 0.000000 0.000000
vn 1.000000 0.000000 0.000000
vn 1.000000 0.000000 0.000000
vn 1.000000 0.000000 0.000000
vn -1.000000 0.000000 0.000000
vn -1.000000 0.000000 0.000000
vn -1.000000 0.000000 0.000000
vn -1.000000 0.000000 0.000000
vn 0.000000 0.318816 0.947817
vn 0.000000 0.318816 0.947817
vn 0.000000 0.318816 0.947817
vn 0.000000 0.318816 0.947817
vn 0.000000 0.318816 0.947817
vn 0.000000 0.318816 0.947817
vn 0.000000 0.318816 0.947817
vn 0.000000 0.318816 0.947817
vn 0.000000 0.318816 0.947817
vn 0.000000 0.318816 0.947817
vn 0.000000 0.318816 0.947817
vn 0.000000 0.318816 0.947817
vn 0.000000 0.318816 0.947817
vn 0.000000 0.318816 0.947817
vn 0.000000 0.318816 0.947817
vn 0.000000 0.318816 0.947817
vn 0.000000 0.318816 0.947817
vn 0.000000 0.318816 0.947817
vn -0.000000 0.318816 0.947817
vn -0.000000 0.318816 0.947817
vn -0.000000 0.318816 0.947817
vn -0.000000 0.318816 0.947817
vn -0.000000 0.318816 0.947817
vn -0.000000 0.318816 0.947817
vn -0.000000 0.318816 0.947817
vn -0.000000 0.318816 0.947817
vn -0.000000 0.318816 0.947817
vn -0.000000 0.318816 0.947817
vn 0.000000 0.318816 0.947817
vn 0.000000 0.318816 0.947817
vn 0.000000 0.318816 0.947817
vn 0.000000 0.318816 0.947817
vn 0.000000 0.318815 0.947817
vn 0.000000 0.318815 0.947817
vn 0.000000 0.318816 0.947817
vn 0.000000 0.318816 0.947817
vn 0.000000 0.318816 0.947817
vn 0.000000 0.318816 0.947817
vn 0.000000 0.318816 0.947817
vn 0.000000 0.318816 0.947817
vn 0.000000 0.318816 0.947817
vn 0.000000 0.318816 0.947817
vn 0.000000 0.318816 0.947817
vn 0.000000 0.318816 0.947817
vn 0.000000 0.318816 0.947817
vn 0.000000 0.318816 0.947817
vn 0.000000 0.318816 0.947817
vn 0.000000 0.318816 0.947817
vn 0.000000 0.318816 0.947817
vn 0.000000 0.318816 0.947817
vn 0.000000 0.318816 0.947817
vn 0.000000 0.318816 0.947817
vn 0.000000 -0.089696 0.995969
vn 0.000000 -0.089696 0.995969
vn 0.000000 -0.089696 0.995969
vn 0.000000 -0.089696 0.995969
vn 1.000000 0.000000 0.000000
vn 1.000000 0.000000 0.000000
vn 1.000000 0.000000 0.000000
vn 1.000000 0.000000 0.000000
vn 0.000000 0.102114 -0.994773
vn 0.000000 0.102114 -0.994773
vn 0.000000 0.102114 -0.994773
vn 0.000000 0.102114 -0.994773
vn -1.000000 0.000000 0.000000
vn -1.000000 0.000000 0.000000
vn -1.000000 0.000000 0.000000
vn -1.000000 0.000000 0.000000
s off
f 13/51/1 14/52/2 11/27/3 12/54/4
f 25/57/5 26/71/6 27/72/7 28/70/8
f 5/5/9 6/16/10 8/8/11 7/20/12
f 7/7/13 8/19/14 2/10/15 1/9/16
f 2/21/17 8/11/18 6/12/19 4/4/20
f 7/13/21 1/1/22 3/24/23 5/14/24
f 1/23/25 2/2/26 10/26/27 9/55/28
f 2/2/29 4/22/30 11/53/31 14/30/32 16/49/33 18/34/34 20/45/35 22/38/36 24/40/37 10/26/38
f 4/22/39 3/17/40 12/28/41 11/53/42
f 3/17/43 1/23/44 9/55/45 23/41/46 21/37/47 19/35/48 17/33/49 15/31/50 13/29/51 12/28/52
f 15/31/53 16/49/54 14/30/55 13/29/56
f 17/47/57 18/48/58 16/32/59 15/50/60
f 19/35/61 20/45/62 18/34/63 17/33/64
f 21/43/65 22/44/66 20/36/67 19/46/68
f 23/41/69 24/40/70 22/38/71 21/37/72
f 9/25/73 10/56/74 24/42/75 23/39/76
f 3/3/77 4/67/78 26/66/79 25/65/80
f 4/15/81 6/64/82 27/62/83 26/58/84
f 6/6/85 5/63/86 28/61/87 27/59/88
f 5/18/89 3/68/90 25/69/91 28/60/92
